<?xml version="1.0" encoding="UTF-8" standalone="no"?>
<!-- Created with Inkscape (http://www.inkscape.org/) -->

<svg
   xmlns:dc="http://purl.org/dc/elements/1.1/"
   xmlns:cc="http://creativecommons.org/ns#"
   xmlns:rdf="http://www.w3.org/1999/02/22-rdf-syntax-ns#"
   xmlns:svg="http://www.w3.org/2000/svg"
   xmlns="http://www.w3.org/2000/svg"
   xmlns:sodipodi="http://sodipodi.sourceforge.net/DTD/sodipodi-0.dtd"
   xmlns:inkscape="http://www.inkscape.org/namespaces/inkscape"
   width="200"
   height="80"
   id="svg2"
   version="1.1"
   inkscape:version="0.48.0 r9654"
   sodipodi:docname="2011-(02)feb-16, 07.svg">
  <defs
     id="defs4" />
  <sodipodi:namedview
     id="base"
     pagecolor="#ffffff"
     bordercolor="#666666"
     borderopacity="1.0"
     inkscape:pageopacity="0.0"
     inkscape:pageshadow="2"
     inkscape:zoom="1"
     inkscape:cx="133.48413"
     inkscape:cy="32.776195"
     inkscape:document-units="px"
     inkscape:current-layer="layer1"
     showgrid="false"
     inkscape:window-width="1589"
     inkscape:window-height="1117"
     inkscape:window-x="1600"
     inkscape:window-y="27"
     inkscape:window-maximized="1" />
  <metadata
     id="metadata7">
    <rdf:RDF>
      <cc:Work
         rdf:about="">
        <dc:format>image/svg+xml</dc:format>
        <dc:type
           rdf:resource="http://purl.org/dc/dcmitype/StillImage" />
        <dc:title />
      </cc:Work>
    </rdf:RDF>
  </metadata>
  <g
     inkscape:label="Layer 1"
     inkscape:groupmode="layer"
     id="layer1">
    <path
       inkscape:connector-curvature="0"
       style="font-size:12px;font-style:normal;font-weight:normal;line-height:125%;letter-spacing:0px;word-spacing:0px;fill:#000000;fill-opacity:1;stroke:none;font-family:Sans"
       d="m 18.738209,44.740202 1.586594,-1.105229 -3.814703,-5.476135 -1.484882,1.548514 -0.616244,-0.884639 1.47526,-1.541823 0.971181,-0.676529 4.430952,6.360782 1.586585,-1.105224 0.569356,0.817331 -4.134743,2.880282 -0.569356,-0.81733"
       id="path3011" />
    <path
       inkscape:connector-curvature="0"
       style="font-size:12px;font-style:normal;font-weight:normal;line-height:125%;letter-spacing:0px;word-spacing:0px;fill:#000000;fill-opacity:1;stroke:none;font-family:Sans"
       d="m 24.659,40.015912 1.014449,-0.70667 0.576055,0.826947 0.283253,2.087769 -0.620212,0.432043 L 25.235056,40.842859 24.659,40.015912"
       id="path3013" />
    <path
       inkscape:connector-curvature="0"
       style="font-size:12px;font-style:normal;font-weight:normal;line-height:125%;letter-spacing:0px;word-spacing:0px;fill:#000000;fill-opacity:1;stroke:none;font-family:Sans"
       d="m 34.188144,33.377863 1.019257,-0.710019 0.850687,1.221191 -1.019256,0.710019 -0.850688,-1.221191"
       id="path3149" />
    <path
       inkscape:connector-curvature="0"
       style="font-size:12px;font-style:normal;font-weight:normal;line-height:125%;letter-spacing:0px;word-spacing:0px;fill:#000000;fill-opacity:1;stroke:none;font-family:Sans"
       d="m 37.462282,31.097083 1.024073,-0.713375 0.850688,1.221191 -1.024074,0.713375 -0.850687,-1.221191"
       id="path3147" />
    <path
       inkscape:connector-curvature="0"
       style="font-size:12px;font-style:normal;font-weight:normal;line-height:125%;letter-spacing:0px;word-spacing:0px;fill:#000000;fill-opacity:1;stroke:none;font-family:Sans"
       d="m 30.90919,35.661999 1.024073,-0.713375 0.850688,1.221191 -1.024073,0.713375 -0.850688,-1.221191"
       id="path3015" />
    <path
       inkscape:connector-curvature="0"
       style="font-size:12px;font-style:normal;font-weight:normal;line-height:125%;letter-spacing:0px;word-spacing:0px;fill:#000000;fill-opacity:1;stroke:none;font-family:Sans"
       d="m 40.774886,28.789506 1.014456,-0.706675 0.576056,0.826947 0.283245,2.087774 -0.620212,0.432043 -0.67749,-1.813142 -0.576055,-0.826947"
       id="path3017" />
    <path
       inkscape:connector-curvature="0"
       style="font-size:12px;font-style:normal;font-weight:normal;line-height:125%;letter-spacing:0px;word-spacing:0px;fill:#000000;fill-opacity:1;stroke:none;font-family:Sans"
       d="m 44.667735,17.046818 c -0.724374,0.504615 -1.153667,1.132141 -1.279226,1.881319 -0.125549,0.749194 0.07791,1.478645 0.591447,2.215842 0.52471,0.753238 1.145424,1.220583 1.86576,1.366234 0.721315,0.140217 1.446587,-0.05558 2.164558,-0.555723 0.346161,-0.241137 0.605434,-0.545509 0.787988,-0.891679 0.182557,-0.346148 0.269747,-0.692527 0.263636,-1.097684 0.563696,0.911726 0.806096,1.690235 0.767767,2.35961 -0.03736,0.663947 -0.373983,1.212637 -1.015029,1.659193 -0.240393,0.167459 -0.479173,0.309907 -0.771529,0.423258 -0.292422,0.113274 -0.616113,0.181643 -0.940098,0.235944 l 0.625178,0.897464 c 0.336228,-0.0914 0.628648,-0.204657 0.912153,-0.330732 0.283505,-0.126074 0.55357,-0.271426 0.797171,-0.44112 0.907073,-0.631871 1.390896,-1.454476 1.457287,-2.500458 0.06736,-1.051397 -0.284698,-2.158179 -1.072857,-3.289625 -0.843997,-1.211569 -1.714606,-1.97615 -2.595808,-2.3049 -0.88024,-0.334174 -1.728237,-0.205225 -2.558398,0.373057 z m 0.535867,0.769255 c 0.435917,-0.30365 0.866236,-0.40347 1.329331,-0.278578 0.464063,0.119477 0.882532,0.446843 1.242014,0.962874 0.361706,0.519259 0.521528,1.022048 0.472759,1.498742 -0.04556,0.474486 -0.286098,0.84675 -0.722015,1.1504 -0.435905,0.303666 -0.865259,0.398049 -1.329331,0.278578 -0.46086,-0.121684 -0.8803,-0.443622 -1.242014,-0.962875 -0.359474,-0.516037 -0.518324,-1.024255 -0.47276,-1.498741 0.04654,-0.479908 0.28611,-0.846734 0.722016,-1.1504 z"
       id="path3141" />
    <path
       inkscape:connector-curvature="0"
       style="font-size:12px;font-style:normal;font-weight:normal;line-height:125%;letter-spacing:0px;word-spacing:0px;fill:#000000;fill-opacity:1;stroke:none;font-family:Sans"
       d="m 58.336775,36.836527 c -0.804508,0.560436 -1.203336,1.300031 -1.185309,2.234827 0.019,0.929362 0.444077,2.004305 1.288074,3.215874 0.841746,1.208371 1.702754,1.97964 2.570166,2.322762 0.86838,0.33767 1.702601,0.223095 2.507114,-0.337333 0.804514,-0.560428 1.204301,-1.305469 1.18531,-2.234828 -0.01803,-0.934804 -0.446329,-2.007501 -1.288075,-3.215873 -0.843997,-1.211569 -1.70178,-1.985083 -2.570166,-2.322762 -0.867415,-0.343108 -1.702595,-0.223087 -2.507114,0.337333 z m 0.535867,0.769254 c 0.503225,-0.350537 1.052386,-0.361755 1.646245,-0.04232 0.594824,0.314029 1.233078,0.950063 1.920779,1.937264 0.685455,0.984012 1.078741,1.828787 1.169386,2.498772 0.09159,0.664559 -0.124879,1.153364 -0.628099,1.503909 -0.500019,0.348316 -1.033561,0.381974 -1.628382,0.06797 -0.593857,-0.319445 -1.253178,-0.9789 -1.938641,-1.962906 -0.687693,-0.987206 -1.059911,-1.808561 -1.151524,-2.473131 -0.09063,-0.669982 0.110222,-1.181226 0.610236,-1.529551 z"
       id="path3021" />
    <path
       inkscape:connector-curvature="0"
       style="font-size:12px;font-style:normal;font-weight:normal;line-height:125%;letter-spacing:0px;word-spacing:0px;fill:#000000;fill-opacity:1;stroke:none;font-family:Sans"
       d="m 66.867396,39.924964 1.014449,-0.70667 0.576055,0.826947 0.283253,2.087769 -0.620212,0.432043 -0.677489,-1.813142 -0.576056,-0.826947"
       id="path3023" />
    <path
       inkscape:connector-curvature="0"
       style="font-size:12px;font-style:normal;font-weight:normal;line-height:125%;letter-spacing:0px;word-spacing:0px;fill:#000000;fill-opacity:1;stroke:none;font-family:Sans"
       d="m 76.39654,33.286915 1.019257,-0.710019 0.850687,1.221191 -1.019256,0.710019 -0.850688,-1.221191"
       id="path3131" />
    <path
       inkscape:connector-curvature="0"
       style="font-size:12px;font-style:normal;font-weight:normal;line-height:125%;letter-spacing:0px;word-spacing:0px;fill:#000000;fill-opacity:1;stroke:none;font-family:Sans"
       d="m 79.670678,31.006135 1.024073,-0.713374 0.850688,1.221191 -1.024074,0.713374 -0.850687,-1.221191"
       id="path3129" />
    <path
       inkscape:connector-curvature="0"
       style="font-size:12px;font-style:normal;font-weight:normal;line-height:125%;letter-spacing:0px;word-spacing:0px;fill:#000000;fill-opacity:1;stroke:none;font-family:Sans"
       d="m 73.117586,35.571051 1.024073,-0.713375 0.850688,1.221192 -1.024073,0.713374 -0.850688,-1.221191"
       id="path3025" />
    <path
       inkscape:connector-curvature="0"
       style="font-size:12px;font-style:normal;font-weight:normal;line-height:125%;letter-spacing:0px;word-spacing:0px;fill:#000000;fill-opacity:1;stroke:none;font-family:Sans"
       d="m 82.983282,28.698558 1.014456,-0.706675 0.576056,0.826947 0.283245,2.087775 -0.620212,0.432043 -0.67749,-1.813143 -0.576055,-0.826947"
       id="path3027" />
    <path
       inkscape:connector-curvature="0"
       style="font-size:12px;font-style:normal;font-weight:normal;line-height:125%;letter-spacing:0px;word-spacing:0px;fill:#000000;fill-opacity:1;stroke:none;font-family:Sans"
       d="m 86.876131,16.95587 c -0.724374,0.504615 -1.153667,1.132142 -1.279226,1.881319 -0.125549,0.749194 0.07791,1.478645 0.591447,2.215842 0.52471,0.753238 1.145424,1.220583 1.86576,1.366235 0.721315,0.140216 1.446587,-0.05558 2.164558,-0.555724 0.346161,-0.241137 0.605434,-0.545508 0.787988,-0.891679 0.182557,-0.346148 0.269747,-0.692526 0.263636,-1.097684 0.563696,0.911726 0.806096,1.690235 0.767767,2.359611 -0.03736,0.663946 -0.373983,1.212637 -1.015029,1.659192 -0.240393,0.167459 -0.479173,0.309908 -0.771529,0.423258 -0.292422,0.113274 -0.616113,0.181643 -0.940098,0.235944 l 0.625178,0.897464 c 0.336228,-0.0914 0.628648,-0.204657 0.912153,-0.330732 0.283505,-0.126074 0.55357,-0.271426 0.797171,-0.44112 0.907073,-0.631871 1.390896,-1.454476 1.457287,-2.500458 0.06736,-1.051397 -0.284698,-2.158179 -1.072857,-3.289625 -0.843997,-1.211569 -1.714606,-1.97615 -2.595808,-2.3049 -0.88024,-0.334174 -1.728237,-0.205225 -2.558398,0.373057 z m 0.535867,0.769255 c 0.435917,-0.30365 0.866236,-0.40347 1.329331,-0.278578 0.464063,0.119477 0.882532,0.446844 1.242014,0.962875 0.361706,0.519258 0.521528,1.022047 0.472759,1.498741 -0.04556,0.474486 -0.286098,0.84675 -0.722015,1.1504 -0.435905,0.303666 -0.865259,0.398049 -1.329331,0.278578 -0.46086,-0.121684 -0.8803,-0.443621 -1.242014,-0.962875 -0.359474,-0.516036 -0.518324,-1.024254 -0.47276,-1.498741 0.04654,-0.479907 0.28611,-0.846734 0.722016,-1.1504 z"
       id="path3123" />
    <path
       inkscape:connector-curvature="0"
       style="font-size:12px;font-style:normal;font-weight:normal;line-height:125%;letter-spacing:0px;word-spacing:0px;fill:#000000;fill-opacity:1;stroke:none;font-family:Sans"
       d="m 98.423851,36.745577 c -0.804508,0.560436 -1.203336,1.300031 -1.185309,2.234828 0.01901,0.929361 0.444077,2.004304 1.288074,3.215873 0.841746,1.208372 1.702754,1.97964 2.570164,2.322762 0.86838,0.33767 1.7026,0.223095 2.50712,-0.337333 0.80451,-0.560428 1.2043,-1.305469 1.18531,-2.234828 -0.018,-0.934804 -0.44633,-2.007501 -1.28808,-3.215873 -0.844,-1.211568 -1.70178,-1.985083 -2.57016,-2.322762 -0.86742,-0.343108 -1.7026,-0.223087 -2.507119,0.337333 z m 0.535867,0.769255 c 0.503225,-0.350538 1.052382,-0.361756 1.646242,-0.04232 0.59483,0.314029 1.23308,0.950063 1.92078,1.937264 0.68546,0.984012 1.07874,1.828788 1.16939,2.498772 0.0916,0.664559 -0.12488,1.153364 -0.6281,1.503909 -0.50002,0.348317 -1.03356,0.381975 -1.62838,0.06797 -0.59386,-0.319445 -1.25318,-0.978899 -1.938644,-1.962906 -0.687693,-0.987206 -1.059911,-1.808561 -1.151524,-2.47313 -0.09063,-0.669983 0.110222,-1.181227 0.610236,-1.529551 z"
       id="path3031" />
    <path
       inkscape:connector-curvature="0"
       style="font-size:12px;font-style:normal;font-weight:normal;line-height:125%;letter-spacing:0px;word-spacing:0px;fill:#000000;fill-opacity:1;stroke:none;font-family:Sans"
       d="m 106.95447,39.834014 1.01445,-0.706669 0.57606,0.826946 0.28325,2.087769 -0.62021,0.432043 -0.67749,-1.813142 -0.57606,-0.826947"
       id="path3033" />
    <path
       inkscape:connector-curvature="0"
       style="font-size:12px;font-style:normal;font-weight:normal;line-height:125%;letter-spacing:0px;word-spacing:0px;fill:#000000;fill-opacity:1;stroke:none;font-family:Sans"
       d="m 116.48362,33.195965 1.01925,-0.710019 0.85069,1.221191 -1.01926,0.71002 -0.85068,-1.221192"
       id="path3113" />
    <path
       inkscape:connector-curvature="0"
       style="font-size:12px;font-style:normal;font-weight:normal;line-height:125%;letter-spacing:0px;word-spacing:0px;fill:#000000;fill-opacity:1;stroke:none;font-family:Sans"
       d="m 119.75775,30.915185 1.02408,-0.713374 0.85068,1.221191 -1.02407,0.713374 -0.85069,-1.221191"
       id="path3111" />
    <path
       inkscape:connector-curvature="0"
       style="font-size:12px;font-style:normal;font-weight:normal;line-height:125%;letter-spacing:0px;word-spacing:0px;fill:#000000;fill-opacity:1;stroke:none;font-family:Sans"
       d="m 113.20466,35.480101 1.02408,-0.713374 0.85068,1.221191 -1.02407,0.713374 -0.85069,-1.221191"
       id="path3035" />
    <path
       inkscape:connector-curvature="0"
       style="font-size:12px;font-style:normal;font-weight:normal;line-height:125%;letter-spacing:0px;word-spacing:0px;fill:#000000;fill-opacity:1;stroke:none;font-family:Sans"
       d="m 123.07036,28.607609 1.01445,-0.706676 0.57606,0.826947 0.28324,2.087775 -0.62021,0.432043 -0.67749,-1.813142 -0.57605,-0.826947"
       id="path3037" />
    <path
       inkscape:connector-curvature="0"
       style="font-size:12px;font-style:normal;font-weight:normal;line-height:125%;letter-spacing:0px;word-spacing:0px;fill:#000000;fill-opacity:1;stroke:none;font-family:Sans"
       d="m 126.96321,16.86492 c -0.72438,0.504615 -1.15367,1.132142 -1.27923,1.881319 -0.12555,0.749194 0.0779,1.478646 0.59145,2.215842 0.52471,0.753238 1.14542,1.220583 1.86576,1.366235 0.72131,0.140216 1.44658,-0.05558 2.16456,-0.555724 0.34616,-0.241137 0.60543,-0.545508 0.78798,-0.891678 0.18256,-0.346148 0.26975,-0.692527 0.26364,-1.097684 0.5637,0.911725 0.8061,1.690234 0.76777,2.35961 -0.0374,0.663946 -0.37399,1.212637 -1.01503,1.659192 -0.24039,0.167459 -0.47917,0.309908 -0.77153,0.423258 -0.29242,0.113274 -0.61611,0.181643 -0.9401,0.235945 l 0.62518,0.897464 c 0.33623,-0.0914 0.62865,-0.204658 0.91215,-0.330732 0.28351,-0.126075 0.55357,-0.271427 0.79717,-0.441121 0.90708,-0.631871 1.3909,-1.454476 1.45729,-2.500458 0.0674,-1.051397 -0.2847,-2.158179 -1.07286,-3.289625 -0.84399,-1.211569 -1.7146,-1.976149 -2.59581,-2.3049 -0.88024,-0.334173 -1.72823,-0.205225 -2.55839,0.373057 z m 0.53586,0.769255 c 0.43592,-0.303649 0.86624,-0.40347 1.32933,-0.278578 0.46407,0.119477 0.88254,0.446844 1.24202,0.962875 0.36171,0.519259 0.52153,1.022047 0.47276,1.498741 -0.0456,0.474486 -0.2861,0.84675 -0.72202,1.1504 -0.4359,0.303666 -0.86526,0.398049 -1.32933,0.278578 -0.46086,-0.121684 -0.8803,-0.443621 -1.24201,-0.962874 -0.35948,-0.516037 -0.51833,-1.024255 -0.47276,-1.498742 0.0465,-0.479907 0.28611,-0.846734 0.72201,-1.1504 z"
       id="path3105" />
    <path
       inkscape:connector-curvature="0"
       style="font-size:12px;font-style:normal;font-weight:normal;line-height:125%;letter-spacing:0px;word-spacing:0px;fill:#000000;fill-opacity:1;stroke:none;font-family:Sans"
       d="m 144.18142,45.17446 1.58659,-1.105228 -3.8147,-5.476135 -1.48488,1.548514 -0.61625,-0.884639 1.47526,-1.541823 0.97118,-0.67653 4.43096,6.360782 1.58658,-1.105223 0.56936,0.81733 -4.13475,2.880283 -0.56935,-0.817331"
       id="path3041" />
    <path
       inkscape:connector-curvature="0"
       style="font-size:12px;font-style:normal;font-weight:normal;line-height:125%;letter-spacing:0px;word-spacing:0px;fill:#000000;fill-opacity:1;stroke:none;font-family:Sans"
       d="m 150.10221,40.45017 1.01445,-0.706669 0.57605,0.826947 0.28326,2.087769 -0.62022,0.432042 -0.67749,-1.813142 -0.57605,-0.826947"
       id="path3043" />
    <path
       inkscape:connector-curvature="0"
       style="font-size:12px;font-style:normal;font-weight:normal;line-height:125%;letter-spacing:0px;word-spacing:0px;fill:#000000;fill-opacity:1;stroke:none;font-family:Sans"
       d="m 157.36767,31.454377 c 0.53398,-0.224382 1.04018,-0.269954 1.51862,-0.136701 0.48164,0.131033 0.88321,0.42732 1.20474,0.888867 0.49344,0.70836 0.63165,1.426144 0.41462,2.153362 -0.21703,0.727209 -0.77427,1.403407 -1.67174,2.028585 -0.30129,0.209883 -0.6334,0.396017 -0.99636,0.558389 -0.3575,0.163362 -0.74744,0.304071 -1.1698,0.422151 l -0.65309,-0.937531 c 0.37865,-0.0305 0.75614,-0.117317 1.13248,-0.260472 0.37636,-0.143108 0.7392,-0.336398 1.08857,-0.579775 0.60899,-0.424224 0.98841,-0.867059 1.13828,-1.328504 0.15306,-0.46366 0.07,-0.924666 -0.24934,-1.383019 -0.29472,-0.423086 -0.67374,-0.649398 -1.13705,-0.678943 -0.46234,-0.03497 -0.95794,0.131743 -1.48681,0.50015 l -0.83656,0.582755 -0.55596,-0.798105 0.87503,-0.609551 c 0.47757,-0.332669 0.7771,-0.681769 0.89859,-1.047272 0.11924,-0.368691 0.0538,-0.732539 -0.19624,-1.091539 -0.25678,-0.368588 -0.58468,-0.559102 -0.9837,-0.571548 -0.39805,-0.01785 -0.84068,0.1429 -1.32788,0.482274 -0.26603,0.18533 -0.53118,0.412924 -0.79551,0.682695 -0.26431,0.269796 -0.53673,0.592886 -0.81729,0.96922 l -0.60285,-0.865414 c 0.29716,-0.359329 0.58814,-0.676277 0.87293,-0.95085 0.288,-0.276794 0.57466,-0.514506 0.85993,-0.713226 0.73721,-0.513526 1.43778,-0.751617 2.10172,-0.714275 0.66171,0.03416 1.19128,0.336503 1.58872,0.907026 0.27686,0.397458 0.39752,0.813273 0.36196,1.247442 -0.0378,0.430974 -0.22978,0.845593 -0.57598,1.24385"
       id="path3045" />
    <path
       inkscape:connector-curvature="0"
       style="font-size:12px;font-style:normal;font-weight:normal;line-height:125%;letter-spacing:0px;word-spacing:0px;fill:#000000;fill-opacity:1;stroke:none;font-family:Sans"
       d="m 162.64106,31.715542 1.01445,-0.706669 0.57606,0.826947 0.28325,2.087769 -0.62021,0.432042 -0.67749,-1.813142 -0.57606,-0.826947"
       id="path3047" />
    <path
       inkscape:connector-curvature="0"
       style="font-size:12px;font-style:normal;font-weight:normal;line-height:125%;letter-spacing:0px;word-spacing:0px;fill:#000000;fill-opacity:1;stroke:none;font-family:Sans"
       d="m 164.66951,21.454945 3.81263,-2.655892 0.56936,0.817338 -2.92317,2.036294 1.2258,1.759669 c 0.10753,-0.146323 0.224,-0.279813 0.3494,-0.400499 0.12319,-0.123841 0.25525,-0.234968 0.39629,-0.333213 0.80129,-0.558188 1.58888,-0.780719 2.36273,-0.667598 0.77385,0.113141 1.42201,0.544716 1.94449,1.294732 0.53809,0.772469 0.71635,1.540907 0.53476,2.305314 -0.18383,0.761221 -0.71325,1.446595 -1.58828,2.05614 -0.30129,0.209883 -0.62682,0.398629 -0.97666,0.566156 -0.34663,0.165298 -0.72235,0.312767 -1.12714,0.442409 l -0.67988,-0.97599 c 0.39788,-0.04389 0.77745,-0.134552 1.13875,-0.271979 0.36125,-0.137457 0.71341,-0.325579 1.05637,-0.564487 0.55451,-0.38627 0.89202,-0.838 1.01257,-1.355192 0.12055,-0.517173 0.007,-1.025775 -0.34165,-1.525794 -0.34831,-0.500012 -0.78592,-0.783098 -1.31283,-0.849279 -0.52692,-0.06615 -1.06762,0.0939 -1.62213,0.480161 -0.25962,0.180865 -0.49913,0.390597 -0.71858,0.629108 -0.21624,0.236306 -0.41654,0.509151 -0.60094,0.8185 l -2.51187,-3.605881"
       id="path3049" />
    <path
       inkscape:connector-curvature="0"
       style="font-size:12px;font-style:normal;font-weight:normal;line-height:125%;letter-spacing:0px;word-spacing:0px;fill:#000000;fill-opacity:1;stroke:none;font-family:Sans"
       d="m 175.17992,22.980914 1.01445,-0.706669 0.57605,0.826947 0.28325,2.087768 -0.62021,0.432043 -0.67749,-1.813142 -0.57605,-0.826947"
       id="path3051" />
    <path
       inkscape:connector-curvature="0"
       style="font-size:12px;font-style:normal;font-weight:normal;line-height:125%;letter-spacing:0px;word-spacing:0px;fill:#000000;fill-opacity:1;stroke:none;font-family:Sans"
       d="m 176.95356,12.897819 4.61552,-3.2151945 0.28803,0.4134775 2.10643,8.579883 -1.01445,0.706669 -1.97895,-8.068848 -3.44722,2.401352 -0.56936,-0.817339"
       id="path3053" />
    <path
       inkscape:connector-curvature="0"
       style="font-size:12px;font-style:normal;font-weight:normal;line-height:125%;letter-spacing:0px;word-spacing:0px;fill:#000000;fill-opacity:1;stroke:none;font-family:Sans"
       d="m 187.71876,14.246292 1.01446,-0.706675 0.57606,0.826947 0.28325,2.087768 -0.62021,0.432043 -0.6775,-1.813136 -0.57606,-0.826947"
       id="path3055" />
    <path
       inkscape:connector-curvature="0"
       style="font-size:12px;font-style:normal;font-weight:normal;line-height:125%;letter-spacing:0px;word-spacing:0px;fill:#000000;fill-opacity:1;stroke:none;font-family:Sans"
       d="m 191.62444,2.4946698 c -0.72438,0.5046203 -1.15367,1.1321414 -1.27923,1.8813189 -0.12555,0.7491938 0.0523,1.4965076 0.56581,2.233704 0.52471,0.753238 1.17106,1.2027268 1.8914,1.3483725 0.72131,0.140222 1.42094,-0.037713 2.13892,-0.5378612 0.34616,-0.2411371 0.60543,-0.5455086 0.78798,-0.8916787 0.18256,-0.3461481 0.29539,-0.7103891 0.28928,-1.1155462 0.5637,0.9117258 0.80609,1.69024 0.76777,2.3596102 -0.0374,0.6639465 -0.37399,1.2126426 -1.01503,1.6591925 -0.24039,0.1674591 -0.50475,0.3278459 -0.79717,0.4411201 -0.29242,0.1132741 -0.61612,0.1816481 -0.9401,0.2359441 l 0.62518,0.897464 c 0.33622,-0.09139 0.65429,-0.222519 0.93779,-0.348594 0.2835,-0.126069 0.52793,-0.253564 0.77153,-0.423258 0.90708,-0.6318768 1.41654,-1.4723386 1.48293,-2.5183203 0.0674,-1.0513971 -0.31034,-2.1403166 -1.0985,-3.2717629 -0.844,-1.2115687 -1.68896,-1.9940117 -2.57016,-2.322762 -0.88024,-0.3341796 -1.72825,-0.2052193 -2.5584,0.373057 z m 0.53586,0.7692549 c 0.43591,-0.3036439 0.86625,-0.4034759 1.32934,-0.2785779 0.46407,0.1194712 0.88254,0.4468377 1.24201,0.9628744 0.36171,0.5192532 0.52154,1.0220419 0.47276,1.4987412 -0.0456,0.4744808 -0.28611,0.8467562 -0.72202,1.1504001 -0.43591,0.3036717 -0.8909,0.4159113 -1.35497,0.2964401 -0.46085,-0.1216897 -0.8803,-0.4436212 -1.24201,-0.9628744 -0.35948,-0.5160367 -0.51832,-1.0242604 -0.47276,-1.4987412 0.0465,-0.4799076 0.31174,-0.8645906 0.74765,-1.1682623 z"
       id="path3085" />
    <path
       style="font-size:medium;font-style:normal;font-variant:normal;font-weight:normal;font-stretch:normal;text-indent:0;text-align:start;text-decoration:none;line-height:normal;letter-spacing:normal;word-spacing:normal;text-transform:none;direction:ltr;block-progression:tb;writing-mode:lr-tb;text-anchor:start;baseline-shift:baseline;color:#000000;fill:#000000;fill-opacity:1;stroke:none;stroke-width:1px;marker:none;visibility:visible;display:inline;overflow:visible;enable-background:accumulate;font-family:Sans;-inkscape-font-specification:Sans"
       d="m 1.5,71.5 0,7 0,0.5 0.5,0 32.25,0 0.5,0 0,-0.5 0,-7 -1,0 0,6.5 -31.25,0 0,-6.5 -1,0 z"
       id="path3161"
       inkscape:connector-curvature="0" />
    <path
       id="path3207"
       d="m 41.5,71.5 0,7 0,0.5 0.5,0 32.25,0 0.5,0 0,-0.5 0,-7 -1,0 0,6.5 -31.25,0 0,-6.5 -1,0 z"
       style="font-size:medium;font-style:normal;font-variant:normal;font-weight:normal;font-stretch:normal;text-indent:0;text-align:start;text-decoration:none;line-height:normal;letter-spacing:normal;word-spacing:normal;text-transform:none;direction:ltr;block-progression:tb;writing-mode:lr-tb;text-anchor:start;baseline-shift:baseline;color:#000000;fill:#000000;fill-opacity:1;stroke:none;stroke-width:1px;marker:none;visibility:visible;display:inline;overflow:visible;enable-background:accumulate;font-family:Sans;-inkscape-font-specification:Sans"
       inkscape:connector-curvature="0" />
    <path
       inkscape:connector-curvature="0"
       style="font-size:medium;font-style:normal;font-variant:normal;font-weight:normal;font-stretch:normal;text-indent:0;text-align:start;text-decoration:none;line-height:normal;letter-spacing:normal;word-spacing:normal;text-transform:none;direction:ltr;block-progression:tb;writing-mode:lr-tb;text-anchor:start;baseline-shift:baseline;color:#000000;fill:#000000;fill-opacity:1;stroke:none;stroke-width:1px;marker:none;visibility:visible;display:inline;overflow:visible;enable-background:accumulate;font-family:Sans;-inkscape-font-specification:Sans"
       d="m 81.5,71.5 0,7 0,0.5 0.5,0 32.25,0 0.5,0 0,-0.5 0,-7 -1,0 0,6.5 -31.25,0 0,-6.5 -1,0 z"
       id="path3209" />
    <path
       id="path3211"
       d="m 121.5,71.5 0,7 0,0.5 0.5,0 32.25,0 0.5,0 0,-0.5 0,-7 -1,0 0,6.5 -31.25,0 0,-6.5 -1,0 z"
       style="font-size:medium;font-style:normal;font-variant:normal;font-weight:normal;font-stretch:normal;text-indent:0;text-align:start;text-decoration:none;line-height:normal;letter-spacing:normal;word-spacing:normal;text-transform:none;direction:ltr;block-progression:tb;writing-mode:lr-tb;text-anchor:start;baseline-shift:baseline;color:#000000;fill:#000000;fill-opacity:1;stroke:none;stroke-width:1px;marker:none;visibility:visible;display:inline;overflow:visible;enable-background:accumulate;font-family:Sans;-inkscape-font-specification:Sans"
       inkscape:connector-curvature="0" />
    <path
       style="font-size:medium;font-style:normal;font-variant:normal;font-weight:normal;font-stretch:normal;text-indent:0;text-align:start;text-decoration:none;line-height:normal;letter-spacing:normal;word-spacing:normal;text-transform:none;direction:ltr;block-progression:tb;writing-mode:lr-tb;text-anchor:start;baseline-shift:baseline;color:#000000;fill:#000000;fill-opacity:1;stroke:none;stroke-width:1px;marker:none;visibility:visible;display:inline;overflow:visible;enable-background:accumulate;font-family:Sans;-inkscape-font-specification:Sans"
       d="M 17.53125,48.46875 14,67.5625 14.96875,67.71875 18.5,48.625 17.53125,48.46875 z"
       id="path3213"
       inkscape:connector-curvature="0" />
    <path
       id="path3221"
       d="M 57.53125,48.46875 54,67.5625 54.96875,67.71875 58.5,48.625 57.53125,48.46875 z"
       style="font-size:medium;font-style:normal;font-variant:normal;font-weight:normal;font-stretch:normal;text-indent:0;text-align:start;text-decoration:none;line-height:normal;letter-spacing:normal;word-spacing:normal;text-transform:none;direction:ltr;block-progression:tb;writing-mode:lr-tb;text-anchor:start;baseline-shift:baseline;color:#000000;fill:#000000;fill-opacity:1;stroke:none;stroke-width:1px;marker:none;visibility:visible;display:inline;overflow:visible;enable-background:accumulate;font-family:Sans;-inkscape-font-specification:Sans"
       inkscape:connector-curvature="0" />
    <path
       inkscape:connector-curvature="0"
       style="font-size:medium;font-style:normal;font-variant:normal;font-weight:normal;font-stretch:normal;text-indent:0;text-align:start;text-decoration:none;line-height:normal;letter-spacing:normal;word-spacing:normal;text-transform:none;direction:ltr;block-progression:tb;writing-mode:lr-tb;text-anchor:start;baseline-shift:baseline;color:#000000;fill:#000000;fill-opacity:1;stroke:none;stroke-width:1px;marker:none;visibility:visible;display:inline;overflow:visible;enable-background:accumulate;font-family:Sans;-inkscape-font-specification:Sans"
       d="M 97.53125,48.46875 94,67.5625 94.96875,67.71875 98.5,48.625 97.53125,48.46875 z"
       id="path3223" />
    <path
       id="path3225"
       d="M 137.53125,48.46875 134,67.5625 134.96875,67.71875 138.5,48.625 137.53125,48.46875 z"
       style="font-size:medium;font-style:normal;font-variant:normal;font-weight:normal;font-stretch:normal;text-indent:0;text-align:start;text-decoration:none;line-height:normal;letter-spacing:normal;word-spacing:normal;text-transform:none;direction:ltr;block-progression:tb;writing-mode:lr-tb;text-anchor:start;baseline-shift:baseline;color:#000000;fill:#000000;fill-opacity:1;stroke:none;stroke-width:1px;marker:none;visibility:visible;display:inline;overflow:visible;enable-background:accumulate;font-family:Sans;-inkscape-font-specification:Sans"
       inkscape:connector-curvature="0" />
  </g>
</svg>
