<?xml version="1.0" encoding="UTF-8" standalone="no"?>
<!-- Created with Inkscape (http://www.inkscape.org/) -->

<svg
   xmlns:dc="http://purl.org/dc/elements/1.1/"
   xmlns:cc="http://creativecommons.org/ns#"
   xmlns:rdf="http://www.w3.org/1999/02/22-rdf-syntax-ns#"
   xmlns:svg="http://www.w3.org/2000/svg"
   xmlns="http://www.w3.org/2000/svg"
   xmlns:sodipodi="http://sodipodi.sourceforge.net/DTD/sodipodi-0.dtd"
   xmlns:inkscape="http://www.inkscape.org/namespaces/inkscape"
   width="310"
   height="210"
   id="svg2"
   version="1.1"
   inkscape:version="0.48.0 r9654"
   sodipodi:docname="2011-(02)feb-10, 02.svg">
  <defs
     id="defs4" />
  <sodipodi:namedview
     id="base"
     pagecolor="#ffffff"
     bordercolor="#666666"
     borderopacity="1.0"
     inkscape:pageopacity="0.0"
     inkscape:pageshadow="2"
     inkscape:zoom="2.7157366"
     inkscape:cx="166.65485"
     inkscape:cy="74.494699"
     inkscape:document-units="px"
     inkscape:current-layer="layer1"
     showgrid="false"
     inkscape:window-width="1589"
     inkscape:window-height="1117"
     inkscape:window-x="1600"
     inkscape:window-y="27"
     inkscape:window-maximized="1"
     showguides="true"
     inkscape:guide-bbox="true" />
  <metadata
     id="metadata7">
    <rdf:RDF>
      <cc:Work
         rdf:about="">
        <dc:format>image/svg+xml</dc:format>
        <dc:type
           rdf:resource="http://purl.org/dc/dcmitype/StillImage" />
        <dc:title />
      </cc:Work>
    </rdf:RDF>
  </metadata>
  <g
     inkscape:label="Layer 1"
     inkscape:groupmode="layer"
     id="layer1">
    <path
       style="font-size:medium;font-style:normal;font-variant:normal;font-weight:normal;font-stretch:normal;text-indent:0;text-align:start;text-decoration:none;line-height:normal;letter-spacing:normal;word-spacing:normal;text-transform:none;direction:ltr;block-progression:tb;writing-mode:lr-tb;text-anchor:start;baseline-shift:baseline;color:#000000;fill:#000000;fill-opacity:1;stroke:none;stroke-width:1px;marker:none;visibility:visible;display:inline;overflow:visible;enable-background:accumulate;font-family:Sans;-inkscape-font-specification:Sans"
       d="m 54.07721,5.5664762 0,155.8437538 0,0.5 0.5,0 222.28125,0 0,-1 -221.78125,0 0,-155.3437538 -1,0 z"
       id="path3010"
       inkscape:connector-curvature="0" />
    <path
       style="font-size:12px;fill:#000000;fill-opacity:1;fill-rule:evenodd;stroke-width:0.625;stroke-linejoin:round"
       d="M 50.127607,16.263705 54.547101,4.2452412 58.966595,16.263706 c -2.609267,-1.920048 -6.179198,-1.908985 -8.838988,-10e-7 z"
       id="path4822"
       inkscape:connector-curvature="0" />
    <path
       style="font-size:12px;fill:#000000;fill-opacity:1;fill-rule:evenodd;stroke-width:0.625;stroke-linejoin:round"
       d="m 266.15509,156.98312 12.01847,4.4195 -12.01847,4.41949 c 1.92005,-2.60927 1.90899,-6.1792 0,-8.83899 z"
       id="path4824"
       inkscape:connector-curvature="0" />
    <path
       sodipodi:type="arc"
       style="color:#000000;fill:#000000;fill-opacity:1;stroke:none;stroke-width:1;marker:none;visibility:visible;display:inline;overflow:visible;enable-background:accumulate"
       id="path4410"
       sodipodi:cx="12.231112"
       sodipodi:cy="159.19112"
       sodipodi:rx="2.2755556"
       sodipodi:ry="2.2755556"
       d="m 14.506667,159.19112 a 2.2755556,2.2755556 0 1 1 -4.5511111,0 2.2755556,2.2755556 0 1 1 4.5511111,0 z"
       transform="translate(42.049154,1.9446712)" />
    <path
       sodipodi:type="arc"
       style="color:#000000;fill:#000000;fill-opacity:1;stroke:none;stroke-width:1;marker:none;visibility:visible;display:inline;overflow:visible;enable-background:accumulate"
       id="path4414"
       sodipodi:cx="12.231112"
       sodipodi:cy="159.19112"
       sodipodi:rx="2.2755556"
       sodipodi:ry="2.2755556"
       d="m 14.506667,159.19112 a 2.2755556,2.2755556 0 1 1 -4.5511111,0 2.2755556,2.2755556 0 1 1 4.5511111,0 z"
       transform="translate(76.049154,1.9446712)" />
    <path
       sodipodi:type="arc"
       style="color:#000000;fill:#000000;fill-opacity:1;stroke:none;stroke-width:1;marker:none;visibility:visible;display:inline;overflow:visible;enable-background:accumulate"
       id="path4418"
       sodipodi:cx="12.231112"
       sodipodi:cy="159.19112"
       sodipodi:rx="2.2755556"
       sodipodi:ry="2.2755556"
       d="m 14.506667,159.19112 a 2.2755556,2.2755556 0 1 1 -4.5511111,0 2.2755556,2.2755556 0 1 1 4.5511111,0 z"
       transform="translate(110.04915,1.9446712)" />
    <path
       sodipodi:type="arc"
       style="color:#000000;fill:#000000;fill-opacity:1;stroke:none;stroke-width:1;marker:none;visibility:visible;display:inline;overflow:visible;enable-background:accumulate"
       id="path4422"
       sodipodi:cx="12.231112"
       sodipodi:cy="159.19112"
       sodipodi:rx="2.2755556"
       sodipodi:ry="2.2755556"
       d="m 14.506667,159.19112 a 2.2755556,2.2755556 0 1 1 -4.5511111,0 2.2755556,2.2755556 0 1 1 4.5511111,0 z"
       transform="translate(144.04915,1.9446712)" />
    <path
       sodipodi:type="arc"
       style="color:#000000;fill:#000000;fill-opacity:1;stroke:none;stroke-width:1;marker:none;visibility:visible;display:inline;overflow:visible;enable-background:accumulate"
       id="path4426"
       sodipodi:cx="12.231112"
       sodipodi:cy="159.19112"
       sodipodi:rx="2.2755556"
       sodipodi:ry="2.2755556"
       d="m 14.506667,159.19112 a 2.2755556,2.2755556 0 1 1 -4.5511111,0 2.2755556,2.2755556 0 1 1 4.5511111,0 z"
       transform="translate(178.04915,1.9446712)" />
    <path
       sodipodi:type="arc"
       style="color:#000000;fill:#000000;fill-opacity:1;stroke:none;stroke-width:1;marker:none;visibility:visible;display:inline;overflow:visible;enable-background:accumulate"
       id="path4430"
       sodipodi:cx="12.231112"
       sodipodi:cy="159.19112"
       sodipodi:rx="2.2755556"
       sodipodi:ry="2.2755556"
       d="m 14.506667,159.19112 a 2.2755556,2.2755556 0 1 1 -4.5511111,0 2.2755556,2.2755556 0 1 1 4.5511111,0 z"
       transform="translate(212.04915,1.9446712)" />
    <path
       sodipodi:type="arc"
       style="color:#000000;fill:#000000;fill-opacity:1;stroke:none;stroke-width:1;marker:none;visibility:visible;display:inline;overflow:visible;enable-background:accumulate"
       id="path4454"
       sodipodi:cx="12.231112"
       sodipodi:cy="159.19112"
       sodipodi:rx="2.2755556"
       sodipodi:ry="2.2755556"
       d="m 14.506667,159.19112 a 2.2755556,2.2755556 0 1 1 -4.5511111,0 2.2755556,2.2755556 0 1 1 4.5511111,0 z"
       transform="translate(42.049154,-32.05533)" />
    <path
       sodipodi:type="arc"
       style="color:#000000;fill:#000000;fill-opacity:1;stroke:none;stroke-width:1;marker:none;visibility:visible;display:inline;overflow:visible;enable-background:accumulate"
       id="path4458"
       sodipodi:cx="12.231112"
       sodipodi:cy="159.19112"
       sodipodi:rx="2.2755556"
       sodipodi:ry="2.2755556"
       d="m 14.506667,159.19112 a 2.2755556,2.2755556 0 1 1 -4.5511111,0 2.2755556,2.2755556 0 1 1 4.5511111,0 z"
       transform="translate(76.049154,-32.05533)" />
    <path
       sodipodi:type="arc"
       style="color:#000000;fill:#000000;fill-opacity:1;stroke:none;stroke-width:1;marker:none;visibility:visible;display:inline;overflow:visible;enable-background:accumulate"
       id="path4462"
       sodipodi:cx="12.231112"
       sodipodi:cy="159.19112"
       sodipodi:rx="2.2755556"
       sodipodi:ry="2.2755556"
       d="m 14.506667,159.19112 a 2.2755556,2.2755556 0 1 1 -4.5511111,0 2.2755556,2.2755556 0 1 1 4.5511111,0 z"
       transform="translate(110.04915,-32.05533)" />
    <path
       sodipodi:type="arc"
       style="color:#000000;fill:#000000;fill-opacity:1;stroke:none;stroke-width:1;marker:none;visibility:visible;display:inline;overflow:visible;enable-background:accumulate"
       id="path4466"
       sodipodi:cx="12.231112"
       sodipodi:cy="159.19112"
       sodipodi:rx="2.2755556"
       sodipodi:ry="2.2755556"
       d="m 14.506667,159.19112 a 2.2755556,2.2755556 0 1 1 -4.5511111,0 2.2755556,2.2755556 0 1 1 4.5511111,0 z"
       transform="translate(144.04915,-32.05533)" />
    <path
       sodipodi:type="arc"
       style="color:#000000;fill:#000000;fill-opacity:1;stroke:none;stroke-width:1;marker:none;visibility:visible;display:inline;overflow:visible;enable-background:accumulate"
       id="path4470"
       sodipodi:cx="12.231112"
       sodipodi:cy="159.19112"
       sodipodi:rx="2.2755556"
       sodipodi:ry="2.2755556"
       d="m 14.506667,159.19112 a 2.2755556,2.2755556 0 1 1 -4.5511111,0 2.2755556,2.2755556 0 1 1 4.5511111,0 z"
       transform="translate(178.04915,-32.05533)" />
    <path
       sodipodi:type="arc"
       style="color:#000000;fill:#000000;fill-opacity:1;stroke:none;stroke-width:1;marker:none;visibility:visible;display:inline;overflow:visible;enable-background:accumulate"
       id="path4474"
       sodipodi:cx="12.231112"
       sodipodi:cy="159.19112"
       sodipodi:rx="2.2755556"
       sodipodi:ry="2.2755556"
       d="m 14.506667,159.19112 a 2.2755556,2.2755556 0 1 1 -4.5511111,0 2.2755556,2.2755556 0 1 1 4.5511111,0 z"
       transform="translate(212.04915,-32.05533)" />
    <path
       sodipodi:type="arc"
       style="color:#000000;fill:#000000;fill-opacity:1;stroke:none;stroke-width:1;marker:none;visibility:visible;display:inline;overflow:visible;enable-background:accumulate"
       id="path4498"
       sodipodi:cx="12.231112"
       sodipodi:cy="159.19112"
       sodipodi:rx="2.2755556"
       sodipodi:ry="2.2755556"
       d="m 14.506667,159.19112 a 2.2755556,2.2755556 0 1 1 -4.5511111,0 2.2755556,2.2755556 0 1 1 4.5511111,0 z"
       transform="translate(42.049154,-66.05533)" />
    <path
       sodipodi:type="arc"
       style="color:#000000;fill:#000000;fill-opacity:1;stroke:none;stroke-width:1;marker:none;visibility:visible;display:inline;overflow:visible;enable-background:accumulate"
       id="path4502"
       sodipodi:cx="12.231112"
       sodipodi:cy="159.19112"
       sodipodi:rx="2.2755556"
       sodipodi:ry="2.2755556"
       d="m 14.506667,159.19112 a 2.2755556,2.2755556 0 1 1 -4.5511111,0 2.2755556,2.2755556 0 1 1 4.5511111,0 z"
       transform="translate(76.049154,-66.05533)" />
    <path
       sodipodi:type="arc"
       style="color:#000000;fill:#000000;fill-opacity:1;stroke:none;stroke-width:1;marker:none;visibility:visible;display:inline;overflow:visible;enable-background:accumulate"
       id="path4506"
       sodipodi:cx="12.231112"
       sodipodi:cy="159.19112"
       sodipodi:rx="2.2755556"
       sodipodi:ry="2.2755556"
       d="m 14.506667,159.19112 a 2.2755556,2.2755556 0 1 1 -4.5511111,0 2.2755556,2.2755556 0 1 1 4.5511111,0 z"
       transform="translate(110.04915,-66.05533)" />
    <path
       sodipodi:type="arc"
       style="color:#000000;fill:#000000;fill-opacity:1;stroke:none;stroke-width:1;marker:none;visibility:visible;display:inline;overflow:visible;enable-background:accumulate"
       id="path4510"
       sodipodi:cx="12.231112"
       sodipodi:cy="159.19112"
       sodipodi:rx="2.2755556"
       sodipodi:ry="2.2755556"
       d="m 14.506667,159.19112 a 2.2755556,2.2755556 0 1 1 -4.5511111,0 2.2755556,2.2755556 0 1 1 4.5511111,0 z"
       transform="translate(144.04915,-66.05533)" />
    <path
       sodipodi:type="arc"
       style="color:#000000;fill:#000000;fill-opacity:1;stroke:none;stroke-width:1;marker:none;visibility:visible;display:inline;overflow:visible;enable-background:accumulate"
       id="path4514"
       sodipodi:cx="12.231112"
       sodipodi:cy="159.19112"
       sodipodi:rx="2.2755556"
       sodipodi:ry="2.2755556"
       d="m 14.506667,159.19112 a 2.2755556,2.2755556 0 1 1 -4.5511111,0 2.2755556,2.2755556 0 1 1 4.5511111,0 z"
       transform="translate(178.04915,-66.05533)" />
    <path
       sodipodi:type="arc"
       style="color:#000000;fill:#000000;fill-opacity:1;stroke:none;stroke-width:1;marker:none;visibility:visible;display:inline;overflow:visible;enable-background:accumulate"
       id="path4518"
       sodipodi:cx="12.231112"
       sodipodi:cy="159.19112"
       sodipodi:rx="2.2755556"
       sodipodi:ry="2.2755556"
       d="m 14.506667,159.19112 a 2.2755556,2.2755556 0 1 1 -4.5511111,0 2.2755556,2.2755556 0 1 1 4.5511111,0 z"
       transform="translate(212.04915,-66.05533)" />
    <path
       sodipodi:type="arc"
       style="color:#000000;fill:#000000;fill-opacity:1;stroke:none;stroke-width:1;marker:none;visibility:visible;display:inline;overflow:visible;enable-background:accumulate"
       id="path4542"
       sodipodi:cx="12.231112"
       sodipodi:cy="159.19112"
       sodipodi:rx="2.2755556"
       sodipodi:ry="2.2755556"
       d="m 14.506667,159.19112 a 2.2755556,2.2755556 0 1 1 -4.5511111,0 2.2755556,2.2755556 0 1 1 4.5511111,0 z"
       transform="translate(42.049154,-100.05533)" />
    <path
       sodipodi:type="arc"
       style="color:#000000;fill:#000000;fill-opacity:1;stroke:none;stroke-width:1;marker:none;visibility:visible;display:inline;overflow:visible;enable-background:accumulate"
       id="path4546"
       sodipodi:cx="12.231112"
       sodipodi:cy="159.19112"
       sodipodi:rx="2.2755556"
       sodipodi:ry="2.2755556"
       d="m 14.506667,159.19112 a 2.2755556,2.2755556 0 1 1 -4.5511111,0 2.2755556,2.2755556 0 1 1 4.5511111,0 z"
       transform="translate(76.049154,-100.05533)" />
    <path
       sodipodi:type="arc"
       style="color:#000000;fill:#000000;fill-opacity:1;stroke:none;stroke-width:1;marker:none;visibility:visible;display:inline;overflow:visible;enable-background:accumulate"
       id="path4550"
       sodipodi:cx="12.231112"
       sodipodi:cy="159.19112"
       sodipodi:rx="2.2755556"
       sodipodi:ry="2.2755556"
       d="m 14.506667,159.19112 a 2.2755556,2.2755556 0 1 1 -4.5511111,0 2.2755556,2.2755556 0 1 1 4.5511111,0 z"
       transform="translate(110.04915,-100.05533)" />
    <path
       sodipodi:type="arc"
       style="color:#000000;fill:#000000;fill-opacity:1;stroke:none;stroke-width:1;marker:none;visibility:visible;display:inline;overflow:visible;enable-background:accumulate"
       id="path4554"
       sodipodi:cx="12.231112"
       sodipodi:cy="159.19112"
       sodipodi:rx="2.2755556"
       sodipodi:ry="2.2755556"
       d="m 14.506667,159.19112 a 2.2755556,2.2755556 0 1 1 -4.5511111,0 2.2755556,2.2755556 0 1 1 4.5511111,0 z"
       transform="translate(144.04915,-100.05533)" />
    <path
       sodipodi:type="arc"
       style="color:#000000;fill:#000000;fill-opacity:1;stroke:none;stroke-width:1;marker:none;visibility:visible;display:inline;overflow:visible;enable-background:accumulate"
       id="path4558"
       sodipodi:cx="12.231112"
       sodipodi:cy="159.19112"
       sodipodi:rx="2.2755556"
       sodipodi:ry="2.2755556"
       d="m 14.506667,159.19112 a 2.2755556,2.2755556 0 1 1 -4.5511111,0 2.2755556,2.2755556 0 1 1 4.5511111,0 z"
       transform="translate(178.04915,-100.05533)" />
    <path
       sodipodi:type="arc"
       style="color:#000000;fill:#000000;fill-opacity:1;stroke:none;stroke-width:1;marker:none;visibility:visible;display:inline;overflow:visible;enable-background:accumulate"
       id="path4562"
       sodipodi:cx="12.231112"
       sodipodi:cy="159.19112"
       sodipodi:rx="2.2755556"
       sodipodi:ry="2.2755556"
       d="m 14.506667,159.19112 a 2.2755556,2.2755556 0 1 1 -4.5511111,0 2.2755556,2.2755556 0 1 1 4.5511111,0 z"
       transform="translate(212.04915,-100.05533)" />
    <path
       transform="translate(42.049154,-134.05533)"
       d="m 14.506667,159.19112 a 2.2755556,2.2755556 0 1 1 -4.5511111,0 2.2755556,2.2755556 0 1 1 4.5511111,0 z"
       sodipodi:ry="2.2755556"
       sodipodi:rx="2.2755556"
       sodipodi:cy="159.19112"
       sodipodi:cx="12.231112"
       id="path4598"
       style="color:#000000;fill:#000000;fill-opacity:1;stroke:none;stroke-width:1;marker:none;visibility:visible;display:inline;overflow:visible;enable-background:accumulate"
       sodipodi:type="arc" />
    <path
       transform="translate(76.049154,-134.05533)"
       d="m 14.506667,159.19112 a 2.2755556,2.2755556 0 1 1 -4.5511111,0 2.2755556,2.2755556 0 1 1 4.5511111,0 z"
       sodipodi:ry="2.2755556"
       sodipodi:rx="2.2755556"
       sodipodi:cy="159.19112"
       sodipodi:cx="12.231112"
       id="path4600"
       style="color:#000000;fill:#000000;fill-opacity:1;stroke:none;stroke-width:1;marker:none;visibility:visible;display:inline;overflow:visible;enable-background:accumulate"
       sodipodi:type="arc" />
    <path
       transform="translate(110.04915,-134.05533)"
       d="m 14.506667,159.19112 a 2.2755556,2.2755556 0 1 1 -4.5511111,0 2.2755556,2.2755556 0 1 1 4.5511111,0 z"
       sodipodi:ry="2.2755556"
       sodipodi:rx="2.2755556"
       sodipodi:cy="159.19112"
       sodipodi:cx="12.231112"
       id="path4602"
       style="color:#000000;fill:#000000;fill-opacity:1;stroke:none;stroke-width:1;marker:none;visibility:visible;display:inline;overflow:visible;enable-background:accumulate"
       sodipodi:type="arc" />
    <path
       transform="translate(144.04915,-134.05533)"
       d="m 14.506667,159.19112 a 2.2755556,2.2755556 0 1 1 -4.5511111,0 2.2755556,2.2755556 0 1 1 4.5511111,0 z"
       sodipodi:ry="2.2755556"
       sodipodi:rx="2.2755556"
       sodipodi:cy="159.19112"
       sodipodi:cx="12.231112"
       id="path4604"
       style="color:#000000;fill:#000000;fill-opacity:1;stroke:none;stroke-width:1;marker:none;visibility:visible;display:inline;overflow:visible;enable-background:accumulate"
       sodipodi:type="arc" />
    <path
       transform="translate(178.04915,-134.05533)"
       d="m 14.506667,159.19112 a 2.2755556,2.2755556 0 1 1 -4.5511111,0 2.2755556,2.2755556 0 1 1 4.5511111,0 z"
       sodipodi:ry="2.2755556"
       sodipodi:rx="2.2755556"
       sodipodi:cy="159.19112"
       sodipodi:cx="12.231112"
       id="path4606"
       style="color:#000000;fill:#000000;fill-opacity:1;stroke:none;stroke-width:1;marker:none;visibility:visible;display:inline;overflow:visible;enable-background:accumulate"
       sodipodi:type="arc" />
    <path
       transform="translate(212.04915,-134.05533)"
       d="m 14.506667,159.19112 a 2.2755556,2.2755556 0 1 1 -4.5511111,0 2.2755556,2.2755556 0 1 1 4.5511111,0 z"
       sodipodi:ry="2.2755556"
       sodipodi:rx="2.2755556"
       sodipodi:cy="159.19112"
       sodipodi:cx="12.231112"
       id="path4608"
       style="color:#000000;fill:#000000;fill-opacity:1;stroke:none;stroke-width:1;marker:none;visibility:visible;display:inline;overflow:visible;enable-background:accumulate"
       sodipodi:type="arc" />
    <path
       transform="translate(246.04915,1.9446712)"
       d="m 14.506667,159.19112 a 2.2755556,2.2755556 0 1 1 -4.5511111,0 2.2755556,2.2755556 0 1 1 4.5511111,0 z"
       sodipodi:ry="2.2755556"
       sodipodi:rx="2.2755556"
       sodipodi:cy="159.19112"
       sodipodi:cx="12.231112"
       id="path4620"
       style="color:#000000;fill:#000000;fill-opacity:1;stroke:none;stroke-width:1;marker:none;visibility:visible;display:inline;overflow:visible;enable-background:accumulate"
       sodipodi:type="arc" />
    <path
       transform="translate(246.04915,-32.05533)"
       d="m 14.506667,159.19112 a 2.2755556,2.2755556 0 1 1 -4.5511111,0 2.2755556,2.2755556 0 1 1 4.5511111,0 z"
       sodipodi:ry="2.2755556"
       sodipodi:rx="2.2755556"
       sodipodi:cy="159.19112"
       sodipodi:cx="12.231112"
       id="path4622"
       style="color:#000000;fill:#000000;fill-opacity:1;stroke:none;stroke-width:1;marker:none;visibility:visible;display:inline;overflow:visible;enable-background:accumulate"
       sodipodi:type="arc" />
    <path
       transform="translate(246.04915,-66.05533)"
       d="m 14.506667,159.19112 a 2.2755556,2.2755556 0 1 1 -4.5511111,0 2.2755556,2.2755556 0 1 1 4.5511111,0 z"
       sodipodi:ry="2.2755556"
       sodipodi:rx="2.2755556"
       sodipodi:cy="159.19112"
       sodipodi:cx="12.231112"
       id="path4624"
       style="color:#000000;fill:#000000;fill-opacity:1;stroke:none;stroke-width:1;marker:none;visibility:visible;display:inline;overflow:visible;enable-background:accumulate"
       sodipodi:type="arc" />
    <path
       transform="translate(246.04915,-100.05533)"
       d="m 14.506667,159.19112 a 2.2755556,2.2755556 0 1 1 -4.5511111,0 2.2755556,2.2755556 0 1 1 4.5511111,0 z"
       sodipodi:ry="2.2755556"
       sodipodi:rx="2.2755556"
       sodipodi:cy="159.19112"
       sodipodi:cx="12.231112"
       id="path4626"
       style="color:#000000;fill:#000000;fill-opacity:1;stroke:none;stroke-width:1;marker:none;visibility:visible;display:inline;overflow:visible;enable-background:accumulate"
       sodipodi:type="arc" />
    <path
       sodipodi:type="arc"
       style="color:#000000;fill:#000000;fill-opacity:1;stroke:none;stroke-width:1;marker:none;visibility:visible;display:inline;overflow:visible;enable-background:accumulate"
       id="path4628"
       sodipodi:cx="12.231112"
       sodipodi:cy="159.19112"
       sodipodi:rx="2.2755556"
       sodipodi:ry="2.2755556"
       d="m 14.506667,159.19112 a 2.2755556,2.2755556 0 1 1 -4.5511111,0 2.2755556,2.2755556 0 1 1 4.5511111,0 z"
       transform="translate(246.04915,-134.05533)" />
    <path
       style="font-size:12px;font-style:normal;font-weight:normal;line-height:125%;letter-spacing:0px;word-spacing:0px;fill:#000000;fill-opacity:1;stroke:none;font-family:Sans"
       d="m 25.947813,87.821842 1.271484,0 2.173828,3.251953 2.185547,-3.251953 1.271485,0 -2.8125,4.201172 3,4.546875 -1.271485,0 -2.460937,-3.720703 -2.478516,3.720703 -1.277344,0 3.123047,-4.669922 -2.724609,-4.078125"
       id="path3856"
       inkscape:connector-curvature="0" />
    <path
       style="font-size:12px;font-style:normal;font-weight:normal;line-height:125%;letter-spacing:0px;word-spacing:0px;fill:#000000;fill-opacity:1;stroke:none;font-family:Sans"
       d="m 152.39592,175.74627 1.27149,0 2.42578,3.59766 2.4082,-3.59766 1.27149,0 -3.09375,4.58203 0,4.16602 -1.18946,0 0,-4.16602 -3.09375,-4.58203"
       id="path3853"
       inkscape:connector-curvature="0" />
    <path
       style="font-size:medium;font-style:normal;font-variant:normal;font-weight:normal;font-stretch:normal;text-indent:0;text-align:start;text-decoration:none;line-height:normal;letter-spacing:normal;word-spacing:normal;text-transform:none;direction:ltr;block-progression:tb;writing-mode:lr-tb;text-anchor:start;baseline-shift:baseline;color:#000000;fill:#000000;fill-opacity:1;stroke:none;stroke-width:1px;marker:none;visibility:visible;display:inline;overflow:visible;enable-background:accumulate;font-family:Sans;-inkscape-font-specification:Sans"
       d="M 69.3125 13.125 C 61.333696 13.17064 53.681339 15.169842 47.875 22.8125 L 47.875 22.84375 C 44.053227 28.538298 41.096805 38.797487 40.84375 48.46875 C 40.717222 53.304382 41.278545 57.981655 42.78125 61.875 C 44.283955 65.768345 46.746916 68.910499 50.4375 70.46875 L 50.46875 70.46875 L 50.5 70.46875 C 53.782716 71.433962 56.867837 70.093597 59.71875 67.65625 C 62.569663 65.218903 65.275327 61.686762 68 58.03125 C 70.724673 54.375738 73.465112 50.578929 76.3125 47.71875 C 79.132027 44.886557 82.032605 42.96996 85.09375 42.8125 C 85.10365 42.8141 85.11507 42.8108 85.125 42.8125 C 90.874013 43.771147 95.777923 47.704904 99.90625 52.84375 C 104.04171 57.991469 107.36336 64.348266 109.875 70 C 111.34792 73.314377 111.69446 77.969134 111.75 82.25 C 111.8055 86.530866 111.55498 90.379206 111.96875 92.40625 C 112.35506 94.298794 112.9714 96.153977 113.96875 97.84375 C 114.96723 99.535467 116.36225 101.04181 118.09375 102.03125 C 119.76633 102.98703 121.73029 103.44539 123.65625 103.25 C 125.82664 103.02981 127.86654 101.99024 129.40625 100.46875 C 130.94403 98.949158 131.96565 96.967112 132.4375 94.875 C 132.90893 92.784704 132.8466 90.596125 132.34375 88.53125 C 131.84114 86.467526 130.92324 84.530475 129.75 82.78125 C 127.92677 80.062933 125.53691 77.838058 123.53125 75.40625 C 120.61644 71.872131 118.37271 67.74197 117.5 63.28125 C 116.63624 58.866236 117.80897 54.231249 119.5 50.0625 C 121.37962 45.428844 126.84298 41.499527 131.4375 37.53125 C 133.73476 35.547111 135.81057 33.553981 137.09375 31.375 C 138.37693 29.196019 138.8275 26.763959 137.8125 24.1875 C 136.3876 20.57056 133.75349 18.192984 130.4375 16.6875 C 127.12151 15.182016 123.11851 14.530383 118.84375 14.3125 C 110.29422 13.876733 100.63198 15.174151 93.1875 15.0625 C 85.678121 14.949876 77.291304 13.079358 69.3125 13.125 z M 69.3125 14.125 C 77.130223 14.08028 85.494432 15.947589 93.15625 16.0625 C 100.72777 16.176056 110.40229 14.883835 118.8125 15.3125 C 123.01761 15.526833 126.89374 16.169299 130.03125 17.59375 C 133.16876 19.018201 135.54765 21.193179 136.875 24.5625 C 137.77807 26.854835 137.39629 28.844165 136.21875 30.84375 C 135.04121 32.843335 133.05182 34.788913 130.78125 36.75 C 126.24011 40.672174 120.617 44.622743 118.5625 49.6875 C 116.83451 53.947347 115.61035 58.761656 116.53125 63.46875 C 117.44322 68.13014 119.75061 72.425835 122.75 76.0625 C 124.81176 78.562328 127.16864 80.753075 128.90625 83.34375 C 130.02341 85.009359 130.90463 86.849936 131.375 88.78125 C 131.8451 90.711413 131.90199 92.735466 131.46875 94.65625 C 131.03596 96.575198 130.10571 98.379452 128.71875 99.75 C 127.33372 101.11865 125.48291 102.05517 123.5625 102.25 C 121.85796 102.42293 120.08949 102.01097 118.59375 101.15625 C 117.04143 100.26919 115.76769 98.909173 114.84375 97.34375 C 113.91866 95.776403 113.33886 94.000696 112.96875 92.1875 C 112.62608 90.508813 112.80611 86.543427 112.75 82.21875 C 112.6939 77.894073 112.36874 73.165956 110.78125 69.59375 C 108.24999 63.897855 104.91057 57.475533 100.6875 52.21875 C 96.464428 46.961967 91.356936 42.850692 85.25 41.84375 L 85.1875 41.8125 L 85.15625 41.8125 C 81.677112 41.95176 78.523962 44.087875 75.59375 47.03125 C 72.663538 49.974625 69.907175 53.757444 67.1875 57.40625 C 64.467825 61.055056 61.785592 64.578181 59.0625 66.90625 C 56.339408 69.234319 53.665104 70.347935 50.78125 69.5 C 47.417148 68.055473 45.14437 65.224877 43.71875 61.53125 C 42.283866 57.813623 41.719668 53.242147 41.84375 48.5 C 42.091602 39.027615 45.051755 28.869317 48.6875 23.4375 C 48.6921 23.4307 48.6829 23.41306 48.6875 23.40625 C 54.2893 16.046013 61.501562 14.169682 69.3125 14.125 z "
       id="path3827" />
    <path
       style="font-size:12px;font-style:normal;font-weight:normal;line-height:125%;letter-spacing:0px;word-spacing:0px;fill:#000000;fill-opacity:1;stroke:none;font-family:Sans"
       d="m 288.71761,6.8645372 c -0.12109,-0.07031 -0.25391,-0.121088 -0.39843,-0.152343 -0.14063,-0.03515 -0.29688,-0.05273 -0.46875,-0.05274 -0.60938,6e-6 -1.07813,0.199225 -1.40625,0.597657 -0.32422,0.394536 -0.48633,0.962894 -0.48633,1.705078 l 0,3.4570308 -1.08399,0 0,-6.5624998 1.08399,0 0,1.019531 c 0.22656,-0.398431 0.52148,-0.693353 0.88476,-0.884765 0.36328,-0.195306 0.80469,-0.292962 1.32422,-0.292969 0.0742,7e-6 0.15625,0.0059 0.2461,0.01758 0.0898,0.0078 0.18944,0.02149 0.29882,0.04102 l 0.006,1.107421"
       id="path3993"
       inkscape:connector-curvature="0" />
    <path
       style="font-size:26.00036621px;font-style:normal;font-weight:normal;line-height:125%;letter-spacing:0px;word-spacing:0px;baseline-shift:sub;fill:#000000;fill-opacity:1;stroke:none;font-family:Sans"
       d="m 293.01025,10.55354 -1.5425,2.075713 1.62248,2.189972 -0.82647,0 -1.24162,-1.675805 -1.24162,1.675805 -0.82648,0 1.65676,-2.231867 -1.51584,-2.033818 0.82648,0 1.13117,1.51965 1.13117,-1.51965 0.82647,0"
       id="path3995"
       inkscape:connector-curvature="0" />
    <path
       style="font-size:12px;font-style:normal;font-weight:normal;line-height:125%;letter-spacing:0px;word-spacing:0px;fill:#000000;fill-opacity:1;stroke:none;font-family:Sans"
       d="m 297.06612,3.3137562 c -0.52344,0.898446 -0.91212,1.787117 -1.16602,2.666016 -0.25391,0.878912 -0.38086,1.769536 -0.38086,2.671875 0,0.902346 0.12695,1.7968768 0.38086,2.6835938 0.25781,0.882812 0.64648,1.771483 1.16602,2.666015 l -0.9375,0 c -0.58594,-0.917969 -1.0254,-1.820312 -1.31836,-2.707031 -0.28907,-0.886717 -0.4336,-1.7675748 -0.4336,-2.6425778 0,-0.871089 0.14453,-1.748042 0.4336,-2.63086 0.28906,-0.882805 0.72851,-1.785148 1.31836,-2.707031 l 0.9375,0"
       id="path3997"
       inkscape:connector-curvature="0" />
    <path
       style="font-size:12px;font-style:normal;font-weight:normal;line-height:125%;letter-spacing:0px;word-spacing:0px;fill:#000000;fill-opacity:1;stroke:none;font-family:Sans"
       d="m 305.25166,3.3137562 0.9375,0 c 0.58594,0.921883 1.02344,1.824226 1.3125,2.707031 0.29297,0.882818 0.43945,1.759771 0.43946,2.63086 -1e-5,0.875003 -0.14649,1.7558608 -0.43946,2.6425778 -0.28906,0.886719 -0.72656,1.789062 -1.3125,2.707031 l -0.9375,0 c 0.51953,-0.894532 0.90625,-1.783203 1.16016,-2.666015 0.25781,-0.886717 0.38672,-1.7812478 0.38672,-2.6835938 0,-0.902339 -0.12891,-1.792963 -0.38672,-2.671875 -0.25391,-0.878899 -0.64063,-1.76757 -1.16016,-2.666016"
       id="path4001"
       inkscape:connector-curvature="0" />
    <path
       style="font-size:12px;font-style:normal;font-weight:normal;line-height:125%;letter-spacing:0px;word-spacing:0px;fill:#000000;fill-opacity:1;stroke:none;font-family:Sans"
       d="m 295.58397,23.341277 c 0.5664,0.121098 1.0078,0.373051 1.32421,0.755859 0.32031,0.382817 0.48047,0.855472 0.48047,1.417969 0,0.863283 -0.29688,1.531251 -0.89062,2.003906 -0.59376,0.472657 -1.43751,0.708985 -2.53125,0.708985 -0.36719,0 -0.7461,-0.03711 -1.13672,-0.111328 -0.38672,-0.07031 -0.78711,-0.177735 -1.20117,-0.322266 l 0,-1.142578 c 0.32812,0.191407 0.6875,0.335939 1.07812,0.433594 0.39063,0.09766 0.79883,0.146485 1.22461,0.146484 0.74219,10e-7 1.30664,-0.146483 1.69336,-0.439453 0.39062,-0.292967 0.58593,-0.718748 0.58594,-1.277344 -10e-6,-0.515622 -0.18165,-0.917965 -0.54492,-1.207031 -0.35938,-0.292965 -0.86134,-0.439449 -1.50586,-0.439453 l -1.01953,0 0,-0.972656 1.0664,0 c 0.58203,5e-6 1.02734,-0.11523 1.33594,-0.345704 0.30859,-0.234369 0.46289,-0.570306 0.46289,-1.007812 0,-0.449212 -0.16016,-0.792962 -0.48047,-1.03125 -0.31641,-0.24218 -0.77149,-0.363273 -1.36523,-0.363281 -0.32422,8e-6 -0.67188,0.03516 -1.04297,0.105468 -0.3711,0.07032 -0.7793,0.179696 -1.22461,0.328125 l 0,-1.054687 c 0.44922,-0.124991 0.86914,-0.218741 1.25976,-0.28125 0.39453,-0.06249 0.76563,-0.09374 1.11329,-0.09375 0.89843,9e-6 1.60937,0.205087 2.13281,0.615234 0.52343,0.406258 0.78515,0.957039 0.78515,1.652344 0,0.484381 -0.13867,0.894537 -0.41601,1.230469 -0.27735,0.332036 -0.67188,0.562505 -1.18359,0.691406"
       id="path4004"
       inkscape:connector-curvature="0" />
    <path
       style="font-size:12px;font-style:normal;font-weight:normal;line-height:125%;letter-spacing:0px;word-spacing:0px;fill:#000000;fill-opacity:1;stroke:none;font-family:Sans"
       d="m 292.20311,61.06198 1.93359,0 0,-6.673828 -2.10352,0.421875 0,-1.078125 2.0918,-0.421875 1.18359,0 0,7.751953 1.9336,0 0,0.996094 -5.03906,0 0,-0.996094"
       id="path4007"
       inkscape:connector-curvature="0" />
    <path
       style="font-size:12px;font-style:normal;font-weight:normal;line-height:125%;letter-spacing:0px;word-spacing:0px;fill:#000000;fill-opacity:1;stroke:none;font-family:Sans"
       d="m 292.20311,97.06198 1.93359,0 0,-6.673828 -2.10352,0.421875 0,-1.078125 2.0918,-0.421875 1.18359,0 0,7.751953 1.9336,0 0,0.99609 -5.03906,0 0,-0.99609"
       id="path4010"
       inkscape:connector-curvature="0" />
    <path
       style="font-size:12px;font-style:normal;font-weight:normal;line-height:125%;letter-spacing:0px;word-spacing:0px;fill:#000000;fill-opacity:1;stroke:none;font-family:Sans"
       d="m 294.53844,123.14767 c -0.98047,10e-6 -1.73047,0.37891 -2.25,1.15625 -0.51563,0.77344 -0.78125,1.89844 -0.78125,3.375 0,1.47266 0.26562,2.59765 0.78125,3.375 0.51953,0.77343 1.26953,1.1875 2.25,1.1875 0.98046,0 1.73437,-0.41407 2.25,-1.1875 0.51952,-0.77735 0.74999,-1.90234 0.75,-3.375 -10e-6,-1.47656 -0.23048,-2.60156 -0.75,-3.375 -0.51563,-0.77734 -1.26954,-1.15624 -2.25,-1.15625 z m 0,0.9375 c 0.61327,10e-6 1.07031,0.3047 1.375,0.90625 0.30859,0.59767 0.46875,1.48438 0.46875,2.6875 0,1.19922 -0.16016,2.11719 -0.46875,2.71875 -0.30469,0.59765 -0.76173,0.90625 -1.375,0.90625 -0.60938,0 -1.0664,-0.3086 -1.375,-0.90625 -0.30468,-0.60156 -0.46875,-1.51953 -0.46875,-2.71875 0,-1.20312 0.16407,-2.08983 0.46875,-2.6875 0.3086,-0.60155 0.76562,-0.90624 1.375,-0.90625 z"
       id="path4013"
       inkscape:connector-curvature="0" />
    <path
       style="font-size:12px;font-style:normal;font-weight:normal;line-height:125%;letter-spacing:0px;word-spacing:0px;fill:#000000;fill-opacity:1;stroke:none;font-family:Sans"
       d="m 294.53844,157.14767 c -0.98047,1e-5 -1.73047,0.37891 -2.25,1.15625 -0.51563,0.77344 -0.78125,1.89844 -0.78125,3.375 0,1.47266 0.26562,2.59765 0.78125,3.375 0.51953,0.77343 1.26953,1.1875 2.25,1.1875 0.98046,0 1.73437,-0.41407 2.25,-1.1875 0.51952,-0.77735 0.74999,-1.90234 0.75,-3.375 -10e-6,-1.47656 -0.23048,-2.60156 -0.75,-3.375 -0.51563,-0.77734 -1.26954,-1.15624 -2.25,-1.15625 z m 0,0.9375 c 0.61327,1e-5 1.07031,0.3047 1.375,0.90625 0.30859,0.59767 0.46875,1.48438 0.46875,2.6875 0,1.19922 -0.16016,2.11719 -0.46875,2.71875 -0.30469,0.59765 -0.76173,0.90625 -1.375,0.90625 -0.60938,0 -1.0664,-0.3086 -1.375,-0.90625 -0.30468,-0.60156 -0.46875,-1.51953 -0.46875,-2.71875 0,-1.20312 0.16407,-2.08983 0.46875,-2.6875 0.3086,-0.60155 0.76562,-0.90624 1.375,-0.90625 z"
       id="path4016"
       inkscape:connector-curvature="0" />
    <path
       style="font-size:medium;font-style:normal;font-variant:normal;font-weight:normal;font-stretch:normal;text-indent:0;text-align:start;text-decoration:none;line-height:normal;letter-spacing:normal;word-spacing:normal;text-transform:none;direction:ltr;block-progression:tb;writing-mode:lr-tb;text-anchor:start;baseline-shift:baseline;color:#000000;fill:#000000;fill-opacity:1;stroke:none;stroke-width:1px;marker:none;visibility:visible;display:inline;overflow:visible;enable-background:accumulate;font-family:Sans;-inkscape-font-specification:Sans"
       d="m 281.50526,171.57217 0,1 27,0 0,-1 -27,0 z"
       id="path4054" />
    <path
       style="font-size:12px;font-style:normal;font-weight:normal;line-height:125%;letter-spacing:0px;word-spacing:0px;fill:#000000;fill-opacity:1;stroke:none;font-family:Sans"
       d="m 292.86074,177.1308 4.64649,0 0,0.9961 -3.5625,0 0,2.14453 c 0.17187,-0.0586 0.34374,-0.10156 0.51562,-0.12891 0.17187,-0.0312 0.34375,-0.0469 0.51563,-0.0469 0.97655,0 1.74999,0.26758 2.32031,0.80273 0.5703,0.53516 0.85546,1.25977 0.85547,2.17383 -1e-5,0.94141 -0.29298,1.67383 -0.87891,2.19726 -0.58594,0.51954 -1.41211,0.7793 -2.47851,0.7793 -0.36719,0 -0.74219,-0.0312 -1.125,-0.0937 -0.37891,-0.0625 -0.77149,-0.15625 -1.17774,-0.28125 l 0,-1.18945 c 0.35156,0.19141 0.71484,0.33398 1.08984,0.42773 0.375,0.0937 0.77149,0.14063 1.18946,0.14063 0.67578,0 1.21093,-0.17774 1.60547,-0.53321 0.39452,-0.35546 0.59179,-0.83788 0.59179,-1.44726 0,-0.60937 -0.19727,-1.09179 -0.59179,-1.44727 -0.39454,-0.35546 -0.92969,-0.53319 -1.60547,-0.5332 -0.31641,1e-5 -0.63282,0.0352 -0.94922,0.10547 -0.3125,0.0703 -0.63281,0.17969 -0.96094,0.32812 l 0,-4.39453"
       id="path4075" />
    <path
       style="font-size:12px;font-style:normal;font-weight:normal;line-height:125%;letter-spacing:0px;word-spacing:0px;fill:#000000;fill-opacity:1;stroke:none;font-family:Sans"
       d="m 9.0520772,195.96101 0,1.00782 c -0.304693,-0.16797 -0.6113333,-0.29297 -0.9199218,-0.375 -0.3046922,-0.0859 -0.6132856,-0.1289 -0.9257813,-0.12891 -0.6992221,1e-5 -1.2421903,0.22266 -1.6289063,0.66797 -0.3867207,0.44141 -0.5800799,1.0625 -0.5800781,1.86328 -1.8e-6,0.80078 0.1933574,1.42383 0.5800781,1.86914 0.386716,0.44141 0.9296842,0.66211 1.6289063,0.66211 0.3124957,0 0.6210891,-0.041 0.9257813,-0.12305 0.3085885,-0.0859 0.6152288,-0.21289 0.9199218,-0.38086 l 0,0.9961 c -0.3007868,0.14062 -0.6132865,0.24609 -0.9375,0.3164 -0.3203171,0.0703 -0.6621136,0.10547 -1.0253906,0.10547 -0.9882842,0 -1.7734396,-0.31054 -2.3554688,-0.93164 -0.5820322,-0.62109 -0.8730475,-1.45898 -0.8730468,-2.51367 -7e-7,-1.07031 0.2929678,-1.9121 0.8789062,-2.52539 0.5898416,-0.61328 1.3964815,-0.91992 2.4199219,-0.91992 0.332027,0 0.6562454,0.0352 0.9726563,0.10547 0.3164009,0.0664 0.6230413,0.16797 0.9199218,0.30468"
       id="path4097" />
    <path
       style="font-size:26.00036621px;font-style:normal;font-weight:normal;line-height:125%;letter-spacing:0px;word-spacing:0px;baseline-shift:sub;fill:#000000;fill-opacity:1;stroke:none;font-family:Sans"
       d="m 12.317836,205.06766 c -0.198052,0.50782 -0.391024,0.83917 -0.578915,0.99406 -0.187895,0.15488 -0.439265,0.23232 -0.754112,0.23232 l -0.559871,0 0,-0.58653 0.411334,0 c 0.19297,0 0.342777,-0.0457 0.44942,-0.13711 0.106641,-0.0914 0.224709,-0.30723 0.354204,-0.64747 l 0.125686,-0.31993 -1.725318,-4.19713 0.742687,0 1.333026,3.33638 1.333027,-3.33638 0.742686,0 -1.873854,4.66179"
       id="path4099" />
    <path
       style="font-size:12px;font-style:normal;font-weight:normal;line-height:125%;letter-spacing:0px;word-spacing:0px;fill:#000000;fill-opacity:1;stroke:none;font-family:Sans"
       d="m 18.144721,193.16609 c -0.52344,0.89845 -0.912112,1.78712 -1.166015,2.66602 -0.253909,0.87891 -0.380862,1.76953 -0.38086,2.67187 -2e-6,0.90235 0.126951,1.79688 0.38086,2.6836 0.257809,0.88281 0.646481,1.77148 1.166015,2.66601 l -0.9375,0 c -0.585939,-0.91797 -1.025392,-1.82031 -1.318359,-2.70703 -0.289064,-0.88672 -0.433595,-1.76758 -0.433594,-2.64258 -1e-6,-0.87109 0.14453,-1.74804 0.433594,-2.63086 0.289061,-0.8828 0.728513,-1.78515 1.318359,-2.70703 l 0.9375,0"
       id="path4101" />
    <path
       style="font-size:12px;font-style:normal;font-weight:normal;line-height:125%;letter-spacing:0px;word-spacing:0px;fill:#000000;fill-opacity:1;stroke:none;font-family:Sans"
       d="m 25.533393,193.81062 0,1.1543 c -0.449224,-0.21484 -0.873052,-0.37499 -1.271484,-0.48047 -0.398442,-0.10546 -0.783208,-0.15819 -1.154297,-0.1582 -0.644535,1e-5 -1.142581,0.12501 -1.494141,0.375 -0.347658,0.25 -0.521486,0.60547 -0.521484,1.0664 -2e-6,0.38673 0.115232,0.6797 0.345703,0.87891 0.234373,0.19532 0.675778,0.35352 1.324219,0.47461 l 0.714844,0.14648 c 0.882807,0.16798 1.533197,0.46485 1.951171,0.89063 0.421869,0.42188 0.632806,0.98828 0.632813,1.69922 -7e-6,0.84766 -0.285163,1.49023 -0.855469,1.92773 -0.566412,0.4375 -1.398442,0.65625 -2.496094,0.65625 -0.414065,0 -0.855471,-0.0469 -1.324218,-0.14062 -0.464846,-0.0937 -0.947267,-0.23242 -1.447266,-0.41602 l 0,-1.21875 c 0.480468,0.26953 0.95117,0.47266 1.412109,0.60938 0.460935,0.13672 0.91406,0.20508 1.359375,0.20507 0.675777,1e-5 1.197261,-0.13281 1.564454,-0.39843 0.367182,-0.26563 0.550775,-0.64453 0.550781,-1.13672 -6e-6,-0.42969 -0.132818,-0.76562 -0.398438,-1.00781 -0.261723,-0.24219 -0.693364,-0.42383 -1.294922,-0.54493 l -0.720703,-0.14062 c -0.882815,-0.17578 -1.521486,-0.45117 -1.916015,-0.82617 -0.394533,-0.375 -0.591798,-0.89648 -0.591797,-1.56446 -1e-6,-0.77343 0.271483,-1.3828 0.814453,-1.82812 0.546873,-0.44531 1.298825,-0.66796 2.255859,-0.66797 0.410152,1e-5 0.828121,0.0371 1.253907,0.11133 0.425775,0.0742 0.861322,0.18555 1.30664,0.33398"
       id="path4103" />
    <path
       style="font-size:12px;font-style:normal;font-weight:normal;line-height:125%;letter-spacing:0px;word-spacing:0px;fill:#000000;fill-opacity:1;stroke:none;font-family:Sans"
       d="m 27.689643,193.16609 0.9375,0 c 0.585935,0.92188 1.023435,1.82423 1.3125,2.70703 0.292965,0.88282 0.43945,1.75977 0.439453,2.63086 -3e-6,0.875 -0.146488,1.75586 -0.439453,2.64258 -0.289065,0.88672 -0.726565,1.78906 -1.3125,2.70703 l -0.9375,0 c 0.51953,-0.89453 0.906248,-1.7832 1.160156,-2.66601 0.257811,-0.88672 0.386717,-1.78125 0.386719,-2.6836 -2e-6,-0.90234 -0.128908,-1.79296 -0.386719,-2.67187 -0.253908,-0.8789 -0.640626,-1.76757 -1.160156,-2.66602"
       id="path4105" />
    <path
       style="font-size:12px;font-style:normal;font-weight:normal;line-height:125%;letter-spacing:0px;word-spacing:0px;fill:#000000;fill-opacity:1;stroke:none;font-family:Sans"
       d="m 36.508003,196.82234 7.511718,0 0,0.98438 -7.511718,0 0,-0.98438"
       id="path4174" />
    <path
       style="font-size:12px;font-style:normal;font-weight:normal;line-height:125%;letter-spacing:0px;word-spacing:0px;fill:#000000;fill-opacity:1;stroke:none;font-family:Sans"
       d="m 36.508003,199.21297 7.511718,0 0,0.99609 -7.511718,0 0,-0.99609"
       id="path4107" />
    <path
       style="font-size:12px;font-style:normal;font-weight:normal;line-height:125%;letter-spacing:0px;word-spacing:0px;fill:#000000;fill-opacity:1;stroke:none;font-family:Sans"
       d="m 51.414253,201.27547 4.130859,0 0,0.99609 -5.554688,0 0,-0.99609 c 0.449218,-0.46485 1.060545,-1.08789 1.833985,-1.86914 0.77734,-0.78516 1.265621,-1.29102 1.464844,-1.51758 0.378901,-0.42578 0.642573,-0.78515 0.791015,-1.07813 0.152339,-0.29687 0.228511,-0.58788 0.228516,-0.87304 -5e-6,-0.46484 -0.164068,-0.84375 -0.492188,-1.13672 -0.324223,-0.29296 -0.74805,-0.43945 -1.271484,-0.43946 -0.371097,1e-5 -0.763675,0.0645 -1.177734,0.19336 -0.410158,0.12892 -0.849611,0.32423 -1.31836,0.58594 l 0,-1.19531 c 0.476561,-0.1914 0.921873,-0.33593 1.335938,-0.4336 0.41406,-0.0976 0.792965,-0.14647 1.136718,-0.14648 0.906246,1e-5 1.628902,0.22657 2.167969,0.67969 0.539057,0.45313 0.808588,1.0586 0.808594,1.8164 -6e-6,0.35938 -0.06837,0.70118 -0.205078,1.02539 -0.132819,0.32032 -0.376959,0.69923 -0.732422,1.13672 -0.09766,0.11329 -0.408208,0.44141 -0.931641,0.98438 -0.523441,0.53906 -1.261722,1.29492 -2.214843,2.26758"
       id="path4109" />
    <path
       style="font-size:12px;font-style:normal;font-weight:normal;line-height:125%;letter-spacing:0px;word-spacing:0px;fill:#000000;fill-opacity:1;stroke:none;font-family:Sans"
       d="m 84.982612,201.27547 1.933594,0 0,-6.67383 -2.103516,0.42187 0,-1.07812 2.091797,-0.42188 1.183594,0 0,7.75196 1.933593,0 0,0.99609 -5.039062,0 0,-0.99609"
       id="path4111" />
    <path
       style="font-size:12px;font-style:normal;font-weight:normal;line-height:125%;letter-spacing:0px;word-spacing:0px;fill:#000000;fill-opacity:1;stroke:none;font-family:Sans"
       d="M 121.6875 193.375 C 120.70703 193.37501 119.95703 193.75391 119.4375 194.53125 C 118.92188 195.30469 118.65625 196.42969 118.65625 197.90625 C 118.65625 199.3789 118.92188 200.5039 119.4375 201.28125 C 119.95703 202.05468 120.70703 202.4375 121.6875 202.4375 C 122.66797 202.4375 123.42187 202.05468 123.9375 201.28125 C 124.45703 200.5039 124.71875 199.3789 124.71875 197.90625 C 124.71875 196.42969 124.45703 195.30469 123.9375 194.53125 C 123.42187 193.75391 122.66797 193.37501 121.6875 193.375 z M 121.6875 194.3125 C 122.30078 194.31251 122.75781 194.6172 123.0625 195.21875 C 123.37109 195.81642 123.53124 196.70313 123.53125 197.90625 C 123.53124 199.10547 123.37109 199.99219 123.0625 200.59375 C 122.75781 201.1914 122.30078 201.5 121.6875 201.5 C 121.07813 201.5 120.62109 201.1914 120.3125 200.59375 C 120.00781 199.99219 119.84375 199.10547 119.84375 197.90625 C 119.84375 196.70313 120.00781 195.81642 120.3125 195.21875 C 120.62109 194.6172 121.07813 194.31251 121.6875 194.3125 z "
       id="path4113" />
    <path
       style="font-size:12px;font-style:normal;font-weight:normal;line-height:125%;letter-spacing:0px;word-spacing:0px;fill:#000000;fill-opacity:1;stroke:none;font-family:Sans"
       d="M 156.0625 193.375 C 155.08203 193.37501 154.33203 193.75391 153.8125 194.53125 C 153.29687 195.30469 153.0625 196.42969 153.0625 197.90625 C 153.0625 199.3789 153.29687 200.5039 153.8125 201.28125 C 154.33203 202.05468 155.08203 202.4375 156.0625 202.4375 C 157.04296 202.4375 157.79687 202.05468 158.3125 201.28125 C 158.83202 200.5039 159.09374 199.3789 159.09375 197.90625 C 159.09374 196.42969 158.83202 195.30469 158.3125 194.53125 C 157.79687 193.75391 157.04296 193.37501 156.0625 193.375 z M 156.0625 194.3125 C 156.67578 194.31251 157.13281 194.6172 157.4375 195.21875 C 157.74609 195.81642 157.90625 196.70313 157.90625 197.90625 C 157.90625 199.10547 157.74609 199.99219 157.4375 200.59375 C 157.13281 201.1914 156.67578 201.5 156.0625 201.5 C 155.45312 201.5 154.99609 201.1914 154.6875 200.59375 C 154.38281 199.99219 154.25 199.10547 154.25 197.90625 C 154.25 196.70313 154.38281 195.81642 154.6875 195.21875 C 154.99609 194.6172 155.45312 194.31251 156.0625 194.3125 z "
       id="path4115" />
    <path
       style="font-size:12px;font-style:normal;font-weight:normal;line-height:125%;letter-spacing:0px;word-spacing:0px;fill:#000000;fill-opacity:1;stroke:none;font-family:Sans"
       d="M 190.46875 193.375 C 189.48828 193.37501 188.73828 193.75391 188.21875 194.53125 C 187.70313 195.30469 187.4375 196.42969 187.4375 197.90625 C 187.4375 199.3789 187.70313 200.5039 188.21875 201.28125 C 188.73828 202.05468 189.48828 202.4375 190.46875 202.4375 C 191.44922 202.4375 192.17187 202.05468 192.6875 201.28125 C 193.20703 200.5039 193.46874 199.3789 193.46875 197.90625 C 193.46874 196.42969 193.20703 195.30469 192.6875 194.53125 C 192.17187 193.75391 191.44922 193.37501 190.46875 193.375 z M 190.46875 194.3125 C 191.08203 194.31251 191.53906 194.6172 191.84375 195.21875 C 192.15234 195.81642 192.31249 196.70313 192.3125 197.90625 C 192.31249 199.10547 192.15234 199.99219 191.84375 200.59375 C 191.53906 201.1914 191.08203 201.5 190.46875 201.5 C 189.85937 201.5 189.40234 201.1914 189.09375 200.59375 C 188.78906 199.99219 188.625 199.10547 188.625 197.90625 C 188.625 196.70313 188.78906 195.81642 189.09375 195.21875 C 189.40234 194.6172 189.85937 194.31251 190.46875 194.3125 z "
       id="path4117" />
    <path
       style="font-size:12px;font-style:normal;font-weight:normal;line-height:125%;letter-spacing:0px;word-spacing:0px;fill:#000000;fill-opacity:1;stroke:none;font-family:Sans"
       d="M 224.84375 193.375 C 223.86328 193.37501 223.11328 193.75391 222.59375 194.53125 C 222.07813 195.30469 221.8125 196.42969 221.8125 197.90625 C 221.8125 199.3789 222.07813 200.5039 222.59375 201.28125 C 223.11328 202.05468 223.86328 202.4375 224.84375 202.4375 C 225.82422 202.4375 226.57812 202.05468 227.09375 201.28125 C 227.61328 200.5039 227.87499 199.3789 227.875 197.90625 C 227.87499 196.42969 227.61328 195.30469 227.09375 194.53125 C 226.57812 193.75391 225.82422 193.37501 224.84375 193.375 z M 224.84375 194.3125 C 225.45703 194.31251 225.91405 194.6172 226.21875 195.21875 C 226.52734 195.81642 226.68749 196.70313 226.6875 197.90625 C 226.68749 199.10547 226.52734 199.99219 226.21875 200.59375 C 225.91405 201.1914 225.45703 201.5 224.84375 201.5 C 224.23438 201.5 223.77734 201.1914 223.46875 200.59375 C 223.16406 199.99219 223 199.10547 223 197.90625 C 223 196.70313 223.16406 195.81642 223.46875 195.21875 C 223.77734 194.6172 224.23438 194.31251 224.84375 194.3125 z "
       id="path4119" />
    <path
       style="font-size:12px;font-style:normal;font-weight:normal;line-height:125%;letter-spacing:0px;word-spacing:0px;fill:#000000;fill-opacity:1;stroke:none;font-family:Sans"
       d="M 259.21875 193.375 C 258.23828 193.37501 257.48828 193.75391 256.96875 194.53125 C 256.45312 195.30469 256.1875 196.42969 256.1875 197.90625 C 256.1875 199.3789 256.45312 200.5039 256.96875 201.28125 C 257.48828 202.05468 258.23828 202.4375 259.21875 202.4375 C 260.19921 202.4375 260.95312 202.05468 261.46875 201.28125 C 261.98827 200.5039 262.25 199.3789 262.25 197.90625 C 262.25 196.42969 261.98827 195.30469 261.46875 194.53125 C 260.95312 193.75391 260.19921 193.37501 259.21875 193.375 z M 259.21875 194.3125 C 259.83202 194.31251 260.28906 194.6172 260.59375 195.21875 C 260.90234 195.81642 261.06249 196.70313 261.0625 197.90625 C 261.06249 199.10547 260.90234 199.99219 260.59375 200.59375 C 260.28906 201.1914 259.83202 201.5 259.21875 201.5 C 258.60937 201.5 258.15234 201.1914 257.84375 200.59375 C 257.53906 199.99219 257.375 199.10547 257.375 197.90625 C 257.375 196.70313 257.53906 195.81642 257.84375 195.21875 C 258.15234 194.6172 258.60937 194.31251 259.21875 194.3125 z "
       id="path4121" />
    <path
       style="font-size:12px;font-style:normal;font-weight:normal;line-height:125%;letter-spacing:0px;word-spacing:0px;fill:#000000;fill-opacity:1;stroke:none;font-family:Sans"
       d="m 268.14082,196.82234 7.51172,0 0,0.98438 -7.51172,0 0,-0.98438"
       id="path4146" />
    <path
       style="font-size:12px;font-style:normal;font-weight:normal;line-height:125%;letter-spacing:0px;word-spacing:0px;fill:#000000;fill-opacity:1;stroke:none;font-family:Sans"
       d="m 268.14082,199.21297 7.51172,0 0,0.99609 -7.51172,0 0,-0.99609"
       id="path4123" />
    <path
       style="font-size:12px;font-style:normal;font-weight:normal;line-height:125%;letter-spacing:0px;word-spacing:0px;fill:#000000;fill-opacity:1;stroke:none;font-family:Sans"
       d="m 282.03926,193.52351 4.64648,0 0,0.9961 -3.5625,0 0,2.14453 c 0.17188,-0.0586 0.34375,-0.10156 0.51563,-0.12891 0.17187,-0.0312 0.34374,-0.0469 0.51562,-0.0469 0.97656,0 1.75,0.26758 2.32032,0.80273 0.5703,0.53516 0.85546,1.25977 0.85546,2.17383 0,0.94141 -0.29297,1.67383 -0.8789,2.19726 -0.58595,0.51954 -1.41212,0.7793 -2.47852,0.7793 -0.36719,0 -0.74219,-0.0312 -1.125,-0.0937 -0.37891,-0.0625 -0.77148,-0.15625 -1.17773,-0.28125 l 0,-1.18945 c 0.35156,0.19141 0.71484,0.33398 1.08984,0.42773 0.375,0.0937 0.77148,0.14063 1.18945,0.14063 0.67578,0 1.21094,-0.17774 1.60547,-0.53321 0.39453,-0.35546 0.59179,-0.83788 0.5918,-1.44726 -1e-5,-0.60937 -0.19727,-1.09179 -0.5918,-1.44727 -0.39453,-0.35546 -0.92969,-0.53319 -1.60547,-0.5332 -0.3164,1e-5 -0.63281,0.0352 -0.94921,0.10547 -0.31251,0.0703 -0.63282,0.17969 -0.96094,0.32812 l 0,-4.39453"
       id="path4125" />
    <path
       inkscape:connector-curvature="0"
       style="font-size:12px;font-style:normal;font-weight:normal;line-height:125%;letter-spacing:0px;word-spacing:0px;fill:#000000;fill-opacity:1;stroke:none;font-family:Sans"
       d="m 303.71072,4.5243249 0,1.1543 c -0.44922,-0.21484 -0.87305,-0.37499 -1.27148,-0.48047 -0.39845,-0.10546 -0.78321,-0.15819 -1.1543,-0.1582 -0.64454,1e-5 -1.14258,0.12501 -1.49414,0.375 -0.34766,0.25 -0.52149,0.60547 -0.52149,1.0664 0,0.38673 0.11524,0.6797 0.34571,0.87891 0.23437,0.19532 0.67578,0.35352 1.32422,0.47461 l 0.71484,0.14648 c 0.88281,0.16798 1.5332,0.46485 1.95117,0.89063 0.42187,0.42188 0.63281,0.9882799 0.63281,1.6992201 0,0.84766 -0.28516,1.49023 -0.85546,1.92773 -0.56642,0.4375 -1.39845,0.65625 -2.4961,0.65625 -0.41406,0 -0.85547,-0.0469 -1.32422,-0.14062 -0.46484,-0.0937 -0.94726,-0.23242 -1.44726,-0.41602 l 0,-1.21875 c 0.48047,0.26953 0.95117,0.47266 1.41211,0.60938 0.46093,0.13672 0.91406,0.20508 1.35937,0.20507 0.67578,10e-6 1.19726,-0.13281 1.56446,-0.39843 0.36718,-0.26563 0.55077,-0.64453 0.55078,-1.13672 -10e-6,-0.42969 -0.13282,-0.7656202 -0.39844,-1.0078101 -0.26172,-0.24219 -0.69337,-0.42383 -1.29492,-0.54493 l -0.72071,-0.14062 c -0.88281,-0.17578 -1.52148,-0.45117 -1.91601,-0.82617 -0.39453,-0.375 -0.5918,-0.89648 -0.5918,-1.56446 0,-0.77343 0.27148,-1.3828 0.81445,-1.82812 0.54688,-0.44531 1.29883,-0.66796 2.25586,-0.66797 0.41016,1e-5 0.82812,0.0371 1.25391,0.11133 0.42578,0.0742 0.86132,0.18555 1.30664,0.33398"
       id="path4103-5" />
  </g>
</svg>
