<?xml version="1.0" encoding="UTF-8" standalone="no"?>
<!-- Created with Inkscape (http://www.inkscape.org/) -->

<svg
   xmlns:dc="http://purl.org/dc/elements/1.1/"
   xmlns:cc="http://creativecommons.org/ns#"
   xmlns:rdf="http://www.w3.org/1999/02/22-rdf-syntax-ns#"
   xmlns:svg="http://www.w3.org/2000/svg"
   xmlns="http://www.w3.org/2000/svg"
   xmlns:sodipodi="http://sodipodi.sourceforge.net/DTD/sodipodi-0.dtd"
   xmlns:inkscape="http://www.inkscape.org/namespaces/inkscape"
   width="300"
   height="260"
   id="svg2"
   version="1.1"
   inkscape:version="0.48.0 r9654"
   sodipodi:docname="2011-(02)feb-02, 04.svg">
  <defs
     id="defs4" />
  <sodipodi:namedview
     id="base"
     pagecolor="#ffffff"
     bordercolor="#666666"
     borderopacity="1.0"
     inkscape:pageopacity="0.0"
     inkscape:pageshadow="2"
     inkscape:zoom="1.7578125"
     inkscape:cx="138.31736"
     inkscape:cy="76.703289"
     inkscape:document-units="px"
     inkscape:current-layer="layer1"
     showgrid="false"
     inkscape:window-width="1589"
     inkscape:window-height="1117"
     inkscape:window-x="1600"
     inkscape:window-y="27"
     inkscape:window-maximized="1"
     showguides="true"
     inkscape:guide-bbox="true" />
  <metadata
     id="metadata7">
    <rdf:RDF>
      <cc:Work
         rdf:about="">
        <dc:format>image/svg+xml</dc:format>
        <dc:type
           rdf:resource="http://purl.org/dc/dcmitype/StillImage" />
        <dc:title />
      </cc:Work>
    </rdf:RDF>
  </metadata>
  <g
     inkscape:label="Layer 1"
     inkscape:groupmode="layer"
     id="layer1">
    <path
       style="color:#000000;fill:#e2e2e2;fill-opacity:1;stroke:#e2e2e2;stroke-width:0.80453038;stroke-linecap:butt;stroke-linejoin:miter;stroke-miterlimit:4;stroke-opacity:1;stroke-dasharray:none;stroke-dashoffset:0;marker:none;visibility:visible;display:inline;overflow:visible;enable-background:accumulate"
       d="m 76.317812,110.17424 c -3.427991,-0.62205 -6.264204,-1.51737 -9.728193,-3.07096 l -2.55115,-1.14417 3.022576,-2.40194 C 76.211952,96.285284 81.183571,85.192149 80.471043,73.635549 80.061247,66.989008 78.059632,61.042788 74.351567,55.456352 72.613963,52.838541 67.93046,48.022142 65.66399,46.522264 l -1.61983,-1.071953 1.944907,-0.988861 c 5.295898,-2.692628 10.514829,-3.840663 17.230983,-3.790389 16.236404,0.121538 29.96012,10.307871 34.65908,25.725463 0.93446,3.066022 1.08317,4.273947 1.10471,8.973516 0.0288,6.270635 -0.56772,9.140057 -2.98298,14.350127 -1.79901,3.880741 -3.24315,6.056348 -6.08174,9.162221 -8.2498,9.026602 -21.516184,13.484822 -33.601308,11.291852 l 0,0 z"
       id="path4170"
       inkscape:connector-curvature="0" />
    <path
       style="color:#000000;fill:#e2e2e2;fill-opacity:1;stroke:#e2e2e2;stroke-width:0.80453038;stroke-linecap:butt;stroke-linejoin:miter;stroke-miterlimit:4;stroke-opacity:1;stroke-dasharray:none;stroke-dashoffset:0;marker:none;visibility:visible;display:inline;overflow:visible;enable-background:accumulate"
       d="M 59.460061,102.58785 C 51.934783,96.634357 47.545852,88.78159 46.400482,79.221374 c -0.457671,-3.8201 -0.313332,-6.244055 0.660501,-11.092107 0.849296,-4.228066 4.316513,-11.120848 7.347824,-14.607378 2.279579,-2.621908 7.477506,-7.114941 8.231175,-7.114941 1.327849,0 8.227769,6.576282 10.688861,10.187504 4.312775,6.328243 6.371807,14.557322 5.603792,22.395975 -1.003332,10.24038 -6.299998,18.864523 -15.852188,25.810863 -0.248648,0.18082 -1.768749,-0.74854 -3.620386,-2.21344 z"
       id="path4168"
       inkscape:connector-curvature="0" />
    <path
       style="color:#000000;fill:#e2e2e2;fill-opacity:1;stroke:#e2e2e2;stroke-width:0.80453038;stroke-linecap:butt;stroke-linejoin:miter;stroke-miterlimit:4;stroke-opacity:1;stroke-dasharray:none;stroke-dashoffset:0;marker:none;visibility:visible;display:inline;overflow:visible;enable-background:accumulate"
       d="M 37.764085,110.48094 C 26.187635,108.87044 15.504811,101.51682 10.316153,91.586919 7.6109026,86.409689 6.5821734,82.710495 6.3039282,77.159407 5.8223351,67.551462 9.1461409,58.901432 16.041765,51.817197 24.106664,43.531706 35.167243,39.537804 46.572373,40.792796 c 4.167334,0.458563 9.984559,2.126891 13.054177,3.743824 l 1.74921,0.9214 -1.145813,0.738246 c -6.266221,4.037335 -11.991259,12.058068 -14.219679,19.921675 -1.239058,4.372355 -1.52309,11.669866 -0.626447,16.094984 1.795401,8.860663 6.666663,16.718917 13.590102,21.923365 l 2.323898,1.7469 -2.289662,1.08318 c -6.541901,3.09482 -14.635988,4.43389 -21.244074,3.51457 z"
       id="path4166"
       inkscape:connector-curvature="0" />
    <path
       style="font-size:medium;font-style:normal;font-variant:normal;font-weight:normal;font-stretch:normal;text-indent:0;text-align:start;text-decoration:none;line-height:normal;letter-spacing:normal;word-spacing:normal;text-transform:none;direction:ltr;block-progression:tb;writing-mode:lr-tb;text-anchor:start;baseline-shift:baseline;color:#000000;fill:#000000;fill-opacity:1;stroke:none;stroke-width:1;marker:none;visibility:visible;display:inline;overflow:visible;enable-background:accumulate;font-family:Sans;-inkscape-font-specification:Sans"
       d="M 42.6875 39.28125 C 21.848237 39.28125 4.90625 55.550173 4.90625 75.625 C 4.90625 95.699829 21.848237 111.96875 42.6875 111.96875 C 63.526763 111.96875 80.4375 95.699829 80.4375 75.625 C 80.4375 55.550173 63.526763 39.28125 42.6875 39.28125 z M 42.6875 40.28125 C 63.006951 40.28125 79.4375 56.112058 79.4375 75.625 C 79.4375 95.137944 63.006951 110.96875 42.6875 110.96875 C 22.368049 110.96875 5.90625 95.137944 5.90625 75.625 C 5.90625 56.112058 22.368049 40.28125 42.6875 40.28125 z "
       id="path4092" />
    <path
       style="font-size:medium;font-style:normal;font-variant:normal;font-weight:normal;font-stretch:normal;text-indent:0;text-align:start;text-decoration:none;line-height:normal;letter-spacing:normal;word-spacing:normal;text-transform:none;direction:ltr;block-progression:tb;writing-mode:lr-tb;text-anchor:start;baseline-shift:baseline;color:#000000;fill:#000000;fill-opacity:1;stroke:none;stroke-width:1;marker:none;visibility:visible;display:inline;overflow:visible;enable-background:accumulate;font-family:Sans;-inkscape-font-specification:Sans"
       d="M 82.6875 39.28125 C 61.848237 39.28125 44.90625 55.550173 44.90625 75.625 C 44.90625 95.699829 61.848237 111.96875 82.6875 111.96875 C 103.52676 111.96875 120.4375 95.699829 120.4375 75.625 C 120.4375 55.550173 103.52676 39.28125 82.6875 39.28125 z M 82.6875 40.28125 C 103.00695 40.28125 119.4375 56.112058 119.4375 75.625 C 119.4375 95.137944 103.00695 110.96875 82.6875 110.96875 C 62.368049 110.96875 45.90625 95.137944 45.90625 75.625 C 45.90625 56.112058 62.368049 40.28125 82.6875 40.28125 z "
       id="path4096" />
    <path
       style="font-size:24px;font-style:normal;font-weight:normal;line-height:125%;letter-spacing:0px;word-spacing:0px;fill:#000000;fill-opacity:1;stroke:none;font-family:Sans"
       d="M 24.9375,49.15625 19.875,62.375 l 1.90625,0 1.1875,-3.40625 5.96875,0 1.1875,3.40625 1.875,0 -5.03125,-13.21875 -2.03125,0 z m 1,1.75 2.4375,6.59375 -4.875,0 2.4375,-6.59375 z"
       id="path3013"
       inkscape:connector-curvature="0" />
    <path
       style="font-size:24px;font-style:normal;font-weight:normal;line-height:125%;letter-spacing:0px;word-spacing:0px;fill:#000000;fill-opacity:1;stroke:none;font-family:Sans"
       d="m 95.34375,50 0,13.21875 4.75,0 c 1.48199,0 2.6345,-0.293921 3.4375,-0.9375 0.80298,-0.643576 1.18749,-1.56912 1.1875,-2.75 -1e-5,-0.897462 -0.2287,-1.653652 -0.71875,-2.25 -0.48418,-0.602241 -1.18276,-0.998553 -2.0625,-1.1875 0.73213,-0.118081 1.27836,-0.396737 1.65625,-0.875 0.37787,-0.478247 0.59374,-1.12859 0.59375,-1.9375 -1e-5,-1.045065 -0.38696,-1.870667 -1.125,-2.4375 C 102.32445,50.276942 101.27016,50.000014 99.90625,50 l -4.5625,0 z m 1.78125,1.46875 2.65625,0 c 0.87384,1.1e-5 1.51238,0.169366 1.9375,0.5 0.43102,0.330656 0.65624,0.832816 0.65625,1.5 -1e-5,0.67311 -0.22523,1.169363 -0.65625,1.5 -0.42512,0.324749 -1.06366,0.500007 -1.9375,0.5 l -2.65625,0 0,-4 z m 0,5.4375 2.875,0 c 0.96241,6e-6 1.66445,0.198163 2.125,0.59375 0.46644,0.389695 0.71874,1.01714 0.71875,1.84375 -1e-5,0.820712 -0.25231,1.411005 -0.71875,1.8125 -0.46055,0.395596 -1.16259,0.593752 -2.125,0.59375 l -2.875,0 0,-4.84375 z"
       id="path3015"
       inkscape:connector-curvature="0" />
    <path
       style="font-size:24px;font-style:normal;font-weight:normal;line-height:125%;letter-spacing:0px;word-spacing:0px;fill:#000000;fill-opacity:1;stroke:none;font-family:Sans"
       d="m 35.59375,7.78125 -6.65625,17.5 2.46875,0 L 33,20.8125 l 7.90625,0 1.59375,4.46875 2.46875,0 -6.6875,-17.5 -2.6875,0 z m 1.34375,2.34375 3.21875,8.71875 -6.4375,0 3.21875,-8.71875 z"
       id="path3934"
       inkscape:connector-curvature="0" />
    <path
       style="font-size:24px;font-style:normal;font-weight:normal;line-height:125%;letter-spacing:0px;word-spacing:0px;fill:#000000;fill-opacity:1;stroke:none;font-family:Sans"
       d="m 55.878405,18.327955 0,-6.9375 2.015625,0 0,6.644531 c -5e-6,1.906256 0.289057,3.273442 0.867187,4.101563 0.578119,0.820315 1.515618,1.230471 2.8125,1.230469 1.289053,2e-6 2.222645,-0.410154 2.800781,-1.230469 0.578113,-0.828121 0.867175,-2.195307 0.867188,-4.101563 l 0,-6.644531 2.015625,0 0,6.9375 c -1.5e-5,2.312505 -0.480483,4.050784 -1.441406,5.214844 -0.953137,1.164063 -2.367199,1.746094 -4.242188,1.746094 -1.882819,0 -3.304693,-0.582031 -4.265625,-1.746094 -0.953128,-1.16406 -1.42969,-2.902339 -1.429687,-5.214844"
       id="path3936"
       inkscape:connector-curvature="0" />
    <path
       style="font-size:24px;font-style:normal;font-weight:normal;line-height:125%;letter-spacing:0px;word-spacing:0px;fill:#000000;fill-opacity:1;stroke:none;font-family:Sans"
       d="m 80.34375,7.78125 0,17.5 6.28125,0 c 1.960927,0 3.499988,-0.429687 4.5625,-1.28125 1.062485,-0.85156 1.593735,-2.062496 1.59375,-3.625 -1.5e-5,-1.187494 -0.351577,-2.14843 -1,-2.9375 -0.640638,-0.796866 -1.52345,-1.343741 -2.6875,-1.59375 0.968738,-0.15624 1.687487,-0.554677 2.1875,-1.1875 0.499986,-0.632801 0.749986,-1.460926 0.75,-2.53125 -1.4e-5,-1.382798 -0.492201,-2.4687344 -1.46875,-3.21875 -0.976574,-0.7499829 -2.351572,-1.1249825 -4.15625,-1.125 l -6.0625,0 z m 2.375,1.96875 3.5,0 c 1.156241,1.55e-5 2.03124,0.2187653 2.59375,0.65625 0.570301,0.437515 0.843738,1.085952 0.84375,1.96875 -1.2e-5,0.890637 -0.273449,1.562511 -0.84375,2 -0.56251,0.429698 -1.437509,0.62501 -2.59375,0.625 l -3.5,0 0,-5.25 z m 0,7.1875 3.8125,0 c 1.273428,8e-6 2.203114,0.257821 2.8125,0.78125 0.617175,0.515632 0.937488,1.312506 0.9375,2.40625 -1.2e-5,1.085941 -0.320325,1.906253 -0.9375,2.4375 -0.609386,0.52344 -1.539072,0.781252 -2.8125,0.78125 l -3.8125,0 0,-6.40625 z"
       id="path3938"
       inkscape:connector-curvature="0" />
    <path
       style="color:#000000;fill:#e2e2e2;fill-opacity:1;stroke:#e2e2e2;stroke-width:1.13777781;stroke-linecap:butt;stroke-linejoin:miter;stroke-miterlimit:4;stroke-opacity:1;stroke-dasharray:none;stroke-dashoffset:0;marker:none;visibility:visible;display:inline;overflow:visible;enable-background:accumulate"
       d="M 36.320975,248.17296 C 19.184249,245.08844 6.4678249,230.4804 6.3752461,213.77269 6.3439252,208.12022 7.2429867,204.187 9.82124,198.69714 c 1.585091,-3.37513 3.02829,-5.27968 6.906743,-9.11467 7.649101,-7.56337 15.39221,-10.77963 25.951838,-10.77963 5.541613,0 10.327943,0.91449 14.784394,2.82475 1.555315,0.66669 2.908047,1.29236 3.00607,1.39038 0.09802,0.098 -2.081846,2.44994 -4.844155,5.22648 -3.846289,3.86609 -5.520787,6.06457 -7.150778,9.38836 -5.200522,10.60461 -4.982943,22.66142 0.596295,33.04264 2.057618,3.82858 7.417521,10.04913 10.390396,12.0588 1.332379,0.90068 1.35868,1.00899 0.416351,1.71463 -0.553229,0.41427 -3.063975,1.43343 -5.579437,2.2648 -5.14693,1.70107 -13.06424,2.34373 -17.977982,1.45928 l 0,0 z"
       id="path4176"
       inkscape:connector-curvature="0" />
    <path
       style="font-size:medium;font-style:normal;font-variant:normal;font-weight:normal;font-stretch:normal;text-indent:0;text-align:start;text-decoration:none;line-height:normal;letter-spacing:normal;word-spacing:normal;text-transform:none;direction:ltr;block-progression:tb;writing-mode:lr-tb;text-anchor:start;baseline-shift:baseline;color:#000000;fill:#000000;fill-opacity:1;stroke:none;stroke-width:1;marker:none;visibility:visible;display:inline;overflow:visible;enable-background:accumulate;font-family:Sans;-inkscape-font-specification:Sans"
       d="m 42.6875,177.28125 c -20.839263,0 -37.78125,16.26892 -37.78125,36.34375 0,20.07483 16.941987,36.34375 37.78125,36.34375 20.839263,0 37.75,-16.26892 37.75,-36.34375 0,-20.07483 -16.910737,-36.34375 -37.75,-36.34375 z m 0,1 c 20.319451,0 36.75,15.83081 36.75,35.34375 0,19.51294 -16.430549,35.34375 -36.75,35.34375 -20.319451,0 -36.78125,-15.83081 -36.78125,-35.34375 0,-19.51294 16.461799,-35.34375 36.78125,-35.34375 z"
       id="path4100"
       inkscape:connector-curvature="0" />
    <path
       style="font-size:medium;font-style:normal;font-variant:normal;font-weight:normal;font-stretch:normal;text-indent:0;text-align:start;text-decoration:none;line-height:normal;letter-spacing:normal;word-spacing:normal;text-transform:none;direction:ltr;block-progression:tb;writing-mode:lr-tb;text-anchor:start;baseline-shift:baseline;color:#000000;fill:#000000;fill-opacity:1;stroke:none;stroke-width:1;marker:none;visibility:visible;display:inline;overflow:visible;enable-background:accumulate;font-family:Sans;-inkscape-font-specification:Sans"
       d="m 82.6875,177.28125 c -20.839263,0 -37.78125,16.26892 -37.78125,36.34375 0,20.07483 16.941987,36.34375 37.78125,36.34375 20.83926,0 37.75,-16.26892 37.75,-36.34375 0,-20.07483 -16.91074,-36.34375 -37.75,-36.34375 z m 0,1 c 20.31945,0 36.75,15.83081 36.75,35.34375 0,19.51294 -16.43055,35.34375 -36.75,35.34375 -20.319451,0 -36.78125,-15.83081 -36.78125,-35.34375 0,-19.51294 16.461799,-35.34375 36.78125,-35.34375 z"
       id="path4104"
       inkscape:connector-curvature="0" />
    <path
       style="font-size:24px;font-style:normal;font-weight:normal;line-height:125%;letter-spacing:0px;word-spacing:0px;fill:#000000;fill-opacity:1;stroke:none;font-family:Sans"
       d="M 40.71875 148.09375 L 34.03125 165.59375 L 36.53125 165.59375 L 38.125 161.09375 L 46.03125 161.09375 L 47.625 165.59375 L 50.0625 165.59375 L 43.40625 148.09375 L 40.71875 148.09375 z M 42.0625 150.40625 L 45.28125 159.125 L 38.84375 159.125 L 42.0625 150.40625 z "
       id="path3943" />
    <path
       style="font-size:24px;font-style:normal;font-weight:normal;line-height:125%;letter-spacing:0px;word-spacing:0px;fill:#000000;fill-opacity:1;stroke:none;font-family:Sans"
       d="m 59.896843,148.08614 6.09375,19.72265 -1.992188,0 -6.09375,-19.72265 1.992188,0"
       id="path3945" />
    <path
       style="font-size:24px;font-style:normal;font-weight:normal;line-height:125%;letter-spacing:0px;word-spacing:0px;fill:#000000;fill-opacity:1;stroke:none;font-family:Sans"
       d="M 76 148.09375 L 76 165.59375 L 82.28125 165.59375 C 84.242177 165.59375 85.749988 165.16406 86.8125 164.3125 C 87.874986 163.46094 88.406236 162.25001 88.40625 160.6875 C 88.406236 159.50001 88.085923 158.50782 87.4375 157.71875 C 86.796862 156.92188 85.91405 156.40626 84.75 156.15625 C 85.718738 156.00001 86.437487 155.60157 86.9375 154.96875 C 87.437486 154.33595 87.687486 153.47658 87.6875 152.40625 C 87.687486 151.02346 87.195299 149.96876 86.21875 149.21875 C 85.242176 148.46876 83.867177 148.09376 82.0625 148.09375 L 76 148.09375 z M 78.375 150.03125 L 81.875 150.03125 C 83.031241 150.03126 83.90624 150.25001 84.46875 150.6875 C 85.039051 151.12501 85.312488 151.77345 85.3125 152.65625 C 85.312488 153.54688 85.039051 154.21877 84.46875 154.65625 C 83.90624 155.08595 83.031241 155.31251 81.875 155.3125 L 78.375 155.3125 L 78.375 150.03125 z M 78.375 157.21875 L 82.1875 157.21875 C 83.460927 157.21876 84.390615 157.47657 85 158 C 85.617176 158.51563 85.937487 159.34376 85.9375 160.4375 C 85.937487 161.52344 85.617176 162.3125 85 162.84375 C 84.390615 163.36719 83.460927 163.625 82.1875 163.625 L 78.375 163.625 L 78.375 157.21875 z "
       id="path3947" />
    <path
       style="color:#000000;fill:#e2e2e2;fill-opacity:1;stroke:#e2e2e2;stroke-width:1.13777781;stroke-linecap:butt;stroke-linejoin:miter;stroke-miterlimit:4;stroke-opacity:1;stroke-dasharray:none;stroke-dashoffset:0;marker:none;visibility:visible;display:inline;overflow:visible;enable-background:accumulate"
       d="m 226.35368,103.20592 c -5.69036,-4.128757 -11.1699,-12.214716 -13.0059,-19.192342 -1.05287,-4.001405 -1.17984,-12.029375 -0.25191,-15.928099 1.74297,-7.323154 7.32405,-15.791825 13.15505,-19.961334 l 2.52923,-1.808553 3.20252,2.540565 c 16.01181,12.70217 17.43353,36.024529 3.08098,50.541319 -5.54467,5.608114 -5.97205,5.794994 -8.70997,3.808444 z"
       id="path4174"
       inkscape:connector-curvature="0" />
    <path
       style="font-size:medium;font-style:normal;font-variant:normal;font-weight:normal;font-stretch:normal;text-indent:0;text-align:start;text-decoration:none;line-height:normal;letter-spacing:normal;word-spacing:normal;text-transform:none;direction:ltr;block-progression:tb;writing-mode:lr-tb;text-anchor:start;baseline-shift:baseline;color:#000000;fill:#000000;fill-opacity:1;stroke:none;stroke-width:1;marker:none;visibility:visible;display:inline;overflow:visible;enable-background:accumulate;font-family:Sans;-inkscape-font-specification:Sans"
       d="M 208.6875 39.28125 C 187.84824 39.28125 170.90625 55.550173 170.90625 75.625 C 170.90625 95.699829 187.84824 111.96875 208.6875 111.96875 C 229.52676 111.96875 246.4375 95.699829 246.4375 75.625 C 246.4375 55.550173 229.52676 39.28125 208.6875 39.28125 z M 208.6875 40.28125 C 229.00695 40.28125 245.4375 56.112058 245.4375 75.625 C 245.4375 95.137944 229.00695 110.96875 208.6875 110.96875 C 188.36805 110.96875 171.90625 95.137944 171.90625 75.625 C 171.90625 56.112058 188.36805 40.28125 208.6875 40.28125 z "
       id="path4108" />
    <path
       style="font-size:medium;font-style:normal;font-variant:normal;font-weight:normal;font-stretch:normal;text-indent:0;text-align:start;text-decoration:none;line-height:normal;letter-spacing:normal;word-spacing:normal;text-transform:none;direction:ltr;block-progression:tb;writing-mode:lr-tb;text-anchor:start;baseline-shift:baseline;color:#000000;fill:#000000;fill-opacity:1;stroke:none;stroke-width:1;marker:none;visibility:visible;display:inline;overflow:visible;enable-background:accumulate;font-family:Sans;-inkscape-font-specification:Sans"
       d="M 248.6875 39.28125 C 227.84824 39.28125 210.90625 55.550173 210.90625 75.625 C 210.90625 95.699829 227.84824 111.96875 248.6875 111.96875 C 269.52676 111.96875 286.4375 95.699829 286.4375 75.625 C 286.4375 55.550173 269.52676 39.28125 248.6875 39.28125 z M 248.6875 40.28125 C 269.00695 40.28125 285.4375 56.112058 285.4375 75.625 C 285.4375 95.137944 269.00695 110.96875 248.6875 110.96875 C 228.36805 110.96875 211.90625 95.137944 211.90625 75.625 C 211.90625 56.112058 228.36805 40.28125 248.6875 40.28125 z "
       id="path4112" />
    <path
       style="font-size:24px;font-style:normal;font-weight:normal;line-height:125%;letter-spacing:0px;word-spacing:0px;fill:#000000;fill-opacity:1;stroke:none;font-family:Sans"
       d="m 202.1875,7.21875 -6.6875,17.5 2.5,0 1.59375,-4.5 7.875,0 1.59375,4.5 2.46875,0 -6.6875,-17.5 -2.65625,0 z m 1.3125,2.34375 3.21875,8.6875 -6.40625,0 3.1875,-8.6875 z"
       id="path3952"
       inkscape:connector-curvature="0" />
    <path
       style="font-size:24px;font-style:normal;font-weight:normal;line-height:125%;letter-spacing:0px;word-spacing:0px;fill:#000000;fill-opacity:1;stroke:none;font-family:Sans"
       d="m 222.4473,17.782503 c -1e-5,-2.312491 0.47656,-4.05077 1.42968,-5.214844 0.96094,-1.164049 2.38281,-1.74608 4.26563,-1.746093 1.87499,1.4e-5 3.28905,0.582044 4.24219,1.746093 0.96092,1.164074 1.44139,2.902353 1.4414,5.214844 l 0,6.9375 -2.01562,0 0,-6.644531 c -2e-5,-1.906242 -0.28908,-3.269521 -0.86719,-4.089844 -0.57814,-0.828113 -1.51173,-1.242175 -2.80078,-1.242187 -1.29688,1.2e-5 -2.23438,0.414074 -2.8125,1.242187 -0.57813,0.820323 -0.86719,2.183602 -0.86719,4.089844 l 0,6.644531 -2.01562,0 0,-6.9375"
       id="path3954"
       inkscape:connector-curvature="0" />
    <path
       style="font-size:24px;font-style:normal;font-weight:normal;line-height:125%;letter-spacing:0px;word-spacing:0px;fill:#000000;fill-opacity:1;stroke:none;font-family:Sans"
       d="m 246.9375,7.21875 0,17.5 6.28125,0 c 1.96093,0 3.46874,-0.429687 4.53125,-1.28125 1.06249,-0.85156 1.59374,-2.062497 1.59375,-3.625 -10e-6,-1.187494 -0.32032,-2.179681 -0.96875,-2.96875 -0.64063,-0.796866 -1.5547,-1.31249 -2.71875,-1.5625 0.96874,-0.15624 1.71874,-0.554678 2.21875,-1.1875 0.49998,-0.632802 0.74998,-1.460925 0.75,-2.53125 -2e-5,-1.382798 -0.4922,-2.4687344 -1.46875,-3.21875 -0.97657,-0.7499829 -2.38282,-1.1249825 -4.1875,-1.125 l -6.03125,0 z m 2.34375,1.9375 3.53125,0 c 1.15624,1.55e-5 1.99999,0.2187653 2.5625,0.65625 0.5703,0.437514 0.84374,1.117201 0.84375,2 -10e-6,0.890637 -0.27345,1.562511 -0.84375,2 -0.56251,0.429698 -1.40626,0.625011 -2.5625,0.625 l -3.53125,0 0,-5.28125 z m 0,7.21875 3.8125,0 c 1.27343,9e-6 2.20311,0.25782 2.8125,0.78125 0.61717,0.515632 0.93749,1.312506 0.9375,2.40625 -10e-6,1.085942 -0.32033,1.906254 -0.9375,2.4375 -0.60939,0.52344 -1.53907,0.781252 -2.8125,0.78125 l -3.8125,0 0,-6.40625 z"
       id="path3956"
       inkscape:connector-curvature="0" />
    <path
       style="color:#000000;fill:#e2e2e2;fill-opacity:1;stroke:#e2e2e2;stroke-width:1.13777781;stroke-linecap:butt;stroke-linejoin:miter;stroke-miterlimit:4;stroke-opacity:1;stroke-dasharray:none;stroke-dashoffset:0;marker:none;visibility:visible;display:inline;overflow:visible;enable-background:accumulate"
       d="m 167.55093,214.91047 0,-40.10667 63.43111,0 63.43111,0 0,40.10667 0,40.10667 -63.43111,0 -63.43111,0 0,-40.10667 z m 66.55905,35.80955 c 8.00884,-2.43463 15.64088,-7.77794 20.16489,-14.11777 4.72588,-6.62274 6.60831,-12.51876 6.65311,-20.83845 0.0564,-10.48161 -3.07491,-17.86929 -10.85443,-25.6085 -6.67143,-6.63686 -12.8015,-9.5946 -22.34252,-10.78021 -18.09996,-2.24919 -34.84481,8.15813 -40.90465,25.42321 -1.61126,4.59061 -2.00608,12.90584 -0.86665,18.25219 1.30575,6.12679 4.25173,11.76883 8.59391,16.45879 5.83208,6.29918 12.13466,9.95719 20.42289,11.85342 4.45086,1.01829 14.81474,0.67018 19.13345,-0.64268 l 0,0 z"
       id="path4178"
       inkscape:connector-curvature="0" />
    <path
       style="font-size:medium;font-style:normal;font-variant:normal;font-weight:normal;font-stretch:normal;text-indent:0;text-align:start;text-decoration:none;line-height:normal;letter-spacing:normal;word-spacing:normal;text-transform:none;direction:ltr;block-progression:tb;writing-mode:lr-tb;text-anchor:start;baseline-shift:baseline;color:#000000;fill:#000000;fill-opacity:1;stroke:none;stroke-width:1;marker:none;visibility:visible;display:inline;overflow:visible;enable-background:accumulate;font-family:Sans;-inkscape-font-specification:Sans"
       d="M 223.15625 179.25 C 202.31699 179.25 185.375 195.51892 185.375 215.59375 C 185.375 235.66858 202.31699 251.9375 223.15625 251.9375 C 243.99551 251.9375 260.90625 235.66858 260.90625 215.59375 C 260.90625 195.51892 243.99551 179.25 223.15625 179.25 z M 223.15625 180.25 C 243.4757 180.25 259.90625 196.08081 259.90625 215.59375 C 259.90625 235.10669 243.4757 250.9375 223.15625 250.9375 C 202.8368 250.9375 186.375 235.10669 186.375 215.59375 C 186.375 196.08081 202.8368 180.25 223.15625 180.25 z "
       id="path4116" />
    <path
       style="font-size:24px;font-style:normal;font-weight:normal;line-height:125%;letter-spacing:0px;word-spacing:0px;fill:#000000;fill-opacity:1;stroke:none;font-family:Sans"
       d="M 220.9375 148.65625 L 214.28125 166.15625 L 216.75 166.15625 L 218.34375 161.65625 L 226.25 161.65625 L 227.84375 166.15625 L 230.3125 166.15625 L 223.625 148.65625 L 220.9375 148.65625 z M 222.28125 151 L 225.5 159.6875 L 219.0625 159.6875 L 222.28125 151 z "
       id="path3960" />
    <path
       style="font-size:26.00036621px;font-style:normal;font-weight:normal;line-height:125%;letter-spacing:0px;word-spacing:0px;baseline-shift:super;fill:#000000;fill-opacity:1;stroke:none;font-family:Sans"
       d="m 240.53346,146.05449 0,1.62248 c -0.51798,-0.48242 -1.0715,-0.84297 -1.66057,-1.08165 -0.584,-0.23867 -1.20608,-0.358 -1.86623,-0.35801 -1.30003,1e-5 -2.29535,0.39864 -2.98598,1.19591 -0.69064,0.79221 -1.03596,1.93988 -1.03596,3.44302 0,1.49807 0.34532,2.64574 1.03596,3.44302 0.69063,0.7922 1.68595,1.18829 2.98598,1.18829 0.66015,0 1.28223,-0.11933 1.86623,-0.35801 0.58907,-0.23867 1.14259,-0.59922 1.66057,-1.08166 l 0,1.60725 c -0.53829,0.36563 -1.10959,0.63986 -1.71389,0.82267 -0.59923,0.18282 -1.23401,0.27422 -1.90432,0.27422 -1.72151,0 -3.07739,-0.52559 -4.06764,-1.57678 -0.99025,-1.05626 -1.48537,-2.49593 -1.48537,-4.319 0,-1.82815 0.49512,-3.26781 1.48537,-4.31901 0.99025,-1.05625 2.34613,-1.58438 4.06764,-1.5844 0.68047,2e-5 1.32032,0.0914 1.91956,0.27423 0.60429,0.17775 1.17051,0.44689 1.69865,0.80743"
       id="path3962" />
    <path
       style="font-size:24px;font-style:normal;font-weight:normal;line-height:125%;letter-spacing:0px;word-spacing:0px;fill:#000000;fill-opacity:1;stroke:none;font-family:Sans"
       d="m 190.9375,49.15625 -5.0625,13.21875 1.90625,0 1.1875,-3.40625 5.96875,0 1.1875,3.40625 1.875,0 -5.03125,-13.21875 -2.03125,0 z m 1,1.75 2.4375,6.59375 -4.875,0 2.4375,-6.59375 z"
       id="path3894"
       inkscape:connector-curvature="0" />
    <path
       style="font-size:24px;font-style:normal;font-weight:normal;line-height:125%;letter-spacing:0px;word-spacing:0px;fill:#000000;fill-opacity:1;stroke:none;font-family:Sans"
       d="m 261.34375,50 0,13.21875 4.75,0 c 1.48199,0 2.6345,-0.293921 3.4375,-0.9375 0.80298,-0.643576 1.18749,-1.56912 1.1875,-2.75 -10e-6,-0.897462 -0.2287,-1.653652 -0.71875,-2.25 -0.48418,-0.602241 -1.18276,-0.998553 -2.0625,-1.1875 0.73213,-0.118081 1.27836,-0.396737 1.65625,-0.875 0.37787,-0.478247 0.59374,-1.12859 0.59375,-1.9375 -10e-6,-1.045065 -0.38696,-1.870667 -1.125,-2.4375 C 268.32445,50.276942 267.27015,50.000014 265.90625,50 l -4.5625,0 z m 1.78125,1.46875 2.65625,0 c 0.87384,1.1e-5 1.51238,0.169366 1.9375,0.5 0.43102,0.330656 0.65624,0.832816 0.65625,1.5 -10e-6,0.67311 -0.22523,1.169363 -0.65625,1.5 -0.42512,0.324749 -1.06366,0.500007 -1.9375,0.5 l -2.65625,0 0,-4 z m 0,5.4375 2.875,0 c 0.96241,6e-6 1.66445,0.198163 2.125,0.59375 0.46644,0.389695 0.71874,1.01714 0.71875,1.84375 -10e-6,0.820712 -0.25231,1.411005 -0.71875,1.8125 -0.46055,0.395596 -1.16259,0.593752 -2.125,0.59375 l -2.875,0 0,-4.84375 z"
       id="path3896"
       inkscape:connector-curvature="0" />
    <path
       style="font-size:24px;font-style:normal;font-weight:normal;line-height:125%;letter-spacing:0px;word-spacing:0px;fill:#000000;fill-opacity:1;stroke:none;font-family:Sans"
       d="m 24.9375,187.15625 -5.0625,13.21875 1.90625,0 1.1875,-3.40625 5.96875,0 1.1875,3.40625 1.875,0 -5.03125,-13.21875 -2.03125,0 z m 1,1.75 2.4375,6.59375 -4.875,0 2.4375,-6.59375 z"
       id="path3898"
       inkscape:connector-curvature="0" />
    <path
       style="font-size:24px;font-style:normal;font-weight:normal;line-height:125%;letter-spacing:0px;word-spacing:0px;fill:#000000;fill-opacity:1;stroke:none;font-family:Sans"
       d="m 95.34375,188 0,13.21875 4.75,0 c 1.48199,0 2.6345,-0.29393 3.4375,-0.9375 0.80298,-0.64358 1.18749,-1.56912 1.1875,-2.75 -1e-5,-0.89746 -0.2287,-1.65365 -0.71875,-2.25 -0.48418,-0.60224 -1.18276,-0.99856 -2.0625,-1.1875 0.73213,-0.11808 1.27836,-0.39673 1.65625,-0.875 0.37787,-0.47824 0.59374,-1.12859 0.59375,-1.9375 -1e-5,-1.04507 -0.38696,-1.87066 -1.125,-2.4375 -0.73805,-0.56681 -1.79234,-0.84374 -3.15625,-0.84375 l -4.5625,0 z m 1.78125,1.46875 2.65625,0 c 0.87384,1e-5 1.51238,0.16937 1.9375,0.5 0.43102,0.33066 0.65624,0.83282 0.65625,1.5 -1e-5,0.67311 -0.22523,1.16936 -0.65625,1.5 -0.42512,0.32475 -1.06366,0.50001 -1.9375,0.5 l -2.65625,0 0,-4 z m 0,5.4375 2.875,0 c 0.96241,1e-5 1.66445,0.19817 2.125,0.59375 0.46644,0.3897 0.71874,1.01714 0.71875,1.84375 -1e-5,0.82071 -0.25231,1.411 -0.71875,1.8125 -0.46055,0.3956 -1.16259,0.59375 -2.125,0.59375 l -2.875,0 0,-4.84375 z"
       id="path3900"
       inkscape:connector-curvature="0" />
    <path
       style="font-size:24px;font-style:normal;font-weight:normal;line-height:125%;letter-spacing:0px;word-spacing:0px;fill:#000000;fill-opacity:1;stroke:none;font-family:Sans"
       d="m 222.3125,186.71875 -5.0625,13.21875 1.90625,0 1.1875,-3.40625 5.96875,0 1.1875,3.40625 1.875,0 -5.03125,-13.21875 -2.03125,0 z m 1,1.75 2.4375,6.59375 -4.84375,0 2.40625,-6.59375 z"
       id="path3902"
       inkscape:connector-curvature="0" />
    <path
       style="font-size:20px;font-style:normal;font-weight:normal;line-height:125%;letter-spacing:0px;word-spacing:0px;fill:#000000;fill-opacity:1;stroke:none;font-family:Sans;-inkscape-font-specification:Sans"
       d="m 277.25324,190.9921 c 0,0.56 0.11333,1.04667 0.34,1.46 0.22666,0.4 0.61333,0.6 1.16,0.6 0.68,0 1.59333,-0.58 2.74,-1.74 1.14666,-1.16 2.20666,-2.47333 3.18,-3.94 0.98666,-1.46666 1.69332,-2.73332 2.12,-3.8 0.17332,-0.58666 0.41999,-1.29999 0.74,-2.14 0.0933,-0.18665 0.29332,-0.37332 0.6,-0.56 0.31999,-0.19999 0.59999,-0.29999 0.84,-0.3 0.11999,1e-5 0.17999,0.04 0.18,0.12 -10e-6,0.0533 -0.11335,0.36001 -0.34,0.92 -0.21335,0.56001 -0.56001,1.58668 -1.04,3.08 -0.46668,1.49334 -0.94668,3.21334 -1.44,5.16 -0.28001,1.09334 -0.42001,2.03334 -0.42,2.82 -10e-6,0.26667 0.13332,0.43333 0.4,0.5 0.30666,-0.18667 0.57332,-0.28 0.8,-0.28 0.10665,0 0.15999,0.04 0.16,0.12 -10e-6,0.22667 -0.28668,0.48667 -0.86,0.78 -0.57334,0.29333 -1.00001,0.44 -1.28,0.44 -0.57334,0 -0.86001,-0.23333 -0.86,-0.7 -10e-6,-0.53333 0.06,-1.14 0.18,-1.82 0.13332,-0.69333 0.25332,-1.23333 0.36,-1.62 0.10666,-0.4 0.30666,-1.11999 0.6,-2.16 -0.34668,0.49334 -0.70668,0.98001 -1.08,1.46 -0.37334,0.46667 -0.85334,1 -1.44,1.6 -0.57334,0.6 -1.14001,1.12 -1.7,1.56 -0.54667,0.42667 -1.15334,0.79333 -1.82,1.1 -0.66667,0.30667 -1.3,0.46 -1.9,0.46 -0.6,0 -1.06667,-0.20667 -1.4,-0.62 -0.32,-0.42667 -0.48,-0.98 -0.48,-1.66 0,-0.84 0.39333,-2.18666 1.18,-4.04 l 1.2,-2.76 c 0.52,-1.29332 0.78,-2.19999 0.78,-2.72 0,-0.45332 -0.18,-0.67999 -0.54,-0.68 -0.30667,1e-5 -0.66,0.11335 -1.06,0.34 -0.38667,0.21335 -0.66667,0.32001 -0.84,0.32 -0.13333,1e-5 -0.2,-0.04 -0.2,-0.12 0,-0.13332 0.15333,-0.31999 0.46,-0.56 0.32,-0.25332 0.75333,-0.48665 1.3,-0.7 0.56,-0.22665 1.10666,-0.33999 1.64,-0.34 0.62666,1e-5 0.93999,0.30001 0.94,0.9 -10e-6,0.52001 -0.26001,1.40001 -0.78,2.64 l -1.18,2.66 c -0.82667,1.96001 -1.24,3.36667 -1.24,4.22"
       id="path3965"
       inkscape:connector-curvature="0" />
    <path
       style="font-size:medium;font-style:normal;font-variant:normal;font-weight:normal;font-stretch:normal;text-indent:0;text-align:start;text-decoration:none;line-height:normal;letter-spacing:normal;word-spacing:normal;text-transform:none;direction:ltr;block-progression:tb;writing-mode:lr-tb;text-anchor:start;baseline-shift:baseline;color:#000000;fill:#000000;fill-opacity:1;stroke:none;stroke-width:1;marker:none;visibility:visible;display:inline;overflow:visible;enable-background:accumulate;font-family:Sans;-inkscape-font-specification:Sans"
       d="M 166.03125 173.40625 L 166.03125 173.90625 L 166.03125 255.96875 L 166.03125 256.46875 L 166.53125 256.46875 L 295.25 256.46875 L 295.75 256.46875 L 295.75 255.96875 L 295.75 173.90625 L 295.75 173.40625 L 295.25 173.40625 L 166.53125 173.40625 L 166.03125 173.40625 z M 167.03125 174.40625 L 294.75 174.40625 L 294.75 255.46875 L 167.03125 255.46875 L 167.03125 174.40625 z "
       id="path4120" />
  </g>
</svg>
