<?xml version="1.0" encoding="UTF-8" standalone="no"?>
<!-- Created with Inkscape (http://www.inkscape.org/) -->

<svg
   xmlns:dc="http://purl.org/dc/elements/1.1/"
   xmlns:cc="http://creativecommons.org/ns#"
   xmlns:rdf="http://www.w3.org/1999/02/22-rdf-syntax-ns#"
   xmlns:svg="http://www.w3.org/2000/svg"
   xmlns="http://www.w3.org/2000/svg"
   xmlns:sodipodi="http://sodipodi.sourceforge.net/DTD/sodipodi-0.dtd"
   xmlns:inkscape="http://www.inkscape.org/namespaces/inkscape"
   width="200"
   height="200"
   id="svg2"
   version="1.1"
   inkscape:version="0.48.0 r9654"
   sodipodi:docname="2011-(02)feb-28, 02.svg">
  <defs
     id="defs4" />
  <sodipodi:namedview
     id="base"
     pagecolor="#ffffff"
     bordercolor="#666666"
     borderopacity="1.0"
     inkscape:pageopacity="0.0"
     inkscape:pageshadow="2"
     inkscape:zoom="2"
     inkscape:cx="95.333688"
     inkscape:cy="113.89978"
     inkscape:document-units="px"
     inkscape:current-layer="layer1"
     showgrid="false"
     inkscape:window-width="1589"
     inkscape:window-height="1117"
     inkscape:window-x="1600"
     inkscape:window-y="27"
     inkscape:window-maximized="1"
     showguides="true"
     inkscape:guide-bbox="true" />
  <metadata
     id="metadata7">
    <rdf:RDF>
      <cc:Work
         rdf:about="">
        <dc:format>image/svg+xml</dc:format>
        <dc:type
           rdf:resource="http://purl.org/dc/dcmitype/StillImage" />
        <dc:title />
      </cc:Work>
    </rdf:RDF>
  </metadata>
  <g
     inkscape:label="Layer 1"
     inkscape:groupmode="layer"
     id="layer1">
    <path
       style="font-size:medium;font-style:normal;font-variant:normal;font-weight:normal;font-stretch:normal;text-indent:0;text-align:start;text-decoration:none;line-height:normal;letter-spacing:normal;word-spacing:normal;text-transform:none;direction:ltr;block-progression:tb;writing-mode:lr-tb;text-anchor:start;baseline-shift:baseline;color:#000000;fill:#000000;fill-opacity:1;stroke:none;stroke-width:1;marker:none;visibility:visible;display:inline;overflow:visible;enable-background:accumulate;font-family:Sans;-inkscape-font-specification:Sans"
       d="M 100.40625 4.34375 C 47.41525 4.34375 4.4375 47.290257 4.4375 100.28125 C 4.4375 153.27225 47.41525 196.25 100.40625 196.25 C 153.39725 196.25 196.34375 153.27225 196.34375 100.28125 C 196.34375 47.290257 153.39725 4.34375 100.40625 4.34375 z M 100.40625 5.34375 C 152.85681 5.34375 195.34375 47.830697 195.34375 100.28125 C 195.34375 152.73181 152.85681 195.25 100.40625 195.25 C 47.955689 195.25 5.4375 152.73181 5.4375 100.28125 C 5.4375 47.830697 47.955689 5.34375 100.40625 5.34375 z "
       id="path3879" />
    <path
       style="font-size:medium;font-style:normal;font-variant:normal;font-weight:normal;font-stretch:normal;text-indent:0;text-align:start;text-decoration:none;line-height:normal;letter-spacing:normal;word-spacing:normal;text-transform:none;direction:ltr;block-progression:tb;writing-mode:lr-tb;text-anchor:start;baseline-shift:baseline;color:#000000;fill:#000000;fill-opacity:1;stroke:none;stroke-width:1;marker:none;visibility:visible;display:inline;overflow:visible;enable-background:accumulate;font-family:Sans;-inkscape-font-specification:Sans"
       d="M 100.5 4.4375 L 100.21875 4.625 L 9.65625 70.4375 L 9.375 70.625 L 9.46875 70.96875 L 44.0625 177.4375 L 44.1875 177.78125 L 44.53125 177.78125 L 156.46875 177.78125 L 156.8125 177.78125 L 156.9375 177.4375 L 191.53125 70.96875 L 191.625 70.625 L 191.34375 70.4375 L 100.78125 4.625 L 100.5 4.4375 z M 100.5 5.65625 L 190.46875 71 L 156.125 176.78125 L 44.875 176.78125 L 10.53125 71 L 100.5 5.65625 z "
       id="path3883" />
    <path
       style="font-size:medium;font-style:normal;font-variant:normal;font-weight:normal;font-stretch:normal;text-indent:0;text-align:start;text-decoration:none;line-height:normal;letter-spacing:normal;word-spacing:normal;text-transform:none;direction:ltr;block-progression:tb;writing-mode:lr-tb;text-anchor:start;baseline-shift:baseline;color:#000000;fill:#000000;fill-opacity:1;stroke:none;stroke-width:1px;marker:none;visibility:visible;display:inline;overflow:visible;enable-background:accumulate;font-family:Sans;-inkscape-font-specification:Sans"
       d="M 99.9375 4.375 L 78.625 70.375 L 10.0625 70.375 L 9.78125 71.25 L 65.28125 111.625 L 44.09375 177.21875 L 44.875 177.78125 L 100.53125 137.28125 L 156.09375 177.6875 L 156.84375 177.125 L 135.65625 111.71875 L 191.25 71.25 L 190.96875 70.375 L 122.28125 70.375 L 100.90625 4.375 L 99.9375 4.375 z M 100.40625 6.15625 L 121.21875 70.375 L 79.6875 70.375 L 100.40625 6.15625 z M 11.625 71.375 L 78.28125 71.375 L 65.59375 110.625 L 11.625 71.375 z M 79.34375 71.375 L 121.53125 71.375 L 134.5 111.34375 L 100.53125 136.03125 L 66.46875 111.25 L 79.34375 71.375 z M 122.59375 71.375 L 189.40625 71.375 L 135.34375 110.71875 L 122.59375 71.375 z M 66.15625 112.25 L 99.6875 136.65625 L 45.53125 176.0625 L 66.15625 112.25 z M 134.8125 112.3125 L 155.4375 175.96875 L 101.375 136.65625 L 134.8125 112.3125 z "
       id="path3897" />
    <path
       style="color:#000000;fill:#000000;fill-opacity:1;stroke:none;stroke-width:1;marker:none;visibility:visible;display:inline;overflow:visible;enable-background:accumulate"
       d="m 13.059378,70.864623 c 0,1.647523 -1.335582,2.983106 -2.983106,2.983106 -1.6475244,0 -2.9831068,-1.335583 -2.9831068,-2.983106 0,-1.647524 1.3355824,-2.983107 2.9831068,-2.983107 1.647524,0 2.983106,1.335583 2.983106,2.983107 z"
       id="path3909" />
    <path
       style="color:#000000;fill:#000000;fill-opacity:1;stroke:none;stroke-width:1;marker:none;visibility:visible;display:inline;overflow:visible;enable-background:accumulate"
       d="m 47.92728,177.37258 c 0,1.64753 -1.335582,2.98311 -2.983106,2.98311 -1.647524,0 -2.983106,-1.33558 -2.983106,-2.98311 0,-1.64752 1.335582,-2.9831 2.983106,-2.9831 1.647524,0 2.983106,1.33558 2.983106,2.9831 z"
       id="path3909-3" />
    <path
       style="color:#000000;fill:#000000;fill-opacity:1;stroke:none;stroke-width:1;marker:none;visibility:visible;display:inline;overflow:visible;enable-background:accumulate"
       d="m 159.60726,176.87258 c 0,1.64753 -1.33558,2.98311 -2.9831,2.98311 -1.64753,0 -2.98311,-1.33558 -2.98311,-2.98311 0,-1.64752 1.33558,-2.9831 2.98311,-2.9831 1.64752,0 2.9831,1.33558 2.9831,2.9831 z"
       id="path3909-1" />
    <path
       style="color:#000000;fill:#000000;fill-opacity:1;stroke:none;stroke-width:1;marker:none;visibility:visible;display:inline;overflow:visible;enable-background:accumulate"
       d="m 193.90193,70.953013 c 0,1.647523 -1.33558,2.983106 -2.9831,2.983106 -1.64753,0 -2.98311,-1.335583 -2.98311,-2.983106 0,-1.647524 1.33558,-2.983107 2.98311,-2.983107 1.64752,0 2.9831,1.335583 2.9831,2.983107 z"
       id="path3909-7" />
    <path
       style="color:#000000;fill:#000000;fill-opacity:1;stroke:none;stroke-width:1;marker:none;visibility:visible;display:inline;overflow:visible;enable-background:accumulate"
       d="m 103.49582,5.1920816 c 0,1.6475239 -1.33558,2.9831061 -2.9831,2.9831061 -1.647528,0 -2.98311,-1.3355822 -2.98311,-2.9831061 0,-1.6475239 1.335582,-2.9831061 2.98311,-2.9831061 1.64752,0 2.9831,1.3355822 2.9831,2.9831061 z"
       id="path3909-5" />
    <path
       style="color:#000000;fill:#000000;fill-opacity:1;stroke:none;stroke-width:1;marker:none;visibility:visible;display:inline;overflow:visible;enable-background:accumulate"
       d="m 82.090677,70.82043 c 0,1.647523 -1.335582,2.983106 -2.983106,2.983106 -1.647524,0 -2.983106,-1.335583 -2.983106,-2.983106 0,-1.647524 1.335582,-2.983107 2.983106,-2.983107 1.647524,0 2.983106,1.335583 2.983106,2.983107 z"
       id="path3909-9" />
    <path
       style="color:#000000;fill:#000000;fill-opacity:1;stroke:none;stroke-width:1;marker:none;visibility:visible;display:inline;overflow:visible;enable-background:accumulate"
       d="m 125.09161,71.041401 c 0,1.647523 -1.33558,2.983106 -2.9831,2.983106 -1.64753,0 -2.98311,-1.335583 -2.98311,-2.983106 0,-1.647524 1.33558,-2.983107 2.98311,-2.983107 1.64752,0 2.9831,1.335583 2.9831,2.983107 z"
       id="path3909-6" />
    <path
       style="color:#000000;fill:#000000;fill-opacity:1;stroke:none;stroke-width:1;marker:none;visibility:visible;display:inline;overflow:visible;enable-background:accumulate"
       d="m 137.99631,111.74424 c 0,1.64752 -1.33558,2.9831 -2.9831,2.9831 -1.64753,0 -2.98311,-1.33558 -2.98311,-2.9831 0,-1.64753 1.33558,-2.98311 2.98311,-2.98311 1.64752,0 2.9831,1.33558 2.9831,2.98311 z"
       id="path3909-2" />
    <path
       style="color:#000000;fill:#000000;fill-opacity:1;stroke:none;stroke-width:1;marker:none;visibility:visible;display:inline;overflow:visible;enable-background:accumulate"
       d="m 103.39227,136.53717 c 0,1.64752 -1.33558,2.9831 -2.98311,2.9831 -1.647521,0 -2.983103,-1.33558 -2.983103,-2.9831 0,-1.64753 1.335582,-2.98311 2.983103,-2.98311 1.64753,0 2.98311,1.33558 2.98311,2.98311 z"
       id="path3909-17" />
    <path
       style="color:#000000;fill:#000000;fill-opacity:1;stroke:none;stroke-width:1;marker:none;visibility:visible;display:inline;overflow:visible;enable-background:accumulate"
       d="m 68.744036,111.2581 c 0,1.64752 -1.335582,2.9831 -2.983106,2.9831 -1.647524,0 -2.983106,-1.33558 -2.983106,-2.9831 0,-1.64753 1.335582,-2.98311 2.983106,-2.98311 1.647524,0 2.983106,1.33558 2.983106,2.98311 z"
       id="path3909-8" />
  </g>
</svg>
