<?xml version="1.0" encoding="UTF-8" standalone="no"?>
<!-- Created with Inkscape (http://www.inkscape.org/) -->

<svg
   xmlns:dc="http://purl.org/dc/elements/1.1/"
   xmlns:cc="http://creativecommons.org/ns#"
   xmlns:rdf="http://www.w3.org/1999/02/22-rdf-syntax-ns#"
   xmlns:svg="http://www.w3.org/2000/svg"
   xmlns="http://www.w3.org/2000/svg"
   xmlns:sodipodi="http://sodipodi.sourceforge.net/DTD/sodipodi-0.dtd"
   xmlns:inkscape="http://www.inkscape.org/namespaces/inkscape"
   width="400"
   height="250"
   id="svg2"
   version="1.1"
   inkscape:version="0.48.0 r9654"
   sodipodi:docname="2011-(02)feb-23, 04.svg">
  <defs
     id="defs4">
    <inkscape:path-effect
       is_visible="true"
       id="path-effect3950"
       effect="spiro" />
    <inkscape:path-effect
       effect="spiro"
       id="path-effect3942"
       is_visible="true" />
  </defs>
  <sodipodi:namedview
     id="base"
     pagecolor="#ffffff"
     bordercolor="#666666"
     borderopacity="1.0"
     inkscape:pageopacity="0.0"
     inkscape:pageshadow="2"
     inkscape:zoom="1"
     inkscape:cx="166.61685"
     inkscape:cy="82.297987"
     inkscape:document-units="px"
     inkscape:current-layer="layer1"
     showgrid="false"
     inkscape:window-width="1589"
     inkscape:window-height="1117"
     inkscape:window-x="1600"
     inkscape:window-y="27"
     inkscape:window-maximized="1"
     showguides="true"
     inkscape:guide-bbox="true" />
  <metadata
     id="metadata7">
    <rdf:RDF>
      <cc:Work
         rdf:about="">
        <dc:format>image/svg+xml</dc:format>
        <dc:type
           rdf:resource="http://purl.org/dc/dcmitype/StillImage" />
        <dc:title />
      </cc:Work>
    </rdf:RDF>
  </metadata>
  <g
     inkscape:label="Layer 1"
     inkscape:groupmode="layer"
     id="layer1">
    <path
       style="font-size:40px;font-style:normal;font-weight:normal;line-height:125%;letter-spacing:0px;word-spacing:0px;fill:#000000;fill-opacity:1;stroke:none;font-family:Sans"
       d="m 67.519531,5.70981 4.238281,0 7.246094,10.839844 7.285156,-10.839844 4.238282,0 -9.375,14.003906 10,15.15625 -4.238282,0 -8.203125,-12.402343 -8.261718,12.402343 -4.257813,0 L 76.601562,19.30356 67.519531,5.70981"
       id="path3110"
       inkscape:connector-curvature="0" />
    <path
       style="font-size:40px;font-style:normal;font-weight:normal;line-height:125%;letter-spacing:0px;word-spacing:0px;fill:#000000;fill-opacity:1;stroke:none;font-family:Sans"
       d="m 306.07812,4.70981 4.23829,0 8.08593,11.992188 8.02735,-11.992188 4.23828,0 -10.3125,15.273438 0,13.886718 -3.96485,0 0,-13.886718 -10.3125,-15.273438"
       id="path3112"
       inkscape:connector-curvature="0" />
    <path
       style="font-size:medium;font-style:normal;font-variant:normal;font-weight:normal;font-stretch:normal;text-indent:0;text-align:start;text-decoration:none;line-height:normal;letter-spacing:normal;word-spacing:normal;text-transform:none;direction:ltr;block-progression:tb;writing-mode:lr-tb;text-anchor:start;baseline-shift:baseline;color:#000000;fill:#000000;fill-opacity:1;stroke:none;stroke-width:1;marker:none;visibility:visible;display:inline;overflow:visible;enable-background:accumulate;font-family:Sans;-inkscape-font-specification:Sans"
       d="M 79 44.5 C 57.836292 44.5 38.702764 55.740296 24.875 73.84375 C 11.047236 91.947204 2.5 116.92063 2.5 144.5 C 2.5 172.07936 11.047236 197.0528 24.875 215.15625 C 38.702764 233.2597 57.836292 244.5 79 244.5 C 100.16371 244.5 119.29724 233.2597 133.125 215.15625 C 146.95276 197.0528 155.5 172.07936 155.5 144.5 C 155.5 116.92063 146.95276 91.947204 133.125 73.84375 C 119.29724 55.740296 100.16371 44.5 79 44.5 z M 79 45.5 C 99.80993 45.5 118.66492 56.529037 132.34375 74.4375 C 146.02258 92.345963 154.5 117.12703 154.5 144.5 C 154.5 171.87297 146.02258 196.65404 132.34375 214.5625 C 118.66492 232.47096 99.80993 243.5 79 243.5 C 58.190067 243.5 39.335076 232.47096 25.65625 214.5625 C 11.977424 196.65404 3.5 171.87297 3.5 144.5 C 3.5 117.12703 11.977424 92.345963 25.65625 74.4375 C 39.335076 56.529037 58.190067 45.5 79 45.5 z "
       id="path3897" />
    <path
       id="path3900"
       d="M 79 44.5 C 57.836292 44.5 38.702764 55.740296 24.875 73.84375 C 11.047236 91.947204 2.5 116.92063 2.5 144.5 C 2.5 172.07936 11.047236 197.0528 24.875 215.15625 C 38.702764 233.2597 57.836292 244.5 79 244.5 C 100.16371 244.5 119.29724 233.2597 133.125 215.15625 C 146.95276 197.0528 155.5 172.07936 155.5 144.5 C 155.5 116.92063 146.95276 91.947204 133.125 73.84375 C 119.29724 55.740296 100.16371 44.5 79 44.5 z M 79 45.5 C 99.80993 45.5 118.66492 56.529037 132.34375 74.4375 C 146.02258 92.345963 154.5 117.12703 154.5 144.5 C 154.5 171.87297 146.02258 196.65404 132.34375 214.5625 C 118.66492 232.47096 99.80993 243.5 79 243.5 C 58.190067 243.5 39.335076 232.47096 25.65625 214.5625 C 11.977424 196.65404 3.5 171.87297 3.5 144.5 C 3.5 117.12703 11.977424 92.345963 25.65625 74.4375 C 39.335076 56.529037 58.190067 45.5 79 45.5 z "
       style="font-size:medium;font-style:normal;font-variant:normal;font-weight:normal;font-stretch:normal;text-indent:0;text-align:start;text-decoration:none;line-height:normal;letter-spacing:normal;word-spacing:normal;text-transform:none;direction:ltr;block-progression:tb;writing-mode:lr-tb;text-anchor:start;baseline-shift:baseline;color:#000000;fill:#000000;fill-opacity:1;stroke:none;stroke-width:1;marker:none;visibility:visible;display:inline;overflow:visible;enable-background:accumulate;font-family:Sans;-inkscape-font-specification:Sans" />
    <path
       style="font-size:medium;font-style:normal;font-variant:normal;font-weight:normal;font-stretch:normal;text-indent:0;text-align:start;text-decoration:none;line-height:normal;letter-spacing:normal;word-spacing:normal;text-transform:none;direction:ltr;block-progression:tb;writing-mode:lr-tb;text-anchor:start;baseline-shift:baseline;color:#000000;fill:#000000;fill-opacity:1;stroke:none;stroke-width:1;marker:none;visibility:visible;display:inline;overflow:visible;enable-background:accumulate;font-family:Sans;-inkscape-font-specification:Sans"
       d="m 319,44.5 c -21.16371,0 -40.29724,11.240296 -54.125,29.34375 C 251.04724,91.947204 242.5,116.92063 242.5,144.5 c 0,27.57936 8.54724,52.5528 22.375,70.65625 C 278.70276,233.2597 297.83629,244.5 319,244.5 c 21.16371,0 40.29724,-11.2403 54.125,-29.34375 C 386.95276,197.0528 395.5,172.07936 395.5,144.5 395.5,116.92063 386.95276,91.947204 373.125,73.84375 359.29724,55.740296 340.16371,44.5 319,44.5 z m 0,1 c 20.80993,0 39.66492,11.029037 53.34375,28.9375 C 386.02258,92.345963 394.5,117.12703 394.5,144.5 c 0,27.37297 -8.47742,52.15404 -22.15625,70.0625 C 358.66492,232.47096 339.80993,243.5 319,243.5 298.19007,243.5 279.33508,232.47096 265.65625,214.5625 251.97742,196.65404 243.5,171.87297 243.5,144.5 c 0,-27.37297 8.47742,-52.154037 22.15625,-70.0625 C 279.33508,56.529037 298.19007,45.5 319,45.5 z"
       id="path3902"
       inkscape:connector-curvature="0" />
    <path
       style="font-size:medium;font-style:normal;font-variant:normal;font-weight:normal;font-stretch:normal;text-indent:0;text-align:start;text-decoration:none;line-height:normal;letter-spacing:normal;word-spacing:normal;text-transform:none;direction:ltr;block-progression:tb;writing-mode:lr-tb;text-anchor:start;baseline-shift:baseline;color:#000000;fill:#000000;fill-opacity:1;stroke:none;stroke-width:1;marker:none;visibility:visible;display:inline;overflow:visible;enable-background:accumulate;font-family:Sans;-inkscape-font-specification:Sans"
       d="m 302.43503,84.792893 c -3.03164,0 -5.5,2.468356 -5.5,5.5 0,3.031644 2.46836,5.5 5.5,5.5 3.03164,0 5.5,-2.468356 5.5,-5.5 0,-3.031644 -2.46836,-5.5 -5.5,-5.5 z"
       id="path3913"
       inkscape:connector-curvature="0" />
    <path
       style="font-size:medium;font-style:normal;font-variant:normal;font-weight:normal;font-stretch:normal;text-indent:0;text-align:start;text-decoration:none;line-height:normal;letter-spacing:normal;word-spacing:normal;text-transform:none;direction:ltr;block-progression:tb;writing-mode:lr-tb;text-anchor:start;baseline-shift:baseline;color:#000000;fill:#000000;fill-opacity:1;stroke:none;stroke-width:1;marker:none;visibility:visible;display:inline;overflow:visible;enable-background:accumulate;font-family:Sans;-inkscape-font-specification:Sans"
       d="m 356.38182,149.04059 c -3.03164,0 -5.5,2.46835 -5.5,5.5 0,3.03164 2.46836,5.5 5.5,5.5 3.03164,0 5.5,-2.46836 5.5,-5.5 0,-3.03165 -2.46836,-5.5 -5.5,-5.5 z"
       id="path3913-7"
       inkscape:connector-curvature="0" />
    <path
       style="font-size:medium;font-style:normal;font-variant:normal;font-weight:normal;font-stretch:normal;text-indent:0;text-align:start;text-decoration:none;line-height:normal;letter-spacing:normal;word-spacing:normal;text-transform:none;direction:ltr;block-progression:tb;writing-mode:lr-tb;text-anchor:start;baseline-shift:baseline;color:#000000;fill:#000000;fill-opacity:1;stroke:none;stroke-width:1;marker:none;visibility:visible;display:inline;overflow:visible;enable-background:accumulate;font-family:Sans;-inkscape-font-specification:Sans"
       d="m 302.6417,204.19491 c -3.03164,0 -5.5,2.46836 -5.5,5.5 0,3.03165 2.46836,5.5 5.5,5.5 3.03164,0 5.5,-2.46835 5.5,-5.5 0,-3.03164 -2.46836,-5.5 -5.5,-5.5 z"
       id="path3913-76"
       inkscape:connector-curvature="0" />
    <path
       style="fill:none;stroke:#000000;stroke-width:1px;stroke-linecap:butt;stroke-linejoin:miter;stroke-opacity:1"
       d="m 9.4901833,104.67915 139.0022367,0"
       id="path3940"
       inkscape:path-effect="#path-effect3942"
       inkscape:original-d="m 9.4901833,104.67915 139.0022367,0"
       inkscape:connector-curvature="0"
       sodipodi:nodetypes="cc" />
    <path
       sodipodi:nodetypes="cc"
       inkscape:connector-curvature="0"
       inkscape:original-d="m 9.4901833,184.67915 139.0022367,0"
       inkscape:path-effect="#path-effect3950"
       id="path3948"
       d="m 9.4901833,184.67915 139.0022367,0"
       style="fill:none;stroke:#000000;stroke-width:1px;stroke-linecap:butt;stroke-linejoin:miter;stroke-opacity:1" />
    <path
       style="font-size:medium;font-style:normal;font-variant:normal;font-weight:normal;font-stretch:normal;text-indent:0;text-align:start;text-decoration:none;line-height:normal;letter-spacing:normal;word-spacing:normal;text-transform:none;direction:ltr;block-progression:tb;writing-mode:lr-tb;text-anchor:start;baseline-shift:baseline;color:#000000;fill:#000000;fill-opacity:1;stroke:none;stroke-width:1;marker:none;visibility:visible;display:inline;overflow:visible;enable-background:accumulate;font-family:Sans;-inkscape-font-specification:Sans"
       d="M 79 54.5 C 65.404226 54.5 53.081668 57.141955 44.125 61.4375 C 35.168332 65.733045 29.5 71.728935 29.5 78.5 C 29.5 85.271065 35.168332 91.266955 44.125 95.5625 C 53.081668 99.858045 65.404226 102.5 79 102.5 C 92.595773 102.5 104.91833 99.858045 113.875 95.5625 C 122.83167 91.266955 128.5 85.271065 128.5 78.5 C 128.5 71.728935 122.83167 65.733045 113.875 61.4375 C 104.91833 57.141955 92.595773 54.5 79 54.5 z M 79 55.5 C 92.466177 55.5 104.65966 58.133968 113.4375 62.34375 C 122.21534 66.553532 127.5 72.292373 127.5 78.5 C 127.5 84.707627 122.21534 90.446468 113.4375 94.65625 C 104.65966 98.866032 92.466177 101.5 79 101.5 C 65.533821 101.5 53.340343 98.866032 44.5625 94.65625 C 35.784657 90.446468 30.5 84.707627 30.5 78.5 C 30.5 72.292373 35.784657 66.553532 44.5625 62.34375 C 53.340343 58.133968 65.533821 55.5 79 55.5 z "
       id="path4114" />
    <path
       style="font-size:medium;font-style:normal;font-variant:normal;font-weight:normal;font-stretch:normal;text-indent:0;text-align:start;text-decoration:none;line-height:normal;letter-spacing:normal;word-spacing:normal;text-transform:none;direction:ltr;block-progression:tb;writing-mode:lr-tb;text-anchor:start;baseline-shift:baseline;color:#000000;fill:#000000;fill-opacity:1;stroke:none;stroke-width:1;marker:none;visibility:visible;display:inline;overflow:visible;enable-background:accumulate;font-family:Sans;-inkscape-font-specification:Sans"
       d="M 80 188 C 66.404226 188 54.081668 190.64195 45.125 194.9375 C 36.168332 199.23304 30.5 205.22893 30.5 212 C 30.5 218.77106 36.168332 224.76695 45.125 229.0625 C 54.081668 233.35804 66.404226 236 80 236 C 93.595773 236 105.91833 233.35804 114.875 229.0625 C 123.83167 224.76695 129.5 218.77106 129.5 212 C 129.5 205.22893 123.83167 199.23304 114.875 194.9375 C 105.91833 190.64195 93.595773 188 80 188 z M 80 189 C 93.466177 189 105.65966 191.63397 114.4375 195.84375 C 123.21534 200.05353 128.5 205.79237 128.5 212 C 128.5 218.20763 123.21534 223.94647 114.4375 228.15625 C 105.65966 232.36603 93.466177 235 80 235 C 66.533821 235 54.340343 232.36603 45.5625 228.15625 C 36.784657 223.94647 31.5 218.20763 31.5 212 C 31.5 205.79237 36.784657 200.05353 45.5625 195.84375 C 54.340343 191.63397 66.533821 189 80 189 z "
       id="path4106" />
    <path
       style="font-size:medium;font-style:normal;font-variant:normal;font-weight:normal;font-stretch:normal;text-indent:0;text-align:start;text-decoration:none;line-height:normal;letter-spacing:normal;word-spacing:normal;text-transform:none;direction:ltr;block-progression:tb;writing-mode:lr-tb;text-anchor:start;baseline-shift:baseline;color:#000000;fill:#000000;fill-opacity:1;stroke:none;stroke-width:1;marker:none;visibility:visible;display:inline;overflow:visible;enable-background:accumulate;font-family:Sans;-inkscape-font-specification:Sans"
       d="M 77 109.5 C 57.603444 109.5 40.039217 113.36839 27.28125 119.65625 C 14.523283 125.94411 6.5 134.69895 6.5 144.5 C 6.5 154.30105 14.523283 163.05589 27.28125 169.34375 C 40.039217 175.63161 57.603444 179.5 77 179.5 C 96.39655 179.5 113.96078 175.63161 126.71875 169.34375 C 139.47672 163.05589 147.5 154.30105 147.5 144.5 C 147.5 134.69895 139.47672 125.94411 126.71875 119.65625 C 113.96078 113.36839 96.39655 109.5 77 109.5 z M 77 110.5 C 96.26338 110.5 113.7042 114.36381 126.28125 120.5625 C 138.8583 126.76119 146.5 135.24723 146.5 144.5 C 146.5 153.75277 138.8583 162.23881 126.28125 168.4375 C 113.7042 174.63619 96.26338 178.5 77 178.5 C 57.736624 178.5 40.2958 174.63619 27.71875 168.4375 C 15.1417 162.23881 7.5 153.75277 7.5 144.5 C 7.5 135.24723 15.1417 126.76119 27.71875 120.5625 C 40.2958 114.36381 57.736624 110.5 77 110.5 z "
       id="path4110" />
    <path
       style="font-size:medium;font-style:normal;font-variant:normal;font-weight:normal;font-stretch:normal;text-indent:0;text-align:start;text-decoration:none;line-height:normal;letter-spacing:normal;word-spacing:normal;text-transform:none;direction:ltr;block-progression:tb;writing-mode:lr-tb;text-anchor:start;baseline-shift:baseline;color:#000000;fill:#000000;fill-opacity:1;stroke:none;stroke-width:1;marker:none;visibility:visible;display:inline;overflow:visible;enable-background:accumulate;font-family:Sans;-inkscape-font-specification:Sans"
       d="m 40,69.5 c -3.03164,0 -5.5,2.468356 -5.5,5.5 0,3.031644 2.46836,5.5 5.5,5.5 3.03164,0 5.5,-2.468356 5.5,-5.5 0,-3.031644 -2.46836,-5.5 -5.5,-5.5 z"
       id="path3913-8"
       inkscape:connector-curvature="0" />
    <path
       style="font-size:medium;font-style:normal;font-variant:normal;font-weight:normal;font-stretch:normal;text-indent:0;text-align:start;text-decoration:none;line-height:normal;letter-spacing:normal;word-spacing:normal;text-transform:none;direction:ltr;block-progression:tb;writing-mode:lr-tb;text-anchor:start;baseline-shift:baseline;color:#000000;fill:#000000;fill-opacity:1;stroke:none;stroke-width:1;marker:none;visibility:visible;display:inline;overflow:visible;enable-background:accumulate;font-family:Sans;-inkscape-font-specification:Sans"
       d="m 75,62.5 c -3.03164,0 -5.5,2.468356 -5.5,5.5 0,3.031644 2.46836,5.5 5.5,5.5 3.03164,0 5.5,-2.468356 5.5,-5.5 0,-3.031644 -2.46836,-5.5 -5.5,-5.5 z"
       id="path3913-5"
       inkscape:connector-curvature="0" />
    <path
       style="font-size:medium;font-style:normal;font-variant:normal;font-weight:normal;font-stretch:normal;text-indent:0;text-align:start;text-decoration:none;line-height:normal;letter-spacing:normal;word-spacing:normal;text-transform:none;direction:ltr;block-progression:tb;writing-mode:lr-tb;text-anchor:start;baseline-shift:baseline;color:#000000;fill:#000000;fill-opacity:1;stroke:none;stroke-width:1;marker:none;visibility:visible;display:inline;overflow:visible;enable-background:accumulate;font-family:Sans;-inkscape-font-specification:Sans"
       d="m 71,86.5 c -3.03164,0 -5.5,2.468356 -5.5,5.5 0,3.031644 2.46836,5.5 5.5,5.5 3.03164,0 5.5,-2.468356 5.5,-5.5 0,-3.031644 -2.46836,-5.5 -5.5,-5.5 z"
       id="path3913-0"
       inkscape:connector-curvature="0" />
    <path
       style="font-size:medium;font-style:normal;font-variant:normal;font-weight:normal;font-stretch:normal;text-indent:0;text-align:start;text-decoration:none;line-height:normal;letter-spacing:normal;word-spacing:normal;text-transform:none;direction:ltr;block-progression:tb;writing-mode:lr-tb;text-anchor:start;baseline-shift:baseline;color:#000000;fill:#000000;fill-opacity:1;stroke:none;stroke-width:1;marker:none;visibility:visible;display:inline;overflow:visible;enable-background:accumulate;font-family:Sans;-inkscape-font-specification:Sans"
       d="m 112,71.5 c -3.03164,0 -5.5,2.468356 -5.5,5.5 0,3.031644 2.46836,5.5 5.5,5.5 3.03164,0 5.5,-2.468356 5.5,-5.5 0,-3.031644 -2.46836,-5.5 -5.5,-5.5 z"
       id="path3913-9"
       inkscape:connector-curvature="0" />
    <path
       style="font-size:medium;font-style:normal;font-variant:normal;font-weight:normal;font-stretch:normal;text-indent:0;text-align:start;text-decoration:none;line-height:normal;letter-spacing:normal;word-spacing:normal;text-transform:none;direction:ltr;block-progression:tb;writing-mode:lr-tb;text-anchor:start;baseline-shift:baseline;color:#000000;fill:#000000;fill-opacity:1;stroke:none;stroke-width:1;marker:none;visibility:visible;display:inline;overflow:visible;enable-background:accumulate;font-family:Sans;-inkscape-font-specification:Sans"
       d="m 53,201.5 c -3.03164,0 -5.5,2.46836 -5.5,5.5 0,3.03164 2.46836,5.5 5.5,5.5 3.03164,0 5.5,-2.46836 5.5,-5.5 0,-3.03164 -2.46836,-5.5 -5.5,-5.5 z"
       id="path3913-6"
       inkscape:connector-curvature="0" />
    <path
       style="font-size:medium;font-style:normal;font-variant:normal;font-weight:normal;font-stretch:normal;text-indent:0;text-align:start;text-decoration:none;line-height:normal;letter-spacing:normal;word-spacing:normal;text-transform:none;direction:ltr;block-progression:tb;writing-mode:lr-tb;text-anchor:start;baseline-shift:baseline;color:#000000;fill:#000000;fill-opacity:1;stroke:none;stroke-width:1;marker:none;visibility:visible;display:inline;overflow:visible;enable-background:accumulate;font-family:Sans;-inkscape-font-specification:Sans"
       d="m 65,217.5 c -3.03164,0 -5.5,2.46836 -5.5,5.5 0,3.03164 2.46836,5.5 5.5,5.5 3.03164,0 5.5,-2.46836 5.5,-5.5 0,-3.03164 -2.46836,-5.5 -5.5,-5.5 z"
       id="path3913-3"
       inkscape:connector-curvature="0" />
    <path
       style="font-size:medium;font-style:normal;font-variant:normal;font-weight:normal;font-stretch:normal;text-indent:0;text-align:start;text-decoration:none;line-height:normal;letter-spacing:normal;word-spacing:normal;text-transform:none;direction:ltr;block-progression:tb;writing-mode:lr-tb;text-anchor:start;baseline-shift:baseline;color:#000000;fill:#000000;fill-opacity:1;stroke:none;stroke-width:1;marker:none;visibility:visible;display:inline;overflow:visible;enable-background:accumulate;font-family:Sans;-inkscape-font-specification:Sans"
       d="m 105,214.5 c -3.03164,0 -5.5,2.46836 -5.5,5.5 0,3.03164 2.46836,5.5 5.5,5.5 3.03164,0 5.5,-2.46836 5.5,-5.5 0,-3.03164 -2.46836,-5.5 -5.5,-5.5 z"
       id="path3913-85"
       inkscape:connector-curvature="0" />
    <path
       style="font-size:medium;font-style:normal;font-variant:normal;font-weight:normal;font-stretch:normal;text-indent:0;text-align:start;text-decoration:none;line-height:normal;letter-spacing:normal;word-spacing:normal;text-transform:none;direction:ltr;block-progression:tb;writing-mode:lr-tb;text-anchor:start;baseline-shift:baseline;color:#000000;fill:#000000;fill-opacity:1;stroke:none;stroke-width:1;marker:none;visibility:visible;display:inline;overflow:visible;enable-background:accumulate;font-family:Sans;-inkscape-font-specification:Sans"
       d="m 85,199.5 c -3.03164,0 -5.5,2.46836 -5.5,5.5 0,3.03164 2.46836,5.5 5.5,5.5 3.03164,0 5.5,-2.46836 5.5,-5.5 0,-3.03164 -2.46836,-5.5 -5.5,-5.5 z"
       id="path3913-61"
       inkscape:connector-curvature="0" />
    <path
       style="font-size:medium;font-style:normal;font-variant:normal;font-weight:normal;font-stretch:normal;text-indent:0;text-align:start;text-decoration:none;line-height:normal;letter-spacing:normal;word-spacing:normal;text-transform:none;direction:ltr;block-progression:tb;writing-mode:lr-tb;text-anchor:start;baseline-shift:baseline;color:#000000;fill:#000000;fill-opacity:1;stroke:none;stroke-width:1;marker:none;visibility:visible;display:inline;overflow:visible;enable-background:accumulate;font-family:Sans;-inkscape-font-specification:Sans"
       d="m 34,132.5 c -3.03164,0 -5.5,2.46836 -5.5,5.5 0,3.03164 2.46836,5.5 5.5,5.5 3.03164,0 5.5,-2.46836 5.5,-5.5 0,-3.03164 -2.46836,-5.5 -5.5,-5.5 z"
       id="path3913-1"
       inkscape:connector-curvature="0" />
    <path
       style="font-size:medium;font-style:normal;font-variant:normal;font-weight:normal;font-stretch:normal;text-indent:0;text-align:start;text-decoration:none;line-height:normal;letter-spacing:normal;word-spacing:normal;text-transform:none;direction:ltr;block-progression:tb;writing-mode:lr-tb;text-anchor:start;baseline-shift:baseline;color:#000000;fill:#000000;fill-opacity:1;stroke:none;stroke-width:1;marker:none;visibility:visible;display:inline;overflow:visible;enable-background:accumulate;font-family:Sans;-inkscape-font-specification:Sans"
       d="m 55,156.5 c -3.03164,0 -5.5,2.46836 -5.5,5.5 0,3.03164 2.46836,5.5 5.5,5.5 3.03164,0 5.5,-2.46836 5.5,-5.5 0,-3.03164 -2.46836,-5.5 -5.5,-5.5 z"
       id="path3913-59"
       inkscape:connector-curvature="0" />
    <path
       style="font-size:medium;font-style:normal;font-variant:normal;font-weight:normal;font-stretch:normal;text-indent:0;text-align:start;text-decoration:none;line-height:normal;letter-spacing:normal;word-spacing:normal;text-transform:none;direction:ltr;block-progression:tb;writing-mode:lr-tb;text-anchor:start;baseline-shift:baseline;color:#000000;fill:#000000;fill-opacity:1;stroke:none;stroke-width:1;marker:none;visibility:visible;display:inline;overflow:visible;enable-background:accumulate;font-family:Sans;-inkscape-font-specification:Sans"
       d="m 63,123.5 c -3.03164,0 -5.5,2.46836 -5.5,5.5 0,3.03164 2.46836,5.5 5.5,5.5 3.03164,0 5.5,-2.46836 5.5,-5.5 0,-3.03164 -2.46836,-5.5 -5.5,-5.5 z"
       id="path3913-84"
       inkscape:connector-curvature="0" />
    <path
       style="font-size:medium;font-style:normal;font-variant:normal;font-weight:normal;font-stretch:normal;text-indent:0;text-align:start;text-decoration:none;line-height:normal;letter-spacing:normal;word-spacing:normal;text-transform:none;direction:ltr;block-progression:tb;writing-mode:lr-tb;text-anchor:start;baseline-shift:baseline;color:#000000;fill:#000000;fill-opacity:1;stroke:none;stroke-width:1;marker:none;visibility:visible;display:inline;overflow:visible;enable-background:accumulate;font-family:Sans;-inkscape-font-specification:Sans"
       d="m 94,121.5 c -3.03164,0 -5.5,2.46836 -5.5,5.5 0,3.03164 2.46836,5.5 5.5,5.5 3.03164,0 5.5,-2.46836 5.5,-5.5 0,-3.03164 -2.46836,-5.5 -5.5,-5.5 z"
       id="path3913-81"
       inkscape:connector-curvature="0" />
    <path
       style="font-size:medium;font-style:normal;font-variant:normal;font-weight:normal;font-stretch:normal;text-indent:0;text-align:start;text-decoration:none;line-height:normal;letter-spacing:normal;word-spacing:normal;text-transform:none;direction:ltr;block-progression:tb;writing-mode:lr-tb;text-anchor:start;baseline-shift:baseline;color:#000000;fill:#000000;fill-opacity:1;stroke:none;stroke-width:1;marker:none;visibility:visible;display:inline;overflow:visible;enable-background:accumulate;font-family:Sans;-inkscape-font-specification:Sans"
       d="m 89,152.5 c -3.03164,0 -5.5,2.46836 -5.5,5.5 0,3.03164 2.46836,5.5 5.5,5.5 3.03164,0 5.5,-2.46836 5.5,-5.5 0,-3.03164 -2.46836,-5.5 -5.5,-5.5 z"
       id="path3913-03"
       inkscape:connector-curvature="0" />
    <path
       style="font-size:medium;font-style:normal;font-variant:normal;font-weight:normal;font-stretch:normal;text-indent:0;text-align:start;text-decoration:none;line-height:normal;letter-spacing:normal;word-spacing:normal;text-transform:none;direction:ltr;block-progression:tb;writing-mode:lr-tb;text-anchor:start;baseline-shift:baseline;color:#000000;fill:#000000;fill-opacity:1;stroke:none;stroke-width:1;marker:none;visibility:visible;display:inline;overflow:visible;enable-background:accumulate;font-family:Sans;-inkscape-font-specification:Sans"
       d="m 114,138.5 c -3.03164,0 -5.5,2.46836 -5.5,5.5 0,3.03164 2.46836,5.5 5.5,5.5 3.03164,0 5.5,-2.46836 5.5,-5.5 0,-3.03164 -2.46836,-5.5 -5.5,-5.5 z"
       id="path3913-04"
       inkscape:connector-curvature="0" />
    <path
       inkscape:connector-curvature="0"
       id="path4083"
       d="m 184.1875,54.125 c -19.88796,0.380668 -40.57903,4.398402 -60.40625,14.4375 l 0.4375,0.875 c 78.69112,-39.843606 171.53125,16 171.53125,16 l 0.5,-0.875 c 0,0 -52.39862,-31.579504 -112.0625,-30.4375 z"
       style="font-size:medium;font-style:normal;font-variant:normal;font-weight:normal;font-stretch:normal;text-indent:0;text-align:start;text-decoration:none;line-height:normal;letter-spacing:normal;word-spacing:normal;text-transform:none;direction:ltr;block-progression:tb;writing-mode:lr-tb;text-anchor:start;baseline-shift:baseline;color:#000000;fill:#000000;fill-opacity:1;stroke:none;stroke-width:1px;marker:none;visibility:visible;display:inline;overflow:visible;enable-background:accumulate;font-family:Sans;-inkscape-font-specification:Sans" />
    <path
       inkscape:connector-curvature="0"
       id="path4581"
       style="font-size:12px;fill-rule:evenodd;stroke-width:0.625;stroke-linejoin:round"
       d="m 289.1306,75.684158 8.01617,9.98581 -12.57576,-2.413635 c 2.99085,-1.244848 4.82292,-4.30884 4.55959,-7.572175 z" />
    <path
       inkscape:connector-curvature="0"
       id="path4085"
       d="m 214.59375,114.0625 c -25.31386,-0.75021 -52.43877,1.94965 -79.75,10.46875 l 0.3125,0.9375 C 243.91131,91.545153 349.75,150.4375 349.75,150.4375 l 0.5,-0.875 c 0,0 -59.71466,-33.24937 -135.65625,-35.5 z"
       style="font-size:medium;font-style:normal;font-variant:normal;font-weight:normal;font-stretch:normal;text-indent:0;text-align:start;text-decoration:none;line-height:normal;letter-spacing:normal;word-spacing:normal;text-transform:none;direction:ltr;block-progression:tb;writing-mode:lr-tb;text-anchor:start;baseline-shift:baseline;color:#000000;fill:#000000;fill-opacity:1;stroke:none;stroke-width:1px;marker:none;visibility:visible;display:inline;overflow:visible;enable-background:accumulate;font-family:Sans;-inkscape-font-specification:Sans" />
    <path
       inkscape:connector-curvature="0"
       id="path4589"
       style="font-size:12px;fill-rule:evenodd;stroke-width:0.625;stroke-linejoin:round"
       d="m 342.81698,140.92378 8.35197,9.7067 -12.65074,-1.98348 c 2.94667,-1.34609 4.67321,-4.47076 4.29877,-7.72322 z" />
    <path
       inkscape:connector-curvature="0"
       id="path4087"
       d="m 206.46875,183.9375 c -25.34657,-0.60254 -55.19604,2.51445 -88.375,12.84375 l 0.3125,0.9375 C 224.23357,164.77251 295.75,205.4375 295.75,205.4375 l 0.5,-0.875 c 0,0 -34.0188,-19.29942 -89.78125,-20.625 z"
       style="font-size:medium;font-style:normal;font-variant:normal;font-weight:normal;font-stretch:normal;text-indent:0;text-align:start;text-decoration:none;line-height:normal;letter-spacing:normal;word-spacing:normal;text-transform:none;direction:ltr;block-progression:tb;writing-mode:lr-tb;text-anchor:start;baseline-shift:baseline;color:#000000;fill:#000000;fill-opacity:1;stroke:none;stroke-width:1px;marker:none;visibility:visible;display:inline;overflow:visible;enable-background:accumulate;font-family:Sans;-inkscape-font-specification:Sans" />
    <path
       inkscape:connector-curvature="0"
       id="path4597"
       style="font-size:12px;fill-rule:evenodd;stroke-width:0.625;stroke-linejoin:round"
       d="m 288.89545,195.86222 8.26802,9.77831 -12.63318,-2.09241 c 2.95816,-1.32065 4.71157,-4.43033 4.36516,-7.6859 z" />
  </g>
</svg>
