<?xml version="1.0" encoding="UTF-8" standalone="no"?>
<!-- Created with Inkscape (http://www.inkscape.org/) -->

<svg
   xmlns:dc="http://purl.org/dc/elements/1.1/"
   xmlns:cc="http://creativecommons.org/ns#"
   xmlns:rdf="http://www.w3.org/1999/02/22-rdf-syntax-ns#"
   xmlns:svg="http://www.w3.org/2000/svg"
   xmlns="http://www.w3.org/2000/svg"
   xmlns:sodipodi="http://sodipodi.sourceforge.net/DTD/sodipodi-0.dtd"
   xmlns:inkscape="http://www.inkscape.org/namespaces/inkscape"
   width="80"
   height="200"
   id="svg2"
   version="1.1"
   inkscape:version="0.48.0 r9654"
   sodipodi:docname="2011-(02)feb-02, 09.svg">
  <defs
     id="defs4" />
  <sodipodi:namedview
     id="base"
     pagecolor="#ffffff"
     bordercolor="#666666"
     borderopacity="1.0"
     inkscape:pageopacity="0.0"
     inkscape:pageshadow="2"
     inkscape:zoom="2.5823891"
     inkscape:cx="39.285386"
     inkscape:cy="157.37642"
     inkscape:document-units="px"
     inkscape:current-layer="layer1"
     showgrid="false"
     inkscape:window-width="1589"
     inkscape:window-height="1117"
     inkscape:window-x="1600"
     inkscape:window-y="27"
     inkscape:window-maximized="1"
     showguides="true"
     inkscape:guide-bbox="true" />
  <metadata
     id="metadata7">
    <rdf:RDF>
      <cc:Work
         rdf:about="">
        <dc:format>image/svg+xml</dc:format>
        <dc:type
           rdf:resource="http://purl.org/dc/dcmitype/StillImage" />
        <dc:title />
      </cc:Work>
    </rdf:RDF>
  </metadata>
  <g
     inkscape:label="Layer 1"
     inkscape:groupmode="layer"
     id="layer1">
    <path
       style="font-size:medium;font-style:normal;font-variant:normal;font-weight:normal;font-stretch:normal;text-indent:0;text-align:start;text-decoration:none;line-height:normal;letter-spacing:normal;word-spacing:normal;text-transform:none;direction:ltr;block-progression:tb;writing-mode:lr-tb;text-anchor:start;baseline-shift:baseline;color:#000000;fill:#000000;fill-opacity:1;stroke:none;stroke-width:1.00003982;marker:none;visibility:visible;display:inline;overflow:visible;enable-background:accumulate;font-family:Sans;-inkscape-font-specification:Sans"
       d="m 10.375,93.5 0,0.5 0,23 0,0.5 0.5,0 11,0 0.5,0 0,-0.5 0,-23 0,-0.5 -0.5,0 -11,0 -0.5,0 z m 1,1 10,0 0,22 -10,0 0,-22 z"
       id="path3005"
       inkscape:connector-curvature="0" />
    <path
       style="font-size:medium;font-style:normal;font-variant:normal;font-weight:normal;font-stretch:normal;text-indent:0;text-align:start;text-decoration:none;line-height:normal;letter-spacing:normal;word-spacing:normal;text-transform:none;direction:ltr;block-progression:tb;writing-mode:lr-tb;text-anchor:start;baseline-shift:baseline;color:#000000;fill:#000000;fill-opacity:1;stroke:none;stroke-width:1.00003982;marker:none;visibility:visible;display:inline;overflow:visible;enable-background:accumulate;font-family:Sans;-inkscape-font-specification:Sans"
       d="m 22.375,93.46875 0,0.5 0,23 0,0.5 2,0 44,0 2,0 0,-0.5 0,-23 0,-0.5 -2,0 -44,0 -2,0 z m 1,1 46,0 0,22 -46,0 0,-22 z"
       id="path3009"
       inkscape:connector-curvature="0" />
    <path
       style="font-size:medium;font-style:normal;font-variant:normal;font-weight:normal;font-stretch:normal;text-indent:0;text-align:start;text-decoration:none;line-height:normal;letter-spacing:normal;word-spacing:normal;text-transform:none;direction:ltr;block-progression:tb;writing-mode:lr-tb;text-anchor:start;baseline-shift:baseline;color:#000000;fill:#000000;fill-opacity:1;stroke:none;stroke-width:1.00003982;marker:none;visibility:visible;display:inline;overflow:visible;enable-background:accumulate;font-family:Sans;-inkscape-font-specification:Sans"
       d="m 34.90625,141.78125 0,0.5 0,23 0,0.5 1.5,0 33,0 1.5,0 0,-0.5 0,-23 0,-0.5 -1.5,0 -33,0 -1.5,0 z m 1,1 34,0 0,22 -34,0 0,-22 z"
       id="path3014"
       inkscape:connector-curvature="0" />
    <path
       style="font-size:medium;font-style:normal;font-variant:normal;font-weight:normal;font-stretch:normal;text-indent:0;text-align:start;text-decoration:none;line-height:normal;letter-spacing:normal;word-spacing:normal;text-transform:none;direction:ltr;block-progression:tb;writing-mode:lr-tb;text-anchor:start;baseline-shift:baseline;color:#000000;fill:#000000;fill-opacity:1;stroke:none;stroke-width:1.00003982;marker:none;visibility:visible;display:inline;overflow:visible;enable-background:accumulate;font-family:Sans;-inkscape-font-specification:Sans"
       d="m 10.90625,141.78125 0,0.5 0,11 0,0.5 0.5,0 23,0 0.5,0 0,-0.5 0,-11 0,-0.5 -0.5,0 -23,0 -0.5,0 z m 1,1 22,0 0,10 -22,0 0,-10 z"
       id="path3018"
       inkscape:connector-curvature="0" />
    <path
       style="font-size:medium;font-style:normal;font-variant:normal;font-weight:normal;font-stretch:normal;text-indent:0;text-align:start;text-decoration:none;line-height:normal;letter-spacing:normal;word-spacing:normal;text-transform:none;direction:ltr;block-progression:tb;writing-mode:lr-tb;text-anchor:start;baseline-shift:baseline;color:#000000;fill:#000000;fill-opacity:1;stroke:none;stroke-width:1.00003982;marker:none;visibility:visible;display:inline;overflow:visible;enable-background:accumulate;font-family:Sans;-inkscape-font-specification:Sans"
       d="m 10.90625,153.78125 0,0.5 0,11 0,0.5 0.5,0 23,0 0.5,0 0,-0.5 0,-11 0,-0.5 -0.5,0 -23,0 -0.5,0 z m 1,1 22,0 0,10 -22,0 0,-10 z"
       id="path3022"
       inkscape:connector-curvature="0" />
    <path
       style="font-size:12px;font-style:normal;font-weight:normal;line-height:125%;letter-spacing:0px;word-spacing:0px;fill:#000000;fill-opacity:1;stroke:none;font-family:Sans"
       d="m 43.827417,129.92247 0,3.96094 -1.078125,0 0,-3.92579 c -5e-6,-0.62109 -0.121099,-1.08593 -0.363281,-1.39453 -0.242192,-0.30859 -0.605473,-0.46288 -1.089844,-0.46289 -0.582034,1e-5 -1.041018,0.18555 -1.376953,0.55664 -0.335939,0.3711 -0.503908,0.87696 -0.503906,1.51758 l 0,3.70899 -1.083984,0 0,-6.5625 1.083984,0 0,1.01953 c 0.25781,-0.39453 0.560544,-0.68945 0.908203,-0.88477 0.351559,-0.1953 0.755856,-0.29296 1.212891,-0.29297 0.753901,1e-5 1.324213,0.23438 1.710937,0.70313 0.386713,0.46485 0.580072,1.15039 0.580078,2.05664"
       id="path3142"
       inkscape:connector-curvature="0" />
    <path
       style="font-size:12px;font-style:normal;font-weight:normal;line-height:125%;letter-spacing:0px;word-spacing:0px;fill:#000000;fill-opacity:1;stroke:none;font-family:Sans"
       d="m 37.643905,80.910843 0,3.960938 -1.078125,0 0,-3.925781 c -5e-6,-0.62109 -0.121099,-1.085933 -0.363281,-1.394532 -0.242192,-0.308588 -0.605473,-0.462884 -1.089844,-0.46289 -0.582034,6e-6 -1.041018,0.185552 -1.376953,0.55664 -0.335939,0.371099 -0.503908,0.876958 -0.503906,1.517579 l 0,3.708984 -1.083984,0 0,-6.5625 1.083984,0 0,1.019531 c 0.25781,-0.394525 0.560544,-0.689447 0.908203,-0.884765 0.351559,-0.195306 0.755856,-0.292962 1.212891,-0.292969 0.753901,7e-6 1.324213,0.234381 1.710937,0.703125 0.386713,0.464849 0.580072,1.150395 0.580078,2.05664"
       id="path3148"
       inkscape:connector-curvature="0" />
    <path
       style="font-size:12px;font-style:normal;font-weight:normal;line-height:125%;letter-spacing:0px;word-spacing:0px;fill:#000000;fill-opacity:1;stroke:none;font-family:Sans"
       d="m 43.766952,80.612015 7.511719,0 0,0.996094 -7.511719,0 0,-0.996094"
       id="path3150"
       inkscape:connector-curvature="0" />
    <path
       style="font-size:12px;font-style:normal;font-weight:normal;line-height:125%;letter-spacing:0px;word-spacing:0px;fill:#000000;fill-opacity:1;stroke:none;font-family:Sans"
       d="m 57.858749,83.875687 1.933594,0 0,-6.673828 -2.103516,0.421875 0,-1.078125 2.091797,-0.421875 1.183594,0 0,7.751953 1.933594,0 0,0.996094 -5.039063,0 0,-0.996094"
       id="path3152"
       inkscape:connector-curvature="0" />
    <path
       style="font-size:12px;font-style:normal;font-weight:normal;line-height:125%;letter-spacing:0px;word-spacing:0px;fill:#000000;fill-opacity:1;stroke:none;font-family:Sans"
       d="m 43.066533,180.00647 0,3.96094 -1.078125,0 0,-3.92578 c -5e-6,-0.62109 -0.121099,-1.08593 -0.363281,-1.39453 -0.242192,-0.30859 -0.605473,-0.46288 -1.089844,-0.46289 -0.582034,1e-5 -1.041018,0.18555 -1.376953,0.55664 -0.335939,0.3711 -0.503908,0.87696 -0.503906,1.51758 l 0,3.70898 -1.083984,0 0,-6.5625 1.083984,0 0,1.01953 c 0.25781,-0.39452 0.560544,-0.68944 0.908203,-0.88476 0.351559,-0.19531 0.755856,-0.29296 1.212891,-0.29297 0.753901,1e-5 1.324213,0.23438 1.710937,0.70312 0.386713,0.46485 0.580072,1.1504 0.580078,2.05664"
       id="path3135"
       inkscape:connector-curvature="0" />
    <path
       style="font-size:12px;font-style:normal;font-weight:normal;line-height:125%;letter-spacing:0px;word-spacing:0px;fill:#000000;fill-opacity:1;stroke:none;font-family:Sans"
       d="m 49.18958,179.70765 7.511719,0 0,0.99609 -7.511719,0 0,-0.99609"
       id="path3137"
       inkscape:connector-curvature="0" />
    <path
       style="font-size:12px;font-style:normal;font-weight:normal;line-height:125%;letter-spacing:0px;word-spacing:0px;fill:#000000;fill-opacity:1;stroke:none;font-family:Sans"
       d="m 64.095831,182.97132 4.13086,0 0,0.99609 -5.554689,0 0,-0.99609 c 0.449218,-0.46484 1.060546,-1.08789 1.833986,-1.86914 0.777339,-0.78515 1.26562,-1.29101 1.464843,-1.51758 0.378902,-0.42578 0.642574,-0.78515 0.791016,-1.07813 0.152339,-0.29686 0.22851,-0.58788 0.228516,-0.87304 -6e-6,-0.46484 -0.164068,-0.84374 -0.492188,-1.13672 -0.324224,-0.29296 -0.748052,-0.43944 -1.271484,-0.43945 -0.371098,10e-6 -0.763676,0.0645 -1.177735,0.19336 -0.410158,0.12891 -0.849611,0.32422 -1.31836,0.58593 l 0,-1.19531 c 0.476561,-0.1914 0.921874,-0.33593 1.335938,-0.43359 0.41406,-0.0977 0.792966,-0.14648 1.136719,-0.14649 0.906245,1e-5 1.628901,0.22657 2.167969,0.67969 0.539056,0.45313 0.808587,1.0586 0.808594,1.81641 -7e-6,0.35938 -0.06837,0.70117 -0.205078,1.02539 -0.132819,0.32031 -0.376959,0.69922 -0.732422,1.13672 -0.09766,0.11328 -0.408208,0.44141 -0.931641,0.98437 -0.523442,0.53907 -1.261723,1.29493 -2.214844,2.26758"
       id="path3139"
       inkscape:connector-curvature="0" />
    <path
       style="font-size:12px;font-style:normal;font-weight:normal;line-height:125%;letter-spacing:0px;word-spacing:0px;fill:#000000;fill-opacity:1;stroke:none;font-family:Sans"
       d="m 23.634851,91.550662 -0.84375,0 0,-0.363282 c 2e-6,-0.972661 0.144533,-1.625004 0.433594,-1.957031 0.289063,-0.328128 0.865235,-0.492187 1.728515,-0.492187 l 19.400391,0 c 0.589841,0 0.998044,-0.105472 1.224609,-0.316407 0.22656,-0.21094 0.363197,-0.48754 0.35048,-1.042079 l -0.01064,-0.46378 0.837891,0 0,0.357422 c 0,0.558591 0.111324,0.941403 0.333984,1.148437 0.226558,0.210935 18.630854,0.316407 19.212891,0.316407 l 1.40625,0 c 0.863273,0 1.437491,0.164059 1.722656,0.492187 0.289053,0.332027 0.433584,0.98437 0.433594,1.957031 l 0,0.363282 -0.837891,0 0,-0.398438 c -8e-6,-0.550786 -0.08595,-0.910161 -0.257813,-1.078125 -0.171882,-0.167973 -0.53321,-0.251953 -1.083984,-0.251953 l -1.453125,0 c -0.613286,0 -19.058598,-0.08985 -19.335937,-0.269531 -0.277348,-0.175785 -0.464848,-0.47852 -0.5625,-0.908203 -0.105473,0.43359 -0.296879,0.738277 -0.574219,0.914062 -0.277347,0.175777 -0.720706,0.263672 -1.330078,0.263672 l -19.453125,0 c -0.550781,0 -0.912109,0.08398 -1.083985,0.251953 -0.171874,0.167964 -0.257811,0.527339 -0.257812,1.078125 l 0,0.398438"
       id="path3145"
       inkscape:connector-curvature="0" />
    <path
       style="font-size:12px;font-style:normal;font-weight:normal;line-height:125%;letter-spacing:0px;word-spacing:0px;fill:#000000;fill-opacity:1;stroke:none;font-family:Sans"
       d="m 34.678071,167.76676 0,0.36327 c 0,0.97267 0.144533,1.62501 0.433594,1.95704 0.289063,0.32813 0.865235,0.49218 1.728515,0.49218 l 14.974958,0 c 0.589841,0 0.998044,0.10548 1.224609,0.31641 0.22656,0.21094 0.363197,0.48754 0.35048,1.04208 l -0.01064,0.46378 0.837891,0 0,-0.35742 c 0,-0.55859 0.111324,-0.94141 0.333984,-1.14844 0.226558,-0.21093 12.205421,-0.31641 12.787458,-0.31641 l 1.40625,0 c 0.863273,0 1.437491,-0.16405 1.722656,-0.49218 0.289053,-0.33203 0.433584,-0.98437 0.433594,-1.95704 l 0,-0.36327 -0.837891,0 0,0.39843 c -8e-6,0.55079 -0.08595,0.91016 -0.257813,1.07813 -0.171882,0.16797 -0.53321,0.25195 -1.083984,0.25195 l -1.453125,0 c -0.613286,0 -12.633165,0.0898 -12.910504,0.26953 -0.277348,0.17579 -0.464848,0.47852 -0.5625,0.9082 -0.105473,-0.43359 -0.296879,-0.73827 -0.574219,-0.91406 -0.277347,-0.17577 -0.720706,-0.26367 -1.330078,-0.26367 l -15.027692,0 c -0.550781,0 -0.912109,-0.084 -1.083985,-0.25195 -0.171874,-0.16797 -0.257812,-0.52734 -0.257812,-1.07813 l 0,-0.39843"
       id="path3178"
       inkscape:connector-curvature="0" />
    <path
       style="font-size:12px;font-style:normal;font-weight:normal;line-height:125%;letter-spacing:0px;word-spacing:0px;fill:#000000;fill-opacity:1;stroke:none;font-family:Sans"
       d="m 12.356837,140.15232 -0.84375,0 0,-0.36329 c 0,-0.97266 0.144533,-1.625 0.433594,-1.95703 0.289063,-0.32812 0.865235,-0.49218 1.728515,-0.49218 l 25.400391,0 c 0.589841,0 0.998044,-0.10548 1.224609,-0.31641 0.22656,-0.21094 0.306052,-0.45577 0.32389,-1.01017 l 0.01595,-0.49569 0.837891,0 0,0.35742 c 0,0.55859 0.111324,0.94141 0.333984,1.14844 0.226558,0.21094 24.630854,0.31641 25.212891,0.31641 l 1.40625,0 c 0.863273,0 1.437491,0.16406 1.722656,0.49218 0.289053,0.33203 0.433584,0.98437 0.433594,1.95703 l 0,0.36329 -0.837891,0 0,-0.39844 c -8e-6,-0.55079 -0.08595,-0.91016 -0.257813,-1.07813 -0.171882,-0.16797 -0.53321,-0.25195 -1.083984,-0.25195 l -1.453125,0 c -0.613286,0 -25.058598,-0.0898 -25.335937,-0.26953 -0.277348,-0.17578 -0.464848,-0.47852 -0.5625,-0.9082 -0.105473,0.43359 -0.296879,0.73827 -0.574219,0.91406 -0.277347,0.17578 -0.720706,0.26367 -1.330078,0.26367 l -25.453125,0 c -0.550781,0 -0.912109,0.084 -1.083985,0.25195 -0.171874,0.16797 -0.257812,0.52734 -0.257812,1.07813 l 0,0.39844"
       id="path3180"
       inkscape:connector-curvature="0" />
    <path
       style="font-size:12px;font-style:normal;font-weight:normal;line-height:125%;letter-spacing:0px;word-spacing:0px;fill:#000000;fill-opacity:1;stroke:none;font-family:Sans"
       d="m 12.356837,118.53859 -0.84375,0 0,0.36328 c 0,0.97266 0.144533,1.62501 0.433594,1.95703 0.289063,0.32813 0.865235,0.49219 1.728515,0.49219 l 25.400391,0 c 0.589841,0 0.998044,0.10547 1.224609,0.31641 0.22656,0.21094 0.306052,0.45577 0.32389,1.01017 l 0.01595,0.49569 0.837891,0 0,-0.35743 c 0,-0.55859 0.111324,-0.9414 0.333984,-1.14843 0.226558,-0.21094 24.630854,-0.31641 25.212891,-0.31641 l 1.40625,0 c 0.863273,0 1.437491,-0.16406 1.722656,-0.49219 0.289053,-0.33202 0.433584,-0.98437 0.433594,-1.95703 l 0,-0.36328 -0.837891,0 0,0.39844 c -8e-6,0.55078 -0.08595,0.91016 -0.257813,1.07812 -0.171882,0.16798 -0.53321,0.25196 -1.083984,0.25196 l -1.453125,0 c -0.613286,0 -25.058598,0.0898 -25.335937,0.26953 -0.277348,0.17578 -0.464848,0.47852 -0.5625,0.9082 -0.105473,-0.43359 -0.296879,-0.73828 -0.574219,-0.91406 -0.277347,-0.17578 -0.720706,-0.26367 -1.330078,-0.26367 l -25.453125,0 c -0.550781,0 -0.912109,-0.084 -1.083985,-0.25196 -0.171874,-0.16796 -0.257812,-0.52734 -0.257812,-1.07812 l 0,-0.39844"
       id="path3182"
       inkscape:connector-curvature="0" />
    <path
       style="font-size:medium;font-style:normal;font-variant:normal;font-weight:normal;font-stretch:normal;text-indent:0;text-align:start;text-decoration:none;line-height:normal;letter-spacing:normal;word-spacing:normal;text-transform:none;direction:ltr;block-progression:tb;writing-mode:lr-tb;text-anchor:start;baseline-shift:baseline;color:#000000;fill:#000000;fill-opacity:1;stroke:none;stroke-width:1.00003982;marker:none;visibility:visible;display:inline;overflow:visible;enable-background:accumulate;font-family:Sans;-inkscape-font-specification:Sans"
       d="m 16.375,19.5 0,0.5 0,23 0,0.5 0.04167,0 0.916666,0 0.04167,0 0,-0.5 0,-23 0,-0.5 -0.04167,0 -0.916666,0 -0.04167,0 z"
       id="path3093"
       inkscape:connector-curvature="0" />
    <path
       style="font-size:12px;font-style:normal;font-weight:normal;line-height:125%;letter-spacing:0px;word-spacing:0px;fill:#000000;fill-opacity:1;stroke:none;font-family:Sans"
       d="M 14.75 7.75 C 14.269528 7.7500067 13.847653 7.8398504 13.5 8.03125 C 13.156247 8.2187562 12.88281 8.5156309 12.65625 8.90625 L 12.65625 7.90625 L 11.5625 7.90625 L 11.5625 16.96875 L 12.65625 16.96875 L 12.65625 13.46875 C 12.88281 13.859376 13.156247 14.152344 13.5 14.34375 C 13.847653 14.53125 14.269528 14.625 14.75 14.625 C 15.54687 14.625 16.191401 14.320313 16.6875 13.6875 C 17.187494 13.054689 17.437494 12.218753 17.4375 11.1875 C 17.437494 10.156255 17.187494 9.3203176 16.6875 8.6875 C 16.191401 8.0546939 15.54687 7.7500067 14.75 7.75 z M 14.46875 8.65625 C 15.039057 8.6562558 15.488277 8.8593805 15.8125 9.3125 C 16.14062 9.7617234 16.312494 10.394536 16.3125 11.1875 C 16.312494 11.980472 16.14062 12.609377 15.8125 13.0625 C 15.488277 13.51172 15.039057 13.718751 14.46875 13.71875 C 13.898434 13.718751 13.453122 13.51172 13.125 13.0625 C 12.800779 12.609377 12.656248 11.980472 12.65625 11.1875 C 12.656248 10.394536 12.800779 9.7617234 13.125 9.3125 C 13.453122 8.8593805 13.898434 8.6562558 14.46875 8.65625 z "
       id="path3115" />
    <path
       style="font-size:26.00036621px;font-style:normal;font-weight:normal;line-height:125%;letter-spacing:0px;word-spacing:0px;baseline-shift:sub;fill:#000000;fill-opacity:1;stroke:none;font-family:Sans"
       d="M 20.5625 11.0625 C 19.925184 11.062506 19.431449 11.338475 19.09375 11.84375 C 18.758589 12.346496 18.593749 13.071474 18.59375 14.03125 C 18.593749 14.988492 18.758589 15.71347 19.09375 16.21875 C 19.431449 16.721491 19.925184 16.96875 20.5625 16.96875 C 21.199811 16.96875 21.696085 16.721491 22.03125 16.21875 C 22.368946 15.71347 22.531246 14.988492 22.53125 14.03125 C 22.531246 13.071474 22.368946 12.346496 22.03125 11.84375 C 21.696085 11.338475 21.199811 11.062506 20.5625 11.0625 z M 20.5625 11.6875 C 20.961136 11.687505 21.270697 11.890234 21.46875 12.28125 C 21.669335 12.669737 21.749997 13.249211 21.75 14.03125 C 21.749997 14.810755 21.669335 15.390231 21.46875 15.78125 C 21.270697 16.169733 20.961136 16.375001 20.5625 16.375 C 20.166399 16.375001 19.856837 16.169733 19.65625 15.78125 C 19.458195 15.390231 19.374999 14.810755 19.375 14.03125 C 19.374999 13.249211 19.458199 12.669737 19.65625 12.28125 C 19.856837 11.890234 20.166399 11.687505 20.5625 11.6875 z "
       id="path3103" />
    <path
       style="font-size:12px;font-style:normal;font-weight:normal;line-height:125%;letter-spacing:0px;word-spacing:0px;fill:#000000;fill-opacity:1;stroke:none;font-family:Sans"
       d="M 40.75 7.75 C 40.269528 7.7500067 39.847653 7.8398504 39.5 8.03125 C 39.156247 8.2187562 38.88281 8.5156309 38.65625 8.90625 L 38.65625 7.90625 L 37.5625 7.90625 L 37.5625 16.96875 L 38.65625 16.96875 L 38.65625 13.46875 C 38.88281 13.859376 39.156247 14.152344 39.5 14.34375 C 39.847653 14.53125 40.269528 14.625 40.75 14.625 C 41.54687 14.625 42.191401 14.320313 42.6875 13.6875 C 43.187494 13.054689 43.437494 12.218753 43.4375 11.1875 C 43.437494 10.156255 43.187494 9.3203176 42.6875 8.6875 C 42.191401 8.0546939 41.54687 7.7500067 40.75 7.75 z M 40.46875 8.65625 C 41.039057 8.6562558 41.488277 8.8593805 41.8125 9.3125 C 42.14062 9.7617234 42.312494 10.394536 42.3125 11.1875 C 42.312494 11.980472 42.14062 12.609377 41.8125 13.0625 C 41.488277 13.51172 41.039057 13.718751 40.46875 13.71875 C 39.898434 13.718751 39.453122 13.51172 39.125 13.0625 C 38.800779 12.609377 38.656248 11.980472 38.65625 11.1875 C 38.656248 10.394536 38.800779 9.7617234 39.125 9.3125 C 39.453122 8.8593805 39.898434 8.6562558 40.46875 8.65625 z "
       id="path3121" />
    <path
       style="font-size:26.00036621px;font-style:normal;font-weight:normal;line-height:125%;letter-spacing:0px;word-spacing:0px;baseline-shift:sub;fill:#000000;fill-opacity:1;stroke:none;font-family:Sans"
       d="m 45.053334,16.21352 1.256854,0 0,-4.338049 -1.367305,0.274222 0,-0.700791 1.359687,-0.274223 0.769347,0 0,5.038841 1.256854,0 0,0.64747 -3.275437,0 0,-0.64747"
       id="path3098" />
    <path
       style="font-size:medium;font-style:normal;font-variant:normal;font-weight:normal;font-stretch:normal;text-indent:0;text-align:start;text-decoration:none;line-height:normal;letter-spacing:normal;word-spacing:normal;text-transform:none;direction:ltr;block-progression:tb;writing-mode:lr-tb;text-anchor:start;baseline-shift:baseline;color:#000000;fill:#000000;fill-opacity:1;stroke:none;stroke-width:1.00003982;marker:none;visibility:visible;display:inline;overflow:visible;enable-background:accumulate;font-family:Sans;-inkscape-font-specification:Sans"
       d="m 36.375,19.5 0,0.5 0,23 0,0.5 0.5,0 11,0 0.5,0 0,-0.5 0,-23 0,-0.5 -0.5,0 -11,0 -0.5,0 z m 1,1 10,0 0,22 -10,0 0,-22 z"
       id="path3089"
       inkscape:connector-curvature="0" />
  </g>
</svg>
