<?xml version="1.0" encoding="UTF-8" standalone="no"?>
<!-- Created with Inkscape (http://www.inkscape.org/) -->

<svg
   xmlns:dc="http://purl.org/dc/elements/1.1/"
   xmlns:cc="http://creativecommons.org/ns#"
   xmlns:rdf="http://www.w3.org/1999/02/22-rdf-syntax-ns#"
   xmlns:svg="http://www.w3.org/2000/svg"
   xmlns="http://www.w3.org/2000/svg"
   xmlns:sodipodi="http://sodipodi.sourceforge.net/DTD/sodipodi-0.dtd"
   xmlns:inkscape="http://www.inkscape.org/namespaces/inkscape"
   width="240"
   height="170"
   id="svg2"
   version="1.1"
   inkscape:version="0.48.0 r9654"
   sodipodi:docname="2011-(02)feb-09, 02.svg">
  <defs
     id="defs4" />
  <sodipodi:namedview
     id="base"
     pagecolor="#ffffff"
     bordercolor="#666666"
     borderopacity="1.0"
     inkscape:pageopacity="0.0"
     inkscape:pageshadow="2"
     inkscape:zoom="1.2429611"
     inkscape:cx="59.007589"
     inkscape:cy="-7.0484342"
     inkscape:document-units="px"
     inkscape:current-layer="layer1"
     showgrid="false"
     inkscape:window-width="1589"
     inkscape:window-height="1117"
     inkscape:window-x="1600"
     inkscape:window-y="27"
     inkscape:window-maximized="1"
     showguides="true"
     inkscape:guide-bbox="true" />
  <metadata
     id="metadata7">
    <rdf:RDF>
      <cc:Work
         rdf:about="">
        <dc:format>image/svg+xml</dc:format>
        <dc:type
           rdf:resource="http://purl.org/dc/dcmitype/StillImage" />
        <dc:title />
      </cc:Work>
    </rdf:RDF>
  </metadata>
  <g
     inkscape:label="Layer 1"
     inkscape:groupmode="layer"
     id="layer1">
    <path
       style="font-size:medium;font-style:normal;font-variant:normal;font-weight:normal;font-stretch:normal;text-indent:0;text-align:start;text-decoration:none;line-height:normal;letter-spacing:normal;word-spacing:normal;text-transform:none;direction:ltr;block-progression:tb;writing-mode:lr-tb;text-anchor:start;baseline-shift:baseline;color:#000000;fill:#a2a2a2;fill-opacity:1;stroke:none;stroke-width:1px;marker:none;visibility:visible;display:inline;overflow:visible;enable-background:accumulate;font-family:Sans;-inkscape-font-specification:Sans"
       d="m 12.3125,3.90625 0,155.84375 0,0.5 0.5,0 222.28125,0 0,-1 -221.78125,0 0,-155.34375 -1,0 z"
       id="path3010" />
    <path
       style="font-size:12px;fill-rule:evenodd;stroke-width:0.62500000000000000;stroke-linejoin:round;fill:#a2a2a2;fill-opacity:1"
       d="M 8.3628973,14.603479 12.782391,2.5850142 17.201885,14.60348 c -2.609267,-1.920048 -6.179198,-1.908985 -8.8389877,-10e-7 z"
       id="path4822" />
    <path
       style="font-size:12px;fill-rule:evenodd;stroke-width:0.62500000000000000;stroke-linejoin:round;fill:#a2a2a2;fill-opacity:1"
       d="m 224.39038,155.32289 12.01847,4.4195 -12.01847,4.41949 c 1.92005,-2.60927 1.90899,-6.1792 0,-8.83899 z"
       id="path4824" />
    <path
       sodipodi:type="arc"
       style="color:#000000;fill:#a2a2a2;fill-opacity:1;stroke:none;stroke-width:1;marker:none;visibility:visible;display:inline;overflow:visible;enable-background:accumulate"
       id="path4410"
       sodipodi:cx="12.231112"
       sodipodi:cy="159.19112"
       sodipodi:rx="2.2755556"
       sodipodi:ry="2.2755556"
       d="m 14.506667,159.19112 a 2.2755556,2.2755556 0 1 1 -4.5511111,0 2.2755556,2.2755556 0 1 1 4.5511111,0 z"
       transform="translate(0.28444444,0.28444444)" />
    <path
       sodipodi:type="arc"
       style="color:#000000;fill:#a2a2a2;fill-opacity:1;stroke:none;stroke-width:1;marker:none;visibility:visible;display:inline;overflow:visible;enable-background:accumulate"
       id="path4414"
       sodipodi:cx="12.231112"
       sodipodi:cy="159.19112"
       sodipodi:rx="2.2755556"
       sodipodi:ry="2.2755556"
       d="m 14.506667,159.19112 a 2.2755556,2.2755556 0 1 1 -4.5511111,0 2.2755556,2.2755556 0 1 1 4.5511111,0 z"
       transform="translate(34.284444,0.28444444)" />
    <path
       sodipodi:type="arc"
       style="color:#000000;fill:#a2a2a2;fill-opacity:1;stroke:none;stroke-width:1;marker:none;visibility:visible;display:inline;overflow:visible;enable-background:accumulate"
       id="path4418"
       sodipodi:cx="12.231112"
       sodipodi:cy="159.19112"
       sodipodi:rx="2.2755556"
       sodipodi:ry="2.2755556"
       d="m 14.506667,159.19112 a 2.2755556,2.2755556 0 1 1 -4.5511111,0 2.2755556,2.2755556 0 1 1 4.5511111,0 z"
       transform="translate(68.284444,0.28444444)" />
    <path
       sodipodi:type="arc"
       style="color:#000000;fill:#a2a2a2;fill-opacity:1;stroke:none;stroke-width:1;marker:none;visibility:visible;display:inline;overflow:visible;enable-background:accumulate"
       id="path4422"
       sodipodi:cx="12.231112"
       sodipodi:cy="159.19112"
       sodipodi:rx="2.2755556"
       sodipodi:ry="2.2755556"
       d="m 14.506667,159.19112 a 2.2755556,2.2755556 0 1 1 -4.5511111,0 2.2755556,2.2755556 0 1 1 4.5511111,0 z"
       transform="translate(102.28444,0.28444444)" />
    <path
       sodipodi:type="arc"
       style="color:#000000;fill:#a2a2a2;fill-opacity:1;stroke:none;stroke-width:1;marker:none;visibility:visible;display:inline;overflow:visible;enable-background:accumulate"
       id="path4426"
       sodipodi:cx="12.231112"
       sodipodi:cy="159.19112"
       sodipodi:rx="2.2755556"
       sodipodi:ry="2.2755556"
       d="m 14.506667,159.19112 a 2.2755556,2.2755556 0 1 1 -4.5511111,0 2.2755556,2.2755556 0 1 1 4.5511111,0 z"
       transform="translate(136.28444,0.28444444)" />
    <path
       sodipodi:type="arc"
       style="color:#000000;fill:#a2a2a2;fill-opacity:1;stroke:none;stroke-width:1;marker:none;visibility:visible;display:inline;overflow:visible;enable-background:accumulate"
       id="path4430"
       sodipodi:cx="12.231112"
       sodipodi:cy="159.19112"
       sodipodi:rx="2.2755556"
       sodipodi:ry="2.2755556"
       d="m 14.506667,159.19112 a 2.2755556,2.2755556 0 1 1 -4.5511111,0 2.2755556,2.2755556 0 1 1 4.5511111,0 z"
       transform="translate(170.28444,0.28444444)" />
    <path
       sodipodi:type="arc"
       style="color:#000000;fill:#a2a2a2;fill-opacity:1;stroke:none;stroke-width:1;marker:none;visibility:visible;display:inline;overflow:visible;enable-background:accumulate"
       id="path4454"
       sodipodi:cx="12.231112"
       sodipodi:cy="159.19112"
       sodipodi:rx="2.2755556"
       sodipodi:ry="2.2755556"
       d="m 14.506667,159.19112 a 2.2755556,2.2755556 0 1 1 -4.5511111,0 2.2755556,2.2755556 0 1 1 4.5511111,0 z"
       transform="translate(0.28444444,-33.715556)" />
    <path
       sodipodi:type="arc"
       style="color:#000000;fill:#a2a2a2;fill-opacity:1;stroke:none;stroke-width:1;marker:none;visibility:visible;display:inline;overflow:visible;enable-background:accumulate"
       id="path4458"
       sodipodi:cx="12.231112"
       sodipodi:cy="159.19112"
       sodipodi:rx="2.2755556"
       sodipodi:ry="2.2755556"
       d="m 14.506667,159.19112 a 2.2755556,2.2755556 0 1 1 -4.5511111,0 2.2755556,2.2755556 0 1 1 4.5511111,0 z"
       transform="translate(34.284444,-33.715556)" />
    <path
       sodipodi:type="arc"
       style="color:#000000;fill:#a2a2a2;fill-opacity:1;stroke:none;stroke-width:1;marker:none;visibility:visible;display:inline;overflow:visible;enable-background:accumulate"
       id="path4462"
       sodipodi:cx="12.231112"
       sodipodi:cy="159.19112"
       sodipodi:rx="2.2755556"
       sodipodi:ry="2.2755556"
       d="m 14.506667,159.19112 a 2.2755556,2.2755556 0 1 1 -4.5511111,0 2.2755556,2.2755556 0 1 1 4.5511111,0 z"
       transform="translate(68.284444,-33.715556)" />
    <path
       sodipodi:type="arc"
       style="color:#000000;fill:#a2a2a2;fill-opacity:1;stroke:none;stroke-width:1;marker:none;visibility:visible;display:inline;overflow:visible;enable-background:accumulate"
       id="path4466"
       sodipodi:cx="12.231112"
       sodipodi:cy="159.19112"
       sodipodi:rx="2.2755556"
       sodipodi:ry="2.2755556"
       d="m 14.506667,159.19112 a 2.2755556,2.2755556 0 1 1 -4.5511111,0 2.2755556,2.2755556 0 1 1 4.5511111,0 z"
       transform="translate(102.28444,-33.715556)" />
    <path
       sodipodi:type="arc"
       style="color:#000000;fill:#a2a2a2;fill-opacity:1;stroke:none;stroke-width:1;marker:none;visibility:visible;display:inline;overflow:visible;enable-background:accumulate"
       id="path4470"
       sodipodi:cx="12.231112"
       sodipodi:cy="159.19112"
       sodipodi:rx="2.2755556"
       sodipodi:ry="2.2755556"
       d="m 14.506667,159.19112 a 2.2755556,2.2755556 0 1 1 -4.5511111,0 2.2755556,2.2755556 0 1 1 4.5511111,0 z"
       transform="translate(136.28444,-33.715556)" />
    <path
       sodipodi:type="arc"
       style="color:#000000;fill:#a2a2a2;fill-opacity:1;stroke:none;stroke-width:1;marker:none;visibility:visible;display:inline;overflow:visible;enable-background:accumulate"
       id="path4474"
       sodipodi:cx="12.231112"
       sodipodi:cy="159.19112"
       sodipodi:rx="2.2755556"
       sodipodi:ry="2.2755556"
       d="m 14.506667,159.19112 a 2.2755556,2.2755556 0 1 1 -4.5511111,0 2.2755556,2.2755556 0 1 1 4.5511111,0 z"
       transform="translate(170.28444,-33.715556)" />
    <path
       sodipodi:type="arc"
       style="color:#000000;fill:#a2a2a2;fill-opacity:1;stroke:none;stroke-width:1;marker:none;visibility:visible;display:inline;overflow:visible;enable-background:accumulate"
       id="path4498"
       sodipodi:cx="12.231112"
       sodipodi:cy="159.19112"
       sodipodi:rx="2.2755556"
       sodipodi:ry="2.2755556"
       d="m 14.506667,159.19112 a 2.2755556,2.2755556 0 1 1 -4.5511111,0 2.2755556,2.2755556 0 1 1 4.5511111,0 z"
       transform="translate(0.28444444,-67.715556)" />
    <path
       sodipodi:type="arc"
       style="color:#000000;fill:#a2a2a2;fill-opacity:1;stroke:none;stroke-width:1;marker:none;visibility:visible;display:inline;overflow:visible;enable-background:accumulate"
       id="path4502"
       sodipodi:cx="12.231112"
       sodipodi:cy="159.19112"
       sodipodi:rx="2.2755556"
       sodipodi:ry="2.2755556"
       d="m 14.506667,159.19112 a 2.2755556,2.2755556 0 1 1 -4.5511111,0 2.2755556,2.2755556 0 1 1 4.5511111,0 z"
       transform="translate(34.284444,-67.715556)" />
    <path
       sodipodi:type="arc"
       style="color:#000000;fill:#a2a2a2;fill-opacity:1;stroke:none;stroke-width:1;marker:none;visibility:visible;display:inline;overflow:visible;enable-background:accumulate"
       id="path4506"
       sodipodi:cx="12.231112"
       sodipodi:cy="159.19112"
       sodipodi:rx="2.2755556"
       sodipodi:ry="2.2755556"
       d="m 14.506667,159.19112 a 2.2755556,2.2755556 0 1 1 -4.5511111,0 2.2755556,2.2755556 0 1 1 4.5511111,0 z"
       transform="translate(68.284444,-67.715556)" />
    <path
       sodipodi:type="arc"
       style="color:#000000;fill:#a2a2a2;fill-opacity:1;stroke:none;stroke-width:1;marker:none;visibility:visible;display:inline;overflow:visible;enable-background:accumulate"
       id="path4510"
       sodipodi:cx="12.231112"
       sodipodi:cy="159.19112"
       sodipodi:rx="2.2755556"
       sodipodi:ry="2.2755556"
       d="m 14.506667,159.19112 a 2.2755556,2.2755556 0 1 1 -4.5511111,0 2.2755556,2.2755556 0 1 1 4.5511111,0 z"
       transform="translate(102.28444,-67.715556)" />
    <path
       sodipodi:type="arc"
       style="color:#000000;fill:#a2a2a2;fill-opacity:1;stroke:none;stroke-width:1;marker:none;visibility:visible;display:inline;overflow:visible;enable-background:accumulate"
       id="path4514"
       sodipodi:cx="12.231112"
       sodipodi:cy="159.19112"
       sodipodi:rx="2.2755556"
       sodipodi:ry="2.2755556"
       d="m 14.506667,159.19112 a 2.2755556,2.2755556 0 1 1 -4.5511111,0 2.2755556,2.2755556 0 1 1 4.5511111,0 z"
       transform="translate(136.28444,-67.715556)" />
    <path
       sodipodi:type="arc"
       style="color:#000000;fill:#a2a2a2;fill-opacity:1;stroke:none;stroke-width:1;marker:none;visibility:visible;display:inline;overflow:visible;enable-background:accumulate"
       id="path4518"
       sodipodi:cx="12.231112"
       sodipodi:cy="159.19112"
       sodipodi:rx="2.2755556"
       sodipodi:ry="2.2755556"
       d="m 14.506667,159.19112 a 2.2755556,2.2755556 0 1 1 -4.5511111,0 2.2755556,2.2755556 0 1 1 4.5511111,0 z"
       transform="translate(170.28444,-67.715556)" />
    <path
       sodipodi:type="arc"
       style="color:#000000;fill:#a2a2a2;fill-opacity:1;stroke:none;stroke-width:1;marker:none;visibility:visible;display:inline;overflow:visible;enable-background:accumulate"
       id="path4542"
       sodipodi:cx="12.231112"
       sodipodi:cy="159.19112"
       sodipodi:rx="2.2755556"
       sodipodi:ry="2.2755556"
       d="m 14.506667,159.19112 a 2.2755556,2.2755556 0 1 1 -4.5511111,0 2.2755556,2.2755556 0 1 1 4.5511111,0 z"
       transform="translate(0.28444444,-101.71556)" />
    <path
       sodipodi:type="arc"
       style="color:#000000;fill:#a2a2a2;fill-opacity:1;stroke:none;stroke-width:1;marker:none;visibility:visible;display:inline;overflow:visible;enable-background:accumulate"
       id="path4546"
       sodipodi:cx="12.231112"
       sodipodi:cy="159.19112"
       sodipodi:rx="2.2755556"
       sodipodi:ry="2.2755556"
       d="m 14.506667,159.19112 a 2.2755556,2.2755556 0 1 1 -4.5511111,0 2.2755556,2.2755556 0 1 1 4.5511111,0 z"
       transform="translate(34.284444,-101.71556)" />
    <path
       sodipodi:type="arc"
       style="color:#000000;fill:#a2a2a2;fill-opacity:1;stroke:none;stroke-width:1;marker:none;visibility:visible;display:inline;overflow:visible;enable-background:accumulate"
       id="path4550"
       sodipodi:cx="12.231112"
       sodipodi:cy="159.19112"
       sodipodi:rx="2.2755556"
       sodipodi:ry="2.2755556"
       d="m 14.506667,159.19112 a 2.2755556,2.2755556 0 1 1 -4.5511111,0 2.2755556,2.2755556 0 1 1 4.5511111,0 z"
       transform="translate(68.284444,-101.71556)" />
    <path
       sodipodi:type="arc"
       style="color:#000000;fill:#a2a2a2;fill-opacity:1;stroke:none;stroke-width:1;marker:none;visibility:visible;display:inline;overflow:visible;enable-background:accumulate"
       id="path4554"
       sodipodi:cx="12.231112"
       sodipodi:cy="159.19112"
       sodipodi:rx="2.2755556"
       sodipodi:ry="2.2755556"
       d="m 14.506667,159.19112 a 2.2755556,2.2755556 0 1 1 -4.5511111,0 2.2755556,2.2755556 0 1 1 4.5511111,0 z"
       transform="translate(102.28444,-101.71556)" />
    <path
       sodipodi:type="arc"
       style="color:#000000;fill:#a2a2a2;fill-opacity:1;stroke:none;stroke-width:1;marker:none;visibility:visible;display:inline;overflow:visible;enable-background:accumulate"
       id="path4558"
       sodipodi:cx="12.231112"
       sodipodi:cy="159.19112"
       sodipodi:rx="2.2755556"
       sodipodi:ry="2.2755556"
       d="m 14.506667,159.19112 a 2.2755556,2.2755556 0 1 1 -4.5511111,0 2.2755556,2.2755556 0 1 1 4.5511111,0 z"
       transform="translate(136.28444,-101.71556)" />
    <path
       sodipodi:type="arc"
       style="color:#000000;fill:#a2a2a2;fill-opacity:1;stroke:none;stroke-width:1;marker:none;visibility:visible;display:inline;overflow:visible;enable-background:accumulate"
       id="path4562"
       sodipodi:cx="12.231112"
       sodipodi:cy="159.19112"
       sodipodi:rx="2.2755556"
       sodipodi:ry="2.2755556"
       d="m 14.506667,159.19112 a 2.2755556,2.2755556 0 1 1 -4.5511111,0 2.2755556,2.2755556 0 1 1 4.5511111,0 z"
       transform="translate(170.28444,-101.71556)" />
    <path
       transform="translate(0.28444444,-135.71556)"
       d="m 14.506667,159.19112 a 2.2755556,2.2755556 0 1 1 -4.5511111,0 2.2755556,2.2755556 0 1 1 4.5511111,0 z"
       sodipodi:ry="2.2755556"
       sodipodi:rx="2.2755556"
       sodipodi:cy="159.19112"
       sodipodi:cx="12.231112"
       id="path4598"
       style="color:#000000;fill:#a2a2a2;fill-opacity:1;stroke:none;stroke-width:1;marker:none;visibility:visible;display:inline;overflow:visible;enable-background:accumulate"
       sodipodi:type="arc" />
    <path
       transform="translate(34.284444,-135.71556)"
       d="m 14.506667,159.19112 a 2.2755556,2.2755556 0 1 1 -4.5511111,0 2.2755556,2.2755556 0 1 1 4.5511111,0 z"
       sodipodi:ry="2.2755556"
       sodipodi:rx="2.2755556"
       sodipodi:cy="159.19112"
       sodipodi:cx="12.231112"
       id="path4600"
       style="color:#000000;fill:#a2a2a2;fill-opacity:1;stroke:none;stroke-width:1;marker:none;visibility:visible;display:inline;overflow:visible;enable-background:accumulate"
       sodipodi:type="arc" />
    <path
       transform="translate(68.284444,-135.71556)"
       d="m 14.506667,159.19112 a 2.2755556,2.2755556 0 1 1 -4.5511111,0 2.2755556,2.2755556 0 1 1 4.5511111,0 z"
       sodipodi:ry="2.2755556"
       sodipodi:rx="2.2755556"
       sodipodi:cy="159.19112"
       sodipodi:cx="12.231112"
       id="path4602"
       style="color:#000000;fill:#a2a2a2;fill-opacity:1;stroke:none;stroke-width:1;marker:none;visibility:visible;display:inline;overflow:visible;enable-background:accumulate"
       sodipodi:type="arc" />
    <path
       transform="translate(102.28444,-135.71556)"
       d="m 14.506667,159.19112 a 2.2755556,2.2755556 0 1 1 -4.5511111,0 2.2755556,2.2755556 0 1 1 4.5511111,0 z"
       sodipodi:ry="2.2755556"
       sodipodi:rx="2.2755556"
       sodipodi:cy="159.19112"
       sodipodi:cx="12.231112"
       id="path4604"
       style="color:#000000;fill:#a2a2a2;fill-opacity:1;stroke:none;stroke-width:1;marker:none;visibility:visible;display:inline;overflow:visible;enable-background:accumulate"
       sodipodi:type="arc" />
    <path
       transform="translate(136.28444,-135.71556)"
       d="m 14.506667,159.19112 a 2.2755556,2.2755556 0 1 1 -4.5511111,0 2.2755556,2.2755556 0 1 1 4.5511111,0 z"
       sodipodi:ry="2.2755556"
       sodipodi:rx="2.2755556"
       sodipodi:cy="159.19112"
       sodipodi:cx="12.231112"
       id="path4606"
       style="color:#000000;fill:#a2a2a2;fill-opacity:1;stroke:none;stroke-width:1;marker:none;visibility:visible;display:inline;overflow:visible;enable-background:accumulate"
       sodipodi:type="arc" />
    <path
       transform="translate(170.28444,-135.71556)"
       d="m 14.506667,159.19112 a 2.2755556,2.2755556 0 1 1 -4.5511111,0 2.2755556,2.2755556 0 1 1 4.5511111,0 z"
       sodipodi:ry="2.2755556"
       sodipodi:rx="2.2755556"
       sodipodi:cy="159.19112"
       sodipodi:cx="12.231112"
       id="path4608"
       style="color:#000000;fill:#a2a2a2;fill-opacity:1;stroke:none;stroke-width:1;marker:none;visibility:visible;display:inline;overflow:visible;enable-background:accumulate"
       sodipodi:type="arc" />
    <path
       transform="translate(206.28444,0.28444444)"
       d="m 14.506667,159.19112 a 2.2755556,2.2755556 0 1 1 -4.5511111,0 2.2755556,2.2755556 0 1 1 4.5511111,0 z"
       sodipodi:ry="2.2755556"
       sodipodi:rx="2.2755556"
       sodipodi:cy="159.19112"
       sodipodi:cx="12.231112"
       id="path4620"
       style="color:#000000;fill:#a2a2a2;fill-opacity:1;stroke:none;stroke-width:1;marker:none;visibility:visible;display:inline;overflow:visible;enable-background:accumulate"
       sodipodi:type="arc" />
    <path
       transform="translate(206.28444,-33.715556)"
       d="m 14.506667,159.19112 a 2.2755556,2.2755556 0 1 1 -4.5511111,0 2.2755556,2.2755556 0 1 1 4.5511111,0 z"
       sodipodi:ry="2.2755556"
       sodipodi:rx="2.2755556"
       sodipodi:cy="159.19112"
       sodipodi:cx="12.231112"
       id="path4622"
       style="color:#000000;fill:#a2a2a2;fill-opacity:1;stroke:none;stroke-width:1;marker:none;visibility:visible;display:inline;overflow:visible;enable-background:accumulate"
       sodipodi:type="arc" />
    <path
       transform="translate(206.28444,-67.715556)"
       d="m 14.506667,159.19112 a 2.2755556,2.2755556 0 1 1 -4.5511111,0 2.2755556,2.2755556 0 1 1 4.5511111,0 z"
       sodipodi:ry="2.2755556"
       sodipodi:rx="2.2755556"
       sodipodi:cy="159.19112"
       sodipodi:cx="12.231112"
       id="path4624"
       style="color:#000000;fill:#a2a2a2;fill-opacity:1;stroke:none;stroke-width:1;marker:none;visibility:visible;display:inline;overflow:visible;enable-background:accumulate"
       sodipodi:type="arc" />
    <path
       transform="translate(206.28444,-101.71556)"
       d="m 14.506667,159.19112 a 2.2755556,2.2755556 0 1 1 -4.5511111,0 2.2755556,2.2755556 0 1 1 4.5511111,0 z"
       sodipodi:ry="2.2755556"
       sodipodi:rx="2.2755556"
       sodipodi:cy="159.19112"
       sodipodi:cx="12.231112"
       id="path4626"
       style="color:#000000;fill:#a2a2a2;fill-opacity:1;stroke:none;stroke-width:1;marker:none;visibility:visible;display:inline;overflow:visible;enable-background:accumulate"
       sodipodi:type="arc" />
    <path
       sodipodi:type="arc"
       style="color:#000000;fill:#a2a2a2;fill-opacity:1;stroke:none;stroke-width:1;marker:none;visibility:visible;display:inline;overflow:visible;enable-background:accumulate"
       id="path4628"
       sodipodi:cx="12.231112"
       sodipodi:cy="159.19112"
       sodipodi:rx="2.2755556"
       sodipodi:ry="2.2755556"
       d="m 14.506667,159.19112 a 2.2755556,2.2755556 0 1 1 -4.5511111,0 2.2755556,2.2755556 0 1 1 4.5511111,0 z"
       transform="translate(206.28444,-135.71556)" />
    <path
       style="font-size:medium;font-style:normal;font-variant:normal;font-weight:normal;font-stretch:normal;text-indent:0;text-align:start;text-decoration:none;line-height:normal;letter-spacing:normal;word-spacing:normal;text-transform:none;direction:ltr;block-progression:tb;writing-mode:lr-tb;text-anchor:start;baseline-shift:baseline;color:#000000;fill:#000000;fill-opacity:1;stroke:none;stroke-width:1px;marker:none;visibility:visible;display:inline;overflow:visible;enable-background:accumulate;font-family:Sans;-inkscape-font-specification:Sans"
       d="m 13,23.4375 -0.71875,0.71875 33.6875,33.65625 0.125,0.125 34.1875,34.1875 33.78125,33.8125 32.78125,32.75 -32.46875,0 -33.8125,-33.84375 -34,-34 L 12.71875,57 11.875,56.15625 l 0,1.21875 0,33.875 0,0.21875 0.15625,0.15625 34.375,34.375 32.4375,32.4375 -33,0 -33.03125,-33.03125 -0.84375,-0.875 0,1.21875 0,32.1875 1,0 0,-31 32.34375,32.34375 0.125,0.15625 0.21875,0 34.40625,0 1.1875,0 -0.84375,-0.84375 -33.28125,-33.3125 -34.25,-34.21875 0,-32.5 32.96875,33 34,34 34,33.96875 0.15625,0.15625 0.1875,0 33.84375,0 1.21875,0 -0.875,-0.84375 -33.59375,-33.625 L 80.96875,91.4375 46.78125,57.25 13,23.4375 z"
       id="path4630" />
    <path
       style="font-size:12px;fill-rule:evenodd;stroke-width:0.62500000000000000;stroke-linejoin:round;fill:#5e5e5e;fill-opacity:1"
       d="m 8.3621642,137.35025 4.1214488,-12.1239 4.714844,11.90569 c -2.655873,-1.85504 -6.224441,-1.75585 -8.8362928,0.21821 z"
       id="path4832"
       inkscape:connector-curvature="0"
       inkscape:transform-center-x="-0.2966974"
       inkscape:transform-center-y="6.06195" />
    <path
       style="font-size:12px;fill-rule:evenodd;stroke-width:0.62500000000000000;stroke-linejoin:round;fill:#5e5e5e;fill-opacity:1"
       d="m 41.029353,148.0446 5.861416,11.38505 -11.840823,-4.87548 c 3.179159,-0.62276 5.586002,-3.25934 5.979407,-6.50957 z"
       id="path4834"
       inkscape:connector-curvature="0"
       inkscape:transform-center-x="5.9204115"
       inkscape:transform-center-y="-5.692525" />
    <path
       style="font-size:12px;fill-rule:evenodd;stroke-width:0.62500000000000000;stroke-linejoin:round;fill:#5e5e5e;fill-opacity:1"
       d="m 68.523422,155.28031 12.119854,4.13336 -11.910324,4.70315 c 1.857659,-2.65405 1.761973,-6.22272 -0.20953,-8.83651 z"
       id="path4836"
       inkscape:connector-curvature="0" />
    <path
       style="font-size:12px;fill-rule:evenodd;stroke-width:0.62500000000000000;stroke-linejoin:round;fill:#5e5e5e;fill-opacity:1"
       d="m 51.185105,136.34706 -5.373283,-11.6234 11.623392,5.37329 c -3.20271,0.48735 -5.719209,3.0195 -6.250109,6.25011 z"
       id="path4838" />
    <path
       style="font-size:12px;fill-rule:evenodd;stroke-width:0.62500000000000000;stroke-linejoin:round;fill:#5e5e5e;fill-opacity:1"
       d="M 41.788436,80.509509 47.16172,92.132901 35.538328,86.759617 c 3.202709,-0.487352 5.719208,-3.019496 6.250108,-6.250108 z"
       id="path4844" />
    <path
       style="font-size:12px;fill-rule:evenodd;stroke-width:0.62500000000000000;stroke-linejoin:round;fill:#5e5e5e;fill-opacity:1"
       d="m 75.779844,114.50091 5.373284,11.6234 -11.623392,-5.37329 c 3.20271,-0.48735 5.719208,-3.0195 6.250108,-6.25011 z"
       id="path4846" />
    <path
       style="font-size:12px;fill-rule:evenodd;stroke-width:0.62500000000000000;stroke-linejoin:round;fill:#5e5e5e;fill-opacity:1"
       d="m 118.84109,136.27164 -5.37329,-11.6234 11.6234,5.37329 c -3.20271,0.48735 -5.71921,3.0195 -6.25011,6.25011 z"
       id="path4852" />
    <path
       style="font-size:12px;fill-rule:evenodd;stroke-width:0.62500000000000000;stroke-linejoin:round;fill:#5e5e5e;fill-opacity:1"
       d="m 85.050807,102.48136 -5.373284,-11.623393 11.623392,5.373284 c -3.202709,0.487352 -5.719208,3.019496 -6.250108,6.250109 z"
       id="path4854" />
    <path
       style="font-size:12px;fill-rule:evenodd;stroke-width:0.62500000000000000;stroke-linejoin:round;fill:#5e5e5e;fill-opacity:1"
       d="m 50.858266,68.288818 -5.373284,-11.623392 11.623392,5.373285 c -3.20271,0.487351 -5.719208,3.019496 -6.250108,6.250107 z"
       id="path4856" />
    <path
       inkscape:transform-center-y="6.06195"
       inkscape:transform-center-x="-0.2966974"
       inkscape:connector-curvature="0"
       id="path4909"
       d="m 8.3621642,69.35025 4.1214488,-12.1239 4.714844,11.90569 C 14.542584,67.277 10.974016,67.37619 8.3621642,69.35025 z"
       style="font-size:12px;fill-rule:evenodd;stroke-width:0.62500000000000000;stroke-linejoin:round;fill:#5e5e5e;fill-opacity:1" />
    <path
       id="path4911"
       d="m 17.185105,102.34706 -5.373283,-11.6234 11.623392,5.37329 c -3.20271,0.48735 -5.719209,3.0195 -6.250109,6.25011 z"
       style="font-size:12px;fill-rule:evenodd;stroke-width:0.62500000000000000;stroke-linejoin:round;fill:#5e5e5e;fill-opacity:1"
       inkscape:connector-curvature="0" />
    <path
       id="path4913"
       d="m 109.77984,148.50091 5.37329,11.6234 -11.62339,-5.37329 c 3.20271,-0.48735 5.7192,-3.0195 6.2501,-6.25011 z"
       style="font-size:12px;fill-rule:evenodd;stroke-width:0.62500000000000000;stroke-linejoin:round;fill:#5e5e5e;fill-opacity:1"
       inkscape:connector-curvature="0" />
    <path
       inkscape:connector-curvature="0"
       id="path4915"
       d="m 136.52342,155.28031 12.11986,4.13336 -11.91033,4.70315 c 1.85766,-2.65405 1.76198,-6.22272 -0.20953,-8.83651 z"
       style="font-size:12px;fill-rule:evenodd;stroke-width:0.62500000000000000;stroke-linejoin:round;fill:#5e5e5e;fill-opacity:1" />
    <path
       id="path4917"
       d="m 16.858266,34.288818 -5.373284,-11.623392 11.623392,5.373285 c -3.20271,0.487351 -5.719208,3.019496 -6.250108,6.250107 z"
       style="font-size:12px;fill-rule:evenodd;stroke-width:0.62500000000000000;stroke-linejoin:round;fill:#5e5e5e;fill-opacity:1"
       inkscape:connector-curvature="0" />
  </g>
</svg>
