<?xml version="1.0" encoding="UTF-8" standalone="no"?>
<!-- Created with Inkscape (http://www.inkscape.org/) -->

<svg
   xmlns:dc="http://purl.org/dc/elements/1.1/"
   xmlns:cc="http://creativecommons.org/ns#"
   xmlns:rdf="http://www.w3.org/1999/02/22-rdf-syntax-ns#"
   xmlns:svg="http://www.w3.org/2000/svg"
   xmlns="http://www.w3.org/2000/svg"
   xmlns:sodipodi="http://sodipodi.sourceforge.net/DTD/sodipodi-0.dtd"
   xmlns:inkscape="http://www.inkscape.org/namespaces/inkscape"
   width="150"
   height="150"
   id="svg2"
   version="1.1"
   inkscape:version="0.48.0 r9654"
   sodipodi:docname="2011-(02)feb-23, 06.svg">
  <defs
     id="defs4" />
  <sodipodi:namedview
     id="base"
     pagecolor="#ffffff"
     bordercolor="#666666"
     borderopacity="1.0"
     inkscape:pageopacity="0.0"
     inkscape:pageshadow="2"
     inkscape:zoom="2.4859223"
     inkscape:cx="54.497438"
     inkscape:cy="46.112847"
     inkscape:document-units="px"
     inkscape:current-layer="layer1"
     showgrid="false"
     inkscape:window-width="1589"
     inkscape:window-height="1117"
     inkscape:window-x="1600"
     inkscape:window-y="27"
     inkscape:window-maximized="1"
     showguides="true"
     inkscape:guide-bbox="true" />
  <metadata
     id="metadata7">
    <rdf:RDF>
      <cc:Work
         rdf:about="">
        <dc:format>image/svg+xml</dc:format>
        <dc:type
           rdf:resource="http://purl.org/dc/dcmitype/StillImage" />
        <dc:title />
      </cc:Work>
    </rdf:RDF>
  </metadata>
  <g
     inkscape:label="Layer 1"
     inkscape:groupmode="layer"
     id="layer1">
    <path
       style="font-size:medium;font-style:normal;font-variant:normal;font-weight:normal;font-stretch:normal;text-indent:0;text-align:start;text-decoration:none;line-height:normal;letter-spacing:normal;word-spacing:normal;text-transform:none;direction:ltr;block-progression:tb;writing-mode:lr-tb;text-anchor:start;baseline-shift:baseline;color:#000000;fill:#000000;fill-opacity:1;stroke:none;stroke-width:1;marker:none;visibility:visible;display:inline;overflow:visible;enable-background:accumulate;font-family:Sans;-inkscape-font-specification:Sans"
       d="m 74.229895,43.93228 c 2.300886,-1.196923 5.121055,-0.306833 6.317978,1.994053 1.196922,2.300885 0.306834,5.121054 -1.994053,6.317978 -2.300886,1.196922 -5.121054,0.306832 -6.317977,-1.994053 -1.196923,-2.300886 -0.306834,-5.121055 1.994052,-6.317978 z"
       id="path3003"
       inkscape:connector-curvature="0"
       inkscape:transform-center-x="-0.1418578"
       inkscape:transform-center-y="0.54515188" />
    <path
       style="font-size:medium;font-style:normal;font-variant:normal;font-weight:normal;font-stretch:normal;text-indent:0;text-align:start;text-decoration:none;line-height:normal;letter-spacing:normal;word-spacing:normal;text-transform:none;direction:ltr;block-progression:tb;writing-mode:lr-tb;text-anchor:start;baseline-shift:baseline;color:#000000;fill:#000000;fill-opacity:1;stroke:none;stroke-width:1;marker:none;visibility:visible;display:inline;overflow:visible;enable-background:accumulate;font-family:Sans;-inkscape-font-specification:Sans"
       d="m 60.341626,15.4722 c -6.341127,2.998571 -10.601415,9.604462 -10.293455,17.049498 0.410611,9.926714 8.827336,17.637398 18.75405,17.226786 l -0.05783,-0.991456 c -9.386736,0.388277 -17.316493,-6.90642 -17.70477,-16.293156 -0.388277,-9.386736 6.90642,-17.316493 16.293156,-17.704769 9.386736,-0.388277 17.316493,6.90642 17.704769,16.293156 0.163855,3.961247 -1.068345,7.846702 -3.471714,10.999819 l 0.77863,0.616493 c 2.544615,-3.338426 3.858025,-7.480088 3.68454,-11.674138 -0.410611,-9.926715 -8.827337,-17.637398 -18.754051,-17.226786 -2.481678,0.102654 -4.81962,0.705029 -6.93333,1.704553 z"
       id="path3014"
       inkscape:connector-curvature="0"
       inkscape:transform-center-y="-15.785078"
       inkscape:transform-center-x="8.2116307" />
    <g
       id="g4994"
       inkscape:transform-center-x="12.105608"
       inkscape:transform-center-y="-0.90846132"
       transform="matrix(0.88714385,-0.46149299,0.46149299,0.88714385,-13.335546,40.554376)">
      <path
         style="font-size:medium;font-style:normal;font-variant:normal;font-weight:normal;font-stretch:normal;text-indent:0;text-align:start;text-decoration:none;line-height:normal;letter-spacing:normal;word-spacing:normal;text-transform:none;direction:ltr;block-progression:tb;writing-mode:lr-tb;text-anchor:start;baseline-shift:baseline;color:#000000;fill:#000000;fill-opacity:1;stroke:none;stroke-width:1px;marker:none;visibility:visible;display:inline;overflow:visible;enable-background:accumulate;font-family:Sans;-inkscape-font-specification:Sans"
         d="m 68.625,44.71875 -0.65625,0.75 0.875,0.78125 0.6875,-0.71875 -0.90625,-0.8125 z"
         id="path3016"
         inkscape:connector-curvature="0" />
      <path
         inkscape:connector-curvature="0"
         d="m 64.21718,35.436885 5.974922,11.325888 -11.888965,-4.756885 c 3.172775,-0.654491 5.553143,-3.315012 5.914043,-6.569003 z"
         style="font-size:12px;fill-rule:evenodd;stroke-width:0.625;stroke-linejoin:round"
         id="path5000" />
    </g>
    <path
       inkscape:connector-curvature="0"
       id="path3974"
       d="m 112.56619,110.70119 c -2.26518,1.26317 -5.10999,0.45528 -6.37317,-1.80992 -1.26317,-2.26518 -0.45528,-5.10999 1.80992,-6.37317 2.26518,-1.26317 5.10999,-0.45527 6.37317,1.80992 1.26317,2.26519 0.45528,5.10999 -1.80992,6.37317 z"
       style="font-size:medium;font-style:normal;font-variant:normal;font-weight:normal;font-stretch:normal;text-indent:0;text-align:start;text-decoration:none;line-height:normal;letter-spacing:normal;word-spacing:normal;text-transform:none;direction:ltr;block-progression:tb;writing-mode:lr-tb;text-anchor:start;baseline-shift:baseline;color:#000000;fill:#000000;fill-opacity:1;stroke:none;stroke-width:1;marker:none;visibility:visible;display:inline;overflow:visible;enable-background:accumulate;font-family:Sans;-inkscape-font-specification:Sans"
       inkscape:transform-center-x="-0.58190627"
       inkscape:transform-center-y="-0.35948698" />
    <path
       style="font-size:medium;font-style:normal;font-variant:normal;font-weight:normal;font-stretch:normal;text-indent:0;text-align:start;text-decoration:none;line-height:normal;letter-spacing:normal;word-spacing:normal;text-transform:none;direction:ltr;block-progression:tb;writing-mode:lr-tb;text-anchor:start;baseline-shift:baseline;color:#000000;fill:#000000;fill-opacity:1;stroke:none;stroke-width:1;marker:none;visibility:visible;display:inline;overflow:visible;enable-background:accumulate;font-family:Sans;-inkscape-font-specification:Sans"
       d="m 127.27432,138.74635 c 6.25146,-3.18128 10.31831,-9.908 9.79447,-17.34096 -0.69844,-9.91063 -9.33533,-17.37387 -19.24595,-16.67542 l 0.0866,0.98935 c 9.37152,-0.66045 17.50957,6.40111 18.17002,15.77263 0.66045,9.37152 -6.40111,17.50959 -15.77263,18.17002 -9.37152,0.66045 -17.50958,-6.4011 -18.17003,-15.77262 -0.27871,-3.95483 0.84024,-7.8744 3.15113,-11.09592 l -0.7962,-0.59364 c -2.44668,3.41085 -3.63938,7.58887 -3.34429,11.77612 0.69844,9.91063 9.33533,17.37387 19.24596,16.67543 2.47766,-0.17461 4.79713,-0.84457 6.88095,-1.90499 z"
       id="path3976"
       inkscape:connector-curvature="0"
       inkscape:transform-center-x="-9.4060372"
       inkscape:transform-center-y="15.721522" />
    <g
       id="g5019"
       inkscape:transform-center-x="-12.760631"
       inkscape:transform-center-y="0.58546143"
       transform="matrix(0.8584772,0.51285174,-0.51285174,0.8584772,70.384733,-41.122627)">
      <path
         style="font-size:medium;font-style:normal;font-variant:normal;font-weight:normal;font-stretch:normal;text-indent:0;text-align:start;text-decoration:none;line-height:normal;letter-spacing:normal;word-spacing:normal;text-transform:none;direction:ltr;block-progression:tb;writing-mode:lr-tb;text-anchor:start;baseline-shift:baseline;color:#000000;fill:#000000;fill-opacity:1;stroke:none;stroke-width:1px;marker:none;visibility:visible;display:inline;overflow:visible;enable-background:accumulate;font-family:Sans;-inkscape-font-specification:Sans"
         d="m 116.375,100.625 -1.125,0.375 0.3125,0.9375 1.125,-0.375 -0.3125,-0.9375 z"
         id="path3978"
         inkscape:connector-curvature="0" />
      <path
         inkscape:connector-curvature="0"
         d="m 126.93125,102.37792 -12.79597,-0.4885 10.06406,-7.917707 c -1.01958,3.07495 0.0943,6.466667 2.73191,8.406207 z"
         style="font-size:12px;fill-rule:evenodd;stroke-width:0.625;stroke-linejoin:round"
         id="path5025" />
    </g>
    <path
       inkscape:transform-center-y="19.568471"
       inkscape:transform-center-x="33.642115"
       style="font-size:medium;font-style:normal;font-variant:normal;font-weight:normal;font-stretch:normal;text-indent:0;text-align:start;text-decoration:none;line-height:normal;letter-spacing:normal;word-spacing:normal;text-transform:none;direction:ltr;block-progression:tb;writing-mode:lr-tb;text-anchor:start;baseline-shift:baseline;color:#000000;fill:#000000;fill-opacity:1;stroke:none;stroke-width:1;marker:none;visibility:visible;display:inline;overflow:visible;enable-background:accumulate;font-family:Sans;-inkscape-font-specification:Sans"
       d="m 38.550802,108.92223 c -1.296794,-2.24611 -0.531393,-5.10264 1.714728,-6.39944 2.246109,-1.2968 5.102641,-0.53139 6.399438,1.71473 1.296793,2.24611 0.531384,5.10263 -1.714729,6.39943 -2.246108,1.2968 -5.10264,0.5314 -6.399437,-1.71472 z"
       id="path3980"
       inkscape:connector-curvature="0" />
    <path
       style="font-size:medium;font-style:normal;font-variant:normal;font-weight:normal;font-stretch:normal;text-indent:0;text-align:start;text-decoration:none;line-height:normal;letter-spacing:normal;word-spacing:normal;text-transform:none;direction:ltr;block-progression:tb;writing-mode:lr-tb;text-anchor:start;baseline-shift:baseline;color:#000000;fill:#000000;fill-opacity:1;stroke:none;stroke-width:1;marker:none;visibility:visible;display:inline;overflow:visible;enable-background:accumulate;font-family:Sans;-inkscape-font-specification:Sans"
       d="m 10.727966,124.0467 c 3.274101,6.20336 10.06068,10.16949 17.485014,9.53493 9.899112,-0.84607 17.232804,-9.59323 16.386733,-19.49234 l -0.987961,0.1013 c 0.800049,9.36064 -6.139439,17.60304 -15.500075,18.40308 -9.360635,0.80005 -17.603035,-6.13944 -18.4030826,-15.50007 -0.8000487,-9.36064 6.1394396,-17.603036 15.5000746,-18.403084 3.950233,-0.337624 7.886043,0.722788 11.141645,2.985394 l 0.58171,-0.80495 C 33.485091,98.475383 29.289755,97.345089 25.107367,97.702556 15.208254,98.548626 7.8745629,107.29579 8.7206339,117.1949 c 0.2115182,2.47478 0.9159656,4.78402 2.0073321,6.8518 z"
       id="path3982" />
    <g
       id="g5011">
      <path
         style="font-size:medium;font-style:normal;font-variant:normal;font-weight:normal;font-stretch:normal;text-indent:0;text-align:start;text-decoration:none;line-height:normal;letter-spacing:normal;word-spacing:normal;text-transform:none;direction:ltr;block-progression:tb;writing-mode:lr-tb;text-anchor:start;baseline-shift:baseline;color:#000000;fill:#000000;fill-opacity:1;stroke:none;stroke-width:1px;marker:none;visibility:visible;display:inline;overflow:visible;enable-background:accumulate;font-family:Sans;-inkscape-font-specification:Sans"
         d="m 43.6875,113.59375 -0.25,1.15625 0.96875,0.21875 0.25,-1.1875 -0.96875,-0.1875 z"
         id="path3984"
         inkscape:connector-curvature="0" />
      <path
         inkscape:connector-curvature="0"
         d="m 37.601581,123.21939 6.821035,-10.83739 1.824911,12.67459 c -2.153195,-2.42046 -5.647459,-3.15165 -8.645946,-1.8372 z"
         style="font-size:12px;fill-rule:evenodd;stroke-width:0.625;stroke-linejoin:round"
         id="path5017" />
    </g>
    <path
       style="font-size:medium;font-style:normal;font-variant:normal;font-weight:normal;font-stretch:normal;text-indent:0;text-align:start;text-decoration:none;line-height:normal;letter-spacing:normal;word-spacing:normal;text-transform:none;direction:ltr;block-progression:tb;writing-mode:lr-tb;text-anchor:start;baseline-shift:baseline;color:#000000;fill:#000000;fill-opacity:1;stroke:none;stroke-width:1px;marker:none;visibility:visible;display:inline;overflow:visible;enable-background:accumulate;font-family:Sans;-inkscape-font-specification:Sans"
       d="m 80.1875,53.25 -0.875,0.5 27.25,47.25 0.875,-0.5 -27.25,-47.25 z"
       id="path3994" />
    <path
       style="font-size:12px;fill-rule:evenodd;stroke-width:0.625;stroke-linejoin:round"
       d="m 105.50286,89.272538 2.17586,12.619072 -9.832742,-8.203202 c 3.219542,0.359701 6.306512,-1.433385 7.656882,-4.41587 z"
       id="path5065" />
    <path
       style="font-size:12px;fill-rule:evenodd;stroke-width:0.625;stroke-linejoin:round"
       d="m 81.247144,64.977462 -2.175868,-12.619074 9.832746,8.203204 c -3.219546,-0.359701 -6.306513,1.433385 -7.656878,4.41587 z"
       id="path5067" />
    <path
       style="font-size:medium;font-style:normal;font-variant:normal;font-weight:normal;font-stretch:normal;text-indent:0;text-align:start;text-decoration:none;line-height:normal;letter-spacing:normal;word-spacing:normal;text-transform:none;direction:ltr;block-progression:tb;writing-mode:lr-tb;text-anchor:start;baseline-shift:baseline;color:#000000;fill:#000000;fill-opacity:1;stroke:none;stroke-width:1;marker:none;visibility:visible;display:inline;overflow:visible;enable-background:accumulate;font-family:Sans;-inkscape-font-specification:Sans"
       d="M 32.1875 86.34375 C 15.69924 86.34375 2.3125 99.699234 2.3125 116.1875 C 2.3125 132.67576 15.69924 146.0625 32.1875 146.0625 C 48.675759 146.0625 62.0625 132.67576 62.0625 116.1875 C 62.0625 99.699234 48.675759 86.34375 32.1875 86.34375 z M 32.1875 87.34375 C 48.135319 87.34375 61.0625 100.23967 61.0625 116.1875 C 61.0625 132.13532 48.135319 145.0625 32.1875 145.0625 C 16.23968 145.0625 3.3125 132.13532 3.3125 116.1875 C 3.3125 100.23967 16.23968 87.34375 32.1875 87.34375 z "
       id="path3017" />
    <path
       style="font-size:medium;font-style:normal;font-variant:normal;font-weight:normal;font-stretch:normal;text-indent:0;text-align:start;text-decoration:none;line-height:normal;letter-spacing:normal;word-spacing:normal;text-transform:none;direction:ltr;block-progression:tb;writing-mode:lr-tb;text-anchor:start;baseline-shift:baseline;color:#000000;fill:#000000;fill-opacity:1;stroke:none;stroke-width:1px;marker:none;visibility:visible;display:inline;overflow:visible;enable-background:accumulate;font-family:Sans;-inkscape-font-specification:Sans"
       d="M 63.6875 4.03125 C 63.297356 4.0260324 62.921157 4.0457221 62.53125 4.0625 C 59.411993 4.1967233 56.296742 5.048203 53.25 6.75 C 46.615945 10.455536 42.911429 16.406938 41.375 23.53125 C 39.838571 30.655562 40.428923 38.973943 42.3125 47.625 C 46.079655 64.927114 55.022484 83.530499 62.71875 96.34375 C 70.046598 108.54363 81.699215 124.4007 94.5625 135.3125 C 100.99414 140.7684 107.72799 145.01222 114.40625 146.90625 C 121.08451 148.80028 127.73288 148.30865 133.8125 144.375 C 140.08083 140.31925 143.24163 134.34739 144.15625 127.34375 C 145.07087 120.34011 143.79553 112.291 141.28125 104 C 136.25269 87.418007 126.25502 69.764195 118.6875 57.21875 C 111.62223 45.505946 101.37966 29.59018 89.875 18.21875 C 84.122672 12.533035 78.064674 7.9552178 71.875 5.65625 C 69.167018 4.6504516 66.418506 4.067773 63.6875 4.03125 z M 63.71875 5.03125 C 66.31779 5.0662526 68.912847 5.6212232 71.53125 6.59375 C 77.516171 8.8166685 83.495898 13.280558 89.1875 18.90625 C 100.5707 30.157633 110.79214 46.059846 117.84375 57.75 C 125.39762 70.272813 135.33349 87.893923 140.3125 104.3125 C 142.802 112.52179 144.04254 120.43204 143.15625 127.21875 C 142.26996 134.00546 139.30268 139.63525 133.28125 143.53125 C 127.44854 147.30514 121.15911 147.77293 114.6875 145.9375 C 108.21589 144.10207 101.58171 139.96014 95.21875 134.5625 C 82.492826 123.76722 70.877214 107.96974 63.59375 95.84375 C 55.941857 83.104374 47.041333 64.532359 43.3125 47.40625 C 41.448083 38.843195 40.883781 30.633425 42.375 23.71875 C 43.866219 16.804075 47.372364 11.18731 53.75 7.625 C 56.668528 5.9948187 59.625802 5.1890241 62.59375 5.0625 C 62.964743 5.0466845 63.347459 5.0262496 63.71875 5.03125 z "
       id="path3028" />
  </g>
</svg>
