<?xml version="1.0" encoding="UTF-8" standalone="no"?>
<!-- Created with Inkscape (http://www.inkscape.org/) -->

<svg
   xmlns:dc="http://purl.org/dc/elements/1.1/"
   xmlns:cc="http://creativecommons.org/ns#"
   xmlns:rdf="http://www.w3.org/1999/02/22-rdf-syntax-ns#"
   xmlns:svg="http://www.w3.org/2000/svg"
   xmlns="http://www.w3.org/2000/svg"
   xmlns:sodipodi="http://sodipodi.sourceforge.net/DTD/sodipodi-0.dtd"
   xmlns:inkscape="http://www.inkscape.org/namespaces/inkscape"
   width="120"
   height="120"
   id="svg2"
   version="1.1"
   inkscape:version="0.48.0 r9654"
   sodipodi:docname="2011-(02)feb-02, 01.svg">
  <defs
     id="defs4" />
  <sodipodi:namedview
     id="base"
     pagecolor="#ffffff"
     bordercolor="#666666"
     borderopacity="1.0"
     inkscape:pageopacity="0.0"
     inkscape:pageshadow="2"
     inkscape:zoom="1.2429611"
     inkscape:cx="75.453928"
     inkscape:cy="232.79822"
     inkscape:document-units="px"
     inkscape:current-layer="layer1"
     showgrid="false"
     inkscape:window-width="1589"
     inkscape:window-height="1117"
     inkscape:window-x="1600"
     inkscape:window-y="27"
     inkscape:window-maximized="1"
     showguides="true"
     inkscape:guide-bbox="true" />
  <metadata
     id="metadata7">
    <rdf:RDF>
      <cc:Work
         rdf:about="">
        <dc:format>image/svg+xml</dc:format>
        <dc:type
           rdf:resource="http://purl.org/dc/dcmitype/StillImage" />
        <dc:title />
      </cc:Work>
    </rdf:RDF>
  </metadata>
  <g
     inkscape:label="Layer 1"
     inkscape:groupmode="layer"
     id="layer1">
    <path
       style="font-size:24px;font-style:normal;font-weight:normal;line-height:125%;letter-spacing:0px;word-spacing:0px;fill:#000000;fill-opacity:1;stroke:none;font-family:Sans"
       d="M 50.5 10.96875 L 43.8125 28.46875 L 46.3125 28.46875 L 47.90625 23.96875 L 55.78125 23.96875 L 57.375 28.46875 L 59.84375 28.46875 L 53.1875 10.96875 L 50.5 10.96875 z M 51.8125 13.28125 L 55.0625 22 L 48.625 22 L 51.8125 13.28125 z "
       id="path3812" />
    <path
       style="color:#000000;fill:#000000;fill-opacity:1;stroke:none;stroke-width:1;marker:none;visibility:visible;display:inline;overflow:visible;enable-background:accumulate"
       d="m 44.036906,76.645967 c 0,1.65685 -1.343146,3 -3,3 -1.656854,0 -3,-1.34315 -3,-3 0,-1.65685 1.343146,-3 3,-3 1.656854,0 3,1.34315 3,3 z"
       id="path3832" />
    <path
       style="color:#000000;fill:#000000;fill-opacity:1;stroke:none;stroke-width:1;marker:none;visibility:visible;display:inline;overflow:visible;enable-background:accumulate"
       d="m 105.9832,51.300332 c 0,1.656854 -1.34315,3 -3,3 -1.65685,0 -2.999995,-1.343146 -2.999995,-3 0,-1.656854 1.343145,-3 2.999995,-3 1.65685,0 3,1.343146 3,3 z"
       id="path3832-5" />
    <path
       style="font-size:medium;font-style:normal;font-variant:normal;font-weight:normal;font-stretch:normal;text-indent:0;text-align:start;text-decoration:none;line-height:normal;letter-spacing:normal;word-spacing:normal;text-transform:none;direction:ltr;block-progression:tb;writing-mode:lr-tb;text-anchor:start;baseline-shift:baseline;color:#000000;fill:#000000;fill-opacity:1;stroke:none;stroke-width:1;marker:none;visibility:visible;display:inline;overflow:visible;enable-background:accumulate;font-family:Sans;-inkscape-font-specification:Sans"
       d="M 51.09375 40.75 C 39.103998 40.75 28.25452 44.909199 20.375 51.6875 C 12.495479 58.465801 7.5625 67.878641 7.5625 78.28125 C 7.5625 88.683863 12.495479 98.096696 20.375 104.875 C 28.25452 111.6533 39.103998 115.8125 51.09375 115.8125 C 63.083502 115.8125 73.932982 111.6533 81.8125 104.875 C 89.692017 98.096696 94.59375 88.683863 94.59375 78.28125 C 94.59375 67.878641 89.692017 58.465801 81.8125 51.6875 C 73.932982 44.909199 63.083502 40.75 51.09375 40.75 z M 51.09375 41.53125 C 62.948737 41.53125 73.659596 45.679746 81.40625 52.34375 C 89.152904 59.007754 93.90625 68.171594 93.90625 78.28125 C 93.90625 88.39091 89.152904 97.554742 81.40625 104.21875 C 73.659596 110.88275 62.948737 115.03125 51.09375 115.03125 C 39.238763 115.03125 28.527905 110.88275 20.78125 104.21875 C 13.034596 97.554742 8.25 88.39091 8.25 78.28125 C 8.25 68.171594 13.034596 59.007754 20.78125 52.34375 C 28.527905 45.679746 39.238763 41.53125 51.09375 41.53125 z "
       id="path3820" />
    <path
       style="font-size:12px;font-style:normal;font-weight:normal;line-height:125%;letter-spacing:0px;word-spacing:0px;fill:#000000;fill-opacity:1;stroke:none;font-family:Sans"
       d="m 51.649694,66.78146 -2.373046,3.193359 2.496093,3.369141 -1.271484,0 -1.910156,-2.578125 -1.910157,2.578125 -1.271484,0 2.548828,-3.433594 -2.332031,-3.128906 1.271484,0 1.740235,2.337891 1.740234,-2.337891 1.271484,0"
       id="path3795" />
    <path
       style="font-size:12px;font-style:normal;font-weight:normal;line-height:125%;letter-spacing:0px;word-spacing:0px;fill:#000000;fill-opacity:1;stroke:none;font-family:Sans"
       d="m 111.35918,47.579355 c -0.30469,0.781249 -0.60157,1.291014 -0.89063,1.529297 -0.28906,0.238279 -0.67578,0.357419 -1.16015,0.357422 l -0.86133,0 0,-0.902344 0.63281,0 c 0.29687,-2e-6 0.52734,-0.07031 0.69141,-0.210938 0.16406,-0.140626 0.3457,-0.472657 0.54492,-0.996093 l 0.19336,-0.492188 -2.6543,-6.457031 1.14258,0 2.05078,5.132812 2.05078,-5.132812 1.14258,0 -2.88281,7.171875"
       id="path3798" />
  </g>
</svg>
