<?xml version="1.0" encoding="UTF-8" standalone="no"?>
<!-- Created with Inkscape (http://www.inkscape.org/) -->

<svg
   xmlns:dc="http://purl.org/dc/elements/1.1/"
   xmlns:cc="http://creativecommons.org/ns#"
   xmlns:rdf="http://www.w3.org/1999/02/22-rdf-syntax-ns#"
   xmlns:svg="http://www.w3.org/2000/svg"
   xmlns="http://www.w3.org/2000/svg"
   xmlns:sodipodi="http://sodipodi.sourceforge.net/DTD/sodipodi-0.dtd"
   xmlns:inkscape="http://www.inkscape.org/namespaces/inkscape"
   width="150"
   height="150"
   id="svg2"
   version="1.1"
   inkscape:version="0.48.0 r9654"
   sodipodi:docname="2011-(02)feb-23, 09.svg">
  <defs
     id="defs4" />
  <sodipodi:namedview
     id="base"
     pagecolor="#ffffff"
     bordercolor="#666666"
     borderopacity="1.0"
     inkscape:pageopacity="0.0"
     inkscape:pageshadow="2"
     inkscape:zoom="3.515625"
     inkscape:cx="129.80013"
     inkscape:cy="47.836798"
     inkscape:document-units="px"
     inkscape:current-layer="layer1"
     showgrid="false"
     inkscape:window-width="1589"
     inkscape:window-height="1117"
     inkscape:window-x="1600"
     inkscape:window-y="27"
     inkscape:window-maximized="1"
     showguides="true"
     inkscape:guide-bbox="true" />
  <metadata
     id="metadata7">
    <rdf:RDF>
      <cc:Work
         rdf:about="">
        <dc:format>image/svg+xml</dc:format>
        <dc:type
           rdf:resource="http://purl.org/dc/dcmitype/StillImage" />
        <dc:title />
      </cc:Work>
    </rdf:RDF>
  </metadata>
  <g
     inkscape:label="Layer 1"
     inkscape:groupmode="layer"
     id="layer1">
    <path
       style="font-size:medium;font-style:normal;font-variant:normal;font-weight:normal;font-stretch:normal;text-indent:0;text-align:start;text-decoration:none;line-height:normal;letter-spacing:normal;word-spacing:normal;text-transform:none;direction:ltr;block-progression:tb;writing-mode:lr-tb;text-anchor:start;baseline-shift:baseline;color:#000000;fill:#000000;fill-opacity:1;stroke:none;stroke-width:1;marker:none;visibility:visible;display:inline;overflow:visible;enable-background:accumulate;font-family:Sans;-inkscape-font-specification:Sans"
       d="m 76.124264,43.407524 c 2.593589,0 4.684714,2.091126 4.684714,4.684714 0,2.593588 -2.091125,4.684714 -4.684714,4.684714 -2.593588,0 -4.684713,-2.091126 -4.684713,-4.684714 0,-2.593588 2.091125,-4.684714 4.684713,-4.684714 z"
       id="path3003"
       inkscape:connector-curvature="0" />
    <path
       style="font-size:medium;font-style:normal;font-variant:normal;font-weight:normal;font-stretch:normal;text-indent:0;text-align:start;text-decoration:none;line-height:normal;letter-spacing:normal;word-spacing:normal;text-transform:none;direction:ltr;block-progression:tb;writing-mode:lr-tb;text-anchor:start;baseline-shift:baseline;color:#000000;fill:#000000;fill-opacity:1;stroke:none;stroke-width:1;marker:none;visibility:visible;display:inline;overflow:visible;enable-background:accumulate;font-family:Sans;-inkscape-font-specification:Sans"
       d="m 76.9375,11.75 c -7.009312,-0.266222 -13.837373,3.628061 -17,10.375 -4.216838,8.995918 -0.308418,19.720663 8.6875,23.9375 l 0.40625,-0.90625 c -8.506572,-3.987455 -12.174956,-14.118428 -8.1875,-22.625 3.987455,-8.506572 14.118428,-12.174956 22.625,-8.1875 8.506572,3.987455 12.174956,14.118428 8.1875,22.625 C 89.973525,40.558564 87.087276,43.43687 83.5,45.125 l 0.40625,0.90625 C 87.70435,44.243908 90.780881,41.175788 92.5625,37.375 96.779338,28.379082 92.870918,17.654337 83.875,13.4375 81.62602,12.383291 79.273937,11.838741 76.9375,11.75 z"
       id="path3014" />
    <g
       id="g4994">
      <path
         style="font-size:medium;font-style:normal;font-variant:normal;font-weight:normal;font-stretch:normal;text-indent:0;text-align:start;text-decoration:none;line-height:normal;letter-spacing:normal;word-spacing:normal;text-transform:none;direction:ltr;block-progression:tb;writing-mode:lr-tb;text-anchor:start;baseline-shift:baseline;color:#000000;fill:#000000;fill-opacity:1;stroke:none;stroke-width:1px;marker:none;visibility:visible;display:inline;overflow:visible;enable-background:accumulate;font-family:Sans;-inkscape-font-specification:Sans"
         d="m 68.625,44.71875 -0.65625,0.75 0.875,0.78125 0.6875,-0.71875 -0.90625,-0.8125 z"
         id="path3016"
         inkscape:connector-curvature="0" />
      <path
         inkscape:connector-curvature="0"
         d="m 64.21718,35.436885 5.974922,11.325888 -11.888965,-4.756885 c 3.172775,-0.654491 5.553143,-3.315012 5.914043,-6.569003 z"
         style="font-size:12px;fill-rule:evenodd;stroke-width:0.625;stroke-linejoin:round"
         id="path5000" />
    </g>
    <path
       inkscape:connector-curvature="0"
       id="path3974"
       d="m 108.1016,111.83334 c -1.29679,2.24611 -4.15332,3.01152 -6.39944,1.71472 -2.246113,-1.29679 -3.011523,-4.15332 -1.714723,-6.39944 1.296793,-2.24611 4.153323,-3.01151 6.399443,-1.71472 2.24611,1.29679 3.01152,4.15332 1.71472,6.39944 z"
       style="font-size:medium;font-style:normal;font-variant:normal;font-weight:normal;font-stretch:normal;text-indent:0;text-align:start;text-decoration:none;line-height:normal;letter-spacing:normal;word-spacing:normal;text-transform:none;direction:ltr;block-progression:tb;writing-mode:lr-tb;text-anchor:start;baseline-shift:baseline;color:#000000;fill:#000000;fill-opacity:1;stroke:none;stroke-width:1;marker:none;visibility:visible;display:inline;overflow:visible;enable-background:accumulate;font-family:Sans;-inkscape-font-specification:Sans"
       inkscape:transform-center-x="-33.76785"
       inkscape:transform-center-y="19.350692" />
    <path
       style="font-size:medium;font-style:normal;font-variant:normal;font-weight:normal;font-stretch:normal;text-indent:0;text-align:start;text-decoration:none;line-height:normal;letter-spacing:normal;word-spacing:normal;text-transform:none;direction:ltr;block-progression:tb;writing-mode:lr-tb;text-anchor:start;baseline-shift:baseline;color:#000000;fill:#000000;fill-opacity:1;stroke:none;stroke-width:1;marker:none;visibility:visible;display:inline;overflow:visible;enable-background:accumulate;font-family:Sans;-inkscape-font-specification:Sans"
       d="m 135.1112,128.36638 c 3.73521,-5.93713 3.7767,-13.79755 -0.48501,-19.90993 -5.68228,-8.14985 -16.92439,-10.127431 -25.07423,-4.44515 l 0.58171,0.80494 c 7.70652,-5.373178 18.31439,-3.48461 23.68757,4.22192 5.37318,7.70652 3.48461,18.3144 -4.22192,23.68757 -7.70652,5.37318 -18.31439,3.48461 -23.68757,-4.22191 -2.26751,-3.25219 -3.31707,-7.19091 -2.98539,-11.14165 l -0.98797,-0.1013 c -0.35116,4.18292 0.76764,8.38134 3.16841,11.82466 5.68228,8.14985 16.92439,10.12743 25.07424,4.44515 2.03746,-1.42057 3.68509,-3.18526 4.93016,-5.1643 z"
       id="path3976"
       inkscape:connector-curvature="0" />
    <g
       id="g5019"
       transform="translate(-5.9733333,3.1288889)">
      <path
         style="font-size:medium;font-style:normal;font-variant:normal;font-weight:normal;font-stretch:normal;text-indent:0;text-align:start;text-decoration:none;line-height:normal;letter-spacing:normal;word-spacing:normal;text-transform:none;direction:ltr;block-progression:tb;writing-mode:lr-tb;text-anchor:start;baseline-shift:baseline;color:#000000;fill:#000000;fill-opacity:1;stroke:none;stroke-width:1px;marker:none;visibility:visible;display:inline;overflow:visible;enable-background:accumulate;font-family:Sans;-inkscape-font-specification:Sans"
         d="m 116.375,100.625 -1.125,0.375 0.3125,0.9375 1.125,-0.375 -0.3125,-0.9375 z"
         id="path3978"
         inkscape:connector-curvature="0" />
      <path
         inkscape:connector-curvature="0"
         d="m 126.93125,102.37792 -12.79597,-0.4885 10.06406,-7.917707 c -1.01958,3.07495 0.0943,6.466667 2.73191,8.406207 z"
         style="font-size:12px;fill-rule:evenodd;stroke-width:0.625;stroke-linejoin:round"
         id="path5025" />
    </g>
    <path
       inkscape:transform-center-y="19.568471"
       inkscape:transform-center-x="33.642115"
       style="font-size:medium;font-style:normal;font-variant:normal;font-weight:normal;font-stretch:normal;text-indent:0;text-align:start;text-decoration:none;line-height:normal;letter-spacing:normal;word-spacing:normal;text-transform:none;direction:ltr;block-progression:tb;writing-mode:lr-tb;text-anchor:start;baseline-shift:baseline;color:#000000;fill:#000000;fill-opacity:1;stroke:none;stroke-width:1;marker:none;visibility:visible;display:inline;overflow:visible;enable-background:accumulate;font-family:Sans;-inkscape-font-specification:Sans"
       d="m 41.679691,112.33556 c -1.296794,-2.24611 -0.531393,-5.10264 1.714728,-6.39944 2.246109,-1.2968 5.102641,-0.53139 6.399438,1.71473 1.296793,2.24611 0.531384,5.10263 -1.714729,6.39943 -2.246108,1.2968 -5.10264,0.5314 -6.399437,-1.71472 z"
       id="path3980"
       inkscape:connector-curvature="0" />
    <path
       style="font-size:medium;font-style:normal;font-variant:normal;font-weight:normal;font-stretch:normal;text-indent:0;text-align:start;text-decoration:none;line-height:normal;letter-spacing:normal;word-spacing:normal;text-transform:none;direction:ltr;block-progression:tb;writing-mode:lr-tb;text-anchor:start;baseline-shift:baseline;color:#000000;fill:#000000;fill-opacity:1;stroke:none;stroke-width:1;marker:none;visibility:visible;display:inline;overflow:visible;enable-background:accumulate;font-family:Sans;-inkscape-font-specification:Sans"
       d="m 13.856855,127.46003 c 3.274101,6.20336 10.06068,10.16949 17.485014,9.53493 9.899112,-0.84607 17.232804,-9.59323 16.386733,-19.49234 l -0.987961,0.1013 c 0.800049,9.36064 -6.139439,17.60304 -15.500075,18.40308 -9.360635,0.80005 -17.603035,-6.13944 -18.403083,-15.50007 -0.800048,-9.36064 6.13944,-17.60303 15.500075,-18.40308 3.950233,-0.33762 7.886043,0.72279 11.141645,2.98539 l 0.58171,-0.80495 c -3.446933,-2.39557 -7.642269,-3.52587 -11.824657,-3.1684 -9.899113,0.84607 -17.232804,9.59323 -16.386733,19.49234 0.211518,2.47478 0.915965,4.78402 2.007332,6.8518 z"
       id="path3982"
       inkscape:connector-curvature="0" />
    <g
       id="g5011"
       transform="translate(3.1288889,3.4133333)">
      <path
         style="font-size:medium;font-style:normal;font-variant:normal;font-weight:normal;font-stretch:normal;text-indent:0;text-align:start;text-decoration:none;line-height:normal;letter-spacing:normal;word-spacing:normal;text-transform:none;direction:ltr;block-progression:tb;writing-mode:lr-tb;text-anchor:start;baseline-shift:baseline;color:#000000;fill:#000000;fill-opacity:1;stroke:none;stroke-width:1px;marker:none;visibility:visible;display:inline;overflow:visible;enable-background:accumulate;font-family:Sans;-inkscape-font-specification:Sans"
         d="m 43.6875,113.59375 -0.25,1.15625 0.96875,0.21875 0.25,-1.1875 -0.96875,-0.1875 z"
         id="path3984"
         inkscape:connector-curvature="0" />
      <path
         inkscape:connector-curvature="0"
         d="m 37.601581,123.21939 6.821035,-10.83739 1.824911,12.67459 c -2.153195,-2.42046 -5.647459,-3.15165 -8.645946,-1.8372 z"
         style="font-size:12px;fill-rule:evenodd;stroke-width:0.625;stroke-linejoin:round"
         id="path5017" />
    </g>
    <path
       style="font-size:medium;font-style:normal;font-variant:normal;font-weight:normal;font-stretch:normal;text-indent:0;text-align:start;text-decoration:none;line-height:normal;letter-spacing:normal;word-spacing:normal;text-transform:none;direction:ltr;block-progression:tb;writing-mode:lr-tb;text-anchor:start;baseline-shift:baseline;color:#000000;fill:#000000;fill-opacity:1;stroke:none;stroke-width:1;marker:none;visibility:visible;display:inline;overflow:visible;enable-background:accumulate;font-family:Sans;-inkscape-font-specification:Sans"
       d="M 75.96875 2.75 C 59.989097 2.75 47 15.707847 47 31.6875 C 47 47.667153 59.989097 60.625 75.96875 60.625 C 91.948403 60.625 104.90625 47.667153 104.90625 31.6875 C 104.90625 15.707847 91.948403 2.75 75.96875 2.75 z M 75.96875 3.75 C 91.407963 3.75 103.90625 16.248287 103.90625 31.6875 C 103.90625 47.126713 91.407963 59.625 75.96875 59.625 C 60.529537 59.625 48 47.126713 48 31.6875 C 48 16.248287 60.529537 3.75 75.96875 3.75 z "
       id="path3017" />
    <path
       inkscape:connector-curvature="0"
       style="font-size:medium;font-style:normal;font-variant:normal;font-weight:normal;font-stretch:normal;text-indent:0;text-align:start;text-decoration:none;line-height:normal;letter-spacing:normal;word-spacing:normal;text-transform:none;direction:ltr;block-progression:tb;writing-mode:lr-tb;text-anchor:start;baseline-shift:baseline;color:#000000;fill:#000000;fill-opacity:1;stroke:none;stroke-width:1;marker:none;visibility:visible;display:inline;overflow:visible;enable-background:accumulate;font-family:Sans;-inkscape-font-specification:Sans"
       d="m 31.873403,89.204722 c -15.979653,0 -28.9687503,12.957848 -28.9687503,28.937498 0,15.97966 12.9890973,28.9375 28.9687503,28.9375 15.979653,0 28.9375,-12.95784 28.9375,-28.9375 0,-15.97965 -12.957847,-28.937498 -28.9375,-28.937498 z m 0,1 c 15.439213,0 27.9375,12.498288 27.9375,27.937498 0,15.43922 -12.498287,27.9375 -27.9375,27.9375 -15.439213,0 -27.9687503,-12.49828 -27.9687503,-27.9375 0,-15.43921 12.5295373,-27.937498 27.9687503,-27.937498 z"
       id="path3017-4" />
    <path
       inkscape:connector-curvature="0"
       style="font-size:medium;font-style:normal;font-variant:normal;font-weight:normal;font-stretch:normal;text-indent:0;text-align:start;text-decoration:none;line-height:normal;letter-spacing:normal;word-spacing:normal;text-transform:none;direction:ltr;block-progression:tb;writing-mode:lr-tb;text-anchor:start;baseline-shift:baseline;color:#000000;fill:#000000;fill-opacity:1;stroke:none;stroke-width:1;marker:none;visibility:visible;display:inline;overflow:visible;enable-background:accumulate;font-family:Sans;-inkscape-font-specification:Sans"
       d="m 116.92229,87.7825 c -15.97965,0 -28.968749,12.95785 -28.968749,28.9375 0,15.97966 12.989099,28.9375 28.968749,28.9375 15.97965,0 28.9375,-12.95784 28.9375,-28.9375 0,-15.97965 -12.95785,-28.9375 -28.9375,-28.9375 z m 0,1 c 15.43921,0 27.9375,12.49829 27.9375,27.9375 0,15.43922 -12.49829,27.9375 -27.9375,27.9375 -15.43921,0 -27.968749,-12.49828 -27.968749,-27.9375 0,-15.43921 12.529539,-27.9375 27.968749,-27.9375 z"
       id="path3017-7" />
  </g>
</svg>
