<?xml version="1.0" encoding="UTF-8" standalone="no"?>
<!-- Created with Inkscape (http://www.inkscape.org/) -->

<svg
   xmlns:dc="http://purl.org/dc/elements/1.1/"
   xmlns:cc="http://creativecommons.org/ns#"
   xmlns:rdf="http://www.w3.org/1999/02/22-rdf-syntax-ns#"
   xmlns:svg="http://www.w3.org/2000/svg"
   xmlns="http://www.w3.org/2000/svg"
   xmlns:sodipodi="http://sodipodi.sourceforge.net/DTD/sodipodi-0.dtd"
   xmlns:inkscape="http://www.inkscape.org/namespaces/inkscape"
   width="200"
   height="170"
   id="svg2"
   version="1.1"
   inkscape:version="0.48.0 r9654"
   sodipodi:docname="2011-(01)jan-25, 01.svg">
  <defs
     id="defs4" />
  <sodipodi:namedview
     id="base"
     pagecolor="#ffffff"
     bordercolor="#666666"
     borderopacity="1.0"
     inkscape:pageopacity="0.0"
     inkscape:pageshadow="2"
     inkscape:zoom="1.5449524"
     inkscape:cx="25.256711"
     inkscape:cy="-34.334129"
     inkscape:document-units="px"
     inkscape:current-layer="layer1"
     showgrid="false"
     inkscape:window-width="1589"
     inkscape:window-height="1117"
     inkscape:window-x="1600"
     inkscape:window-y="27"
     inkscape:window-maximized="1" />
  <metadata
     id="metadata7">
    <rdf:RDF>
      <cc:Work
         rdf:about="">
        <dc:format>image/svg+xml</dc:format>
        <dc:type
           rdf:resource="http://purl.org/dc/dcmitype/StillImage" />
        <dc:title />
      </cc:Work>
    </rdf:RDF>
  </metadata>
  <g
     inkscape:label="Layer 1"
     inkscape:groupmode="layer"
     id="layer1">
    <path
       style="font-size:16px;font-style:normal;font-weight:normal;line-height:125%;letter-spacing:0px;word-spacing:0px;fill:#000000;fill-opacity:1;stroke:none;font-family:Sans;-inkscape-font-specification:Sans"
       d="M 16.4375 13.4375 L 16.4375 14.21875 L 22.6875 14.21875 L 16.25 24.3125 L 16.25 25.09375 L 26.71875 25.09375 L 26.71875 24.3125 L 20.125 24.3125 L 26.5625 14.21875 L 26.5625 13.4375 L 16.4375 13.4375 z M 23.6875 14.21875 L 25.53125 14.21875 L 19.09375 24.3125 L 17.25 24.3125 L 23.6875 14.21875 z "
       id="path3842" />
    <path
       style="font-size:medium;font-style:normal;font-variant:normal;font-weight:normal;font-stretch:normal;text-indent:0;text-align:start;text-decoration:none;line-height:normal;letter-spacing:normal;word-spacing:normal;text-transform:none;direction:ltr;block-progression:tb;writing-mode:lr-tb;text-anchor:start;baseline-shift:baseline;color:#000000;fill:#000000;fill-opacity:1;fill-rule:nonzero;stroke:none;stroke-width:0.8975575;marker:none;visibility:visible;display:inline;overflow:visible;enable-background:accumulate;font-family:Sans;-inkscape-font-specification:Sans"
       d="M 100.375 2.5625 C 45.908429 2.5625 1.71875 39.583483 1.71875 85.21875 C 1.71875 130.85402 45.908429 167.84375 100.375 167.84375 C 154.84157 167.84375 199 130.85402 199 85.21875 C 199 39.583483 154.84157 2.5625 100.375 2.5625 z M 100.375 3.5 C 154.25114 3.5 197.9375 40.078172 197.9375 85.21875 C 197.9375 130.35933 154.25114 166.9375 100.375 166.9375 C 46.498851 166.9375 2.84375 130.35933 2.84375 85.21875 C 2.84375 40.078172 46.498851 3.5 100.375 3.5 z "
       id="path3856" />
    <path
       style="fill:none;stroke:#000000;stroke-width:1px;stroke-linecap:butt;stroke-linejoin:miter;stroke-opacity:1"
       d="m 99.032178,2.6809285 0,164.4063615"
       id="path3839"
       inkscape:connector-curvature="0" />
    <path
       style="font-size:12px;font-style:normal;font-weight:normal;line-height:125%;letter-spacing:0px;word-spacing:0px;fill:#000000;fill-opacity:1;stroke:none;font-family:Sans"
       d="M 34 48.5625 C 33.019529 48.562508 32.269529 48.941414 31.75 49.71875 C 31.234374 50.492193 30.968749 51.617193 30.96875 53.09375 C 30.968749 54.566409 31.234374 55.691408 31.75 56.46875 C 32.269529 57.242187 33.019529 57.625 34 57.625 C 34.980464 57.625 35.734369 57.242187 36.25 56.46875 C 36.769524 55.691408 37.031243 54.566409 37.03125 53.09375 C 37.031243 51.617193 36.769524 50.492193 36.25 49.71875 C 35.734369 48.941414 34.980464 48.562508 34 48.5625 z M 34 49.5 C 34.613277 49.500008 35.070308 49.804695 35.375 50.40625 C 35.683588 51.003912 35.843744 51.89063 35.84375 53.09375 C 35.843744 54.292971 35.683588 55.21094 35.375 55.8125 C 35.070308 56.410157 34.613277 56.6875 34 56.6875 C 33.390622 56.687501 32.933591 56.410158 32.625 55.8125 C 32.32031 55.21094 32.187498 54.292971 32.1875 53.09375 C 32.187498 51.89063 32.32031 51.003912 32.625 50.40625 C 32.933591 49.804695 33.390622 49.500008 34 49.5 z "
       id="path3903" />
    <path
       style="font-size:12px;font-style:normal;font-weight:normal;line-height:125%;letter-spacing:0px;word-spacing:0px;fill:#000000;fill-opacity:1;stroke:none;font-family:Sans"
       d="m 69.667366,53.202612 7.511719,0 0,0.996094 -7.511719,0 0,-0.996094"
       id="path3905" />
    <path
       style="font-size:12px;font-style:normal;font-weight:normal;line-height:125%;letter-spacing:0px;word-spacing:0px;fill:#000000;fill-opacity:1;stroke:none;font-family:Sans"
       d="M 82.25 48.5625 C 81.382809 48.562508 80.718748 48.750008 80.21875 49.15625 C 79.722655 49.562508 79.468749 50.113289 79.46875 50.8125 C 79.468749 51.312506 79.624999 51.7461 79.90625 52.09375 C 80.191404 52.441412 80.585935 52.687505 81.09375 52.8125 C 80.523435 52.945317 80.070311 53.207034 79.75 53.59375 C 79.429687 53.980471 79.249999 54.441409 79.25 55 C 79.249999 55.847658 79.515624 56.484375 80.03125 56.9375 C 80.550779 57.390625 81.285153 57.625 82.25 57.625 C 83.214839 57.625 83.984369 57.390625 84.5 56.9375 C 85.019524 56.484375 85.249993 55.847658 85.25 55 C 85.249993 54.441409 85.101556 53.980471 84.78125 53.59375 C 84.464838 53.207034 84.039057 52.945317 83.46875 52.8125 C 83.97265 52.687505 84.343744 52.441412 84.625 52.09375 C 84.91015 51.7461 85.062494 51.312506 85.0625 50.8125 C 85.062494 50.113289 84.808587 49.562508 84.3125 49.15625 C 83.816401 48.750008 83.121089 48.562508 82.25 48.5625 z M 82.25 49.5 C 82.757808 49.500008 83.183589 49.621102 83.46875 49.875 C 83.757807 50.128914 83.874995 50.484381 83.875 50.9375 C 83.874995 51.390631 83.757807 51.746099 83.46875 52 C 83.183589 52.253912 82.757808 52.375006 82.25 52.375 C 81.738278 52.375006 81.347653 52.253912 81.0625 52 C 80.781248 51.746099 80.656248 51.390631 80.65625 50.9375 C 80.656248 50.484382 80.781248 50.128914 81.0625 49.875 C 81.347653 49.621102 81.738278 49.500008 82.25 49.5 z M 82.25 53.3125 C 82.816401 53.312503 83.273432 53.449223 83.59375 53.75 C 83.917963 54.050785 84.093744 54.472659 84.09375 55 C 84.093744 55.52344 83.917963 55.945314 83.59375 56.25 C 83.269526 56.550781 82.812495 56.6875 82.25 56.6875 C 81.687496 56.6875 81.261716 56.550781 80.9375 56.25 C 80.617186 55.94922 80.468748 55.527346 80.46875 55 C 80.468748 54.472659 80.617186 54.050784 80.9375 53.75 C 81.261716 53.449223 81.687496 53.312503 82.25 53.3125 z "
       id="path3934" />
    <path
       style="font-size:12px;font-style:normal;font-weight:normal;line-height:125%;letter-spacing:0px;word-spacing:0px;fill:#000000;fill-opacity:1;stroke:none;font-family:Sans"
       d="m 50.782601,86.466284 1.933593,0 0,-6.673829 -2.103515,0.421875 0,-1.078125 2.091797,-0.421875 1.183593,0 0,7.751954 1.933594,0 0,0.996094 -5.039062,0 0,-0.996094"
       id="path3909" />
    <path
       style="font-size:12px;font-style:normal;font-weight:normal;line-height:125%;letter-spacing:0px;word-spacing:0px;fill:#000000;fill-opacity:1;stroke:none;font-family:Sans"
       d="m 59.237679,86.466284 4.130859,0 0,0.996094 -5.554687,0 0,-0.996094 c 0.449217,-0.464843 1.060545,-1.087889 1.833984,-1.869141 0.77734,-0.785152 1.265621,-1.291012 1.464844,-1.517578 0.378902,-0.425777 0.642573,-0.785152 0.791015,-1.078125 0.152339,-0.29687 0.228511,-0.587885 0.228516,-0.873047 -5e-6,-0.464837 -0.164067,-0.843743 -0.492187,-1.136719 -0.324224,-0.292961 -0.748051,-0.439445 -1.271485,-0.439452 -0.371097,7e-6 -0.763674,0.06446 -1.177734,0.193358 -0.410158,0.128914 -0.849611,0.324226 -1.31836,0.585938 l 0,-1.195313 c 0.476562,-0.191398 0.921874,-0.335929 1.335938,-0.433594 0.41406,-0.09765 0.792966,-0.146474 1.136719,-0.146483 0.906245,9e-6 1.628901,0.226571 2.167968,0.679687 0.539057,0.453132 0.808588,1.0586 0.808594,1.816407 -6e-6,0.35938 -0.06837,0.701177 -0.205078,1.025389 -0.132818,0.320319 -0.376959,0.699225 -0.732422,1.136719 -0.09766,0.113286 -0.408208,0.441411 -0.93164,0.984375 -0.523442,0.539065 -1.261722,1.294924 -2.214844,2.267579"
       id="path3911" />
    <path
       style="font-size:12px;font-style:normal;font-weight:normal;line-height:125%;letter-spacing:0px;word-spacing:0px;fill:#000000;fill-opacity:1;stroke:none;font-family:Sans"
       d="M 68.8125 78.71875 L 65.15625 84.25 L 65.15625 85.40625 L 69.125 85.40625 L 69.125 87.46875 L 70.28125 87.46875 L 70.28125 85.40625 L 71.53125 85.40625 L 71.53125 84.40625 L 70.28125 84.40625 L 70.28125 78.71875 L 68.8125 78.71875 z M 69.125 79.75 L 69.125 84.40625 L 66.125 84.40625 L 69.125 79.75 z "
       id="path3913" />
    <path
       style="font-size:12px;font-style:normal;font-weight:normal;line-height:125%;letter-spacing:0px;word-spacing:0px;fill:#000000;fill-opacity:1;stroke:none;font-family:Sans"
       d="m 67.119926,120.55756 1.933594,0 0,-6.67384 -2.103516,0.42188 0,-1.07813 2.091797,-0.42187 1.183594,0 0,7.75196 1.933594,0 0,0.99609 -5.039063,0 0,-0.99609"
       id="path3898" />
    <path
       style="font-size:12px;font-style:normal;font-weight:normal;line-height:125%;letter-spacing:0px;word-spacing:0px;fill:#000000;fill-opacity:1;stroke:none;font-family:Sans"
       d="M 77.75 112.65625 C 76.644528 112.65625 75.749997 113.05079 75.09375 113.875 C 74.437498 114.69532 74.124999 115.80469 74.125 117.1875 C 74.124999 118.66015 74.371093 119.78515 74.90625 120.5625 C 75.441404 121.33593 76.207029 121.71875 77.21875 121.71875 C 78.101558 121.71875 78.812495 121.44922 79.34375 120.90625 C 79.874994 120.36328 80.156243 119.64844 80.15625 118.75 C 80.156243 117.83203 79.886712 117.09376 79.375 116.5625 C 78.867182 116.02735 78.191401 115.78125 77.3125 115.78125 C 76.894528 115.78125 76.503904 115.84766 76.15625 116.03125 C 75.808592 116.21094 75.511717 116.47267 75.28125 116.8125 C 75.339842 115.7461 75.589841 114.96485 76 114.4375 C 76.414059 113.91016 76.999996 113.65626 77.78125 113.65625 C 78.07812 113.65626 78.386714 113.6758 78.6875 113.75 C 78.992182 113.82422 79.296869 113.92189 79.59375 114.0625 L 79.59375 113 C 79.265619 112.88282 78.929682 112.8086 78.625 112.75 C 78.324214 112.6914 78.04687 112.65625 77.75 112.65625 z M 77.21875 116.71875 C 77.749996 116.71875 78.191401 116.88672 78.5 117.25 C 78.812495 117.61328 78.968744 118.11719 78.96875 118.75 C 78.968744 119.37891 78.812495 119.88281 78.5 120.25 C 78.191401 120.61328 77.749996 120.78125 77.21875 120.78125 C 76.687497 120.78125 76.281247 120.61328 75.96875 120.25 C 75.660154 119.88281 75.499998 119.37891 75.5 118.75 C 75.499998 118.11719 75.660154 117.61328 75.96875 117.25 C 76.281247 116.88672 76.687497 116.71875 77.21875 116.71875 z "
       id="path3900" />
    <path
       style="font-size:12px;font-style:normal;font-weight:normal;line-height:125%;letter-spacing:0px;word-spacing:0px;fill:#000000;fill-opacity:1;stroke:none;font-family:Sans"
       d="m 27.000073,109.28539 1.236329,0 0,1.48828 -1.236329,0 0,-1.48828"
       id="path3954" />
    <path
       style="font-size:12px;font-style:normal;font-weight:normal;line-height:125%;letter-spacing:0px;word-spacing:0px;fill:#000000;fill-opacity:1;stroke:none;font-family:Sans"
       d="m 34.992261,101.08227 1.236328,0 0,1.48828 -1.236328,0 0,-1.48828"
       id="path3952" />
    <path
       style="font-size:12px;font-style:normal;font-weight:normal;line-height:125%;letter-spacing:0px;word-spacing:0px;fill:#000000;fill-opacity:1;stroke:none;font-family:Sans"
       d="m 30.996167,105.18383 1.236328,0 0,1.48828 -1.236328,0 0,-1.48828"
       id="path3895" />
    <path
       inkscape:connector-curvature="0"
       style="font-size:12px;font-style:normal;font-weight:normal;line-height:125%;letter-spacing:0px;word-spacing:0px;fill:#000000;fill-opacity:1;stroke:none;font-family:Sans"
       d="m 167.70124,111.54322 1.23633,0 0,1.48828 -1.23633,0 0,-1.48828"
       id="path3954-5" />
    <path
       inkscape:connector-curvature="0"
       style="font-size:12px;font-style:normal;font-weight:normal;line-height:125%;letter-spacing:0px;word-spacing:0px;fill:#000000;fill-opacity:1;stroke:none;font-family:Sans"
       d="m 159.69343,103.3401 1.23633,0 0,1.48828 -1.23633,0 0,-1.48828"
       id="path3952-9" />
    <path
       inkscape:connector-curvature="0"
       style="font-size:12px;font-style:normal;font-weight:normal;line-height:125%;letter-spacing:0px;word-spacing:0px;fill:#000000;fill-opacity:1;stroke:none;font-family:Sans"
       d="m 163.69734,107.44166 1.23632,0 0,1.48828 -1.23632,0 0,-1.48828"
       id="path3895-8" />
    <path
       style="font-size:12px;font-style:normal;font-weight:normal;line-height:125%;letter-spacing:0px;word-spacing:0px;fill:#000000;fill-opacity:1;stroke:none;font-family:Sans"
       d="m 107.42773,42.732474 7.51172,0 0,0.996094 -7.51172,0 0,-0.996094"
       id="path4008" />
    <path
       style="font-size:12px;font-style:normal;font-weight:normal;line-height:125%;letter-spacing:0px;word-spacing:0px;fill:#000000;fill-opacity:1;stroke:none;font-family:Sans"
       d="m 121.08008,42.275443 c 0.5664,0.121098 1.0078,0.373051 1.32422,0.755859 0.3203,0.382817 0.48046,0.855472 0.48047,1.417969 -1e-5,0.863283 -0.29689,1.531251 -0.89063,2.003906 -0.59375,0.472657 -1.4375,0.708985 -2.53125,0.708985 -0.36719,0 -0.7461,-0.03711 -1.13672,-0.111328 -0.38672,-0.07031 -0.78711,-0.177735 -1.20117,-0.322266 l 0,-1.142578 c 0.32812,0.191407 0.6875,0.335939 1.07813,0.433594 0.39062,0.09766 0.79882,0.146485 1.2246,0.146484 0.74219,10e-7 1.30664,-0.146483 1.69336,-0.439453 0.39062,-0.292967 0.58594,-0.718748 0.58594,-1.277344 0,-0.515622 -0.18164,-0.917965 -0.54492,-1.207031 -0.35938,-0.292965 -0.86133,-0.439449 -1.50586,-0.439453 l -1.01953,0 0,-0.972656 1.06641,0 c 0.58202,5e-6 1.02733,-0.11523 1.33593,-0.345704 0.30859,-0.234369 0.46289,-0.570306 0.46289,-1.007812 0,-0.449212 -0.16016,-0.792962 -0.48047,-1.03125 -0.31641,-0.24218 -0.77148,-0.363273 -1.36523,-0.363281 -0.32422,8e-6 -0.67188,0.03516 -1.04297,0.105468 -0.37109,0.07032 -0.7793,0.179696 -1.22461,0.328125 l 0,-1.054687 c 0.44922,-0.124991 0.86914,-0.218741 1.25977,-0.28125 0.39453,-0.06249 0.76562,-0.09374 1.11328,-0.09375 0.89843,9e-6 1.60937,0.205087 2.13281,0.615234 0.52343,0.406258 0.78515,0.957039 0.78516,1.652344 -10e-6,0.484381 -0.13868,0.894537 -0.41602,1.230469 -0.27735,0.332036 -0.67188,0.562505 -1.18359,0.691406"
       id="path4010" />
    <path
       style="font-size:12px;font-style:normal;font-weight:normal;line-height:125%;letter-spacing:0px;word-spacing:0px;fill:#000000;fill-opacity:1;stroke:none;font-family:Sans"
       d="m 155.39844,38.244193 5.625,0 0,0.503906 -3.17578,8.244141 -1.23633,0 2.98828,-7.751953 -4.20117,0 0,-0.996094"
       id="path4012" />
    <path
       style="font-size:12px;font-style:normal;font-weight:normal;line-height:125%;letter-spacing:0px;word-spacing:0px;fill:#000000;fill-opacity:1;stroke:none;font-family:Sans"
       d="m 134.38672,75.996146 1.93359,0 0,-6.673828 -2.10351,0.421875 0,-1.078125 2.09179,-0.421875 1.1836,0 0,7.751953 1.93359,0 0,0.996094 -5.03906,0 0,-0.996094"
       id="path4014" />
    <path
       style="font-size:12px;font-style:normal;font-weight:normal;line-height:125%;letter-spacing:0px;word-spacing:0px;fill:#000000;fill-opacity:1;stroke:none;font-family:Sans"
       d="m 111.46484,120.99615 1.9336,0 0,-6.67383 -2.10352,0.42187 0,-1.07812 2.0918,-0.42188 1.18359,0 0,7.75196 1.9336,0 0,0.99609 -5.03907,0 0,-0.99609"
       id="path4016" />
    <path
       style="font-size:12px;font-style:normal;font-weight:normal;line-height:125%;letter-spacing:0px;word-spacing:0px;fill:#000000;fill-opacity:1;stroke:none;font-family:Sans"
       d="m 122.48633,117.27544 c 0.5664,0.1211 1.0078,0.37305 1.32422,0.75586 0.3203,0.38282 0.48046,0.85547 0.48047,1.41797 -1e-5,0.86328 -0.29689,1.53125 -0.89063,2.00391 -0.59375,0.47265 -1.4375,0.70898 -2.53125,0.70898 -0.36719,0 -0.7461,-0.0371 -1.13672,-0.11133 -0.38672,-0.0703 -0.78711,-0.17773 -1.20117,-0.32226 l 0,-1.14258 c 0.32812,0.19141 0.6875,0.33594 1.07813,0.43359 0.39062,0.0977 0.79882,0.14649 1.2246,0.14649 0.74219,0 1.30664,-0.14649 1.69336,-0.43946 0.39062,-0.29296 0.58594,-0.71874 0.58594,-1.27734 0,-0.51562 -0.18164,-0.91796 -0.54492,-1.20703 -0.35938,-0.29296 -0.86133,-0.43945 -1.50586,-0.43945 l -1.01953,0 0,-0.97266 1.06641,0 c 0.58202,1e-5 1.02733,-0.11523 1.33593,-0.3457 0.30859,-0.23437 0.46289,-0.57031 0.46289,-1.00782 0,-0.44921 -0.16016,-0.79296 -0.48047,-1.03125 -0.31641,-0.24217 -0.77148,-0.36327 -1.36523,-0.36328 -0.32422,10e-6 -0.67188,0.0352 -1.04297,0.10547 -0.37109,0.0703 -0.7793,0.1797 -1.22461,0.32813 l 0,-1.05469 c 0.44922,-0.12499 0.86914,-0.21874 1.25977,-0.28125 0.39453,-0.0625 0.76562,-0.0937 1.11328,-0.0937 0.89843,1e-5 1.60937,0.20509 2.13281,0.61523 0.52343,0.40626 0.78515,0.95704 0.78516,1.65235 -10e-6,0.48438 -0.13868,0.89454 -0.41602,1.23047 -0.27735,0.33203 -0.67188,0.5625 -1.18359,0.6914"
       id="path4018" />
  </g>
</svg>
