<?xml version="1.0" encoding="UTF-8" standalone="no"?>
<!-- Created with Inkscape (http://www.inkscape.org/) -->

<svg
   xmlns:dc="http://purl.org/dc/elements/1.1/"
   xmlns:cc="http://creativecommons.org/ns#"
   xmlns:rdf="http://www.w3.org/1999/02/22-rdf-syntax-ns#"
   xmlns:svg="http://www.w3.org/2000/svg"
   xmlns="http://www.w3.org/2000/svg"
   xmlns:sodipodi="http://sodipodi.sourceforge.net/DTD/sodipodi-0.dtd"
   xmlns:inkscape="http://www.inkscape.org/namespaces/inkscape"
   width="400"
   height="170"
   id="svg2"
   version="1.1"
   inkscape:version="0.48.0 r9654"
   sodipodi:docname="2011-(02)feb-09, 01.svg">
  <defs
     id="defs4" />
  <sodipodi:namedview
     id="base"
     pagecolor="#ffffff"
     bordercolor="#666666"
     borderopacity="1.0"
     inkscape:pageopacity="0.0"
     inkscape:pageshadow="2"
     inkscape:zoom="1"
     inkscape:cx="-42.148371"
     inkscape:cy="274.59893"
     inkscape:document-units="px"
     inkscape:current-layer="layer1"
     showgrid="false"
     inkscape:window-width="1589"
     inkscape:window-height="1117"
     inkscape:window-x="1600"
     inkscape:window-y="27"
     inkscape:window-maximized="1"
     showguides="true"
     inkscape:guide-bbox="true" />
  <metadata
     id="metadata7">
    <rdf:RDF>
      <cc:Work
         rdf:about="">
        <dc:format>image/svg+xml</dc:format>
        <dc:type
           rdf:resource="http://purl.org/dc/dcmitype/StillImage" />
        <dc:title />
      </cc:Work>
    </rdf:RDF>
  </metadata>
  <g
     inkscape:label="Layer 1"
     inkscape:groupmode="layer"
     id="layer1">
    <path
       style="font-size:medium;font-style:normal;font-variant:normal;font-weight:normal;font-stretch:normal;text-indent:0;text-align:start;text-decoration:none;line-height:normal;letter-spacing:normal;word-spacing:normal;text-transform:none;direction:ltr;block-progression:tb;writing-mode:lr-tb;text-anchor:start;baseline-shift:baseline;color:#000000;fill:#000000;fill-opacity:1;fill-rule:nonzero;stroke:none;stroke-width:1;marker:none;visibility:visible;display:inline;overflow:visible;enable-background:accumulate;font-family:Sans;-inkscape-font-specification:Sans"
       d="M 73.5 30.5 C 39.798687 30.5 12.5 59.624172 12.5 95.5 C 12.5 131.37583 39.798687 160.5 73.5 160.5 C 107.20132 160.5 134.5 131.37583 134.5 95.5 C 134.5 59.624172 107.20132 30.5 73.5 30.5 z M 73.5 31.5 C 106.62514 31.5 133.5 60.131096 133.5 95.5 C 133.5 130.86891 106.62514 159.5 73.5 159.5 C 40.374859 159.5 13.5 130.86891 13.5 95.5 C 13.5 60.131096 40.374859 31.5 73.5 31.5 z "
       id="path3042" />
    <path
       style="font-size:medium;font-style:normal;font-variant:normal;font-weight:normal;font-stretch:normal;text-indent:0;text-align:start;text-decoration:none;line-height:normal;letter-spacing:normal;word-spacing:normal;text-transform:none;direction:ltr;block-progression:tb;writing-mode:lr-tb;text-anchor:start;baseline-shift:baseline;color:#000000;fill:#000000;fill-opacity:1;fill-rule:nonzero;stroke:none;stroke-width:1;marker:none;visibility:visible;display:inline;overflow:visible;enable-background:accumulate;font-family:Sans;-inkscape-font-specification:Sans"
       d="M 333 36.5 C 300.67397 36.5 274.5 64.957287 274.5 100 C 274.5 135.04271 300.67397 163.5 333 163.5 C 365.32603 163.5 391.5 135.04271 391.5 100 C 391.5 64.957287 365.32603 36.5 333 36.5 z M 333 37.5 C 364.73901 37.5 390.5 65.454835 390.5 100 C 390.5 134.54517 364.73901 162.5 333 162.5 C 301.26099 162.5 275.5 134.54517 275.5 100 C 275.5 65.454835 301.26099 37.5 333 37.5 z "
       id="path3064" />
    <path
       style="font-size:22px;font-style:normal;font-weight:normal;line-height:125%;letter-spacing:0px;word-spacing:0px;fill:#000000;fill-opacity:1;stroke:none;font-family:Sans"
       d="m 67.393555,8.8903956 2.331054,0 3.985352,5.9619144 4.006836,-5.9619144 2.331055,0 -5.15625,7.7021484 5.5,8.335938 -2.331055,0 -4.511719,-6.82129 -4.543945,6.82129 -2.341797,0 5.725586,-8.561524 -4.995117,-7.4765624"
       id="path3068" />
    <path
       style="font-size:22px;font-style:normal;font-weight:normal;line-height:125%;letter-spacing:0px;word-spacing:0px;fill:#000000;fill-opacity:1;stroke:none;font-family:Sans"
       d="m 326.18359,8.8903956 2.33106,0 4.44726,6.5957034 4.41504,-6.5957034 2.33106,0 -5.67188,8.4003904 0,7.637696 -2.18066,0 0,-7.637696 -5.67188,-8.4003904"
       id="path3070" />
    <path
       style="font-size:medium;font-style:normal;font-variant:normal;font-weight:normal;font-stretch:normal;text-indent:0;text-align:start;text-decoration:none;line-height:normal;letter-spacing:normal;word-spacing:normal;text-transform:none;direction:ltr;block-progression:tb;writing-mode:lr-tb;text-anchor:start;baseline-shift:baseline;color:#000000;fill:#000000;fill-opacity:1;stroke:none;stroke-width:1px;marker:none;visibility:visible;display:inline;overflow:visible;enable-background:accumulate;font-family:Sans;-inkscape-font-specification:Sans"
       d="m 189.15625,43.09375 c -38.39069,0.686627 -79.87506,5.604683 -119.3125,18.4375 l 0.3125,0.9375 c 125.8002,-40.934984 272.71875,-1 272.71875,-1 l 0.25,-0.9375 c 0,0 -69.50922,-18.948079 -153.96875,-17.4375 z"
       id="path3078" />
    <path
       style="font-size:12px;fill-rule:evenodd;stroke-width:0.625;stroke-linejoin:round"
       d="m 333.84964,53.911662 10.43641,7.420029 -12.75719,1.108844 c 2.53778,-2.01359 3.46443,-5.461174 2.32078,-8.528873 z"
       id="path4912" />
    <path
       style="font-size:medium;font-style:normal;font-variant:normal;font-weight:normal;font-stretch:normal;text-indent:0;text-align:start;text-decoration:none;line-height:normal;letter-spacing:normal;word-spacing:normal;text-transform:none;direction:ltr;block-progression:tb;writing-mode:lr-tb;text-anchor:start;baseline-shift:baseline;color:#000000;fill:#000000;fill-opacity:1;stroke:none;stroke-width:1px;marker:none;visibility:visible;display:inline;overflow:visible;enable-background:accumulate;font-family:Sans;-inkscape-font-specification:Sans"
       d="m 343.625,63.03125 c -125.8002,40.93499 -272.71875,1 -272.71875,1 L 70.65625,65 c 0,0 147.08145,40.06502 273.28125,-1 l -0.3125,-0.96875 z"
       id="path4669" />
    <path
       style="font-size:12px;fill-rule:evenodd;stroke-width:0.625;stroke-linejoin:round"
       d="M 79.936408,71.603194 69.5,64.183165 82.25719,63.074322 c -2.537778,2.013589 -3.46443,5.461174 -2.320782,8.528872 z"
       id="path4904" />
    <path
       style="font-size:medium;font-style:normal;font-variant:normal;font-weight:normal;font-stretch:normal;text-indent:0;text-align:start;text-decoration:none;line-height:normal;letter-spacing:normal;word-spacing:normal;text-transform:none;direction:ltr;block-progression:tb;writing-mode:lr-tb;text-anchor:start;baseline-shift:baseline;color:#000000;fill:#000000;fill-opacity:1;stroke:none;stroke-width:1;marker:none;visibility:visible;display:inline;overflow:visible;enable-background:accumulate;font-family:Sans;-inkscape-font-specification:Sans"
       d="m 202.03125,90.59375 c -73.86253,0.776722 -131.3125,7.875 -131.3125,7.875 l 0.125,1 c 0,0 146.9772,-18.175122 272.875,0.4375 l 0.125,-1 c -47.28833,-6.991065 -97.49498,-8.778533 -141.8125,-8.3125 z"
       id="path4671" />
    <path
       style="font-size:12px;fill-rule:evenodd;stroke-width:0.625;stroke-linejoin:round"
       d="M 81.940134,102.0509 69.470227,99.139392 80.855639,93.278691 c -1.585398,2.825132 -1.136408,6.366732 1.084495,8.772209 z"
       id="path4896" />
    <path
       style="font-size:medium;font-style:normal;font-variant:normal;font-weight:normal;font-stretch:normal;text-indent:0;text-align:start;text-decoration:none;line-height:normal;letter-spacing:normal;word-spacing:normal;text-transform:none;direction:ltr;block-progression:tb;writing-mode:lr-tb;text-anchor:start;baseline-shift:baseline;color:#000000;fill:#000000;fill-opacity:1;stroke:none;stroke-width:1;marker:none;visibility:visible;display:inline;overflow:visible;enable-background:accumulate;font-family:Sans;-inkscape-font-specification:Sans"
       d="m 70.0625,102.59375 -0.125,1 c 126.1022,18.64284 273.125,0.46875 273.125,0.46875 l -0.125,-1 c 0,0 -146.9772,18.14387 -272.875,-0.46875 z"
       id="path4673" />
    <path
       style="font-size:12px;fill-rule:evenodd;stroke-width:0.625;stroke-linejoin:round"
       d="m 331.84592,100.46396 12.4699,2.91151 -11.38541,5.8607 c 1.5854,-2.82513 1.13641,-6.36673 -1.08449,-8.77221 z"
       id="path4888" />
    <path
       style="font-size:medium;font-style:normal;font-variant:normal;font-weight:normal;font-stretch:normal;text-indent:0;text-align:start;text-decoration:none;line-height:normal;letter-spacing:normal;word-spacing:normal;text-transform:none;direction:ltr;block-progression:tb;writing-mode:lr-tb;text-anchor:start;baseline-shift:baseline;color:#000000;fill:#000000;fill-opacity:1;stroke:none;stroke-width:1;marker:none;visibility:visible;display:inline;overflow:visible;enable-background:accumulate;font-family:Sans;-inkscape-font-specification:Sans"
       d="m 202.03125,120.59375 c -73.86253,0.77672 -131.3125,7.875 -131.3125,7.875 l 0.125,1 c 0,0 146.9772,-18.17512 272.875,0.4375 l 0.125,-1 c -47.28833,-6.99106 -97.49498,-8.77853 -141.8125,-8.3125 z"
       id="path4675" />
    <path
       style="font-size:12px;fill-rule:evenodd;stroke-width:0.625;stroke-linejoin:round"
       d="m 81.940134,132.0509 -12.469907,-2.91151 11.385412,-5.8607 c -1.585398,2.82513 -1.136408,6.36673 1.084495,8.77221 z"
       id="path4880" />
    <path
       style="font-size:medium;font-style:normal;font-variant:normal;font-weight:normal;font-stretch:normal;text-indent:0;text-align:start;text-decoration:none;line-height:normal;letter-spacing:normal;word-spacing:normal;text-transform:none;direction:ltr;block-progression:tb;writing-mode:lr-tb;text-anchor:start;baseline-shift:baseline;color:#000000;fill:#000000;fill-opacity:1;stroke:none;stroke-width:1;marker:none;visibility:visible;display:inline;overflow:visible;enable-background:accumulate;font-family:Sans;-inkscape-font-specification:Sans"
       d="m 70.0625,132.59375 -0.125,1 c 126.1022,18.64284 273.125,0.46875 273.125,0.46875 l -0.125,-1 c 0,0 -146.9772,18.14387 -272.875,-0.46875 z"
       id="path4677" />
    <path
       style="font-size:12px;fill-rule:evenodd;stroke-width:0.625;stroke-linejoin:round"
       d="m 331.84592,130.46396 12.4699,2.91151 -11.38541,5.8607 c 1.5854,-2.82513 1.13641,-6.36673 -1.08449,-8.77221 z"
       id="path4872" />
    <path
       style="color:#000000;fill:#000000;fill-opacity:1;stroke:none;stroke-width:1;marker:none;visibility:visible;display:inline;overflow:visible;enable-background:accumulate"
       d="m 74,62 c 0,2.209139 -1.790861,4 -4,4 -2.209139,0 -4,-1.790861 -4,-4 0,-2.209139 1.790861,-4 4,-4 2.209139,0 4,1.790861 4,4 z"
       id="path4679" />
    <path
       style="color:#000000;fill:#000000;fill-opacity:1;stroke:none;stroke-width:1;marker:none;visibility:visible;display:inline;overflow:visible;enable-background:accumulate"
       d="m 72.942911,100.70354 c 0,2.20913 -1.790861,4 -4,4 -2.209139,0 -4,-1.79087 -4,-4 0,-2.209144 1.790861,-4.000005 4,-4.000005 2.209139,0 4,1.790861 4,4.000005 z"
       id="path4679-1" />
    <path
       style="color:#000000;fill:#000000;fill-opacity:1;stroke:none;stroke-width:1;marker:none;visibility:visible;display:inline;overflow:visible;enable-background:accumulate"
       d="m 72.589358,130.75557 c 0,2.20914 -1.790861,4 -4,4 -2.209139,0 -4,-1.79086 -4,-4 0,-2.20914 1.790861,-4 4,-4 2.209139,0 4,1.79086 4,4 z"
       id="path4679-0" />
    <path
       style="color:#000000;fill:#000000;fill-opacity:1;stroke:none;stroke-width:1;marker:none;visibility:visible;display:inline;overflow:visible;enable-background:accumulate"
       d="m 348.00745,131.10913 c 0,2.20914 -1.79086,4 -4,4 -2.20914,0 -4,-1.79086 -4,-4 0,-2.20914 1.79086,-4 4,-4 2.20914,0 4,1.79086 4,4 z"
       id="path4679-3" />
    <path
       style="color:#000000;fill:#000000;fill-opacity:1;stroke:none;stroke-width:1;marker:none;visibility:visible;display:inline;overflow:visible;enable-background:accumulate"
       d="m 348.71456,100.34998 c 0,2.20914 -1.79086,4 -4,4 -2.20914,0 -4,-1.79086 -4,-4 0,-2.209137 1.79086,-3.999998 4,-3.999998 2.20914,0 4,1.790861 4,3.999998 z"
       id="path4679-04" />
    <path
       style="color:#000000;fill:#000000;fill-opacity:1;stroke:none;stroke-width:1;marker:none;visibility:visible;display:inline;overflow:visible;enable-background:accumulate"
       d="m 349.42166,61.812662 c 0,2.209139 -1.79086,4 -4,4 -2.20914,0 -4,-1.790861 -4,-4 0,-2.209139 1.79086,-4 4,-4 2.20914,0 4,1.790861 4,4 z"
       id="path4679-4" />
    <path
       style="font-size:12px;font-style:normal;font-weight:normal;line-height:125%;letter-spacing:0px;word-spacing:0px;fill:#000000;fill-opacity:1;stroke:none;font-family:Sans"
       d="m 199.45313,25.843802 0,0.896485 -1.03125,0 c -0.38673,8e-6 -0.65626,0.07813 -0.8086,0.234375 -0.14844,0.156258 -0.22266,0.437507 -0.22265,0.84375 l 0,0.580078 1.77539,0 0,0.837891 -1.77539,0 0,6.123046 c -10e-6,0.730468 -0.16993,1.261718 -0.50977,1.59375 -0.33985,0.335936 -0.87891,0.503904 -1.61719,0.503907 l -1.01953,0 0,-0.896485 1.03125,0 c 0.38672,-1e-6 0.6543,-0.07813 0.80274,-0.234375 0.15234,-0.156251 0.22851,-0.437501 0.22851,-0.84375 l 0,-6.246093 -1.03125,0 0,-0.837891 1.03125,0 0,-0.457031 c 0,-0.730461 0.16992,-1.261711 0.50977,-1.59375 0.33984,-0.335929 0.8789,-0.503897 1.61718,-0.503907 l 1.01954,0"
       id="path4849" />
    <path
       style="font-size:12px;font-style:normal;font-weight:normal;line-height:125%;letter-spacing:0px;word-spacing:0px;fill:#000000;fill-opacity:1;stroke:none;font-family:Sans"
       d="M 200.3125 69.875 C 199.50781 69.875007 198.86719 70.199225 198.375 70.8125 C 197.88281 71.425786 197.65625 72.234379 197.65625 73.25 C 197.65625 74.261721 197.88281 75.07422 198.375 75.6875 C 198.86719 76.300782 199.50781 76.59375 200.3125 76.59375 C 200.79687 76.59375 201.21484 76.503906 201.5625 76.3125 C 201.91015 76.121094 202.21484 75.82422 202.4375 75.4375 L 202.4375 75.96875 C 202.43749 76.714844 202.2578 77.289062 201.90625 77.65625 C 201.55468 78.027342 201.01953 78.218748 200.3125 78.21875 C 199.99219 78.218748 199.68359 78.17578 199.375 78.09375 C 199.0664 78.011717 198.7539 77.890624 198.4375 77.71875 L 198.4375 78.75 C 198.7539 78.867185 199.07031 78.94531 199.40625 79 C 199.74219 79.05859 200.08984 79.093747 200.46875 79.09375 C 201.49218 79.093747 202.2539 78.828123 202.75 78.28125 C 203.24609 77.73828 203.5 76.898437 203.5 75.78125 L 203.5 70.03125 L 202.4375 70.03125 L 202.4375 71.03125 C 202.21484 70.644537 201.91015 70.347663 201.5625 70.15625 C 201.21484 69.964851 200.79687 69.875007 200.3125 69.875 z M 200.59375 70.78125 C 201.17577 70.781255 201.61718 71.007818 201.9375 71.4375 C 202.26171 71.867192 202.43749 72.468754 202.4375 73.25 C 202.43749 74.027346 202.26171 74.632814 201.9375 75.0625 C 201.61718 75.492189 201.17577 75.687501 200.59375 75.6875 C 200.01562 75.687501 199.57422 75.492189 199.25 75.0625 C 198.92968 74.632814 198.75 74.027346 198.75 73.25 C 198.75 72.468754 198.92968 71.867192 199.25 71.4375 C 199.57422 71.007818 200.01562 70.781255 200.59375 70.78125 z "
       id="path4852" />
    <path
       style="font-size:12px;font-style:normal;font-weight:normal;line-height:125%;letter-spacing:0px;word-spacing:0px;fill:#000000;fill-opacity:1;stroke:none;font-family:Sans"
       d="M 312.71875 83.78125 C 311.91406 83.781257 311.27344 84.074225 310.78125 84.6875 C 310.28906 85.300786 310.03125 86.140629 310.03125 87.15625 C 310.03125 88.167971 310.28906 88.98047 310.78125 89.59375 C 311.27344 90.207032 311.91406 90.5 312.71875 90.5 C 313.20312 90.5 313.62109 90.410156 313.96875 90.21875 C 314.3164 90.027344 314.62109 89.73047 314.84375 89.34375 L 314.84375 89.875 C 314.84374 90.621094 314.66405 91.195312 314.3125 91.5625 C 313.96093 91.933592 313.42578 92.093748 312.71875 92.09375 C 312.39844 92.093748 312.08984 92.08203 311.78125 92 C 311.47265 91.917967 311.16015 91.765624 310.84375 91.59375 L 310.84375 92.65625 C 311.16015 92.773435 311.47656 92.85156 311.8125 92.90625 C 312.14844 92.96484 312.49609 92.999997 312.875 93 C 313.89843 92.999997 314.66015 92.734373 315.15625 92.1875 C 315.65234 91.64453 315.90625 90.804687 315.90625 89.6875 L 315.90625 83.9375 L 314.84375 83.9375 L 314.84375 84.9375 C 314.62109 84.550787 314.3164 84.253913 313.96875 84.0625 C 313.62109 83.871101 313.20312 83.781257 312.71875 83.78125 z M 313 84.6875 C 313.58202 84.687505 314.02343 84.914068 314.34375 85.34375 C 314.66796 85.773442 314.84374 86.375004 314.84375 87.15625 C 314.84374 87.933596 314.66796 88.539064 314.34375 88.96875 C 314.02343 89.398439 313.58202 89.593751 313 89.59375 C 312.42187 89.593751 311.94922 89.398439 311.625 88.96875 C 311.30468 88.539064 311.15625 87.933596 311.15625 87.15625 C 311.15625 86.375004 311.30468 85.773442 311.625 85.34375 C 311.94922 84.914068 312.42187 84.687505 313 84.6875 z "
       id="path4855" />
    <path
       style="font-size:12px;font-style:normal;font-weight:normal;line-height:125%;letter-spacing:0px;word-spacing:0px;fill:#000000;fill-opacity:1;stroke:none;font-family:Sans"
       d="M 97.03125 115.1875 C 96.22656 115.18751 95.55469 115.48047 95.0625 116.09375 C 94.57031 116.70704 94.34375 117.54688 94.34375 118.5625 C 94.34375 119.57422 94.57031 120.38672 95.0625 121 C 95.55469 121.61328 96.22656 121.90625 97.03125 121.90625 C 97.51562 121.90625 97.93359 121.81641 98.28125 121.625 C 98.6289 121.4336 98.90234 121.13672 99.125 120.75 L 99.125 121.28125 C 99.12499 122.02734 98.9453 122.60156 98.59375 122.96875 C 98.24218 123.33984 97.70703 123.5 97 123.5 C 96.67969 123.5 96.37109 123.457 96.0625 123.375 C 95.7539 123.29297 95.4414 123.17188 95.125 123 L 95.125 124.0625 C 95.4414 124.17969 95.75781 124.2578 96.09375 124.3125 C 96.42969 124.3711 96.80859 124.40625 97.1875 124.40625 C 98.21093 124.40625 98.97265 124.14062 99.46875 123.59375 C 99.96484 123.05078 100.1875 122.21093 100.1875 121.09375 L 100.1875 115.34375 L 99.125 115.34375 L 99.125 116.34375 C 98.90234 115.95703 98.6289 115.66016 98.28125 115.46875 C 97.93359 115.27734 97.51562 115.18751 97.03125 115.1875 z M 97.28125 116.09375 C 97.86327 116.09376 98.30468 116.28907 98.625 116.71875 C 98.94921 117.14844 99.12499 117.78125 99.125 118.5625 C 99.12499 119.33984 98.94921 119.94532 98.625 120.375 C 98.30468 120.80469 97.86327 121 97.28125 121 C 96.70312 121 96.26172 120.80469 95.9375 120.375 C 95.61718 119.94532 95.4375 119.33984 95.4375 118.5625 C 95.4375 117.78125 95.61718 117.14844 95.9375 116.71875 C 96.26172 116.28907 96.70312 116.09376 97.28125 116.09375 z "
       id="path4858" />
    <path
       style="font-size:12px;font-style:normal;font-weight:normal;line-height:125%;letter-spacing:0px;word-spacing:0px;fill:#000000;fill-opacity:1;stroke:none;font-family:Sans"
       d="m 318.46981,108.62481 0,0.89649 -1.03125,0 c -0.38673,1e-5 -0.65626,0.0781 -0.8086,0.23437 -0.14844,0.15626 -0.22266,0.43751 -0.22265,0.84375 l 0,0.58008 1.77539,0 0,0.83789 -1.77539,0 0,6.12305 c -10e-6,0.73047 -0.16993,1.26172 -0.50977,1.59375 -0.33985,0.33593 -0.87891,0.5039 -1.61719,0.5039 l -1.01953,0 0,-0.89648 1.03125,0 c 0.38672,0 0.6543,-0.0781 0.80274,-0.23438 0.15234,-0.15625 0.22851,-0.4375 0.22851,-0.84375 l 0,-6.24609 -1.03125,0 0,-0.83789 1.03125,0 0,-0.45703 c 0,-0.73046 0.16992,-1.26171 0.50977,-1.59375 0.33984,-0.33593 0.8789,-0.5039 1.61718,-0.50391 l 1.01954,0"
       id="path4861"
       inkscape:connector-curvature="0" />
    <path
       style="font-size:12px;font-style:normal;font-weight:normal;line-height:125%;letter-spacing:0px;word-spacing:0px;fill:#000000;fill-opacity:1;stroke:none;font-family:Sans"
       d="m 94.164418,139.61619 0,0.89649 -1.03125,0 c -0.38673,0 -0.65626,0.0781 -0.8086,0.23437 -0.14844,0.15626 -0.22266,0.43751 -0.22265,0.84375 l 0,0.58008 1.77539,0 0,0.83789 -1.77539,0 0,6.12305 c -1e-5,0.73046 -0.16993,1.26171 -0.50977,1.59375 -0.33985,0.33593 -0.87891,0.5039 -1.61719,0.5039 l -1.01953,0 0,-0.89648 1.03125,0 c 0.38672,0 0.6543,-0.0781 0.80274,-0.23438 0.15234,-0.15625 0.22851,-0.4375 0.22851,-0.84375 l 0,-6.24609 -1.03125,0 0,-0.83789 1.03125,0 0,-0.45703 c 0,-0.73046 0.16992,-1.26171 0.50977,-1.59375 0.33984,-0.33593 0.8789,-0.5039 1.61718,-0.50391 l 1.01954,0"
       id="path4864" />
  </g>
</svg>
