<?xml version="1.0" encoding="UTF-8" standalone="no"?>
<!-- Created with Inkscape (http://www.inkscape.org/) -->

<svg
   xmlns:dc="http://purl.org/dc/elements/1.1/"
   xmlns:cc="http://creativecommons.org/ns#"
   xmlns:rdf="http://www.w3.org/1999/02/22-rdf-syntax-ns#"
   xmlns:svg="http://www.w3.org/2000/svg"
   xmlns="http://www.w3.org/2000/svg"
   xmlns:sodipodi="http://sodipodi.sourceforge.net/DTD/sodipodi-0.dtd"
   xmlns:inkscape="http://www.inkscape.org/namespaces/inkscape"
   width="120"
   height="120"
   id="svg2"
   version="1.1"
   inkscape:version="0.48.0 r9654"
   sodipodi:docname="2011-(02)feb-02, 02.svg">
  <defs
     id="defs4" />
  <sodipodi:namedview
     id="base"
     pagecolor="#ffffff"
     bordercolor="#666666"
     borderopacity="1.0"
     inkscape:pageopacity="0.0"
     inkscape:pageshadow="2"
     inkscape:zoom="2.1848926"
     inkscape:cx="110.20256"
     inkscape:cy="30.443273"
     inkscape:document-units="px"
     inkscape:current-layer="layer1"
     showgrid="false"
     inkscape:window-width="1589"
     inkscape:window-height="1117"
     inkscape:window-x="1600"
     inkscape:window-y="27"
     inkscape:window-maximized="1"
     showguides="true"
     inkscape:guide-bbox="true" />
  <metadata
     id="metadata7">
    <rdf:RDF>
      <cc:Work
         rdf:about="">
        <dc:format>image/svg+xml</dc:format>
        <dc:type
           rdf:resource="http://purl.org/dc/dcmitype/StillImage" />
        <dc:title />
      </cc:Work>
    </rdf:RDF>
  </metadata>
  <g
     inkscape:label="Layer 1"
     inkscape:groupmode="layer"
     id="layer1">
    <path
       style="font-size:24px;font-style:normal;font-weight:normal;line-height:125%;letter-spacing:0px;word-spacing:0px;fill:#000000;fill-opacity:1;stroke:none;font-family:Sans"
       d="M 52.0625 31.0625 L 52.0625 48.53125 L 58.34375 48.53125 C 60.304677 48.53125 61.812488 48.132813 62.875 47.28125 C 63.937486 46.42969 64.468735 45.218754 64.46875 43.65625 C 64.468735 42.468756 64.148423 41.476569 63.5 40.6875 C 62.859362 39.890633 61.945301 39.375009 60.78125 39.125 C 61.749988 38.96876 62.468738 38.570323 62.96875 37.9375 C 63.468737 37.304699 63.718736 36.445324 63.71875 35.375 C 63.718736 33.992202 63.257799 32.937516 62.28125 32.1875 C 61.304676 31.437517 59.898427 31.062518 58.09375 31.0625 L 52.0625 31.0625 z M 54.40625 33 L 57.90625 33 C 59.06249 33.000015 59.937489 33.218765 60.5 33.65625 C 61.070301 34.093764 61.343739 34.742202 61.34375 35.625 C 61.343739 36.515637 61.070301 37.187511 60.5 37.625 C 59.937489 38.054698 59.06249 38.28126 57.90625 38.28125 L 54.40625 38.28125 L 54.40625 33 z M 54.40625 40.1875 L 58.21875 40.1875 C 59.492178 40.187508 60.421864 40.445321 61.03125 40.96875 C 61.648426 41.484382 61.968738 42.281256 61.96875 43.375 C 61.968738 44.460941 61.648426 45.281253 61.03125 45.8125 C 60.421864 46.33594 59.492178 46.593752 58.21875 46.59375 L 54.40625 46.59375 L 54.40625 40.1875 z "
       id="path3033" />
    <path
       style="font-size:medium;font-style:normal;font-variant:normal;font-weight:normal;font-stretch:normal;text-indent:0;text-align:start;text-decoration:none;line-height:normal;letter-spacing:normal;word-spacing:normal;text-transform:none;direction:ltr;block-progression:tb;writing-mode:lr-tb;text-anchor:start;baseline-shift:baseline;color:#000000;fill:#000000;fill-opacity:1;stroke:none;stroke-width:1;marker:none;visibility:visible;display:inline;overflow:visible;enable-background:accumulate;font-family:Sans;-inkscape-font-specification:Sans"
       d="M 60.875 10.09375 C 29.777387 10.09375 4.53125 34.299885 4.53125 64.15625 C 4.53125 94.012616 29.777387 118.21875 60.875 118.21875 C 91.972613 118.21875 117.1875 94.012616 117.1875 64.15625 C 117.1875 34.299885 91.972613 10.09375 60.875 10.09375 z M 60.875 11.09375 C 91.454323 11.09375 116.1875 34.863421 116.1875 64.15625 C 116.1875 93.44908 91.454323 117.21875 60.875 117.21875 C 30.295677 117.21875 5.53125 93.44908 5.53125 64.15625 C 5.53125 34.863421 30.295677 11.09375 60.875 11.09375 z "
       id="path3057" />
    <path
       style="font-size:medium;font-style:normal;font-variant:normal;font-weight:normal;font-stretch:normal;text-indent:0;text-align:start;text-decoration:none;line-height:normal;letter-spacing:normal;word-spacing:normal;text-transform:none;direction:ltr;block-progression:tb;writing-mode:lr-tb;text-anchor:start;baseline-shift:baseline;color:#000000;fill:#000000;fill-opacity:1;stroke:none;stroke-width:1;marker:none;visibility:visible;display:inline;overflow:visible;enable-background:accumulate;font-family:Sans;-inkscape-font-specification:Sans"
       d="M 63.625 51.75 C 46.943156 51.75 33.375 64.354334 33.375 79.9375 C 33.375 95.520666 46.943157 108.125 63.625 108.125 C 80.306843 108.125 93.875 95.520666 93.875 79.9375 C 93.875 64.354334 80.306844 51.75 63.625 51.75 z M 63.625 52.75 C 79.803818 52.75 92.875 64.934972 92.875 79.9375 C 92.875 94.940028 79.803819 107.125 63.625 107.125 C 47.446181 107.125 34.375 94.940028 34.375 79.9375 C 34.375 64.934972 47.446182 52.75 63.625 52.75 z "
       id="path3061" />
    <path
       style="font-size:24px;font-style:normal;font-weight:normal;line-height:125%;letter-spacing:0px;word-spacing:0px;fill:#000000;fill-opacity:1;stroke:none;font-family:Sans"
       d="M 10.96875 3.75 L 4.3125 21.25 L 6.8125 21.25 L 8.40625 16.75 L 16.28125 16.75 L 17.875 21.25 L 20.34375 21.25 L 13.65625 3.75 L 10.96875 3.75 z M 12.3125 6.09375 L 15.53125 14.78125 L 9.09375 14.78125 L 12.3125 6.09375 z "
       id="path3030" />
  </g>
</svg>
