<?xml version="1.0" encoding="UTF-8" standalone="no"?>
<!-- Created with Inkscape (http://www.inkscape.org/) -->

<svg
   xmlns:dc="http://purl.org/dc/elements/1.1/"
   xmlns:cc="http://creativecommons.org/ns#"
   xmlns:rdf="http://www.w3.org/1999/02/22-rdf-syntax-ns#"
   xmlns:svg="http://www.w3.org/2000/svg"
   xmlns="http://www.w3.org/2000/svg"
   xmlns:sodipodi="http://sodipodi.sourceforge.net/DTD/sodipodi-0.dtd"
   xmlns:inkscape="http://www.inkscape.org/namespaces/inkscape"
   width="85"
   height="120"
   id="svg2"
   version="1.1"
   inkscape:version="0.48.0 r9654"
   sodipodi:docname="2011-(01)jan-14 - 05.svg">
  <defs
     id="defs4" />
  <sodipodi:namedview
     id="base"
     pagecolor="#ffffff"
     bordercolor="#666666"
     borderopacity="1.0"
     inkscape:pageopacity="0.0"
     inkscape:pageshadow="2"
     inkscape:zoom="4"
     inkscape:cx="2.6890901"
     inkscape:cy="21.023154"
     inkscape:document-units="px"
     inkscape:current-layer="layer1"
     showgrid="false"
     inkscape:window-width="1589"
     inkscape:window-height="1117"
     inkscape:window-x="1600"
     inkscape:window-y="27"
     inkscape:window-maximized="1" />
  <metadata
     id="metadata7">
    <rdf:RDF>
      <cc:Work
         rdf:about="">
        <dc:format>image/svg+xml</dc:format>
        <dc:type
           rdf:resource="http://purl.org/dc/dcmitype/StillImage" />
        <dc:title />
      </cc:Work>
    </rdf:RDF>
  </metadata>
  <g
     inkscape:label="Layer 1"
     inkscape:groupmode="layer"
     id="layer1">
    <g
       id="g3021"
       transform="translate(-13.5,-17.75)">
      <path
         style="font-size:medium;font-style:normal;font-variant:normal;font-weight:normal;font-stretch:normal;text-indent:0;text-align:start;text-decoration:none;line-height:normal;letter-spacing:normal;word-spacing:normal;text-transform:none;direction:ltr;block-progression:tb;writing-mode:lr-tb;text-anchor:start;baseline-shift:baseline;color:#000000;fill:#000000;fill-opacity:1;stroke:none;stroke-width:1px;marker:none;visibility:visible;display:inline;overflow:visible;enable-background:accumulate;font-family:Sans;-inkscape-font-specification:Sans"
         d="m 55.78125,24.0625 -35.6875,35.71875 0.6875,0.6875 L 56.5,24.78125 55.78125,24.0625 z"
         id="path2995"
         inkscape:connector-curvature="0" />
      <path
         inkscape:connector-curvature="0"
         style="fill-rule:evenodd;stroke:#000000;stroke-width:0.8pt;marker-start:none;marker-end:none"
         d="m 23.206888,57.351987 c 1.561291,1.561292 1.561291,4.095563 0,5.656855 -1.561292,1.561291 -4.095563,1.561291 -5.656855,0 -1.561291,-1.561292 -1.561291,-4.095563 0,-5.656855 1.561292,-1.561291 4.095563,-1.561291 5.656855,0 z"
         id="path3027" />
      <path
         inkscape:connector-curvature="0"
         style="fill-rule:evenodd;stroke:#000000;stroke-width:0.8pt;marker-start:none;marker-end:none"
         d="m 58.91578,21.643094 c 1.561291,1.561292 1.561291,4.095563 0,5.656855 -1.561292,1.561291 -4.095563,1.561291 -5.656855,0 -1.561291,-1.561292 -1.561291,-4.095563 0,-5.656855 1.561292,-1.561291 4.095563,-1.561291 5.656855,0 z"
         id="path3029" />
    </g>
    <path
       style="font-size:medium;font-style:normal;font-variant:normal;font-weight:normal;font-stretch:normal;text-indent:0;text-align:start;text-decoration:none;line-height:normal;letter-spacing:normal;word-spacing:normal;text-transform:none;direction:ltr;block-progression:tb;writing-mode:lr-tb;text-anchor:start;baseline-shift:baseline;color:#000000;fill:#000000;fill-opacity:1;stroke:none;stroke-width:1px;marker:none;visibility:visible;display:inline;overflow:visible;enable-background:accumulate;font-family:Sans;-inkscape-font-specification:Sans"
       d="m 43.28125,6.3125 -0.6875,0.71875 35.6875,35.6875 L 79,42.03125 43.28125,6.3125 z"
       id="path2999"
       inkscape:connector-curvature="0" />
    <g
       transform="translate(-13.5,16.25)"
       id="g2996">
      <path
         inkscape:connector-curvature="0"
         id="path2998"
         d="m 91.78125,60.0625 -35.6875,35.71875 0.6875,0.6875 L 92.5,60.78125 91.78125,60.0625 z"
         style="font-size:medium;font-style:normal;font-variant:normal;font-weight:normal;font-stretch:normal;text-indent:0;text-align:start;text-decoration:none;line-height:normal;letter-spacing:normal;word-spacing:normal;text-transform:none;direction:ltr;block-progression:tb;writing-mode:lr-tb;text-anchor:start;baseline-shift:baseline;color:#000000;fill:#000000;fill-opacity:1;stroke:none;stroke-width:1px;marker:none;visibility:visible;display:inline;overflow:visible;enable-background:accumulate;font-family:Sans;-inkscape-font-specification:Sans" />
      <path
         id="path3000"
         d="m 59.206888,93.351987 c 1.561291,1.561292 1.561291,4.095563 0,5.656855 -1.561292,1.561288 -4.095563,1.561288 -5.656855,0 -1.561291,-1.561292 -1.561291,-4.095563 0,-5.656855 1.561292,-1.561291 4.095563,-1.561291 5.656855,0 z"
         style="fill-rule:evenodd;stroke:#000000;stroke-width:0.8pt;marker-start:none;marker-end:none"
         inkscape:connector-curvature="0" />
      <path
         id="path3002"
         d="m 94.91578,57.643094 c 1.561291,1.561292 1.561291,4.095563 0,5.656855 -1.561292,1.561291 -4.095563,1.561291 -5.656855,0 -1.561291,-1.561292 -1.561291,-4.095563 0,-5.656855 1.561292,-1.561291 4.095563,-1.561291 5.656855,0 z"
         style="fill-rule:evenodd;stroke:#000000;stroke-width:0.8pt;marker-start:none;marker-end:none"
         inkscape:connector-curvature="0" />
    </g>
    <path
       inkscape:connector-curvature="0"
       id="path3004"
       d="m 7.28125,76.3125 -0.6875,0.71875 35.6875,35.6875 L 43,112.03125 7.28125,76.3125 z"
       style="font-size:medium;font-style:normal;font-variant:normal;font-weight:normal;font-stretch:normal;text-indent:0;text-align:start;text-decoration:none;line-height:normal;letter-spacing:normal;word-spacing:normal;text-transform:none;direction:ltr;block-progression:tb;writing-mode:lr-tb;text-anchor:start;baseline-shift:baseline;color:#000000;fill:#000000;fill-opacity:1;stroke:none;stroke-width:1px;marker:none;visibility:visible;display:inline;overflow:visible;enable-background:accumulate;font-family:Sans;-inkscape-font-specification:Sans" />
    <path
       inkscape:connector-curvature="0"
       id="path3774"
       d="m 6.5,43.5 0,33.5 1,0 0,-33.5 -1,0 z"
       style="font-size:medium;font-style:normal;font-variant:normal;font-weight:normal;font-stretch:normal;text-indent:0;text-align:start;text-decoration:none;line-height:normal;letter-spacing:normal;word-spacing:normal;text-transform:none;direction:ltr;block-progression:tb;writing-mode:lr-tb;text-anchor:start;baseline-shift:baseline;color:#000000;fill:#000000;fill-opacity:1;stroke:none;stroke-width:1px;marker:none;visibility:visible;display:inline;overflow:visible;enable-background:accumulate;font-family:Sans;-inkscape-font-specification:Sans" />
    <path
       inkscape:connector-curvature="0"
       id="path4784"
       d="m 7,73.08 c 2.208,0 4,1.792 4,4 0,2.208 -1.792,4 -4,4 -2.208,0 -4,-1.792 -4,-4 0,-2.208 1.792,-4 4,-4 z"
       style="fill-rule:evenodd;stroke:#000000;stroke-width:0.8pt;marker-start:none;marker-end:none" />
    <path
       inkscape:connector-curvature="0"
       id="path3776"
       d="m 78,42.25 0,33.5 1,0 0,-33.5 -1,0 z"
       style="font-size:medium;font-style:normal;font-variant:normal;font-weight:normal;font-stretch:normal;text-indent:0;text-align:start;text-decoration:none;line-height:normal;letter-spacing:normal;word-spacing:normal;text-transform:none;direction:ltr;block-progression:tb;writing-mode:lr-tb;text-anchor:start;baseline-shift:baseline;color:#000000;fill:#000000;fill-opacity:1;stroke:none;stroke-width:1px;marker:none;visibility:visible;display:inline;overflow:visible;enable-background:accumulate;font-family:Sans;-inkscape-font-specification:Sans" />
    <path
       inkscape:connector-curvature="0"
       id="path4776"
       d="m 78.5,38.33 c 2.208,0 4,1.792 4,4 0,2.208 -1.792,4 -4,4 -2.208,0 -4,-1.792 -4,-4 0,-2.208 1.792,-4 4,-4 z"
       style="fill-rule:evenodd;stroke:#000000;stroke-width:0.8pt;marker-start:none;marker-end:none" />
    <path
       style="font-size:medium;font-style:normal;font-variant:normal;font-weight:normal;font-stretch:normal;text-indent:0;text-align:start;text-decoration:none;line-height:normal;letter-spacing:normal;word-spacing:normal;text-transform:none;direction:ltr;block-progression:tb;writing-mode:lr-tb;text-anchor:start;baseline-shift:baseline;color:#000000;fill:#000000;fill-opacity:1;stroke:none;stroke-width:1px;marker:none;visibility:visible;display:inline;overflow:visible;enable-background:accumulate;font-family:Sans;-inkscape-font-specification:Sans"
       d="m 7.71875,42.0625 -0.4375,0.875 71,34.25 0.4375,-0.875 -71,-34.25 z"
       id="path4790"
       inkscape:connector-curvature="0" />
    <path
       style="font-size:medium;font-style:normal;font-variant:normal;font-weight:normal;font-stretch:normal;text-indent:0;text-align:start;text-decoration:none;line-height:normal;letter-spacing:normal;word-spacing:normal;text-transform:none;direction:ltr;block-progression:tb;writing-mode:lr-tb;text-anchor:start;baseline-shift:baseline;color:#000000;fill:#000000;fill-opacity:1;stroke:none;stroke-width:1px;marker:none;visibility:visible;display:inline;overflow:visible;enable-background:accumulate;font-family:Sans;-inkscape-font-specification:Sans"
       d="m 78.28125,41.5625 -70.5,35.5 0.4375,0.875 70.5,-35.5 -0.4375,-0.875 z"
       id="path4792"
       inkscape:connector-curvature="0" />
  </g>
</svg>
