<?xml version="1.0" encoding="UTF-8" standalone="no"?>
<!-- Created with Inkscape (http://www.inkscape.org/) -->

<svg
   xmlns:dc="http://purl.org/dc/elements/1.1/"
   xmlns:cc="http://creativecommons.org/ns#"
   xmlns:rdf="http://www.w3.org/1999/02/22-rdf-syntax-ns#"
   xmlns:svg="http://www.w3.org/2000/svg"
   xmlns="http://www.w3.org/2000/svg"
   xmlns:sodipodi="http://sodipodi.sourceforge.net/DTD/sodipodi-0.dtd"
   xmlns:inkscape="http://www.inkscape.org/namespaces/inkscape"
   width="150"
   height="150"
   id="svg2"
   version="1.1"
   inkscape:version="0.48.0 r9654"
   sodipodi:docname="2011-(02)feb-23, 06.svg">
  <defs
     id="defs4" />
  <sodipodi:namedview
     id="base"
     pagecolor="#ffffff"
     bordercolor="#666666"
     borderopacity="1.0"
     inkscape:pageopacity="0.0"
     inkscape:pageshadow="2"
     inkscape:zoom="1.2429611"
     inkscape:cx="174.26757"
     inkscape:cy="-13.577337"
     inkscape:document-units="px"
     inkscape:current-layer="layer1"
     showgrid="false"
     inkscape:window-width="1589"
     inkscape:window-height="1117"
     inkscape:window-x="1600"
     inkscape:window-y="27"
     inkscape:window-maximized="1"
     showguides="true"
     inkscape:guide-bbox="true" />
  <metadata
     id="metadata7">
    <rdf:RDF>
      <cc:Work
         rdf:about="">
        <dc:format>image/svg+xml</dc:format>
        <dc:type
           rdf:resource="http://purl.org/dc/dcmitype/StillImage" />
        <dc:title></dc:title>
      </cc:Work>
    </rdf:RDF>
  </metadata>
  <g
     inkscape:label="Layer 1"
     inkscape:groupmode="layer"
     id="layer1">
    <path
       style="font-size:medium;font-style:normal;font-variant:normal;font-weight:normal;font-stretch:normal;text-indent:0;text-align:start;text-decoration:none;line-height:normal;letter-spacing:normal;word-spacing:normal;text-transform:none;direction:ltr;block-progression:tb;writing-mode:lr-tb;text-anchor:start;baseline-shift:baseline;color:#000000;fill:#000000;fill-opacity:1;stroke:none;stroke-width:1;marker:none;visibility:visible;display:inline;overflow:visible;enable-background:accumulate;font-family:Sans;-inkscape-font-specification:Sans"
       d="m 72.534652,43.93228 c -2.300886,-1.196923 -5.121055,-0.306833 -6.317978,1.994053 -1.196922,2.300885 -0.306834,5.121054 1.994053,6.317978 2.300886,1.196922 5.121054,0.306832 6.317977,-1.994053 1.196923,-2.300886 0.306834,-5.121055 -1.994052,-6.317978 z"
       id="path3003"
       inkscape:connector-curvature="0"
       inkscape:transform-center-x="-1.8694685"
       inkscape:transform-center-y="-35.25645" />
    <path
       style="font-size:medium;font-style:normal;font-variant:normal;font-weight:normal;font-stretch:normal;text-indent:0;text-align:start;text-decoration:none;line-height:normal;letter-spacing:normal;word-spacing:normal;text-transform:none;direction:ltr;block-progression:tb;writing-mode:lr-tb;text-anchor:start;baseline-shift:baseline;color:#000000;fill:#000000;fill-opacity:1;stroke:none;stroke-width:1;marker:none;visibility:visible;display:inline;overflow:visible;enable-background:accumulate;font-family:Sans;-inkscape-font-specification:Sans"
       d="m 86.422921,15.4722 c 6.341127,2.998571 10.601415,9.604462 10.293455,17.049498 -0.410611,9.926714 -8.827336,17.637398 -18.75405,17.226786 l 0.05783,-0.991456 c 9.386736,0.388277 17.316493,-6.90642 17.70477,-16.293156 0.388277,-9.386736 -6.90642,-17.316493 -16.293156,-17.704769 -9.386736,-0.388277 -17.316493,6.90642 -17.704769,16.293156 -0.163855,3.961247 1.068345,7.846702 3.471714,10.999819 l -0.77863,0.616493 c -2.544615,-3.338426 -3.858025,-7.480088 -3.68454,-11.674138 0.410611,-9.926715 8.827337,-17.637398 18.754051,-17.226786 2.481678,0.102654 4.81962,0.705029 6.93333,1.704553 z"
       id="path3014"
       inkscape:connector-curvature="0"
       inkscape:transform-center-y="-51.58668"
       inkscape:transform-center-x="-10.222957" />
    <g
       id="g4994"
       inkscape:transform-center-x="-14.116931"
       inkscape:transform-center-y="-36.710063"
       transform="matrix(-0.88714385,-0.46149299,-0.46149299,0.88714385,160.10009,40.554376)">
      <path
         style="font-size:medium;font-style:normal;font-variant:normal;font-weight:normal;font-stretch:normal;text-indent:0;text-align:start;text-decoration:none;line-height:normal;letter-spacing:normal;word-spacing:normal;text-transform:none;direction:ltr;block-progression:tb;writing-mode:lr-tb;text-anchor:start;baseline-shift:baseline;color:#000000;fill:#000000;fill-opacity:1;stroke:none;stroke-width:1px;marker:none;visibility:visible;display:inline;overflow:visible;enable-background:accumulate;font-family:Sans;-inkscape-font-specification:Sans"
         d="m 68.625,44.71875 -0.65625,0.75 0.875,0.78125 0.6875,-0.71875 -0.90625,-0.8125 z"
         id="path3016"
         inkscape:connector-curvature="0" />
      <path
         inkscape:connector-curvature="0"
         d="m 64.21718,35.436885 5.974922,11.325888 -11.888965,-4.756885 c 3.172775,-0.654491 5.553143,-3.315012 5.914043,-6.569003 z"
         style="font-size:12px;fill-rule:evenodd;stroke-width:0.625;stroke-linejoin:round"
         id="path5000" />
    </g>
    <path
       inkscape:connector-curvature="0"
       id="path3974"
       d="m 34.198357,110.70119 c 2.26518,1.26317 5.10999,0.45528 6.37317,-1.80992 1.26317,-2.26518 0.45528,-5.10999 -1.80992,-6.37317 -2.26518,-1.26317 -5.10999,-0.45527 -6.37317,1.80992 -1.26317,2.26519 -0.45528,5.10999 1.80992,6.37317 z"
       style="font-size:medium;font-style:normal;font-variant:normal;font-weight:normal;font-stretch:normal;text-indent:0;text-align:start;text-decoration:none;line-height:normal;letter-spacing:normal;word-spacing:normal;text-transform:none;direction:ltr;block-progression:tb;writing-mode:lr-tb;text-anchor:start;baseline-shift:baseline;color:#000000;fill:#000000;fill-opacity:1;stroke:none;stroke-width:1;marker:none;visibility:visible;display:inline;overflow:visible;enable-background:accumulate;font-family:Sans;-inkscape-font-specification:Sans"
       inkscape:transform-center-x="32.023239"
       inkscape:transform-center-y="23.264901" />
    <path
       style="font-size:medium;font-style:normal;font-variant:normal;font-weight:normal;font-stretch:normal;text-indent:0;text-align:start;text-decoration:none;line-height:normal;letter-spacing:normal;word-spacing:normal;text-transform:none;direction:ltr;block-progression:tb;writing-mode:lr-tb;text-anchor:start;baseline-shift:baseline;color:#000000;fill:#000000;fill-opacity:1;stroke:none;stroke-width:1;marker:none;visibility:visible;display:inline;overflow:visible;enable-background:accumulate;font-family:Sans;-inkscape-font-specification:Sans"
       d="m 19.490227,138.74635 c -6.25146,-3.18128 -10.3183103,-9.908 -9.7944703,-17.34096 0.6984403,-9.91063 9.3353303,-17.37387 19.2459503,-16.67542 l -0.0866,0.98935 c -9.37152,-0.66045 -17.50957,6.40111 -18.17002,15.77263 -0.66045,9.37152 6.40111,17.50959 15.77263,18.17002 9.37152,0.66045 17.50958,-6.4011 18.17003,-15.77262 0.27871,-3.95483 -0.84024,-7.8744 -3.15113,-11.09592 l 0.7962,-0.59364 c 2.44668,3.41085 3.63938,7.58887 3.34429,11.77612 -0.69844,9.91063 -9.33533,17.37387 -19.24596,16.67543 -2.47766,-0.17461 -4.79713,-0.84457 -6.88095,-1.90499 z"
       id="path3976"
       inkscape:connector-curvature="0"
       inkscape:transform-center-x="40.84737"
       inkscape:transform-center-y="39.345909" />
    <g
       id="g5019"
       inkscape:transform-center-x="44.201964"
       inkscape:transform-center-y="24.209849"
       transform="matrix(-0.8584772,0.51285174,0.51285174,0.8584772,76.379814,-41.122627)">
      <path
         style="font-size:medium;font-style:normal;font-variant:normal;font-weight:normal;font-stretch:normal;text-indent:0;text-align:start;text-decoration:none;line-height:normal;letter-spacing:normal;word-spacing:normal;text-transform:none;direction:ltr;block-progression:tb;writing-mode:lr-tb;text-anchor:start;baseline-shift:baseline;color:#000000;fill:#000000;fill-opacity:1;stroke:none;stroke-width:1px;marker:none;visibility:visible;display:inline;overflow:visible;enable-background:accumulate;font-family:Sans;-inkscape-font-specification:Sans"
         d="m 116.375,100.625 -1.125,0.375 0.3125,0.9375 1.125,-0.375 -0.3125,-0.9375 z"
         id="path3978"
         inkscape:connector-curvature="0" />
      <path
         inkscape:connector-curvature="0"
         d="m 126.93125,102.37792 -12.79597,-0.4885 10.06406,-7.917707 c -1.01958,3.07495 0.0943,6.466667 2.73191,8.406207 z"
         style="font-size:12px;fill-rule:evenodd;stroke-width:0.625;stroke-linejoin:round"
         id="path5025" />
    </g>
    <path
       inkscape:transform-center-y="23.235126"
       inkscape:transform-center-x="-35.653442"
       style="font-size:medium;font-style:normal;font-variant:normal;font-weight:normal;font-stretch:normal;text-indent:0;text-align:start;text-decoration:none;line-height:normal;letter-spacing:normal;word-spacing:normal;text-transform:none;direction:ltr;block-progression:tb;writing-mode:lr-tb;text-anchor:start;baseline-shift:baseline;color:#000000;fill:#000000;fill-opacity:1;stroke:none;stroke-width:1;marker:none;visibility:visible;display:inline;overflow:visible;enable-background:accumulate;font-family:Sans;-inkscape-font-specification:Sans"
       d="m 108.21374,108.92223 c 1.2968,-2.24611 0.5314,-5.10264 -1.71472,-6.39944 -2.24611,-1.2968 -5.10264,-0.53139 -6.39944,1.71473 -1.296794,2.24611 -0.531385,5.10263 1.71473,6.39943 2.24611,1.2968 5.10264,0.5314 6.39943,-1.71472 z"
       id="path3980"
       inkscape:connector-curvature="0" />
    <path
       style="font-size:medium;font-style:normal;font-variant:normal;font-weight:normal;font-stretch:normal;text-indent:0;text-align:start;text-decoration:none;line-height:normal;letter-spacing:normal;word-spacing:normal;text-transform:none;direction:ltr;block-progression:tb;writing-mode:lr-tb;text-anchor:start;baseline-shift:baseline;color:#000000;fill:#000000;fill-opacity:1;stroke:none;stroke-width:1;marker:none;visibility:visible;display:inline;overflow:visible;enable-background:accumulate;font-family:Sans;-inkscape-font-specification:Sans"
       d="m 136.03658,124.0467 c -3.2741,6.20336 -10.06068,10.16949 -17.48501,9.53493 -9.89912,-0.84607 -17.23281,-9.59323 -16.38674,-19.49234 l 0.98796,0.1013 c -0.80004,9.36064 6.13944,17.60304 15.50008,18.40308 9.36063,0.80005 17.60303,-6.13944 18.40308,-15.50007 0.80005,-9.36064 -6.13944,-17.603036 -15.50007,-18.403084 -3.95024,-0.337624 -7.88605,0.722788 -11.14165,2.985394 l -0.58171,-0.80495 c 3.44694,-2.395577 7.64227,-3.525871 11.82466,-3.168404 9.89911,0.84607 17.2328,9.593234 16.38673,19.492344 -0.21152,2.47478 -0.91596,4.78402 -2.00733,6.8518 z"
       id="path3982"
       inkscape:connector-curvature="0"
       inkscape:transform-center-x="-51.601149"
       inkscape:transform-center-y="32.298163" />
    <g
       id="g5011"
       inkscape:transform-center-x="-36.336775"
       inkscape:transform-center-y="35.37455"
       transform="matrix(-1,0,0,1,146.76455,0)">
      <path
         style="font-size:medium;font-style:normal;font-variant:normal;font-weight:normal;font-stretch:normal;text-indent:0;text-align:start;text-decoration:none;line-height:normal;letter-spacing:normal;word-spacing:normal;text-transform:none;direction:ltr;block-progression:tb;writing-mode:lr-tb;text-anchor:start;baseline-shift:baseline;color:#000000;fill:#000000;fill-opacity:1;stroke:none;stroke-width:1px;marker:none;visibility:visible;display:inline;overflow:visible;enable-background:accumulate;font-family:Sans;-inkscape-font-specification:Sans"
         d="m 43.6875,113.59375 -0.25,1.15625 0.96875,0.21875 0.25,-1.1875 -0.96875,-0.1875 z"
         id="path3984"
         inkscape:connector-curvature="0" />
      <path
         inkscape:connector-curvature="0"
         d="m 37.601581,123.21939 6.821035,-10.83739 1.824911,12.67459 c -2.153195,-2.42046 -5.647459,-3.15165 -8.645946,-1.8372 z"
         style="font-size:12px;fill-rule:evenodd;stroke-width:0.625;stroke-linejoin:round"
         id="path5017" />
    </g>
    <path
       style="font-size:medium;font-style:normal;font-variant:normal;font-weight:normal;font-stretch:normal;text-indent:0;text-align:start;text-decoration:none;line-height:normal;letter-spacing:normal;word-spacing:normal;text-transform:none;direction:ltr;block-progression:tb;writing-mode:lr-tb;text-anchor:start;baseline-shift:baseline;color:#000000;fill:#000000;fill-opacity:1;stroke:none;stroke-width:1px;marker:none;visibility:visible;display:inline;overflow:visible;enable-background:accumulate;font-family:Sans;-inkscape-font-specification:Sans"
       d="m 66.577047,53.25 0.875,0.5 -27.25,47.25 -0.875,-0.5 27.25,-47.25 z"
       id="path3994"
       inkscape:connector-curvature="0"
       inkscape:transform-center-x="15.113674"
       inkscape:transform-center-y="-6.2197453" />
    <path
       style="font-size:12px;fill-rule:evenodd;stroke-width:0.625;stroke-linejoin:round"
       d="m 41.261687,89.272538 -2.17586,12.619072 9.832742,-8.203202 c -3.219542,0.359701 -6.306512,-1.433385 -7.656882,-4.41587 z"
       id="path5065"
       inkscape:connector-curvature="0"
       inkscape:transform-center-x="24.501023"
       inkscape:transform-center-y="12.237329" />
    <path
       style="font-size:12px;fill-rule:evenodd;stroke-width:0.625;stroke-linejoin:round"
       d="m 65.517403,64.977462 2.175868,-12.619074 -9.832746,8.203204 c 3.219546,-0.359701 6.306513,1.433385 7.656878,4.41587 z"
       id="path5067"
       inkscape:connector-curvature="0"
       inkscape:transform-center-x="5.7263228"
       inkscape:transform-center-y="-24.67682" />
    <path
       style="font-size:medium;font-style:normal;font-variant:normal;font-weight:normal;font-stretch:normal;text-indent:0;text-align:start;text-decoration:none;line-height:normal;letter-spacing:normal;word-spacing:normal;text-transform:none;direction:ltr;block-progression:tb;writing-mode:lr-tb;text-anchor:start;baseline-shift:baseline;color:#000000;fill:#000000;fill-opacity:1;stroke:none;stroke-width:1;marker:none;visibility:visible;display:inline;overflow:visible;enable-background:accumulate;font-family:Sans;-inkscape-font-specification:Sans"
       d="m 114.57705,86.34375 c 16.48826,0 29.875,13.355484 29.875,29.84375 0,16.48826 -13.38674,29.875 -29.875,29.875 -16.488262,0 -29.875003,-13.38674 -29.875003,-29.875 0,-16.488266 13.386741,-29.84375 29.875003,-29.84375 z m 0,1 c -15.947822,0 -28.875003,12.89592 -28.875003,28.84375 0,15.94782 12.927181,28.875 28.875003,28.875 15.94782,0 28.875,-12.92718 28.875,-28.875 0,-15.94783 -12.92718,-28.84375 -28.875,-28.84375 z"
       id="path3017"
       inkscape:connector-curvature="0"
       inkscape:transform-center-x="-46.073828"
       inkscape:transform-center-y="32.85838" />
    <path
       style="font-size:medium;font-style:normal;font-variant:normal;font-weight:normal;font-stretch:normal;text-indent:0;text-align:start;text-decoration:none;line-height:normal;letter-spacing:normal;word-spacing:normal;text-transform:none;direction:ltr;block-progression:tb;writing-mode:lr-tb;text-anchor:start;baseline-shift:baseline;color:#000000;fill:#000000;fill-opacity:1;stroke:none;stroke-width:1px;marker:none;visibility:visible;display:inline;overflow:visible;enable-background:accumulate;font-family:Sans;-inkscape-font-specification:Sans"
       d="m 83.077047,4.03125 c 0.390144,-0.00522 0.766343,0.014472 1.15625,0.03125 3.119257,0.1342233 6.234508,0.985703 9.28125,2.6875 6.634053,3.705536 10.338573,9.656938 11.875003,16.78125 1.53643,7.124312 0.94607,15.442693 -0.9375,24.09375 -3.76716,17.302114 -12.709987,35.905499 -20.406253,48.71875 -7.327848,12.19988 -18.980465,28.05695 -31.84375,38.96875 -6.43164,5.4559 -13.16549,9.69972 -19.84375,11.59375 -6.67826,1.89403 -13.32663,1.4024 -19.40625,-2.53125 C 6.6837167,140.31925 3.5229167,134.34739 2.6082967,127.34375 1.6936767,120.34011 2.9690167,112.291 5.4832967,104 10.511857,87.418007 20.509527,69.764195 28.077047,57.21875 c 7.06527,-11.712804 17.30784,-27.62857 28.8125,-39 5.752328,-5.685715 11.810326,-10.2635322 18,-12.5625 2.707982,-1.0057984 5.456494,-1.588477 8.1875,-1.625 z m -0.03125,1 c -2.59904,0.035003 -5.194097,0.5899732 -7.8125,1.5625 -5.984921,2.2229185 -11.964648,6.686808 -17.65625,12.3125 -11.3832,11.251383 -21.60464,27.153596 -28.65625,38.84375 -7.55387,12.522813 -17.48974,30.143923 -22.4687503,46.5625 -2.4895,8.20929 -3.73004,16.11954 -2.84375,22.90625 0.88629,6.78671 3.85357,12.4165 9.8750003,16.3125 5.83271,3.77389 12.12214,4.24168 18.59375,2.40625 6.47161,-1.83543 13.10579,-5.97736 19.46875,-11.375 12.725924,-10.79528 24.341536,-26.59276 31.625,-38.71875 7.651893,-12.739376 16.552417,-31.311391 20.281253,-48.4375 1.86441,-8.563055 2.42872,-16.772825 0.9375,-23.6875 C 102.89833,16.804075 99.392183,11.18731 93.014547,7.625 90.096019,5.9948187 87.138745,5.1890241 84.170797,5.0625 83.799804,5.046684 83.417088,5.02625 83.045797,5.03125 z"
       id="path3028"
       inkscape:connector-curvature="0"
       inkscape:transform-center-x="14.213884"
       inkscape:transform-center-y="-7.3418511" />
  </g>
</svg>
