<?xml version="1.0" encoding="UTF-8" standalone="no"?>
<!-- Created with Inkscape (http://www.inkscape.org/) -->

<svg
   xmlns:dc="http://purl.org/dc/elements/1.1/"
   xmlns:cc="http://creativecommons.org/ns#"
   xmlns:rdf="http://www.w3.org/1999/02/22-rdf-syntax-ns#"
   xmlns:svg="http://www.w3.org/2000/svg"
   xmlns="http://www.w3.org/2000/svg"
   xmlns:sodipodi="http://sodipodi.sourceforge.net/DTD/sodipodi-0.dtd"
   xmlns:inkscape="http://www.inkscape.org/namespaces/inkscape"
   width="120"
   height="120"
   id="svg2"
   version="1.1"
   inkscape:version="0.48.0 r9654"
   sodipodi:docname="2011-(02)feb-02, 03.svg">
  <defs
     id="defs4" />
  <sodipodi:namedview
     id="base"
     pagecolor="#ffffff"
     bordercolor="#666666"
     borderopacity="1.0"
     inkscape:pageopacity="0.0"
     inkscape:pageshadow="2"
     inkscape:zoom="1.4142136"
     inkscape:cx="50.971488"
     inkscape:cy="-8.1666172"
     inkscape:document-units="px"
     inkscape:current-layer="layer1"
     showgrid="false"
     inkscape:window-width="1589"
     inkscape:window-height="1117"
     inkscape:window-x="1600"
     inkscape:window-y="27"
     inkscape:window-maximized="1"
     showguides="true"
     inkscape:guide-bbox="true" />
  <metadata
     id="metadata7">
    <rdf:RDF>
      <cc:Work
         rdf:about="">
        <dc:format>image/svg+xml</dc:format>
        <dc:type
           rdf:resource="http://purl.org/dc/dcmitype/StillImage" />
        <dc:title />
      </cc:Work>
    </rdf:RDF>
  </metadata>
  <g
     inkscape:label="Layer 1"
     inkscape:groupmode="layer"
     id="layer1">
    <path
       style="font-size:24px;font-style:normal;font-weight:normal;line-height:125%;letter-spacing:0px;word-spacing:0px;fill:#000000;fill-opacity:1;stroke:none;font-family:Sans"
       d="M 10.96875 3.75 L 4.3125 21.25 L 6.8125 21.25 L 8.40625 16.75 L 16.28125 16.75 L 17.875 21.25 L 20.34375 21.25 L 13.65625 3.75 L 10.96875 3.75 z M 12.3125 6.09375 L 15.53125 14.78125 L 9.09375 14.78125 L 12.3125 6.09375 z "
       id="path3033" />
    <path
       style="font-size:medium;font-style:normal;font-variant:normal;font-weight:normal;font-stretch:normal;text-indent:0;text-align:start;text-decoration:none;line-height:normal;letter-spacing:normal;word-spacing:normal;text-transform:none;direction:ltr;block-progression:tb;writing-mode:lr-tb;text-anchor:start;baseline-shift:baseline;color:#000000;fill:#000000;fill-opacity:1;stroke:none;stroke-width:1;marker:none;visibility:visible;display:inline;overflow:visible;enable-background:accumulate;font-family:Sans;-inkscape-font-specification:Sans"
       d="M 63 7.5 C 34.057742 7.5 10.5 26.924978 10.5 51 C 10.5 75.075022 34.057742 94.5 63 94.5 C 91.942258 94.5 115.5 75.075022 115.5 51 C 115.5 26.924978 91.942258 7.5 63 7.5 z M 63 8.5 C 91.495356 8.5 114.5 27.578534 114.5 51 C 114.5 74.421466 91.495356 93.5 63 93.5 C 34.504644 93.5 11.5 74.421466 11.5 51 C 11.5 27.578534 34.504644 8.5 63 8.5 z "
       id="path3037" />
    <path
       style="font-size:12px;font-style:normal;font-weight:normal;line-height:125%;letter-spacing:0px;word-spacing:0px;fill:#000000;fill-opacity:1;stroke:none;font-family:Sans"
       d="m 53.519531,100.79107 0,12 -0.996093,0 0,-12 0.996093,0"
       id="path2998" />
    <path
       style="font-size:12px;font-style:normal;font-weight:normal;line-height:125%;letter-spacing:0px;word-spacing:0px;fill:#000000;fill-opacity:1;stroke:none;font-family:Sans"
       d="M 58.5 101.21875 L 55.15625 109.96875 L 56.40625 109.96875 L 57.1875 107.71875 L 61.125 107.71875 L 61.9375 109.96875 L 63.15625 109.96875 L 59.84375 101.21875 L 58.5 101.21875 z M 59.15625 102.375 L 60.78125 106.71875 L 57.5625 106.71875 L 59.15625 102.375 z "
       id="path3000" />
    <path
       style="font-size:12px;font-style:normal;font-weight:normal;line-height:125%;letter-spacing:0px;word-spacing:0px;fill:#000000;fill-opacity:1;stroke:none;font-family:Sans"
       d="m 65.777344,100.79107 0,12 -0.996094,0 0,-12 0.996094,0"
       id="path3002" />
    <path
       style="font-size:12px;font-style:normal;font-weight:normal;line-height:125%;letter-spacing:0px;word-spacing:0px;fill:#000000;fill-opacity:1;stroke:none;font-family:Sans"
       d="m 72.404297,104.51177 7.511719,0 0,0.98438 -7.511719,0 0,-0.98438"
       id="path3021" />
    <path
       style="font-size:12px;font-style:normal;font-weight:normal;line-height:125%;letter-spacing:0px;word-spacing:0px;fill:#000000;fill-opacity:1;stroke:none;font-family:Sans"
       d="m 72.404297,106.9024 7.511719,0 0,0.99609 -7.511719,0 0,-0.99609"
       id="path3004" />
    <path
       style="font-size:12px;font-style:normal;font-weight:normal;line-height:125%;letter-spacing:0px;word-spacing:0px;fill:#000000;fill-opacity:1;stroke:none;font-family:Sans"
       d="m 85.992187,101.21294 5.625,0 0,0.50391 -3.175781,8.24414 -1.236328,0 2.988281,-7.75195 -4.201172,0 0,-0.9961"
       id="path3006" />
    <path
       style="font-size:medium;font-style:normal;font-variant:normal;font-weight:normal;font-stretch:normal;text-indent:0;text-align:start;text-decoration:none;line-height:normal;letter-spacing:normal;word-spacing:normal;text-transform:none;direction:ltr;block-progression:tb;writing-mode:lr-tb;text-anchor:start;baseline-shift:baseline;color:#000000;fill:#000000;fill-opacity:1;stroke:none;stroke-width:1;marker:none;visibility:visible;display:inline;overflow:visible;enable-background:accumulate;font-family:Sans;-inkscape-font-specification:Sans"
       d="m 46.25,26 c -1.512861,0 -2.75,1.237139 -2.75,2.75 0,1.512861 1.237139,2.75 2.75,2.75 C 47.762861,31.5 49,30.262861 49,28.75 49,27.237139 47.762861,26 46.25,26 z"
       id="path3819" />
    <path
       inkscape:connector-curvature="0"
       style="font-size:medium;font-style:normal;font-variant:normal;font-weight:normal;font-stretch:normal;text-indent:0;text-align:start;text-decoration:none;line-height:normal;letter-spacing:normal;word-spacing:normal;text-transform:none;direction:ltr;block-progression:tb;writing-mode:lr-tb;text-anchor:start;baseline-shift:baseline;color:#000000;fill:#000000;fill-opacity:1;stroke:none;stroke-width:1;marker:none;visibility:visible;display:inline;overflow:visible;enable-background:accumulate;font-family:Sans;-inkscape-font-specification:Sans"
       d="M 73.75,23.25 C 72.237139,23.25 71,24.487139 71,26 c 0,1.512861 1.237139,2.75 2.75,2.75 1.512861,0 2.75,-1.237139 2.75,-2.75 0,-1.512861 -1.237139,-2.75 -2.75,-2.75 z"
       id="path3819-0" />
    <path
       inkscape:connector-curvature="0"
       style="font-size:medium;font-style:normal;font-variant:normal;font-weight:normal;font-stretch:normal;text-indent:0;text-align:start;text-decoration:none;line-height:normal;letter-spacing:normal;word-spacing:normal;text-transform:none;direction:ltr;block-progression:tb;writing-mode:lr-tb;text-anchor:start;baseline-shift:baseline;color:#000000;fill:#000000;fill-opacity:1;stroke:none;stroke-width:1;marker:none;visibility:visible;display:inline;overflow:visible;enable-background:accumulate;font-family:Sans;-inkscape-font-specification:Sans"
       d="m 29.75,60.5 c -1.512861,0 -2.75,1.237139 -2.75,2.75 0,1.512861 1.237139,2.75 2.75,2.75 1.512861,0 2.75,-1.237139 2.75,-2.75 0,-1.512861 -1.237139,-2.75 -2.75,-2.75 z"
       id="path3819-7" />
    <path
       inkscape:connector-curvature="0"
       style="font-size:medium;font-style:normal;font-variant:normal;font-weight:normal;font-stretch:normal;text-indent:0;text-align:start;text-decoration:none;line-height:normal;letter-spacing:normal;word-spacing:normal;text-transform:none;direction:ltr;block-progression:tb;writing-mode:lr-tb;text-anchor:start;baseline-shift:baseline;color:#000000;fill:#000000;fill-opacity:1;stroke:none;stroke-width:1;marker:none;visibility:visible;display:inline;overflow:visible;enable-background:accumulate;font-family:Sans;-inkscape-font-specification:Sans"
       d="m 84.25,57.75 c -1.512861,0 -2.75,1.237139 -2.75,2.75 0,1.512861 1.237139,2.75 2.75,2.75 1.512861,0 2.75,-1.237139 2.75,-2.75 0,-1.512861 -1.237139,-2.75 -2.75,-2.75 z"
       id="path3819-8" />
    <path
       inkscape:connector-curvature="0"
       style="font-size:medium;font-style:normal;font-variant:normal;font-weight:normal;font-stretch:normal;text-indent:0;text-align:start;text-decoration:none;line-height:normal;letter-spacing:normal;word-spacing:normal;text-transform:none;direction:ltr;block-progression:tb;writing-mode:lr-tb;text-anchor:start;baseline-shift:baseline;color:#000000;fill:#000000;fill-opacity:1;stroke:none;stroke-width:1;marker:none;visibility:visible;display:inline;overflow:visible;enable-background:accumulate;font-family:Sans;-inkscape-font-specification:Sans"
       d="m 60.5,43.25 c -1.512861,0 -2.75,1.237139 -2.75,2.75 0,1.512861 1.237139,2.75 2.75,2.75 1.512861,0 2.75,-1.237139 2.75,-2.75 0,-1.512861 -1.237139,-2.75 -2.75,-2.75 z"
       id="path3819-6" />
    <path
       inkscape:connector-curvature="0"
       style="font-size:medium;font-style:normal;font-variant:normal;font-weight:normal;font-stretch:normal;text-indent:0;text-align:start;text-decoration:none;line-height:normal;letter-spacing:normal;word-spacing:normal;text-transform:none;direction:ltr;block-progression:tb;writing-mode:lr-tb;text-anchor:start;baseline-shift:baseline;color:#000000;fill:#000000;fill-opacity:1;stroke:none;stroke-width:1;marker:none;visibility:visible;display:inline;overflow:visible;enable-background:accumulate;font-family:Sans;-inkscape-font-specification:Sans"
       d="m 55.5,71.5 c -1.512861,0 -2.75,1.237139 -2.75,2.75 0,1.512861 1.237139,2.75 2.75,2.75 1.512861,0 2.75,-1.237139 2.75,-2.75 0,-1.512861 -1.237139,-2.75 -2.75,-2.75 z"
       id="path3819-88" />
    <path
       inkscape:connector-curvature="0"
       style="font-size:medium;font-style:normal;font-variant:normal;font-weight:normal;font-stretch:normal;text-indent:0;text-align:start;text-decoration:none;line-height:normal;letter-spacing:normal;word-spacing:normal;text-transform:none;direction:ltr;block-progression:tb;writing-mode:lr-tb;text-anchor:start;baseline-shift:baseline;color:#000000;fill:#000000;fill-opacity:1;stroke:none;stroke-width:1;marker:none;visibility:visible;display:inline;overflow:visible;enable-background:accumulate;font-family:Sans;-inkscape-font-specification:Sans"
       d="m 101,41.5 c -1.512861,0 -2.75,1.237139 -2.75,2.75 0,1.512861 1.237139,2.75 2.75,2.75 1.51286,0 2.75,-1.237139 2.75,-2.75 0,-1.512861 -1.23714,-2.75 -2.75,-2.75 z"
       id="path3819-4" />
    <path
       inkscape:connector-curvature="0"
       style="font-size:medium;font-style:normal;font-variant:normal;font-weight:normal;font-stretch:normal;text-indent:0;text-align:start;text-decoration:none;line-height:normal;letter-spacing:normal;word-spacing:normal;text-transform:none;direction:ltr;block-progression:tb;writing-mode:lr-tb;text-anchor:start;baseline-shift:baseline;color:#000000;fill:#000000;fill-opacity:1;stroke:none;stroke-width:1;marker:none;visibility:visible;display:inline;overflow:visible;enable-background:accumulate;font-family:Sans;-inkscape-font-specification:Sans"
       d="m 80.25,80.25 c -1.512861,0 -2.75,1.237139 -2.75,2.75 0,1.512861 1.237139,2.75 2.75,2.75 1.512861,0 2.75,-1.237139 2.75,-2.75 0,-1.512861 -1.237139,-2.75 -2.75,-2.75 z"
       id="path3819-3" />
  </g>
</svg>
