<?xml version="1.0" encoding="UTF-8" standalone="no"?>
<!-- Created with Inkscape (http://www.inkscape.org/) -->

<svg
   xmlns:dc="http://purl.org/dc/elements/1.1/"
   xmlns:cc="http://creativecommons.org/ns#"
   xmlns:rdf="http://www.w3.org/1999/02/22-rdf-syntax-ns#"
   xmlns:svg="http://www.w3.org/2000/svg"
   xmlns="http://www.w3.org/2000/svg"
   xmlns:sodipodi="http://sodipodi.sourceforge.net/DTD/sodipodi-0.dtd"
   xmlns:inkscape="http://www.inkscape.org/namespaces/inkscape"
   width="100"
   height="100"
   id="svg2"
   version="1.1"
   inkscape:version="0.48.0 r9654"
   sodipodi:docname="2011-(02)feb-09, 06.svg">
  <defs
     id="defs4" />
  <sodipodi:namedview
     id="base"
     pagecolor="#ffffff"
     bordercolor="#666666"
     borderopacity="1.0"
     inkscape:pageopacity="0.0"
     inkscape:pageshadow="2"
     inkscape:zoom="1.193439"
     inkscape:cx="30.384786"
     inkscape:cy="-15.503164"
     inkscape:document-units="px"
     inkscape:current-layer="layer1"
     showgrid="false"
     inkscape:window-width="1589"
     inkscape:window-height="1117"
     inkscape:window-x="1600"
     inkscape:window-y="27"
     inkscape:window-maximized="1"
     showguides="true"
     inkscape:guide-bbox="true" />
  <metadata
     id="metadata7">
    <rdf:RDF>
      <cc:Work
         rdf:about="">
        <dc:format>image/svg+xml</dc:format>
        <dc:type
           rdf:resource="http://purl.org/dc/dcmitype/StillImage" />
        <dc:title />
      </cc:Work>
    </rdf:RDF>
  </metadata>
  <g
     inkscape:label="Layer 1"
     inkscape:groupmode="layer"
     id="layer1">
    <path
       style="color:#000000;fill:#000000;fill-opacity:1;stroke:none;stroke-width:0;marker:none;visibility:visible;display:inline;overflow:visible;enable-background:accumulate"
       d="m 25.526622,82.014605 c 0,3.239373 -2.62603,5.865403 -5.865402,5.865403 -3.239373,0 -5.865403,-2.62603 -5.865403,-5.865403 0,-3.239372 2.62603,-5.865402 5.865403,-5.865402 3.239372,0 5.865402,2.62603 5.865402,5.865402 z"
       id="path3006" />
    <path
       style="color:#000000;fill:#000000;fill-opacity:1;stroke:none;stroke-width:0;marker:none;visibility:visible;display:inline;overflow:visible;enable-background:accumulate"
       d="m 88.328115,81.075038 c 0,3.239373 -2.62603,5.865403 -5.865402,5.865403 -3.239373,0 -5.865403,-2.62603 -5.865403,-5.865403 0,-3.239372 2.62603,-5.865402 5.865403,-5.865402 3.239372,0 5.865402,2.62603 5.865402,5.865402 z"
       id="path3006-4" />
    <path
       style="color:#000000;fill:#000000;fill-opacity:1;stroke:none;stroke-width:0;marker:none;visibility:visible;display:inline;overflow:visible;enable-background:accumulate"
       d="m 57.3761,13.584413 c 0,3.239373 -2.62603,5.865403 -5.865402,5.865403 -3.239373,0 -5.865403,-2.62603 -5.865403,-5.865403 0,-3.239372 2.62603,-5.865402 5.865403,-5.865402 3.239372,0 5.865402,2.62603 5.865402,5.865402 z"
       id="path3006-7" />
    <path
       style="font-size:medium;font-style:normal;font-variant:normal;font-weight:normal;font-stretch:normal;text-indent:0;text-align:start;text-decoration:none;line-height:normal;letter-spacing:normal;word-spacing:normal;text-transform:none;direction:ltr;block-progression:tb;writing-mode:lr-tb;text-anchor:start;baseline-shift:baseline;color:#000000;fill:#000000;fill-opacity:1;stroke:none;stroke-width:0.4375;marker:none;visibility:visible;display:inline;overflow:visible;enable-background:accumulate;font-family:Sans;-inkscape-font-specification:Sans"
       d="M 19.6875 68.125 C 12.012999 68.125 5.75 74.356752 5.75 82.03125 C 5.75 89.705751 12.012999 95.90625 19.6875 95.90625 C 27.361998 95.90625 33.59375 89.705751 33.59375 82.03125 C 33.59375 74.356752 27.361998 68.125 19.6875 68.125 z M 19.6875 69.125 C 26.821559 69.125 32.59375 74.897191 32.59375 82.03125 C 32.59375 89.165312 26.821559 94.90625 19.6875 94.90625 C 12.553438 94.90625 6.75 89.165312 6.75 82.03125 C 6.75 74.897191 12.553438 69.125 19.6875 69.125 z "
       id="path4302" />
    <path
       style="font-size:medium;font-style:normal;font-variant:normal;font-weight:normal;font-stretch:normal;text-indent:0;text-align:start;text-decoration:none;line-height:normal;letter-spacing:normal;word-spacing:normal;text-transform:none;direction:ltr;block-progression:tb;writing-mode:lr-tb;text-anchor:start;baseline-shift:baseline;color:#000000;fill:#000000;fill-opacity:1;stroke:none;stroke-width:0.46666667;marker:none;visibility:visible;display:inline;overflow:visible;enable-background:accumulate;font-family:Sans;-inkscape-font-specification:Sans"
       d="M 82.46875 67.96875 C 75.257016 67.96875 69.40625 73.882018 69.40625 81.09375 C 69.40625 88.305485 75.257016 94.15625 82.46875 94.15625 C 89.680482 94.15625 95.53125 88.305485 95.53125 81.09375 C 95.53125 73.882018 89.680482 67.96875 82.46875 67.96875 z M 82.46875 68.96875 C 89.14004 68.96875 94.53125 74.42246 94.53125 81.09375 C 94.53125 87.765043 89.14004 93.15625 82.46875 93.15625 C 75.797457 93.15625 70.40625 87.765043 70.40625 81.09375 C 70.40625 74.42246 75.797457 68.96875 82.46875 68.96875 z "
       id="path4306" />
    <path
       style="font-size:medium;font-style:normal;font-variant:normal;font-weight:normal;font-stretch:normal;text-indent:0;text-align:start;text-decoration:none;line-height:normal;letter-spacing:normal;word-spacing:normal;text-transform:none;direction:ltr;block-progression:tb;writing-mode:lr-tb;text-anchor:start;baseline-shift:baseline;color:#000000;fill:#000000;fill-opacity:1;stroke:none;stroke-width:1px;marker:none;visibility:visible;display:inline;overflow:visible;enable-background:accumulate;font-family:Sans;-inkscape-font-specification:Sans"
       d="M 44.28125,22.15625 23.84375,65.125 24.75,65.5625 45.1875,22.59375 44.28125,22.15625 z"
       id="path3805" />
    <path
       style="font-size:12px;fill-rule:evenodd;stroke-width:0.625;stroke-linejoin:round"
       d="M 36.133185,30.12976 45.288116,21.1764 44.114574,33.927801 C 42.583499,31.072864 39.355185,29.548884 36.133185,30.12976 z"
       id="path4272" />
    <path
       style="font-size:medium;font-style:normal;font-variant:normal;font-weight:normal;font-stretch:normal;text-indent:0;text-align:start;text-decoration:none;line-height:normal;letter-spacing:normal;word-spacing:normal;text-transform:none;direction:ltr;block-progression:tb;writing-mode:lr-tb;text-anchor:start;baseline-shift:baseline;color:#000000;fill:#000000;fill-opacity:1;stroke:none;stroke-width:1px;marker:none;visibility:visible;display:inline;overflow:visible;enable-background:accumulate;font-family:Sans;-inkscape-font-specification:Sans"
       d="m 58.53125,21.90625 -0.9375,0.375 L 76.5625,67 77.5,66.625 58.53125,21.90625 z"
       id="path3807" />
    <path
       style="font-size:12px;fill-rule:evenodd;stroke-width:0.625;stroke-linejoin:round"
       d="m 58.151017,33.661262 -0.620952,-12.790225 8.759137,9.340928 c -3.151663,-0.749584 -6.434233,0.653719 -8.138185,3.449297 z"
       id="path4264" />
  </g>
</svg>
