<?xml version="1.0" encoding="UTF-8" standalone="no"?>
<!-- Created with Inkscape (http://www.inkscape.org/) -->

<svg
   xmlns:dc="http://purl.org/dc/elements/1.1/"
   xmlns:cc="http://creativecommons.org/ns#"
   xmlns:rdf="http://www.w3.org/1999/02/22-rdf-syntax-ns#"
   xmlns:svg="http://www.w3.org/2000/svg"
   xmlns="http://www.w3.org/2000/svg"
   xmlns:sodipodi="http://sodipodi.sourceforge.net/DTD/sodipodi-0.dtd"
   xmlns:inkscape="http://www.inkscape.org/namespaces/inkscape"
   width="130"
   height="130"
   id="svg2"
   version="1.1"
   inkscape:version="0.48.0 r9654"
   sodipodi:docname="2011-(02)feb-23, 02.svg">
  <defs
     id="defs4" />
  <sodipodi:namedview
     id="base"
     pagecolor="#ffffff"
     bordercolor="#666666"
     borderopacity="1.0"
     inkscape:pageopacity="0.0"
     inkscape:pageshadow="2"
     inkscape:zoom="5.4314733"
     inkscape:cx="23.994114"
     inkscape:cy="54.234108"
     inkscape:document-units="px"
     inkscape:current-layer="layer1"
     showgrid="false"
     inkscape:window-width="1589"
     inkscape:window-height="1117"
     inkscape:window-x="1600"
     inkscape:window-y="27"
     inkscape:window-maximized="1"
     showguides="true"
     inkscape:guide-bbox="true" />
  <metadata
     id="metadata7">
    <rdf:RDF>
      <cc:Work
         rdf:about="">
        <dc:format>image/svg+xml</dc:format>
        <dc:type
           rdf:resource="http://purl.org/dc/dcmitype/StillImage" />
        <dc:title />
      </cc:Work>
    </rdf:RDF>
  </metadata>
  <g
     inkscape:label="Layer 1"
     inkscape:groupmode="layer"
     id="layer1">
    <path
       style="font-size:medium;font-style:normal;font-variant:normal;font-weight:normal;font-stretch:normal;text-indent:0;text-align:start;text-decoration:none;line-height:normal;letter-spacing:normal;word-spacing:normal;text-transform:none;direction:ltr;block-progression:tb;writing-mode:lr-tb;text-anchor:start;baseline-shift:baseline;color:#000000;fill:#000000;fill-opacity:1;stroke:none;stroke-width:1;marker:none;visibility:visible;display:inline;overflow:visible;enable-background:accumulate;font-family:Sans;-inkscape-font-specification:Sans"
       d="m 42.814021,7.2240481 c -20.839263,0 -37.7812496,16.2689229 -37.7812496,36.3437499 0,20.074829 16.9419866,36.34375 37.7812496,36.34375 20.839263,0 37.75,-16.268921 37.75,-36.34375 0,-20.074827 -16.910737,-36.3437499 -37.75,-36.3437499 z m 0,1 c 20.319451,0 36.75,15.8308079 36.75,35.3437499 0,19.512944 -16.430549,35.34375 -36.75,35.34375 -20.319451,0 -36.7812496,-15.830806 -36.7812496,-35.34375 0,-19.512942 16.4617986,-35.3437499 36.7812496,-35.3437499 z"
       id="path4092"
       inkscape:connector-curvature="0" />
    <path
       style="font-size:medium;font-style:normal;font-variant:normal;font-weight:normal;font-stretch:normal;text-indent:0;text-align:start;text-decoration:none;line-height:normal;letter-spacing:normal;word-spacing:normal;text-transform:none;direction:ltr;block-progression:tb;writing-mode:lr-tb;text-anchor:start;baseline-shift:baseline;color:#000000;fill:#000000;fill-opacity:1;stroke:none;stroke-width:1;marker:none;visibility:visible;display:inline;overflow:visible;enable-background:accumulate;font-family:Sans;-inkscape-font-specification:Sans"
       d="m 87.242822,7.2240491 c -20.83926,0 -37.781251,16.2689229 -37.781251,36.3437499 0,20.074829 16.941991,36.34375 37.781251,36.34375 20.839258,0 37.749998,-16.268921 37.749998,-36.34375 0,-20.074827 -16.91074,-36.3437499 -37.749998,-36.3437499 z m 0,1 c 20.319448,0 36.749998,15.8308079 36.749998,35.3437499 0,19.512944 -16.43055,35.34375 -36.749998,35.34375 -20.31945,0 -36.781251,-15.830806 -36.781251,-35.34375 0,-19.512942 16.461801,-35.3437499 36.781251,-35.3437499 z"
       id="path4096"
       inkscape:connector-curvature="0" />
    <path
       style="font-size:24px;font-style:normal;font-weight:normal;line-height:125%;letter-spacing:0px;word-spacing:0px;fill:#000000;fill-opacity:1;stroke:none;font-family:Sans"
       d="m 8.9420731,1.8410342 -5.0625,13.2187498 1.90625,0 1.1875,-3.40625 5.9687499,0 1.1875,3.40625 1.875,0 -5.03125,-13.2187498 -2.0312499,0 z m 1,1.75 2.4374999,6.5937498 -4.8749999,0 2.4375,-6.5937498 z"
       id="path3013"
       inkscape:connector-curvature="0" />
    <path
       style="font-size:24px;font-style:normal;font-weight:normal;line-height:125%;letter-spacing:0px;word-spacing:0px;fill:#000000;fill-opacity:1;stroke:none;font-family:Sans"
       d="m 113.66318,2.3583673 0,13.2187507 4.75,0 c 1.48199,0 2.6345,-0.293921 3.4375,-0.9375 0.80298,-0.643576 1.18749,-1.56912 1.1875,-2.75 -1e-5,-0.897462 -0.2287,-1.653652 -0.71875,-2.2500002 -0.48418,-0.602241 -1.18276,-0.998553 -2.0625,-1.1875 0.73213,-0.118081 1.27836,-0.396737 1.65625,-0.875 0.37787,-0.478247 0.59374,-1.128591 0.59375,-1.937501 -1e-5,-1.045064 -0.38696,-1.870666 -1.125,-2.4374995 -0.73805,-0.566808 -1.79234,-0.843736 -3.15625,-0.84375 l -4.5625,0 z m 1.78125,1.4687505 2.65625,0 c 0.87384,1.1e-5 1.51238,0.169366 1.9375,0.5 0.43102,0.330656 0.65624,0.832816 0.65625,1.499999 -1e-5,0.67311 -0.22523,1.169363 -0.65625,1.500001 -0.42512,0.324749 -1.06366,0.500007 -1.9375,0.5 l -2.65625,0 0,-4 z m 0,5.4375 2.875,0 c 0.96241,6e-6 1.66445,0.198163 2.125,0.59375 0.46644,0.3896952 0.71874,1.0171402 0.71875,1.8437502 -1e-5,0.820712 -0.25231,1.411005 -0.71875,1.8125 -0.46055,0.395596 -1.16259,0.593752 -2.125,0.59375 l -2.875,0 0,-4.8437502 z"
       id="path3015"
       inkscape:connector-curvature="0" />
    <path
       style="font-size:12px;font-style:normal;font-weight:normal;line-height:125%;letter-spacing:0px;word-spacing:0px;fill:#000000;fill-opacity:1;stroke:none;font-family:Sans"
       d="m 40.356355,22.100009 1.933594,0 0,-6.673828 -2.103516,0.421875 0,-1.078125 2.091797,-0.421875 1.183594,0 0,7.751953 1.933594,0 0,0.996094 -5.039063,0 0,-0.996094"
       id="path3004"
       inkscape:connector-curvature="0" />
    <path
       style="font-size:12px;font-style:normal;font-weight:normal;line-height:125%;letter-spacing:0px;word-spacing:0px;fill:#000000;fill-opacity:1;stroke:none;font-family:Sans"
       d="m 40.009576,74.995565 4.13086,0 0,0.996094 -5.554688,0 0,-0.996094 c 0.449218,-0.464842 1.060545,-1.087888 1.833985,-1.86914 0.77734,-0.785153 1.265621,-1.291012 1.464843,-1.517579 0.378902,-0.425776 0.642574,-0.785151 0.791016,-1.078125 0.152339,-0.296869 0.22851,-0.587884 0.228516,-0.873046 -6e-6,-0.464837 -0.164068,-0.843743 -0.492188,-1.136719 -0.324223,-0.292961 -0.748051,-0.439445 -1.271484,-0.439453 -0.371097,8e-6 -0.763675,0.06446 -1.177735,0.193359 -0.410158,0.128914 -0.84961,0.324226 -1.318359,0.585938 l 0,-1.195313 c 0.476561,-0.191398 0.921873,-0.335929 1.335937,-0.433594 0.41406,-0.09765 0.792966,-0.146475 1.136719,-0.146484 0.906246,9e-6 1.628901,0.226571 2.167969,0.679687 0.539056,0.453133 0.808587,1.058601 0.808594,1.816407 -7e-6,0.359381 -0.06837,0.701177 -0.205078,1.02539 -0.132819,0.320318 -0.376959,0.699224 -0.732422,1.136719 -0.09766,0.113285 -0.408208,0.44141 -0.931641,0.984375 -0.523441,0.539065 -1.261722,1.294924 -2.214844,2.267578"
       id="path3006"
       inkscape:connector-curvature="0" />
    <path
       style="font-size:12px;font-style:normal;font-weight:normal;line-height:125%;letter-spacing:0px;word-spacing:0px;fill:#000000;fill-opacity:1;stroke:none;font-family:Sans"
       d="m 62.438075,34.491526 4.13086,0 0,0.996094 -5.554688,0 0,-0.996094 c 0.449218,-0.464842 1.060545,-1.087888 1.833985,-1.86914 0.77734,-0.785153 1.265621,-1.291012 1.464843,-1.517579 0.378902,-0.425776 0.642574,-0.785151 0.791016,-1.078125 0.152339,-0.296869 0.22851,-0.587884 0.228516,-0.873046 -6e-6,-0.464837 -0.164068,-0.843743 -0.492188,-1.136719 -0.324223,-0.292961 -0.748051,-0.439445 -1.271484,-0.439453 -0.371097,8e-6 -0.763675,0.06446 -1.177735,0.193359 -0.410158,0.128914 -0.84961,0.324226 -1.318359,0.585938 l 0,-1.195313 c 0.476561,-0.191398 0.921873,-0.335929 1.335937,-0.433594 0.41406,-0.09765 0.792966,-0.146475 1.136719,-0.146484 0.906246,9e-6 1.628901,0.226571 2.167969,0.679687 0.539056,0.453133 0.808587,1.058601 0.808594,1.816407 -7e-6,0.359381 -0.06837,0.701177 -0.205078,1.02539 -0.132819,0.320318 -0.376959,0.699224 -0.732422,1.136719 -0.09766,0.113285 -0.408208,0.44141 -0.931641,0.984375 -0.523441,0.539065 -1.261722,1.294924 -2.214844,2.267578"
       id="path3006-4"
       inkscape:connector-curvature="0" />
    <path
       style="font-size:12px;font-style:normal;font-weight:normal;line-height:125%;letter-spacing:0px;word-spacing:0px;fill:#000000;fill-opacity:1;stroke:none;font-family:Sans"
       d="m 44.158001,60.75979 4.13086,0 0,0.996094 -5.554688,0 0,-0.996094 c 0.449218,-0.464842 1.060545,-1.087888 1.833985,-1.86914 0.77734,-0.785153 1.265621,-1.291012 1.464843,-1.517579 0.378902,-0.425776 0.642574,-0.785151 0.791016,-1.078125 0.152339,-0.296869 0.22851,-0.587884 0.228516,-0.873046 -6e-6,-0.464837 -0.164068,-0.843743 -0.492188,-1.136719 -0.324223,-0.292961 -0.748051,-0.439445 -1.271484,-0.439453 -0.371097,8e-6 -0.763675,0.06446 -1.177735,0.193359 -0.410158,0.128914 -0.84961,0.324226 -1.318359,0.585938 l 0,-1.195313 c 0.476561,-0.191398 0.921873,-0.335929 1.335937,-0.433594 0.41406,-0.09765 0.792966,-0.146475 1.136719,-0.146484 0.906246,9e-6 1.628901,0.226571 2.167969,0.679687 0.539056,0.453133 0.808587,1.058601 0.808594,1.816407 -7e-6,0.359381 -0.06837,0.701177 -0.205078,1.02539 -0.132819,0.320318 -0.376959,0.699224 -0.732422,1.136719 -0.09766,0.113285 -0.408208,0.44141 -0.931641,0.984375 -0.523441,0.539065 -1.261722,1.294924 -2.214844,2.267578"
       id="path3006-7"
       inkscape:connector-curvature="0" />
    <path
       style="font-size:12px;font-style:normal;font-weight:normal;line-height:125%;letter-spacing:0px;word-spacing:0px;fill:#000000;fill-opacity:1;stroke:none;font-family:Sans"
       d="m 21.458797,37.584714 1.933594,0 0,-6.673828 -2.103516,0.421875 0,-1.078125 2.091797,-0.421875 1.183594,0 0,7.751953 1.933594,0 0,0.996094 -5.039063,0 0,-0.996094"
       id="path3004-4"
       inkscape:connector-curvature="0" />
    <path
       style="font-size:12px;font-style:normal;font-weight:normal;line-height:125%;letter-spacing:0px;word-spacing:0px;fill:#000000;fill-opacity:1;stroke:none;font-family:Sans"
       d="m 73.070793,105.73451 1.933594,0 0,-6.673818 -2.103516,0.42187 0,-1.07812 2.091797,-0.42188 1.183594,0 0,7.751948 1.933594,0 0,0.9961 -5.039063,0 0,-0.9961"
       id="path3004-43"
       inkscape:connector-curvature="0" />
    <path
       style="font-size:12px;font-style:normal;font-weight:normal;line-height:125%;letter-spacing:0px;word-spacing:0px;fill:#000000;fill-opacity:1;stroke:none;font-family:Sans"
       d="m 18.313969,59.645296 1.933594,0 0,-6.673828 -2.103516,0.421875 0,-1.078125 2.091797,-0.421875 1.183594,0 0,7.751953 1.933594,0 0,0.996094 -5.039063,0 0,-0.996094"
       id="path3004-0"
       inkscape:connector-curvature="0" />
    <path
       style="font-size:12px;font-style:normal;font-weight:normal;line-height:125%;letter-spacing:0px;word-spacing:0px;fill:#000000;fill-opacity:1;stroke:none;font-family:Sans"
       d="m 108.72065,33.874387 1.93359,0 0,-6.673828 -2.10351,0.421875 0,-1.078125 2.0918,-0.421875 1.18359,0 0,7.751953 1.93359,0 0,0.996094 -5.03906,0 0,-0.996094"
       id="path3004-7"
       inkscape:connector-curvature="0" />
    <path
       style="font-size:12px;font-style:normal;font-weight:normal;line-height:125%;letter-spacing:0px;word-spacing:0px;fill:#000000;fill-opacity:1;stroke:none;font-family:Sans"
       d="m 84.864913,92.171684 1.933594,0 0,-6.673828 -2.103516,0.421875 0,-1.078125 2.091797,-0.421875 1.183594,0 0,7.751953 1.933594,0 0,0.996094 -5.039063,0 0,-0.996094"
       id="path3004-8"
       inkscape:connector-curvature="0" />
    <path
       style="font-size:12px;font-style:normal;font-weight:normal;line-height:125%;letter-spacing:0px;word-spacing:0px;fill:#000000;fill-opacity:1;stroke:none;font-family:Sans"
       d="m 88.582363,44.40122 1.93359,0 0,-6.673828 -2.10351,0.421875 0,-1.078125 2.09179,-0.421875 1.1836,0 0,7.751953 1.93359,0 0,0.996094 -5.03906,0 0,-0.996094"
       id="path3004-6"
       inkscape:connector-curvature="0" />
    <path
       style="font-size:12px;font-style:normal;font-weight:normal;line-height:125%;letter-spacing:0px;word-spacing:0px;fill:#000000;fill-opacity:1;stroke:none;font-family:Sans"
       d="m 81.259346,21.745644 1.933594,0 0,-6.673828 -2.103516,0.421875 0,-1.078125 2.091797,-0.421875 1.183594,0 0,7.751953 1.933594,0 0,0.996094 -5.039063,0 0,-0.996094"
       id="path3004-88"
       inkscape:connector-curvature="0" />
    <path
       style="font-size:12px;font-style:normal;font-weight:normal;line-height:125%;letter-spacing:0px;word-spacing:0px;fill:#000000;fill-opacity:1;stroke:none;font-family:Sans"
       d="m 101.39763,64.539509 1.9336,0 0,-6.673828 -2.10352,0.421875 0,-1.078125 2.0918,-0.421875 1.1836,0 0,7.751953 1.93359,0 0,0.996094 -5.03907,0 0,-0.996094"
       id="path3004-431"
       inkscape:connector-curvature="0" />
    <path
       style="font-size:medium;font-style:normal;font-variant:normal;font-weight:normal;font-stretch:normal;text-indent:0;text-align:start;text-decoration:none;line-height:normal;letter-spacing:normal;word-spacing:normal;text-transform:none;direction:ltr;block-progression:tb;writing-mode:lr-tb;text-anchor:start;baseline-shift:baseline;color:#000000;fill:#000000;fill-opacity:1;stroke:none;stroke-width:1;marker:none;visibility:visible;display:inline;overflow:visible;enable-background:accumulate;font-family:Sans;-inkscape-font-specification:Sans"
       d="m 65.629833,40.279611 c -20.839263,0 -37.78125,16.268923 -37.78125,36.34375 0,20.074828 16.941987,36.343749 37.78125,36.343749 20.839263,0 37.750007,-16.268921 37.750007,-36.343749 0,-20.074827 -16.910744,-36.34375 -37.750007,-36.34375 z m 0,1 c 20.319451,0 36.750007,15.830808 36.750007,35.34375 0,19.512948 -16.430556,35.343749 -36.750007,35.343749 -20.319451,0 -36.78125,-15.830801 -36.78125,-35.343749 0,-19.512942 16.461799,-35.34375 36.78125,-35.34375 z"
       id="path4092-4"
       inkscape:connector-curvature="0" />
    <g
       transform="translate(53.116263,0.52074768)"
       style="font-size:40px;font-style:normal;font-weight:normal;line-height:125%;letter-spacing:0px;word-spacing:0px;fill:#000000;fill-opacity:1;stroke:none;font-family:Sans"
       id="flowRoot3016">
      <path
         d="m 17.842773,115.51766 0,1.87207 c -0.597667,-0.55663 -1.236338,-0.97265 -1.916015,-1.24805 -0.673837,-0.27538 -1.39161,-0.41307 -2.15332,-0.41309 -1.500007,2e-5 -2.648443,0.45998 -3.445313,1.37989 -0.7968783,0.91407 -1.1953154,2.23829 -1.1953125,3.97265 -2.9e-6,1.72852 0.3984342,3.05274 1.1953125,3.97266 0.79687,0.91406 1.945306,1.37109 3.445313,1.37109 0.76171,0 1.479483,-0.13769 2.15332,-0.41308 0.679677,-0.27539 1.318348,-0.69141 1.916015,-1.24805 l 0,1.85449 c -0.621104,0.42188 -1.280283,0.73828 -1.977539,0.94922 -0.691415,0.21094 -1.423836,0.31641 -2.197265,0.31641 -1.986334,0 -3.550785,-0.60645 -4.6933596,-1.81934 -1.1425797,-1.21875 -1.7138682,-2.87988 -1.7138672,-4.9834 -1e-6,-2.10936 0.5712875,-3.77049 1.7138672,-4.9834 1.1425746,-1.21873 2.7070256,-1.82811 4.6933596,-1.82812 0.785148,1e-5 1.523428,0.10548 2.214844,0.31641 0.697255,0.20509 1.350574,0.51563 1.95996,0.93164"
         style="font-size:18px"
         id="path3025" />
    </g>
    <path
       style="font-size:12px;font-style:normal;font-weight:normal;line-height:125%;letter-spacing:0px;word-spacing:0px;fill:#000000;fill-opacity:1;stroke:none;font-family:Sans"
       d="m 54.066553,102.39344 1.933594,0 0,-6.673826 -2.103516,0.421875 0,-1.078125 2.091797,-0.421875 1.183594,0 0,7.751951 1.933594,0 0,0.9961 -5.039063,0 0,-0.9961"
       id="path3004-8-7"
       inkscape:connector-curvature="0" />
    <path
       style="font-size:12px;font-style:normal;font-weight:normal;line-height:125%;letter-spacing:0px;word-spacing:0px;fill:#000000;fill-opacity:1;stroke:none;font-family:Sans"
       d="m 35.319636,90.67662 1.933594,0 0,-6.673828 -2.103516,0.421875 0,-1.078125 2.091797,-0.421875 1.183594,0 0,7.751953 1.933594,0 0,0.996094 -5.039063,0 0,-0.996094"
       id="path3004-8-4"
       inkscape:connector-curvature="0" />
    <path
       style="font-size:12px;font-style:normal;font-weight:normal;line-height:125%;letter-spacing:0px;word-spacing:0px;fill:#000000;fill-opacity:1;stroke:none;font-family:Sans"
       d="m 63.440011,89.374749 1.933594,0 0,-6.67383 -2.103516,0.42188 0,-1.078126 2.091797,-0.421875 1.183594,0 0,7.751951 1.933594,0 0,0.9961 -5.039063,0 0,-0.9961"
       id="path3004-8-43"
       inkscape:connector-curvature="0" />
    <path
       style="font-size:12px;font-style:normal;font-weight:normal;line-height:125%;letter-spacing:0px;word-spacing:0px;fill:#000000;fill-opacity:1;stroke:none;font-family:Sans"
       d="m 77.539758,74.872917 4.13086,0 0,0.996094 -5.554688,0 0,-0.996094 c 0.449218,-0.464842 1.060545,-1.087888 1.833985,-1.86914 0.77734,-0.785153 1.265621,-1.291012 1.464843,-1.517579 0.378902,-0.425776 0.642574,-0.785151 0.791016,-1.078125 0.152339,-0.296869 0.22851,-0.587884 0.228516,-0.873046 -6e-6,-0.464837 -0.164068,-0.843743 -0.492188,-1.136719 -0.324223,-0.292961 -0.748051,-0.439445 -1.271484,-0.439453 -0.371097,8e-6 -0.763675,0.06446 -1.177735,0.193359 -0.410158,0.128914 -0.84961,0.324226 -1.318359,0.585938 l 0,-1.195313 c 0.476561,-0.191398 0.921873,-0.335929 1.335937,-0.433594 0.41406,-0.09765 0.792966,-0.146475 1.136719,-0.146484 0.906246,9e-6 1.628901,0.226571 2.167969,0.679687 0.539056,0.453133 0.808587,1.058601 0.808594,1.816407 -7e-6,0.359381 -0.06837,0.701177 -0.205078,1.02539 -0.132819,0.320318 -0.376959,0.699224 -0.732422,1.136719 -0.09766,0.113285 -0.408208,0.44141 -0.931641,0.984375 -0.523441,0.539065 -1.261722,1.294924 -2.214844,2.267578"
       id="path3006-7-0"
       inkscape:connector-curvature="0" />
    <path
       style="font-size:12px;font-style:normal;font-weight:normal;line-height:125%;letter-spacing:0px;word-spacing:0px;fill:#000000;fill-opacity:1;stroke:none;font-family:Sans"
       d="m 85.350973,60.031608 4.13086,0 0,0.996094 -5.554688,0 0,-0.996094 c 0.449218,-0.464842 1.060545,-1.087888 1.833985,-1.86914 0.77734,-0.785153 1.265621,-1.291012 1.464843,-1.517579 0.378902,-0.425776 0.642574,-0.785151 0.791016,-1.078125 0.152339,-0.296869 0.22851,-0.587884 0.228516,-0.873046 -6e-6,-0.464837 -0.164068,-0.843743 -0.492188,-1.136719 -0.324223,-0.292961 -0.748051,-0.439445 -1.271484,-0.439453 -0.371097,8e-6 -0.763675,0.06446 -1.177735,0.193359 -0.410158,0.128914 -0.84961,0.324226 -1.318359,0.585938 l 0,-1.195313 c 0.476561,-0.191398 0.921873,-0.335929 1.335937,-0.433594 0.41406,-0.09765 0.792966,-0.146475 1.136719,-0.146484 0.906246,9e-6 1.628901,0.226571 2.167969,0.679687 0.539056,0.453133 0.808587,1.058601 0.808594,1.816407 -7e-6,0.359381 -0.06837,0.701177 -0.205078,1.02539 -0.132819,0.320318 -0.376959,0.699224 -0.732422,1.136719 -0.09766,0.113285 -0.408208,0.44141 -0.931641,0.984375 -0.523441,0.539065 -1.261722,1.294924 -2.214844,2.267578"
       id="path3006-7-7"
       inkscape:connector-curvature="0" />
    <path
       style="font-size:12px;font-style:normal;font-weight:normal;line-height:125%;letter-spacing:0px;word-spacing:0px;fill:#000000;fill-opacity:1;stroke:none;font-family:Sans"
       d="m 92.901814,74.612543 4.13086,0 0,0.996094 -5.554688,0 0,-0.996094 c 0.449218,-0.464842 1.060545,-1.087888 1.833985,-1.86914 0.77734,-0.785153 1.265621,-1.291012 1.464843,-1.517579 0.378902,-0.425776 0.642574,-0.785151 0.791016,-1.078125 0.152339,-0.296869 0.22851,-0.587884 0.228516,-0.873046 -6e-6,-0.464837 -0.164068,-0.843743 -0.492188,-1.136719 -0.324223,-0.292961 -0.748051,-0.439445 -1.271484,-0.439453 -0.371097,8e-6 -0.763675,0.06446 -1.177735,0.193359 -0.410158,0.128914 -0.84961,0.324226 -1.318359,0.585938 l 0,-1.195313 c 0.476561,-0.191398 0.921873,-0.335929 1.335937,-0.433594 0.41406,-0.09765 0.792966,-0.146475 1.136719,-0.146484 0.906246,9e-6 1.628901,0.226571 2.167969,0.679687 0.539056,0.453133 0.808587,1.058601 0.808594,1.816407 -7e-6,0.359381 -0.06837,0.701177 -0.205078,1.02539 -0.132819,0.320318 -0.376959,0.699224 -0.732422,1.136719 -0.09766,0.113285 -0.408208,0.44141 -0.931641,0.984375 -0.523441,0.539065 -1.261722,1.294924 -2.214844,2.267578"
       id="path3006-7-8"
       inkscape:connector-curvature="0" />
    <path
       style="font-size:12px;font-style:normal;font-weight:normal;line-height:125%;letter-spacing:0px;word-spacing:0px;fill:#000000;fill-opacity:1;stroke:none;font-family:Sans"
       d="m 60.317143,48.984462 c 0.5664,0.121098 1.007806,0.37305 1.324218,0.755859 0.320306,0.382817 0.480462,0.855472 0.480469,1.417969 -7e-6,0.863283 -0.296881,1.53125 -0.890625,2.003906 -0.593755,0.472656 -1.437504,0.708984 -2.53125,0.708984 -0.36719,0 -0.746096,-0.03711 -1.136719,-0.111328 -0.38672,-0.07031 -0.78711,-0.177734 -1.201172,-0.322265 l 0,-1.142578 c 0.328124,0.191406 0.687499,0.335939 1.078125,0.433593 0.390623,0.09766 0.798826,0.146485 1.22461,0.146485 0.742183,0 1.306636,-0.146484 1.693359,-0.439453 0.39062,-0.292967 0.585932,-0.718748 0.585938,-1.277344 -6e-6,-0.515622 -0.181646,-0.917966 -0.544922,-1.207031 -0.35938,-0.292966 -0.861332,-0.43945 -1.50586,-0.439454 l -1.019531,0 0,-0.972656 1.066406,0 c 0.582028,6e-6 1.02734,-0.115229 1.335938,-0.345703 0.308589,-0.234369 0.462885,-0.570307 0.462891,-1.007812 -6e-6,-0.449213 -0.160162,-0.792963 -0.480469,-1.03125 -0.316411,-0.24218 -0.771489,-0.363273 -1.365235,-0.363282 -0.324221,9e-6 -0.671877,0.03516 -1.042968,0.105469 -0.371096,0.07032 -0.779299,0.179696 -1.22461,0.328125 l 0,-1.054687 c 0.449217,-0.124992 0.869139,-0.218742 1.259766,-0.28125 0.394528,-0.06249 0.765622,-0.09374 1.113281,-0.09375 0.898433,8e-6 1.60937,0.205086 2.132813,0.615234 0.523431,0.406258 0.78515,0.957039 0.785156,1.652344 -6e-6,0.48438 -0.138678,0.894537 -0.416016,1.230468 -0.277349,0.332037 -0.67188,0.562506 -1.183593,0.691407"
       id="path3146" />
    <path
       style="font-size:12px;font-style:normal;font-weight:normal;line-height:125%;letter-spacing:0px;word-spacing:0px;fill:#000000;fill-opacity:1;stroke:none;font-family:Sans"
       d="m 72.678002,49.716598 c 0.5664,0.121098 1.007806,0.373051 1.324218,0.755859 0.320306,0.382817 0.480462,0.855472 0.480469,1.417969 -7e-6,0.863283 -0.296881,1.531251 -0.890625,2.003906 -0.593755,0.472657 -1.437504,0.708985 -2.53125,0.708985 -0.36719,0 -0.746096,-0.03711 -1.136719,-0.111328 -0.38672,-0.07031 -0.78711,-0.177735 -1.201172,-0.322266 l 0,-1.142578 c 0.328124,0.191407 0.687499,0.335939 1.078125,0.433594 0.390623,0.09766 0.798826,0.146485 1.22461,0.146484 0.742183,1e-6 1.306636,-0.146483 1.693359,-0.439453 0.39062,-0.292967 0.585932,-0.718748 0.585938,-1.277344 -6e-6,-0.515622 -0.181646,-0.917965 -0.544922,-1.207031 -0.35938,-0.292965 -0.861332,-0.439449 -1.50586,-0.439453 l -1.019531,0 0,-0.972656 1.066406,0 c 0.582028,5e-6 1.02734,-0.11523 1.335938,-0.345704 0.308589,-0.234369 0.462885,-0.570306 0.462891,-1.007812 -6e-6,-0.449212 -0.160162,-0.792962 -0.480469,-1.03125 -0.316411,-0.24218 -0.771489,-0.363273 -1.365235,-0.363281 -0.324221,8e-6 -0.671877,0.03516 -1.042968,0.105468 -0.371096,0.07032 -0.779299,0.179696 -1.22461,0.328125 l 0,-1.054687 c 0.449217,-0.124991 0.869139,-0.218741 1.259766,-0.28125 0.394528,-0.06249 0.765622,-0.09374 1.113281,-0.09375 0.898433,9e-6 1.60937,0.205087 2.132813,0.615234 0.523431,0.406258 0.78515,0.957039 0.785156,1.652344 -6e-6,0.484381 -0.138678,0.894537 -0.416016,1.230469 -0.277349,0.332036 -0.67188,0.562505 -1.183593,0.691406"
       id="path3140" />
    <path
       style="font-size:12px;font-style:normal;font-weight:normal;line-height:125%;letter-spacing:0px;word-spacing:0px;fill:#000000;fill-opacity:1;stroke:none;font-family:Sans"
       d="m 65.127161,61.173047 c 0.5664,0.121098 1.007806,0.373051 1.324218,0.755859 0.320306,0.382817 0.480462,0.855472 0.480469,1.417969 -7e-6,0.863283 -0.296881,1.531251 -0.890625,2.003906 -0.593755,0.472657 -1.437504,0.708985 -2.53125,0.708985 -0.36719,0 -0.746096,-0.03711 -1.136719,-0.111328 -0.38672,-0.07031 -0.78711,-0.177735 -1.201172,-0.322266 l 0,-1.142578 c 0.328124,0.191407 0.687499,0.335939 1.078125,0.433594 0.390623,0.09766 0.798826,0.146485 1.22461,0.146484 0.742183,10e-7 1.306636,-0.146483 1.693359,-0.439453 0.39062,-0.292967 0.585932,-0.718748 0.585938,-1.277344 -6e-6,-0.515622 -0.181646,-0.917965 -0.544922,-1.207031 -0.35938,-0.292965 -0.861332,-0.439449 -1.50586,-0.439453 l -1.019531,0 0,-0.972656 1.066406,0 c 0.582028,5e-6 1.02734,-0.11523 1.335938,-0.345704 0.308589,-0.234369 0.462885,-0.570306 0.462891,-1.007812 -6e-6,-0.449212 -0.160162,-0.792962 -0.480469,-1.03125 -0.316411,-0.24218 -0.771489,-0.363273 -1.365235,-0.363281 -0.324221,8e-6 -0.671877,0.03516 -1.042968,0.105468 -0.371096,0.07032 -0.779299,0.179696 -1.22461,0.328125 l 0,-1.054687 c 0.449217,-0.124991 0.869139,-0.218741 1.259766,-0.28125 0.394528,-0.06249 0.765622,-0.09374 1.113281,-0.09375 0.898433,9e-6 1.60937,0.205087 2.132813,0.615234 0.523431,0.406258 0.78515,0.957039 0.785156,1.652344 -6e-6,0.484381 -0.138678,0.894537 -0.416016,1.230469 -0.277349,0.332036 -0.67188,0.562505 -1.183593,0.691406"
       id="path3143" />
  </g>
</svg>
