<?xml version="1.0" encoding="UTF-8" standalone="no"?>
<!-- Created with Inkscape (http://www.inkscape.org/) -->

<svg
   xmlns:dc="http://purl.org/dc/elements/1.1/"
   xmlns:cc="http://creativecommons.org/ns#"
   xmlns:rdf="http://www.w3.org/1999/02/22-rdf-syntax-ns#"
   xmlns:svg="http://www.w3.org/2000/svg"
   xmlns="http://www.w3.org/2000/svg"
   xmlns:sodipodi="http://sodipodi.sourceforge.net/DTD/sodipodi-0.dtd"
   xmlns:inkscape="http://www.inkscape.org/namespaces/inkscape"
   width="280"
   height="120"
   id="svg2"
   version="1.1"
   inkscape:version="0.48.0 r9654"
   sodipodi:docname="2011-(03)mar-02, 07.svg">
  <defs
     id="defs4" />
  <sodipodi:namedview
     id="base"
     pagecolor="#ffffff"
     bordercolor="#666666"
     borderopacity="1.0"
     inkscape:pageopacity="0.0"
     inkscape:pageshadow="2"
     inkscape:zoom="0.9601579"
     inkscape:cx="210.60356"
     inkscape:cy="80.277354"
     inkscape:document-units="px"
     inkscape:current-layer="layer1"
     showgrid="false"
     inkscape:window-width="1589"
     inkscape:window-height="1117"
     inkscape:window-x="1600"
     inkscape:window-y="27"
     inkscape:window-maximized="1"
     showguides="true"
     inkscape:guide-bbox="true" />
  <metadata
     id="metadata7">
    <rdf:RDF>
      <cc:Work
         rdf:about="">
        <dc:format>image/svg+xml</dc:format>
        <dc:type
           rdf:resource="http://purl.org/dc/dcmitype/StillImage" />
        <dc:title />
      </cc:Work>
    </rdf:RDF>
  </metadata>
  <g
     inkscape:label="Layer 1"
     inkscape:groupmode="layer"
     id="layer1">
    <path
       style="font-size:medium;font-style:normal;font-variant:normal;font-weight:normal;font-stretch:normal;text-indent:0;text-align:start;text-decoration:none;line-height:normal;letter-spacing:normal;word-spacing:normal;text-transform:none;direction:ltr;block-progression:tb;writing-mode:lr-tb;text-anchor:start;baseline-shift:baseline;color:#000000;fill:#000000;fill-opacity:1;stroke:none;stroke-width:1;marker:none;visibility:visible;display:inline;overflow:visible;enable-background:accumulate;font-family:Sans;-inkscape-font-specification:Sans"
       d="M 40.125 6.84375 A 0.50005 0.50005 0 0 0 39.8125 7.125 L 3.28125 70.375 A 0.50005 0.50005 0 0 0 3.71875 71.15625 L 76.8125 71.15625 A 0.50005 0.50005 0 0 0 77.21875 70.40625 L 40.71875 7.125 A 0.50005 0.50005 0 0 0 40.21875 6.84375 A 0.50005 0.50005 0 0 0 40.125 6.84375 z M 40.28125 8.375 L 75.9375 70.15625 L 4.625 70.125 L 40.28125 8.375 z "
       id="path3033" />
    <path
       style="font-size:12px;font-style:normal;font-variant:normal;font-weight:normal;font-stretch:normal;text-indent:0;text-align:start;text-decoration:none;line-height:normal;letter-spacing:normal;word-spacing:normal;text-transform:none;direction:ltr;block-progression:tb;writing-mode:lr-tb;text-anchor:start;baseline-shift:baseline;color:#000000;fill-opacity:1;fill-rule:evenodd;stroke:none;stroke-width:0.625;marker:none;visibility:visible;display:inline;overflow:visible;enable-background:accumulate;font-family:Sans;-inkscape-font-specification:Sans"
       d="M 34.78125,65.875 A 0.31253125,0.31253125 0 0 0 34.625,65.96875 0.31253125,0.31253125 0 0 0 34.59375,66.375 c 1.832084,2.552644 1.839063,5.969538 0,8.46875 a 0.31253125,0.31253125 0 0 0 0.375,0.46875 l 12,-4.40625 a 0.31253125,0.31253125 0 0 0 0.1875,-0.1875 0.31253125,0.31253125 0 0 0 -0.125,-0.375 0.31253125,0.31253125 0 0 0 -0.0625,-0.03125 l -12,-4.40625 A 0.31253125,0.31253125 0 0 0 34.78125,65.875 z"
       id="path3077" />
    <path
       style="font-size:medium;font-style:normal;font-variant:normal;font-weight:normal;font-stretch:normal;text-indent:0;text-align:start;text-decoration:none;line-height:normal;letter-spacing:normal;word-spacing:normal;text-transform:none;direction:ltr;block-progression:tb;writing-mode:lr-tb;text-anchor:start;baseline-shift:baseline;color:#000000;fill:#000000;fill-opacity:1;stroke:none;stroke-width:1;marker:none;visibility:visible;display:inline;overflow:visible;enable-background:accumulate;font-family:Sans;-inkscape-font-specification:Sans"
       d="M 140.125 6.84375 A 0.50005 0.50005 0 0 0 139.8125 7.125 L 103.28125 70.375 A 0.50005 0.50005 0 0 0 103.71875 71.15625 L 176.8125 71.15625 A 0.50005 0.50005 0 0 0 177.21875 70.40625 L 140.71875 7.125 A 0.50005 0.50005 0 0 0 140.21875 6.84375 A 0.50005 0.50005 0 0 0 140.125 6.84375 z M 140.28125 8.375 L 175.9375 70.15625 L 104.625 70.125 L 140.28125 8.375 z "
       id="path3037" />
    <path
       style="font-size:12px;font-style:normal;font-variant:normal;font-weight:normal;font-stretch:normal;text-indent:0;text-align:start;text-decoration:none;line-height:normal;letter-spacing:normal;word-spacing:normal;text-transform:none;direction:ltr;block-progression:tb;writing-mode:lr-tb;text-anchor:start;baseline-shift:baseline;color:#000000;fill-opacity:1;fill-rule:evenodd;stroke:none;stroke-width:0.625;marker:none;visibility:visible;display:inline;overflow:visible;enable-background:accumulate;font-family:Sans;-inkscape-font-specification:Sans"
       d="m 154.8125,32.4375 a 0.31253125,0.31253125 0 0 0 -0.1875,0.34375 l 2.125,12.625 a 0.31253125,0.31253125 0 0 0 0.15625,0.25 A 0.31253125,0.31253125 0 0 0 157.3125,45.5 c 1.30965,-2.856109 4.29293,-4.546785 7.375,-4.1875 A 0.31253125,0.31253125 0 0 0 165.03125,41 0.31253125,0.31253125 0 0 0 164.9375,40.75 L 155.125,32.5 a 0.31253125,0.31253125 0 0 0 -0.3125,-0.0625 z"
       id="path3073" />
    <path
       style="font-size:medium;font-style:normal;font-variant:normal;font-weight:normal;font-stretch:normal;text-indent:0;text-align:start;text-decoration:none;line-height:normal;letter-spacing:normal;word-spacing:normal;text-transform:none;direction:ltr;block-progression:tb;writing-mode:lr-tb;text-anchor:start;baseline-shift:baseline;color:#000000;fill:#000000;fill-opacity:1;stroke:none;stroke-width:1;marker:none;visibility:visible;display:inline;overflow:visible;enable-background:accumulate;font-family:Sans;-inkscape-font-specification:Sans"
       d="M 240.125 6.84375 A 0.50005 0.50005 0 0 0 239.8125 7.125 L 203.28125 70.375 A 0.50005 0.50005 0 0 0 203.71875 71.15625 L 276.8125 71.15625 A 0.50005 0.50005 0 0 0 277.21875 70.40625 L 240.71875 7.125 A 0.50005 0.50005 0 0 0 240.21875 6.84375 A 0.50005 0.50005 0 0 0 240.125 6.84375 z M 240.28125 8.375 L 275.9375 70.15625 L 204.625 70.125 L 240.28125 8.375 z "
       id="path3041" />
    <path
       style="font-size:12px;font-style:normal;font-variant:normal;font-weight:normal;font-stretch:normal;text-indent:0;text-align:start;text-decoration:none;line-height:normal;letter-spacing:normal;word-spacing:normal;text-transform:none;direction:ltr;block-progression:tb;writing-mode:lr-tb;text-anchor:start;baseline-shift:baseline;color:#000000;fill-opacity:1;fill-rule:evenodd;stroke:none;stroke-width:0.625;marker:none;visibility:visible;display:inline;overflow:visible;enable-background:accumulate;font-family:Sans;-inkscape-font-specification:Sans"
       d="m 225.21875,32.90625 a 0.31253125,0.31253125 0 0 0 -0.0625,0.03125 0.31253125,0.31253125 0 0 0 -0.0625,0.0625 l -9.6875,8.375 a 0.31253125,0.31253125 0 0 0 0.25,0.5625 c 3.11975,-0.373848 6.10385,1.277376 7.40625,4.09375 a 0.31253125,0.31253125 0 0 0 0.5,0.09375 0.31253125,0.31253125 0 0 0 0.0937,-0.1875 l 1.9375,-12.65625 A 0.31253125,0.31253125 0 0 0 225.5,33 0.31253125,0.31253125 0 0 0 225.21875,32.90625 z"
       id="path3069" />
    <path
       style="font-size:medium;font-style:normal;font-variant:normal;font-weight:normal;font-stretch:normal;text-indent:0;text-align:start;text-decoration:none;line-height:normal;letter-spacing:normal;word-spacing:normal;text-transform:none;direction:ltr;block-progression:tb;writing-mode:lr-tb;text-anchor:start;baseline-shift:baseline;color:#000000;fill:#000000;fill-opacity:1;stroke:none;stroke-width:1px;marker:none;visibility:visible;display:inline;overflow:visible;enable-background:accumulate;font-family:Sans;-inkscape-font-specification:Sans"
       d="M 88.78125,25.0625 C 80.725594,25.399257 71.572134,28.419996 62.125,36.5 l 0.65625,0.78125 c 14.879768,-12.726461 28.74732,-12.665854 38.875,-9.46875 5.06384,1.598552 9.18662,3.980912 12,5.96875 1.40669,0.993919 2.48708,1.89512 3.1875,2.53125 0.35021,0.318065 0.60185,0.587901 0.75,0.75 0.0741,0.08105 0.1206,0.118535 0.125,0.125 0.002,0.0032 -0.001,0.02183 -0.0312,-0.09375 -0.008,-0.02889 -0.0327,-0.06318 -0.0312,-0.125 10e-4,-0.06182 0.0634,-0.251402 0.0625,-0.25 -8.7e-4,0.0014 0.25169,-0.188127 0.25,-0.1875 -0.002,6.27e-4 0.17257,-0.03414 0.21875,-0.03125 l -0.0625,1 c 0.0512,0.0032 0.18581,-0.03062 0.1875,-0.03125 0.002,-6.27e-4 0.28038,-0.217348 0.28125,-0.21875 8.7e-4,-0.0014 0.061,-0.183843 0.0625,-0.25 0.002,-0.06616 -0.0222,-0.12151 -0.0312,-0.15625 -0.0363,-0.138961 -0.064,-0.17514 -0.0937,-0.21875 -0.0594,-0.08722 -0.12791,-0.150605 -0.21875,-0.25 -0.18168,-0.19879 -0.44556,-0.479241 -0.8125,-0.8125 -0.73388,-0.666518 -1.84096,-1.576092 -3.28125,-2.59375 -2.88058,-2.035316 -7.09305,-4.487189 -12.28125,-6.125 -3.891153,-1.228359 -8.322856,-1.983304 -13.15625,-1.78125 z"
       id="path2996" />
    <path
       style="font-size:12px;font-style:normal;font-variant:normal;font-weight:normal;font-stretch:normal;text-indent:0;text-align:start;text-decoration:none;line-height:normal;letter-spacing:normal;word-spacing:normal;text-transform:none;direction:ltr;block-progression:tb;writing-mode:lr-tb;text-anchor:start;baseline-shift:baseline;color:#000000;fill-opacity:1;fill-rule:evenodd;stroke:none;stroke-width:0.625;marker:none;visibility:visible;display:inline;overflow:visible;enable-background:accumulate;font-family:Sans;-inkscape-font-specification:Sans"
       d="m 113.40625,26.71875 a 0.31253125,0.31253125 0 0 0 -0.0937,0.0625 A 0.31253125,0.31253125 0 0 0 113.1875,27 c -0.27323,3.130157 -2.47653,5.739718 -5.5,6.4375 a 0.31253125,0.31253125 0 0 0 -0.1875,0.46875 0.31253125,0.31253125 0 0 0 0.15625,0.125 l 12,4.46875 a 0.31253125,0.31253125 0 0 0 0.0625,0.03125 0.31253125,0.31253125 0 0 0 0.28125,-0.125 0.31253125,0.31253125 0 0 0 0.0312,-0.34375 l -6.25,-11.1875 a 0.31253125,0.31253125 0 0 0 -0.375,-0.15625 z"
       id="path3063" />
    <path
       style="font-size:medium;font-style:normal;font-variant:normal;font-weight:normal;font-stretch:normal;text-indent:0;text-align:start;text-decoration:none;line-height:normal;letter-spacing:normal;word-spacing:normal;text-transform:none;direction:ltr;block-progression:tb;writing-mode:lr-tb;text-anchor:start;baseline-shift:baseline;color:#000000;fill:#000000;fill-opacity:1;stroke:none;stroke-width:1px;marker:none;visibility:visible;display:inline;overflow:visible;enable-background:accumulate;font-family:Sans;-inkscape-font-specification:Sans"
       d="M 188.125,25.0625 C 180.06934,25.399257 170.94713,28.419996 161.5,36.5 l 0.625,0.78125 C 177.00477,24.554789 190.87232,24.615396 201,27.8125 c 5.06384,1.598552 9.18662,3.980912 12,5.96875 1.40669,0.993919 2.48708,1.89512 3.1875,2.53125 0.35021,0.318065 0.60185,0.587901 0.75,0.75 0.0741,0.08105 0.1206,0.118535 0.125,0.125 0.002,0.0032 -0.001,0.02183 -0.0312,-0.09375 -0.008,-0.02889 -0.0327,-0.06318 -0.0312,-0.125 0.001,-0.06182 0.0946,-0.251402 0.0937,-0.25 -8.7e-4,0.0014 0.25169,-0.188127 0.25,-0.1875 -0.002,6.27e-4 0.14132,-0.03414 0.1875,-0.03125 l -0.0625,1 c 0.0512,0.0032 0.21706,-0.03062 0.21875,-0.03125 0.002,-6.27e-4 0.24913,-0.217348 0.25,-0.21875 8.7e-4,-0.0014 0.0609,-0.183843 0.0625,-0.25 0.002,-0.06616 0.009,-0.12151 0,-0.15625 -0.0363,-0.138961 -0.064,-0.17514 -0.0937,-0.21875 -0.0594,-0.08722 -0.12791,-0.150605 -0.21875,-0.25 -0.18168,-0.19879 -0.47681,-0.479241 -0.84375,-0.8125 -0.73388,-0.666518 -1.84096,-1.576092 -3.28125,-2.59375 -2.88058,-2.035316 -7.09305,-4.487189 -12.28125,-6.125 -3.89115,-1.228359 -8.32286,-1.983304 -13.15625,-1.78125 z"
       id="path4154" />
    <path
       style="font-size:12px;font-style:normal;font-variant:normal;font-weight:normal;font-stretch:normal;text-indent:0;text-align:start;text-decoration:none;line-height:normal;letter-spacing:normal;word-spacing:normal;text-transform:none;direction:ltr;block-progression:tb;writing-mode:lr-tb;text-anchor:start;baseline-shift:baseline;color:#000000;fill-opacity:1;fill-rule:evenodd;stroke:none;stroke-width:0.625;marker:none;visibility:visible;display:inline;overflow:visible;enable-background:accumulate;font-family:Sans;-inkscape-font-specification:Sans"
       d="M 212.75,26.71875 A 0.31253125,0.31253125 0 0 0 212.71875,26.75 0.31253125,0.31253125 0 0 0 212.5625,27 c -0.27323,3.130157 -2.50778,5.739718 -5.53125,6.4375 a 0.31253125,0.31253125 0 0 0 -0.0937,0.03125 0.31253125,0.31253125 0 0 0 0.0625,0.5625 L 219,38.5 a 0.31253125,0.31253125 0 0 0 0.28125,-0.03125 0.31253125,0.31253125 0 0 0 0.0625,-0.0625 0.31253125,0.31253125 0 0 0 0.0312,-0.34375 l -6.25,-11.1875 a 0.31253125,0.31253125 0 0 0 -0.0312,-0.0625 0.31253125,0.31253125 0 0 0 -0.34375,-0.09375 z"
       id="path3057" />
    <path
       style="font-size:12px;font-style:normal;font-weight:normal;line-height:125%;letter-spacing:0px;word-spacing:0px;fill:#000000;fill-opacity:1;stroke:none;font-family:Sans"
       d="m 93.297464,15.801418 c -0.1211,-0.07031 -0.25391,-0.121088 -0.39844,-0.152343 -0.14063,-0.03515 -0.29688,-0.05273 -0.46875,-0.05274 -0.60938,6e-6 -1.07813,0.199225 -1.40625,0.597657 -0.32422,0.394536 -0.48633,0.962894 -0.48633,1.705078 l 0,3.457031 -1.083984,0 0,-6.5625 1.083984,0 0,1.019531 c 0.22656,-0.398431 0.52148,-0.693353 0.88477,-0.884765 0.36327,-0.195306 0.80468,-0.292962 1.32421,-0.292969 0.0742,7e-6 0.15625,0.0059 0.2461,0.01758 0.0898,0.0078 0.18945,0.02149 0.29883,0.04102 l 0.006,1.107421"
       id="path4167" />
    <path
       style="font-size:12px;font-style:normal;font-weight:normal;line-height:125%;letter-spacing:0px;word-spacing:0px;fill:#000000;fill-opacity:1;stroke:none;font-family:Sans"
       d="m 191.58261,14.793606 -2.37305,3.193359 2.4961,3.369141 -1.27149,0 -1.91015,-2.578125 -1.91016,2.578125 -1.27148,0 2.54882,-3.433594 -2.33203,-3.128906 1.27149,0 1.74023,2.337891 1.74024,-2.337891 1.27148,0"
       id="path4169" />
    <path
       style="font-size:medium;font-style:normal;font-variant:normal;font-weight:normal;font-stretch:normal;text-indent:0;text-align:start;text-decoration:none;line-height:normal;letter-spacing:normal;word-spacing:normal;text-transform:none;direction:ltr;block-progression:tb;writing-mode:lr-tb;text-anchor:start;baseline-shift:baseline;color:#000000;fill:#000000;fill-opacity:1;stroke:none;stroke-width:1px;marker:none;visibility:visible;display:inline;overflow:visible;enable-background:accumulate;font-family:Sans;-inkscape-font-specification:Sans"
       d="m 241.10346,78.455462 0,1 c -0.0409,0 -0.16598,0.04664 -0.34375,-0.15625 -0.0889,-0.101444 -0.13602,-0.271248 -0.125,-0.375 0.011,-0.103752 0.0421,-0.153691 0.0625,-0.1875 0.0814,-0.135235 0.0702,-0.09092 0.0312,-0.0625 -0.0778,0.05684 -0.28023,0.188111 -0.5625,0.34375 -0.56455,0.311279 -1.46719,0.77024 -2.71875,1.34375 -2.50312,1.14702 -6.3418,2.750845 -11.34375,4.53125 -10.0039,3.560809 -24.70568,7.864786 -43,10.8125 -36.58864,5.895428 -87.490106,6.365058 -143.749996,-15.28125 l -0.375,0.9375 c 56.45333,21.720718 107.557326,21.260978 144.281296,15.34375 18.36198,-2.958617 33.13143,-7.295622 43.1875,-10.875 5.02803,-1.789689 8.87174,-3.401095 11.40625,-4.5625 1.26725,-0.580702 2.21173,-1.04375 2.8125,-1.375 0.30038,-0.165625 0.50296,-0.294283 0.65625,-0.40625 0.0766,-0.05598 0.14258,-0.04029 0.25,-0.21875 0.0268,-0.04461 0.0506,-0.106845 0.0625,-0.21875 0.0119,-0.111905 -0.0313,-0.299339 -0.125,-0.40625 -0.18735,-0.213822 -0.33303,-0.1875 -0.40625,-0.1875 z"
       id="path4177" />
    <path
       style="font-size:12px;font-style:normal;font-variant:normal;font-weight:normal;font-stretch:normal;text-indent:0;text-align:start;text-decoration:none;line-height:normal;letter-spacing:normal;word-spacing:normal;text-transform:none;direction:ltr;block-progression:tb;writing-mode:lr-tb;text-anchor:start;baseline-shift:baseline;color:#000000;fill-opacity:1;fill-rule:evenodd;stroke:none;stroke-width:0.625;marker:none;visibility:visible;display:inline;overflow:visible;enable-background:accumulate;font-family:Sans;-inkscape-font-specification:Sans"
       d="m 245.125,76.0625 a 0.31253125,0.31253125 0 0 0 -0.0312,0.03125 l -12.6563,1.96875 a 0.31253125,0.31253125 0 0 0 -0.21875,0.46875 0.31253125,0.31253125 0 0 0 0.125,0.125 c 2.84224,1.339474 4.51654,4.328114 4.125,7.40625 a 0.31253125,0.31253125 0 0 0 0.0625,0.21875 0.31253125,0.31253125 0 0 0 0.0625,0.0625 0.31253125,0.31253125 0 0 0 0.375,0 0.31253125,0.31253125 0 0 0 0.0625,-0.03125 l 8.34375,-9.71875 a 0.31253125,0.31253125 0 0 0 -0.0312,-0.4375 0.31253125,0.31253125 0 0 0 -0.21875,-0.09375 z"
       id="path3053" />
    <path
       style="font-size:12px;font-style:normal;font-weight:normal;line-height:125%;letter-spacing:0px;word-spacing:0px;fill:#000000;fill-opacity:1;stroke:none;font-family:Sans"
       d="m 141.30177,115.40663 c -0.30469,0.78125 -0.60157,1.29102 -0.89063,1.5293 -0.28906,0.23828 -0.67578,0.35742 -1.16015,0.35742 l -0.86133,0 0,-0.90234 0.63281,0 c 0.29687,0 0.52734,-0.0703 0.69141,-0.21094 0.16406,-0.14062 0.3457,-0.47265 0.54492,-0.99609 l 0.19336,-0.49219 -2.6543,-6.45703 1.14258,0 2.05078,5.13281 2.05078,-5.13281 1.14258,0 -2.88281,7.17187"
       id="path4384" />
  </g>
</svg>
