<?xml version="1.0" encoding="UTF-8" standalone="no"?>
<!-- Created with Inkscape (http://www.inkscape.org/) -->

<svg
   xmlns:dc="http://purl.org/dc/elements/1.1/"
   xmlns:cc="http://creativecommons.org/ns#"
   xmlns:rdf="http://www.w3.org/1999/02/22-rdf-syntax-ns#"
   xmlns:svg="http://www.w3.org/2000/svg"
   xmlns="http://www.w3.org/2000/svg"
   xmlns:sodipodi="http://sodipodi.sourceforge.net/DTD/sodipodi-0.dtd"
   xmlns:inkscape="http://www.inkscape.org/namespaces/inkscape"
   width="240"
   height="170"
   id="svg2"
   version="1.1"
   inkscape:version="0.48.0 r9654"
   sodipodi:docname="2011-(02)feb-09, 03.svg">
  <defs
     id="defs4" />
  <sodipodi:namedview
     id="base"
     pagecolor="#ffffff"
     bordercolor="#666666"
     borderopacity="1.0"
     inkscape:pageopacity="0.0"
     inkscape:pageshadow="2"
     inkscape:zoom="2.1848926"
     inkscape:cx="170.8909"
     inkscape:cy="63.568736"
     inkscape:document-units="px"
     inkscape:current-layer="layer1"
     showgrid="false"
     inkscape:window-width="1589"
     inkscape:window-height="1117"
     inkscape:window-x="1600"
     inkscape:window-y="27"
     inkscape:window-maximized="1"
     showguides="true"
     inkscape:guide-bbox="true" />
  <metadata
     id="metadata7">
    <rdf:RDF>
      <cc:Work
         rdf:about="">
        <dc:format>image/svg+xml</dc:format>
        <dc:type
           rdf:resource="http://purl.org/dc/dcmitype/StillImage" />
        <dc:title />
      </cc:Work>
    </rdf:RDF>
  </metadata>
  <g
     inkscape:label="Layer 1"
     inkscape:groupmode="layer"
     id="layer1">
    <path
       style="color:#000000;fill:#000000;fill-opacity:1;stroke:none;stroke-width:1;marker:none;visibility:visible;display:inline;overflow:visible;enable-background:accumulate"
       d="m 40.065632,36.172339 c 0,1.787385 -1.448961,3.236346 -3.236345,3.236346 -1.787385,0 -3.236346,-1.448961 -3.236346,-3.236346 0,-1.787384 1.448961,-3.236345 3.236346,-3.236345 1.787384,0 3.236345,1.448961 3.236345,3.236345 z"
       id="path3035" />
    <path
       style="color:#000000;fill:#000000;fill-opacity:1;stroke:none;stroke-width:1;marker:none;visibility:visible;display:inline;overflow:visible;enable-background:accumulate"
       d="m 24.531173,96.368369 c 0,1.787385 -1.448961,3.236346 -3.236345,3.236346 -1.787385,0 -3.236346,-1.448961 -3.236346,-3.236346 0,-1.787384 1.448961,-3.236345 3.236346,-3.236345 1.787384,0 3.236345,1.448961 3.236345,3.236345 z"
       id="path3035-4" />
    <path
       style="color:#000000;fill:#000000;fill-opacity:1;stroke:none;stroke-width:1;marker:none;visibility:visible;display:inline;overflow:visible;enable-background:accumulate"
       d="m 95.73078,86.012063 c 0,1.787385 -1.448961,3.236346 -3.236345,3.236346 -1.787385,0 -3.236346,-1.448961 -3.236346,-3.236346 0,-1.787384 1.448961,-3.236345 3.236346,-3.236345 1.787384,0 3.236345,1.448961 3.236345,3.236345 z"
       id="path3035-3" />
    <path
       style="color:#000000;fill:#000000;fill-opacity:1;stroke:none;stroke-width:1;marker:none;visibility:visible;display:inline;overflow:visible;enable-background:accumulate"
       d="m 144.27597,143.61902 c 0,1.78738 -1.44897,3.23634 -3.23635,3.23634 -1.78738,0 -3.23635,-1.44896 -3.23635,-3.23634 0,-1.78739 1.44897,-3.23635 3.23635,-3.23635 1.78738,0 3.23635,1.44896 3.23635,3.23635 z"
       id="path3035-0" />
    <path
       style="color:#000000;fill:#000000;fill-opacity:1;stroke:none;stroke-width:1;marker:none;visibility:visible;display:inline;overflow:visible;enable-background:accumulate"
       d="m 223.24281,145.56083 c 0,1.78738 -1.44897,3.23634 -3.23635,3.23634 -1.78738,0 -3.23635,-1.44896 -3.23635,-3.23634 0,-1.78739 1.44897,-3.23635 3.23635,-3.23635 1.78738,0 3.23635,1.44896 3.23635,3.23635 z"
       id="path3035-7" />
    <path
       style="color:#000000;fill:#000000;fill-opacity:1;stroke:none;stroke-width:1;marker:none;visibility:visible;display:inline;overflow:visible;enable-background:accumulate"
       d="m 144.27597,42.64503 c 0,1.787385 -1.44897,3.236346 -3.23635,3.236346 -1.78738,0 -3.23635,-1.448961 -3.23635,-3.236346 0,-1.787384 1.44897,-3.236345 3.23635,-3.236345 1.78738,0 3.23635,1.448961 3.23635,3.236345 z"
       id="path3035-8" />
    <path
       style="color:#000000;fill:#000000;fill-opacity:1;stroke:none;stroke-width:1;marker:none;visibility:visible;display:inline;overflow:visible;enable-background:accumulate"
       d="m 208.35562,76.303026 c 0,1.787385 -1.44897,3.236346 -3.23635,3.236346 -1.78738,0 -3.23635,-1.448961 -3.23635,-3.236346 0,-1.787384 1.44897,-3.236345 3.23635,-3.236345 1.78738,0 3.23635,1.448961 3.23635,3.236345 z"
       id="path3035-6" />
    <path
       style="font-size:medium;font-style:normal;font-variant:normal;font-weight:normal;font-stretch:normal;text-indent:0;text-align:start;text-decoration:none;line-height:normal;letter-spacing:normal;word-spacing:normal;text-transform:none;direction:ltr;block-progression:tb;writing-mode:lr-tb;text-anchor:start;baseline-shift:baseline;color:#000000;fill:#000000;fill-opacity:1;stroke:none;stroke-width:1px;marker:none;visibility:visible;display:inline;overflow:visible;enable-background:accumulate;font-family:Sans;-inkscape-font-specification:Sans"
       d="m 34.40625,41.875 -12.3125,46.59375 0.96875,0.25 L 35.375,42.125 34.40625,41.875 z"
       id="path3858" />
    <path
       style="font-size:12px;fill-rule:evenodd;stroke-width:0.625;stroke-linejoin:round"
       d="m 27.869525,51.20221 7.339773,-10.493005 1.206647,12.748311 C 34.382952,50.935255 30.928363,50.03507 27.869525,51.20221 z"
       id="path5819" />
    <path
       style="font-size:medium;font-style:normal;font-variant:normal;font-weight:normal;font-stretch:normal;text-indent:0;text-align:start;text-decoration:none;line-height:normal;letter-spacing:normal;word-spacing:normal;text-transform:none;direction:ltr;block-progression:tb;writing-mode:lr-tb;text-anchor:start;baseline-shift:baseline;color:#000000;fill:#000000;fill-opacity:1;stroke:none;stroke-width:1px;marker:none;visibility:visible;display:inline;overflow:visible;enable-background:accumulate;font-family:Sans;-inkscape-font-specification:Sans"
       d="M 85.3125,86.8125 29,95.21875 l 0.125,1 56.3125,-8.40625 -0.125,-1 z"
       id="path4490" />
    <path
       style="font-size:12px;fill-rule:evenodd;stroke-width:0.625;stroke-linejoin:round"
       d="m 74.145677,84.498096 12.53963,2.594823 -11.233365,6.147109 c 1.513356,-2.86437 0.974834,-6.393465 -1.306265,-8.741932 z"
       id="path5811" />
    <path
       style="font-size:medium;font-style:normal;font-variant:normal;font-weight:normal;font-stretch:normal;text-indent:0;text-align:start;text-decoration:none;line-height:normal;letter-spacing:normal;word-spacing:normal;text-transform:none;direction:ltr;block-progression:tb;writing-mode:lr-tb;text-anchor:start;baseline-shift:baseline;color:#000000;fill:#000000;fill-opacity:1;stroke:none;stroke-width:1px;marker:none;visibility:visible;display:inline;overflow:visible;enable-background:accumulate;font-family:Sans;-inkscape-font-specification:Sans"
       d="M 96.75,90.21875 96,90.875 135.46875,138.75 136.25,138.125 96.75,90.21875 z"
       id="path4492" />
    <path
       style="font-size:12px;fill-rule:evenodd;stroke-width:0.625;stroke-linejoin:round"
       d="m 132.48537,127.36948 4.23441,12.08491 -11.05483,-6.46268 c 3.23468,-0.17811 5.9823,-2.45739 6.82042,-5.62223 z"
       id="path5803" />
    <path
       style="font-size:medium;font-style:normal;font-variant:normal;font-weight:normal;font-stretch:normal;text-indent:0;text-align:start;text-decoration:none;line-height:normal;letter-spacing:normal;word-spacing:normal;text-transform:none;direction:ltr;block-progression:tb;writing-mode:lr-tb;text-anchor:start;baseline-shift:baseline;color:#000000;fill:#000000;fill-opacity:1;stroke:none;stroke-width:1px;marker:none;visibility:visible;display:inline;overflow:visible;enable-background:accumulate;font-family:Sans;-inkscape-font-specification:Sans"
       d="m 147.0625,45.40625 -0.375,0.9375 c 0.33117,0.132469 1.45961,0.714514 3.09375,1.5625 1.63414,0.847986 3.81031,1.978001 6.3125,3.3125 5.00437,2.668998 11.3551,6.102118 17.625,9.5 12.5398,6.795764 24.6875,13.4375 24.6875,13.4375 l 0.46875,-0.875 c 0,0 -12.11437,-6.640612 -24.65625,-13.4375 -6.27094,-3.398444 -12.64818,-6.829028 -17.65625,-9.5 C 154.05846,49.008264 151.89013,47.851096 150.25,47 c -1.64013,-0.851096 -2.70959,-1.402584 -3.1875,-1.59375 z"
       id="path4494" />
    <path
       style="font-size:12px;fill-rule:evenodd;stroke-width:0.625;stroke-linejoin:round"
       d="m 191.39462,64.692713 8.42568,9.642793 -12.66549,-1.887041 c 2.93634,-1.368504 4.63902,-4.506239 4.23981,-7.755752 z"
       id="path5795" />
    <path
       style="font-size:medium;font-style:normal;font-variant:normal;font-weight:normal;font-stretch:normal;text-indent:0;text-align:start;text-decoration:none;line-height:normal;letter-spacing:normal;word-spacing:normal;text-transform:none;direction:ltr;block-progression:tb;writing-mode:lr-tb;text-anchor:start;baseline-shift:baseline;color:#000000;fill:#000000;fill-opacity:1;stroke:none;stroke-width:1px;marker:none;visibility:visible;display:inline;overflow:visible;enable-background:accumulate;font-family:Sans;-inkscape-font-specification:Sans"
       d="m 140.875,49.65625 -0.96875,0.21875 c 0,0 2.44739,9.704868 11.125,18.21875 8.67761,8.513882 23.61869,15.835867 48.34375,11.28125 l -0.15625,-0.96875 C 174.75135,82.913402 160.22502,75.690116 151.75,67.375 143.27498,59.059884 140.875,49.65625 140.875,49.65625 z"
       id="path4678" />
    <path
       style="font-size:12px;fill-rule:evenodd;stroke-width:0.625;stroke-linejoin:round"
       d="m 138.72616,61.219132 1.32191,-12.736876 7.24456,10.558963 c -3.00191,-1.217931 -6.45905,-0.327583 -8.56647,2.177913 z"
       id="path5787" />
    <path
       style="font-size:12px;font-style:normal;font-weight:normal;line-height:125%;letter-spacing:0px;word-spacing:0px;fill:#000000;fill-opacity:1;stroke:none;font-family:Sans"
       d="M 43.46875 24.59375 C 43.117184 24.593757 42.777341 24.64063 42.40625 24.71875 C 42.035155 24.792976 41.64453 24.910163 41.25 25.0625 L 41.25 26.0625 C 41.578124 25.882818 41.925781 25.7461 42.28125 25.65625 C 42.636717 25.566414 42.999997 25.500006 43.375 25.5 C 43.964839 25.500006 44.425777 25.632818 44.75 25.90625 C 45.07812 26.175786 45.249995 26.566411 45.25 27.0625 L 45.25 27.1875 L 43.71875 27.1875 C 42.738279 27.187504 41.996092 27.375004 41.5 27.75 C 41.007812 28.125003 40.781249 28.667971 40.78125 29.40625 C 40.781249 30.039063 40.980468 30.558594 41.375 30.9375 C 41.773436 31.3125 42.296873 31.5 42.96875 31.5 C 43.499996 31.5 43.945309 31.40625 44.3125 31.21875 C 44.679683 31.027344 45.003901 30.710938 45.25 30.3125 L 45.25 31.3125 L 46.3125 31.3125 L 46.3125 27.5625 C 46.312494 26.562505 46.093744 25.835943 45.625 25.34375 C 45.156245 24.851569 44.417964 24.593757 43.46875 24.59375 z M 44.15625 28.03125 L 45.25 28.03125 L 45.25 28.25 C 45.249995 28.953128 45.050776 29.51172 44.6875 29.9375 C 44.328121 30.359376 43.847653 30.593751 43.25 30.59375 C 42.816404 30.593751 42.472654 30.472657 42.21875 30.25 C 41.968748 30.023438 41.843748 29.726564 41.84375 29.34375 C 41.843748 28.863284 42.007811 28.511721 42.34375 28.3125 C 42.679685 28.113282 43.285153 28.031253 44.15625 28.03125 z "
       id="path5753" />
    <path
       style="font-size:medium;font-style:normal;font-variant:normal;font-weight:normal;font-stretch:normal;text-indent:0;text-align:start;text-decoration:none;line-height:normal;letter-spacing:normal;word-spacing:normal;text-transform:none;direction:ltr;block-progression:tb;writing-mode:lr-tb;text-anchor:start;baseline-shift:baseline;color:#000000;fill:#000000;fill-opacity:1;stroke:none;stroke-width:1;marker:none;visibility:visible;display:inline;overflow:visible;enable-background:accumulate;font-family:Sans;-inkscape-font-specification:Sans"
       d="m 45.49613,16.677826 c -1.484837,-0.143574 -3.019742,-0.0056 -4.53125,0.46875 -6.046034,1.897514 -9.428765,8.360216 -7.53125,14.40625 l 0.96875,-0.28125 c -1.735683,-5.530392 1.313358,-11.420568 6.84375,-13.15625 5.530392,-1.735683 11.420567,1.344608 13.15625,6.875 1.735682,5.530392 -1.344608,11.389318 -6.875,13.125 -1.687484,0.529608 -3.485113,0.631379 -5.21875,0.28125 l -0.1875,0.96875 c 1.898945,0.383515 3.870358,0.298858 5.71875,-0.28125 6.046034,-1.897514 9.397514,-8.360216 7.5,-14.40625 -1.423136,-4.534525 -5.389238,-7.569277 -9.84375,-8 z"
       id="path5420" />
    <path
       style="font-size:medium;font-style:normal;font-variant:normal;font-weight:normal;font-stretch:normal;text-indent:0;text-align:start;text-decoration:none;line-height:normal;letter-spacing:normal;word-spacing:normal;text-transform:none;direction:ltr;block-progression:tb;writing-mode:lr-tb;text-anchor:start;baseline-shift:baseline;color:#000000;fill:#000000;fill-opacity:1;stroke:none;stroke-width:1px;marker:none;visibility:visible;display:inline;overflow:visible;enable-background:accumulate;font-family:Sans;-inkscape-font-specification:Sans"
       d="m 34.375,24.03125 -1.15625,7.78125 1,0.125 1.125,-7.75 -0.96875,-0.15625 z"
       id="path3858-9" />
    <path
       style="font-size:12px;fill-rule:evenodd;stroke-width:0.625;stroke-linejoin:round"
       d="M 39.659348,21.935671 33.551766,33.190575 30.912879,20.660143 c 2.30488,2.276487 5.83904,2.780705 8.746469,1.275528 z"
       id="path5779" />
    <path
       style="font-size:12px;font-style:normal;font-weight:normal;line-height:125%;letter-spacing:0px;word-spacing:0px;fill:#000000;fill-opacity:1;stroke:none;font-family:Sans"
       d="M 19.53125 100.25 L 19.53125 109.34375 L 20.625 109.34375 L 20.625 108.375 C 20.85156 108.76563 21.124997 109.05859 21.46875 109.25 C 21.816403 109.43755 22.238278 109.53125 22.71875 109.53125 C 23.51562 109.53125 24.160151 109.19531 24.65625 108.5625 C 25.156244 107.92969 25.406244 107.09375 25.40625 106.0625 C 25.406244 105.03125 25.156244 104.22657 24.65625 103.59375 C 24.160151 102.96095 23.51562 102.62501 22.71875 102.625 C 22.238278 102.62501 21.816403 102.71486 21.46875 102.90625 C 21.124997 103.09376 20.85156 103.39063 20.625 103.78125 L 20.625 100.25 L 19.53125 100.25 z M 22.46875 103.53125 C 23.039058 103.53125 23.488277 103.76563 23.8125 104.21875 C 24.14062 104.66797 24.281244 105.26953 24.28125 106.0625 C 24.281244 106.85547 24.14062 107.48438 23.8125 107.9375 C 23.488277 108.38672 23.039058 108.625 22.46875 108.625 C 21.898435 108.625 21.453122 108.38672 21.125 107.9375 C 20.800779 107.48438 20.624998 106.85547 20.625 106.0625 C 20.624998 105.26953 20.800779 104.66797 21.125 104.21875 C 21.453122 103.76563 21.898435 103.53125 22.46875 103.53125 z "
       id="path5756" />
    <path
       style="font-size:12px;font-style:normal;font-weight:normal;line-height:125%;letter-spacing:0px;word-spacing:0px;fill:#000000;fill-opacity:1;stroke:none;font-family:Sans"
       d="m 96.264368,74.466112 0,1.007813 c -0.304693,-0.167964 -0.611334,-0.292964 -0.919922,-0.375 -0.304692,-0.08593 -0.613286,-0.128901 -0.925782,-0.128907 -0.699222,6e-6 -1.24219,0.222662 -1.628906,0.667969 -0.38672,0.441411 -0.58008,1.062504 -0.580078,1.863281 -2e-6,0.800784 0.193358,1.42383 0.580078,1.869141 0.386716,0.441407 0.929684,0.66211 1.628906,0.662109 0.312496,10e-7 0.62109,-0.04102 0.925782,-0.123047 0.308588,-0.08594 0.615229,-0.212889 0.919922,-0.380859 l 0,0.996094 c -0.300787,0.140625 -0.613287,0.246094 -0.9375,0.316406 -0.320317,0.07031 -0.662114,0.105469 -1.025391,0.105469 -0.988284,0 -1.77344,-0.310547 -2.355469,-0.931641 -0.582032,-0.621092 -0.873047,-1.458982 -0.873047,-2.513672 0,-1.070308 0.292968,-1.912104 0.878907,-2.52539 0.589841,-0.613275 1.396481,-0.919915 2.419921,-0.919922 0.332027,7e-6 0.656246,0.03516 0.972657,0.105469 0.316401,0.06641 0.623041,0.167975 0.919922,0.304687"
       id="path5759" />
    <path
       style="font-size:12px;font-style:normal;font-weight:normal;line-height:125%;letter-spacing:0px;word-spacing:0px;fill:#000000;fill-opacity:1;stroke:none;font-family:Sans"
       d="M 143.75 25.0625 L 143.75 28.59375 C 143.52343 28.203131 143.2539 27.937506 142.90625 27.75 C 142.5625 27.558601 142.14062 27.437507 141.65625 27.4375 C 140.86328 27.437507 140.21875 27.773443 139.71875 28.40625 C 139.22266 29.039067 138.96875 29.875005 138.96875 30.90625 C 138.96875 31.937503 139.22266 32.773439 139.71875 33.40625 C 140.21875 34.039063 140.86328 34.34375 141.65625 34.34375 C 142.14062 34.34375 142.5625 34.25 142.90625 34.0625 C 143.2539 33.871094 143.52343 33.578126 143.75 33.1875 L 143.75 34.1875 L 144.84375 34.1875 L 144.84375 25.0625 L 143.75 25.0625 z M 141.90625 28.34375 C 142.47656 28.343755 142.95312 28.578131 143.28125 29.03125 C 143.60937 29.480473 143.74999 30.113286 143.75 30.90625 C 143.74999 31.699222 143.60937 32.328127 143.28125 32.78125 C 142.95312 33.23047 142.47656 33.437501 141.90625 33.4375 C 141.33594 33.437501 140.89062 33.23047 140.5625 32.78125 C 140.23828 32.328127 140.09375 31.699222 140.09375 30.90625 C 140.09375 30.113286 140.23828 29.480473 140.5625 29.03125 C 140.89062 28.578131 141.33594 28.343755 141.90625 28.34375 z "
       id="path5856" />
    <path
       style="font-size:12px;font-style:normal;font-weight:normal;line-height:125%;letter-spacing:0px;word-spacing:0px;fill:#000000;fill-opacity:1;stroke:none;font-family:Sans"
       d="M 148.65625 146.5625 C 147.67187 146.5625 146.89453 146.86719 146.3125 147.5 C 145.73437 148.12891 145.4375 148.98829 145.4375 150.0625 C 145.4375 151.10157 145.73438 151.92188 146.34375 152.53125 C 146.95703 153.14062 147.79687 153.4375 148.84375 153.4375 C 149.26171 153.4375 149.6875 153.3984 150.09375 153.3125 C 150.5 153.22656 150.89452 153.10156 151.28125 152.9375 L 151.28125 151.90625 C 150.89843 152.10938 150.51562 152.27343 150.125 152.375 C 149.73828 152.47654 149.32031 152.53125 148.90625 152.53125 C 148.1914 152.53125 147.65234 152.32422 147.25 151.9375 C 146.85156 151.54688 146.6094 150.99219 146.5625 150.25 L 151.53125 150.25 L 151.53125 149.71875 C 151.53124 148.74219 151.26562 147.97266 150.75 147.40625 C 150.23828 146.83594 149.53905 146.5625 148.65625 146.5625 z M 148.6875 147.46875 C 149.21875 147.46875 149.61718 147.64845 149.9375 148 C 150.26171 148.35157 150.4295 148.81641 150.4375 149.40625 L 146.59375 149.40625 C 146.64843 148.78907 146.85937 148.3086 147.21875 147.96875 C 147.58203 147.62892 148.08594 147.46875 148.6875 147.46875 z "
       id="path5852" />
    <path
       style="font-size:12px;font-style:normal;font-weight:normal;line-height:125%;letter-spacing:0px;word-spacing:0px;fill:#000000;fill-opacity:1;stroke:none;font-family:Sans"
       d="m 209.43061,59.361357 0,0.896485 -1.03125,0 c -0.38672,8e-6 -0.65625,0.07813 -0.80859,0.234375 -0.14844,0.156258 -0.22266,0.437507 -0.22266,0.84375 l 0,0.580078 1.7754,0 0,0.837891 -1.7754,0 0,5.724609 -1.08398,0 0,-5.724609 -1.03125,0 0,-0.837891 1.03125,0 0,-0.457031 c 0,-0.730461 0.16992,-1.261711 0.50977,-1.59375 0.33984,-0.335929 0.8789,-0.503897 1.61718,-0.503907 l 1.01953,0"
       id="path5768" />
    <path
       style="font-size:12px;font-style:normal;font-weight:normal;line-height:125%;letter-spacing:0px;word-spacing:0px;fill:#000000;fill-opacity:1;stroke:none;font-family:Sans"
       d="M 221.90625 131.03125 C 221.10156 131.03125 220.46094 131.32422 219.96875 131.9375 C 219.47656 132.55079 219.21875 133.35938 219.21875 134.375 C 219.21875 135.38672 219.47656 136.19922 219.96875 136.8125 C 220.46094 137.42578 221.10156 137.75 221.90625 137.75 C 222.39062 137.75 222.80859 137.62891 223.15625 137.4375 C 223.5039 137.2461 223.80859 136.98047 224.03125 136.59375 L 224.03125 137.125 C 224.03124 137.87109 223.85156 138.41406 223.5 138.78125 C 223.14844 139.15234 222.61328 139.34375 221.90625 139.34375 C 221.58594 139.34375 221.27735 139.30075 220.96875 139.21875 C 220.66016 139.13672 220.34766 139.01563 220.03125 138.84375 L 220.03125 139.875 C 220.34766 139.99219 220.66406 140.10155 221 140.15625 C 221.33593 140.21485 221.68359 140.21875 222.0625 140.21875 C 223.08593 140.21875 223.84765 139.95312 224.34375 139.40625 C 224.83984 138.86328 225.09375 138.05468 225.09375 136.9375 L 225.09375 131.1875 L 224.03125 131.1875 L 224.03125 132.15625 C 223.80859 131.76954 223.5039 131.50391 223.15625 131.3125 C 222.80859 131.12109 222.39062 131.03125 221.90625 131.03125 z M 222.1875 131.90625 C 222.76953 131.90626 223.21093 132.13282 223.53125 132.5625 C 223.85546 132.99219 224.03124 133.59375 224.03125 134.375 C 224.03124 135.15234 223.85546 135.75781 223.53125 136.1875 C 223.21093 136.61718 222.76953 136.84375 222.1875 136.84375 C 221.60938 136.84375 221.13672 136.61718 220.8125 136.1875 C 220.49218 135.75781 220.34375 135.15234 220.34375 134.375 C 220.34375 133.59375 220.49218 132.99219 220.8125 132.5625 C 221.13672 132.13282 221.60938 131.90626 222.1875 131.90625 z "
       id="path5771" />
  </g>
</svg>
