<?xml version="1.0" encoding="UTF-8" standalone="no"?>
<!-- Created with Inkscape (http://www.inkscape.org/) -->

<svg
   xmlns:dc="http://purl.org/dc/elements/1.1/"
   xmlns:cc="http://creativecommons.org/ns#"
   xmlns:rdf="http://www.w3.org/1999/02/22-rdf-syntax-ns#"
   xmlns:svg="http://www.w3.org/2000/svg"
   xmlns="http://www.w3.org/2000/svg"
   xmlns:sodipodi="http://sodipodi.sourceforge.net/DTD/sodipodi-0.dtd"
   xmlns:inkscape="http://www.inkscape.org/namespaces/inkscape"
   width="200"
   height="170"
   id="svg2"
   version="1.1"
   inkscape:version="0.48.0 r9654"
   sodipodi:docname="2011-(01)jan-25, 02.svg">
  <defs
     id="defs4" />
  <sodipodi:namedview
     id="base"
     pagecolor="#ffffff"
     bordercolor="#666666"
     borderopacity="1.0"
     inkscape:pageopacity="0.0"
     inkscape:pageshadow="2"
     inkscape:zoom="2.7157366"
     inkscape:cx="119.92707"
     inkscape:cy="30.926357"
     inkscape:document-units="px"
     inkscape:current-layer="layer1"
     showgrid="false"
     inkscape:window-width="1589"
     inkscape:window-height="1117"
     inkscape:window-x="1600"
     inkscape:window-y="27"
     inkscape:window-maximized="1"
     showguides="true"
     inkscape:guide-bbox="true" />
  <metadata
     id="metadata7">
    <rdf:RDF>
      <cc:Work
         rdf:about="">
        <dc:format>image/svg+xml</dc:format>
        <dc:type
           rdf:resource="http://purl.org/dc/dcmitype/StillImage" />
        <dc:title />
      </cc:Work>
    </rdf:RDF>
  </metadata>
  <g
     inkscape:label="Layer 1"
     inkscape:groupmode="layer"
     id="layer1">
    <path
       style="font-size:16px;font-style:normal;font-weight:normal;line-height:125%;letter-spacing:0px;word-spacing:0px;fill:#000000;fill-opacity:1;stroke:none;font-family:Sans;-inkscape-font-specification:Sans"
       d="M 16.4375 13.4375 L 16.4375 14.21875 L 22.6875 14.21875 L 16.25 24.3125 L 16.25 25.09375 L 26.71875 25.09375 L 26.71875 24.3125 L 20.125 24.3125 L 26.5625 14.21875 L 26.5625 13.4375 L 16.4375 13.4375 z M 23.6875 14.21875 L 25.53125 14.21875 L 19.09375 24.3125 L 17.25 24.3125 L 23.6875 14.21875 z "
       id="path3842" />
    <path
       style="font-size:medium;font-style:normal;font-variant:normal;font-weight:normal;font-stretch:normal;text-indent:0;text-align:start;text-decoration:none;line-height:normal;letter-spacing:normal;word-spacing:normal;text-transform:none;direction:ltr;block-progression:tb;writing-mode:lr-tb;text-anchor:start;baseline-shift:baseline;color:#000000;fill:#000000;fill-opacity:1;fill-rule:nonzero;stroke:none;stroke-width:0.8975575;marker:none;visibility:visible;display:inline;overflow:visible;enable-background:accumulate;font-family:Sans;-inkscape-font-specification:Sans"
       d="M 100.375 2.5625 C 45.908429 2.5625 1.71875 39.583483 1.71875 85.21875 C 1.71875 130.85402 45.908429 167.84375 100.375 167.84375 C 154.84157 167.84375 199 130.85402 199 85.21875 C 199 39.583483 154.84157 2.5625 100.375 2.5625 z M 100.375 3.5 C 154.25114 3.5 197.9375 40.078172 197.9375 85.21875 C 197.9375 130.35933 154.25114 166.9375 100.375 166.9375 C 46.498851 166.9375 2.84375 130.35933 2.84375 85.21875 C 2.84375 40.078172 46.498851 3.5 100.375 3.5 z "
       id="path3856" />
    <path
       style="font-size:medium;font-style:normal;font-variant:normal;font-weight:normal;font-stretch:normal;text-indent:0;text-align:start;text-decoration:none;line-height:normal;letter-spacing:normal;word-spacing:normal;text-transform:none;direction:ltr;block-progression:tb;writing-mode:lr-tb;text-anchor:start;baseline-shift:baseline;color:#000000;fill:#000000;fill-opacity:1;stroke:none;stroke-width:1px;marker:none;visibility:visible;display:inline;overflow:visible;enable-background:accumulate;font-family:Sans;-inkscape-font-specification:Sans"
       d="M 76.5,5.25 C 68.711508,84.173391 10.15625,117.5 10.15625,117.5 l 0.5,0.875 c 0,0 59.009812,-33.616096 66.84375,-113 l -1,-0.125 z"
       id="path3005"
       inkscape:connector-curvature="0" />
    <path
       style="font-size:medium;font-style:normal;font-variant:normal;font-weight:normal;font-stretch:normal;text-indent:0;text-align:start;text-decoration:none;line-height:normal;letter-spacing:normal;word-spacing:normal;text-transform:none;direction:ltr;block-progression:tb;writing-mode:lr-tb;text-anchor:start;baseline-shift:baseline;color:#000000;fill:#000000;fill-opacity:1;stroke:none;stroke-width:1px;marker:none;visibility:visible;display:inline;overflow:visible;enable-background:accumulate;font-family:Sans;-inkscape-font-specification:Sans"
       d="m 178.15625,35.53125 c 0,0 -9.35934,8.157144 -28.90625,15.78125 -19.54691,7.624106 -49.23462,14.682979 -89.78125,12.34375 l -0.0625,1 c 40.69001,2.347501 70.5156,-4.733393 90.1875,-12.40625 19.6719,-7.672857 29.21875,-15.96875 29.21875,-15.96875 l -0.65625,-0.75 z"
       id="path3007"
       inkscape:connector-curvature="0" />
    <path
       style="font-size:medium;font-style:normal;font-variant:normal;font-weight:normal;font-stretch:normal;text-indent:0;text-align:start;text-decoration:none;line-height:normal;letter-spacing:normal;word-spacing:normal;text-transform:none;direction:ltr;block-progression:tb;writing-mode:lr-tb;text-anchor:start;baseline-shift:baseline;color:#000000;fill:#000000;fill-opacity:1;stroke:none;stroke-width:1px;marker:none;visibility:visible;display:inline;overflow:visible;enable-background:accumulate;font-family:Sans;-inkscape-font-specification:Sans"
       d="M 123.46875,59.375 C 104.6633,114.2242 120.125,165.84375 120.125,165.84375 l 0.96875,-0.28125 c 0,0 -15.37589,-51.3672 3.3125,-105.875 l -0.9375,-0.3125 z"
       id="path3009"
       inkscape:connector-curvature="0" />
    <path
       style="font-size:medium;font-style:normal;font-variant:normal;font-weight:normal;font-stretch:normal;text-indent:0;text-align:start;text-decoration:none;line-height:normal;letter-spacing:normal;word-spacing:normal;text-transform:none;direction:ltr;block-progression:tb;writing-mode:lr-tb;text-anchor:start;baseline-shift:baseline;color:#000000;fill:#000000;fill-opacity:1;stroke:none;stroke-width:1px;marker:none;visibility:visible;display:inline;overflow:visible;enable-background:accumulate;font-family:Sans;-inkscape-font-specification:Sans"
       d="m 30.71875,101.53125 -0.375,0.90625 c 54.565642,23.90494 89.84375,63.40625 89.84375,63.40625 l 0.75,-0.65625 c 0,0 -35.427378,-39.65241 -90.21875,-63.65625 z"
       id="path3011"
       inkscape:connector-curvature="0" />
    <path
       d="m 91.656731,27.752052 -2.373046,3.193359 2.496093,3.369141 -1.271484,0 -1.910156,-2.578125 -1.910157,2.578125 -1.271484,0 2.548828,-3.433594 -2.332031,-3.128906 1.271484,0 1.740235,2.337891 1.740234,-2.337891 1.271484,0"
       id="path3242" />
    <path
       style="font-size:65.00091553%;baseline-shift:sub"
       d="m 93.669155,36.067082 2.685096,0 0,0.64747 -3.610597,0 0,-0.64747 c 0.291995,-0.302152 0.689364,-0.707138 1.192106,-1.214959 0.505279,-0.510356 0.822665,-0.839169 0.952162,-0.986439 0.24629,-0.276759 0.417679,-0.510356 0.514167,-0.700791 0.09902,-0.192968 0.148534,-0.382131 0.148538,-0.567489 -4e-6,-0.302148 -0.106646,-0.54844 -0.319927,-0.738877 -0.210748,-0.190428 -0.48624,-0.285644 -0.826476,-0.285649 -0.241216,5e-6 -0.496396,0.0419 -0.765538,0.125685 -0.266607,0.0838 -0.552255,0.21075 -0.856946,0.380865 l 0,-0.776964 c 0.309769,-0.12441 0.599226,-0.218357 0.868372,-0.28184 0.269142,-0.06347 0.515435,-0.09521 0.738877,-0.09522 0.589068,6e-6 1.058801,0.147273 1.4092,0.441803 0.350391,0.294541 0.525589,0.6881 0.525593,1.180681 -4e-6,0.233601 -0.04444,0.455772 -0.133302,0.666513 -0.08633,0.208209 -0.245027,0.454502 -0.476081,0.738878 -0.06348,0.07364 -0.265339,0.28692 -0.605575,0.639852 -0.340242,0.350398 -0.820131,0.841713 -1.439669,1.473947"
       id="path3244" />
    <path
       d="m 124.64258,24.976615 c -0.30469,0.781249 -0.60157,1.291014 -0.89063,1.529297 -0.28906,0.238279 -0.67578,0.357419 -1.16015,0.357422 l -0.86133,0 0,-0.902344 0.63281,0 c 0.29687,-2e-6 0.52734,-0.07031 0.69141,-0.210938 0.16406,-0.140626 0.3457,-0.472657 0.54492,-0.996093 l 0.19336,-0.492188 -2.6543,-6.457031 1.14258,0 2.05078,5.132812 2.05078,-5.132812 1.14258,0 -2.88281,7.171875"
       id="path3247" />
    <path
       style="font-size:65.00091553%;baseline-shift:sub"
       d="m 129.37961,26.11977 2.6851,0 0,0.64747 -3.6106,0 0,-0.64747 c 0.292,-0.302152 0.68936,-0.707138 1.19211,-1.214959 0.50527,-0.510356 0.82266,-0.839169 0.95216,-0.986439 0.24629,-0.276759 0.41768,-0.510356 0.51417,-0.700791 0.099,-0.192968 0.14853,-0.382131 0.14853,-0.567489 0,-0.302148 -0.10664,-0.54844 -0.31992,-0.738877 -0.21075,-0.190428 -0.48624,-0.285644 -0.82648,-0.285649 -0.24122,5e-6 -0.4964,0.0419 -0.76554,0.125685 -0.2666,0.0838 -0.55225,0.21075 -0.85694,0.380865 l 0,-0.776964 c 0.30977,-0.12441 0.59922,-0.218357 0.86837,-0.28184 0.26914,-0.06347 0.51543,-0.09521 0.73888,-0.09522 0.58906,6e-6 1.0588,0.147273 1.40919,0.441803 0.3504,0.294541 0.52559,0.6881 0.5256,1.180681 -1e-5,0.233601 -0.0444,0.455772 -0.1333,0.666513 -0.0863,0.208209 -0.24503,0.454502 -0.47609,0.738878 -0.0635,0.07364 -0.26533,0.28692 -0.60557,0.639852 -0.34024,0.350398 -0.82013,0.841713 -1.43967,1.473947"
       id="path3249" />
    <path
       d="m 45.326487,127.59166 -2.373046,3.19336 2.496093,3.36914 -1.271484,0 -1.910156,-2.57813 -1.910157,2.57813 -1.271484,0 2.548828,-3.43359 -2.332031,-3.12891 1.271484,0 1.740235,2.33789 1.740234,-2.33789 1.271484,0"
       id="path3215" />
    <path
       style="font-size:65.00091553%;baseline-shift:sub"
       d="m 46.809509,135.90669 1.256854,0 0,-4.33805 -1.367305,0.27422 0,-0.70079 1.359687,-0.27422 0.769347,0 0,5.03884 1.256854,0 0,0.64747 -3.275437,0 0,-0.64747"
       id="path3217" />
    <path
       d="m 69.844613,146.86688 c -0.30469,0.78125 -0.60157,1.29102 -0.89063,1.5293 -0.28906,0.23828 -0.67578,0.35742 -1.16015,0.35742 l -0.86133,0 0,-0.90234 0.63281,0 c 0.29687,0 0.52734,-0.0703 0.69141,-0.21094 0.16406,-0.14062 0.3457,-0.47266 0.54492,-0.99609 l 0.19336,-0.49219 -2.6543,-6.45703 1.14258,0 2.05078,5.13281 2.05078,-5.13281 1.14258,0 -2.88281,7.17187"
       id="path3210" />
    <path
       style="font-size:65.00091553%;baseline-shift:sub"
       d="m 74.052243,148.01004 1.25685,0 0,-4.33805 -1.3673,0.27422 0,-0.70079 1.35969,-0.27422 0.76934,0 0,5.03884 1.25686,0 0,0.64747 -3.27544,0 0,-0.64747"
       id="path3212" />
    <path
       d="m 67.021247,78.986059 -2.373046,3.193359 2.496093,3.369141 -1.271484,0 -1.910156,-2.578125 -1.910157,2.578125 -1.271484,0 2.548828,-3.433594 -2.332031,-3.128906 1.271484,0 1.740235,2.337891 1.740234,-2.337891 1.271484,0"
       id="path3231" />
    <path
       style="font-size:65.00091553%;baseline-shift:sub"
       d="m 68.504269,87.301089 1.256854,0 0,-4.338049 -1.367305,0.274222 0,-0.700791 1.359687,-0.274223 0.769347,0 0,5.038841 1.256854,0 0,0.64747 -3.275437,0 0,-0.64747"
       id="path3233" />
    <path
       d="m 78.02288,78.025121 0,3.263672 3.26367,0 0,0.996094 -3.26367,0 0,3.263672 -0.984375,0 0,-3.263672 -3.263672,0 0,-0.996094 3.263672,0 0,-3.263672 0.984375,0"
       id="path3235" />
    <path
       d="m 92.96429,78.986059 -2.37305,3.193359 2.49609,3.369141 -1.27148,0 -1.91016,-2.578125 -1.91015,2.578125 -1.27149,0 2.54883,-3.433594 -2.33203,-3.128906 1.27148,0 1.74024,2.337891 1.74023,-2.337891 1.27149,0"
       id="path3237" />
    <path
       style="font-size:65.00091553%;baseline-shift:sub"
       d="m 94.97671,87.301089 2.6851,0 0,0.64747 -3.6106,0 0,-0.64747 c 0.29199,-0.302152 0.68936,-0.707138 1.19211,-1.214959 0.50527,-0.510356 0.82266,-0.839169 0.95216,-0.986439 0.24629,-0.276759 0.41768,-0.510356 0.51416,-0.700791 0.099,-0.192968 0.14854,-0.382131 0.14854,-0.567489 0,-0.302148 -0.10664,-0.54844 -0.31992,-0.738877 -0.21075,-0.190428 -0.48624,-0.285644 -0.82648,-0.285649 -0.24122,5e-6 -0.4964,0.0419 -0.76554,0.125685 -0.26661,0.0838 -0.55225,0.21075 -0.85694,0.380865 l 0,-0.776964 c 0.30976,-0.12441 0.59922,-0.218357 0.86837,-0.28184 0.26914,-0.06347 0.51543,-0.09521 0.73887,-0.09522 0.58907,6e-6 1.0588,0.147273 1.4092,0.441803 0.3504,0.294541 0.52559,0.6881 0.5256,1.180681 -10e-6,0.233601 -0.0444,0.455772 -0.13331,0.666513 -0.0863,0.208209 -0.24502,0.454502 -0.47608,0.738878 -0.0635,0.07364 -0.26534,0.28692 -0.60557,0.639852 -0.34024,0.350398 -0.82013,0.841713 -1.43967,1.473947"
       id="path3239" />
    <path
       d="m 69.398574,112.4141 c -0.304691,0.78125 -0.601566,1.29101 -0.890625,1.52929 -0.289065,0.23828 -0.675783,0.35742 -1.160156,0.35743 l -0.861328,0 0,-0.90235 0.632812,0 c 0.296873,0 0.527342,-0.0703 0.691406,-0.21094 0.164061,-0.14062 0.345701,-0.47265 0.544922,-0.99609 l 0.19336,-0.49219 -2.654297,-6.45703 1.142578,0 2.050781,5.13281 2.050781,-5.13281 1.142579,0 -2.882813,7.17188"
       id="path3220" />
    <path
       style="font-size:65.00091553%;baseline-shift:sub"
       d="m 73.606205,113.55725 1.256854,0 0,-4.33805 -1.367305,0.27423 0,-0.70079 1.359687,-0.27423 0.769347,0 0,5.03884 1.256854,0 0,0.64747 -3.275437,0 0,-0.64747"
       id="path3222" />
    <path
       d="m 86.945126,104.28128 0,3.26368 3.26367,0 0,0.99609 -3.26367,0 0,3.26367 -0.98437,0 0,-3.26367 -3.263674,0 0,-0.99609 3.263674,0 0,-3.26368 0.98437,0"
       id="path3224" />
    <path
       d="m 99.161926,112.4141 c -0.30469,0.78125 -0.60157,1.29101 -0.89063,1.52929 -0.28906,0.23828 -0.67578,0.35742 -1.16015,0.35743 l -0.86133,0 0,-0.90235 0.63281,0 c 0.29688,0 0.52734,-0.0703 0.69141,-0.21094 0.16406,-0.14062 0.3457,-0.47265 0.54492,-0.99609 l 0.19336,-0.49219 -2.6543,-6.45703 1.14258,0 2.05078,5.13281 2.050784,-5.13281 1.14258,0 -2.882814,7.17188"
       id="path3226" />
    <path
       style="font-size:65.00091553%;baseline-shift:sub"
       d="m 103.89896,113.55725 2.6851,0 0,0.64747 -3.6106,0 0,-0.64747 c 0.292,-0.30215 0.68936,-0.70713 1.19211,-1.21496 0.50528,-0.51035 0.82266,-0.83917 0.95216,-0.98644 0.24629,-0.27675 0.41768,-0.51035 0.51417,-0.70079 0.099,-0.19296 0.14853,-0.38213 0.14853,-0.56748 0,-0.30215 -0.10664,-0.54844 -0.31992,-0.73888 -0.21075,-0.19043 -0.48624,-0.28565 -0.82648,-0.28565 -0.24122,0 -0.49639,0.0419 -0.76554,0.12568 -0.2666,0.0838 -0.55225,0.21075 -0.85694,0.38087 l 0,-0.77696 c 0.30977,-0.12441 0.59922,-0.21836 0.86837,-0.28184 0.26914,-0.0635 0.51543,-0.0952 0.73888,-0.0952 0.58906,0 1.0588,0.14727 1.4092,0.4418 0.35039,0.29454 0.52559,0.6881 0.52559,1.18068 0,0.2336 -0.0444,0.45577 -0.1333,0.66651 -0.0863,0.20821 -0.24503,0.4545 -0.47608,0.73888 -0.0635,0.0736 -0.26534,0.28692 -0.60558,0.63985 -0.34024,0.3504 -0.82013,0.84172 -1.43967,1.47395"
       id="path3228" />
    <path
       style="font-size:12px;font-style:normal;font-weight:normal;line-height:125%;letter-spacing:0px;word-spacing:0px;fill:#000000;fill-opacity:1;stroke:none;font-family:Sans"
       d="m 30.408083,41.408765 1.933594,0 0,-6.673828 -2.103516,0.421875 0,-1.078125 2.091797,-0.421875 1.183594,0 0,7.751953 1.933594,0 0,0.996094 -5.039063,0 0,-0.996094"
       id="path3320" />
    <path
       style="font-size:12px;font-style:normal;font-weight:normal;line-height:125%;letter-spacing:0px;word-spacing:0px;fill:#000000;fill-opacity:1;stroke:none;font-family:Sans"
       d="m 38.048708,41.408765 1.933594,0 0,-6.673828 -2.103516,0.421875 0,-1.078125 2.091797,-0.421875 1.183594,0 0,7.751953 1.933594,0 0,0.996094 -5.039063,0 0,-0.996094"
       id="path3322" />
    <path
       style="font-size:12px;font-style:normal;font-weight:normal;line-height:125%;letter-spacing:0px;word-spacing:0px;fill:#000000;fill-opacity:1;stroke:none;font-family:Sans"
       d="m 50.441286,37.102125 c 0.269525,-0.48437 0.59179,-0.841791 0.966797,-1.072266 0.374993,-0.230462 0.816398,-0.345696 1.324219,-0.345703 0.683585,7e-6 1.210928,0.240241 1.582031,0.720703 0.371084,0.476568 0.55663,1.156255 0.556641,2.039062 l 0,3.960938 -1.083985,0 0,-3.925781 c -9e-6,-0.628902 -0.111337,-1.095698 -0.333984,-1.400391 -0.222665,-0.304682 -0.562509,-0.457025 -1.019531,-0.457031 -0.558602,6e-6 -1.000007,0.185552 -1.324219,0.55664 -0.324225,0.371099 -0.486334,0.876958 -0.486328,1.517579 l 0,3.708984 -1.083984,0 0,-3.925781 c -6e-6,-0.632808 -0.111334,-1.099605 -0.333985,-1.400391 -0.222661,-0.304682 -0.56641,-0.457025 -1.03125,-0.457031 -0.550784,6e-6 -0.988284,0.187505 -1.3125,0.5625 -0.324221,0.371098 -0.48633,0.875004 -0.486328,1.511719 l 0,3.708984 -1.083984,0 0,-6.5625 1.083984,0 0,1.019531 c 0.246091,-0.402338 0.541013,-0.699212 0.884766,-0.890625 0.343746,-0.191399 0.751949,-0.287102 1.224609,-0.287109 0.476558,7e-6 0.880854,0.1211 1.212891,0.363281 0.335931,0.242194 0.583978,0.593756 0.74414,1.054688"
       id="path3324" />
    <path
       style="font-size:12px;font-style:normal;font-weight:normal;line-height:125%;letter-spacing:0px;word-spacing:0px;fill:#000000;fill-opacity:1;stroke:none;font-family:Sans"
       d="m 19.878786,52.102125 c 0.269525,-0.48437 0.59179,-0.841791 0.966797,-1.072266 0.374993,-0.230462 0.816398,-0.345696 1.324219,-0.345703 0.683585,7e-6 1.210928,0.240241 1.582031,0.720703 0.371084,0.476568 0.55663,1.156255 0.556641,2.039062 l 0,3.960938 -1.083985,0 0,-3.925781 c -9e-6,-0.628902 -0.111337,-1.095698 -0.333984,-1.400391 -0.222665,-0.304682 -0.562509,-0.457025 -1.019531,-0.457031 -0.558602,6e-6 -1.000007,0.185552 -1.324219,0.55664 -0.324225,0.371099 -0.486334,0.876958 -0.486328,1.517579 l 0,3.708984 -1.083984,0 0,-3.925781 c -6e-6,-0.632808 -0.111334,-1.099605 -0.333985,-1.400391 -0.222661,-0.304682 -0.56641,-0.457025 -1.03125,-0.457031 -0.550784,6e-6 -0.988284,0.187505 -1.3125,0.5625 -0.324221,0.371098 -0.48633,0.875004 -0.486328,1.511719 l 0,3.708984 -1.083984,0 0,-6.5625 1.083984,0 0,1.019531 c 0.246091,-0.402338 0.541013,-0.699212 0.884766,-0.890625 0.343746,-0.191399 0.751949,-0.287102 1.224609,-0.287109 0.476558,7e-6 0.880854,0.1211 1.212891,0.363281 0.335931,0.242194 0.583978,0.593756 0.74414,1.054688"
       id="path3326" />
    <path
       style="font-size:12px;font-style:normal;font-weight:normal;line-height:125%;letter-spacing:0px;word-spacing:0px;fill:#000000;fill-opacity:1;stroke:none;font-family:Sans"
       d="M 40.375 63.5 C 39.394529 63.500009 38.644529 63.878914 38.125 64.65625 C 37.609374 65.429694 37.343749 66.554693 37.34375 68.03125 C 37.343749 69.503909 37.609374 70.628908 38.125 71.40625 C 38.644529 72.179687 39.394529 72.5625 40.375 72.5625 C 41.355464 72.5625 42.109369 72.179687 42.625 71.40625 C 43.144524 70.628908 43.406243 69.503909 43.40625 68.03125 C 43.406243 66.554693 43.144524 65.429694 42.625 64.65625 C 42.109369 63.878914 41.355464 63.500009 40.375 63.5 z M 40.375 64.4375 C 40.988277 64.437508 41.445308 64.742195 41.75 65.34375 C 42.058588 65.941412 42.218744 66.82813 42.21875 68.03125 C 42.218744 69.230471 42.058588 70.14844 41.75 70.75 C 41.445308 71.347658 40.988277 71.625001 40.375 71.625 C 39.765622 71.625001 39.308591 71.347658 39 70.75 C 38.69531 70.14844 38.531248 69.230471 38.53125 68.03125 C 38.531248 66.82813 38.69531 65.941412 39 65.34375 C 39.308591 64.742195 39.765622 64.437508 40.375 64.4375 z "
       id="path3328" />
    <path
       style="font-size:12px;font-style:normal;font-weight:normal;line-height:125%;letter-spacing:0px;word-spacing:0px;fill:#000000;fill-opacity:1;stroke:none;font-family:Sans"
       d="m 14.910036,83.145093 7.511719,0 0,0.996094 -7.511719,0 0,-0.996094"
       id="path3330" />
    <path
       style="font-size:12px;font-style:normal;font-weight:normal;line-height:125%;letter-spacing:0px;word-spacing:0px;fill:#000000;fill-opacity:1;stroke:none;font-family:Sans"
       d="M 28.15625 78.5 C 27.050778 78.500009 26.156248 78.92579 25.5 79.75 C 24.843749 80.570319 24.531249 81.648443 24.53125 83.03125 C 24.531249 84.503909 24.808593 85.628908 25.34375 86.40625 C 25.878905 87.179687 26.644528 87.5625 27.65625 87.5625 C 28.539058 87.5625 29.249994 87.292969 29.78125 86.75 C 30.312493 86.207032 30.562493 85.49219 30.5625 84.59375 C 30.562493 83.675785 30.324212 82.968755 29.8125 82.4375 C 29.304682 81.902349 28.597652 81.625006 27.71875 81.625 C 27.300778 81.625006 26.910153 81.722662 26.5625 81.90625 C 26.214841 82.085943 25.949217 82.347662 25.71875 82.6875 C 25.777342 81.6211 25.996092 80.808601 26.40625 80.28125 C 26.82031 79.753914 27.437497 79.500008 28.21875 79.5 C 28.51562 79.500008 28.792963 79.51954 29.09375 79.59375 C 29.398431 79.667976 29.703119 79.796883 30 79.9375 L 30 78.84375 C 29.671869 78.726572 29.367181 78.65235 29.0625 78.59375 C 28.761713 78.53517 28.45312 78.500009 28.15625 78.5 z M 27.65625 82.5625 C 28.187496 82.562505 28.597651 82.730473 28.90625 83.09375 C 29.218744 83.457035 29.374994 83.960941 29.375 84.59375 C 29.374994 85.222659 29.218744 85.726564 28.90625 86.09375 C 28.597651 86.457032 28.187496 86.625001 27.65625 86.625 C 27.124997 86.625001 26.687497 86.457032 26.375 86.09375 C 26.066404 85.726564 25.937498 85.222659 25.9375 84.59375 C 25.937498 83.960941 26.066404 83.457035 26.375 83.09375 C 26.687497 82.730473 27.124997 82.562505 27.65625 82.5625 z "
       id="path3332" />
    <path
       style="font-size:12px;font-style:normal;font-weight:normal;line-height:125%;letter-spacing:0px;word-spacing:0px;fill:#000000;fill-opacity:1;stroke:none;font-family:Sans"
       d="m 37.574099,82.102125 c 0.269525,-0.48437 0.59179,-0.841791 0.966797,-1.072266 0.374992,-0.230462 0.816398,-0.345696 1.324218,-0.345703 0.683585,7e-6 1.210928,0.240241 1.582032,0.720703 0.371083,0.476568 0.55663,1.156255 0.55664,2.039062 l 0,3.960938 -1.083984,0 0,-3.925781 c -10e-6,-0.628902 -0.111338,-1.095698 -0.333984,-1.400391 -0.222666,-0.304682 -0.562509,-0.457025 -1.019532,-0.457031 -0.558601,6e-6 -1.000007,0.185552 -1.324218,0.55664 -0.324226,0.371099 -0.486335,0.876958 -0.486329,1.517579 l 0,3.708984 -1.083984,0 0,-3.925781 c -5e-6,-0.632808 -0.111333,-1.099605 -0.333984,-1.400391 -0.222661,-0.304682 -0.566411,-0.457025 -1.03125,-0.457031 -0.550785,6e-6 -0.988284,0.187505 -1.3125,0.5625 -0.324221,0.371098 -0.486331,0.875004 -0.486328,1.511719 l 0,3.708984 -1.083985,0 0,-6.5625 1.083985,0 0,1.019531 c 0.246091,-0.402338 0.541013,-0.699212 0.884765,-0.890625 0.343747,-0.191399 0.75195,-0.287102 1.22461,-0.287109 0.476557,7e-6 0.880854,0.1211 1.21289,0.363281 0.335932,0.242194 0.583979,0.593756 0.744141,1.054688"
       id="path3334" />
    <path
       style="font-size:12px;font-style:normal;font-weight:normal;line-height:125%;letter-spacing:0px;word-spacing:0px;fill:#000000;fill-opacity:1;stroke:none;font-family:Sans"
       d="m 131.42773,70.252006 c 0.26953,-0.48437 0.59179,-0.841791 0.9668,-1.072266 0.37499,-0.230462 0.8164,-0.345696 1.32422,-0.345703 0.68358,7e-6 1.21093,0.240241 1.58203,0.720703 0.37108,0.476568 0.55663,1.156255 0.55664,2.039062 l 0,3.960938 -1.08398,0 0,-3.925781 c -1e-5,-0.628902 -0.11134,-1.095698 -0.33399,-1.400391 -0.22266,-0.304682 -0.56251,-0.457025 -1.01953,-0.457031 -0.5586,6e-6 -1.00001,0.185552 -1.32422,0.55664 -0.32422,0.371099 -0.48633,0.876958 -0.48633,1.517579 l 0,3.708984 -1.08398,0 0,-3.925781 c 0,-0.632808 -0.11133,-1.099605 -0.33398,-1.400391 -0.22266,-0.304682 -0.56641,-0.457025 -1.03125,-0.457031 -0.55079,6e-6 -0.98829,0.187505 -1.3125,0.5625 -0.32422,0.371098 -0.48633,0.875004 -0.48633,1.511719 l 0,3.708984 -1.08399,0 0,-6.5625 1.08399,0 0,1.019531 c 0.24609,-0.402338 0.54101,-0.699212 0.88476,-0.890625 0.34375,-0.191399 0.75195,-0.287102 1.22461,-0.287109 0.47656,7e-6 0.88086,0.1211 1.21289,0.363281 0.33594,0.242194 0.58398,0.593756 0.74414,1.054688"
       id="path3387" />
    <path
       style="font-size:12px;font-style:normal;font-weight:normal;line-height:125%;letter-spacing:0px;word-spacing:0px;fill:#000000;fill-opacity:1;stroke:none;font-family:Sans"
       d="m 141.97461,71.294974 7.51172,0 0,0.996094 -7.51172,0 0,-0.996094"
       id="path3389" />
    <path
       style="font-size:12px;font-style:normal;font-weight:normal;line-height:125%;letter-spacing:0px;word-spacing:0px;fill:#000000;fill-opacity:1;stroke:none;font-family:Sans"
       d="m 156.06641,74.558646 1.93359,0 0,-6.673828 -2.10352,0.421875 0,-1.078125 2.0918,-0.421875 1.18359,0 0,7.751953 1.9336,0 0,0.996094 -5.03906,0 0,-0.996094"
       id="path3391" />
    <path
       style="font-size:12px;font-style:normal;font-weight:normal;line-height:125%;letter-spacing:0px;word-spacing:0px;fill:#000000;fill-opacity:1;stroke:none;font-family:Sans"
       d="m 141.74023,101.29497 7.51172,0 0,0.9961 -7.51172,0 0,-0.9961"
       id="path3393" />
    <path
       style="font-size:12px;font-style:normal;font-weight:normal;line-height:125%;letter-spacing:0px;word-spacing:0px;fill:#000000;fill-opacity:1;stroke:none;font-family:Sans"
       d="m 152.01172,104.55865 1.93359,0 0,-6.673832 -2.10351,0.421875 0,-1.078125 2.09179,-0.421875 1.1836,0 0,7.751957 1.93359,0 0,0.99609 -5.03906,0 0,-0.99609"
       id="path3395" />
    <path
       style="font-size:12px;font-style:normal;font-weight:normal;line-height:125%;letter-spacing:0px;word-spacing:0px;fill:#000000;fill-opacity:1;stroke:none;font-family:Sans"
       d="m 126.17188,126.80669 5.62499,0 0,0.50391 -3.17578,8.24414 -1.23632,0 2.98828,-7.75195 -4.20117,0 0,-0.9961"
       id="path3397" />
    <path
       style="font-size:12px;font-style:normal;font-weight:normal;line-height:125%;letter-spacing:0px;word-spacing:0px;fill:#000000;fill-opacity:1;stroke:none;font-family:Sans"
       d="m 139.06836,130.25201 c 0.26952,-0.48437 0.59179,-0.8418 0.9668,-1.07227 0.37499,-0.23046 0.81639,-0.3457 1.32421,-0.3457 0.68359,0 1.21093,0.24024 1.58204,0.7207 0.37108,0.47657 0.55663,1.15625 0.55664,2.03906 l 0,3.96094 -1.08399,0 0,-3.92578 c -1e-5,-0.6289 -0.11134,-1.0957 -0.33398,-1.40039 -0.22267,-0.30468 -0.56251,-0.45703 -1.01953,-0.45703 -0.5586,0 -1.00001,0.18555 -1.32422,0.55664 -0.32423,0.3711 -0.48634,0.87695 -0.48633,1.51758 l 0,3.70898 -1.08398,0 0,-3.92578 c -1e-5,-0.63281 -0.11134,-1.09961 -0.33399,-1.40039 -0.22266,-0.30468 -0.56641,-0.45703 -1.03125,-0.45703 -0.55078,0 -0.98828,0.1875 -1.3125,0.5625 -0.32422,0.3711 -0.48633,0.875 -0.48633,1.51172 l 0,3.70898 -1.08398,0 0,-6.5625 1.08398,0 0,1.01953 c 0.24609,-0.40234 0.54102,-0.69921 0.88477,-0.89062 0.34375,-0.1914 0.75195,-0.28711 1.22461,-0.28711 0.47656,0 0.88085,0.1211 1.21289,0.36328 0.33593,0.24219 0.58398,0.59375 0.74414,1.05469"
       id="path3399" />
    <path
       style="font-size:12px;font-style:normal;font-weight:normal;line-height:125%;letter-spacing:0px;word-spacing:0px;fill:#000000;fill-opacity:1;stroke:none;font-family:Sans"
       d="m 149.61523,131.29497 7.51172,0 0,0.9961 -7.51172,0 0,-0.9961"
       id="path3401" />
    <path
       style="font-size:12px;font-style:normal;font-weight:normal;line-height:125%;letter-spacing:0px;word-spacing:0px;fill:#000000;fill-opacity:1;stroke:none;font-family:Sans"
       d="m 163.70703,134.55865 1.93359,0 0,-6.67383 -2.10351,0.42187 0,-1.07812 2.0918,-0.42188 1.18359,0 0,7.75196 1.93359,0 0,0.99609 -5.03906,0 0,-0.99609"
       id="path3403" />
  </g>
</svg>
