<?xml version="1.0" encoding="UTF-8" standalone="no"?>
<!-- Created with Inkscape (http://www.inkscape.org/) -->

<svg
   xmlns:dc="http://purl.org/dc/elements/1.1/"
   xmlns:cc="http://creativecommons.org/ns#"
   xmlns:rdf="http://www.w3.org/1999/02/22-rdf-syntax-ns#"
   xmlns:svg="http://www.w3.org/2000/svg"
   xmlns="http://www.w3.org/2000/svg"
   xmlns:sodipodi="http://sodipodi.sourceforge.net/DTD/sodipodi-0.dtd"
   xmlns:inkscape="http://www.inkscape.org/namespaces/inkscape"
   width="200"
   height="200"
   id="svg2"
   version="1.1"
   inkscape:version="0.48.0 r9654"
   sodipodi:docname="2011-(02)feb-16, 05.svg">
  <defs
     id="defs4" />
  <sodipodi:namedview
     id="base"
     pagecolor="#ffffff"
     bordercolor="#666666"
     borderopacity="1.0"
     inkscape:pageopacity="0.0"
     inkscape:pageshadow="2"
     inkscape:zoom="1.1934389"
     inkscape:cx="61.161436"
     inkscape:cy="-3.665832"
     inkscape:document-units="px"
     inkscape:current-layer="layer1"
     showgrid="false"
     inkscape:window-width="1589"
     inkscape:window-height="1117"
     inkscape:window-x="1600"
     inkscape:window-y="27"
     inkscape:window-maximized="1" />
  <metadata
     id="metadata7">
    <rdf:RDF>
      <cc:Work
         rdf:about="">
        <dc:format>image/svg+xml</dc:format>
        <dc:type
           rdf:resource="http://purl.org/dc/dcmitype/StillImage" />
        <dc:title />
      </cc:Work>
    </rdf:RDF>
  </metadata>
  <g
     inkscape:label="Layer 1"
     inkscape:groupmode="layer"
     id="layer1">
    <path
       style="font-size:medium;font-style:normal;font-variant:normal;font-weight:normal;font-stretch:normal;text-indent:0;text-align:start;text-decoration:none;line-height:normal;letter-spacing:normal;word-spacing:normal;text-transform:none;direction:ltr;block-progression:tb;writing-mode:lr-tb;text-anchor:start;baseline-shift:baseline;color:#000000;fill:#000000;fill-opacity:1;stroke:none;stroke-width:1;marker:none;visibility:visible;display:inline;overflow:visible;enable-background:accumulate;font-family:Sans;-inkscape-font-specification:Sans"
       d="m 47.233776,49.827054 c -3.583928,0 -6.5,2.916072 -6.5,6.5 0,3.583928 2.916072,6.5 6.5,6.5 3.583928,0 6.5,-2.916072 6.5,-6.5 0,-3.583928 -2.916072,-6.5 -6.5,-6.5 z"
       id="path3004"
       inkscape:connector-curvature="0" />
    <path
       style="font-size:medium;font-style:normal;font-variant:normal;font-weight:normal;font-stretch:normal;text-indent:0;text-align:start;text-decoration:none;line-height:normal;letter-spacing:normal;word-spacing:normal;text-transform:none;direction:ltr;block-progression:tb;writing-mode:lr-tb;text-anchor:start;baseline-shift:baseline;color:#000000;fill:#000000;fill-opacity:1;stroke:none;stroke-width:1;marker:none;visibility:visible;display:inline;overflow:visible;enable-background:accumulate;font-family:Sans;-inkscape-font-specification:Sans"
       d="m 49.238376,10.293387 c -9.122167,-0.7169587 -18.208968,3.965071 -22.6875,12.59375 -5.971375,11.504905 -1.473656,25.684875 10.03125,31.65625 l 0.46875,-0.875 c -11.025228,-5.722409 -15.316159,-19.287273 -9.59375,-30.3125 5.722409,-11.025227 19.256022,-15.3161587 30.28125,-9.59375 11.025227,5.722409 15.347409,19.287273 9.625,30.3125 -2.236421,4.308859 -5.815683,7.764301 -10.1875,9.875 l 0.4375,0.90625 c 4.566155,-2.204525 8.289165,-5.843353 10.625,-10.34375 5.971375,-11.504905 1.473655,-25.684875 -10.03125,-31.65625 -2.876227,-1.492844 -5.928028,-2.323514 -8.96875,-2.5625 z"
       id="path3008"
       inkscape:connector-curvature="0" />
    <g
       id="g4235"
       transform="translate(-4.1166034,6.6838056)">
      <path
         style="font-size:medium;font-style:normal;font-variant:normal;font-weight:normal;font-stretch:normal;text-indent:0;text-align:start;text-decoration:none;line-height:normal;letter-spacing:normal;word-spacing:normal;text-transform:none;direction:ltr;block-progression:tb;writing-mode:lr-tb;text-anchor:start;baseline-shift:baseline;color:#000000;fill:#000000;fill-opacity:1;stroke:none;stroke-width:1px;marker:none;visibility:visible;display:inline;overflow:visible;enable-background:accumulate;font-family:Sans;-inkscape-font-specification:Sans"
         d="m 38.09375,45.09375 -0.53125,0.8125 3.1875,2.125 0.53125,-0.8125 -3.1875,-2.125 z"
         id="path3021"
         inkscape:connector-curvature="0" />
      <path
         d="M 34.578469,38.003741 42.126942,48.347627 29.67548,45.358222 c 3.044938,-1.10599 5.015974,-4.082488 4.902989,-7.354481 z"
         style="font-size:12px;fill-rule:evenodd;stroke-width:0.625;stroke-linejoin:round"
         id="path4241"
         inkscape:connector-curvature="0" />
    </g>
    <path
       style="font-size:12px;font-style:normal;font-weight:normal;line-height:125%;letter-spacing:0px;word-spacing:0px;fill:#000000;fill-opacity:1;stroke:none;font-family:Sans"
       d="m 46.652685,39.13001 c -0.351566,7e-6 -0.722659,0.01563 -1.09375,0.09375 -0.371095,0.07423 -0.73047,0.191413 -1.125,0.34375 l 0,1 c 0.328123,-0.179682 0.64453,-0.3164 1,-0.40625 0.355467,-0.08984 0.718747,-0.124994 1.09375,-0.125 0.589839,6e-6 1.050777,0.132818 1.375,0.40625 0.32812,0.269536 0.499995,0.660161 0.5,1.15625 l 0,0.09375 -1.5,0 c -0.980471,4e-6 -1.722658,0.187504 -2.21875,0.5625 -0.492188,0.375003 -0.750001,0.949221 -0.75,1.6875 -10e-7,0.632813 0.199218,1.121094 0.59375,1.5 0.398436,0.375 0.953123,0.5625 1.625,0.5625 0.531246,0 0.976559,-0.09375 1.34375,-0.28125 0.367183,-0.191406 0.660151,-0.476562 0.90625,-0.875 l 0,1 1.09375,0 0,-3.75 c -6e-6,-0.999995 -0.250006,-1.757807 -0.71875,-2.25 -0.468755,-0.492181 -1.175786,-0.718743 -2.125,-0.71875 z m 0.6875,3.40625 1.0625,0 0,0.25 c -5e-6,0.703128 -0.167974,1.26172 -0.53125,1.6875 -0.359379,0.421876 -0.839847,0.625001 -1.4375,0.625 -0.433596,1e-6 -0.777346,-0.08984 -1.03125,-0.3125 -0.250002,-0.226562 -0.375002,-0.554686 -0.375,-0.9375 -2e-6,-0.480466 0.164061,-0.800779 0.5,-1 0.335935,-0.199218 0.941403,-0.312497 1.8125,-0.3125 z"
       id="path3026"
       inkscape:connector-curvature="0" />
    <path
       style="font-size:12px;font-style:normal;font-weight:normal;line-height:125%;letter-spacing:0px;word-spacing:0px;fill:#000000;fill-opacity:1;stroke:none;font-family:Sans"
       d="m 149.92954,38.025629 0,3.5625 c -0.22657,-0.390619 -0.4961,-0.687494 -0.84375,-0.875 -0.34375,-0.191399 -0.76563,-0.281243 -1.25,-0.28125 -0.79298,7e-6 -1.43751,0.304693 -1.9375,0.9375 -0.4961,0.632817 -0.75001,1.468755 -0.75,2.5 -1e-5,1.031253 0.2539,1.867189 0.75,2.5 0.49999,0.632813 1.14452,0.9375 1.9375,0.9375 0.48437,0 0.90625,-0.09375 1.25,-0.28125 0.34765,-0.191406 0.61718,-0.484374 0.84375,-0.875 l 0,1 1.09375,0 0,-9.125 -1.09375,0 z m -1.84375,3.3125 c 0.57031,5e-6 1.04687,0.203131 1.375,0.65625 0.32812,0.449223 0.46874,1.082036 0.46875,1.875 -1e-5,0.792972 -0.14063,1.421877 -0.46875,1.875 -0.32813,0.44922 -0.80469,0.656251 -1.375,0.65625 -0.57032,10e-7 -1.01563,-0.20703 -1.34375,-0.65625 -0.32422,-0.453123 -0.46876,-1.082028 -0.46875,-1.875 -1e-5,-0.792964 0.14453,-1.425777 0.46875,-1.875 0.32812,-0.453119 0.77343,-0.656245 1.34375,-0.65625 z"
       id="path3046"
       inkscape:connector-curvature="0" />
    <path
       style="font-size:12px;font-style:normal;font-weight:normal;line-height:125%;letter-spacing:0px;word-spacing:0px;fill:#000000;fill-opacity:1;stroke:none;font-family:Sans"
       d="m 44.242532,156.51724 0,9.125 1.09375,0 0,-1 c 0.22656,0.39063 0.499997,0.6836 0.84375,0.875 0.347653,0.1875 0.769528,0.28125 1.25,0.28125 0.79687,0 1.441401,-0.30468 1.9375,-0.9375 0.499994,-0.63281 0.749994,-1.46874 0.75,-2.5 -6e-6,-1.03124 -0.250006,-1.86718 -0.75,-2.5 -0.496099,-0.6328 -1.14063,-0.93749 -1.9375,-0.9375 -0.480472,1e-5 -0.902347,0.0899 -1.25,0.28125 -0.343753,0.18751 -0.61719,0.48439 -0.84375,0.875 l 0,-3.5625 -1.09375,0 z m 2.90625,3.3125 c 0.570308,1e-5 1.019527,0.20314 1.34375,0.65625 0.32812,0.44923 0.499994,1.08204 0.5,1.875 -6e-6,0.79298 -0.17188,1.42188 -0.5,1.875 -0.324223,0.44922 -0.773442,0.65626 -1.34375,0.65625 -0.570315,1e-5 -1.015628,-0.20703 -1.34375,-0.65625 -0.324221,-0.45312 -0.468752,-1.08202 -0.46875,-1.875 -2e-6,-0.79296 0.144529,-1.42577 0.46875,-1.875 0.328122,-0.45311 0.773435,-0.65624 1.34375,-0.65625 z"
       id="path3030"
       inkscape:connector-curvature="0" />
    <path
       style="font-size:12px;font-style:normal;font-weight:normal;line-height:125%;letter-spacing:0px;word-spacing:0px;fill:#000000;fill-opacity:1;stroke:none;font-family:Sans"
       d="m 150.5304,157.23031 0,1.00781 c -0.3047,-0.16796 -0.61134,-0.29296 -0.91992,-0.375 -0.3047,-0.0859 -0.61329,-0.1289 -0.92579,-0.12891 -0.69922,1e-5 -1.24219,0.22267 -1.6289,0.66797 -0.38672,0.44141 -0.58008,1.06251 -0.58008,1.86328 0,0.80079 0.19336,1.42383 0.58008,1.86914 0.38671,0.44141 0.92968,0.66211 1.6289,0.66211 0.3125,0 0.62109,-0.041 0.92579,-0.12304 0.30858,-0.0859 0.61522,-0.21289 0.91992,-0.38086 l 0,0.99609 c -0.30079,0.14063 -0.61329,0.2461 -0.9375,0.31641 -0.32032,0.0703 -0.66212,0.10547 -1.02539,0.10547 -0.98829,0 -1.77344,-0.31055 -2.35547,-0.93164 -0.58204,-0.6211 -0.87305,-1.45899 -0.87305,-2.51368 0,-1.0703 0.29297,-1.9121 0.87891,-2.52539 0.58984,-0.61327 1.39648,-0.91991 2.41992,-0.91992 0.33203,10e-6 0.65624,0.0352 0.97266,0.10547 0.3164,0.0664 0.62304,0.16798 0.91992,0.30469"
       id="path3032"
       inkscape:connector-curvature="0" />
    <path
       inkscape:connector-curvature="0"
       id="path3014"
       d="m 147.23378,49.827054 c -3.58393,0 -6.5,2.916072 -6.5,6.5 0,3.583928 2.91607,6.5 6.5,6.5 3.58392,0 6.5,-2.916072 6.5,-6.5 0,-3.583928 -2.91608,-6.5 -6.5,-6.5 z"
       style="font-size:medium;font-style:normal;font-variant:normal;font-weight:normal;font-stretch:normal;text-indent:0;text-align:start;text-decoration:none;line-height:normal;letter-spacing:normal;word-spacing:normal;text-transform:none;direction:ltr;block-progression:tb;writing-mode:lr-tb;text-anchor:start;baseline-shift:baseline;color:#000000;fill:#000000;fill-opacity:1;stroke:none;stroke-width:1;marker:none;visibility:visible;display:inline;overflow:visible;enable-background:accumulate;font-family:Sans;-inkscape-font-specification:Sans" />
    <path
       inkscape:connector-curvature="0"
       id="path3016"
       d="m 149.23838,10.293387 c -9.12217,-0.7169587 -18.20897,3.965071 -22.6875,12.59375 -5.97138,11.504905 -1.47366,25.684875 10.03125,31.65625 l 0.46875,-0.875 c -11.02523,-5.722409 -15.31616,-19.287273 -9.59375,-30.3125 5.72241,-11.025227 19.25602,-15.3161587 30.28125,-9.59375 11.02522,5.722409 15.34741,19.287273 9.625,30.3125 -2.23642,4.308859 -5.81569,7.764301 -10.1875,9.875 l 0.4375,0.90625 c 4.56615,-2.204525 8.28916,-5.843353 10.625,-10.34375 5.97137,-11.504905 1.47365,-25.684875 -10.03125,-31.65625 -2.87623,-1.492844 -5.92803,-2.323514 -8.96875,-2.5625 z"
       style="font-size:medium;font-style:normal;font-variant:normal;font-weight:normal;font-stretch:normal;text-indent:0;text-align:start;text-decoration:none;line-height:normal;letter-spacing:normal;word-spacing:normal;text-transform:none;direction:ltr;block-progression:tb;writing-mode:lr-tb;text-anchor:start;baseline-shift:baseline;color:#000000;fill:#000000;fill-opacity:1;stroke:none;stroke-width:1;marker:none;visibility:visible;display:inline;overflow:visible;enable-background:accumulate;font-family:Sans;-inkscape-font-specification:Sans" />
    <g
       transform="translate(95.883397,6.6838056)"
       id="g3018">
      <path
         inkscape:connector-curvature="0"
         id="path3020"
         d="m 38.09375,45.09375 -0.53125,0.8125 3.1875,2.125 0.53125,-0.8125 -3.1875,-2.125 z"
         style="font-size:medium;font-style:normal;font-variant:normal;font-weight:normal;font-stretch:normal;text-indent:0;text-align:start;text-decoration:none;line-height:normal;letter-spacing:normal;word-spacing:normal;text-transform:none;direction:ltr;block-progression:tb;writing-mode:lr-tb;text-anchor:start;baseline-shift:baseline;color:#000000;fill:#000000;fill-opacity:1;stroke:none;stroke-width:1px;marker:none;visibility:visible;display:inline;overflow:visible;enable-background:accumulate;font-family:Sans;-inkscape-font-specification:Sans" />
      <path
         inkscape:connector-curvature="0"
         id="path3022"
         style="font-size:12px;fill-rule:evenodd;stroke-width:0.625;stroke-linejoin:round"
         d="M 34.578469,38.003741 42.126942,48.347627 29.67548,45.358222 c 3.044938,-1.10599 5.015974,-4.082488 4.902989,-7.354481 z" />
    </g>
    <path
       style="font-size:medium;font-style:normal;font-variant:normal;font-weight:normal;font-stretch:normal;text-indent:0;text-align:start;text-decoration:none;line-height:normal;letter-spacing:normal;word-spacing:normal;text-transform:none;direction:ltr;block-progression:tb;writing-mode:lr-tb;text-anchor:start;baseline-shift:baseline;color:#000000;fill:#000000;fill-opacity:1;stroke:none;stroke-width:1;marker:none;visibility:visible;display:inline;overflow:visible;enable-background:accumulate;font-family:Sans;-inkscape-font-specification:Sans"
       d="m 147.23378,169.82705 c -3.58393,0 -6.5,2.91608 -6.5,6.5 0,3.58393 2.91607,6.5 6.5,6.5 3.58392,0 6.5,-2.91607 6.5,-6.5 0,-3.58392 -2.91608,-6.5 -6.5,-6.5 z"
       id="path3024"
       inkscape:connector-curvature="0" />
    <path
       style="font-size:medium;font-style:normal;font-variant:normal;font-weight:normal;font-stretch:normal;text-indent:0;text-align:start;text-decoration:none;line-height:normal;letter-spacing:normal;word-spacing:normal;text-transform:none;direction:ltr;block-progression:tb;writing-mode:lr-tb;text-anchor:start;baseline-shift:baseline;color:#000000;fill:#000000;fill-opacity:1;stroke:none;stroke-width:1;marker:none;visibility:visible;display:inline;overflow:visible;enable-background:accumulate;font-family:Sans;-inkscape-font-specification:Sans"
       d="m 149.23838,130.29339 c -9.12217,-0.71696 -18.20897,3.96507 -22.6875,12.59375 -5.97138,11.5049 -1.47366,25.68487 10.03125,31.65625 l 0.46875,-0.875 c -11.02523,-5.72241 -15.31616,-19.28728 -9.59375,-30.3125 5.72241,-11.02523 19.25602,-15.31616 30.28125,-9.59375 11.02522,5.72241 15.34741,19.28727 9.625,30.3125 -2.23642,4.30886 -5.81569,7.7643 -10.1875,9.875 l 0.4375,0.90625 c 4.56615,-2.20453 8.28916,-5.84336 10.625,-10.34375 5.97137,-11.50491 1.47365,-25.68488 -10.03125,-31.65625 -2.87623,-1.49285 -5.92803,-2.32352 -8.96875,-2.5625 z"
       id="path3027"
       inkscape:connector-curvature="0" />
    <g
       id="g3029"
       transform="translate(95.883397,126.68381)">
      <path
         style="font-size:medium;font-style:normal;font-variant:normal;font-weight:normal;font-stretch:normal;text-indent:0;text-align:start;text-decoration:none;line-height:normal;letter-spacing:normal;word-spacing:normal;text-transform:none;direction:ltr;block-progression:tb;writing-mode:lr-tb;text-anchor:start;baseline-shift:baseline;color:#000000;fill:#000000;fill-opacity:1;stroke:none;stroke-width:1px;marker:none;visibility:visible;display:inline;overflow:visible;enable-background:accumulate;font-family:Sans;-inkscape-font-specification:Sans"
         d="m 38.09375,45.09375 -0.53125,0.8125 3.1875,2.125 0.53125,-0.8125 -3.1875,-2.125 z"
         id="path3031"
         inkscape:connector-curvature="0" />
      <path
         d="M 34.578469,38.003741 42.126942,48.347627 29.67548,45.358222 c 3.044938,-1.10599 5.015974,-4.082488 4.902989,-7.354481 z"
         style="font-size:12px;fill-rule:evenodd;stroke-width:0.625;stroke-linejoin:round"
         id="path3033"
         inkscape:connector-curvature="0" />
    </g>
    <path
       inkscape:connector-curvature="0"
       id="path3035"
       d="m 47.555474,151.6007 c 3.58393,0 6.5,-2.91608 6.5,-6.5 0,-3.58393 -2.91607,-6.5 -6.5,-6.5 -3.58392,0 -6.5,2.91607 -6.5,6.5 0,3.58392 2.91608,6.5 6.5,6.5 z"
       style="font-size:medium;font-style:normal;font-variant:normal;font-weight:normal;font-stretch:normal;text-indent:0;text-align:start;text-decoration:none;line-height:normal;letter-spacing:normal;word-spacing:normal;text-transform:none;direction:ltr;block-progression:tb;writing-mode:lr-tb;text-anchor:start;baseline-shift:baseline;color:#000000;fill:#000000;fill-opacity:1;stroke:none;stroke-width:1;marker:none;visibility:visible;display:inline;overflow:visible;enable-background:accumulate;font-family:Sans;-inkscape-font-specification:Sans"
       inkscape:transform-center-x="-0.16084715"
       inkscape:transform-center-y="-15.613174" />
    <path
       inkscape:connector-curvature="0"
       id="path3037"
       d="m 45.550874,191.13436 c 9.12217,0.71696 18.20897,-3.96507 22.6875,-12.59375 5.97138,-11.5049 1.47366,-25.68487 -10.03125,-31.65625 l -0.46875,0.875 c 11.02523,5.72241 15.31616,19.28728 9.59375,30.3125 -5.72241,11.02523 -19.25602,15.31616 -30.28125,9.59375 -11.02522,-5.72241 -15.34741,-19.28727 -9.625,-30.3125 2.23642,-4.30886 5.81569,-7.7643 10.1875,-9.875 l -0.4375,-0.90625 c -4.56615,2.20453 -8.28916,5.84336 -10.625,10.34375 -5.97137,11.50491 -1.47365,25.68488 10.03125,31.65625 2.87623,1.49285 5.92803,2.32352 8.96875,2.5625 z"
       style="font-size:medium;font-style:normal;font-variant:normal;font-weight:normal;font-stretch:normal;text-indent:0;text-align:start;text-decoration:none;line-height:normal;letter-spacing:normal;word-spacing:normal;text-transform:none;direction:ltr;block-progression:tb;writing-mode:lr-tb;text-anchor:start;baseline-shift:baseline;color:#000000;fill:#000000;fill-opacity:1;stroke:none;stroke-width:1;marker:none;visibility:visible;display:inline;overflow:visible;enable-background:accumulate;font-family:Sans;-inkscape-font-specification:Sans"
       inkscape:transform-center-y="8.1751542" />
    <g
       transform="matrix(-1,0,0,-1,98.905857,194.74394)"
       id="g3039"
       inkscape:transform-center-x="-15.610019"
       inkscape:transform-center-y="-9.1456186">
      <path
         inkscape:connector-curvature="0"
         id="path3041"
         d="m 38.09375,45.09375 -0.53125,0.8125 3.1875,2.125 0.53125,-0.8125 -3.1875,-2.125 z"
         style="font-size:medium;font-style:normal;font-variant:normal;font-weight:normal;font-stretch:normal;text-indent:0;text-align:start;text-decoration:none;line-height:normal;letter-spacing:normal;word-spacing:normal;text-transform:none;direction:ltr;block-progression:tb;writing-mode:lr-tb;text-anchor:start;baseline-shift:baseline;color:#000000;fill:#000000;fill-opacity:1;stroke:none;stroke-width:1px;marker:none;visibility:visible;display:inline;overflow:visible;enable-background:accumulate;font-family:Sans;-inkscape-font-specification:Sans" />
      <path
         inkscape:connector-curvature="0"
         id="path3043"
         style="font-size:12px;fill-rule:evenodd;stroke-width:0.625;stroke-linejoin:round"
         d="M 34.578469,38.003741 42.126942,48.347627 29.67548,45.358222 c 3.044938,-1.10599 5.015974,-4.082488 4.902989,-7.354481 z" />
    </g>
    <path
       style="font-size:medium;font-style:normal;font-variant:normal;font-weight:normal;font-stretch:normal;text-indent:0;text-align:start;text-decoration:none;line-height:normal;letter-spacing:normal;word-spacing:normal;text-transform:none;direction:ltr;block-progression:tb;writing-mode:lr-tb;text-anchor:start;baseline-shift:baseline;color:#000000;fill:#000000;fill-opacity:1;stroke:none;stroke-width:1px;marker:none;visibility:visible;display:inline;overflow:visible;enable-background:accumulate;font-family:Sans;-inkscape-font-specification:Sans"
       d="m 46.4375,67.625 0,66.1875 1,0 0,-66.1875 -1,0 z"
       id="path3045" />
    <path
       style="font-size:12px;fill-rule:evenodd;stroke-width:0.625;stroke-linejoin:round"
       d="m 51.360331,123.11429 -4.419494,12.01847 -4.419494,-12.01847 c 2.609267,1.92005 6.179198,1.90899 8.838988,0 z"
       id="path4265" />
  </g>
</svg>
