<?xml version="1.0" encoding="UTF-8" standalone="no"?>
<!-- Created with Inkscape (http://www.inkscape.org/) -->

<svg
   xmlns:dc="http://purl.org/dc/elements/1.1/"
   xmlns:cc="http://creativecommons.org/ns#"
   xmlns:rdf="http://www.w3.org/1999/02/22-rdf-syntax-ns#"
   xmlns:svg="http://www.w3.org/2000/svg"
   xmlns="http://www.w3.org/2000/svg"
   xmlns:sodipodi="http://sodipodi.sourceforge.net/DTD/sodipodi-0.dtd"
   xmlns:inkscape="http://www.inkscape.org/namespaces/inkscape"
   width="300"
   height="200"
   id="svg2"
   version="1.1"
   inkscape:version="0.48.0 r9654"
   sodipodi:docname="2011-(02)feb-02, 07.svg">
  <defs
     id="defs4" />
  <sodipodi:namedview
     id="base"
     pagecolor="#ffffff"
     bordercolor="#666666"
     borderopacity="1.0"
     inkscape:pageopacity="0.0"
     inkscape:pageshadow="2"
     inkscape:zoom="1"
     inkscape:cx="314.08031"
     inkscape:cy="-24.034959"
     inkscape:document-units="px"
     inkscape:current-layer="layer1"
     showgrid="false"
     inkscape:window-width="1589"
     inkscape:window-height="1117"
     inkscape:window-x="1600"
     inkscape:window-y="27"
     inkscape:window-maximized="1"
     showguides="true"
     inkscape:guide-bbox="true" />
  <metadata
     id="metadata7">
    <rdf:RDF>
      <cc:Work
         rdf:about="">
        <dc:format>image/svg+xml</dc:format>
        <dc:type
           rdf:resource="http://purl.org/dc/dcmitype/StillImage" />
        <dc:title />
      </cc:Work>
    </rdf:RDF>
  </metadata>
  <g
     inkscape:label="Layer 1"
     inkscape:groupmode="layer"
     id="layer1">
    <path
       style="font-size:medium;font-style:normal;font-variant:normal;font-weight:normal;font-stretch:normal;text-indent:0;text-align:start;text-decoration:none;line-height:normal;letter-spacing:normal;word-spacing:normal;text-transform:none;direction:ltr;block-progression:tb;writing-mode:lr-tb;text-anchor:start;baseline-shift:baseline;color:#000000;fill:#000000;fill-opacity:1;stroke:none;stroke-width:1px;marker:none;visibility:visible;display:inline;overflow:visible;enable-background:accumulate;font-family:Sans;-inkscape-font-specification:Sans"
       d="m 35.6875,6.59375 0,187.75 1,0 0,-187.75 -1,0 z"
       id="path2995" />
    <path
       style="font-size:12px;fill-rule:evenodd;stroke-width:0.625;stroke-linejoin:round"
       d="M 31.73625,17.296742 36.155744,5.2782767 40.575238,17.296742 c -2.609267,-1.920048 -6.179198,-1.908984 -8.838988,0 z"
       id="path4689" />
    <path
       style="font-size:medium;font-style:normal;font-variant:normal;font-weight:normal;font-stretch:normal;text-indent:0;text-align:start;text-decoration:none;line-height:normal;letter-spacing:normal;word-spacing:normal;text-transform:none;direction:ltr;block-progression:tb;writing-mode:lr-tb;text-anchor:start;baseline-shift:baseline;color:#000000;fill:#000000;fill-opacity:1;stroke:none;stroke-width:1px;marker:none;visibility:visible;display:inline;overflow:visible;enable-background:accumulate;font-family:Sans;-inkscape-font-specification:Sans"
       d="m 7.0625,164.15625 0,1 280.71875,0 0,-1 -280.71875,0 z"
       id="path2997" />
    <path
       style="font-size:12px;fill-rule:evenodd;stroke-width:0.625;stroke-linejoin:round"
       d="m 277.10201,160.21796 12.01847,4.4195 -12.01847,4.41949 c 1.92005,-2.60927 1.90899,-6.1792 0,-8.83899 z"
       id="path4681" />
    <path
       style="font-size:24px;font-style:normal;font-weight:normal;line-height:125%;letter-spacing:0px;word-spacing:0px;fill:#000000;fill-opacity:1;stroke:none;font-family:Sans"
       d="M 4 79.65625 L 4 97.15625 L 10.28125 97.15625 C 12.242177 97.15625 13.749988 96.726563 14.8125 95.875 C 15.874986 95.02344 16.406235 93.812504 16.40625 92.25 C 16.406235 91.062506 16.085923 90.070319 15.4375 89.28125 C 14.796862 88.484383 13.8828 87.968759 12.71875 87.71875 C 13.687487 87.56251 14.406238 87.164073 14.90625 86.53125 C 15.406237 85.898449 15.656236 85.070324 15.65625 84 C 15.656236 82.617202 15.195299 81.531266 14.21875 80.78125 C 13.242176 80.031267 11.835927 79.656268 10.03125 79.65625 L 4 79.65625 z M 6.34375 81.59375 L 9.84375 81.59375 C 10.99999 81.593765 11.874989 81.812515 12.4375 82.25 C 13.007801 82.687514 13.281239 83.367202 13.28125 84.25 C 13.281239 85.140637 13.007801 85.812511 12.4375 86.25 C 11.874989 86.679698 10.99999 86.87501 9.84375 86.875 L 6.34375 86.875 L 6.34375 81.59375 z M 6.34375 88.8125 L 10.15625 88.8125 C 11.429678 88.812508 12.359364 89.070321 12.96875 89.59375 C 13.585926 90.109382 13.906238 90.906256 13.90625 92 C 13.906238 93.085941 13.585926 93.906253 12.96875 94.4375 C 12.359364 94.96094 11.429678 95.218752 10.15625 95.21875 L 6.34375 95.21875 L 6.34375 88.8125 z "
       id="path4608" />
    <path
       style="font-size:24px;font-style:normal;font-weight:normal;line-height:125%;letter-spacing:0px;word-spacing:0px;fill:#000000;fill-opacity:1;stroke:none;font-family:Sans"
       d="M 146.4375 181 L 139.78125 198.5 L 142.25 198.5 L 143.84375 194 L 151.75 194 L 153.34375 198.5 L 155.8125 198.5 L 149.125 181 L 146.4375 181 z M 147.78125 183.34375 L 151 192.03125 L 144.5625 192.03125 L 147.78125 183.34375 z "
       id="path4611" />
    <path
       style="font-size:24px;font-style:normal;font-weight:normal;line-height:125%;letter-spacing:0px;word-spacing:0px;fill:#000000;fill-opacity:1;stroke:none;font-family:Sans"
       d="M 225.53125 23.40625 L 218.84375 40.90625 L 221.34375 40.90625 L 222.9375 36.4375 L 230.8125 36.4375 L 232.40625 40.90625 L 234.875 40.90625 L 228.21875 23.40625 L 225.53125 23.40625 z M 226.875 25.75 L 230.09375 34.46875 L 223.65625 34.46875 L 226.875 25.75 z "
       id="path4614" />
    <path
       style="font-size:24px;font-style:normal;font-weight:normal;line-height:125%;letter-spacing:0px;word-spacing:0px;fill:#000000;fill-opacity:1;stroke:none;font-family:Sans"
       d="m 259.53837,28.020066 -5.35547,5.378906 5.35547,5.355469 -1.39453,1.417969 -5.37891,-5.378907 -5.3789,5.378907 -1.38282,-1.417969 5.34375,-5.355469 -5.34375,-5.378906 1.38282,-1.417969 5.3789,5.378906 5.37891,-5.378906 1.39453,1.417969"
       id="path4616" />
    <path
       style="font-size:24px;font-style:normal;font-weight:normal;line-height:125%;letter-spacing:0px;word-spacing:0px;fill:#000000;fill-opacity:1;stroke:none;font-family:Sans"
       d="M 272.8125 23.40625 L 272.8125 40.90625 L 279.09375 40.90625 C 281.05468 40.90625 282.56249 40.476563 283.625 39.625 C 284.68749 38.77344 285.21873 37.562504 285.21875 36 C 285.21873 34.812506 284.89843 33.851569 284.25 33.0625 C 283.60937 32.265633 282.6953 31.718759 281.53125 31.46875 C 282.49999 31.31251 283.24998 30.914073 283.75 30.28125 C 284.24998 29.648449 284.49998 28.820324 284.5 27.75 C 284.49998 26.367202 284.0078 25.281266 283.03125 24.53125 C 282.05468 23.781267 280.67968 23.406268 278.875 23.40625 L 272.8125 23.40625 z M 275.1875 25.375 L 278.6875 25.375 C 279.84374 25.375015 280.68749 25.593765 281.25 26.03125 C 281.8203 26.468764 282.12499 27.117202 282.125 28 C 282.12499 28.890637 281.8203 29.562511 281.25 30 C 280.68749 30.429698 279.84374 30.62501 278.6875 30.625 L 275.1875 30.625 L 275.1875 25.375 z M 275.1875 32.5625 L 278.96875 32.5625 C 280.24217 32.562508 281.20312 32.820321 281.8125 33.34375 C 282.42968 33.859382 282.71873 34.656256 282.71875 35.75 C 282.71873 36.835941 282.42968 37.656253 281.8125 38.1875 C 281.20312 38.71094 280.24217 38.968752 278.96875 38.96875 L 275.1875 38.96875 L 275.1875 32.5625 z "
       id="path4618" />
    <path
       style="font-size:18px;font-style:normal;font-weight:normal;line-height:125%;letter-spacing:0px;word-spacing:0px;fill:#000000;fill-opacity:1;stroke:none;font-family:Sans"
       d="m 63.621094,141.27352 -4.016602,4.03418 4.016602,4.0166 -1.045899,1.06347 -4.034179,-4.03418 -4.03418,4.03418 -1.037109,-1.06347 4.007812,-4.0166 -4.007812,-4.03418 1.037109,-1.06348 4.03418,4.03418 4.034179,-4.03418 1.045899,1.06348"
       id="path4621" />
    <path
       style="font-size:18px;font-style:normal;font-weight:normal;line-height:125%;letter-spacing:0px;word-spacing:0px;fill:#000000;fill-opacity:1;stroke:none;font-family:Sans"
       d="m 103.62109,141.27352 -4.016598,4.03418 4.016598,4.0166 -1.0459,1.06347 -4.034174,-4.03418 -4.03418,4.03418 -1.037109,-1.06347 4.007812,-4.0166 -4.007812,-4.03418 1.037109,-1.06348 4.03418,4.03418 4.034174,-4.03418 1.0459,1.06348"
       id="path4624" />
    <path
       style="font-size:18px;font-style:normal;font-weight:normal;line-height:125%;letter-spacing:0px;word-spacing:0px;fill:#000000;fill-opacity:1;stroke:none;font-family:Sans"
       d="m 143.62109,141.27352 -4.0166,4.03418 4.0166,4.0166 -1.0459,1.06347 -4.03417,-4.03418 -4.03418,4.03418 -1.03711,-1.06347 4.00781,-4.0166 -4.00781,-4.03418 1.03711,-1.06348 4.03418,4.03418 4.03417,-4.03418 1.0459,1.06348"
       id="path4627" />
    <path
       style="font-size:18px;font-style:normal;font-weight:normal;line-height:125%;letter-spacing:0px;word-spacing:0px;fill:#000000;fill-opacity:1;stroke:none;font-family:Sans"
       d="m 183.62109,141.27352 -4.0166,4.03418 4.0166,4.0166 -1.0459,1.06347 -4.03417,-4.03418 -4.03418,4.03418 -1.03711,-1.06347 4.00781,-4.0166 -4.00781,-4.03418 1.03711,-1.06348 4.03418,4.03418 4.03417,-4.03418 1.0459,1.06348"
       id="path4630" />
    <path
       style="font-size:18px;font-style:normal;font-weight:normal;line-height:125%;letter-spacing:0px;word-spacing:0px;fill:#000000;fill-opacity:1;stroke:none;font-family:Sans"
       d="m 223.62109,141.27352 -4.0166,4.03418 4.0166,4.0166 -1.0459,1.06347 -4.03417,-4.03418 -4.03418,4.03418 -1.03711,-1.06347 4.00781,-4.0166 -4.00781,-4.03418 1.03711,-1.06348 4.03418,4.03418 4.03417,-4.03418 1.0459,1.06348"
       id="path4633" />
    <path
       style="font-size:18px;font-style:normal;font-weight:normal;line-height:125%;letter-spacing:0px;word-spacing:0px;fill:#000000;fill-opacity:1;stroke:none;font-family:Sans"
       d="m 263.62109,141.27352 -4.0166,4.03418 4.0166,4.0166 -1.0459,1.06347 -4.03417,-4.03418 -4.03418,4.03418 -1.03711,-1.06347 4.00781,-4.0166 -4.00781,-4.03418 1.03711,-1.06348 4.03418,4.03418 4.03417,-4.03418 1.0459,1.06348"
       id="path4636" />
    <path
       style="font-size:18px;font-style:normal;font-weight:normal;line-height:125%;letter-spacing:0px;word-spacing:0px;fill:#000000;fill-opacity:1;stroke:none;font-family:Sans"
       d="m 63.621094,101.27352 -4.016602,4.03418 4.016602,4.0166 -1.045899,1.06347 -4.034179,-4.03418 -4.03418,4.03418 -1.037109,-1.06347 4.007812,-4.0166 -4.007812,-4.03418 1.037109,-1.06348 4.03418,4.03418 4.034179,-4.03418 1.045899,1.06348"
       id="path4639" />
    <path
       style="font-size:18px;font-style:normal;font-weight:normal;line-height:125%;letter-spacing:0px;word-spacing:0px;fill:#000000;fill-opacity:1;stroke:none;font-family:Sans"
       d="m 103.62109,101.27352 -4.016598,4.03418 4.016598,4.0166 -1.0459,1.06347 -4.034174,-4.03418 -4.03418,4.03418 -1.037109,-1.06347 4.007812,-4.0166 -4.007812,-4.03418 1.037109,-1.06348 4.03418,4.03418 4.034174,-4.03418 1.0459,1.06348"
       id="path4642" />
    <path
       style="font-size:18px;font-style:normal;font-weight:normal;line-height:125%;letter-spacing:0px;word-spacing:0px;fill:#000000;fill-opacity:1;stroke:none;font-family:Sans"
       d="m 143.62109,101.27352 -4.0166,4.03418 4.0166,4.0166 -1.0459,1.06347 -4.03417,-4.03418 -4.03418,4.03418 -1.03711,-1.06347 4.00781,-4.0166 -4.00781,-4.03418 1.03711,-1.06348 4.03418,4.03418 4.03417,-4.03418 1.0459,1.06348"
       id="path4645" />
    <path
       style="font-size:18px;font-style:normal;font-weight:normal;line-height:125%;letter-spacing:0px;word-spacing:0px;fill:#000000;fill-opacity:1;stroke:none;font-family:Sans"
       d="m 183.62109,101.27352 -4.0166,4.03418 4.0166,4.0166 -1.0459,1.06347 -4.03417,-4.03418 -4.03418,4.03418 -1.03711,-1.06347 4.00781,-4.0166 -4.00781,-4.03418 1.03711,-1.06348 4.03418,4.03418 4.03417,-4.03418 1.0459,1.06348"
       id="path4648" />
    <path
       style="font-size:18px;font-style:normal;font-weight:normal;line-height:125%;letter-spacing:0px;word-spacing:0px;fill:#000000;fill-opacity:1;stroke:none;font-family:Sans"
       d="m 223.62109,101.27352 -4.0166,4.03418 4.0166,4.0166 -1.0459,1.06347 -4.03417,-4.03418 -4.03418,4.03418 -1.03711,-1.06347 4.00781,-4.0166 -4.00781,-4.03418 1.03711,-1.06348 4.03418,4.03418 4.03417,-4.03418 1.0459,1.06348"
       id="path4651" />
    <path
       style="font-size:18px;font-style:normal;font-weight:normal;line-height:125%;letter-spacing:0px;word-spacing:0px;fill:#000000;fill-opacity:1;stroke:none;font-family:Sans"
       d="m 263.62109,101.27352 -4.0166,4.03418 4.0166,4.0166 -1.0459,1.06347 -4.03417,-4.03418 -4.03418,4.03418 -1.03711,-1.06347 4.00781,-4.0166 -4.00781,-4.03418 1.03711,-1.06348 4.03418,4.03418 4.03417,-4.03418 1.0459,1.06348"
       id="path4654" />
    <path
       style="font-size:18px;font-style:normal;font-weight:normal;line-height:125%;letter-spacing:0px;word-spacing:0px;fill:#000000;fill-opacity:1;stroke:none;font-family:Sans"
       d="m 63.621094,61.27352 -4.016602,4.03418 4.016602,4.0166 -1.045899,1.06347 -4.034179,-4.03418 -4.03418,4.03418 -1.037109,-1.06347 4.007812,-4.0166 -4.007812,-4.03418 1.037109,-1.06348 4.03418,4.03418 4.034179,-4.03418 1.045899,1.06348"
       id="path4657" />
    <path
       style="font-size:18px;font-style:normal;font-weight:normal;line-height:125%;letter-spacing:0px;word-spacing:0px;fill:#000000;fill-opacity:1;stroke:none;font-family:Sans"
       d="m 103.62109,61.27352 -4.016598,4.03418 4.016598,4.0166 -1.0459,1.06347 -4.034174,-4.03418 -4.03418,4.03418 -1.037109,-1.06347 4.007812,-4.0166 -4.007812,-4.03418 1.037109,-1.06348 4.03418,4.03418 4.034174,-4.03418 1.0459,1.06348"
       id="path4660" />
    <path
       style="font-size:18px;font-style:normal;font-weight:normal;line-height:125%;letter-spacing:0px;word-spacing:0px;fill:#000000;fill-opacity:1;stroke:none;font-family:Sans"
       d="m 143.62109,61.27352 -4.0166,4.03418 4.0166,4.0166 -1.0459,1.06347 -4.03417,-4.03418 -4.03418,4.03418 -1.03711,-1.06347 4.00781,-4.0166 -4.00781,-4.03418 1.03711,-1.06348 4.03418,4.03418 4.03417,-4.03418 1.0459,1.06348"
       id="path4663" />
    <path
       style="font-size:18px;font-style:normal;font-weight:normal;line-height:125%;letter-spacing:0px;word-spacing:0px;fill:#000000;fill-opacity:1;stroke:none;font-family:Sans"
       d="m 183.62109,61.27352 -4.0166,4.03418 4.0166,4.0166 -1.0459,1.06347 -4.03417,-4.03418 -4.03418,4.03418 -1.03711,-1.06347 4.00781,-4.0166 -4.00781,-4.03418 1.03711,-1.06348 4.03418,4.03418 4.03417,-4.03418 1.0459,1.06348"
       id="path4666" />
    <path
       style="font-size:18px;font-style:normal;font-weight:normal;line-height:125%;letter-spacing:0px;word-spacing:0px;fill:#000000;fill-opacity:1;stroke:none;font-family:Sans"
       d="m 223.62109,61.27352 -4.0166,4.03418 4.0166,4.0166 -1.0459,1.06347 -4.03417,-4.03418 -4.03418,4.03418 -1.03711,-1.06347 4.00781,-4.0166 -4.00781,-4.03418 1.03711,-1.06348 4.03418,4.03418 4.03417,-4.03418 1.0459,1.06348"
       id="path4669" />
    <path
       style="font-size:18px;font-style:normal;font-weight:normal;line-height:125%;letter-spacing:0px;word-spacing:0px;fill:#000000;fill-opacity:1;stroke:none;font-family:Sans"
       d="m 263.62109,61.27352 -4.0166,4.03418 4.0166,4.0166 -1.0459,1.06347 -4.03417,-4.03418 -4.03418,4.03418 -1.03711,-1.06347 4.00781,-4.0166 -4.00781,-4.03418 1.03711,-1.06348 4.03418,4.03418 4.03417,-4.03418 1.0459,1.06348"
       id="path4672" />
    <path
       style="font-size:medium;font-style:normal;font-variant:normal;font-weight:normal;font-stretch:normal;text-indent:0;text-align:start;text-decoration:none;line-height:normal;letter-spacing:normal;word-spacing:normal;text-transform:none;direction:ltr;block-progression:tb;writing-mode:lr-tb;text-anchor:start;baseline-shift:baseline;color:#000000;fill:#000000;fill-opacity:1;stroke:none;stroke-width:1;marker:none;visibility:visible;display:inline;overflow:visible;enable-background:accumulate;font-family:Sans;-inkscape-font-specification:Sans"
       d="M 61 46.5 C 58.045508 46.5 55.265904 48.124537 52.8125 50.96875 C 50.359096 53.812963 48.196517 57.897079 46.375 62.90625 C 42.731966 72.924593 40.5 86.716209 40.5 102 L 40.5 106 C 40.5 121.28379 42.731966 135.07541 46.375 145.09375 C 48.196517 150.10292 50.359096 154.18704 52.8125 157.03125 C 55.265904 159.87546 58.045508 161.5 61 161.5 L 257 161.5 C 259.95449 161.5 262.7341 159.87546 265.1875 157.03125 C 267.6409 154.18704 269.80348 150.10292 271.625 145.09375 C 275.26803 135.07541 277.5 121.28379 277.5 106 L 277.5 102 C 277.5 86.716209 275.26803 72.924593 271.625 62.90625 C 269.80348 57.897079 267.6409 53.812963 265.1875 50.96875 C 262.7341 48.124537 259.95449 46.5 257 46.5 L 61 46.5 z M 61 47.5 L 257 47.5 C 259.58551 47.5 262.0709 48.917651 264.40625 51.625 C 266.7416 54.332349 268.89402 58.317921 270.6875 63.25 C 274.27447 73.114157 276.5 86.813791 276.5 102 L 276.5 106 C 276.5 121.18621 274.27447 134.88584 270.6875 144.75 C 268.89402 149.68208 266.7416 153.66765 264.40625 156.375 C 262.0709 159.08235 259.58551 160.5 257 160.5 L 61 160.5 C 58.414492 160.5 55.929096 159.08235 53.59375 156.375 C 51.258404 153.66765 49.105983 149.68208 47.3125 144.75 C 43.725534 134.88584 41.5 121.18621 41.5 106 L 41.5 102 C 41.5 86.813791 43.725534 73.114157 47.3125 63.25 C 49.105983 58.317921 51.258404 54.332349 53.59375 51.625 C 55.929096 48.917651 58.414492 47.5 61 47.5 z "
       id="path4790" />
  </g>
</svg>
