<?xml version="1.0" encoding="UTF-8" standalone="no"?>
<!-- Created with Inkscape (http://www.inkscape.org/) -->

<svg
   xmlns:dc="http://purl.org/dc/elements/1.1/"
   xmlns:cc="http://creativecommons.org/ns#"
   xmlns:rdf="http://www.w3.org/1999/02/22-rdf-syntax-ns#"
   xmlns:svg="http://www.w3.org/2000/svg"
   xmlns="http://www.w3.org/2000/svg"
   xmlns:sodipodi="http://sodipodi.sourceforge.net/DTD/sodipodi-0.dtd"
   xmlns:inkscape="http://www.inkscape.org/namespaces/inkscape"
   width="320"
   height="170"
   id="svg2"
   version="1.1"
   inkscape:version="0.48.0 r9654"
   sodipodi:docname="2011-(02)feb-09, 04.svg">
  <defs
     id="defs4" />
  <sodipodi:namedview
     id="base"
     pagecolor="#ffffff"
     bordercolor="#666666"
     borderopacity="1.0"
     inkscape:pageopacity="0.0"
     inkscape:pageshadow="2"
     inkscape:zoom="1.2429611"
     inkscape:cx="150.71037"
     inkscape:cy="186.11575"
     inkscape:document-units="px"
     inkscape:current-layer="layer1"
     showgrid="false"
     inkscape:window-width="1589"
     inkscape:window-height="1117"
     inkscape:window-x="1600"
     inkscape:window-y="27"
     inkscape:window-maximized="1"
     showguides="true"
     inkscape:guide-bbox="true" />
  <metadata
     id="metadata7">
    <rdf:RDF>
      <cc:Work
         rdf:about="">
        <dc:format>image/svg+xml</dc:format>
        <dc:type
           rdf:resource="http://purl.org/dc/dcmitype/StillImage" />
        <dc:title />
      </cc:Work>
    </rdf:RDF>
  </metadata>
  <g
     inkscape:label="Layer 1"
     inkscape:groupmode="layer"
     id="layer1">
    <path
       style="font-size:22px;font-style:normal;font-weight:normal;line-height:125%;letter-spacing:0px;word-spacing:0px;fill:#000000;fill-opacity:1;stroke:none;font-family:Sans"
       d="m 14.2235,10.300181 2.331054,0 3.985352,5.961915 4.006836,-5.961915 2.331055,0 -5.15625,7.702149 5.5,8.335938 -2.331055,0 -4.511719,-6.82129 -4.543945,6.82129 -2.341797,0 5.725586,-8.561524 -4.995117,-7.476563"
       id="path3068" />
    <path
       style="font-size:medium;font-style:normal;font-variant:normal;font-weight:normal;font-stretch:normal;text-indent:0;text-align:start;text-decoration:none;line-height:normal;letter-spacing:normal;word-spacing:normal;text-transform:none;direction:ltr;block-progression:tb;writing-mode:lr-tb;text-anchor:start;baseline-shift:baseline;color:#000000;fill:#000000;fill-opacity:1;stroke:none;stroke-width:1;marker:none;visibility:visible;display:inline;overflow:visible;enable-background:accumulate;font-family:Sans;-inkscape-font-specification:Sans"
       d="M 159.3125 4.5625 C 116.36536 4.5625 77.47228 13.508067 49.28125 27.96875 C 21.09022 42.429433 3.53125 62.461026 3.53125 84.71875 C 3.53125 106.97648 21.09022 127.03932 49.28125 141.5 C 77.47228 155.96068 116.36536 164.875 159.3125 164.875 C 202.25964 164.875 241.12147 155.96068 269.3125 141.5 C 297.50353 127.03932 315.0625 106.97648 315.0625 84.71875 C 315.0625 62.461026 297.50353 42.429433 269.3125 27.96875 C 241.12147 13.508067 202.25964 4.5625 159.3125 4.5625 z M 159.3125 5.5625 C 202.12103 5.5625 240.86776 14.477344 268.875 28.84375 C 296.88224 43.210156 314.0625 62.987819 314.0625 84.71875 C 314.0625 106.44968 296.88224 126.22734 268.875 140.59375 C 240.86776 154.96016 202.12103 163.875 159.3125 163.875 C 116.50397 163.875 77.725987 154.96016 49.71875 140.59375 C 21.711513 126.22734 4.53125 106.44968 4.53125 84.71875 C 4.53125 62.987819 21.711513 43.210156 49.71875 28.84375 C 77.725987 14.477344 116.50397 5.5625 159.3125 5.5625 z "
       id="path6171" />
    <path
       style="font-size:medium;font-style:normal;font-variant:normal;font-weight:normal;font-stretch:normal;text-indent:0;text-align:start;text-decoration:none;line-height:normal;letter-spacing:normal;word-spacing:normal;text-transform:none;direction:ltr;block-progression:tb;writing-mode:lr-tb;text-anchor:start;baseline-shift:baseline;color:#000000;fill:#000000;fill-opacity:1;stroke:none;stroke-width:1px;marker:none;visibility:visible;display:inline;overflow:visible;enable-background:accumulate;font-family:Sans;-inkscape-font-specification:Sans"
       d="m 85.15625,14.75 -0.9375,0.34375 c 8.697667,23.893589 9.095745,58.810096 7.3125,87.71875 -1.783245,28.90865 -5.75,51.8125 -5.75,51.8125 l 1,0.1875 c 0,0 3.963141,-22.97025 5.75,-51.9375 1.786859,-28.967249 1.42587,-63.947899 -7.375,-88.125 z"
       id="path3014" />
    <path
       style="font-size:medium;font-style:normal;font-variant:normal;font-weight:normal;font-stretch:normal;text-indent:0;text-align:start;text-decoration:none;line-height:normal;letter-spacing:normal;word-spacing:normal;text-transform:none;direction:ltr;block-progression:tb;writing-mode:lr-tb;text-anchor:start;baseline-shift:baseline;color:#000000;fill:#000000;fill-opacity:1;stroke:none;stroke-width:1px;marker:none;visibility:visible;display:inline;overflow:visible;enable-background:accumulate;font-family:Sans;-inkscape-font-specification:Sans"
       d="m 92.03125,55.6875 -0.21875,0.96875 c 101.35955,24.486861 128.34375,101.25 128.34375,101.25 l 0.96875,-0.34375 c 0,0 -27.30937,-77.285507 -129.09375,-101.875 z"
       id="path3016" />
    <path
       style="font-size:medium;font-style:normal;font-variant:normal;font-weight:normal;font-stretch:normal;text-indent:0;text-align:start;text-decoration:none;line-height:normal;letter-spacing:normal;word-spacing:normal;text-transform:none;direction:ltr;block-progression:tb;writing-mode:lr-tb;text-anchor:start;baseline-shift:baseline;color:#000000;fill:#000000;fill-opacity:1;stroke:none;stroke-width:1px;marker:none;visibility:visible;display:inline;overflow:visible;enable-background:accumulate;font-family:Sans;-inkscape-font-specification:Sans"
       d="m 255.625,22.125 c -19.37012,33.32063 -40.29806,51.349975 -56.34375,61.0625 -16.04569,9.712525 -27.1875,11.09375 -27.1875,11.09375 l 0.125,1 c 0,0 11.40794,-1.452663 27.59375,-11.25 16.18581,-9.797337 37.20778,-27.950858 56.65625,-61.40625 l -0.84375,-0.5 z"
       id="path3018" />
    <path
       style="font-size:medium;font-style:normal;font-variant:normal;font-weight:normal;font-stretch:normal;text-indent:0;text-align:start;text-decoration:none;line-height:normal;letter-spacing:normal;word-spacing:normal;text-transform:none;direction:ltr;block-progression:tb;writing-mode:lr-tb;text-anchor:start;baseline-shift:baseline;color:#000000;fill:#000000;fill-opacity:1;stroke:none;stroke-width:1px;marker:none;visibility:visible;display:inline;overflow:visible;enable-background:accumulate;font-family:Sans;-inkscape-font-specification:Sans"
       d="m 219.375,68.65625 -0.65625,0.75 c 15.58794,13.664751 38.29607,22.521347 57.125,28 18.82893,5.47865 33.78125,7.5625 33.78125,7.5625 L 309.75,104 c 0,0 -14.86728,-2.07332 -33.625,-7.53125 -18.75772,-5.457934 -41.36352,-14.324351 -56.75,-27.8125 z"
       id="path3020" />
    <path
       style="color:#000000;fill:#000000;fill-opacity:1;stroke:none;stroke-width:1;marker:none;visibility:visible;display:inline;overflow:visible;enable-background:accumulate"
       d="m 50.062224,61.342223 c 0,0.942566 -0.764101,1.706667 -1.706667,1.706667 -0.942566,0 -1.706667,-0.764101 -1.706667,-1.706667 0,-0.942566 0.764101,-1.706666 1.706667,-1.706666 0.942566,0 1.706667,0.7641 1.706667,1.706666"
       id="path3022" />
    <path
       style="color:#000000;fill:#000000;fill-opacity:1;stroke:none;stroke-width:1;marker:none;visibility:visible;display:inline;overflow:visible;enable-background:accumulate"
       d="m 28.444445,92.915555 c 0,0.942566 -0.764101,1.706667 -1.706667,1.706667 -0.942566,0 -1.706667,-0.764101 -1.706667,-1.706667 0,-0.942566 0.764101,-1.706666 1.706667,-1.706666 0.942566,0 1.706667,0.7641 1.706667,1.706666 z"
       id="path3022-4" />
    <path
       style="color:#000000;fill:#000000;fill-opacity:1;stroke:none;stroke-width:1;marker:none;visibility:visible;display:inline;overflow:visible;enable-background:accumulate"
       d="m 69.688889,101.73333 c 0,0.94257 -0.764101,1.70667 -1.706667,1.70667 -0.942566,0 -1.706667,-0.7641 -1.706667,-1.70667 0,-0.94256 0.764101,-1.70666 1.706667,-1.70666 0.942566,0 1.706667,0.7641 1.706667,1.70666 z"
       id="path3022-3" />
    <path
       style="color:#000000;fill:#000000;fill-opacity:1;stroke:none;stroke-width:1;marker:none;visibility:visible;display:inline;overflow:visible;enable-background:accumulate"
       d="m 142.22222,131.88444 c 0,0.94257 -0.7641,1.70667 -1.70666,1.70667 -0.94257,0 -1.70667,-0.7641 -1.70667,-1.70667 0,-0.94256 0.7641,-1.70666 1.70667,-1.70666 0.94256,0 1.70666,0.7641 1.70666,1.70666 z"
       id="path3022-1" />
    <path
       style="color:#000000;fill:#000000;fill-opacity:1;stroke:none;stroke-width:1;marker:none;visibility:visible;display:inline;overflow:visible;enable-background:accumulate"
       d="m 280.46222,69.875555 c 0,0.942566 -0.7641,1.706667 -1.70666,1.706667 -0.94257,0 -1.70667,-0.764101 -1.70667,-1.706667 0,-0.942566 0.7641,-1.706666 1.70667,-1.706666 0.94256,0 1.70666,0.7641 1.70666,1.706666 z"
       id="path3022-49" />
    <path
       style="color:#000000;fill:#000000;fill-opacity:1;stroke:none;stroke-width:1;marker:none;visibility:visible;display:inline;overflow:visible;enable-background:accumulate"
       d="m 212.19555,110.83556 c 0,0.94256 -0.7641,1.70666 -1.70666,1.70666 -0.94257,0 -1.70667,-0.7641 -1.70667,-1.70666 0,-0.94257 0.7641,-1.70667 1.70667,-1.70667 0.94256,0 1.70666,0.7641 1.70666,1.70667 z"
       id="path3022-2" />
    <path
       style="color:#000000;fill:#000000;fill-opacity:1;stroke:none;stroke-width:1;marker:none;visibility:visible;display:inline;overflow:visible;enable-background:accumulate"
       d="m 271.92889,123.35111 c 0,0.94257 -0.76411,1.70667 -1.70667,1.70667 -0.94257,0 -1.70667,-0.7641 -1.70667,-1.70667 0,-0.94256 0.7641,-1.70667 1.70667,-1.70667 0.94256,0 1.70667,0.76411 1.70667,1.70667 z"
       id="path3022-0" />
    <path
       style="color:#000000;fill:#000000;fill-opacity:1;stroke:none;stroke-width:1;marker:none;visibility:visible;display:inline;overflow:visible;enable-background:accumulate"
       d="m 113.77778,34.604444 c 0,0.942566 -0.7641,1.706667 -1.70667,1.706667 -0.94256,0 -1.70667,-0.764101 -1.70667,-1.706667 0,-0.942566 0.7641,-1.706666 1.70667,-1.706666 0.94257,0 1.70667,0.7641 1.70667,1.706666 z"
       id="path3022-6" />
    <path
       style="color:#000000;fill:#000000;fill-opacity:1;stroke:none;stroke-width:1;marker:none;visibility:visible;display:inline;overflow:visible;enable-background:accumulate"
       d="m 203.94668,50.248889 c 0,0.942566 -0.7641,1.706667 -1.70666,1.706667 -0.94257,0 -1.70667,-0.764101 -1.70667,-1.706667 0,-0.942566 0.7641,-1.706666 1.70667,-1.706666 0.94256,0 1.70666,0.7641 1.70666,1.706666 z"
       id="path3022-8" />
    <path
       style="font-size:medium;font-style:normal;font-variant:normal;font-weight:normal;font-stretch:normal;text-indent:0;text-align:start;text-decoration:none;line-height:normal;letter-spacing:normal;word-spacing:normal;text-transform:none;direction:ltr;block-progression:tb;writing-mode:lr-tb;text-anchor:start;baseline-shift:baseline;color:#000000;fill:#000000;fill-opacity:1;stroke:none;stroke-width:1;marker:none;visibility:visible;display:inline;overflow:visible;enable-background:accumulate;font-family:Sans;-inkscape-font-specification:Sans"
       d="m 50.907073,37.992007 c -4.414795,-0.614048 -8.980746,1.416973 -11.408834,5.478052 -3.237451,5.414773 -1.476009,12.427058 3.938764,15.664509 l 0.769644,-1.222375 c -4.742769,-2.835666 -6.321699,-8.974995 -3.486033,-13.717764 2.835664,-4.742767 8.974997,-6.276423 13.717765,-3.440759 4.742769,2.835665 6.276425,8.974997 3.440759,13.717764 -0.939804,1.571861 -2.273646,2.812677 -3.893491,3.667125 l 0.679098,1.312921 c 1.854667,-0.978315 3.405998,-2.455945 4.482041,-4.255676 3.237454,-5.414771 1.430736,-12.472332 -3.984037,-15.709783 -1.353693,-0.809362 -2.784077,-1.289331 -4.255676,-1.494014 z"
       id="path3859" />
    <path
       style="font-size:medium;font-style:normal;font-variant:normal;font-weight:normal;font-stretch:normal;text-indent:0;text-align:start;text-decoration:none;line-height:normal;letter-spacing:normal;word-spacing:normal;text-transform:none;direction:ltr;block-progression:tb;writing-mode:lr-tb;text-anchor:start;baseline-shift:baseline;color:#000000;fill:#000000;fill-opacity:1;stroke:none;stroke-width:0;marker:none;visibility:visible;display:inline;overflow:visible;enable-background:accumulate;font-family:Sans;-inkscape-font-specification:Sans"
       d="m 41.40625,58.71875 c -0.0057,0.0033 0,0.03125 0,0.03125 l 0.0625,0.0625 c 0.03344,0.0048 0.127655,0.02034 0.25,0.09375 0.24469,0.146814 0.696943,0.509443 1.5,1.3125 l 0.0625,-0.0625 c -0.806004,-0.806004 -1.273109,-1.157615 -1.53125,-1.3125 -0.129071,-0.07744 -0.195443,-0.117206 -0.25,-0.125 -0.02728,-0.0039 -0.04594,-0.0045 -0.0625,0 -0.0083,0.0023 -0.02555,-0.0033 -0.03125,0 z"
       id="path3861" />
    <path
       style="font-size:12px;fill-rule:evenodd;stroke-width:0.625;stroke-linejoin:round"
       d="m 41.433315,58.773675 0,0 0,0 c 0,0 0,0 0,0 z"
       id="path5978" />
    <path
       style="font-size:medium;font-style:normal;font-variant:normal;font-weight:normal;font-stretch:normal;text-indent:0;text-align:start;text-decoration:none;line-height:normal;letter-spacing:normal;word-spacing:normal;text-transform:none;direction:ltr;block-progression:tb;writing-mode:lr-tb;text-anchor:start;baseline-shift:baseline;color:#000000;fill:#000000;fill-opacity:1;stroke:none;stroke-width:1px;marker:none;visibility:visible;display:inline;overflow:visible;enable-background:accumulate;font-family:Sans;-inkscape-font-specification:Sans"
       d="m 42.96875,56.9375 -0.75,0.65625 c 0,0 0.901757,0.995905 2,2.34375 L 45,59.3125 c -1.114213,-1.367445 -2.03125,-2.375 -2.03125,-2.375 z"
       id="path4669" />
    <path
       style="font-size:12px;fill-rule:evenodd;stroke-width:0.625;stroke-linejoin:round"
       d="m 41.303869,48.541036 4.165586,12.108812 -11.017882,-6.525467 c 3.235638,-0.159713 5.996186,-2.423316 6.852296,-5.583345 z"
       id="path5970" />
    <path
       style="font-size:medium;font-style:normal;font-variant:normal;font-weight:normal;font-stretch:normal;text-indent:0;text-align:start;text-decoration:none;line-height:normal;letter-spacing:normal;word-spacing:normal;text-transform:none;direction:ltr;block-progression:tb;writing-mode:lr-tb;text-anchor:start;baseline-shift:baseline;color:#000000;fill:#000000;fill-opacity:1;stroke:none;stroke-width:1;marker:none;visibility:visible;display:inline;overflow:visible;enable-background:accumulate;font-family:Sans;-inkscape-font-specification:Sans"
       d="m 12.393804,107.28101 c 2.910059,3.37625 7.680177,4.86585 12.185208,3.41924 6.006711,-1.9288 9.314085,-8.35812 7.385279,-14.364828 l -1.385139,0.409808 c 1.68943,5.26124 -1.178598,10.91446 -6.439842,12.60389 -5.261241,1.68943 -10.884561,-1.21261 -12.573991,-6.47385 -1.689431,-5.26124 1.2126,-10.884558 6.473842,-12.573988 1.743695,-0.559915 3.564724,-0.611031 5.345422,-0.183138 l 0.356921,-1.434414 c -2.03884,-0.489923 -4.179572,-0.404567 -6.176045,0.23652 -6.006711,1.928804 -9.3099801,8.422017 -7.381173,14.42873 0.482202,1.50167 1.239498,2.80661 2.209518,3.93203 z"
       id="path3859-4" />
    <path
       style="font-size:medium;font-style:normal;font-variant:normal;font-weight:normal;font-stretch:normal;text-indent:0;text-align:start;text-decoration:none;line-height:normal;letter-spacing:normal;word-spacing:normal;text-transform:none;direction:ltr;block-progression:tb;writing-mode:lr-tb;text-anchor:start;baseline-shift:baseline;color:#000000;fill:#000000;fill-opacity:1;stroke:none;stroke-width:1px;marker:none;visibility:visible;display:inline;overflow:visible;enable-background:accumulate;font-family:Sans;-inkscape-font-specification:Sans"
       d="m 30.90625,95.15625 c -0.06615,1.762673 -0.0625,3.125 -0.0625,3.125 l 1,0 c 0,0 -0.0027,-1.356343 0.0625,-3.09375 l -1,-0.03125 z"
       id="path4669-8" />
    <path
       style="font-size:12px;fill-rule:evenodd;stroke-width:0.625;stroke-linejoin:round"
       d="m 26.571339,105.69968 4.867127,-11.844264 3.965641,12.175764 c -2.535421,-2.01656 -6.103255,-2.13939 -8.832768,-0.3315 z"
       id="path5962" />
    <path
       style="font-size:medium;font-style:normal;font-variant:normal;font-weight:normal;font-stretch:normal;text-indent:0;text-align:start;text-decoration:none;line-height:normal;letter-spacing:normal;word-spacing:normal;text-transform:none;direction:ltr;block-progression:tb;writing-mode:lr-tb;text-anchor:start;baseline-shift:baseline;color:#000000;fill:#000000;fill-opacity:1;stroke:none;stroke-width:1;marker:none;visibility:visible;display:inline;overflow:visible;enable-background:accumulate;font-family:Sans;-inkscape-font-specification:Sans"
       d="m 78.330764,124.26885 c 4.161233,-1.59738 7.175697,-5.5831 7.337205,-10.31193 0.215343,-6.30512 -4.717384,-11.59124 -11.0225,-11.80658 l -0.08257,1.44213 c 5.522616,0.18862 9.873454,4.79889 9.684835,10.3215 -0.188617,5.52262 -4.820784,9.83383 -10.343398,9.64521 -5.522615,-0.18862 -9.833825,-4.82078 -9.645207,-10.3434 0.06251,-1.83032 0.630013,-3.56142 1.634688,-5.09263 l -1.229307,-0.82081 c -1.150318,1.75318 -1.793671,3.79674 -1.865244,5.89239 -0.215346,6.30512 4.778905,11.60897 11.08402,11.82431 1.576279,0.0538 3.060401,-0.21773 4.447479,-0.75019 z"
       id="path3859-3" />
    <path
       style="font-size:medium;font-style:normal;font-variant:normal;font-weight:normal;font-stretch:normal;text-indent:0;text-align:start;text-decoration:none;line-height:normal;letter-spacing:normal;word-spacing:normal;text-transform:none;direction:ltr;block-progression:tb;writing-mode:lr-tb;text-anchor:start;baseline-shift:baseline;color:#000000;fill:#000000;fill-opacity:1;stroke:none;stroke-width:1px;marker:none;visibility:visible;display:inline;overflow:visible;enable-background:accumulate;font-family:Sans;-inkscape-font-specification:Sans"
       d="m 73.5625,101.8125 -0.375,0.9375 c 1.636536,0.65814 2.9375,1.09375 2.9375,1.09375 l 0.3125,-0.9375 c 0,0 -1.261922,-0.44505 -2.875,-1.09375 z"
       id="path4669-0" />
    <path
       style="font-size:12px;fill-rule:evenodd;stroke-width:0.625;stroke-linejoin:round"
       d="m 81.635319,110.39142 -9.501605,-8.58458 12.799534,0.38389 c -2.754942,1.70445 -4.07666,5.02071 -3.297929,8.20069 z"
       id="path5954" />
    <path
       style="font-size:medium;font-style:normal;font-variant:normal;font-weight:normal;font-stretch:normal;text-indent:0;text-align:start;text-decoration:none;line-height:normal;letter-spacing:normal;word-spacing:normal;text-transform:none;direction:ltr;block-progression:tb;writing-mode:lr-tb;text-anchor:start;baseline-shift:baseline;color:#000000;fill:#000000;fill-opacity:1;stroke:none;stroke-width:1;marker:none;visibility:visible;display:inline;overflow:visible;enable-background:accumulate;font-family:Sans;-inkscape-font-specification:Sans"
       d="m 93.622129,24.245259 c -2.404837,3.752897 -2.470488,8.74976 0.202159,12.654236 3.563531,5.205969 10.669532,6.539997 15.875492,2.976466 l -0.78822,-1.210474 c -4.55988,3.121276 -10.796643,1.986716 -13.917918,-2.573163 -3.121276,-4.559877 -1.945593,-10.777696 2.614284,-13.898972 4.559874,-3.121276 10.777694,-1.945594 13.898974,2.614284 1.03446,1.511247 1.60338,3.241879 1.70172,5.070624 l 1.47661,-0.06748 c -0.11259,-2.093853 -0.80561,-4.121103 -1.99004,-5.851431 -3.56353,-5.20597 -10.72959,-6.51782 -15.935555,-2.954289 -1.301492,0.890883 -2.335894,1.989237 -3.137506,3.240203 z"
       id="path3859-47" />
    <path
       style="font-size:medium;font-style:normal;font-variant:normal;font-weight:normal;font-stretch:normal;text-indent:0;text-align:start;text-decoration:none;line-height:normal;letter-spacing:normal;word-spacing:normal;text-transform:none;direction:ltr;block-progression:tb;writing-mode:lr-tb;text-anchor:start;baseline-shift:baseline;color:#000000;fill:#000000;fill-opacity:1;stroke:none;stroke-width:1px;marker:none;visibility:visible;display:inline;overflow:visible;enable-background:accumulate;font-family:Sans;-inkscape-font-specification:Sans"
       d="M 110.53125,38.53125 C 108.82307,38.971125 107.5,39.375 107.5,39.375 l 0.3125,0.9375 c 0,0 1.28505,-0.378929 2.96875,-0.8125 l -0.25,-0.96875 z"
       id="path4669-6" />
    <path
       style="font-size:12px;fill-rule:evenodd;stroke-width:0.625;stroke-linejoin:round"
       d="m 99.185542,37.381174 12.740878,1.28276 -10.53665,7.276976 c 1.2087,-3.005645 0.30773,-6.460031 -2.204228,-8.559736 z"
       id="path5946" />
    <path
       style="font-size:medium;font-style:normal;font-variant:normal;font-weight:normal;font-stretch:normal;text-indent:0;text-align:start;text-decoration:none;line-height:normal;letter-spacing:normal;word-spacing:normal;text-transform:none;direction:ltr;block-progression:tb;writing-mode:lr-tb;text-anchor:start;baseline-shift:baseline;color:#000000;fill:#000000;fill-opacity:1;stroke:none;stroke-width:1;marker:none;visibility:visible;display:inline;overflow:visible;enable-background:accumulate;font-family:Sans;-inkscape-font-specification:Sans"
       d="m 220.76793,63.279067 c 2.8459,-3.430497 3.52238,-8.381793 1.34749,-12.583911 -2.89987,-5.602827 -9.78928,-7.796184 -15.39211,-4.896323 l 0.63422,1.297814 c 4.90749,-2.539972 10.95859,-0.650928 13.49857,4.256557 2.53997,4.907482 0.61243,10.934761 -4.29506,13.474733 -4.90748,2.539973 -10.93476,0.612432 -13.47473,-4.295051 -0.8418,-1.626451 -1.19472,-3.413686 -1.06859,-5.240724 l -1.47378,-0.113671 c -0.14441,2.091898 0.29538,4.188704 1.25922,6.050937 2.89986,5.602827 9.8516,7.781522 15.45443,4.881659 1.4007,-0.724966 2.56171,-1.68852 3.51034,-2.83202 z"
       id="path3859-7" />
    <path
       style="font-size:medium;font-style:normal;font-variant:normal;font-weight:normal;font-stretch:normal;text-indent:0;text-align:start;text-decoration:none;line-height:normal;letter-spacing:normal;word-spacing:normal;text-transform:none;direction:ltr;block-progression:tb;writing-mode:lr-tb;text-anchor:start;baseline-shift:baseline;color:#000000;fill:#000000;fill-opacity:1;stroke:none;stroke-width:1px;marker:none;visibility:visible;display:inline;overflow:visible;enable-background:accumulate;font-family:Sans;-inkscape-font-specification:Sans"
       d="m 208.65625,45.59375 c 0,0 -1.30716,0.213171 -3.03125,0.4375 l 0.125,1 c 1.74917,-0.227591 3.09375,-0.46875 3.09375,-0.46875 l -0.1875,-0.96875 z"
       id="path4669-5" />
    <path
       style="font-size:12px;fill-rule:evenodd;stroke-width:0.625;stroke-linejoin:round"
       d="m 216.85336,49.5612 -12.48823,-2.831852 11.34777,-5.933252 c -1.56734,2.835194 -1.09575,6.373856 1.14046,8.765104 z"
       id="path5938" />
    <path
       style="font-size:medium;font-style:normal;font-variant:normal;font-weight:normal;font-stretch:normal;text-indent:0;text-align:start;text-decoration:none;line-height:normal;letter-spacing:normal;word-spacing:normal;text-transform:none;direction:ltr;block-progression:tb;writing-mode:lr-tb;text-anchor:start;baseline-shift:baseline;color:#000000;fill:#000000;fill-opacity:1;stroke:none;stroke-width:1;marker:none;visibility:visible;display:inline;overflow:visible;enable-background:accumulate;font-family:Sans;-inkscape-font-specification:Sans"
       d="m 279.21484,48.360976 c -4.41479,-0.614048 -8.98074,1.416973 -11.40883,5.478052 -3.23745,5.414773 -1.47601,12.427058 3.93876,15.664509 l 0.76965,-1.222375 c -4.74277,-2.835666 -6.3217,-8.974995 -3.48604,-13.717764 2.83567,-4.742767 8.975,-6.276423 13.71777,-3.440759 4.74277,2.835665 6.27642,8.974997 3.44076,13.717764 -0.93981,1.571861 -2.27365,2.812677 -3.89349,3.667125 l 0.67909,1.312921 c 1.85467,-0.978315 3.406,-2.455945 4.48205,-4.255676 3.23745,-5.414771 1.43073,-12.472332 -3.98404,-15.709783 -1.35369,-0.809362 -2.78408,-1.289331 -4.25568,-1.494014 z"
       id="path3859-1" />
    <path
       style="font-size:medium;font-style:normal;font-variant:normal;font-weight:normal;font-stretch:normal;text-indent:0;text-align:start;text-decoration:none;line-height:normal;letter-spacing:normal;word-spacing:normal;text-transform:none;direction:ltr;block-progression:tb;writing-mode:lr-tb;text-anchor:start;baseline-shift:baseline;color:#000000;fill:#000000;fill-opacity:1;stroke:none;stroke-width:1px;marker:none;visibility:visible;display:inline;overflow:visible;enable-background:accumulate;font-family:Sans;-inkscape-font-specification:Sans"
       d="m 271.28125,67.3125 -0.75,0.65625 c 0,0 0.90176,0.995905 2,2.34375 l 0.78125,-0.625 c -1.11422,-1.367445 -2.03125,-2.375 -2.03125,-2.375 z"
       id="path4669-7" />
    <path
       style="font-size:12px;fill-rule:evenodd;stroke-width:0.625;stroke-linejoin:round"
       d="m 269.61163,58.910008 4.1656,12.108808 -11.01789,-6.525457 c 3.23564,-0.159716 5.99618,-2.423322 6.85229,-5.583351 z"
       id="path5930" />
    <path
       style="font-size:medium;font-style:normal;font-variant:normal;font-weight:normal;font-stretch:normal;text-indent:0;text-align:start;text-decoration:none;line-height:normal;letter-spacing:normal;word-spacing:normal;text-transform:none;direction:ltr;block-progression:tb;writing-mode:lr-tb;text-anchor:start;baseline-shift:baseline;color:#000000;fill:#000000;fill-opacity:1;stroke:none;stroke-width:1;marker:none;visibility:visible;display:inline;overflow:visible;enable-background:accumulate;font-family:Sans;-inkscape-font-specification:Sans"
       d="m 141.54373,109.23209 c -4.4148,-0.61405 -8.98075,1.41697 -11.40883,5.47805 -3.23746,5.41477 -1.47601,12.42706 3.93876,15.66451 l 0.76964,-1.22238 c -4.74276,-2.83566 -6.3217,-8.97499 -3.48603,-13.71776 2.83567,-4.74277 8.975,-6.27643 13.71777,-3.44076 4.74276,2.83566 6.27642,8.975 3.44076,13.71776 -0.93981,1.57186 -2.27365,2.81268 -3.8935,3.66713 l 0.6791,1.31292 c 1.85467,-0.97832 3.406,-2.45595 4.48204,-4.25568 3.23746,-5.41477 1.43074,-12.47233 -3.98403,-15.70978 -1.3537,-0.80936 -2.78408,-1.28933 -4.25568,-1.49401 z"
       id="path3859-74" />
    <path
       style="font-size:medium;font-style:normal;font-variant:normal;font-weight:normal;font-stretch:normal;text-indent:0;text-align:start;text-decoration:none;line-height:normal;letter-spacing:normal;word-spacing:normal;text-transform:none;direction:ltr;block-progression:tb;writing-mode:lr-tb;text-anchor:start;baseline-shift:baseline;color:#000000;fill:#000000;fill-opacity:1;stroke:none;stroke-width:1px;marker:none;visibility:visible;display:inline;overflow:visible;enable-background:accumulate;font-family:Sans;-inkscape-font-specification:Sans"
       d="m 133.625,128.1875 -0.75,0.65625 c 0,0 0.90177,0.9959 2,2.34375 l 0.78125,-0.625 c -1.11421,-1.36745 -2.03125,-2.375 -2.03125,-2.375 z"
       id="path4669-1" />
    <path
       style="font-size:12px;fill-rule:evenodd;stroke-width:0.625;stroke-linejoin:round"
       d="m 131.94058,119.7811 4.16552,12.10883 -11.01784,-6.52552 c 3.23563,-0.1597 5.99619,-2.42329 6.85232,-5.58331 z"
       id="path5922" />
    <path
       style="font-size:medium;font-style:normal;font-variant:normal;font-weight:normal;font-stretch:normal;text-indent:0;text-align:start;text-decoration:none;line-height:normal;letter-spacing:normal;word-spacing:normal;text-transform:none;direction:ltr;block-progression:tb;writing-mode:lr-tb;text-anchor:start;baseline-shift:baseline;color:#000000;fill:#000000;fill-opacity:1;stroke:none;stroke-width:1;marker:none;visibility:visible;display:inline;overflow:visible;enable-background:accumulate;font-family:Sans;-inkscape-font-specification:Sans"
       d="m 196.2288,95.179055 c -3.53995,2.708545 -5.30476,7.383845 -4.12291,11.965455 1.57581,6.10882 7.80165,9.78493 13.91047,8.20912 l -0.32846,-1.40665 c -5.35069,1.38024 -10.82732,-1.81207 -12.20756,-7.16276 -1.38023,-5.35068 1.84428,-10.79549 7.19496,-12.175727 5.35069,-1.380237 10.7955,1.84428 12.17573,7.194957 0.45745,1.77334 0.40245,3.59426 -0.1284,5.34702 l 1.4112,0.43983 c 0.6078,-2.00685 0.64723,-4.14892 0.12347,-6.17934 -1.5758,-6.108818 -7.86567,-9.784541 -13.97449,-8.208737 -1.5272,0.393951 -2.87402,1.073983 -4.05401,1.976832 z"
       id="path3859-75" />
    <path
       style="font-size:medium;font-style:normal;font-variant:normal;font-weight:normal;font-stretch:normal;text-indent:0;text-align:start;text-decoration:none;line-height:normal;letter-spacing:normal;word-spacing:normal;text-transform:none;direction:ltr;block-progression:tb;writing-mode:lr-tb;text-anchor:start;baseline-shift:baseline;color:#000000;fill:#000000;fill-opacity:1;stroke:none;stroke-width:1px;marker:none;visibility:visible;display:inline;overflow:visible;enable-background:accumulate;font-family:Sans;-inkscape-font-specification:Sans"
       d="m 204.125,114.125 -0.0312,1 c 0,0 1.33184,0.0837 3.0625,0.25 l 0.0937,-1 c -1.75584,-0.16868 -3.125,-0.25 -3.125,-0.25 z"
       id="path4669-3" />
    <path
       style="font-size:12px;fill-rule:evenodd;stroke-width:0.625;stroke-linejoin:round"
       d="m 196.98201,109.42457 11.54077,5.54853 -12.38602,3.24995 c 2.16077,-2.4137 2.49114,-5.96833 0.84525,-8.79848 z"
       id="path5914" />
    <path
       style="font-size:medium;font-style:normal;font-variant:normal;font-weight:normal;font-stretch:normal;text-indent:0;text-align:start;text-decoration:none;line-height:normal;letter-spacing:normal;word-spacing:normal;text-transform:none;direction:ltr;block-progression:tb;writing-mode:lr-tb;text-anchor:start;baseline-shift:baseline;color:#000000;fill:#000000;fill-opacity:1;stroke:none;stroke-width:1;marker:none;visibility:visible;display:inline;overflow:visible;enable-background:accumulate;font-family:Sans;-inkscape-font-specification:Sans"
       d="m 290.22763,117.41876 c -0.81033,-4.38302 -4.1783,-8.07487 -8.79805,-9.09752 -6.15968,-1.36353 -12.25795,2.52053 -13.62149,8.68021 l 1.40278,0.34462 c 1.19431,-5.39522 6.52181,-8.83065 11.91704,-7.63633 5.39522,1.19431 8.78769,6.5361 7.59338,11.93132 -1.19432,5.39523 -6.5361,8.78769 -11.93133,7.59338 -1.7881,-0.39582 -3.3864,-1.27001 -4.70831,-2.5375 l -1.03157,1.05867 c 1.51354,1.45124 3.40518,2.45708 5.4525,2.91028 6.15968,1.36354 12.28662,-2.57777 13.65016,-8.73745 0.34088,-1.53992 0.345,-3.04867 0.0749,-4.50968 z"
       id="path3859-18" />
    <path
       style="font-size:medium;font-style:normal;font-variant:normal;font-weight:normal;font-stretch:normal;text-indent:0;text-align:start;text-decoration:none;line-height:normal;letter-spacing:normal;word-spacing:normal;text-transform:none;direction:ltr;block-progression:tb;writing-mode:lr-tb;text-anchor:start;baseline-shift:baseline;color:#000000;fill:#000000;fill-opacity:1;stroke:none;stroke-width:1px;marker:none;visibility:visible;display:inline;overflow:visible;enable-background:accumulate;font-family:Sans;-inkscape-font-specification:Sans"
       d="m 268.875,115.375 c 0,0 -0.66129,1.15757 -1.59375,2.625 l 0.84375,0.53125 c 0.94602,-1.48877 1.625,-2.65625 1.625,-2.65625 l -0.875,-0.5 z"
       id="path4669-9" />
    <path
       style="font-size:12px;fill-rule:evenodd;stroke-width:0.625;stroke-linejoin:round"
       d="m 277.18737,111.63468 -10.17585,7.77352 2.71561,-12.51403 c 1.1725,3.01995 4.19151,4.92523 7.46024,4.74051 z"
       id="path5906" />
    <path
       style="font-size:medium;font-style:normal;font-variant:normal;font-weight:normal;font-stretch:normal;text-indent:0;text-align:start;text-decoration:none;line-height:normal;letter-spacing:normal;word-spacing:normal;text-transform:none;direction:ltr;block-progression:tb;writing-mode:lr-tb;text-anchor:start;baseline-shift:baseline;color:#000000;fill:#000000;fill-opacity:1;stroke:none;stroke-width:1px;marker:none;visibility:visible;display:inline;overflow:visible;enable-background:accumulate;font-family:Sans;-inkscape-font-specification:Sans"
       d="m 45.96875,64.1875 -17.375,24.46875 0.8125,0.5625 17.375,-24.46875 -0.8125,-0.5625 z"
       id="path5339" />
    <path
       style="font-size:12px;fill-rule:evenodd;stroke-width:0.625;stroke-linejoin:round"
       d="m 38.817356,82.780715 -10.557972,7.24601 3.348439,-12.359749 c 1.017421,3.075665 3.935641,5.132001 7.209533,5.113739 z"
       id="path5896" />
    <path
       style="font-size:12px;fill-rule:evenodd;stroke-width:0.625;stroke-linejoin:round"
       d="M 36.560421,70.62373 47.118393,63.37772 43.769954,75.737469 C 42.752533,72.661804 39.834313,70.605468 36.560421,70.62373 z"
       id="path5898" />
    <path
       style="font-size:medium;font-style:normal;font-variant:normal;font-weight:normal;font-stretch:normal;text-indent:0;text-align:start;text-decoration:none;line-height:normal;letter-spacing:normal;word-spacing:normal;text-transform:none;direction:ltr;block-progression:tb;writing-mode:lr-tb;text-anchor:start;baseline-shift:baseline;color:#000000;fill:#000000;fill-opacity:1;stroke:none;stroke-width:1px;marker:none;visibility:visible;display:inline;overflow:visible;enable-background:accumulate;font-family:Sans;-inkscape-font-specification:Sans"
       d="m 50.375,63.96875 -0.90625,0.4375 16.78125,34.125 0.90625,-0.4375 -16.78125,-34.125 z"
       id="path5339-3" />
    <path
       style="font-size:12px;fill-rule:evenodd;stroke-width:0.625;stroke-linejoin:round"
       d="M 65.967229,86.768664 67.30398,99.50399 58.035135,90.66861 c 3.188717,0.571785 6.387486,-1.013271 7.932094,-3.899946 z"
       id="path5886" />
    <path
       style="font-size:12px;fill-rule:evenodd;stroke-width:0.625;stroke-linejoin:round"
       d="m 50.654994,75.738002 -1.336751,-12.735326 9.268845,8.83538 c -3.188717,-0.571785 -6.387486,1.013271 -7.932094,3.899946 z"
       id="path5888" />
    <path
       style="font-size:medium;font-style:normal;font-variant:normal;font-weight:normal;font-stretch:normal;text-indent:0;text-align:start;text-decoration:none;line-height:normal;letter-spacing:normal;word-spacing:normal;text-transform:none;direction:ltr;block-progression:tb;writing-mode:lr-tb;text-anchor:start;baseline-shift:baseline;color:#000000;fill:#000000;fill-opacity:1;stroke:none;stroke-width:1px;marker:none;visibility:visible;display:inline;overflow:visible;enable-background:accumulate;font-family:Sans;-inkscape-font-specification:Sans"
       d="M 31.28125,91.28125 31,92.25 l 33,9.40625 0.28125,-0.96875 -33,-9.40625 z"
       id="path5339-4" />
    <path
       style="font-size:12px;fill-rule:evenodd;stroke-width:0.625;stroke-linejoin:round"
       d="m 40.21502,98.970732 -10.350509,-7.53939 12.769083,-0.962268 c -2.560735,1.984313 -3.526918,5.421029 -2.418574,8.501658 z"
       id="path5876" />
    <path
       style="font-size:12px;fill-rule:evenodd;stroke-width:0.625;stroke-linejoin:round"
       d="m 55.073869,93.971488 10.350509,7.539392 -12.769083,0.96227 c 2.560735,-1.98432 3.526918,-5.421033 2.418574,-8.501662 z"
       id="path5878" />
    <path
       style="font-size:medium;font-style:normal;font-variant:normal;font-weight:normal;font-stretch:normal;text-indent:0;text-align:start;text-decoration:none;line-height:normal;letter-spacing:normal;word-spacing:normal;text-transform:none;direction:ltr;block-progression:tb;writing-mode:lr-tb;text-anchor:start;baseline-shift:baseline;color:#000000;fill:#000000;fill-opacity:1;stroke:none;stroke-width:1px;marker:none;visibility:visible;display:inline;overflow:visible;enable-background:accumulate;font-family:Sans;-inkscape-font-specification:Sans"
       d="m 116,34.125 -0.1875,0.96875 81.9375,15.0625 0.15625,-0.96875 L 116,34.125 z"
       id="path5339-2" />
    <path
       style="font-size:12px;fill-rule:evenodd;stroke-width:0.625;stroke-linejoin:round"
       d="m 125.62194,40.903125 -11.0201,-6.521713 12.61986,-2.1713 c -2.36059,2.218668 -2.99583,5.731644 -1.59976,8.693013 z"
       id="path5866" />
    <path
       style="font-size:12px;fill-rule:evenodd;stroke-width:0.625;stroke-linejoin:round"
       d="m 188.12028,43.38132 11.0201,6.521713 -12.61986,2.1713 c 2.36059,-2.218668 2.99583,-5.731644 1.59976,-8.693013 z"
       id="path5868" />
    <path
       style="font-size:medium;font-style:normal;font-variant:normal;font-weight:normal;font-stretch:normal;text-indent:0;text-align:start;text-decoration:none;line-height:normal;letter-spacing:normal;word-spacing:normal;text-transform:none;direction:ltr;block-progression:tb;writing-mode:lr-tb;text-anchor:start;baseline-shift:baseline;color:#000000;fill:#000000;fill-opacity:1;stroke:none;stroke-width:1px;marker:none;visibility:visible;display:inline;overflow:visible;enable-background:accumulate;font-family:Sans;-inkscape-font-specification:Sans"
       d="m 214.28125,111.625 -0.1875,0.96875 52.03125,11.09375 0.21875,-0.96875 -52.0625,-11.09375 z"
       id="path5339-2-1" />
    <path
       style="font-size:12px;fill-rule:evenodd;stroke-width:0.625;stroke-linejoin:round"
       d="m 223.71747,118.68346 -10.83332,-6.82749 12.67567,-1.81736 c -2.42174,2.15175 -3.15501,5.64558 -1.84235,8.64485 z"
       id="path5856" />
    <path
       style="font-size:12px;fill-rule:evenodd;stroke-width:0.625;stroke-linejoin:round"
       d="m 256.7092,116.64098 10.83332,6.82749 -12.67567,1.81736 c 2.42174,-2.15175 3.15501,-5.64558 1.84235,-8.64485 z"
       id="path5858" />
  </g>
</svg>
