<?xml version="1.0" encoding="UTF-8" standalone="no"?>
<!-- Created with Inkscape (http://www.inkscape.org/) -->

<svg
   xmlns:dc="http://purl.org/dc/elements/1.1/"
   xmlns:cc="http://creativecommons.org/ns#"
   xmlns:rdf="http://www.w3.org/1999/02/22-rdf-syntax-ns#"
   xmlns:svg="http://www.w3.org/2000/svg"
   xmlns="http://www.w3.org/2000/svg"
   xmlns:sodipodi="http://sodipodi.sourceforge.net/DTD/sodipodi-0.dtd"
   xmlns:inkscape="http://www.inkscape.org/namespaces/inkscape"
   width="180"
   height="120"
   id="svg2"
   version="1.1"
   inkscape:version="0.48.0 r9654"
   sodipodi:docname="2011-(02)feb-16, 08.svg">
  <defs
     id="defs4" />
  <sodipodi:namedview
     id="base"
     pagecolor="#ffffff"
     bordercolor="#666666"
     borderopacity="1.0"
     inkscape:pageopacity="0.0"
     inkscape:pageshadow="2"
     inkscape:zoom="1.4142136"
     inkscape:cx="20.802027"
     inkscape:cy="85.370761"
     inkscape:document-units="px"
     inkscape:current-layer="layer1"
     showgrid="false"
     inkscape:window-width="1589"
     inkscape:window-height="1117"
     inkscape:window-x="1600"
     inkscape:window-y="27"
     inkscape:window-maximized="1" />
  <metadata
     id="metadata7">
    <rdf:RDF>
      <cc:Work
         rdf:about="">
        <dc:format>image/svg+xml</dc:format>
        <dc:type
           rdf:resource="http://purl.org/dc/dcmitype/StillImage" />
        <dc:title />
      </cc:Work>
    </rdf:RDF>
  </metadata>
  <g
     inkscape:label="Layer 1"
     inkscape:groupmode="layer"
     id="layer1">
    <path
       style="font-size:12px;font-style:normal;font-weight:normal;line-height:125%;letter-spacing:0px;word-spacing:0px;fill:#000000;fill-opacity:1;stroke:none;font-family:Sans"
       d="m 8.3125,12.5625 c -0.9804716,9e-6 -1.7304708,0.378914 -2.25,1.15625 -0.515626,0.773444 -0.7812508,1.898443 -0.78125,3.375 -8e-7,1.472659 0.265624,2.597658 0.78125,3.375 0.5195292,0.773437 1.2695284,1.15625 2.25,1.15625 0.980464,0 1.734369,-0.382813 2.25,-1.15625 0.519524,-0.777342 0.781243,-1.902341 0.78125,-3.375 -7e-6,-1.476557 -0.261726,-2.601556 -0.78125,-3.375 -0.515631,-0.777336 -1.269536,-1.156241 -2.25,-1.15625 z m 0,0.9375 c 0.6132768,8e-6 1.0703076,0.304695 1.375,0.90625 0.3085882,0.597662 0.468744,1.48438 0.46875,2.6875 -6e-6,1.199221 -0.1601618,2.11719 -0.46875,2.71875 -0.3046924,0.597658 -0.7617232,0.875001 -1.375,0.875 -0.6093782,1e-6 -1.066409,-0.277342 -1.375,-0.875 C 6.6328104,19.21094 6.4687481,18.292971 6.46875,17.09375 6.4687481,15.89063 6.6328104,15.003912 6.9375,14.40625 7.246091,13.804695 7.7031218,13.500008 8.3125,13.5 z"
       id="path3039"
       inkscape:connector-curvature="0" />
    <path
       style="font-size:12px;font-style:normal;font-weight:normal;line-height:125%;letter-spacing:0px;word-spacing:0px;fill:#000000;fill-opacity:1;stroke:none;font-family:Sans"
       d="m 84.753906,20.464896 1.933594,0 0,-6.673828 -2.103516,0.421875 0,-1.078125 2.091797,-0.421875 1.183594,0 0,7.751953 1.933594,0 0,0.996094 -5.039063,0 0,-0.996094"
       id="path3041"
       inkscape:connector-curvature="0" />
    <path
       style="font-size:12px;font-style:normal;font-weight:normal;line-height:125%;letter-spacing:0px;word-spacing:0px;fill:#000000;fill-opacity:1;stroke:none;font-family:Sans"
       d="m 5.9882812,39.464896 1.9335938,0 0,-6.673828 -2.1035156,0.421875 0,-1.078125 2.0917968,-0.421875 1.1835938,0 0,7.751953 1.933594,0 0,0.996094 -5.0390628,0 0,-0.996094"
       id="path3043"
       inkscape:connector-curvature="0" />
    <path
       style="font-size:12px;font-style:normal;font-weight:normal;line-height:125%;letter-spacing:0px;word-spacing:0px;fill:#000000;fill-opacity:1;stroke:none;font-family:Sans"
       d="m 73.292969,39.464896 1.933593,0 0,-6.673828 -2.103515,0.421875 0,-1.078125 2.091797,-0.421875 1.183593,0 0,7.751953 1.933594,0 0,0.996094 -5.039062,0 0,-0.996094"
       id="path3045"
       inkscape:connector-curvature="0" />
    <path
       style="font-size:12px;font-style:normal;font-weight:normal;line-height:125%;letter-spacing:0px;word-spacing:0px;fill:#000000;fill-opacity:1;stroke:none;font-family:Sans"
       d="m 96.394531,39.464896 1.933594,0 0,-6.673828 -2.103516,0.421875 0,-1.078125 2.091797,-0.421875 1.183594,0 0,7.751953 1.93359,0 0,0.996094 -5.039059,0 0,-0.996094"
       id="path3047"
       inkscape:connector-curvature="0" />
    <path
       style="font-size:12px;font-style:normal;font-weight:normal;line-height:125%;letter-spacing:0px;word-spacing:0px;fill:#000000;fill-opacity:1;stroke:none;font-family:Sans"
       d="m 6.8027344,58.464896 4.1308596,0 0,0.996094 -5.5546878,0 0,-0.996094 c 0.4492175,-0.464842 1.060545,-1.087888 1.8339844,-1.86914 0.7773403,-0.785153 1.265621,-1.291012 1.4648438,-1.517579 C 9.0566361,54.652401 9.3203077,54.293026 9.46875,54.000052 9.6210886,53.703183 9.6972604,53.412168 9.6972656,53.127006 9.6972604,52.662169 9.5331981,52.283263 9.2050781,51.990287 8.880855,51.697326 8.4570273,51.550842 7.9335937,51.550834 c -0.3710968,8e-6 -0.7636745,0.06446 -1.1777343,0.193359 C 6.3457013,51.873107 5.9062486,52.068419 5.4375,52.330131 l 0,-1.195313 c 0.4765611,-0.191398 0.9218731,-0.335929 1.3359375,-0.433594 0.4140598,-0.09765 0.7929657,-0.146475 1.1367187,-0.146484 0.9062457,9e-6 1.6289013,0.226571 2.1679688,0.679687 0.539056,0.453133 0.808587,1.058601 0.808594,1.816407 -7e-6,0.359381 -0.06837,0.701177 -0.205078,1.02539 -0.132819,0.320318 -0.376959,0.699224 -0.7324222,1.136719 -0.097662,0.113285 -0.4082082,0.44141 -0.9316407,0.984375 -0.5234415,0.539065 -1.261722,1.294924 -2.2148437,2.267578"
       id="path3049"
       inkscape:connector-curvature="0" />
    <path
       style="font-size:12px;font-style:normal;font-weight:normal;line-height:125%;letter-spacing:0px;word-spacing:0px;fill:#000000;fill-opacity:1;stroke:none;font-family:Sans"
       d="m 63.652344,58.464896 1.933593,0 0,-6.673828 -2.103515,0.421875 0,-1.078125 2.091797,-0.421875 1.183593,0 0,7.751953 1.933594,0 0,0.996094 -5.039062,0 0,-0.996094"
       id="path3051"
       inkscape:connector-curvature="0" />
    <path
       style="font-size:12px;font-style:normal;font-weight:normal;line-height:125%;letter-spacing:0px;word-spacing:0px;fill:#000000;fill-opacity:1;stroke:none;font-family:Sans"
       d="m 85.568359,58.464896 4.13086,0 0,0.996094 -5.554688,0 0,-0.996094 c 0.449218,-0.464842 1.060545,-1.087888 1.833985,-1.86914 0.77734,-0.785153 1.265621,-1.291012 1.464843,-1.517579 0.378902,-0.425776 0.642574,-0.785151 0.791016,-1.078125 0.152339,-0.296869 0.22851,-0.587884 0.228516,-0.873046 -6e-6,-0.464837 -0.164068,-0.843743 -0.492188,-1.136719 -0.324223,-0.292961 -0.748051,-0.439445 -1.271484,-0.439453 -0.371097,8e-6 -0.763675,0.06446 -1.177735,0.193359 -0.410158,0.128914 -0.84961,0.324226 -1.318359,0.585938 l 0,-1.195313 c 0.476561,-0.191398 0.921873,-0.335929 1.335937,-0.433594 0.41406,-0.09765 0.792966,-0.146475 1.136719,-0.146484 0.906246,9e-6 1.628901,0.226571 2.167969,0.679687 0.539056,0.453133 0.808587,1.058601 0.808594,1.816407 -7e-6,0.359381 -0.06837,0.701177 -0.205078,1.02539 -0.132819,0.320318 -0.376959,0.699224 -0.732422,1.136719 -0.09766,0.113285 -0.408208,0.44141 -0.931641,0.984375 -0.523441,0.539065 -1.261722,1.294924 -2.214844,2.267578"
       id="path3053"
       inkscape:connector-curvature="0" />
    <path
       style="font-size:12px;font-style:normal;font-weight:normal;line-height:125%;letter-spacing:0px;word-spacing:0px;fill:#000000;fill-opacity:1;stroke:none;font-family:Sans"
       d="m 107.85547,58.464896 1.93359,0 0,-6.673828 -2.10351,0.421875 0,-1.078125 2.09179,-0.421875 1.1836,0 0,7.751953 1.93359,0 0,0.996094 -5.03906,0 0,-0.996094"
       id="path3055"
       inkscape:connector-curvature="0" />
    <path
       style="font-size:12px;font-style:normal;font-weight:normal;line-height:125%;letter-spacing:0px;word-spacing:0px;fill:#000000;fill-opacity:1;stroke:none;font-family:Sans"
       d="m 9.3691406,73.744193 c 0.5664008,0.121098 1.0078064,0.373051 1.3242184,0.755859 0.320306,0.382817 0.480462,0.855472 0.480469,1.417969 -7e-6,0.863283 -0.296881,1.531251 -0.890625,2.003906 -0.5937551,0.472657 -1.4375042,0.708985 -2.5312499,0.708985 -0.3671904,0 -0.7460962,-0.03711 -1.1367187,-0.111328 -0.3867205,-0.07031 -0.7871107,-0.177735 -1.2011719,-0.322266 l 0,-1.142578 c 0.3281238,0.191407 0.6874984,0.335939 1.078125,0.433594 0.3906226,0.09766 0.7988253,0.146485 1.2246094,0.146484 0.7421835,10e-7 1.3066361,-0.146483 1.6933594,-0.439453 0.3906196,-0.292967 0.585932,-0.718748 0.5859375,-1.277344 C 9.9960883,75.402399 9.8144478,75.000056 9.4511719,74.71099 9.0917923,74.418025 8.5898397,74.271541 7.9453125,74.271537 l -1.0195313,0 0,-0.972656 1.0664063,0 c 0.5820272,5e-6 1.0273392,-0.11523 1.3359375,-0.345704 0.3085886,-0.234369 0.4628853,-0.570306 0.4628906,-1.007812 -5.3e-6,-0.449212 -0.1601614,-0.792962 -0.4804687,-1.03125 -0.3164108,-0.24218 -0.7714884,-0.363273 -1.3652344,-0.363281 -0.3242219,8e-6 -0.6718778,0.03516 -1.0429688,0.105468 -0.3710957,0.07032 -0.7792984,0.179696 -1.2246093,0.328125 l 0,-1.054687 C 6.1269515,69.804749 6.546873,69.710999 6.9375,69.64849 7.3320284,69.586 7.7031218,69.55475 8.0507812,69.55474 c 0.8984331,9e-6 1.6093699,0.205087 2.1328128,0.615234 0.523431,0.406258 0.78515,0.957039 0.785156,1.652344 -6e-6,0.484381 -0.138678,0.894537 -0.416016,1.230469 -0.277349,0.332036 -0.67188,0.562505 -1.1835934,0.691406"
       id="path3057"
       inkscape:connector-curvature="0" />
    <path
       style="font-size:12px;font-style:normal;font-weight:normal;line-height:125%;letter-spacing:0px;word-spacing:0px;fill:#000000;fill-opacity:1;stroke:none;font-family:Sans"
       d="m 50.191406,77.464896 1.933594,0 0,-6.673828 -2.103516,0.421875 0,-1.078125 2.091797,-0.421875 1.183594,0 0,7.751953 1.933594,0 0,0.996094 -5.039063,0 0,-0.996094"
       id="path3059"
       inkscape:connector-curvature="0" />
    <path
       style="font-size:12px;font-style:normal;font-weight:normal;line-height:125%;letter-spacing:0px;word-spacing:0px;fill:#000000;fill-opacity:1;stroke:none;font-family:Sans"
       d="m 76.673828,73.744193 c 0.566401,0.121098 1.007807,0.373051 1.324219,0.755859 0.320306,0.382817 0.480462,0.855472 0.480469,1.417969 -7e-6,0.863283 -0.296882,1.531251 -0.890625,2.003906 -0.593756,0.472657 -1.437505,0.708985 -2.53125,0.708985 -0.367191,0 -0.746097,-0.03711 -1.136719,-0.111328 -0.386721,-0.07031 -0.787111,-0.177735 -1.201172,-0.322266 l 0,-1.142578 c 0.328124,0.191407 0.687498,0.335939 1.078125,0.433594 0.390623,0.09766 0.798825,0.146485 1.224609,0.146484 0.742184,10e-7 1.306636,-0.146483 1.69336,-0.439453 0.390619,-0.292967 0.585932,-0.718748 0.585937,-1.277344 -5e-6,-0.515622 -0.181646,-0.917965 -0.544922,-1.207031 C 76.39648,74.418025 75.894527,74.271541 75.25,74.271537 l -1.019531,0 0,-0.972656 1.066406,0 c 0.582027,5e-6 1.027339,-0.11523 1.335937,-0.345704 0.308589,-0.234369 0.462886,-0.570306 0.462891,-1.007812 -5e-6,-0.449212 -0.160161,-0.792962 -0.480469,-1.03125 -0.31641,-0.24218 -0.771488,-0.363273 -1.365234,-0.363281 -0.324222,8e-6 -0.671878,0.03516 -1.042969,0.105468 -0.371096,0.07032 -0.779298,0.179696 -1.224609,0.328125 l 0,-1.054687 c 0.449217,-0.124991 0.869138,-0.218741 1.259765,-0.28125 0.394529,-0.06249 0.765622,-0.09374 1.113282,-0.09375 0.898433,9e-6 1.60937,0.205087 2.132812,0.615234 0.523432,0.406258 0.78515,0.957039 0.785156,1.652344 -6e-6,0.484381 -0.138678,0.894537 -0.416015,1.230469 -0.27735,0.332036 -0.671881,0.562505 -1.183594,0.691406"
       id="path3061"
       inkscape:connector-curvature="0" />
    <path
       style="font-size:12px;font-style:normal;font-weight:normal;line-height:125%;letter-spacing:0px;word-spacing:0px;fill:#000000;fill-opacity:1;stroke:none;font-family:Sans"
       d="m 99.775391,73.744193 c 0.566399,0.121098 1.007809,0.373051 1.324219,0.755859 0.32031,0.382817 0.48046,0.855472 0.48047,1.417969 -10e-6,0.863283 -0.29688,1.531251 -0.89063,2.003906 -0.59375,0.472657 -1.437501,0.708985 -2.531247,0.708985 -0.36719,0 -0.746096,-0.03711 -1.136719,-0.111328 -0.38672,-0.07031 -0.78711,-0.177735 -1.201172,-0.322266 l 0,-1.142578 c 0.328124,0.191407 0.687499,0.335939 1.078125,0.433594 0.390623,0.09766 0.798826,0.146485 1.22461,0.146484 0.742183,10e-7 1.306636,-0.146483 1.693359,-0.439453 0.390624,-0.292967 0.585934,-0.718748 0.585934,-1.277344 0,-0.515622 -0.18164,-0.917965 -0.544918,-1.207031 -0.35938,-0.292965 -0.861332,-0.439449 -1.50586,-0.439453 l -1.019531,0 0,-0.972656 1.066406,0 c 0.582028,5e-6 1.02734,-0.11523 1.335938,-0.345704 0.308585,-0.234369 0.462885,-0.570306 0.462895,-1.007812 -1e-5,-0.449212 -0.16017,-0.792962 -0.480473,-1.03125 -0.316411,-0.24218 -0.771489,-0.363273 -1.365235,-0.363281 -0.324221,8e-6 -0.671877,0.03516 -1.042968,0.105468 -0.371096,0.07032 -0.779299,0.179696 -1.22461,0.328125 l 0,-1.054687 c 0.449217,-0.124991 0.869139,-0.218741 1.259766,-0.28125 0.394528,-0.06249 0.765622,-0.09374 1.113281,-0.09375 0.898433,9e-6 1.609369,0.205087 2.132809,0.615234 0.52344,0.406258 0.78515,0.957039 0.78516,1.652344 -1e-5,0.484381 -0.13868,0.894537 -0.41602,1.230469 -0.27734,0.332036 -0.67188,0.562505 -1.183589,0.691406"
       id="path3063"
       inkscape:connector-curvature="0" />
    <path
       style="font-size:12px;font-style:normal;font-weight:normal;line-height:125%;letter-spacing:0px;word-spacing:0px;fill:#000000;fill-opacity:1;stroke:none;font-family:Sans"
       d="m 117.49609,77.464896 1.9336,0 0,-6.673828 -2.10352,0.421875 0,-1.078125 2.0918,-0.421875 1.18359,0 0,7.751953 1.9336,0 0,0.996094 -5.03907,0 0,-0.996094"
       id="path3065"
       inkscape:connector-curvature="0" />
    <path
       style="font-size:12px;font-style:normal;font-weight:normal;line-height:125%;letter-spacing:0px;word-spacing:0px;fill:#000000;fill-opacity:1;stroke:none;font-family:Sans"
       d="m 8.71875,88.71875 -3.625,5.53125 0,1.15625 3.9375,0 0,2.0625 1.1875,0 0,-2.0625 1.25,0 0,-1 -1.25,0 0,-5.6875 -1.5,0 z m 0.3125,1.03125 0,4.65625 -2.96875,0 L 9.03125,89.75 z"
       id="path3067"
       inkscape:connector-curvature="0" />
    <path
       style="font-size:12px;font-style:normal;font-weight:normal;line-height:125%;letter-spacing:0px;word-spacing:0px;fill:#000000;fill-opacity:1;stroke:none;font-family:Sans"
       d="m 40.550781,96.464896 1.933594,0 0,-6.673828 -2.103516,0.421875 0,-1.078125 2.091797,-0.421875 1.183594,0 0,7.751953 1.933594,0 0,0.996094 -5.039063,0 0,-0.996094"
       id="path3069"
       inkscape:connector-curvature="0" />
    <path
       style="font-size:12px;font-style:normal;font-weight:normal;line-height:125%;letter-spacing:0px;word-spacing:0px;fill:#000000;fill-opacity:1;stroke:none;font-family:Sans"
       d="M 66.375,88.71875 62.75,94.25 l 0,1.15625 3.9375,0 0,2.0625 1.1875,0 0,-2.0625 1.25,0 0,-1 -1.25,0 0,-5.6875 -1.5,0 z m 0.3125,1.03125 0,4.65625 -2.96875,0 L 66.6875,89.75 z"
       id="path3071"
       inkscape:connector-curvature="0" />
    <path
       style="font-size:12px;font-style:normal;font-weight:normal;line-height:125%;letter-spacing:0px;word-spacing:0px;fill:#000000;fill-opacity:1;stroke:none;font-family:Sans"
       d="m 87.71875,88.5625 c -1.105472,9e-6 -1.968753,0.39454 -2.625,1.21875 -0.656252,0.820319 -1.000001,1.929693 -1,3.3125 -10e-7,1.472659 0.277343,2.597658 0.8125,3.375 0.535154,0.773437 1.300779,1.15625 2.3125,1.15625 0.882808,0 1.593745,-0.269531 2.125,-0.8125 0.531244,-0.542968 0.812493,-1.25781 0.8125,-2.15625 -7e-6,-0.917965 -0.269538,-1.656245 -0.78125,-2.1875 -0.507818,-0.535151 -1.183599,-0.781244 -2.0625,-0.78125 -0.417972,6e-6 -0.808596,0.09766 -1.15625,0.28125 -0.347658,0.179693 -0.644533,0.410162 -0.875,0.75 0.05859,-1.0664 0.308591,-1.847649 0.71875,-2.375 0.414059,-0.527336 0.999996,-0.781242 1.78125,-0.78125 0.29687,8e-6 0.605464,0.01954 0.90625,0.09375 0.304682,0.07423 0.578119,0.203133 0.875,0.34375 l 0,-1.09375 c -0.328131,-0.117178 -0.632818,-0.1914 -0.9375,-0.25 -0.300786,-0.05858 -0.60938,-0.09374 -0.90625,-0.09375 z m -0.5,4.0625 c 0.531246,5e-6 0.972651,0.167973 1.28125,0.53125 0.312495,0.363285 0.468744,0.867191 0.46875,1.5 -6e-6,0.628909 -0.156255,1.132814 -0.46875,1.5 -0.308599,0.363282 -0.750004,0.531251 -1.28125,0.53125 -0.531253,10e-7 -0.937503,-0.167968 -1.25,-0.53125 -0.308596,-0.367186 -0.468752,-0.871091 -0.46875,-1.5 -2e-6,-0.632809 0.160154,-1.136715 0.46875,-1.5 0.312497,-0.363277 0.718747,-0.531245 1.25,-0.53125 z"
       id="path3073"
       inkscape:connector-curvature="0" />
    <path
       style="font-size:12px;font-style:normal;font-weight:normal;line-height:125%;letter-spacing:0px;word-spacing:0px;fill:#000000;fill-opacity:1;stroke:none;font-family:Sans"
       d="m 110.59375,88.71875 -3.65625,5.53125 0,1.15625 3.96875,0 0,2.0625 1.1875,0 0,-2.0625 1.21875,0 0,-1 -1.21875,0 0,-5.6875 -1.5,0 z m 0.3125,1.03125 0,4.65625 -3,0 3,-4.65625 z"
       id="path3075"
       inkscape:connector-curvature="0" />
    <path
       style="font-size:12px;font-style:normal;font-weight:normal;line-height:125%;letter-spacing:0px;word-spacing:0px;fill:#000000;fill-opacity:1;stroke:none;font-family:Sans"
       d="m 129.13672,96.464896 1.93359,0 0,-6.673828 -2.10351,0.421875 0,-1.078125 2.09179,-0.421875 1.1836,0 0,7.751953 1.93359,0 0,0.996094 -5.03906,0 0,-0.996094"
       id="path3077"
       inkscape:connector-curvature="0" />
    <path
       style="font-size:12px;font-style:normal;font-weight:normal;line-height:125%;letter-spacing:0px;word-spacing:0px;fill:#000000;fill-opacity:1;stroke:none;font-family:Sans"
       d="m 5.7949219,107.71294 4.6464841,0 0,0.9961 -3.5624998,0 0,2.14453 c 0.1718725,-0.0586 0.3437473,-0.10156 0.515625,-0.12891 0.171872,-0.0312 0.3437468,-0.0469 0.515625,-0.0469 0.9765582,10e-6 1.7499949,0.26759 2.3203128,0.80274 0.570306,0.53516 0.855462,1.25977 0.855469,2.17382 -7e-6,0.94142 -0.292976,1.67383 -0.878907,2.19726 -0.5859424,0.51955 -1.4121134,0.77931 -2.4785154,0.77931 -0.3671903,0 -0.74219,-0.0312 -1.125,-0.0937 -0.3789079,-0.0625 -0.7714857,-0.15625 -1.1777344,-0.28125 l 0,-1.18945 c 0.3515613,0.19141 0.7148422,0.33398 1.0898438,0.42773 0.3749976,0.0937 0.7714816,0.14063 1.1894531,0.14063 0.6757774,0 1.2109331,-0.17774 1.6054688,-0.53321 0.394526,-0.35546 0.5917914,-0.83788 0.5917969,-1.44726 -5.5e-6,-0.60938 -0.1972709,-1.0918 -0.5917969,-1.44727 -0.3945357,-0.35546 -0.9296914,-0.5332 -1.6054688,-0.5332 -0.3164091,0 -0.632815,0.0352 -0.9492187,0.10546 -0.312502,0.0703 -0.6328141,0.1797 -0.9609375,0.32813 l 0,-4.39453"
       id="path3079"
       inkscape:connector-curvature="0" />
    <path
       style="font-size:12px;font-style:normal;font-weight:normal;line-height:125%;letter-spacing:0px;word-spacing:0px;fill:#000000;fill-opacity:1;stroke:none;font-family:Sans"
       d="m 30.910156,115.4649 1.933594,0 0,-6.67383 -2.103516,0.42187 0,-1.07812 2.091797,-0.42188 1.183594,0 0,7.75196 1.933594,0 0,0.99609 -5.039063,0 0,-0.99609"
       id="path3081"
       inkscape:connector-curvature="0" />
    <path
       style="font-size:12px;font-style:normal;font-weight:normal;line-height:125%;letter-spacing:0px;word-spacing:0px;fill:#000000;fill-opacity:1;stroke:none;font-family:Sans"
       d="m 49.998047,107.71294 4.646484,0 0,0.9961 -3.5625,0 0,2.14453 c 0.171873,-0.0586 0.343748,-0.10156 0.515625,-0.12891 0.171872,-0.0312 0.343747,-0.0469 0.515625,-0.0469 0.976558,10e-6 1.749995,0.26759 2.320313,0.80274 0.570306,0.53516 0.855462,1.25977 0.855468,2.17382 -6e-6,0.94142 -0.292975,1.67383 -0.878906,2.19726 -0.585942,0.51955 -1.412113,0.77931 -2.478515,0.77931 -0.367191,0 -0.74219,-0.0312 -1.125,-0.0937 -0.378908,-0.0625 -0.771486,-0.15625 -1.177735,-0.28125 l 0,-1.18945 c 0.351561,0.19141 0.714842,0.33398 1.089844,0.42773 0.374998,0.0937 0.771482,0.14063 1.189453,0.14063 0.675777,0 1.210933,-0.17774 1.605469,-0.53321 0.394526,-0.35546 0.591791,-0.83788 0.591797,-1.44726 -6e-6,-0.60938 -0.197271,-1.0918 -0.591797,-1.44727 -0.394536,-0.35546 -0.929692,-0.5332 -1.605469,-0.5332 -0.316409,0 -0.632815,0.0352 -0.949219,0.10546 -0.312502,0.0703 -0.632814,0.1797 -0.960937,0.32813 l 0,-4.39453"
       id="path3083"
       inkscape:connector-curvature="0" />
    <path
       style="font-size:12px;font-style:normal;font-weight:normal;line-height:125%;letter-spacing:0px;word-spacing:0px;fill:#000000;fill-opacity:1;stroke:none;font-family:Sans"
       d="m 69.472656,115.4649 1.933594,0 0,-6.67383 -2.103516,0.42187 0,-1.07812 2.091797,-0.42188 1.183594,0 0,7.75196 1.933594,0 0,0.99609 -5.039063,0 0,-0.99609"
       id="path3085"
       inkscape:connector-curvature="0" />
    <path
       style="font-size:12px;font-style:normal;font-weight:normal;line-height:125%;letter-spacing:0px;word-spacing:0px;fill:#000000;fill-opacity:1;stroke:none;font-family:Sans"
       d="m 79.4375,107.5625 c -0.980471,1e-5 -1.730471,0.37891 -2.25,1.15625 -0.515626,0.77344 -0.781251,1.89844 -0.78125,3.375 -10e-7,1.47265 0.265624,2.59765 0.78125,3.375 0.519529,0.77343 1.269529,1.15625 2.25,1.15625 0.980464,0 1.734369,-0.38282 2.25,-1.15625 0.519524,-0.77735 0.781243,-1.90235 0.78125,-3.375 -7e-6,-1.47656 -0.261726,-2.60156 -0.78125,-3.375 -0.515631,-0.77734 -1.269536,-1.15624 -2.25,-1.15625 z m 0,0.9375 c 0.613277,1e-5 1.070308,0.30469 1.375,0.90625 0.308588,0.59766 0.468744,1.48438 0.46875,2.6875 -6e-6,1.19922 -0.160162,2.11719 -0.46875,2.71875 -0.304692,0.59765 -0.761723,0.875 -1.375,0.875 -0.609378,0 -1.066409,-0.27735 -1.375,-0.875 -0.30469,-0.60156 -0.468752,-1.51953 -0.46875,-2.71875 -2e-6,-1.20312 0.16406,-2.08984 0.46875,-2.6875 0.308591,-0.60156 0.765622,-0.90624 1.375,-0.90625 z"
       id="path3087"
       inkscape:connector-curvature="0" />
    <path
       style="font-size:12px;font-style:normal;font-weight:normal;line-height:125%;letter-spacing:0px;word-spacing:0px;fill:#000000;fill-opacity:1;stroke:none;font-family:Sans"
       d="m 94.394531,115.4649 1.933594,0 0,-6.67383 -2.103516,0.42187 0,-1.07812 2.091797,-0.42188 1.183594,0 0,7.75196 1.933594,0 0,0.99609 -5.039063,0 0,-0.99609"
       id="path3089"
       inkscape:connector-curvature="0" />
    <path
       style="font-size:12px;font-style:normal;font-weight:normal;line-height:125%;letter-spacing:0px;word-spacing:0px;fill:#000000;fill-opacity:1;stroke:none;font-family:Sans"
       d="m 104.375,107.5625 c -0.98047,1e-5 -1.73047,0.37891 -2.25,1.15625 -0.51563,0.77344 -0.78125,1.89844 -0.78125,3.375 0,1.47265 0.26562,2.59765 0.78125,3.375 0.51953,0.77343 1.26953,1.15625 2.25,1.15625 0.98046,0 1.70312,-0.38282 2.21875,-1.15625 0.51952,-0.77735 0.78124,-1.90235 0.78125,-3.375 -1e-5,-1.47656 -0.26173,-2.60156 -0.78125,-3.375 -0.51563,-0.77734 -1.23829,-1.15624 -2.21875,-1.15625 z m 0,0.9375 c 0.61328,1e-5 1.07031,0.30469 1.375,0.90625 0.30859,0.59766 0.43749,1.48438 0.4375,2.6875 -1e-5,1.19922 -0.12891,2.11719 -0.4375,2.71875 -0.30469,0.59765 -0.76172,0.875 -1.375,0.875 -0.60938,0 -1.06641,-0.27735 -1.375,-0.875 -0.30469,-0.60156 -0.46875,-1.51953 -0.46875,-2.71875 0,-1.20312 0.16406,-2.08984 0.46875,-2.6875 0.30859,-0.60156 0.76562,-0.90624 1.375,-0.90625 z"
       id="path3091"
       inkscape:connector-curvature="0" />
    <path
       style="font-size:12px;font-style:normal;font-weight:normal;line-height:125%;letter-spacing:0px;word-spacing:0px;fill:#000000;fill-opacity:1;stroke:none;font-family:Sans"
       d="m 121.12305,107.71294 4.64648,0 0,0.9961 -3.5625,0 0,2.14453 c 0.17187,-0.0586 0.34375,-0.10156 0.51563,-0.12891 0.17187,-0.0312 0.34374,-0.0469 0.51562,-0.0469 0.97656,10e-6 1.75,0.26759 2.32031,0.80274 0.57031,0.53516 0.85547,1.25977 0.85547,2.17382 0,0.94142 -0.29297,1.67383 -0.8789,2.19726 -0.58595,0.51955 -1.41212,0.77931 -2.47852,0.77931 -0.36719,0 -0.74219,-0.0312 -1.125,-0.0937 -0.37891,-0.0625 -0.77149,-0.15625 -1.17773,-0.28125 l 0,-1.18945 c 0.35156,0.19141 0.71484,0.33398 1.08984,0.42773 0.375,0.0937 0.77148,0.14063 1.18945,0.14063 0.67578,0 1.21094,-0.17774 1.60547,-0.53321 0.39453,-0.35546 0.59179,-0.83788 0.5918,-1.44726 -1e-5,-0.60938 -0.19727,-1.0918 -0.5918,-1.44727 -0.39453,-0.35546 -0.92969,-0.5332 -1.60547,-0.5332 -0.31641,0 -0.63281,0.0352 -0.94922,0.10546 -0.3125,0.0703 -0.63281,0.1797 -0.96093,0.32813 l 0,-4.39453"
       id="path3093"
       inkscape:connector-curvature="0" />
    <path
       style="font-size:12px;font-style:normal;font-weight:normal;line-height:125%;letter-spacing:0px;word-spacing:0px;fill:#000000;fill-opacity:1;stroke:none;font-family:Sans"
       d="m 140.59766,115.4649 1.93359,0 0,-6.67383 -2.10352,0.42187 0,-1.07812 2.0918,-0.42188 1.1836,0 0,7.75196 1.93359,0 0,0.99609 -5.03906,0 0,-0.99609"
       id="path3095"
       inkscape:connector-curvature="0" />
    <path
       style="font-size:10px;font-style:normal;font-weight:normal;line-height:125%;letter-spacing:0px;word-spacing:0px;fill:#000000;fill-opacity:1;stroke:none;font-family:Sans"
       d="m 117.9375,2.53125 c -0.81706,7.4e-6 -1.44206,0.3522206 -1.875,1 -0.42969,0.6445371 -0.65625,1.5820361 -0.65625,2.8125 0,1.2272157 0.22656,2.164715 0.65625,2.8125 0.43294,0.644532 1.05794,0.9375 1.875,0.9375 0.81705,0 1.44531,-0.292968 1.875,-0.9375 0.43293,-0.647785 0.625,-1.5852843 0.625,-2.8125 0,-1.2304639 -0.19207,-2.1679629 -0.625,-2.8125 -0.42969,-0.6477794 -1.05795,-0.9999926 -1.875,-1 z m 0,0.78125 c 0.51106,6.7e-6 0.87109,0.2799543 1.125,0.78125 0.25716,0.4980523 0.40625,1.2474005 0.40625,2.25 0,0.9993517 -0.14909,1.7487 -0.40625,2.25 -0.25391,0.498048 -0.61393,0.718751 -1.125,0.71875 -0.50781,10e-7 -0.89909,-0.220702 -1.15625,-0.71875 -0.25391,-0.5013 -0.375,-1.2506483 -0.375,-2.25 0,-1.0025995 0.12109,-1.7519477 0.375,-2.25 0.25716,-0.5012957 0.64844,-0.7812433 1.15625,-0.78125 z"
       id="path3222"
       inkscape:connector-curvature="0" />
    <path
       style="font-size:10px;font-style:normal;font-weight:normal;line-height:125%;letter-spacing:0px;word-spacing:0px;fill:#000000;fill-opacity:1;stroke:none;font-family:Sans"
       d="m 127.29102,23.887413 1.61132,0 0,-5.561523 -1.75293,0.351563 0,-0.898438 1.74317,-0.351562 0.98633,0 0,6.45996 1.61132,0 0,0.830079 -4.19921,0 0,-0.830079"
       id="path3224"
       inkscape:connector-curvature="0" />
    <path
       style="font-size:10px;font-style:normal;font-weight:normal;line-height:125%;letter-spacing:0px;word-spacing:0px;fill:#000000;fill-opacity:1;stroke:none;font-family:Sans"
       d="m 141.34766,39.154992 1.03027,0 0,1.240234 -1.03027,0 0,-1.240234"
       id="path3235"
       inkscape:connector-curvature="0" />
    <path
       style="font-size:10px;font-style:normal;font-weight:normal;line-height:125%;letter-spacing:0px;word-spacing:0px;fill:#000000;fill-opacity:1;stroke:none;font-family:Sans"
       d="m 135.6875,32.319054 1.03027,0 0,1.240234 -1.03027,0 0,-1.240234"
       id="path3233"
       inkscape:connector-curvature="0" />
    <path
       style="font-size:10px;font-style:normal;font-weight:normal;line-height:125%;letter-spacing:0px;word-spacing:0px;fill:#000000;fill-opacity:1;stroke:none;font-family:Sans"
       d="m 138.51758,35.737023 1.03027,0 0,1.240234 -1.03027,0 0,-1.240234"
       id="path3226"
       inkscape:connector-curvature="0" />
    <path
       style="font-size:medium;font-style:normal;font-variant:normal;font-weight:normal;font-stretch:normal;text-indent:0;text-align:start;text-decoration:none;line-height:normal;letter-spacing:normal;word-spacing:normal;text-transform:none;direction:ltr;block-progression:tb;writing-mode:lr-tb;text-anchor:start;baseline-shift:baseline;color:#000000;fill:#000000;fill-opacity:1;stroke:none;stroke-width:1px;marker:none;visibility:visible;display:inline;overflow:visible;enable-background:accumulate;font-family:Sans;-inkscape-font-specification:Sans"
       d="m 112.8125,6.78125 -20.75,8.75 0.375,0.9375 20.75,-8.75 -0.375,-0.9375 z"
       id="path3244" />
    <path
       style="font-size:12px;fill-rule:evenodd;stroke-width:0.625;stroke-linejoin:round"
       d="m 103.82451,15.934661 -12.791337,0.597575 9.356917,-8.7420506 c -0.755339,3.1502886 0.64196,6.4354166 3.43442,8.1444756 z"
       id="path4488" />
    <path
       style="font-size:medium;font-style:normal;font-variant:normal;font-weight:normal;font-stretch:normal;text-indent:0;text-align:start;text-decoration:none;line-height:normal;letter-spacing:normal;word-spacing:normal;text-transform:none;direction:ltr;block-progression:tb;writing-mode:lr-tb;text-anchor:start;baseline-shift:baseline;color:#000000;fill:#000000;fill-opacity:1;stroke:none;stroke-width:1px;marker:none;visibility:visible;display:inline;overflow:visible;enable-background:accumulate;font-family:Sans;-inkscape-font-specification:Sans"
       d="m 125.78125,24.90625 -20.75,8.75 0.40625,0.90625 20.75,-8.75 -0.40625,-0.90625 z"
       id="path3244-1" />
    <path
       style="font-size:12px;fill-rule:evenodd;stroke-width:0.625;stroke-linejoin:round"
       d="m 116.80792,34.043543 -12.79134,0.597575 9.35692,-8.742051 c -0.75534,3.150289 0.64196,6.435417 3.43442,8.144476 z"
       id="path4496" />
    <path
       style="font-size:medium;font-style:normal;font-variant:normal;font-weight:normal;font-stretch:normal;text-indent:0;text-align:start;text-decoration:none;line-height:normal;letter-spacing:normal;word-spacing:normal;text-transform:none;direction:ltr;block-progression:tb;writing-mode:lr-tb;text-anchor:start;baseline-shift:baseline;color:#000000;fill:#000000;fill-opacity:1;stroke:none;stroke-width:1;marker:none;visibility:visible;display:inline;overflow:visible;enable-background:accumulate;font-family:Sans;-inkscape-font-specification:Sans"
       d="m 110.96875,84.03125 c -5.15177,0 -9.34375,4.191976 -9.34375,9.34375 0,5.151773 4.19198,9.34375 9.34375,9.34375 5.15177,0 9.34375,-4.191976 9.34375,-9.34375 0,-5.151775 -4.19198,-9.34375 -9.34375,-9.34375 z m 0,1 c 4.61133,0 8.34375,3.732417 8.34375,8.34375 0,4.611332 -3.73242,8.34375 -8.34375,8.34375 -4.61133,0 -8.34375,-3.732417 -8.34375,-8.34375 0,-4.611334 3.73242,-8.34375 8.34375,-8.34375 z"
       id="path4519"
       inkscape:connector-curvature="0" />
    <path
       style="font-size:12px;font-style:normal;font-weight:normal;line-height:125%;letter-spacing:0px;word-spacing:0px;fill:#000000;fill-opacity:1;stroke:none;font-family:Sans"
       d="m 162.81077,27.342669 c -0.52344,2.087306 -0.91211,4.151903 -1.16601,6.193797 -0.25391,2.041925 -0.38086,4.111058 -0.38086,6.207409 0,2.096367 0.12695,4.174578 0.38086,6.234635 0.25781,2.050985 0.64648,4.115581 1.16601,6.193794 l -0.9375,0 c -0.58594,-2.132662 -1.02539,-4.229022 -1.31836,-6.289084 -0.28906,-2.060057 -0.43359,-4.106502 -0.43359,-6.139345 0,-2.02375 0.14453,-4.061122 0.43359,-6.112121 0.28906,-2.050969 0.72852,-4.147329 1.31836,-6.289085 l 0.9375,0"
       id="path4533"
       inkscape:connector-curvature="0" />
    <path
       style="font-size:12px;font-style:normal;font-weight:normal;line-height:125%;letter-spacing:0px;word-spacing:0px;fill:#000000;fill-opacity:1;stroke:none;font-family:Sans"
       d="m 168,27.6875 -3.625,5.5625 0,1.125 3.9375,0 0,2.0625 1.1875,0 0,-2.0625 1.25,0 0,-0.96875 -1.25,0 0,-5.71875 -1.5,0 z m 0.3125,1.03125 0,4.6875 -3,0 3,-4.6875 z"
       id="path4535"
       inkscape:connector-curvature="0" />
    <path
       style="font-size:12px;font-style:normal;font-weight:normal;line-height:125%;letter-spacing:0px;word-spacing:0px;fill:#000000;fill-opacity:1;stroke:none;font-family:Sans"
       d="m 172.37913,27.342669 0.9375,0 c 0.58594,2.141756 1.02344,4.238116 1.3125,6.289085 0.29297,2.050999 0.43945,4.088371 0.43946,6.112121 -1e-5,2.032843 -0.14649,4.079288 -0.43946,6.139345 -0.28906,2.060062 -0.72656,4.156422 -1.3125,6.289084 l -0.9375,0 c 0.51953,-2.078213 0.90625,-4.142809 1.16016,-6.193794 0.25781,-2.060057 0.38671,-4.138268 0.38672,-6.234635 -1e-5,-2.096351 -0.12891,-4.165484 -0.38672,-6.207409 -0.25391,-2.041894 -0.64063,-4.106491 -1.16016,-6.193797"
       id="path4537"
       inkscape:connector-curvature="0" />
    <path
       style="font-size:12px;font-style:normal;font-weight:normal;line-height:125%;letter-spacing:0px;word-spacing:0px;fill:#000000;fill-opacity:1;stroke:none;font-family:Sans"
       d="m 168.64671,46.731341 c 0.5664,0.121098 1.00781,0.373051 1.32422,0.755859 0.32031,0.382817 0.48046,0.855472 0.48047,1.417969 -1e-5,0.863283 -0.29688,1.531251 -0.89063,2.003906 -0.59375,0.472657 -1.4375,0.708985 -2.53125,0.708985 -0.36719,0 -0.74609,-0.03711 -1.13672,-0.111328 -0.38672,-0.07031 -0.78711,-0.177735 -1.20117,-0.322266 l 0,-1.142578 c 0.32813,0.191407 0.6875,0.335939 1.07813,0.433594 0.39062,0.09766 0.79882,0.146485 1.22461,0.146484 0.74218,10e-7 1.30663,-0.146483 1.69336,-0.439453 0.39062,-0.292967 0.58593,-0.718748 0.58593,-1.277344 0,-0.515622 -0.18164,-0.917965 -0.54492,-1.207031 -0.35938,-0.292965 -0.86133,-0.439449 -1.50586,-0.439453 l -1.01953,0 0,-0.972656 1.06641,0 c 0.58202,5e-6 1.02734,-0.11523 1.33593,-0.345704 0.30859,-0.234369 0.46289,-0.570306 0.4629,-1.007812 -1e-5,-0.449212 -0.16017,-0.792962 -0.48047,-1.03125 -0.31641,-0.24218 -0.77149,-0.363273 -1.36524,-0.363281 -0.32422,8e-6 -0.67188,0.03516 -1.04297,0.105468 -0.37109,0.07032 -0.77929,0.179696 -1.22461,0.328125 l 0,-1.054687 c 0.44922,-0.124991 0.86914,-0.218741 1.25977,-0.28125 0.39453,-0.06249 0.76562,-0.09374 1.11328,-0.09375 0.89843,9e-6 1.60937,0.205087 2.13281,0.615234 0.52344,0.406258 0.78515,0.957039 0.78516,1.652344 -1e-5,0.484381 -0.13868,0.894537 -0.41602,1.230469 -0.27735,0.332036 -0.67188,0.562505 -1.18359,0.691406"
       id="path4541"
       inkscape:connector-curvature="0" />
    <path
       style="font-size:medium;font-style:normal;font-variant:normal;font-weight:normal;font-stretch:normal;text-indent:0;text-align:start;text-decoration:none;line-height:normal;letter-spacing:normal;word-spacing:normal;text-transform:none;direction:ltr;block-progression:tb;writing-mode:lr-tb;text-anchor:start;baseline-shift:baseline;color:#000000;fill:#000000;fill-opacity:1;stroke:none;stroke-width:1px;marker:none;visibility:visible;display:inline;overflow:visible;enable-background:accumulate;font-family:Sans;-inkscape-font-specification:Sans"
       d="m 160.25,52.6875 c -5.38859,12.83898 -15.40555,21.653418 -24.125,27.28125 -4.35972,2.813916 -8.39014,4.826065 -11.34375,6.15625 -1.47681,0.665093 -2.68509,1.164386 -3.53125,1.5 -0.42308,0.167807 -0.76566,0.314126 -1,0.40625 -0.11717,0.04606 -0.20899,0.06304 -0.28125,0.09375 -0.0361,0.01535 -0.0604,0.04598 -0.0937,0.0625 -0.0167,0.0083 -0.0376,0.01618 -0.0625,0.03125 -0.0249,0.01507 -0.0453,2e-5 -0.125,0.09375 l 0.75,0.65625 c -0.0635,0.07461 -0.0477,0.08728 -0.0625,0.09375 0.0536,-0.02277 0.13564,-0.08004 0.25,-0.125 0.22871,-0.08991 0.57239,-0.205397 1,-0.375 0.85521,-0.339205 2.06838,-0.827111 3.5625,-1.5 2.98824,-1.345778 7.0561,-3.401922 11.46875,-6.25 8.82531,-5.696157 19.00345,-14.622566 24.5,-27.71875 L 160.25,52.6875 z"
       id="path4566" />
  </g>
</svg>
