<?xml version="1.0" encoding="UTF-8" standalone="no"?>
<!-- Created with Inkscape (http://www.inkscape.org/) -->

<svg
   xmlns:dc="http://purl.org/dc/elements/1.1/"
   xmlns:cc="http://creativecommons.org/ns#"
   xmlns:rdf="http://www.w3.org/1999/02/22-rdf-syntax-ns#"
   xmlns:svg="http://www.w3.org/2000/svg"
   xmlns="http://www.w3.org/2000/svg"
   xmlns:sodipodi="http://sodipodi.sourceforge.net/DTD/sodipodi-0.dtd"
   xmlns:inkscape="http://www.inkscape.org/namespaces/inkscape"
   width="110"
   height="120"
   id="svg2"
   version="1.1"
   inkscape:version="0.48.0 r9654"
   sodipodi:docname="2011-(01)jan-14 - 02.svg">
  <defs
     id="defs4" />
  <sodipodi:namedview
     id="base"
     pagecolor="#ffffff"
     bordercolor="#666666"
     borderopacity="1.0"
     inkscape:pageopacity="0.0"
     inkscape:pageshadow="2"
     inkscape:zoom="1.4142136"
     inkscape:cx="24.640287"
     inkscape:cy="117.62904"
     inkscape:document-units="px"
     inkscape:current-layer="layer1"
     showgrid="false"
     inkscape:window-width="1589"
     inkscape:window-height="1117"
     inkscape:window-x="1600"
     inkscape:window-y="27"
     inkscape:window-maximized="1" />
  <metadata
     id="metadata7">
    <rdf:RDF>
      <cc:Work
         rdf:about="">
        <dc:format>image/svg+xml</dc:format>
        <dc:type
           rdf:resource="http://purl.org/dc/dcmitype/StillImage" />
        <dc:title />
      </cc:Work>
    </rdf:RDF>
  </metadata>
  <g
     inkscape:label="Layer 1"
     inkscape:groupmode="layer"
     id="layer1">
    <path
       style="font-size:12px;font-style:normal;font-variant:normal;font-weight:normal;font-stretch:normal;line-height:125%;letter-spacing:0px;word-spacing:0px;fill:#000000;fill-opacity:1;stroke:none;font-family:DejaVu Sans;-inkscape-font-specification:DejaVu Sans"
       d="m 56.34375,5.8125001 c -1.10548,10e-6 -1.96875,0.39454 -2.625,1.21875 -0.65625,0.82032 -1,1.92969 -1,3.3124999 0,1.47265 0.27734,2.59765 0.8125,3.375 0.53515,0.77343 1.30078,1.15625 2.3125,1.15625 0.88281,0 1.59375,-0.26953 2.125,-0.8125 C 58.5,13.51953 58.74999,12.80469 58.75,11.90625 58.74999,10.98828 58.51171,10.25001 58,9.7187501 c -0.50782,-0.53515 -1.21485,-0.78125 -2.09375,-0.78125 -0.41797,0 -0.77735,0.09766 -1.125,0.28125 -0.34766,0.17969 -0.64454,0.41017 -0.875,0.75 0.05859,-1.0664 0.27734,-1.84765 0.6875,-2.375 0.41406,-0.52734 1.03125,-0.78124 1.8125,-0.78125 0.29687,10e-6 0.57421,0.01955 0.875,0.09375 0.30468,0.07423 0.60937,0.20313 0.90625,0.34375 l 0,-1.09375 c -0.32813,-0.11718 -0.63282,-0.1914 -0.9375,-0.25 -0.30079,-0.0586 -0.60938,-0.09374 -0.90625,-0.09375 z m -0.5,4.0625 c 0.53125,0 0.9414,0.1679699 1.25,0.5312499 0.31249,0.36328 0.46874,0.86719 0.46875,1.5 -1e-5,0.62891 -0.15626,1.13281 -0.46875,1.5 -0.3086,0.36328 -0.71875,0.53125 -1.25,0.53125 -0.53125,0 -0.93751,-0.16797 -1.25,-0.53125 -0.3086,-0.36719 -0.46875,-0.87109 -0.46875,-1.5 0,-0.63281 0.16015,-1.13672 0.46875,-1.5 0.31249,-0.36328 0.71875,-0.5312499 1.25,-0.5312499 z"
       id="path3004"
       inkscape:connector-curvature="0" />
    <g
       id="g3021">
      <path
         style="font-size:medium;font-style:normal;font-variant:normal;font-weight:normal;font-stretch:normal;text-indent:0;text-align:start;text-decoration:none;line-height:normal;letter-spacing:normal;word-spacing:normal;text-transform:none;direction:ltr;block-progression:tb;writing-mode:lr-tb;text-anchor:start;baseline-shift:baseline;color:#000000;fill:#000000;fill-opacity:1;stroke:none;stroke-width:1px;marker:none;visibility:visible;display:inline;overflow:visible;enable-background:accumulate;font-family:Sans;-inkscape-font-specification:Sans"
         d="m 55.78125,24.0625 -35.6875,35.71875 0.6875,0.6875 L 56.5,24.78125 55.78125,24.0625 z"
         id="path2995"
         inkscape:connector-curvature="0" />
      <path
         inkscape:connector-curvature="0"
         style="fill-rule:evenodd;stroke:#000000;stroke-width:0.8pt;marker-start:none;marker-end:none"
         d="m 23.206888,57.351987 c 1.561291,1.561292 1.561291,4.095563 0,5.656855 -1.561292,1.561291 -4.095563,1.561291 -5.656855,0 -1.561291,-1.561292 -1.561291,-4.095563 0,-5.656855 1.561292,-1.561291 4.095563,-1.561291 5.656855,0 z"
         id="path3027" />
      <path
         inkscape:connector-curvature="0"
         style="fill-rule:evenodd;stroke:#000000;stroke-width:0.8pt;marker-start:none;marker-end:none"
         d="m 58.91578,21.643094 c 1.561291,1.561292 1.561291,4.095563 0,5.656855 -1.561292,1.561291 -4.095563,1.561291 -5.656855,0 -1.561291,-1.561292 -1.561291,-4.095563 0,-5.656855 1.561292,-1.561291 4.095563,-1.561291 5.656855,0 z"
         id="path3029" />
    </g>
    <g
       id="g3031">
      <path
         style="font-size:medium;font-style:normal;font-variant:normal;font-weight:normal;font-stretch:normal;text-indent:0;text-align:start;text-decoration:none;line-height:normal;letter-spacing:normal;word-spacing:normal;text-transform:none;direction:ltr;block-progression:tb;writing-mode:lr-tb;text-anchor:start;baseline-shift:baseline;color:#000000;fill:#000000;fill-opacity:1;stroke:none;stroke-width:1px;marker:none;visibility:visible;display:inline;overflow:visible;enable-background:accumulate;font-family:Sans;-inkscape-font-specification:Sans"
         d="m 91.78125,60.0625 -35.6875,35.71875 0.6875,0.6875 L 92.5,60.78125 91.78125,60.0625 z"
         id="path2997"
         inkscape:connector-curvature="0" />
      <path
         inkscape:connector-curvature="0"
         style="fill-rule:evenodd;stroke:#000000;stroke-width:0.8pt;marker-start:none;marker-end:none"
         d="m 59.206888,93.351987 c 1.561291,1.561292 1.561291,4.095563 0,5.656855 -1.561292,1.561288 -4.095563,1.561288 -5.656855,0 -1.561291,-1.561292 -1.561291,-4.095563 0,-5.656855 1.561292,-1.561291 4.095563,-1.561291 5.656855,0 z"
         id="path3037" />
      <path
         inkscape:connector-curvature="0"
         style="fill-rule:evenodd;stroke:#000000;stroke-width:0.8pt;marker-start:none;marker-end:none"
         d="m 94.91578,57.643094 c 1.561291,1.561292 1.561291,4.095563 0,5.656855 -1.561292,1.561291 -4.095563,1.561291 -5.656855,0 -1.561291,-1.561292 -1.561291,-4.095563 0,-5.656855 1.561292,-1.561291 4.095563,-1.561291 5.656855,0 z"
         id="path3039" />
    </g>
    <path
       style="font-size:medium;font-style:normal;font-variant:normal;font-weight:normal;font-stretch:normal;text-indent:0;text-align:start;text-decoration:none;line-height:normal;letter-spacing:normal;word-spacing:normal;text-transform:none;direction:ltr;block-progression:tb;writing-mode:lr-tb;text-anchor:start;baseline-shift:baseline;color:#000000;fill:#000000;fill-opacity:1;stroke:none;stroke-width:1px;marker:none;visibility:visible;display:inline;overflow:visible;enable-background:accumulate;font-family:Sans;-inkscape-font-specification:Sans"
       d="m 56.78125,24.0625 -0.6875,0.71875 35.6875,35.6875 L 92.5,59.78125 56.78125,24.0625 z"
       id="path2999" />
    <path
       style="font-size:medium;font-style:normal;font-variant:normal;font-weight:normal;font-stretch:normal;text-indent:0;text-align:start;text-decoration:none;line-height:normal;letter-spacing:normal;word-spacing:normal;text-transform:none;direction:ltr;block-progression:tb;writing-mode:lr-tb;text-anchor:start;baseline-shift:baseline;color:#000000;fill:#000000;fill-opacity:1;stroke:none;stroke-width:1px;marker:none;visibility:visible;display:inline;overflow:visible;enable-background:accumulate;font-family:Sans;-inkscape-font-specification:Sans"
       d="m 20.78125,60.0625 -0.6875,0.71875 35.6875,35.6875 L 56.5,95.78125 20.78125,60.0625 z"
       id="path3001" />
    <path
       style="font-size:12px;font-style:normal;font-variant:normal;font-weight:normal;font-stretch:normal;line-height:125%;letter-spacing:0px;word-spacing:0px;fill:#000000;fill-opacity:1;stroke:none;font-family:DejaVu Sans;-inkscape-font-specification:DejaVu Sans"
       d="m 54.98828,113.7149 1.9336,0 0,-6.67383 -2.10352,0.42187 0,-1.07812 2.0918,-0.42188 1.18359,0 0,7.75196 1.93359,0 0,0.99609 -5.03906,0 0,-0.99609"
       id="path2998"
       inkscape:connector-curvature="0" />
    <path
       style="font-size:12px;font-style:normal;font-variant:normal;font-weight:normal;font-stretch:normal;line-height:125%;letter-spacing:0px;word-spacing:0px;fill:#000000;fill-opacity:1;stroke:none;font-family:DejaVu Sans;-inkscape-font-specification:DejaVu Sans"
       d="m 7.26367,63.9649 4.13086,0 0,0.99609 -5.55469,0 0,-0.99609 c 0.44922,-0.46485 1.06055,-1.08789 1.83399,-1.86914 0.77734,-0.78516 1.26562,-1.29102 1.46484,-1.51758 0.3789,-0.42578 0.64258,-0.78515 0.79102,-1.07813 0.15234,-0.29687 0.22851,-0.58788 0.22851,-0.87304 0,-0.46484 -0.16406,-0.84375 -0.49218,-1.13672 -0.32423,-0.29296 -0.74806,-0.43945 -1.27149,-0.43946 -0.3711,1e-5 -0.76367,0.0645 -1.17773,0.19336 -0.41016,0.12892 -0.84961,0.32423 -1.31836,0.58594 l 0,-1.19531 c 0.47656,-0.1914 0.92187,-0.33593 1.33594,-0.4336 0.41405,-0.0976 0.79296,-0.14647 1.13671,-0.14648 0.90625,10e-6 1.6289,0.22657 2.16797,0.67969 0.53906,0.45313 0.80859,1.0586 0.8086,1.8164 -10e-6,0.35938 -0.0684,0.70118 -0.20508,1.02539 -0.13282,0.32032 -0.37696,0.69923 -0.73242,1.13672 -0.0977,0.11329 -0.40821,0.44141 -0.93164,0.98438 -0.52345,0.53906 -1.26173,1.29492 -2.21485,2.26758"
       id="path3000"
       inkscape:connector-curvature="0" />
    <path
       style="font-size:12px;font-style:normal;font-variant:normal;font-weight:normal;font-stretch:normal;line-height:125%;letter-spacing:0px;word-spacing:0px;fill:#000000;fill-opacity:1;stroke:none;font-family:DejaVu Sans;-inkscape-font-specification:DejaVu Sans"
       d="m 104.04102,60.24419 c 0.5664,0.1211 1.0078,0.37305 1.32421,0.75586 0.32031,0.38282 0.48047,0.85547 0.48047,1.41797 0,0.86328 -0.29688,1.53125 -0.89062,2.00391 -0.59376,0.47265 -1.43751,0.70898 -2.53125,0.70898 -0.36719,0 -0.7461,-0.0371 -1.13672,-0.11133 -0.38672,-0.0703 -0.78711,-0.17773 -1.20117,-0.32226 l 0,-1.14258 c 0.32812,0.19141 0.6875,0.33594 1.07812,0.43359 0.39063,0.0977 0.79883,0.14649 1.22461,0.14649 0.74219,0 1.30664,-0.14649 1.69336,-0.43946 0.39062,-0.29296 0.58593,-0.71874 0.58594,-1.27734 -1e-5,-0.51562 -0.18165,-0.91796 -0.54492,-1.20703 -0.35938,-0.29296 -0.86134,-0.43945 -1.50586,-0.43945 l -1.01953,0 0,-0.97266 1.0664,0 c 0.58203,1e-5 1.02734,-0.11523 1.33594,-0.3457 0.30859,-0.23437 0.46289,-0.57031 0.46289,-1.00782 0,-0.44921 -0.16016,-0.79296 -0.48047,-1.03125 -0.31641,-0.24217 -0.77149,-0.36327 -1.36523,-0.36328 -0.32422,1e-5 -0.67188,0.0352 -1.04297,0.10547 -0.3711,0.0703 -0.7793,0.1797 -1.22461,0.32813 l 0,-1.05469 c 0.44922,-0.12499 0.86914,-0.21874 1.25977,-0.28125 0.39452,-0.0625 0.76562,-0.0937 1.11328,-0.0937 0.89843,1e-5 1.60937,0.20509 2.13281,0.61523 0.52343,0.40626 0.78515,0.95704 0.78516,1.65235 -1e-5,0.48438 -0.13868,0.89454 -0.41602,1.23047 -0.27735,0.33203 -0.67188,0.5625 -1.18359,0.6914"
       id="path3002"
       inkscape:connector-curvature="0" />
  </g>
</svg>
