<?xml version="1.0" encoding="UTF-8" standalone="no"?>
<!-- Created with Inkscape (http://www.inkscape.org/) -->

<svg
   xmlns:dc="http://purl.org/dc/elements/1.1/"
   xmlns:cc="http://creativecommons.org/ns#"
   xmlns:rdf="http://www.w3.org/1999/02/22-rdf-syntax-ns#"
   xmlns:svg="http://www.w3.org/2000/svg"
   xmlns="http://www.w3.org/2000/svg"
   xmlns:sodipodi="http://sodipodi.sourceforge.net/DTD/sodipodi-0.dtd"
   xmlns:inkscape="http://www.inkscape.org/namespaces/inkscape"
   width="100"
   height="100"
   id="svg2"
   version="1.1"
   inkscape:version="0.48.0 r9654"
   sodipodi:docname="2011-(03)mar-02, 08.svg">
  <defs
     id="defs4" />
  <sodipodi:namedview
     id="base"
     pagecolor="#ffffff"
     bordercolor="#666666"
     borderopacity="1.0"
     inkscape:pageopacity="0.0"
     inkscape:pageshadow="2"
     inkscape:zoom="2.1848926"
     inkscape:cx="172.21217"
     inkscape:cy="37.255149"
     inkscape:document-units="px"
     inkscape:current-layer="layer1"
     showgrid="false"
     inkscape:window-width="1589"
     inkscape:window-height="1117"
     inkscape:window-x="1600"
     inkscape:window-y="27"
     inkscape:window-maximized="1"
     showguides="true"
     inkscape:guide-bbox="true" />
  <metadata
     id="metadata7">
    <rdf:RDF>
      <cc:Work
         rdf:about="">
        <dc:format>image/svg+xml</dc:format>
        <dc:type
           rdf:resource="http://purl.org/dc/dcmitype/StillImage" />
        <dc:title />
      </cc:Work>
    </rdf:RDF>
  </metadata>
  <g
     inkscape:label="Layer 1"
     inkscape:groupmode="layer"
     id="layer1">
    <path
       style="font-size:medium;font-style:normal;font-variant:normal;font-weight:normal;font-stretch:normal;text-indent:0;text-align:start;text-decoration:none;line-height:normal;letter-spacing:normal;word-spacing:normal;text-transform:none;direction:ltr;block-progression:tb;writing-mode:lr-tb;text-anchor:start;baseline-shift:baseline;color:#000000;fill:#000000;fill-opacity:1;stroke:none;stroke-width:1;marker:none;visibility:visible;display:inline;overflow:visible;enable-background:accumulate;font-family:Sans;-inkscape-font-specification:Sans"
       d="M 49.9375 8.125 A 0.50005 0.50005 0 0 0 49.53125 8.40625 L 13 71.65625 A 0.50005 0.50005 0 0 0 13.4375 72.4375 L 86.53125 72.4375 A 0.50005 0.50005 0 0 0 86.9375 71.6875 L 50.4375 8.40625 A 0.50005 0.50005 0 0 0 49.9375 8.125 z M 50 9.65625 L 85.65625 71.4375 L 14.34375 71.40625 L 50 9.65625 z "
       id="path5020" />
    <path
       style="font-size:12px;fill-rule:evenodd;stroke-width:0.625;stroke-linejoin:round"
       d="m 69.224647,33.12958 2.181481,12.618107 -9.836395,-8.198828 c 3.219706,0.358268 6.305876,-1.436192 7.654914,-4.419279 z"
       id="path4853"
       inkscape:connector-curvature="0"
       inkscape:transform-center-x="4.243386"
       inkscape:transform-center-y="-5.1548152" />
    <path
       style="font-size:medium;font-style:normal;font-variant:normal;font-weight:normal;font-stretch:normal;text-indent:0;text-align:start;text-decoration:none;line-height:normal;letter-spacing:normal;word-spacing:normal;text-transform:none;direction:ltr;block-progression:tb;writing-mode:lr-tb;text-anchor:start;baseline-shift:baseline;color:#000000;fill:#000000;fill-opacity:1;stroke:none;stroke-width:1;marker:none;visibility:visible;display:inline;overflow:visible;enable-background:accumulate;font-family:Sans;-inkscape-font-specification:Sans"
       d="M 4.96875,24 5.40625,24.25 6.25,24.75 6.6875,25 7.21875,24.15625 6.78125,23.90625 5.90625,23.375 5.5,23.125 z"
       id="path4934" />
    <path
       style="font-size:medium;font-style:normal;font-variant:normal;font-weight:normal;font-stretch:normal;text-indent:0;text-align:start;text-decoration:none;line-height:normal;letter-spacing:normal;word-spacing:normal;text-transform:none;direction:ltr;block-progression:tb;writing-mode:lr-tb;text-anchor:start;baseline-shift:baseline;color:#000000;fill:#000000;fill-opacity:1;stroke:none;stroke-width:1;marker:none;visibility:visible;display:inline;overflow:visible;enable-background:accumulate;font-family:Sans;-inkscape-font-specification:Sans"
       d="m 9.28125,26.53125 0.40625,0.28125 0.875,0.5 0.4375,0.25 0.5,-0.84375 -0.4375,-0.28125 -0.84375,-0.5 -0.4375,-0.25 z"
       id="path4932" />
    <path
       style="font-size:medium;font-style:normal;font-variant:normal;font-weight:normal;font-stretch:normal;text-indent:0;text-align:start;text-decoration:none;line-height:normal;letter-spacing:normal;word-spacing:normal;text-transform:none;direction:ltr;block-progression:tb;writing-mode:lr-tb;text-anchor:start;baseline-shift:baseline;color:#000000;fill:#000000;fill-opacity:1;stroke:none;stroke-width:1;marker:none;visibility:visible;display:inline;overflow:visible;enable-background:accumulate;font-family:Sans;-inkscape-font-specification:Sans"
       d="m 13.5625,29.09375 0.4375,0.25 0.84375,0.53125 0.4375,0.25 0.5,-0.84375 L 15.375,29 14.5,28.5 14.09375,28.25 z"
       id="path4930" />
    <path
       style="font-size:medium;font-style:normal;font-variant:normal;font-weight:normal;font-stretch:normal;text-indent:0;text-align:start;text-decoration:none;line-height:normal;letter-spacing:normal;word-spacing:normal;text-transform:none;direction:ltr;block-progression:tb;writing-mode:lr-tb;text-anchor:start;baseline-shift:baseline;color:#000000;fill:#000000;fill-opacity:1;stroke:none;stroke-width:1;marker:none;visibility:visible;display:inline;overflow:visible;enable-background:accumulate;font-family:Sans;-inkscape-font-specification:Sans"
       d="m 17.875,31.65625 0.40625,0.25 0.875,0.53125 0.4375,0.25 0.5,-0.875 -0.4375,-0.25 -0.84375,-0.5 -0.4375,-0.25 z"
       id="path4928" />
    <path
       style="font-size:medium;font-style:normal;font-variant:normal;font-weight:normal;font-stretch:normal;text-indent:0;text-align:start;text-decoration:none;line-height:normal;letter-spacing:normal;word-spacing:normal;text-transform:none;direction:ltr;block-progression:tb;writing-mode:lr-tb;text-anchor:start;baseline-shift:baseline;color:#000000;fill:#000000;fill-opacity:1;stroke:none;stroke-width:1;marker:none;visibility:visible;display:inline;overflow:visible;enable-background:accumulate;font-family:Sans;-inkscape-font-specification:Sans"
       d="m 22.15625,34.21875 0.4375,0.25 L 23.4375,35 l 0.4375,0.25 0.5,-0.875 -0.40625,-0.25 -0.875,-0.5 -0.4375,-0.25 z"
       id="path4926" />
    <path
       style="font-size:medium;font-style:normal;font-variant:normal;font-weight:normal;font-stretch:normal;text-indent:0;text-align:start;text-decoration:none;line-height:normal;letter-spacing:normal;word-spacing:normal;text-transform:none;direction:ltr;block-progression:tb;writing-mode:lr-tb;text-anchor:start;baseline-shift:baseline;color:#000000;fill:#000000;fill-opacity:1;stroke:none;stroke-width:1;marker:none;visibility:visible;display:inline;overflow:visible;enable-background:accumulate;font-family:Sans;-inkscape-font-specification:Sans"
       d="m 26.46875,36.78125 0.40625,0.25 0.875,0.5 0.4375,0.28125 0.5,-0.875 -0.4375,-0.25 -0.84375,-0.5 -0.4375,-0.28125 z"
       id="path4924" />
    <path
       style="font-size:medium;font-style:normal;font-variant:normal;font-weight:normal;font-stretch:normal;text-indent:0;text-align:start;text-decoration:none;line-height:normal;letter-spacing:normal;word-spacing:normal;text-transform:none;direction:ltr;block-progression:tb;writing-mode:lr-tb;text-anchor:start;baseline-shift:baseline;color:#000000;fill:#000000;fill-opacity:1;stroke:none;stroke-width:1;marker:none;visibility:visible;display:inline;overflow:visible;enable-background:accumulate;font-family:Sans;-inkscape-font-specification:Sans"
       d="m 30.75,39.34375 0.4375,0.25 0.84375,0.5 0.4375,0.25 0.5,-0.84375 -0.40625,-0.25 -0.875,-0.53125 -0.4375,-0.25 z"
       id="path4922" />
    <path
       style="font-size:medium;font-style:normal;font-variant:normal;font-weight:normal;font-stretch:normal;text-indent:0;text-align:start;text-decoration:none;line-height:normal;letter-spacing:normal;word-spacing:normal;text-transform:none;direction:ltr;block-progression:tb;writing-mode:lr-tb;text-anchor:start;baseline-shift:baseline;color:#000000;fill:#000000;fill-opacity:1;stroke:none;stroke-width:1;marker:none;visibility:visible;display:inline;overflow:visible;enable-background:accumulate;font-family:Sans;-inkscape-font-specification:Sans"
       d="m 35.0625,41.90625 0.40625,0.25 0.875,0.5 0.40625,0.25 0.53125,-0.84375 -0.4375,-0.25 L 36,41.28125 l -0.4375,-0.25 z"
       id="path4920" />
    <path
       style="font-size:medium;font-style:normal;font-variant:normal;font-weight:normal;font-stretch:normal;text-indent:0;text-align:start;text-decoration:none;line-height:normal;letter-spacing:normal;word-spacing:normal;text-transform:none;direction:ltr;block-progression:tb;writing-mode:lr-tb;text-anchor:start;baseline-shift:baseline;color:#000000;fill:#000000;fill-opacity:1;stroke:none;stroke-width:1;marker:none;visibility:visible;display:inline;overflow:visible;enable-background:accumulate;font-family:Sans;-inkscape-font-specification:Sans"
       d="m 39.34375,44.4375 0.4375,0.28125 0.84375,0.5 0.4375,0.25 0.5,-0.84375 -0.40625,-0.25 -0.875,-0.53125 -0.4375,-0.25 z"
       id="path4918" />
    <path
       style="font-size:medium;font-style:normal;font-variant:normal;font-weight:normal;font-stretch:normal;text-indent:0;text-align:start;text-decoration:none;line-height:normal;letter-spacing:normal;word-spacing:normal;text-transform:none;direction:ltr;block-progression:tb;writing-mode:lr-tb;text-anchor:start;baseline-shift:baseline;color:#000000;fill:#000000;fill-opacity:1;stroke:none;stroke-width:1;marker:none;visibility:visible;display:inline;overflow:visible;enable-background:accumulate;font-family:Sans;-inkscape-font-specification:Sans"
       d="m 43.625,47 0.4375,0.25 0.875,0.53125 0.40625,0.25 0.53125,-0.84375 -0.4375,-0.28125 -0.84375,-0.5 -0.4375,-0.25 z"
       id="path4916" />
    <path
       style="font-size:medium;font-style:normal;font-variant:normal;font-weight:normal;font-stretch:normal;text-indent:0;text-align:start;text-decoration:none;line-height:normal;letter-spacing:normal;word-spacing:normal;text-transform:none;direction:ltr;block-progression:tb;writing-mode:lr-tb;text-anchor:start;baseline-shift:baseline;color:#000000;fill:#000000;fill-opacity:1;stroke:none;stroke-width:1;marker:none;visibility:visible;display:inline;overflow:visible;enable-background:accumulate;font-family:Sans;-inkscape-font-specification:Sans"
       d="m 47.9375,49.5625 0.4375,0.25 0.84375,0.53125 0.4375,0.25 0.5,-0.875 -0.40625,-0.25 -0.875,-0.5 -0.4375,-0.25 z"
       id="path4914" />
    <path
       style="font-size:medium;font-style:normal;font-variant:normal;font-weight:normal;font-stretch:normal;text-indent:0;text-align:start;text-decoration:none;line-height:normal;letter-spacing:normal;word-spacing:normal;text-transform:none;direction:ltr;block-progression:tb;writing-mode:lr-tb;text-anchor:start;baseline-shift:baseline;color:#000000;fill:#000000;fill-opacity:1;stroke:none;stroke-width:1;marker:none;visibility:visible;display:inline;overflow:visible;enable-background:accumulate;font-family:Sans;-inkscape-font-specification:Sans"
       d="m 52.21875,52.125 0.4375,0.25 0.875,0.53125 0.40625,0.25 0.53125,-0.875 -0.4375,-0.25 -0.84375,-0.5 -0.4375,-0.25 z"
       id="path4912" />
    <path
       style="font-size:medium;font-style:normal;font-variant:normal;font-weight:normal;font-stretch:normal;text-indent:0;text-align:start;text-decoration:none;line-height:normal;letter-spacing:normal;word-spacing:normal;text-transform:none;direction:ltr;block-progression:tb;writing-mode:lr-tb;text-anchor:start;baseline-shift:baseline;color:#000000;fill:#000000;fill-opacity:1;stroke:none;stroke-width:1;marker:none;visibility:visible;display:inline;overflow:visible;enable-background:accumulate;font-family:Sans;-inkscape-font-specification:Sans"
       d="m 56.53125,54.6875 0.4375,0.25 0.84375,0.5 0.4375,0.28125 0.5,-0.875 -0.4375,-0.25 -0.84375,-0.5 -0.4375,-0.28125 z"
       id="path4910" />
    <path
       style="font-size:medium;font-style:normal;font-variant:normal;font-weight:normal;font-stretch:normal;text-indent:0;text-align:start;text-decoration:none;line-height:normal;letter-spacing:normal;word-spacing:normal;text-transform:none;direction:ltr;block-progression:tb;writing-mode:lr-tb;text-anchor:start;baseline-shift:baseline;color:#000000;fill:#000000;fill-opacity:1;stroke:none;stroke-width:1;marker:none;visibility:visible;display:inline;overflow:visible;enable-background:accumulate;font-family:Sans;-inkscape-font-specification:Sans"
       d="m 60.8125,57.25 0.4375,0.25 0.875,0.5 0.40625,0.25 0.53125,-0.84375 -0.4375,-0.25 -0.875,-0.53125 -0.40625,-0.25 z"
       id="path4908" />
    <path
       style="font-size:medium;font-style:normal;font-variant:normal;font-weight:normal;font-stretch:normal;text-indent:0;text-align:start;text-decoration:none;line-height:normal;letter-spacing:normal;word-spacing:normal;text-transform:none;direction:ltr;block-progression:tb;writing-mode:lr-tb;text-anchor:start;baseline-shift:baseline;color:#000000;fill:#000000;fill-opacity:1;stroke:none;stroke-width:1;marker:none;visibility:visible;display:inline;overflow:visible;enable-background:accumulate;font-family:Sans;-inkscape-font-specification:Sans"
       d="m 65.125,59.8125 0.4375,0.25 0.84375,0.5 0.4375,0.25 0.5,-0.84375 -0.4375,-0.25 -0.84375,-0.53125 -0.4375,-0.25 z"
       id="path4906" />
    <path
       style="font-size:medium;font-style:normal;font-variant:normal;font-weight:normal;font-stretch:normal;text-indent:0;text-align:start;text-decoration:none;line-height:normal;letter-spacing:normal;word-spacing:normal;text-transform:none;direction:ltr;block-progression:tb;writing-mode:lr-tb;text-anchor:start;baseline-shift:baseline;color:#000000;fill:#000000;fill-opacity:1;stroke:none;stroke-width:1;marker:none;visibility:visible;display:inline;overflow:visible;enable-background:accumulate;font-family:Sans;-inkscape-font-specification:Sans"
       d="m 69.40625,62.34375 0.4375,0.28125 0.875,0.5 0.40625,0.25 0.53125,-0.84375 -0.4375,-0.25 L 70.34375,61.75 69.9375,61.5 z"
       id="path4904" />
    <path
       style="font-size:medium;font-style:normal;font-variant:normal;font-weight:normal;font-stretch:normal;text-indent:0;text-align:start;text-decoration:none;line-height:normal;letter-spacing:normal;word-spacing:normal;text-transform:none;direction:ltr;block-progression:tb;writing-mode:lr-tb;text-anchor:start;baseline-shift:baseline;color:#000000;fill:#000000;fill-opacity:1;stroke:none;stroke-width:1;marker:none;visibility:visible;display:inline;overflow:visible;enable-background:accumulate;font-family:Sans;-inkscape-font-specification:Sans"
       d="m 73.71875,64.90625 0.4375,0.25 L 75,65.6875 l 0.4375,0.25 0.5,-0.84375 -0.4375,-0.28125 -0.84375,-0.5 -0.4375,-0.25 z"
       id="path4902" />
    <path
       style="font-size:medium;font-style:normal;font-variant:normal;font-weight:normal;font-stretch:normal;text-indent:0;text-align:start;text-decoration:none;line-height:normal;letter-spacing:normal;word-spacing:normal;text-transform:none;direction:ltr;block-progression:tb;writing-mode:lr-tb;text-anchor:start;baseline-shift:baseline;color:#000000;fill:#000000;fill-opacity:1;stroke:none;stroke-width:1;marker:none;visibility:visible;display:inline;overflow:visible;enable-background:accumulate;font-family:Sans;-inkscape-font-specification:Sans"
       d="m 78,67.46875 0.4375,0.25 0.84375,0.53125 0.4375,0.25 0.53125,-0.875 -0.4375,-0.25 -0.875,-0.5 -0.40625,-0.25 z"
       id="path4900" />
    <path
       style="font-size:medium;font-style:normal;font-variant:normal;font-weight:normal;font-stretch:normal;text-indent:0;text-align:start;text-decoration:none;line-height:normal;letter-spacing:normal;word-spacing:normal;text-transform:none;direction:ltr;block-progression:tb;writing-mode:lr-tb;text-anchor:start;baseline-shift:baseline;color:#000000;fill:#000000;fill-opacity:1;stroke:none;stroke-width:1;marker:none;visibility:visible;display:inline;overflow:visible;enable-background:accumulate;font-family:Sans;-inkscape-font-specification:Sans"
       d="m 82.3125,70.03125 0.40625,0.25 0.875,0.53125 0.4375,0.25 0.5,-0.875 -0.4375,-0.25 -0.84375,-0.5 -0.4375,-0.25 z"
       id="path4898" />
    <path
       style="font-size:medium;font-style:normal;font-variant:normal;font-weight:normal;font-stretch:normal;text-indent:0;text-align:start;text-decoration:none;line-height:normal;letter-spacing:normal;word-spacing:normal;text-transform:none;direction:ltr;block-progression:tb;writing-mode:lr-tb;text-anchor:start;baseline-shift:baseline;color:#000000;fill:#000000;fill-opacity:1;stroke:none;stroke-width:1;marker:none;visibility:visible;display:inline;overflow:visible;enable-background:accumulate;font-family:Sans;-inkscape-font-specification:Sans"
       d="m 86.59375,72.59375 0.4375,0.25 0.84375,0.5 0.4375,0.28125 0.53125,-0.875 -0.4375,-0.25 -0.875,-0.5 -0.40625,-0.28125 z"
       id="path4896" />
    <path
       style="font-size:medium;font-style:normal;font-variant:normal;font-weight:normal;font-stretch:normal;text-indent:0;text-align:start;text-decoration:none;line-height:normal;letter-spacing:normal;word-spacing:normal;text-transform:none;direction:ltr;block-progression:tb;writing-mode:lr-tb;text-anchor:start;baseline-shift:baseline;color:#000000;fill:#000000;fill-opacity:1;stroke:none;stroke-width:1;marker:none;visibility:visible;display:inline;overflow:visible;enable-background:accumulate;font-family:Sans;-inkscape-font-specification:Sans"
       d="m 90.90625,75.15625 0.40625,0.25 0.875,0.5 0.4375,0.25 0.5,-0.84375 -0.4375,-0.25 -0.84375,-0.53125 -0.4375,-0.25 z"
       id="path4894" />
    <path
       style="font-size:medium;font-style:normal;font-variant:normal;font-weight:normal;font-stretch:normal;text-indent:0;text-align:start;text-decoration:none;line-height:normal;letter-spacing:normal;word-spacing:normal;text-transform:none;direction:ltr;block-progression:tb;writing-mode:lr-tb;text-anchor:start;baseline-shift:baseline;color:#000000;fill:#000000;fill-opacity:1;stroke:none;stroke-width:1;marker:none;visibility:visible;display:inline;overflow:visible;enable-background:accumulate;font-family:Sans;-inkscape-font-specification:Sans"
       d="m 95.1875,77.71875 0.4375,0.25 0.84375,0.5 0.4375,0.25 L 97.4375,77.875 97,77.625 l -0.875,-0.53125 -0.40625,-0.25 z"
       id="path4812" />
    <path
       style="font-size:12px;font-style:normal;font-weight:normal;line-height:125%;letter-spacing:0px;word-spacing:0px;fill:#000000;fill-opacity:1;stroke:none;font-family:Sans"
       d="m 35.138052,91.228474 5.121094,0 0,0.984375 -4.054687,4.716797 4.054687,0 0,0.861328 -5.267578,0 0,-0.984375 4.054687,-4.716797 -3.908203,0 0,-0.861328"
       id="path3018" />
    <path
       style="font-size:12px;font-style:normal;font-weight:normal;line-height:125%;letter-spacing:0px;word-spacing:0px;fill:#000000;fill-opacity:1;stroke:none;font-family:Sans"
       d="m 42.052115,92.341755 7.511719,0 0,0.984375 -7.511719,0 0,-0.984375"
       id="path3041" />
    <path
       style="font-size:12px;font-style:normal;font-weight:normal;line-height:125%;letter-spacing:0px;word-spacing:0px;fill:#000000;fill-opacity:1;stroke:none;font-family:Sans"
       d="m 42.052115,94.73238 7.511719,0 0,0.996094 -7.511719,0 0,-0.996094"
       id="path3020" />
    <path
       style="font-size:12px;font-style:normal;font-weight:normal;line-height:125%;letter-spacing:0px;word-spacing:0px;fill:#000000;fill-opacity:1;stroke:none;font-family:Sans"
       d="m 57.421255,91.228474 -2.373046,3.193359 2.496093,3.369141 -1.271484,0 -1.910156,-2.578125 -1.910157,2.578125 -1.271484,0 2.548828,-3.433594 -2.332031,-3.128906 1.271484,0 1.740235,2.337891 1.740234,-2.337891 1.271484,0"
       id="path3022" />
    <path
       style="font-size:12px;font-style:normal;font-weight:normal;line-height:125%;letter-spacing:0px;word-spacing:0px;fill:#000000;fill-opacity:1;stroke:none;font-family:Sans"
       d="m 62.870474,92.236286 c -0.121098,-0.07031 -0.253911,-0.121088 -0.398437,-0.152343 -0.14063,-0.03515 -0.296879,-0.05273 -0.46875,-0.05273 -0.609379,6e-6 -1.078128,0.199225 -1.40625,0.597657 -0.324221,0.394536 -0.486331,0.962894 -0.486328,1.705078 l 0,3.457031 -1.083985,0 0,-6.5625 1.083985,0 0,1.019531 c 0.22656,-0.398431 0.521481,-0.693353 0.884765,-0.884765 0.363278,-0.195306 0.804684,-0.292962 1.324219,-0.292969 0.07421,7e-6 0.156245,0.0059 0.246094,0.01758 0.08984,0.0078 0.189448,0.02149 0.298828,0.04102 l 0.0059,1.107421"
       id="path3024" />
    <path
       style="font-size:12px;font-style:normal;font-weight:normal;line-height:125%;letter-spacing:0px;word-spacing:0px;fill:#000000;fill-opacity:1;stroke:none;font-family:Sans"
       d="m 64.452505,93.208943 2.484375,0 0,0.667968 -3.503906,0 0,-0.644531 c 0.132812,-0.121089 0.322265,-0.291011 0.56836,-0.509765 1.343747,-1.1914 2.015621,-1.970697 2.015625,-2.337891 -4e-6,-0.257805 -0.101566,-0.464836 -0.304688,-0.621094 -0.203128,-0.160148 -0.470705,-0.240226 -0.802734,-0.240234 -0.203127,8e-6 -0.42383,0.03516 -0.66211,0.105469 -0.238282,0.06641 -0.498047,0.167976 -0.779297,0.304687 l 0,-0.720703 c 0.300781,-0.109366 0.580077,-0.191398 0.837891,-0.246094 0.261717,-0.05468 0.503904,-0.08202 0.726563,-0.08203 0.566403,9e-6 1.019528,0.128915 1.359375,0.386719 0.33984,0.25782 0.509761,0.597664 0.509765,1.019531 -4e-6,0.542976 -0.646487,1.369147 -1.939453,2.478516 -0.218752,0.187504 -0.388673,0.333989 -0.509766,0.439453"
       id="path3026" />
  </g>
</svg>
