<?xml version="1.0" encoding="UTF-8" standalone="no"?>
<!-- Created with Inkscape (http://www.inkscape.org/) -->

<svg
   xmlns:dc="http://purl.org/dc/elements/1.1/"
   xmlns:cc="http://creativecommons.org/ns#"
   xmlns:rdf="http://www.w3.org/1999/02/22-rdf-syntax-ns#"
   xmlns:svg="http://www.w3.org/2000/svg"
   xmlns="http://www.w3.org/2000/svg"
   xmlns:sodipodi="http://sodipodi.sourceforge.net/DTD/sodipodi-0.dtd"
   xmlns:inkscape="http://www.inkscape.org/namespaces/inkscape"
   width="100"
   height="100"
   id="svg2"
   version="1.1"
   inkscape:version="0.48.0 r9654"
   sodipodi:docname="2011-(03)mar-02, 01.svg">
  <defs
     id="defs4">
    <marker
       inkscape:stockid="Arrow2Lend"
       orient="auto"
       refY="0.0"
       refX="0.0"
       id="Arrow2Lend"
       style="overflow:visible;">
      <path
         id="path4198"
         style="font-size:12.0;fill-rule:evenodd;stroke-width:0.62500000;stroke-linejoin:round;"
         d="M 8.7185878,4.0337352 L -2.2072895,0.016013256 L 8.7185884,-4.0017078 C 6.9730900,-1.6296469 6.9831476,1.6157441 8.7185878,4.0337352 z "
         transform="scale(1.1) rotate(180) translate(1,0)" />
    </marker>
  </defs>
  <sodipodi:namedview
     id="base"
     pagecolor="#ffffff"
     bordercolor="#666666"
     borderopacity="1.0"
     inkscape:pageopacity="0.0"
     inkscape:pageshadow="2"
     inkscape:zoom="4"
     inkscape:cx="77.24032"
     inkscape:cy="62.149718"
     inkscape:document-units="px"
     inkscape:current-layer="layer1"
     showgrid="false"
     inkscape:window-width="1589"
     inkscape:window-height="1117"
     inkscape:window-x="1600"
     inkscape:window-y="27"
     inkscape:window-maximized="1"
     showguides="true"
     inkscape:guide-bbox="true" />
  <metadata
     id="metadata7">
    <rdf:RDF>
      <cc:Work
         rdf:about="">
        <dc:format>image/svg+xml</dc:format>
        <dc:type
           rdf:resource="http://purl.org/dc/dcmitype/StillImage" />
        <dc:title></dc:title>
      </cc:Work>
    </rdf:RDF>
  </metadata>
  <g
     inkscape:label="Layer 1"
     inkscape:groupmode="layer"
     id="layer1">
    <path
       style="font-size:medium;font-style:normal;font-variant:normal;font-weight:normal;font-stretch:normal;text-indent:0;text-align:start;text-decoration:none;line-height:normal;letter-spacing:normal;word-spacing:normal;text-transform:none;direction:ltr;block-progression:tb;writing-mode:lr-tb;text-anchor:start;baseline-shift:baseline;color:#000000;fill:#000000;fill-opacity:1;stroke:none;stroke-width:1;marker:none;visibility:visible;display:inline;overflow:visible;enable-background:accumulate;font-family:Sans;-inkscape-font-specification:Sans"
       d="M 49.9375 8.125 A 0.50005 0.50005 0 0 0 49.53125 8.40625 L 13 71.65625 A 0.50005 0.50005 0 0 0 13.4375 72.4375 L 86.53125 72.4375 A 0.50005 0.50005 0 0 0 86.9375 71.6875 L 50.4375 8.40625 A 0.50005 0.50005 0 0 0 49.9375 8.125 z M 50 9.65625 L 85.65625 71.4375 L 14.34375 71.40625 L 50 9.65625 z "
       id="path5020" />
    <path
       style="font-size:12px;fill-rule:evenodd;stroke-width:0.625;stroke-linejoin:round"
       d="m 74.791807,42.815096 -9.817049,-8.221982 2.151744,12.62321 c 1.30674,-2.964336 4.408147,-4.732331 7.665305,-4.401228 z"
       id="path4853"
       inkscape:connector-curvature="0"
       inkscape:transform-center-x="16.512387"
       inkscape:transform-center-y="-30.995666" />
    <path
       style="font-size:12px;font-style:normal;font-weight:normal;line-height:125%;letter-spacing:0px;word-spacing:0px;fill:#000000;fill-opacity:1;stroke:none;font-family:Sans"
       d="m 53.131229,92.334355 c -0.12109,-0.0703 -0.25391,-0.12109 -0.39843,-0.15234 -0.14063,-0.0352 -0.29688,-0.0527 -0.46875,-0.0527 -0.60938,10e-6 -1.07813,0.19923 -1.40625,0.59766 -0.32422,0.39454 -0.48633,0.9629 -0.48633,1.70508 l 0,3.45703 -1.08399,0 0,-6.5625 1.08399,0 0,1.01953 c 0.22656,-0.39843 0.52148,-0.69335 0.88476,-0.88476 0.36328,-0.19531 0.80469,-0.29297 1.32422,-0.29297 0.0742,0 0.15625,0.006 0.2461,0.0176 0.0898,0.008 0.18944,0.0215 0.29882,0.041 l 0.006,1.10742"
       id="path4819"
       inkscape:connector-curvature="0" />
  </g>
</svg>
