<?xml version="1.0" encoding="UTF-8" standalone="no"?>
<!-- Created with Inkscape (http://www.inkscape.org/) -->

<svg
   xmlns:dc="http://purl.org/dc/elements/1.1/"
   xmlns:cc="http://creativecommons.org/ns#"
   xmlns:rdf="http://www.w3.org/1999/02/22-rdf-syntax-ns#"
   xmlns:svg="http://www.w3.org/2000/svg"
   xmlns="http://www.w3.org/2000/svg"
   xmlns:sodipodi="http://sodipodi.sourceforge.net/DTD/sodipodi-0.dtd"
   xmlns:inkscape="http://www.inkscape.org/namespaces/inkscape"
   width="370"
   height="160"
   id="svg2"
   version="1.1"
   inkscape:version="0.48.0 r9654"
   sodipodi:docname="2011-(03)mar-02, 10.svg">
  <defs
     id="defs4" />
  <sodipodi:namedview
     id="base"
     pagecolor="#ffffff"
     bordercolor="#666666"
     borderopacity="1.0"
     inkscape:pageopacity="0.0"
     inkscape:pageshadow="2"
     inkscape:zoom="1.4142136"
     inkscape:cx="302.23028"
     inkscape:cy="66.639786"
     inkscape:document-units="px"
     inkscape:current-layer="layer1"
     showgrid="false"
     inkscape:window-width="1589"
     inkscape:window-height="1117"
     inkscape:window-x="1600"
     inkscape:window-y="27"
     inkscape:window-maximized="1"
     showguides="true"
     inkscape:guide-bbox="true" />
  <metadata
     id="metadata7">
    <rdf:RDF>
      <cc:Work
         rdf:about="">
        <dc:format>image/svg+xml</dc:format>
        <dc:type
           rdf:resource="http://purl.org/dc/dcmitype/StillImage" />
        <dc:title />
      </cc:Work>
    </rdf:RDF>
  </metadata>
  <g
     inkscape:label="Layer 1"
     inkscape:groupmode="layer"
     id="layer1">
    <path
       style="font-size:12px;font-style:normal;font-weight:normal;line-height:125%;letter-spacing:0px;word-spacing:0px;fill:#000000;fill-opacity:1;stroke:none;font-family:Sans"
       d="m 21.112753,89.118795 c -0.351566,7e-6 -0.722659,0.01563 -1.09375,0.09375 -0.371095,0.07423 -0.76172,0.191413 -1.15625,0.34375 l 0,1 c 0.328123,-0.179682 0.67578,-0.3164 1.03125,-0.40625 0.355467,-0.08984 0.718747,-0.124994 1.09375,-0.125 0.589839,6e-6 1.050777,0.132818 1.375,0.40625 0.32812,0.269536 0.499995,0.660161 0.5,1.15625 l 0,0.09375 -1.5,0 c -0.980471,4e-6 -1.722658,0.187504 -2.21875,0.5625 -0.492188,0.375003 -0.750001,0.949221 -0.75,1.6875 -1e-6,0.632813 0.199218,1.121094 0.59375,1.5 0.398436,0.375 0.921873,0.5625 1.59375,0.5625 0.531246,0 0.976559,-0.09375 1.34375,-0.28125 0.367183,-0.191406 0.691401,-0.476562 0.9375,-0.875 l 0,1 1.0625,0 0,-3.75 c -6e-6,-0.999995 -0.218756,-1.757807 -0.6875,-2.25 -0.468755,-0.492181 -1.175786,-0.718743 -2.125,-0.71875 z m 0.6875,3.40625 1.0625,0 0,0.25 c -5e-6,0.703128 -0.199224,1.26172 -0.5625,1.6875 -0.359379,0.421876 -0.808597,0.625001 -1.40625,0.625 -0.433596,10e-7 -0.777346,-0.08984 -1.03125,-0.3125 -0.250002,-0.226562 -0.375002,-0.554686 -0.375,-0.9375 -2e-6,-0.480466 0.164061,-0.800779 0.5,-1 0.335935,-0.199218 0.941403,-0.312497 1.8125,-0.3125 z"
       id="path3160"
       inkscape:connector-curvature="0" />
    <path
       style="fill:none;stroke:#000000;stroke-width:1px;stroke-linecap:butt;stroke-linejoin:miter;stroke-opacity:1"
       d="m 4.9497477,34.231927 213.5462423,0"
       id="path3137"
       inkscape:connector-curvature="0" />
    <path
       style="fill:none;stroke:#000000;stroke-width:1px;stroke-linecap:butt;stroke-linejoin:miter;stroke-opacity:1"
       d="m 35.941126,6.6547622 0,146.3710978"
       id="path3139"
       inkscape:connector-curvature="0" />
    <path
       style="font-size:12px;font-style:normal;font-weight:normal;line-height:125%;letter-spacing:0px;word-spacing:0px;fill:#000000;fill-opacity:1;stroke:none;font-family:Sans"
       d="m 20.641294,22.620844 -2.507812,-1.447265 0.498047,-0.861329 2.507812,1.447266 0,-2.900391 0.984375,0 0,2.900391 2.507813,-1.447266 0.498047,0.861329 -2.507813,1.447265 2.507813,1.447266 -0.498047,0.861328 -2.507813,-1.447266 0,2.900391 -0.984375,0 0,-2.900391 -2.507812,1.447266 -0.498047,-0.861328 2.507812,-1.447266"
       id="path3156"
       inkscape:connector-curvature="0" />
    <path
       style="font-size:12px;font-style:normal;font-weight:normal;line-height:125%;letter-spacing:0px;word-spacing:0px;fill:#000000;fill-opacity:1;stroke:none;font-family:Sans"
       d="m 131.06512,19.820063 -2.37305,3.193359 2.49609,3.369141 -1.27148,0 -1.91016,-2.578125 -1.91015,2.578125 -1.27149,0 2.54883,-3.433594 -2.33203,-3.128906 1.27148,0 1.74024,2.337891 1.74023,-2.337891 1.27149,0"
       id="path3158"
       inkscape:connector-curvature="0" />
    <path
       style="font-size:12px;font-style:normal;font-weight:normal;line-height:125%;letter-spacing:0px;word-spacing:0px;fill:#000000;fill-opacity:1;stroke:none;font-family:Sans"
       d="m 124.82293,87.984073 0,9.125 1.09375,0 0,-1 c 0.22656,0.390626 0.49999,0.683594 0.84375,0.875 0.34765,0.18755 0.76953,0.28125 1.25,0.28125 0.79687,0 1.4414,-0.304687 1.9375,-0.9375 0.49999,-0.632811 0.74999,-1.468747 0.75,-2.5 -1e-5,-1.031245 -0.25001,-1.867183 -0.75,-2.5 -0.4961,-0.632807 -1.14063,-0.937493 -1.9375,-0.9375 -0.48047,7e-6 -0.90235,0.08985 -1.25,0.28125 -0.34376,0.187506 -0.61719,0.484381 -0.84375,0.875 l 0,-3.5625 -1.09375,0 z m 2.90625,3.3125 c 0.57031,5e-6 1.01953,0.203131 1.34375,0.65625 0.32812,0.449223 0.49999,1.082036 0.5,1.875 -1e-5,0.792972 -0.17188,1.421877 -0.5,1.875 -0.32422,0.44922 -0.77344,0.656251 -1.34375,0.65625 -0.57031,1e-6 -1.01563,-0.20703 -1.34375,-0.65625 -0.32422,-0.453123 -0.46875,-1.082028 -0.46875,-1.875 0,-0.792964 0.14453,-1.425777 0.46875,-1.875 0.32812,-0.453119 0.77344,-0.656245 1.34375,-0.65625 z"
       id="path3183"
       inkscape:connector-curvature="0" />
    <path
       style="font-size:12px;font-style:normal;font-weight:normal;line-height:125%;letter-spacing:0px;word-spacing:0px;fill:#000000;fill-opacity:1;stroke:none;font-family:Sans"
       d="M 186.4375 118.75 L 186.4375 127.5 L 187.625 127.5 L 187.625 123.96875 L 189.125 123.96875 C 190.10546 123.96876 190.84375 123.75391 191.34375 123.3125 C 191.84765 122.87109 192.09375 122.23829 192.09375 121.375 C 192.09375 120.51954 191.84765 119.84766 191.34375 119.40625 C 190.84375 118.96095 190.10546 118.75001 189.125 118.75 L 186.4375 118.75 z M 187.625 119.71875 L 189.125 119.71875 C 189.67578 119.71875 190.10547 119.8711 190.40625 120.15625 C 190.70703 120.44141 190.84375 120.85157 190.84375 121.375 C 190.84375 121.90235 190.70703 122.3086 190.40625 122.59375 C 190.10547 122.87892 189.67578 123 189.125 123 L 187.625 123 L 187.625 119.71875 z "
       id="path3202" />
    <path
       style="font-size:12px;font-style:normal;font-weight:normal;line-height:125%;letter-spacing:0px;word-spacing:0px;fill:#000000;fill-opacity:1;stroke:none;font-family:Sans"
       d="m 197.2345,121.94365 c -0.12109,-0.0703 -0.25391,-0.12109 -0.39843,-0.15234 -0.14063,-0.0352 -0.29688,-0.0527 -0.46875,-0.0527 -0.60938,1e-5 -1.07813,0.19923 -1.40625,0.59766 -0.32422,0.39454 -0.48633,0.9629 -0.48633,1.70508 l 0,3.45703 -1.08399,0 0,-6.5625 1.08399,0 0,1.01953 c 0.22656,-0.39843 0.52148,-0.69335 0.88476,-0.88476 0.36328,-0.19531 0.80469,-0.29297 1.32422,-0.29297 0.0742,0 0.15625,0.006 0.2461,0.0176 0.0898,0.008 0.18944,0.0215 0.29882,0.041 l 0.006,1.10742"
       id="path3204" />
    <path
       style="font-size:12px;font-style:normal;font-weight:normal;line-height:125%;letter-spacing:0px;word-spacing:0px;fill:#000000;fill-opacity:1;stroke:none;font-family:Sans"
       d="M 200.875 120.78125 C 199.89062 120.78125 199.11328 121.08594 198.53125 121.71875 C 197.95312 122.34766 197.65625 123.20704 197.65625 124.28125 C 197.65625 125.32032 197.95313 126.14063 198.5625 126.75 C 199.17578 127.35937 200.01562 127.65625 201.0625 127.65625 C 201.48046 127.65625 201.875 127.61715 202.28125 127.53125 C 202.6875 127.44531 203.08202 127.32031 203.46875 127.15625 L 203.46875 126.15625 C 203.08593 126.35938 202.70312 126.49218 202.3125 126.59375 C 201.92578 126.69529 201.53906 126.75 201.125 126.75 C 200.41015 126.75 199.83984 126.57422 199.4375 126.1875 C 199.03906 125.79688 198.82815 125.21094 198.78125 124.46875 L 203.71875 124.46875 L 203.71875 123.9375 C 203.71874 122.96094 203.48437 122.19141 202.96875 121.625 C 202.45703 121.05469 201.7578 120.78125 200.875 120.78125 z M 200.875 121.6875 C 201.40625 121.68751 201.83593 121.8672 202.15625 122.21875 C 202.48046 122.57032 202.64825 123.03516 202.65625 123.625 L 198.8125 123.625 C 198.86718 123.00782 199.07812 122.52735 199.4375 122.1875 C 199.80078 121.84767 200.27344 121.68751 200.875 121.6875 z "
       id="path3481" />
    <path
       style="font-size:12px;font-style:normal;font-weight:normal;line-height:125%;letter-spacing:0px;word-spacing:0px;fill:#000000;fill-opacity:1;stroke:none;font-family:Sans"
       d="m 210.22474,121.18779 0,1.00782 c -0.30469,-0.16797 -0.61134,-0.29297 -0.91992,-0.375 -0.3047,-0.0859 -0.61329,-0.1289 -0.92579,-0.12891 -0.69922,1e-5 -1.24219,0.22266 -1.6289,0.66797 -0.38672,0.44141 -0.58008,1.0625 -0.58008,1.86328 0,0.80078 0.19336,1.42383 0.58008,1.86914 0.38671,0.44141 0.92968,0.66211 1.6289,0.66211 0.3125,0 0.62109,-0.041 0.92579,-0.12305 0.30858,-0.0859 0.61523,-0.21289 0.91992,-0.38086 l 0,0.9961 c -0.30079,0.14062 -0.61329,0.24609 -0.9375,0.3164 -0.32032,0.0703 -0.66212,0.10547 -1.02539,0.10547 -0.98829,0 -1.77344,-0.31054 -2.35547,-0.93164 -0.58203,-0.62109 -0.87305,-1.45898 -0.87305,-2.51367 0,-1.07031 0.29297,-1.9121 0.87891,-2.52539 0.58984,-0.61328 1.39648,-0.91992 2.41992,-0.91992 0.33203,0 0.65625,0.0352 0.97266,0.10547 0.3164,0.0664 0.62304,0.16797 0.91992,0.30468"
       id="path3208" />
    <path
       style="font-size:12px;font-style:normal;font-weight:normal;line-height:125%;letter-spacing:0px;word-spacing:0px;fill:#000000;fill-opacity:1;stroke:none;font-family:Sans"
       d="m 212.11146,120.93584 1.07812,0 0,6.5625 -1.07812,0 0,-6.5625"
       id="path3475" />
    <path
       style="font-size:12px;font-style:normal;font-weight:normal;line-height:125%;letter-spacing:0px;word-spacing:0px;fill:#000000;fill-opacity:1;stroke:none;font-family:Sans"
       d="m 212.11146,118.38115 1.07812,0 0,1.36523 -1.07812,0 0,-1.36523"
       id="path3210" />
    <path
       style="font-size:12px;font-style:normal;font-weight:normal;line-height:125%;letter-spacing:0px;word-spacing:0px;fill:#000000;fill-opacity:1;stroke:none;font-family:Sans"
       d="m 219.62318,121.1292 0,1.01953 c -0.3047,-0.15624 -0.6211,-0.27343 -0.94922,-0.35156 -0.32813,-0.0781 -0.66798,-0.11718 -1.01953,-0.11719 -0.53516,1e-5 -0.93751,0.082 -1.20704,0.24609 -0.26562,0.16407 -0.39843,0.41017 -0.39843,0.73829 0,0.25 0.0957,0.44727 0.28711,0.59179 0.1914,0.14063 0.57617,0.2754 1.15429,0.4043 l 0.36914,0.082 c 0.76562,0.16407 1.30859,0.39649 1.62891,0.69727 0.32421,0.29687 0.48632,0.71289 0.48633,1.24804 -1e-5,0.60938 -0.24219,1.0918 -0.72656,1.44727 -0.48048,0.35547 -1.14259,0.5332 -1.98633,0.5332 -0.35157,0 -0.71875,-0.0352 -1.10157,-0.10547 -0.3789,-0.0664 -0.77929,-0.16797 -1.20117,-0.30468 l 0,-1.11329 c 0.39844,0.20704 0.79102,0.36329 1.17774,0.46875 0.38671,0.10157 0.76953,0.15235 1.14843,0.15235 0.50781,0 0.89844,-0.0859 1.17188,-0.25781 0.27343,-0.17578 0.41015,-0.42188 0.41016,-0.73829 -1e-5,-0.29296 -0.0996,-0.51757 -0.29883,-0.67382 -0.19532,-0.15625 -0.62696,-0.30664 -1.29492,-0.45118 l -0.375,-0.0879 c -0.66797,-0.14062 -1.1504,-0.35546 -1.44727,-0.64453 -0.29688,-0.29296 -0.44531,-0.69335 -0.44531,-1.20117 0,-0.61718 0.21875,-1.09374 0.65625,-1.42969 0.4375,-0.33593 1.05859,-0.5039 1.86328,-0.5039 0.39843,0 0.77343,0.0293 1.125,0.0879 0.35156,0.0586 0.67578,0.14649 0.97266,0.26367"
       id="path3212" />
    <path
       style="font-size:12px;font-style:normal;font-weight:normal;line-height:125%;letter-spacing:0px;word-spacing:0px;fill:#000000;fill-opacity:1;stroke:none;font-family:Sans"
       d="M 228.28125 120.78125 C 227.29688 120.78125 226.48828 121.08594 225.90625 121.71875 C 225.32813 122.34766 225.0625 123.20704 225.0625 124.28125 C 225.0625 125.32032 225.35937 126.14063 225.96875 126.75 C 226.58203 127.35937 227.42188 127.65625 228.46875 127.65625 C 228.88672 127.65625 229.28125 127.61715 229.6875 127.53125 C 230.09375 127.44531 230.48828 127.32031 230.875 127.15625 L 230.875 126.15625 C 230.49219 126.35938 230.10937 126.49218 229.71875 126.59375 C 229.33203 126.69529 228.9453 126.75 228.53125 126.75 C 227.8164 126.75 227.24609 126.57422 226.84375 126.1875 C 226.44531 125.79688 226.2344 125.21094 226.1875 124.46875 L 231.125 124.46875 L 231.125 123.9375 C 231.12499 122.96094 230.85937 122.19141 230.34375 121.625 C 229.83203 121.05469 229.16406 120.78125 228.28125 120.78125 z M 228.28125 121.6875 C 228.8125 121.68751 229.24218 121.8672 229.5625 122.21875 C 229.88671 122.57032 230.0545 123.03516 230.0625 123.625 L 226.21875 123.625 C 226.27344 123.00782 226.48437 122.52735 226.84375 122.1875 C 227.20703 121.84767 227.67969 121.68751 228.28125 121.6875 z "
       id="path3469" />
    <path
       style="font-size:12px;font-style:normal;font-weight:normal;line-height:125%;letter-spacing:0px;word-spacing:0px;fill:#000000;fill-opacity:1;stroke:none;font-family:Sans"
       d="m 238.3556,123.5374 0,3.96094 -1.07813,0 0,-3.92578 c 0,-0.62109 -0.1211,-1.08593 -0.36328,-1.39453 -0.24219,-0.30859 -0.60547,-0.46289 -1.08984,-0.46289 -0.58204,0 -1.04102,0.18555 -1.37696,0.55664 -0.33594,0.3711 -0.5039,0.87695 -0.5039,1.51758 l 0,3.70898 -1.08399,0 0,-6.5625 1.08399,0 0,1.01953 c 0.25781,-0.39452 0.56054,-0.68945 0.9082,-0.88476 0.35156,-0.19531 0.75586,-0.29297 1.21289,-0.29297 0.7539,0 1.32422,0.23438 1.71094,0.70312 0.38671,0.46485 0.58007,1.1504 0.58008,2.05664"
       id="path3216" />
    <path
       style="font-size:12px;font-style:normal;font-weight:normal;line-height:125%;letter-spacing:0px;word-spacing:0px;fill:#000000;fill-opacity:1;stroke:none;font-family:Sans"
       d="M 246.5625 120.78125 C 245.75781 120.78125 245.08594 121.07422 244.59375 121.6875 C 244.10156 122.30079 243.875 123.14063 243.875 124.15625 C 243.875 125.16797 244.10156 125.98047 244.59375 126.59375 C 245.08594 127.20703 245.75781 127.5 246.5625 127.5 C 247.04687 127.5 247.46484 127.41016 247.8125 127.21875 C 248.16015 127.02734 248.43359 126.73047 248.65625 126.34375 L 248.65625 126.875 C 248.65624 127.62109 248.47656 128.19531 248.125 128.5625 C 247.77344 128.93359 247.23828 129.09375 246.53125 129.09375 C 246.21094 129.09375 245.90235 129.05075 245.59375 128.96875 C 245.28516 128.88672 244.97266 128.76563 244.65625 128.59375 L 244.65625 129.65625 C 244.97266 129.77344 245.28906 129.85155 245.625 129.90625 C 245.96094 129.96485 246.33984 130 246.71875 130 C 247.74218 130 248.5039 129.73437 249 129.1875 C 249.49609 128.64453 249.75 127.80468 249.75 126.6875 L 249.75 120.9375 L 248.65625 120.9375 L 248.65625 121.9375 C 248.43359 121.55079 248.16015 121.25391 247.8125 121.0625 C 247.46484 120.87109 247.04687 120.78125 246.5625 120.78125 z M 246.8125 121.6875 C 247.39453 121.68751 247.83593 121.88282 248.15625 122.3125 C 248.48046 122.74219 248.65624 123.375 248.65625 124.15625 C 248.65624 124.93359 248.48046 125.50782 248.15625 125.9375 C 247.83593 126.36719 247.39453 126.59375 246.8125 126.59375 C 246.23438 126.59375 245.79297 126.36719 245.46875 125.9375 C 245.14843 125.50782 244.96875 124.93359 244.96875 124.15625 C 244.96875 123.375 245.14843 122.74219 245.46875 122.3125 C 245.79297 121.88282 246.23438 121.68751 246.8125 121.6875 z "
       id="path3218" />
    <path
       style="font-size:12px;font-style:normal;font-weight:normal;line-height:125%;letter-spacing:0px;word-spacing:0px;fill:#000000;fill-opacity:1;stroke:none;font-family:Sans"
       d="M 254.25 120.78125 C 253.89844 120.78125 253.55859 120.82815 253.1875 120.90625 C 252.8164 120.98048 252.42578 121.09766 252.03125 121.25 L 252.03125 122.21875 C 252.35937 122.03907 252.70703 121.9024 253.0625 121.8125 C 253.41797 121.72264 253.78125 121.68751 254.15625 121.6875 C 254.74609 121.68751 255.20702 121.82031 255.53125 122.09375 C 255.85937 122.36328 256 122.75391 256 123.25 L 256 123.34375 L 254.5 123.34375 C 253.51952 123.34376 252.77734 123.53126 252.28125 123.90625 C 251.78906 124.28126 251.53125 124.85548 251.53125 125.59375 C 251.53125 126.22657 251.73047 126.71485 252.125 127.09375 C 252.52343 127.46875 253.07812 127.65625 253.75 127.65625 C 254.28124 127.65625 254.72656 127.5625 255.09375 127.375 C 255.46094 127.1836 255.75391 126.89843 256 126.5 L 256 127.5 L 257.09375 127.5 L 257.09375 123.75 C 257.09374 122.75 256.84375 122.02344 256.375 121.53125 C 255.90625 121.03907 255.19922 120.78125 254.25 120.78125 z M 254.9375 124.1875 L 256 124.1875 L 256 124.4375 C 256 125.14062 255.83203 125.69922 255.46875 126.125 C 255.10937 126.54687 254.6289 126.78125 254.03125 126.78125 C 253.59765 126.78125 253.2539 126.66016 253 126.4375 C 252.74999 126.21094 252.62499 125.91407 252.625 125.53125 C 252.62499 125.05078 252.78906 124.69922 253.125 124.5 C 253.46094 124.30077 254.0664 124.18751 254.9375 124.1875 z "
       id="path3457" />
    <path
       style="font-size:12px;font-style:normal;font-weight:normal;line-height:125%;letter-spacing:0px;word-spacing:0px;fill:#000000;fill-opacity:1;stroke:none;font-family:Sans"
       d="M 254.3125 116.96875 C 253.86327 116.96876 253.46875 117.12501 253.15625 117.4375 C 252.84765 117.7461 252.6875 118.11329 252.6875 118.5625 C 252.6875 119.01173 252.84765 119.40626 253.15625 119.71875 C 253.46875 120.03126 253.86327 120.18751 254.3125 120.1875 C 254.76171 120.18751 255.12891 120.03126 255.4375 119.71875 C 255.75 119.40626 255.90625 119.01173 255.90625 118.5625 C 255.90625 118.11329 255.75 117.7461 255.4375 117.4375 C 255.12891 117.12501 254.76171 116.96876 254.3125 116.96875 z M 254.3125 117.6875 C 254.56249 117.68751 254.76562 117.76563 254.9375 117.9375 C 255.10941 118.10938 255.1875 118.31642 255.1875 118.5625 C 255.1875 118.81251 255.10937 119.01564 254.9375 119.1875 C 254.76562 119.35941 254.56249 119.46876 254.3125 119.46875 C 254.05859 119.46876 253.82813 119.38673 253.65625 119.21875 C 253.4883 119.04689 253.40625 118.81641 253.40625 118.5625 C 253.40625 118.31251 253.48828 118.10547 253.65625 117.9375 C 253.82813 117.76558 254.05859 117.68751 254.3125 117.6875 z "
       id="path3220" />
    <path
       style="font-size:12px;font-style:normal;font-weight:normal;line-height:125%;letter-spacing:0px;word-spacing:0px;fill:#000000;fill-opacity:1;stroke:none;font-family:Sans"
       d="m 264.76966,123.5374 0,3.96094 -1.07813,0 0,-3.92578 c 0,-0.62109 -0.12109,-1.08593 -0.36328,-1.39453 -0.24219,-0.30859 -0.60547,-0.46289 -1.08984,-0.46289 -0.58203,0 -1.04102,0.18555 -1.37695,0.55664 -0.33594,0.3711 -0.50391,0.87695 -0.50391,1.51758 l 0,3.70898 -1.08398,0 0,-6.5625 1.08398,0 0,1.01953 c 0.25781,-0.39452 0.56054,-0.68945 0.9082,-0.88476 0.35156,-0.19531 0.75586,-0.29297 1.21289,-0.29297 0.75391,0 1.32422,0.23438 1.71094,0.70312 0.38671,0.46485 0.58007,1.1504 0.58008,2.05664"
       id="path3222" />
    <path
       style="font-size:12px;font-style:normal;font-weight:normal;line-height:125%;letter-spacing:0px;word-spacing:0px;fill:#000000;fill-opacity:1;stroke:none;font-family:Sans"
       d="M 269.15625 120.78125 C 268.35156 120.78125 267.67969 121.07422 267.1875 121.6875 C 266.69531 122.30079 266.46875 123.14063 266.46875 124.15625 C 266.46875 125.16797 266.69531 125.98047 267.1875 126.59375 C 267.67969 127.20703 268.35156 127.5 269.15625 127.5 C 269.64062 127.5 270.05859 127.41016 270.40625 127.21875 C 270.7539 127.02734 271.02734 126.73047 271.25 126.34375 L 271.25 126.875 C 271.24999 127.62109 271.07031 128.19531 270.71875 128.5625 C 270.36719 128.93359 269.83203 129.09375 269.125 129.09375 C 268.80469 129.09375 268.4961 129.05075 268.1875 128.96875 C 267.87891 128.88672 267.56641 128.76563 267.25 128.59375 L 267.25 129.65625 C 267.56641 129.77344 267.88281 129.85155 268.21875 129.90625 C 268.55469 129.96485 268.93359 130 269.3125 130 C 270.33593 130 271.09765 129.73437 271.59375 129.1875 C 272.08984 128.64453 272.34375 127.80468 272.34375 126.6875 L 272.34375 120.9375 L 271.25 120.9375 L 271.25 121.9375 C 271.02734 121.55079 270.7539 121.25391 270.40625 121.0625 C 270.05859 120.87109 269.64062 120.78125 269.15625 120.78125 z M 269.40625 121.6875 C 269.98828 121.68751 270.42968 121.88282 270.75 122.3125 C 271.07421 122.74219 271.24999 123.375 271.25 124.15625 C 271.24999 124.93359 271.07421 125.50782 270.75 125.9375 C 270.42968 126.36719 269.98828 126.59375 269.40625 126.59375 C 268.82813 126.59375 268.38672 126.36719 268.0625 125.9375 C 267.74218 125.50782 267.5625 124.93359 267.5625 124.15625 C 267.5625 123.375 267.74218 122.74219 268.0625 122.3125 C 268.38672 121.88282 268.82813 121.68751 269.40625 121.6875 z "
       id="path3224" />
    <path
       style="font-size:12px;font-style:normal;font-weight:normal;line-height:125%;letter-spacing:0px;word-spacing:0px;fill:#000000;fill-opacity:1;stroke:none;font-family:Sans"
       d="m 278.36927,120.93584 1.07812,0 0,6.5625 -1.07812,0 0,-6.5625"
       id="path3445" />
    <path
       style="font-size:12px;font-style:normal;font-weight:normal;line-height:125%;letter-spacing:0px;word-spacing:0px;fill:#000000;fill-opacity:1;stroke:none;font-family:Sans"
       d="m 278.36927,118.38115 1.07812,0 0,1.36523 -1.07812,0 0,-1.36523"
       id="path3226" />
    <path
       style="font-size:12px;font-style:normal;font-weight:normal;line-height:125%;letter-spacing:0px;word-spacing:0px;fill:#000000;fill-opacity:1;stroke:none;font-family:Sans"
       d="m 284.74427,120.93584 1.14258,0 2.05078,5.50781 2.05078,-5.50781 1.14258,0 -2.46094,6.5625 -1.46484,0 -2.46094,-6.5625"
       id="path3228" />
    <path
       style="font-size:12px;font-style:normal;font-weight:normal;line-height:125%;letter-spacing:0px;word-spacing:0px;fill:#000000;fill-opacity:1;stroke:none;font-family:Sans"
       d="M 294.9375 120.78125 C 294.58594 120.78125 294.21484 120.82815 293.84375 120.90625 C 293.47265 120.98048 293.08203 121.09766 292.6875 121.25 L 292.6875 122.21875 C 293.01563 122.03907 293.36328 121.9024 293.71875 121.8125 C 294.07422 121.72264 294.43749 121.68751 294.8125 121.6875 C 295.40234 121.68751 295.86328 121.82031 296.1875 122.09375 C 296.51562 122.36328 296.68749 122.75391 296.6875 123.25 L 296.6875 123.34375 L 295.15625 123.34375 C 294.17578 123.34376 293.4336 123.53126 292.9375 123.90625 C 292.44532 124.28126 292.21875 124.85548 292.21875 125.59375 C 292.21875 126.22657 292.41797 126.71485 292.8125 127.09375 C 293.21094 127.46875 293.73437 127.65625 294.40625 127.65625 C 294.9375 127.65625 295.38281 127.5625 295.75 127.375 C 296.11719 127.1836 296.4414 126.89843 296.6875 126.5 L 296.6875 127.5 L 297.75 127.5 L 297.75 123.75 C 297.75 122.75 297.53124 122.02344 297.0625 121.53125 C 296.59374 121.03907 295.88672 120.78125 294.9375 120.78125 z M 295.59375 124.1875 L 296.6875 124.1875 L 296.6875 124.4375 C 296.68749 125.14062 296.48828 125.69922 296.125 126.125 C 295.76563 126.54687 295.28515 126.78125 294.6875 126.78125 C 294.2539 126.78125 293.91015 126.66016 293.65625 126.4375 C 293.40625 126.21094 293.28125 125.91407 293.28125 125.53125 C 293.28125 125.05078 293.44531 124.69922 293.78125 124.5 C 294.11719 124.30077 294.72265 124.18751 295.59375 124.1875 z "
       id="path3230" />
    <path
       style="font-size:12px;font-style:normal;font-weight:normal;line-height:125%;letter-spacing:0px;word-spacing:0px;fill:#000000;fill-opacity:1;stroke:none;font-family:Sans"
       d="m 303.78138,121.94365 c -0.1211,-0.0703 -0.25391,-0.12109 -0.39844,-0.15234 -0.14063,-0.0352 -0.29688,-0.0527 -0.46875,-0.0527 -0.60938,1e-5 -1.07813,0.19923 -1.40625,0.59766 -0.32422,0.39454 -0.48633,0.9629 -0.48633,1.70508 l 0,3.45703 -1.08398,0 0,-6.5625 1.08398,0 0,1.01953 c 0.22656,-0.39843 0.52148,-0.69335 0.88477,-0.88476 0.36328,-0.19531 0.80468,-0.29297 1.32422,-0.29297 0.0742,0 0.15624,0.006 0.24609,0.0176 0.0898,0.008 0.18945,0.0215 0.29883,0.041 l 0.006,1.10742"
       id="path3232" />
    <path
       style="font-size:12px;font-style:normal;font-weight:normal;line-height:125%;letter-spacing:0px;word-spacing:0px;fill:#000000;fill-opacity:1;stroke:none;font-family:Sans"
       d="m 304.92396,120.93584 1.07812,0 0,6.67969 c 0,0.83593 -0.16016,1.4414 -0.48047,1.8164 -0.3164,0.375 -0.82812,0.5625 -1.53515,0.5625 l -0.41016,0 0,-0.91406 0.28711,0 c 0.41016,0 0.68945,-0.0957 0.83789,-0.28711 0.14844,-0.1875 0.22266,-0.58008 0.22266,-1.17773 l 0,-6.67969"
       id="path3433" />
    <path
       style="font-size:12px;font-style:normal;font-weight:normal;line-height:125%;letter-spacing:0px;word-spacing:0px;fill:#000000;fill-opacity:1;stroke:none;font-family:Sans"
       d="m 304.92396,118.38115 1.07812,0 0,1.36523 -1.07812,0 0,-1.36523"
       id="path3234" />
    <path
       style="font-size:12px;font-style:normal;font-weight:normal;line-height:125%;letter-spacing:0px;word-spacing:0px;fill:#000000;fill-opacity:1;stroke:none;font-family:Sans"
       d="M 311 120.78125 C 310.01562 120.78125 309.23828 121.08594 308.65625 121.71875 C 308.07812 122.34766 307.78125 123.20704 307.78125 124.28125 C 307.78125 125.32032 308.07813 126.14063 308.6875 126.75 C 309.30078 127.35937 310.14062 127.65625 311.1875 127.65625 C 311.60546 127.65625 312.03124 127.61715 312.4375 127.53125 C 312.84374 127.44531 313.23828 127.32031 313.625 127.15625 L 313.625 126.15625 C 313.24218 126.35938 312.85937 126.49218 312.46875 126.59375 C 312.08203 126.69529 311.66406 126.75 311.25 126.75 C 310.53515 126.75 309.96484 126.57422 309.5625 126.1875 C 309.16406 125.79688 308.95315 125.21094 308.90625 124.46875 L 313.875 124.46875 L 313.875 123.9375 C 313.875 122.96094 313.60936 122.19141 313.09375 121.625 C 312.58202 121.05469 311.88281 120.78125 311 120.78125 z M 311 121.6875 C 311.53124 121.68751 311.96093 121.8672 312.28125 122.21875 C 312.60546 122.57032 312.77325 123.03516 312.78125 123.625 L 308.9375 123.625 C 308.99218 123.00782 309.20312 122.52735 309.5625 122.1875 C 309.92578 121.84767 310.39843 121.68751 311 121.6875 z "
       id="path3429" />
    <path
       style="font-size:12px;font-style:normal;font-weight:normal;line-height:125%;letter-spacing:0px;word-spacing:0px;fill:#000000;fill-opacity:1;stroke:none;font-family:Sans"
       d="m 323.25794,121.94365 c -0.1211,-0.0703 -0.25391,-0.12109 -0.39844,-0.15234 -0.14063,-0.0352 -0.29688,-0.0527 -0.46875,-0.0527 -0.60937,1e-5 -1.07812,0.19923 -1.40625,0.59766 -0.32422,0.39454 -0.48633,0.9629 -0.48632,1.70508 l 0,3.45703 -1.08399,0 0,-6.5625 1.08399,0 0,1.01953 c 0.22656,-0.39843 0.52148,-0.69335 0.88476,-0.88476 0.36328,-0.19531 0.80468,-0.29297 1.32422,-0.29297 0.0742,0 0.15625,0.006 0.24609,0.0176 0.0898,0.008 0.18945,0.0215 0.29883,0.041 l 0.006,1.10742"
       id="path3238" />
    <path
       style="font-size:12px;font-style:normal;font-weight:normal;line-height:125%;letter-spacing:0px;word-spacing:0px;fill:#000000;fill-opacity:1;stroke:none;font-family:Sans"
       d="M 326.71875 120.78125 C 326.36719 120.78125 325.99609 120.82815 325.625 120.90625 C 325.2539 120.98048 324.86328 121.09766 324.46875 121.25 L 324.46875 122.21875 C 324.79688 122.03907 325.14453 121.9024 325.5 121.8125 C 325.85547 121.72264 326.21874 121.68751 326.59375 121.6875 C 327.18359 121.68751 327.64453 121.82031 327.96875 122.09375 C 328.29687 122.36328 328.46874 122.75391 328.46875 123.25 L 328.46875 123.34375 L 326.9375 123.34375 C 325.95703 123.34376 325.21485 123.53126 324.71875 123.90625 C 324.22657 124.28126 324 124.85548 324 125.59375 C 324 126.22657 324.19922 126.71485 324.59375 127.09375 C 324.99219 127.46875 325.51562 127.65625 326.1875 127.65625 C 326.71875 127.65625 327.16406 127.5625 327.53125 127.375 C 327.89844 127.1836 328.22265 126.89843 328.46875 126.5 L 328.46875 127.5 L 329.53125 127.5 L 329.53125 123.75 C 329.53125 122.75 329.31249 122.02344 328.84375 121.53125 C 328.37499 121.03907 327.66797 120.78125 326.71875 120.78125 z M 327.375 124.1875 L 328.46875 124.1875 L 328.46875 124.4375 C 328.46874 125.14062 328.26953 125.69922 327.90625 126.125 C 327.54688 126.54687 327.0664 126.78125 326.46875 126.78125 C 326.03515 126.78125 325.6914 126.66016 325.4375 126.4375 C 325.1875 126.21094 325.0625 125.91407 325.0625 125.53125 C 325.0625 125.05078 325.22656 124.69922 325.5625 124.5 C 325.89844 124.30077 326.5039 124.18751 327.375 124.1875 z "
       id="path3240" />
    <path
       style="font-size:12px;font-style:normal;font-weight:normal;line-height:125%;letter-spacing:0px;word-spacing:0px;fill:#000000;fill-opacity:1;stroke:none;font-family:Sans"
       d="M 336.09375 118.375 L 336.09375 121.9375 C 335.86719 121.54688 335.5664 121.25 335.21875 121.0625 C 334.87499 120.87109 334.45312 120.78125 333.96875 120.78125 C 333.17578 120.78125 332.53125 121.08594 332.03125 121.71875 C 331.53516 122.35156 331.28125 123.1875 331.28125 124.21875 C 331.28125 125.25 331.53516 126.08594 332.03125 126.71875 C 332.53125 127.35157 333.17578 127.65625 333.96875 127.65625 C 334.45312 127.65625 334.87499 127.5625 335.21875 127.375 C 335.5664 127.1836 335.86719 126.89063 336.09375 126.5 L 336.09375 127.5 L 337.15625 127.5 L 337.15625 118.375 L 336.09375 118.375 z M 334.25 121.6875 C 334.82031 121.68751 335.26562 121.92188 335.59375 122.375 C 335.92187 122.82422 336.09375 123.42578 336.09375 124.21875 C 336.09375 125.01172 335.92187 125.64063 335.59375 126.09375 C 335.26562 126.54297 334.82031 126.78125 334.25 126.78125 C 333.67968 126.78125 333.23438 126.54297 332.90625 126.09375 C 332.58203 125.64063 332.40624 125.01172 332.40625 124.21875 C 332.40624 123.42578 332.58203 122.82422 332.90625 122.375 C 333.23438 121.92188 333.67968 121.68751 334.25 121.6875 z "
       id="path3419" />
    <path
       style="font-size:12px;font-style:normal;font-weight:normal;line-height:125%;letter-spacing:0px;word-spacing:0px;fill:#000000;fill-opacity:1;stroke:none;font-family:Sans"
       d="m 339.52943,126.01006 1.23632,0 0,1.48828 -1.23632,0 0,-1.48828"
       id="path3244" />
    <path
       style="font-size:12px;font-style:normal;font-weight:normal;line-height:125%;letter-spacing:0px;word-spacing:0px;fill:#000000;fill-opacity:1;stroke:none;font-family:Sans"
       d="M 188.71875 133.75 L 185.375 142.5 L 186.625 142.5 L 187.40625 140.25 L 191.34375 140.25 L 192.15625 142.5 L 193.375 142.5 L 190.03125 133.75 L 188.71875 133.75 z M 189.375 134.90625 L 190.96875 139.28125 L 187.78125 139.28125 L 189.375 134.90625 z "
       id="path3411" />
    <path
       style="font-size:12px;font-style:normal;font-weight:normal;line-height:125%;letter-spacing:0px;word-spacing:0px;fill:#000000;fill-opacity:1;stroke:none;font-family:Sans"
       d="m 189.922,131.54131 1.18946,0 0,1.18945 -1.18946,0 0,-1.18945"
       id="path3409" />
    <path
       style="font-size:12px;font-style:normal;font-weight:normal;line-height:125%;letter-spacing:0px;word-spacing:0px;fill:#000000;fill-opacity:1;stroke:none;font-family:Sans"
       d="m 187.63099,131.54131 1.18945,0 0,1.18945 -1.18945,0 0,-1.18945"
       id="path3246" />
    <path
       style="font-size:12px;font-style:normal;font-weight:normal;line-height:125%;letter-spacing:0px;word-spacing:0px;fill:#000000;fill-opacity:1;stroke:none;font-family:Sans"
       d="m 193.12708,135.93584 1.14258,0 2.05078,5.50781 2.05078,-5.50781 1.14258,0 -2.46094,6.5625 -1.46484,0 -2.46094,-6.5625"
       id="path3248" />
    <path
       style="font-size:12px;font-style:normal;font-weight:normal;line-height:125%;letter-spacing:0px;word-spacing:0px;fill:#000000;fill-opacity:1;stroke:none;font-family:Sans"
       d="M 203.75 135.78125 C 202.76562 135.78125 201.98828 136.08594 201.40625 136.71875 C 200.82812 137.34766 200.53125 138.20704 200.53125 139.28125 C 200.53125 140.32032 200.82813 141.14063 201.4375 141.75 C 202.05078 142.35937 202.89062 142.65625 203.9375 142.65625 C 204.35546 142.65625 204.78124 142.61715 205.1875 142.53125 C 205.59374 142.44531 205.98828 142.32031 206.375 142.15625 L 206.375 141.15625 C 205.99218 141.35938 205.60937 141.49218 205.21875 141.59375 C 204.83203 141.69529 204.41406 141.75 204 141.75 C 203.28515 141.75 202.71484 141.57422 202.3125 141.1875 C 201.91406 140.79688 201.70315 140.21094 201.65625 139.46875 L 206.625 139.46875 L 206.625 138.9375 C 206.625 137.96094 206.35936 137.19141 205.84375 136.625 C 205.33202 136.05469 204.63281 135.78125 203.75 135.78125 z M 203.75 136.6875 C 204.28124 136.68751 204.71093 136.8672 205.03125 137.21875 C 205.35546 137.57032 205.52325 138.03516 205.53125 138.625 L 201.6875 138.625 C 201.74218 138.00782 201.95312 137.52735 202.3125 137.1875 C 202.67578 136.84767 203.14843 136.68751 203.75 136.6875 z "
       id="path3403" />
    <path
       style="font-size:12px;font-style:normal;font-weight:normal;line-height:125%;letter-spacing:0px;word-spacing:0px;fill:#000000;fill-opacity:1;stroke:none;font-family:Sans"
       d="m 213.83997,138.5374 0,3.96094 -1.07812,0 0,-3.92578 c -1e-5,-0.62109 -0.1211,-1.08593 -0.36328,-1.39453 -0.2422,-0.30859 -0.60548,-0.46289 -1.08985,-0.46289 -0.58203,0 -1.04102,0.18555 -1.37695,0.55664 -0.33594,0.3711 -0.50391,0.87695 -0.50391,1.51758 l 0,3.70898 -1.08398,0 0,-6.5625 1.08398,0 0,1.01953 c 0.25781,-0.39452 0.56055,-0.68945 0.90821,-0.88476 0.35156,-0.19531 0.75585,-0.29297 1.21289,-0.29297 0.7539,0 1.32421,0.23438 1.71093,0.70312 0.38672,0.46485 0.58008,1.1504 0.58008,2.05664"
       id="path3252" />
    <path
       style="font-size:12px;font-style:normal;font-weight:normal;line-height:125%;letter-spacing:0px;word-spacing:0px;fill:#000000;fill-opacity:1;stroke:none;font-family:Sans"
       d="M 222.5625 135.78125 C 221.57812 135.78125 220.80078 136.08594 220.21875 136.71875 C 219.64063 137.34766 219.34375 138.20704 219.34375 139.28125 C 219.34375 140.32032 219.67187 141.14063 220.28125 141.75 C 220.89453 142.35937 221.70312 142.65625 222.75 142.65625 C 223.16797 142.65625 223.59374 142.61715 224 142.53125 C 224.40624 142.44531 224.80078 142.32031 225.1875 142.15625 L 225.1875 141.15625 C 224.80468 141.35938 224.42187 141.49218 224.03125 141.59375 C 223.64452 141.69529 223.22656 141.75 222.8125 141.75 C 222.09766 141.75 221.55859 141.57422 221.15625 141.1875 C 220.75781 140.79688 220.51565 140.21094 220.46875 139.46875 L 225.4375 139.46875 L 225.4375 138.9375 C 225.43749 137.96094 225.17187 137.19141 224.65625 136.625 C 224.14452 136.05469 223.44531 135.78125 222.5625 135.78125 z M 222.59375 136.6875 C 223.125 136.68751 223.55469 136.8672 223.875 137.21875 C 224.19922 137.57032 224.33575 138.03516 224.34375 138.625 L 220.5 138.625 C 220.55469 138.00782 220.76563 137.52735 221.125 137.1875 C 221.48828 136.84767 221.99218 136.68751 222.59375 136.6875 z "
       id="path3397" />
    <path
       style="font-size:12px;font-style:normal;font-weight:normal;line-height:125%;letter-spacing:0px;word-spacing:0px;fill:#000000;fill-opacity:1;stroke:none;font-family:Sans"
       d="m 232.66028,138.5374 0,3.96094 -1.07812,0 0,-3.92578 c -10e-6,-0.62109 -0.1211,-1.08593 -0.36328,-1.39453 -0.24219,-0.30859 -0.60547,-0.46289 -1.08985,-0.46289 -0.58203,0 -1.04101,0.18555 -1.37695,0.55664 -0.33594,0.3711 -0.50391,0.87695 -0.5039,1.51758 l 0,3.70898 -1.08399,0 0,-6.5625 1.08399,0 0,1.01953 c 0.25781,-0.39452 0.56054,-0.68945 0.9082,-0.88476 0.35156,-0.19531 0.75585,-0.29297 1.21289,-0.29297 0.7539,0 1.32421,0.23438 1.71094,0.70312 0.38671,0.46485 0.58007,1.1504 0.58007,2.05664"
       id="path3256" />
    <path
       style="font-size:12px;font-style:normal;font-weight:normal;line-height:125%;letter-spacing:0px;word-spacing:0px;fill:#000000;fill-opacity:1;stroke:none;font-family:Sans"
       d="M 240.84375 135.78125 C 240.03906 135.78125 239.39843 136.07422 238.90625 136.6875 C 238.41406 137.30079 238.1875 138.14063 238.1875 139.15625 C 238.1875 140.16797 238.41406 140.98047 238.90625 141.59375 C 239.39843 142.20703 240.03906 142.5 240.84375 142.5 C 241.32812 142.5 241.74609 142.41016 242.09375 142.21875 C 242.4414 142.02734 242.74608 141.73047 242.96875 141.34375 L 242.96875 141.875 C 242.96874 142.62109 242.78906 143.19531 242.4375 143.5625 C 242.08594 143.93359 241.55078 144.09375 240.84375 144.09375 C 240.52344 144.09375 240.21484 144.05075 239.90625 143.96875 C 239.59766 143.88672 239.28516 143.76563 238.96875 143.59375 L 238.96875 144.65625 C 239.28516 144.77344 239.60156 144.85155 239.9375 144.90625 C 240.27343 144.96485 240.65234 145 241.03125 145 C 242.05469 145 242.78515 144.73437 243.28125 144.1875 C 243.77734 143.64453 244.03124 142.80468 244.03125 141.6875 L 244.03125 135.9375 L 242.96875 135.9375 L 242.96875 136.9375 C 242.74608 136.55079 242.4414 136.25391 242.09375 136.0625 C 241.74609 135.87109 241.32812 135.78125 240.84375 135.78125 z M 241.125 136.6875 C 241.70703 136.68751 242.14843 136.88282 242.46875 137.3125 C 242.79296 137.74219 242.96874 138.375 242.96875 139.15625 C 242.96874 139.93359 242.79296 140.50782 242.46875 140.9375 C 242.14843 141.36719 241.70703 141.59375 241.125 141.59375 C 240.54687 141.59375 240.10546 141.36719 239.78125 140.9375 C 239.46093 140.50782 239.28125 139.93359 239.28125 139.15625 C 239.28125 138.375 239.46093 137.74219 239.78125 137.3125 C 240.10546 136.88282 240.54687 136.68751 241.125 136.6875 z "
       id="path3258" />
    <path
       style="font-size:12px;font-style:normal;font-weight:normal;line-height:125%;letter-spacing:0px;word-spacing:0px;fill:#000000;fill-opacity:1;stroke:none;font-family:Sans"
       d="M 248.5625 135.78125 C 248.21093 135.78125 247.83985 135.82815 247.46875 135.90625 C 247.09766 135.98048 246.73828 136.09766 246.34375 136.25 L 246.34375 137.21875 C 246.67187 137.03907 246.98828 136.9024 247.34375 136.8125 C 247.69921 136.72264 248.0625 136.68751 248.4375 136.6875 C 249.02734 136.68751 249.48828 136.82031 249.8125 137.09375 C 250.14062 137.36328 250.3125 137.75391 250.3125 138.25 L 250.3125 138.34375 L 248.8125 138.34375 C 247.83203 138.34376 247.08984 138.53126 246.59375 138.90625 C 246.10156 139.28126 245.84375 139.85548 245.84375 140.59375 C 245.84375 141.22657 246.04297 141.71485 246.4375 142.09375 C 246.83594 142.46875 247.39063 142.65625 248.0625 142.65625 C 248.59375 142.65625 249.03906 142.5625 249.40625 142.375 C 249.77343 142.1836 250.0664 141.89843 250.3125 141.5 L 250.3125 142.5 L 251.40625 142.5 L 251.40625 138.75 C 251.40624 137.75 251.15625 137.02344 250.6875 136.53125 C 250.21875 136.03907 249.51171 135.78125 248.5625 135.78125 z M 249.25 139.1875 L 250.3125 139.1875 L 250.3125 139.4375 C 250.3125 140.14062 250.14453 140.69922 249.78125 141.125 C 249.42187 141.54687 248.94141 141.78125 248.34375 141.78125 C 247.91016 141.78125 247.56641 141.66016 247.3125 141.4375 C 247.0625 141.21094 246.9375 140.91407 246.9375 140.53125 C 246.9375 140.05078 247.10156 139.69922 247.4375 139.5 C 247.77343 139.30077 248.3789 139.18751 249.25 139.1875 z "
       id="path3385" />
    <path
       style="font-size:12px;font-style:normal;font-weight:normal;line-height:125%;letter-spacing:0px;word-spacing:0px;fill:#000000;fill-opacity:1;stroke:none;font-family:Sans"
       d="M 248.625 131.96875 C 248.17578 131.96876 247.78124 132.12501 247.46875 132.4375 C 247.16015 132.74611 247 133.11329 247 133.5625 C 247 134.01173 247.16015 134.40626 247.46875 134.71875 C 247.78124 135.03126 248.17578 135.18751 248.625 135.1875 C 249.07422 135.18751 249.4414 135.03126 249.75 134.71875 C 250.0625 134.40626 250.21875 134.01173 250.21875 133.5625 C 250.21875 133.11329 250.0625 132.74611 249.75 132.4375 C 249.4414 132.12501 249.07422 131.96876 248.625 131.96875 z M 248.625 132.6875 C 248.875 132.68751 249.07812 132.76563 249.25 132.9375 C 249.42191 133.10938 249.49999 133.31642 249.5 133.5625 C 249.49999 133.81251 249.42187 134.01564 249.25 134.1875 C 249.07812 134.35942 248.875 134.46876 248.625 134.46875 C 248.37109 134.46876 248.14062 134.38673 247.96875 134.21875 C 247.8008 134.04689 247.71875 133.81642 247.71875 133.5625 C 247.71875 133.31251 247.80078 133.10548 247.96875 132.9375 C 248.14062 132.76559 248.37109 132.68751 248.625 132.6875 z "
       id="path3260" />
    <path
       style="font-size:12px;font-style:normal;font-weight:normal;line-height:125%;letter-spacing:0px;word-spacing:0px;fill:#000000;fill-opacity:1;stroke:none;font-family:Sans"
       d="m 259.07435,138.5374 0,3.96094 -1.07813,0 0,-3.92578 c 0,-0.62109 -0.1211,-1.08593 -0.36328,-1.39453 -0.24219,-0.30859 -0.60547,-0.46289 -1.08984,-0.46289 -0.58204,0 -1.04102,0.18555 -1.37696,0.55664 -0.33594,0.3711 -0.5039,0.87695 -0.5039,1.51758 l 0,3.70898 -1.08399,0 0,-6.5625 1.08399,0 0,1.01953 c 0.25781,-0.39452 0.56054,-0.68945 0.9082,-0.88476 0.35156,-0.19531 0.75586,-0.29297 1.21289,-0.29297 0.7539,0 1.32422,0.23438 1.71094,0.70312 0.38671,0.46485 0.58007,1.1504 0.58008,2.05664"
       id="path3262" />
    <path
       style="font-size:12px;font-style:normal;font-weight:normal;line-height:125%;letter-spacing:0px;word-spacing:0px;fill:#000000;fill-opacity:1;stroke:none;font-family:Sans"
       d="M 263.4375 135.78125 C 262.63281 135.78125 261.99218 136.07422 261.5 136.6875 C 261.00781 137.30079 260.78125 138.14063 260.78125 139.15625 C 260.78125 140.16797 261.00781 140.98047 261.5 141.59375 C 261.99218 142.20703 262.63281 142.5 263.4375 142.5 C 263.92187 142.5 264.33984 142.41016 264.6875 142.21875 C 265.03515 142.02734 265.33983 141.73047 265.5625 141.34375 L 265.5625 141.875 C 265.56249 142.62109 265.38281 143.19531 265.03125 143.5625 C 264.67969 143.93359 264.14453 144.09375 263.4375 144.09375 C 263.11719 144.09375 262.80859 144.05075 262.5 143.96875 C 262.19141 143.88672 261.87891 143.76563 261.5625 143.59375 L 261.5625 144.65625 C 261.87891 144.77344 262.19531 144.85155 262.53125 144.90625 C 262.86718 144.96485 263.24609 145 263.625 145 C 264.64844 145 265.3789 144.73437 265.875 144.1875 C 266.37109 143.64453 266.62499 142.80468 266.625 141.6875 L 266.625 135.9375 L 265.5625 135.9375 L 265.5625 136.9375 C 265.33983 136.55079 265.03515 136.25391 264.6875 136.0625 C 264.33984 135.87109 263.92187 135.78125 263.4375 135.78125 z M 263.71875 136.6875 C 264.30078 136.68751 264.74218 136.88282 265.0625 137.3125 C 265.38671 137.74219 265.56249 138.375 265.5625 139.15625 C 265.56249 139.93359 265.38671 140.50782 265.0625 140.9375 C 264.74218 141.36719 264.30078 141.59375 263.71875 141.59375 C 263.14062 141.59375 262.69921 141.36719 262.375 140.9375 C 262.05468 140.50782 261.875 139.93359 261.875 139.15625 C 261.875 138.375 262.05468 137.74219 262.375 137.3125 C 262.69921 136.88282 263.14062 136.68751 263.71875 136.6875 z "
       id="path3264" />
    <path
       style="font-size:12px;font-style:normal;font-weight:normal;line-height:125%;letter-spacing:0px;word-spacing:0px;fill:#000000;fill-opacity:1;stroke:none;font-family:Sans"
       d="m 272.67396,135.93584 1.07812,0 0,6.5625 -1.07812,0 0,-6.5625"
       id="path3373" />
    <path
       style="font-size:12px;font-style:normal;font-weight:normal;line-height:125%;letter-spacing:0px;word-spacing:0px;fill:#000000;fill-opacity:1;stroke:none;font-family:Sans"
       d="m 272.67396,133.38115 1.07812,0 0,1.36524 -1.07812,0 0,-1.36524"
       id="path3266" />
    <path
       style="font-size:12px;font-style:normal;font-weight:normal;line-height:125%;letter-spacing:0px;word-spacing:0px;fill:#000000;fill-opacity:1;stroke:none;font-family:Sans"
       d="m 279.04896,135.93584 1.14257,0 2.05079,5.50781 2.05078,-5.50781 1.14258,0 -2.46094,6.5625 -1.46485,0 -2.46093,-6.5625"
       id="path3268" />
    <path
       style="font-size:12px;font-style:normal;font-weight:normal;line-height:125%;letter-spacing:0px;word-spacing:0px;fill:#000000;fill-opacity:1;stroke:none;font-family:Sans"
       d="M 289.21875 135.78125 C 288.86719 135.78125 288.52734 135.82815 288.15625 135.90625 C 287.78515 135.98048 287.39453 136.09766 287 136.25 L 287 137.21875 C 287.32812 137.03907 287.67578 136.9024 288.03125 136.8125 C 288.38672 136.72264 288.75 136.68751 289.125 136.6875 C 289.71484 136.68751 290.17577 136.82031 290.5 137.09375 C 290.82812 137.36328 290.96875 137.75391 290.96875 138.25 L 290.96875 138.34375 L 289.46875 138.34375 C 288.48827 138.34376 287.74609 138.53126 287.25 138.90625 C 286.75781 139.28126 286.5 139.85548 286.5 140.59375 C 286.5 141.22657 286.69922 141.71485 287.09375 142.09375 C 287.49218 142.46875 288.04687 142.65625 288.71875 142.65625 C 289.24999 142.65625 289.69531 142.5625 290.0625 142.375 C 290.42969 142.1836 290.72266 141.89843 290.96875 141.5 L 290.96875 142.5 L 292.0625 142.5 L 292.0625 138.75 C 292.06249 137.75 291.8125 137.02344 291.34375 136.53125 C 290.875 136.03907 290.16797 135.78125 289.21875 135.78125 z M 289.90625 139.1875 L 290.96875 139.1875 L 290.96875 139.4375 C 290.96875 140.14062 290.80078 140.69922 290.4375 141.125 C 290.07812 141.54687 289.59765 141.78125 289 141.78125 C 288.5664 141.78125 288.22265 141.66016 287.96875 141.4375 C 287.71874 141.21094 287.59374 140.91407 287.59375 140.53125 C 287.59374 140.05078 287.75781 139.69922 288.09375 139.5 C 288.42969 139.30077 289.03515 139.18751 289.90625 139.1875 z "
       id="path3270" />
    <path
       style="font-size:12px;font-style:normal;font-weight:normal;line-height:125%;letter-spacing:0px;word-spacing:0px;fill:#000000;fill-opacity:1;stroke:none;font-family:Sans"
       d="m 298.08607,136.94365 c -0.1211,-0.0703 -0.25391,-0.12109 -0.39844,-0.15234 -0.14063,-0.0352 -0.29688,-0.0527 -0.46875,-0.0527 -0.60938,1e-5 -1.07813,0.19923 -1.40625,0.59766 -0.32422,0.39454 -0.48633,0.9629 -0.48633,1.70508 l 0,3.45703 -1.08398,0 0,-6.5625 1.08398,0 0,1.01953 c 0.22656,-0.39843 0.52148,-0.69335 0.88477,-0.88476 0.36327,-0.19531 0.80468,-0.29297 1.32421,-0.29297 0.0742,0 0.15625,0.006 0.2461,0.0176 0.0898,0.008 0.18945,0.0215 0.29883,0.041 l 0.006,1.10742"
       id="path3272" />
    <path
       style="font-size:12px;font-style:normal;font-weight:normal;line-height:125%;letter-spacing:0px;word-spacing:0px;fill:#000000;fill-opacity:1;stroke:none;font-family:Sans"
       d="m 299.22864,135.93584 1.07813,0 0,6.67969 c 0,0.83593 -0.16016,1.4414 -0.48047,1.8164 -0.31641,0.375 -0.82813,0.5625 -1.53516,0.5625 l -0.41015,0 0,-0.91406 0.28711,0 c 0.41015,0 0.68945,-0.0957 0.83789,-0.28711 0.14843,-0.1875 0.22265,-0.58008 0.22265,-1.17773 l 0,-6.67969"
       id="path3361" />
    <path
       style="font-size:12px;font-style:normal;font-weight:normal;line-height:125%;letter-spacing:0px;word-spacing:0px;fill:#000000;fill-opacity:1;stroke:none;font-family:Sans"
       d="m 299.22864,133.38115 1.07813,0 0,1.36524 -1.07813,0 0,-1.36524"
       id="path3274" />
    <path
       style="font-size:12px;font-style:normal;font-weight:normal;line-height:125%;letter-spacing:0px;word-spacing:0px;fill:#000000;fill-opacity:1;stroke:none;font-family:Sans"
       d="M 305.3125 135.78125 C 304.32812 135.78125 303.55078 136.08594 302.96875 136.71875 C 302.39062 137.34766 302.09375 138.20704 302.09375 139.28125 C 302.09375 140.32032 302.39063 141.14063 303 141.75 C 303.61328 142.35937 304.45312 142.65625 305.5 142.65625 C 305.91796 142.65625 306.3125 142.61715 306.71875 142.53125 C 307.125 142.44531 307.51952 142.32031 307.90625 142.15625 L 307.90625 141.15625 C 307.52343 141.35938 307.14062 141.49218 306.75 141.59375 C 306.36328 141.69529 305.97656 141.75 305.5625 141.75 C 304.84765 141.75 304.27734 141.57422 303.875 141.1875 C 303.47656 140.79688 303.26565 140.21094 303.21875 139.46875 L 308.15625 139.46875 L 308.15625 138.9375 C 308.15624 137.96094 307.92187 137.19141 307.40625 136.625 C 306.89453 136.05469 306.1953 135.78125 305.3125 135.78125 z M 305.3125 136.6875 C 305.84375 136.68751 306.27343 136.8672 306.59375 137.21875 C 306.91796 137.57032 307.08575 138.03516 307.09375 138.625 L 303.25 138.625 C 303.30468 138.00782 303.51562 137.52735 303.875 137.1875 C 304.23828 136.84767 304.71094 136.68751 305.3125 136.6875 z "
       id="path3357" />
    <path
       style="font-size:12px;font-style:normal;font-weight:normal;line-height:125%;letter-spacing:0px;word-spacing:0px;fill:#000000;fill-opacity:1;stroke:none;font-family:Sans"
       d="m 313.71888,133.38115 1.08398,0 0,5.38477 3.2168,-2.83008 1.37695,0 -3.48047,3.07031 3.62696,3.49219 -1.40625,0 -3.33399,-3.20508 0,3.20508 -1.08398,0 0,-9.11719"
       id="path3278" />
    <path
       style="font-size:12px;font-style:normal;font-weight:normal;line-height:125%;letter-spacing:0px;word-spacing:0px;fill:#000000;fill-opacity:1;stroke:none;font-family:Sans"
       d="M 322.84375 135.78125 C 321.90234 135.78125 321.16016 136.07813 320.625 136.6875 C 320.09375 137.29688 319.84375 138.14063 319.84375 139.21875 C 319.84375 140.29297 320.09375 141.13672 320.625 141.75 C 321.16016 142.35937 321.90234 142.65625 322.84375 142.65625 C 323.78124 142.65625 324.52734 142.35937 325.0625 141.75 C 325.59765 141.13672 325.84375 140.29297 325.84375 139.21875 C 325.84375 138.14063 325.59765 137.29688 325.0625 136.6875 C 324.52734 136.07813 323.78124 135.78125 322.84375 135.78125 z M 322.84375 136.6875 C 323.41796 136.68751 323.88281 136.91797 324.21875 137.375 C 324.55468 137.82813 324.71874 138.44141 324.71875 139.21875 C 324.71874 140 324.55468 140.60938 324.21875 141.0625 C 323.88281 141.51563 323.41796 141.75 322.84375 141.75 C 322.26171 141.75 321.80469 141.54297 321.46875 141.09375 C 321.13672 140.64063 320.96874 140.00391 320.96875 139.21875 C 320.96874 138.4336 321.13281 137.82422 321.46875 137.375 C 321.80469 136.92188 322.26562 136.68751 322.84375 136.6875 z "
       id="path3280" />
    <path
       style="font-size:12px;font-style:normal;font-weight:normal;line-height:125%;letter-spacing:0px;word-spacing:0px;fill:#000000;fill-opacity:1;stroke:none;font-family:Sans"
       d="m 327.63489,133.38115 1.07813,0 0,9.11719 -1.07813,0 0,-9.11719"
       id="path3282" />
    <path
       style="font-size:12px;font-style:normal;font-weight:normal;line-height:125%;letter-spacing:0px;word-spacing:0px;fill:#000000;fill-opacity:1;stroke:none;font-family:Sans"
       d="m 330.85169,139.9085 0,-3.97266 1.07813,0 0,3.93164 c -1e-5,0.6211 0.12109,1.08789 0.36328,1.40039 0.24218,0.3086 0.60546,0.46289 1.08984,0.46289 0.58203,0 1.04101,-0.18554 1.37695,-0.55664 0.33984,-0.37109 0.50976,-0.87695 0.50977,-1.51758 l 0,-3.7207 1.07812,0 0,6.5625 -1.07812,0 0,-1.00781 c -0.26172,0.39844 -0.56641,0.69531 -0.91406,0.89062 -0.34376,0.19141 -0.74415,0.28711 -1.20117,0.28711 -0.75391,0 -1.32618,-0.23437 -1.7168,-0.70312 -0.39063,-0.46875 -0.58594,-1.1543 -0.58594,-2.05664"
       id="path3345" />
    <path
       style="font-size:12px;font-style:normal;font-weight:normal;line-height:125%;letter-spacing:0px;word-spacing:0px;fill:#000000;fill-opacity:1;stroke:none;font-family:Sans"
       d="m 333.56458,135.77764 0,0"
       id="path3284" />
    <path
       style="font-size:12px;font-style:normal;font-weight:normal;line-height:125%;letter-spacing:0px;word-spacing:0px;fill:#000000;fill-opacity:1;stroke:none;font-family:Sans"
       d="m 343.68958,137.19561 c 0.26953,-0.48437 0.59179,-0.8418 0.9668,-1.07227 0.37499,-0.23046 0.8164,-0.3457 1.32422,-0.3457 0.68358,0 1.21093,0.24024 1.58203,0.7207 0.37108,0.47657 0.55663,1.15625 0.55664,2.03906 l 0,3.96094 -1.08399,0 0,-3.92578 c 0,-0.6289 -0.11133,-1.0957 -0.33398,-1.40039 -0.22266,-0.30468 -0.56251,-0.45703 -1.01953,-0.45703 -0.5586,0 -1.00001,0.18555 -1.32422,0.55664 -0.32422,0.3711 -0.48633,0.87695 -0.48633,1.51758 l 0,3.70898 -1.08398,0 0,-3.92578 c -10e-6,-0.63281 -0.11134,-1.09961 -0.33399,-1.40039 -0.22266,-0.30468 -0.56641,-0.45703 -1.03125,-0.45703 -0.55078,0 -0.98828,0.1875 -1.3125,0.5625 -0.32422,0.3711 -0.48633,0.875 -0.48632,1.51172 l 0,3.70898 -1.08399,0 0,-6.5625 1.08399,0 0,1.01953 c 0.24609,-0.40234 0.54101,-0.69921 0.88476,-0.89062 0.34375,-0.1914 0.75195,-0.28711 1.22461,-0.28711 0.47656,0 0.88085,0.1211 1.21289,0.36328 0.33593,0.24219 0.58398,0.59375 0.74414,1.05469"
       id="path3286" />
    <path
       style="font-size:12px;font-style:normal;font-weight:normal;line-height:125%;letter-spacing:0px;word-spacing:0px;fill:#000000;fill-opacity:1;stroke:none;font-family:Sans"
       d="m 355.7306,138.5374 0,3.96094 -1.07813,0 0,-3.92578 c 0,-0.62109 -0.1211,-1.08593 -0.36328,-1.39453 -0.24219,-0.30859 -0.60547,-0.46289 -1.08984,-0.46289 -0.58204,0 -1.04102,0.18555 -1.37696,0.55664 -0.33594,0.3711 -0.5039,0.87695 -0.5039,1.51758 l 0,3.70898 -1.08399,0 0,-6.5625 1.08399,0 0,1.01953 c 0.25781,-0.39452 0.56054,-0.68945 0.9082,-0.88476 0.35156,-0.19531 0.75586,-0.29297 1.21289,-0.29297 0.7539,0 1.32422,0.23438 1.71094,0.70312 0.38671,0.46485 0.58007,1.1504 0.58008,2.05664"
       id="path3288" />
    <path
       style="font-size:12px;font-style:normal;font-weight:normal;line-height:125%;letter-spacing:0px;word-spacing:0px;fill:#000000;fill-opacity:1;stroke:none;font-family:Sans"
       d="m 358.04505,141.01006 1.23633,0 0,1.48828 -1.23633,0 0,-1.48828"
       id="path3290" />
    <path
       style="font-size:medium;font-style:normal;font-variant:normal;font-weight:normal;font-stretch:normal;text-indent:0;text-align:start;text-decoration:none;line-height:normal;letter-spacing:normal;word-spacing:normal;text-transform:none;direction:ltr;block-progression:tb;writing-mode:lr-tb;text-anchor:start;baseline-shift:baseline;color:#000000;fill:#000000;fill-opacity:1;stroke:none;stroke-width:1;marker:none;visibility:visible;display:inline;overflow:visible;enable-background:accumulate;font-family:Sans;-inkscape-font-specification:Sans"
       d="M 127.28125 80.3125 C 119.98159 80.3125 114.0625 86.231592 114.0625 93.53125 C 114.0625 100.83091 119.98159 106.75 127.28125 106.75 C 134.58091 106.75 140.5 100.83091 140.5 93.53125 C 140.5 86.231592 134.58091 80.3125 127.28125 80.3125 z M 127.28125 81.3125 C 134.04047 81.3125 139.5 86.772032 139.5 93.53125 C 139.5 100.29047 134.04047 105.75 127.28125 105.75 C 120.52203 105.75 115.0625 100.29047 115.0625 93.53125 C 115.0625 86.772032 120.52203 81.3125 127.28125 81.3125 z "
       id="path3519" />
    <g
       id="g4736">
      <path
         style="font-size:medium;font-style:normal;font-variant:normal;font-weight:normal;font-stretch:normal;text-indent:0;text-align:start;text-decoration:none;line-height:normal;letter-spacing:normal;word-spacing:normal;text-transform:none;direction:ltr;block-progression:tb;writing-mode:lr-tb;text-anchor:start;baseline-shift:baseline;color:#000000;fill:#000000;fill-opacity:1;stroke:none;stroke-width:1;marker:none;visibility:visible;display:inline;overflow:visible;enable-background:accumulate;font-family:Sans;-inkscape-font-specification:Sans"
         d="m 138.9375,105.1875 -0.6875,0.71875 c 20.65807,19.23337 44.21875,17.125 44.21875,17.125 l -0.0937,-1 c 0,0 -23.08337,2.10664 -43.4375,-16.84375 z"
         id="path3522"
         inkscape:connector-curvature="0" />
      <path
         d="m 143.39368,116.08494 -5.78472,-11.4242 11.80777,4.955 c -3.18328,0.60135 -5.6078,3.2217 -6.02305,6.4692 z"
         style="font-size:12px;fill-rule:evenodd;stroke-width:0.625;stroke-linejoin:round"
         id="path4742"
         inkscape:connector-curvature="0" />
    </g>
  </g>
</svg>
