<?xml version="1.0" encoding="UTF-8" standalone="no"?>
<!-- Created with Inkscape (http://www.inkscape.org/) -->

<svg
   xmlns:dc="http://purl.org/dc/elements/1.1/"
   xmlns:cc="http://creativecommons.org/ns#"
   xmlns:rdf="http://www.w3.org/1999/02/22-rdf-syntax-ns#"
   xmlns:svg="http://www.w3.org/2000/svg"
   xmlns="http://www.w3.org/2000/svg"
   xmlns:sodipodi="http://sodipodi.sourceforge.net/DTD/sodipodi-0.dtd"
   xmlns:inkscape="http://www.inkscape.org/namespaces/inkscape"
   width="380"
   height="80"
   id="svg2"
   version="1.1"
   inkscape:version="0.48.0 r9654"
   sodipodi:docname="2011-(02)feb-02, 11.svg">
  <defs
     id="defs4" />
  <sodipodi:namedview
     id="base"
     pagecolor="#ffffff"
     bordercolor="#666666"
     borderopacity="1.0"
     inkscape:pageopacity="0.0"
     inkscape:pageshadow="2"
     inkscape:zoom="1.5279811"
     inkscape:cx="114.7979"
     inkscape:cy="57.985499"
     inkscape:document-units="px"
     inkscape:current-layer="layer1"
     showgrid="false"
     inkscape:window-width="1589"
     inkscape:window-height="1117"
     inkscape:window-x="1600"
     inkscape:window-y="27"
     inkscape:window-maximized="1"
     showguides="true"
     inkscape:guide-bbox="true" />
  <metadata
     id="metadata7">
    <rdf:RDF>
      <cc:Work
         rdf:about="">
        <dc:format>image/svg+xml</dc:format>
        <dc:type
           rdf:resource="http://purl.org/dc/dcmitype/StillImage" />
        <dc:title />
      </cc:Work>
    </rdf:RDF>
  </metadata>
  <g
     inkscape:label="Layer 1"
     inkscape:groupmode="layer"
     id="layer1">
    <path
       style="font-size:medium;font-style:normal;font-variant:normal;font-weight:normal;font-stretch:normal;text-indent:0;text-align:start;text-decoration:none;line-height:normal;letter-spacing:normal;word-spacing:normal;text-transform:none;direction:ltr;block-progression:tb;writing-mode:lr-tb;text-anchor:start;baseline-shift:baseline;color:#000000;fill:#000000;fill-opacity:1;stroke:none;stroke-width:1;marker:none;visibility:visible;display:inline;overflow:visible;enable-background:accumulate;font-family:Sans;-inkscape-font-specification:Sans"
       d="m 32.060708,18.53125 c -16.81678,0 -30.4687496,13.62072 -30.4687496,30.4375 0,16.81678 13.6519696,30.46875 30.4687496,30.46875 16.81678,0 30.4375,-13.65197 30.4375,-30.46875 0,-16.81678 -13.62072,-30.4375 -30.4375,-30.4375 z m 0,1 c 16.27634,0 29.4375,13.16116 29.4375,29.4375 0,16.27634 -13.16116,29.46875 -29.4375,29.46875 -16.27634,0 -29.4687496,-13.19241 -29.4687496,-29.46875 0,-16.27634 13.1924096,-29.4375 29.4687496,-29.4375 z"
       id="path3043"
       inkscape:connector-curvature="0" />
    <path
       style="font-size:medium;font-style:normal;font-variant:normal;font-weight:normal;font-stretch:normal;text-indent:0;text-align:start;text-decoration:none;line-height:normal;letter-spacing:normal;word-spacing:normal;text-transform:none;direction:ltr;block-progression:tb;writing-mode:lr-tb;text-anchor:start;baseline-shift:baseline;color:#000000;fill:#000000;fill-opacity:1;stroke:none;stroke-width:1;marker:none;visibility:visible;display:inline;overflow:visible;enable-background:accumulate;font-family:Sans;-inkscape-font-specification:Sans"
       d="m 130.06071,18.53125 c -16.81678,0 -30.46875,13.62072 -30.46875,30.4375 0,16.81678 13.65197,30.46875 30.46875,30.46875 16.81678,0 30.4375,-13.65197 30.4375,-30.46875 0,-16.81678 -13.62072,-30.4375 -30.4375,-30.4375 z m 0,1 c 16.27634,0 29.4375,13.16116 29.4375,29.4375 0,16.27634 -13.16116,29.46875 -29.4375,29.46875 -16.27634,0 -29.46875,-13.19241 -29.46875,-29.46875 0,-16.27634 13.19241,-29.4375 29.46875,-29.4375 z"
       id="path3047"
       inkscape:connector-curvature="0" />
    <path
       style="font-size:20px;font-style:normal;font-weight:normal;line-height:125%;letter-spacing:0px;word-spacing:0px;fill:#000000;fill-opacity:1;stroke:none;font-family:Sans"
       d="m 25.321163,1.8520401 2.11914,0 3.623047,5.4199219 3.642578,-5.4199219 2.119141,0 -4.6875,7.0019531 5,7.5781248 -2.119141,0 -4.101562,-6.201172 -4.13086,6.201172 -2.128906,0 5.205078,-7.7832029 -4.541015,-6.796875"
       id="path3040"
       inkscape:connector-curvature="0" />
    <path
       style="font-size:20px;font-style:normal;font-weight:normal;line-height:125%;letter-spacing:0px;word-spacing:0px;fill:#000000;fill-opacity:1;stroke:none;font-family:Sans"
       d="m 123.56934,1.8520401 2.11915,0 4.04296,5.9960937 4.01368,-5.9960937 2.11914,0 -5.15625,7.6367187 0,6.9433592 -1.98243,0 0,-6.9433592 -5.15625,-7.6367187"
       id="path3042"
       inkscape:connector-curvature="0" />
    <path
       style="font-size:medium;font-style:normal;font-variant:normal;font-weight:normal;font-stretch:normal;text-indent:0;text-align:start;text-decoration:none;line-height:normal;letter-spacing:normal;word-spacing:normal;text-transform:none;direction:ltr;block-progression:tb;writing-mode:lr-tb;text-anchor:start;baseline-shift:baseline;color:#000000;fill:#000000;fill-opacity:1;stroke:none;stroke-width:1;marker:none;visibility:visible;display:inline;overflow:visible;enable-background:accumulate;font-family:Sans;-inkscape-font-specification:Sans"
       d="m 29.67253,31.84375 c -1.30259,0 -2.34375,1.041161 -2.34375,2.34375 0,1.30259 1.04116,2.375 2.34375,2.375 1.302589,0 2.375,-1.07241 2.375,-2.375 0,-1.302589 -1.072411,-2.34375 -2.375,-2.34375 z"
       id="path3096"
       inkscape:connector-curvature="0" />
    <path
       style="font-size:medium;font-style:normal;font-variant:normal;font-weight:normal;font-stretch:normal;text-indent:0;text-align:start;text-decoration:none;line-height:normal;letter-spacing:normal;word-spacing:normal;text-transform:none;direction:ltr;block-progression:tb;writing-mode:lr-tb;text-anchor:start;baseline-shift:baseline;color:#000000;fill:#000000;fill-opacity:1;stroke:none;stroke-width:1;marker:none;visibility:visible;display:inline;overflow:visible;enable-background:accumulate;font-family:Sans;-inkscape-font-specification:Sans"
       d="m 25.237259,57.621727 c -1.30259,0 -2.34375,1.041161 -2.34375,2.34375 0,1.30259 1.04116,2.375 2.34375,2.375 1.302589,0 2.375,-1.07241 2.375,-2.375 0,-1.302589 -1.072411,-2.34375 -2.375,-2.34375 z"
       id="path3096-4"
       inkscape:connector-curvature="0" />
    <path
       style="font-size:medium;font-style:normal;font-variant:normal;font-weight:normal;font-stretch:normal;text-indent:0;text-align:start;text-decoration:none;line-height:normal;letter-spacing:normal;word-spacing:normal;text-transform:none;direction:ltr;block-progression:tb;writing-mode:lr-tb;text-anchor:start;baseline-shift:baseline;color:#000000;fill:#000000;fill-opacity:1;stroke:none;stroke-width:1;marker:none;visibility:visible;display:inline;overflow:visible;enable-background:accumulate;font-family:Sans;-inkscape-font-specification:Sans"
       d="m 45.971118,47.969758 c -1.30259,0 -2.34375,1.041161 -2.34375,2.34375 0,1.30259 1.04116,2.375 2.34375,2.375 1.302589,0 2.375,-1.07241 2.375,-2.375 0,-1.302589 -1.072411,-2.34375 -2.375,-2.34375 z"
       id="path3096-7"
       inkscape:connector-curvature="0" />
    <path
       style="font-size:medium;font-style:normal;font-variant:normal;font-weight:normal;font-stretch:normal;text-indent:0;text-align:start;text-decoration:none;line-height:normal;letter-spacing:normal;word-spacing:normal;text-transform:none;direction:ltr;block-progression:tb;writing-mode:lr-tb;text-anchor:start;baseline-shift:baseline;color:#000000;fill:#000000;fill-opacity:1;stroke:none;stroke-width:1;marker:none;visibility:visible;display:inline;overflow:visible;enable-background:accumulate;font-family:Sans;-inkscape-font-specification:Sans"
       d="m 138.88608,32.955585 c -1.30259,0 -2.34375,1.041161 -2.34375,2.34375 0,1.30259 1.04116,2.375 2.34375,2.375 1.30259,0 2.375,-1.07241 2.375,-2.375 0,-1.302589 -1.07241,-2.34375 -2.375,-2.34375 z"
       id="path3096-44"
       inkscape:connector-curvature="0" />
    <path
       style="font-size:medium;font-style:normal;font-variant:normal;font-weight:normal;font-stretch:normal;text-indent:0;text-align:start;text-decoration:none;line-height:normal;letter-spacing:normal;word-spacing:normal;text-transform:none;direction:ltr;block-progression:tb;writing-mode:lr-tb;text-anchor:start;baseline-shift:baseline;color:#000000;fill:#000000;fill-opacity:1;stroke:none;stroke-width:1;marker:none;visibility:visible;display:inline;overflow:visible;enable-background:accumulate;font-family:Sans;-inkscape-font-specification:Sans"
       d="m 119.58215,44.037475 c -1.30259,0 -2.34375,1.041161 -2.34375,2.34375 0,1.30259 1.04116,2.375 2.34375,2.375 1.30258,0 2.375,-1.07241 2.375,-2.375 0,-1.302589 -1.07242,-2.34375 -2.375,-2.34375 z"
       id="path3096-3"
       inkscape:connector-curvature="0" />
    <path
       style="font-size:medium;font-style:normal;font-variant:normal;font-weight:normal;font-stretch:normal;text-indent:0;text-align:start;text-decoration:none;line-height:normal;letter-spacing:normal;word-spacing:normal;text-transform:none;direction:ltr;block-progression:tb;writing-mode:lr-tb;text-anchor:start;baseline-shift:baseline;color:#000000;fill:#000000;fill-opacity:1;stroke:none;stroke-width:1;marker:none;visibility:visible;display:inline;overflow:visible;enable-background:accumulate;font-family:Sans;-inkscape-font-specification:Sans"
       d="m 132.09396,64.056373 c -1.30259,0 -2.34375,1.041161 -2.34375,2.34375 0,1.30259 1.04116,2.375 2.34375,2.375 1.30259,0 2.375,-1.07241 2.375,-2.375 0,-1.302589 -1.07241,-2.34375 -2.375,-2.34375 z"
       id="path3096-0"
       inkscape:connector-curvature="0" />
    <path
       style="font-size:12px;font-style:normal;font-weight:normal;line-height:125%;letter-spacing:0px;word-spacing:0px;fill:#000000;fill-opacity:1;stroke:none;font-family:Sans"
       d="M 202.3125 43.34375 C 201.32812 43.343757 200.55078 43.679693 199.96875 44.3125 C 199.39062 44.941411 199.09375 45.769536 199.09375 46.84375 C 199.09375 47.882815 199.39063 48.734377 200 49.34375 C 200.61328 49.953125 201.45312 50.25 202.5 50.25 C 202.91796 50.25 203.3125 50.21094 203.71875 50.125 C 204.125 50.039062 204.51952 49.914062 204.90625 49.75 L 204.90625 48.71875 C 204.52343 48.921876 204.14062 49.085938 203.75 49.1875 C 203.36328 49.289063 202.97656 49.343751 202.5625 49.34375 C 201.84765 49.343751 201.27734 49.13672 200.875 48.75 C 200.47656 48.359377 200.26565 47.80469 200.21875 47.0625 L 205.15625 47.0625 L 205.15625 46.53125 C 205.15624 45.554692 204.92187 44.785161 204.40625 44.21875 C 203.89453 43.648443 203.1953 43.343757 202.3125 43.34375 z M 202.3125 44.28125 C 202.84375 44.281256 203.27343 44.429693 203.59375 44.78125 C 203.91796 45.132817 204.08575 45.628911 204.09375 46.21875 L 200.25 46.21875 C 200.30468 45.601567 200.51562 45.121099 200.875 44.78125 C 201.23828 44.441412 201.71094 44.281256 202.3125 44.28125 z "
       id="path3054" />
    <path
       style="font-size:12px;font-style:normal;font-weight:normal;line-height:125%;letter-spacing:0px;word-spacing:0px;fill:#000000;fill-opacity:1;stroke:none;font-family:Sans"
       d="m 206.93842,43.510949 1.07813,0 0,6.679687 c -1e-5,0.835937 -0.16016,1.441405 -0.48047,1.816407 -0.31641,0.374997 -0.82813,0.562497 -1.53516,0.5625 l -0.41015,0 0,-0.914063 0.2871,0 c 0.41016,-10e-7 0.68946,-0.0957 0.8379,-0.287109 0.14843,-0.187501 0.22265,-0.580079 0.22265,-1.177735 l 0,-6.679687"
       id="path3050" />
    <path
       style="font-size:12px;font-style:normal;font-weight:normal;line-height:125%;letter-spacing:0px;word-spacing:0px;fill:#000000;fill-opacity:1;stroke:none;font-family:Sans"
       d="m 206.93842,40.956261 1.07813,0 0,1.365235 -1.07813,0 0,-1.365235"
       id="path3044" />
    <path
       inkscape:connector-curvature="0"
       id="path3019"
       d="m 248.06071,18.53125 c -16.81678,0 -30.46875,13.62072 -30.46875,30.4375 0,16.81678 13.65197,30.46875 30.46875,30.46875 16.81678,0 30.4375,-13.65197 30.4375,-30.46875 0,-16.81678 -13.62072,-30.4375 -30.4375,-30.4375 z m 0,1 c 16.27634,0 29.4375,13.16116 29.4375,29.4375 0,16.27634 -13.16116,29.46875 -29.4375,29.46875 -16.27634,0 -29.46875,-13.19241 -29.46875,-29.46875 0,-16.27634 13.19241,-29.4375 29.46875,-29.4375 z"
       style="font-size:medium;font-style:normal;font-variant:normal;font-weight:normal;font-stretch:normal;text-indent:0;text-align:start;text-decoration:none;line-height:normal;letter-spacing:normal;word-spacing:normal;text-transform:none;direction:ltr;block-progression:tb;writing-mode:lr-tb;text-anchor:start;baseline-shift:baseline;color:#000000;fill:#000000;fill-opacity:1;stroke:none;stroke-width:1;marker:none;visibility:visible;display:inline;overflow:visible;enable-background:accumulate;font-family:Sans;-inkscape-font-specification:Sans" />
    <path
       inkscape:connector-curvature="0"
       id="path3021"
       d="m 346.06071,18.53125 c -16.81678,0 -30.46875,13.62072 -30.46875,30.4375 0,16.81678 13.65197,30.46875 30.46875,30.46875 16.81678,0 30.4375,-13.65197 30.4375,-30.46875 0,-16.81678 -13.62072,-30.4375 -30.4375,-30.4375 z m 0,1 c 16.27634,0 29.4375,13.16116 29.4375,29.4375 0,16.27634 -13.16116,29.46875 -29.4375,29.46875 -16.27634,0 -29.46875,-13.19241 -29.46875,-29.46875 0,-16.27634 13.19241,-29.4375 29.46875,-29.4375 z"
       style="font-size:medium;font-style:normal;font-variant:normal;font-weight:normal;font-stretch:normal;text-indent:0;text-align:start;text-decoration:none;line-height:normal;letter-spacing:normal;word-spacing:normal;text-transform:none;direction:ltr;block-progression:tb;writing-mode:lr-tb;text-anchor:start;baseline-shift:baseline;color:#000000;fill:#000000;fill-opacity:1;stroke:none;stroke-width:1;marker:none;visibility:visible;display:inline;overflow:visible;enable-background:accumulate;font-family:Sans;-inkscape-font-specification:Sans" />
    <path
       inkscape:connector-curvature="0"
       id="path3023"
       d="m 241.32116,1.8520401 2.11914,0 3.62305,5.4199219 3.64258,-5.4199219 2.11914,0 -4.6875,7.0019531 5,7.5781248 -2.11914,0 -4.10156,-6.201172 -4.13086,6.201172 -2.12891,0 5.20508,-7.7832029 -4.54102,-6.796875"
       style="font-size:20px;font-style:normal;font-weight:normal;line-height:125%;letter-spacing:0px;word-spacing:0px;fill:#000000;fill-opacity:1;stroke:none;font-family:Sans" />
    <path
       inkscape:connector-curvature="0"
       id="path3025"
       d="m 339.56934,1.8520401 2.11915,0 4.04296,5.9960937 4.01368,-5.9960937 2.11914,0 -5.15625,7.6367187 0,6.9433592 -1.98243,0 0,-6.9433592 -5.15625,-7.6367187"
       style="font-size:20px;font-style:normal;font-weight:normal;line-height:125%;letter-spacing:0px;word-spacing:0px;fill:#000000;fill-opacity:1;stroke:none;font-family:Sans" />
    <path
       inkscape:connector-curvature="0"
       id="path3027"
       d="m 245.67253,31.84375 c -1.30259,0 -2.34375,1.041161 -2.34375,2.34375 0,1.30259 1.04116,2.375 2.34375,2.375 1.30259,0 2.375,-1.07241 2.375,-2.375 0,-1.302589 -1.07241,-2.34375 -2.375,-2.34375 z"
       style="font-size:medium;font-style:normal;font-variant:normal;font-weight:normal;font-stretch:normal;text-indent:0;text-align:start;text-decoration:none;line-height:normal;letter-spacing:normal;word-spacing:normal;text-transform:none;direction:ltr;block-progression:tb;writing-mode:lr-tb;text-anchor:start;baseline-shift:baseline;color:#000000;fill:#000000;fill-opacity:1;stroke:none;stroke-width:1;marker:none;visibility:visible;display:inline;overflow:visible;enable-background:accumulate;font-family:Sans;-inkscape-font-specification:Sans" />
    <path
       inkscape:connector-curvature="0"
       id="path3029"
       d="m 241.23726,57.621727 c -1.30259,0 -2.34375,1.041161 -2.34375,2.34375 0,1.30259 1.04116,2.375 2.34375,2.375 1.30259,0 2.375,-1.07241 2.375,-2.375 0,-1.302589 -1.07241,-2.34375 -2.375,-2.34375 z"
       style="font-size:medium;font-style:normal;font-variant:normal;font-weight:normal;font-stretch:normal;text-indent:0;text-align:start;text-decoration:none;line-height:normal;letter-spacing:normal;word-spacing:normal;text-transform:none;direction:ltr;block-progression:tb;writing-mode:lr-tb;text-anchor:start;baseline-shift:baseline;color:#000000;fill:#000000;fill-opacity:1;stroke:none;stroke-width:1;marker:none;visibility:visible;display:inline;overflow:visible;enable-background:accumulate;font-family:Sans;-inkscape-font-specification:Sans" />
    <path
       inkscape:connector-curvature="0"
       id="path3031"
       d="m 363.41217,53.859883 c -1.30259,0 -2.34375,1.041161 -2.34375,2.34375 0,1.30259 1.04116,2.375 2.34375,2.375 1.30259,0 2.375,-1.07241 2.375,-2.375 0,-1.302589 -1.07241,-2.34375 -2.375,-2.34375 z"
       style="font-size:medium;font-style:normal;font-variant:normal;font-weight:normal;font-stretch:normal;text-indent:0;text-align:start;text-decoration:none;line-height:normal;letter-spacing:normal;word-spacing:normal;text-transform:none;direction:ltr;block-progression:tb;writing-mode:lr-tb;text-anchor:start;baseline-shift:baseline;color:#000000;fill:#000000;fill-opacity:1;stroke:none;stroke-width:1;marker:none;visibility:visible;display:inline;overflow:visible;enable-background:accumulate;font-family:Sans;-inkscape-font-specification:Sans" />
    <path
       inkscape:connector-curvature="0"
       id="path3033"
       d="m 353.57716,30.99221 c -1.30259,0 -2.34375,1.041161 -2.34375,2.34375 0,1.30259 1.04116,2.375 2.34375,2.375 1.30259,0 2.375,-1.07241 2.375,-2.375 0,-1.302589 -1.07241,-2.34375 -2.375,-2.34375 z"
       style="font-size:medium;font-style:normal;font-variant:normal;font-weight:normal;font-stretch:normal;text-indent:0;text-align:start;text-decoration:none;line-height:normal;letter-spacing:normal;word-spacing:normal;text-transform:none;direction:ltr;block-progression:tb;writing-mode:lr-tb;text-anchor:start;baseline-shift:baseline;color:#000000;fill:#000000;fill-opacity:1;stroke:none;stroke-width:1;marker:none;visibility:visible;display:inline;overflow:visible;enable-background:accumulate;font-family:Sans;-inkscape-font-specification:Sans" />
    <path
       inkscape:connector-curvature="0"
       id="path3035"
       d="m 335.58215,44.037475 c -1.30259,0 -2.34375,1.041161 -2.34375,2.34375 0,1.30259 1.04116,2.375 2.34375,2.375 1.30258,0 2.375,-1.07241 2.375,-2.375 0,-1.302589 -1.07242,-2.34375 -2.375,-2.34375 z"
       style="font-size:medium;font-style:normal;font-variant:normal;font-weight:normal;font-stretch:normal;text-indent:0;text-align:start;text-decoration:none;line-height:normal;letter-spacing:normal;word-spacing:normal;text-transform:none;direction:ltr;block-progression:tb;writing-mode:lr-tb;text-anchor:start;baseline-shift:baseline;color:#000000;fill:#000000;fill-opacity:1;stroke:none;stroke-width:1;marker:none;visibility:visible;display:inline;overflow:visible;enable-background:accumulate;font-family:Sans;-inkscape-font-specification:Sans" />
    <path
       inkscape:connector-curvature="0"
       id="path3037"
       d="m 335.65925,62.747456 c -1.30259,0 -2.34375,1.041161 -2.34375,2.34375 0,1.30259 1.04116,2.375 2.34375,2.375 1.30259,0 2.375,-1.07241 2.375,-2.375 0,-1.302589 -1.07241,-2.34375 -2.375,-2.34375 z"
       style="font-size:medium;font-style:normal;font-variant:normal;font-weight:normal;font-stretch:normal;text-indent:0;text-align:start;text-decoration:none;line-height:normal;letter-spacing:normal;word-spacing:normal;text-transform:none;direction:ltr;block-progression:tb;writing-mode:lr-tb;text-anchor:start;baseline-shift:baseline;color:#000000;fill:#000000;fill-opacity:1;stroke:none;stroke-width:1;marker:none;visibility:visible;display:inline;overflow:visible;enable-background:accumulate;font-family:Sans;-inkscape-font-specification:Sans" />
    <path
       style="font-size:medium;font-style:normal;font-variant:normal;font-weight:normal;font-stretch:normal;text-indent:0;text-align:start;text-decoration:none;line-height:normal;letter-spacing:normal;word-spacing:normal;text-transform:none;direction:ltr;block-progression:tb;writing-mode:lr-tb;text-anchor:start;baseline-shift:baseline;color:#000000;fill:#000000;fill-opacity:1;stroke:none;stroke-width:1px;marker:none;visibility:visible;display:inline;overflow:visible;enable-background:accumulate;font-family:Sans;-inkscape-font-specification:Sans"
       d="M 75.03125,22.4375 C 59.693855,22.79807 43.641631,25.920812 29.375,34.21875 l 0.5,0.875 C 74.925083,8.8911507 138.65625,35.125 138.65625,35.125 l 0.375,-0.9375 c 0,0 -30.25773,-12.543254 -64,-11.75 z"
       id="path3057" />
    <path
       style="font-size:12px;fill-rule:evenodd;stroke-width:0.625;stroke-linejoin:round"
       d="m 130.64472,26.466114 9.42102,8.672939 -12.79539,-0.503405 c 2.77074,-1.678646 4.12337,-4.982419 3.37437,-8.169534 z"
       id="path4703" />
    <path
       style="font-size:medium;font-style:normal;font-variant:normal;font-weight:normal;font-stretch:normal;text-indent:0;text-align:start;text-decoration:none;line-height:normal;letter-spacing:normal;word-spacing:normal;text-transform:none;direction:ltr;block-progression:tb;writing-mode:lr-tb;text-anchor:start;baseline-shift:baseline;color:#000000;fill:#000000;fill-opacity:1;stroke:none;stroke-width:1px;marker:none;visibility:visible;display:inline;overflow:visible;enable-background:accumulate;font-family:Sans;-inkscape-font-specification:Sans"
       d="M 85.8125,41.1875 C 73.907518,41.458229 59.706569,43.543333 44.71875,49.46875 L 45.0625,50.375 c 39.629258,-15.667381 73.71875,-4.15625 73.71875,-4.15625 l 0.3125,-0.9375 c 0,0 -13.43961,-4.544965 -33.28125,-4.09375 z"
       id="path3063" />
    <path
       style="font-size:12px;fill-rule:evenodd;stroke-width:0.625;stroke-linejoin:round"
       d="m 110.22448,38.129532 9.97171,8.03371 -12.80077,0.340304 c 2.65418,-1.857465 3.78631,-5.243141 2.82906,-8.374014 z"
       id="path4695" />
    <path
       style="font-size:medium;font-style:normal;font-variant:normal;font-weight:normal;font-stretch:normal;text-indent:0;text-align:start;text-decoration:none;line-height:normal;letter-spacing:normal;word-spacing:normal;text-transform:none;direction:ltr;block-progression:tb;writing-mode:lr-tb;text-anchor:start;baseline-shift:baseline;color:#000000;fill:#000000;fill-opacity:1;stroke:none;stroke-width:1px;marker:none;visibility:visible;display:inline;overflow:visible;enable-background:accumulate;font-family:Sans;-inkscape-font-specification:Sans"
       d="M 66.5,54.6875 C 53.773383,54.77395 39.847177,56.144178 25.34375,59.625 l 0.21875,0.96875 c 57.679281,-13.843027 106.125,6 106.125,6 l 0.40625,-0.9375 c 0,0 -27.4139,-11.228096 -65.59375,-10.96875 z"
       id="path3065" />
    <path
       style="font-size:12px;fill-rule:evenodd;stroke-width:0.625;stroke-linejoin:round"
       d="m 123.67856,57.95929 9.44708,8.644538 -12.79685,-0.464882 c 2.76568,-1.68698 4.10836,-4.994809 3.34977,-8.179656 z"
       id="path4687" />
    <path
       style="font-size:medium;font-style:normal;font-variant:normal;font-weight:normal;font-stretch:normal;text-indent:0;text-align:start;text-decoration:none;line-height:normal;letter-spacing:normal;word-spacing:normal;text-transform:none;direction:ltr;block-progression:tb;writing-mode:lr-tb;text-anchor:start;baseline-shift:baseline;color:#000000;fill:#000000;fill-opacity:1;stroke:none;stroke-width:1px;marker:none;visibility:visible;display:inline;overflow:visible;enable-background:accumulate;font-family:Sans;-inkscape-font-specification:Sans"
       d="m 308.8125,23.03125 c -17.13948,-0.285262 -38.67245,2.285684 -63.71875,11.15625 l 0.34375,0.9375 c 33.24409,-11.773948 60.23352,-12.362906 78.90625,-10 18.67273,2.362906 29,7.65625 29,7.65625 l 0.4375,-0.90625 c 0,0 -10.5007,-5.338244 -29.3125,-7.71875 -4.70295,-0.595126 -9.94309,-1.029913 -15.65625,-1.125 z"
       id="path3067" />
    <path
       style="font-size:12px;fill-rule:evenodd;stroke-width:0.625;stroke-linejoin:round"
       d="m 346.058,23.518193 8.6903,9.405007 -12.71302,-1.534466 c 2.89719,-1.449547 4.51205,-4.633371 4.02272,-7.870541 z"
       id="path4663" />
    <path
       style="font-size:medium;font-style:normal;font-variant:normal;font-weight:normal;font-stretch:normal;text-indent:0;text-align:start;text-decoration:none;line-height:normal;letter-spacing:normal;word-spacing:normal;text-transform:none;direction:ltr;block-progression:tb;writing-mode:lr-tb;text-anchor:start;baseline-shift:baseline;color:#000000;fill:#000000;fill-opacity:1;stroke:none;stroke-width:1px;marker:none;visibility:visible;display:inline;overflow:visible;enable-background:accumulate;font-family:Sans;-inkscape-font-specification:Sans"
       d="m 319.3125,44.875 c -16.73172,0.366442 -45.38277,2.981757 -79.28125,14.28125 l 0.3125,0.96875 C 294.39482,42.107976 335,46.25 335,46.25 l 0.0937,-1 c 0,0 -5.74222,-0.594865 -15.78125,-0.375 z"
       id="path4287" />
    <path
       style="font-size:12px;fill-rule:evenodd;stroke-width:0.625;stroke-linejoin:round"
       d="m 324.86336,40.253125 11.50645,5.619343 -12.40575,3.173777 c 2.17556,-2.400378 2.52776,-5.952908 0.8993,-8.79312 z"
       id="path4671" />
    <path
       style="font-size:medium;font-style:normal;font-variant:normal;font-weight:normal;font-stretch:normal;text-indent:0;text-align:start;text-decoration:none;line-height:normal;letter-spacing:normal;word-spacing:normal;text-transform:none;direction:ltr;block-progression:tb;writing-mode:lr-tb;text-anchor:start;baseline-shift:baseline;color:#000000;fill:#000000;fill-opacity:1;stroke:none;stroke-width:1px;marker:none;visibility:visible;display:inline;overflow:visible;enable-background:accumulate;font-family:Sans;-inkscape-font-specification:Sans"
       d="m 279.90625,55.625 c -11.65451,7e-6 -24.97509,0.98107 -39.8125,3.53125 L 240.25,60.125 c 29.55999,-5.080623 53.13257,-3.8189 69.28125,-1.28125 16.14868,2.53765 24.84375,6.34375 24.84375,6.34375 l 0.40625,-0.90625 c 0,0 -8.8484,-3.853409 -25.09375,-6.40625 -8.12268,-1.276421 -18.12674,-2.250007 -29.78125,-2.25 z"
       id="path3069" />
    <path
       style="font-size:12px;fill-rule:evenodd;stroke-width:0.625;stroke-linejoin:round"
       d="m 326.54541,56.400694 9.26387,8.840604 -12.7843,-0.732939 c 2.80042,-1.628655 4.21212,-4.907622 3.52043,-8.107665 z"
       id="path4679" />
  </g>
</svg>
