<?xml version="1.0" encoding="UTF-8" standalone="no"?>
<!-- Created with Inkscape (http://www.inkscape.org/) -->

<svg
   xmlns:dc="http://purl.org/dc/elements/1.1/"
   xmlns:cc="http://creativecommons.org/ns#"
   xmlns:rdf="http://www.w3.org/1999/02/22-rdf-syntax-ns#"
   xmlns:svg="http://www.w3.org/2000/svg"
   xmlns="http://www.w3.org/2000/svg"
   xmlns:sodipodi="http://sodipodi.sourceforge.net/DTD/sodipodi-0.dtd"
   xmlns:inkscape="http://www.inkscape.org/namespaces/inkscape"
   width="300"
   height="80"
   id="svg2"
   version="1.1"
   inkscape:version="0.48.0 r9654"
   sodipodi:docname="2011-(02)feb-02, 08.svg">
  <defs
     id="defs4" />
  <sodipodi:namedview
     id="base"
     pagecolor="#ffffff"
     bordercolor="#666666"
     borderopacity="1.0"
     inkscape:pageopacity="0.0"
     inkscape:pageshadow="2"
     inkscape:zoom="2.363859"
     inkscape:cx="63.273911"
     inkscape:cy="17.699638"
     inkscape:document-units="px"
     inkscape:current-layer="layer1"
     showgrid="false"
     inkscape:window-width="1589"
     inkscape:window-height="1117"
     inkscape:window-x="1600"
     inkscape:window-y="27"
     inkscape:window-maximized="1"
     showguides="true"
     inkscape:guide-bbox="true" />
  <metadata
     id="metadata7">
    <rdf:RDF>
      <cc:Work
         rdf:about="">
        <dc:format>image/svg+xml</dc:format>
        <dc:type
           rdf:resource="http://purl.org/dc/dcmitype/StillImage" />
        <dc:title />
      </cc:Work>
    </rdf:RDF>
  </metadata>
  <g
     inkscape:label="Layer 1"
     inkscape:groupmode="layer"
     id="layer1">
    <path
       d="M 15.78125 12.75 C 15.300778 12.750007 14.878903 12.839851 14.53125 13.03125 C 14.187497 13.218756 13.91406 13.515631 13.6875 13.90625 L 13.6875 12.90625 L 12.59375 12.90625 L 12.59375 21.96875 L 13.6875 21.96875 L 13.6875 18.46875 C 13.91406 18.859376 14.187497 19.152344 14.53125 19.34375 C 14.878903 19.53125 15.300778 19.625 15.78125 19.625 C 16.57812 19.625 17.222651 19.320313 17.71875 18.6875 C 18.218744 18.054689 18.468744 17.218753 18.46875 16.1875 C 18.468744 15.156255 18.218744 14.320317 17.71875 13.6875 C 17.222651 13.054693 16.57812 12.750007 15.78125 12.75 z M 15.5 13.65625 C 16.070307 13.656255 16.519527 13.859381 16.84375 14.3125 C 17.17187 14.761723 17.343744 15.394536 17.34375 16.1875 C 17.343744 16.980472 17.17187 17.609377 16.84375 18.0625 C 16.519527 18.51172 16.070307 18.718751 15.5 18.71875 C 14.929684 18.718751 14.484372 18.51172 14.15625 18.0625 C 13.832029 17.609377 13.687498 16.980472 13.6875 16.1875 C 13.687498 15.394536 13.832029 14.761723 14.15625 14.3125 C 14.484372 13.859381 14.929684 13.656255 15.5 13.65625 z "
       id="path4022" />
    <path
       style="font-size:65.00091553%;baseline-shift:sub"
       d="m 22.282173,18.795029 c 0.368166,0.07871 0.655084,0.242487 0.860755,0.491315 0.208202,0.248834 0.312305,0.556065 0.312309,0.921693 -4e-6,0.561142 -0.192976,0.995327 -0.578915,1.302557 -0.385946,0.307231 -0.934391,0.460847 -1.645335,0.460847 -0.238677,0 -0.48497,-0.02412 -0.738878,-0.07236 -0.251372,-0.0457 -0.511629,-0.115529 -0.780773,-0.209476 l 0,-0.742686 c 0.213284,0.124416 0.446881,0.218363 0.700792,0.28184 0.253908,0.06348 0.519243,0.09522 0.796007,0.09522 0.482426,0 0.849325,-0.09522 1.100699,-0.285649 0.253906,-0.190431 0.380861,-0.467193 0.380865,-0.830285 -4e-6,-0.335159 -0.118072,-0.596686 -0.354204,-0.784581 -0.2336,-0.19043 -0.559874,-0.285646 -0.978823,-0.285649 l -0.662704,0 0,-0.632235 0.693173,0 c 0.378323,3e-6 0.66778,-0.0749 0.868372,-0.224711 0.200585,-0.152342 0.30088,-0.370704 0.300883,-0.655087 -3e-6,-0.291992 -0.104106,-0.515432 -0.312309,-0.670322 -0.20567,-0.157419 -0.501475,-0.236131 -0.887415,-0.236136 -0.210747,5e-6 -0.436727,0.02286 -0.677939,0.06856 -0.241216,0.04571 -0.506551,0.116803 -0.796007,0.213284 l 0,-0.685557 c 0.291995,-0.08124 0.564948,-0.142183 0.818859,-0.182815 0.256447,-0.04062 0.497661,-0.06093 0.723643,-0.06094 0.58399,6e-6 1.046105,0.133308 1.386347,0.399908 0.340236,0.264071 0.510355,0.622084 0.510359,1.074039 -4e-6,0.314852 -0.09014,0.581457 -0.270414,0.799815 -0.180279,0.215827 -0.436728,0.365634 -0.769347,0.449421"
       id="path3886" />
    <path
       d="M 250.75 13.875 C 250.26953 13.875007 249.84765 13.964851 249.5 14.15625 C 249.15624 14.343756 248.88281 14.640631 248.65625 15.03125 L 248.65625 14.03125 L 247.5625 14.03125 L 247.5625 23.09375 L 248.65625 23.09375 L 248.65625 19.625 C 248.88281 20.015626 249.15624 20.308594 249.5 20.5 C 249.84765 20.6875 250.26953 20.78125 250.75 20.78125 C 251.54687 20.78125 252.1914 20.445313 252.6875 19.8125 C 253.18749 19.179689 253.43749 18.375003 253.4375 17.34375 C 253.43749 16.312505 253.18749 15.476567 252.6875 14.84375 C 252.1914 14.210943 251.54687 13.875007 250.75 13.875 z M 250.5 14.78125 C 251.07031 14.781255 251.48828 15.015631 251.8125 15.46875 C 252.14062 15.917973 252.31249 16.550786 252.3125 17.34375 C 252.31249 18.136722 252.14062 18.734377 251.8125 19.1875 C 251.48828 19.63672 251.07031 19.875001 250.5 19.875 C 249.92969 19.875001 249.45312 19.63672 249.125 19.1875 C 248.80078 18.734377 248.65625 18.136722 248.65625 17.34375 C 248.65625 16.550786 248.80078 15.917973 249.125 15.46875 C 249.45312 15.015631 249.92969 14.781255 250.5 14.78125 z "
       id="path4016" />
    <path
       style="font-size:65.00091553%;baseline-shift:sub"
       d="m 257.25963,19.939165 c 0.36817,0.07871 0.65509,0.242487 0.86076,0.491315 0.2082,0.248834 0.3123,0.556065 0.31231,0.921693 -1e-5,0.561142 -0.19298,0.995327 -0.57892,1.302557 -0.38594,0.307231 -0.93439,0.460847 -1.64533,0.460847 -0.23868,0 -0.48497,-0.02412 -0.73888,-0.07236 -0.25137,-0.0457 -0.51163,-0.115529 -0.78077,-0.209476 l 0,-0.742686 c 0.21328,0.124416 0.44688,0.218363 0.70079,0.28184 0.25391,0.06348 0.51924,0.09522 0.79601,0.09522 0.48242,0 0.84932,-0.09522 1.10069,-0.285649 0.25391,-0.190431 0.38086,-0.467193 0.38087,-0.830285 -1e-5,-0.335159 -0.11807,-0.596686 -0.35421,-0.784581 -0.23359,-0.19043 -0.55987,-0.285646 -0.97882,-0.285649 l -0.6627,0 0,-0.632235 0.69317,0 c 0.37832,3e-6 0.66778,-0.0749 0.86837,-0.224711 0.20059,-0.152342 0.30088,-0.370704 0.30089,-0.655087 -1e-5,-0.291992 -0.10411,-0.515432 -0.31231,-0.670322 -0.20567,-0.157419 -0.50148,-0.236131 -0.88742,-0.236136 -0.21075,5e-6 -0.43672,0.02286 -0.67794,0.06856 -0.24121,0.04571 -0.50655,0.116803 -0.796,0.213284 l 0,-0.685557 c 0.29199,-0.08124 0.56494,-0.142183 0.81885,-0.182815 0.25645,-0.04062 0.49767,-0.06093 0.72365,-0.06094 0.58399,6e-6 1.0461,0.133308 1.38634,0.399908 0.34024,0.264071 0.51036,0.622084 0.51036,1.074039 0,0.314852 -0.0901,0.581457 -0.27041,0.799815 -0.18028,0.215827 -0.43673,0.365634 -0.76935,0.449421"
       id="path3891" />
    <path
       d="m 264.15292,15.155907 7.51172,0 0,0.984375 -7.51172,0 0,-0.984375"
       id="path4010" />
    <path
       d="m 264.15292,17.546532 7.51172,0 0,0.996094 -7.51172,0 0,-0.996094"
       id="path3893" />
    <path
       d="m 281.62558,15.888329 c 0.5664,0.121098 1.0078,0.373051 1.32422,0.755859 0.3203,0.382817 0.48046,0.855472 0.48047,1.417969 -1e-5,0.863283 -0.29689,1.531251 -0.89063,2.003906 -0.59376,0.472657 -1.43751,0.708985 -2.53125,0.708985 -0.36719,0 -0.7461,-0.03711 -1.13672,-0.111328 -0.38672,-0.07031 -0.78711,-0.177735 -1.20117,-0.322266 l 0,-1.142578 c 0.32812,0.191407 0.6875,0.335939 1.07812,0.433594 0.39063,0.09766 0.79883,0.146485 1.22461,0.146484 0.74219,1e-6 1.30664,-0.146483 1.69336,-0.439453 0.39062,-0.292967 0.58593,-0.718748 0.58594,-1.277344 -10e-6,-0.515622 -0.18165,-0.917965 -0.54492,-1.207031 -0.35938,-0.292965 -0.86133,-0.439449 -1.50586,-0.439453 l -1.01953,0 0,-0.972656 1.0664,0 c 0.58203,5e-6 1.02734,-0.11523 1.33594,-0.345704 0.30859,-0.234369 0.46289,-0.570306 0.46289,-1.007812 0,-0.449212 -0.16016,-0.792962 -0.48047,-1.03125 -0.31641,-0.24218 -0.77148,-0.363273 -1.36523,-0.363281 -0.32422,8e-6 -0.67188,0.03516 -1.04297,0.105468 -0.3711,0.07032 -0.7793,0.179696 -1.22461,0.328125 l 0,-1.054687 c 0.44922,-0.124991 0.86914,-0.218741 1.25977,-0.28125 0.39452,-0.06249 0.76562,-0.09374 1.11328,-0.09375 0.89843,9e-6 1.60937,0.205087 2.13281,0.615234 0.52343,0.406258 0.78515,0.957039 0.78516,1.652344 -10e-6,0.484381 -0.13868,0.894537 -0.41602,1.230469 -0.27735,0.332036 -0.67188,0.562505 -1.18359,0.691406"
       id="path3895" />
    <path
       style="font-size:medium;font-style:normal;font-variant:normal;font-weight:normal;font-stretch:normal;text-indent:0;text-align:start;text-decoration:none;line-height:normal;letter-spacing:normal;word-spacing:normal;text-transform:none;direction:ltr;block-progression:tb;writing-mode:lr-tb;text-anchor:start;baseline-shift:baseline;color:#000000;fill:#000000;fill-opacity:1;stroke:none;stroke-width:1.00003982;marker:none;visibility:visible;display:inline;overflow:visible;enable-background:accumulate;font-family:Sans;-inkscape-font-specification:Sans"
       d="M 39.75 5.9375 L 39.75 6.4375 L 39.75 29.4375 L 39.75 29.9375 L 40.25 29.9375 L 51.25 29.9375 L 51.75 29.9375 L 51.75 29.4375 L 51.75 6.4375 L 51.75 5.9375 L 51.25 5.9375 L 40.25 5.9375 L 39.75 5.9375 z M 40.75 6.9375 L 50.75 6.9375 L 50.75 28.9375 L 40.75 28.9375 L 40.75 6.9375 z "
       id="path4026" />
    <path
       style="font-size:medium;font-style:normal;font-variant:normal;font-weight:normal;font-stretch:normal;text-indent:0;text-align:start;text-decoration:none;line-height:normal;letter-spacing:normal;word-spacing:normal;text-transform:none;direction:ltr;block-progression:tb;writing-mode:lr-tb;text-anchor:start;baseline-shift:baseline;color:#000000;fill:#000000;fill-opacity:1;stroke:none;stroke-width:1.00003982;marker:none;visibility:visible;display:inline;overflow:visible;enable-background:accumulate;font-family:Sans;-inkscape-font-specification:Sans"
       d="M 51.75 5.9375 L 51.75 6.4375 L 51.75 29.4375 L 51.75 29.9375 L 52.25 29.9375 L 63.25 29.9375 L 63.75 29.9375 L 63.75 29.4375 L 63.75 6.4375 L 63.75 5.9375 L 63.25 5.9375 L 52.25 5.9375 L 51.75 5.9375 z M 52.75 6.9375 L 62.75 6.9375 L 62.75 28.9375 L 52.75 28.9375 L 52.75 6.9375 z "
       id="path4030" />
    <path
       style="font-size:medium;font-style:normal;font-variant:normal;font-weight:normal;font-stretch:normal;text-indent:0;text-align:start;text-decoration:none;line-height:normal;letter-spacing:normal;word-spacing:normal;text-transform:none;direction:ltr;block-progression:tb;writing-mode:lr-tb;text-anchor:start;baseline-shift:baseline;color:#000000;fill:#000000;fill-opacity:1;stroke:none;stroke-width:1.00003982;marker:none;visibility:visible;display:inline;overflow:visible;enable-background:accumulate;font-family:Sans;-inkscape-font-specification:Sans"
       d="M 63.75 5.9375 L 63.75 6.4375 L 63.75 29.4375 L 63.75 29.9375 L 64.25 29.9375 L 75.25 29.9375 L 75.75 29.9375 L 75.75 29.4375 L 75.75 6.4375 L 75.75 5.9375 L 75.25 5.9375 L 64.25 5.9375 L 63.75 5.9375 z M 64.75 6.9375 L 74.75 6.9375 L 74.75 28.9375 L 64.75 28.9375 L 64.75 6.9375 z "
       id="path4034" />
    <path
       style="font-size:medium;font-style:normal;font-variant:normal;font-weight:normal;font-stretch:normal;text-indent:0;text-align:start;text-decoration:none;line-height:normal;letter-spacing:normal;word-spacing:normal;text-transform:none;direction:ltr;block-progression:tb;writing-mode:lr-tb;text-anchor:start;baseline-shift:baseline;color:#000000;fill:#000000;fill-opacity:1;stroke:none;stroke-width:1.00003982;marker:none;visibility:visible;display:inline;overflow:visible;enable-background:accumulate;font-family:Sans;-inkscape-font-specification:Sans"
       d="M 99.75 5.9375 L 99.75 6.4375 L 99.75 29.4375 L 99.75 29.9375 L 100.25 29.9375 L 111.25 29.9375 L 111.75 29.9375 L 111.75 29.4375 L 111.75 6.4375 L 111.75 5.9375 L 111.25 5.9375 L 100.25 5.9375 L 99.75 5.9375 z M 100.75 6.9375 L 110.75 6.9375 L 110.75 28.9375 L 100.75 28.9375 L 100.75 6.9375 z "
       id="path4038" />
    <path
       style="font-size:medium;font-style:normal;font-variant:normal;font-weight:normal;font-stretch:normal;text-indent:0;text-align:start;text-decoration:none;line-height:normal;letter-spacing:normal;word-spacing:normal;text-transform:none;direction:ltr;block-progression:tb;writing-mode:lr-tb;text-anchor:start;baseline-shift:baseline;color:#000000;fill:#000000;fill-opacity:1;stroke:none;stroke-width:1.00003982;marker:none;visibility:visible;display:inline;overflow:visible;enable-background:accumulate;font-family:Sans;-inkscape-font-specification:Sans"
       d="M 111.75 5.9375 L 111.75 6.4375 L 111.75 17.4375 L 111.75 17.9375 L 112.25 17.9375 L 135.25 17.9375 L 135.75 17.9375 L 135.75 17.4375 L 135.75 6.4375 L 135.75 5.9375 L 135.25 5.9375 L 112.25 5.9375 L 111.75 5.9375 z M 112.75 6.9375 L 134.75 6.9375 L 134.75 16.9375 L 112.75 16.9375 L 112.75 6.9375 z "
       id="path4042" />
    <path
       style="font-size:medium;font-style:normal;font-variant:normal;font-weight:normal;font-stretch:normal;text-indent:0;text-align:start;text-decoration:none;line-height:normal;letter-spacing:normal;word-spacing:normal;text-transform:none;direction:ltr;block-progression:tb;writing-mode:lr-tb;text-anchor:start;baseline-shift:baseline;color:#000000;fill:#000000;fill-opacity:1;stroke:none;stroke-width:1.00003982;marker:none;visibility:visible;display:inline;overflow:visible;enable-background:accumulate;font-family:Sans;-inkscape-font-specification:Sans"
       d="M 111.75 17.9375 L 111.75 18.4375 L 111.75 29.4375 L 111.75 29.9375 L 112.25 29.9375 L 135.25 29.9375 L 135.75 29.9375 L 135.75 29.4375 L 135.75 18.4375 L 135.75 17.9375 L 135.25 17.9375 L 112.25 17.9375 L 111.75 17.9375 z M 112.75 18.9375 L 134.75 18.9375 L 134.75 28.9375 L 112.75 28.9375 L 112.75 18.9375 z "
       id="path4046" />
    <path
       style="font-size:medium;font-style:normal;font-variant:normal;font-weight:normal;font-stretch:normal;text-indent:0;text-align:start;text-decoration:none;line-height:normal;letter-spacing:normal;word-spacing:normal;text-transform:none;direction:ltr;block-progression:tb;writing-mode:lr-tb;text-anchor:start;baseline-shift:baseline;color:#000000;fill:#000000;fill-opacity:1;stroke:none;stroke-width:1.00003982;marker:none;visibility:visible;display:inline;overflow:visible;enable-background:accumulate;font-family:Sans;-inkscape-font-specification:Sans"
       d="M 183.75 5.9375 L 183.75 6.4375 L 183.75 29.4375 L 183.75 29.9375 L 184.25 29.9375 L 195.25 29.9375 L 195.75 29.9375 L 195.75 29.4375 L 195.75 6.4375 L 195.75 5.9375 L 195.25 5.9375 L 184.25 5.9375 L 183.75 5.9375 z M 184.75 6.9375 L 194.75 6.9375 L 194.75 28.9375 L 184.75 28.9375 L 184.75 6.9375 z "
       id="path4050" />
    <path
       style="font-size:medium;font-style:normal;font-variant:normal;font-weight:normal;font-stretch:normal;text-indent:0;text-align:start;text-decoration:none;line-height:normal;letter-spacing:normal;word-spacing:normal;text-transform:none;direction:ltr;block-progression:tb;writing-mode:lr-tb;text-anchor:start;baseline-shift:baseline;color:#000000;fill:#000000;fill-opacity:1;stroke:none;stroke-width:1.00003982;marker:none;visibility:visible;display:inline;overflow:visible;enable-background:accumulate;font-family:Sans;-inkscape-font-specification:Sans"
       d="M 159.75 5.9375 L 159.75 6.4375 L 159.75 17.4375 L 159.75 17.9375 L 160.25 17.9375 L 183.25 17.9375 L 183.75 17.9375 L 183.75 17.4375 L 183.75 6.4375 L 183.75 5.9375 L 183.25 5.9375 L 160.25 5.9375 L 159.75 5.9375 z M 160.75 6.9375 L 182.75 6.9375 L 182.75 16.9375 L 160.75 16.9375 L 160.75 6.9375 z "
       id="path4054" />
    <path
       style="font-size:medium;font-style:normal;font-variant:normal;font-weight:normal;font-stretch:normal;text-indent:0;text-align:start;text-decoration:none;line-height:normal;letter-spacing:normal;word-spacing:normal;text-transform:none;direction:ltr;block-progression:tb;writing-mode:lr-tb;text-anchor:start;baseline-shift:baseline;color:#000000;fill:#000000;fill-opacity:1;stroke:none;stroke-width:1.00003982;marker:none;visibility:visible;display:inline;overflow:visible;enable-background:accumulate;font-family:Sans;-inkscape-font-specification:Sans"
       d="M 159.75 17.9375 L 159.75 18.4375 L 159.75 29.4375 L 159.75 29.9375 L 160.25 29.9375 L 183.25 29.9375 L 183.75 29.9375 L 183.75 29.4375 L 183.75 18.4375 L 183.75 17.9375 L 183.25 17.9375 L 160.25 17.9375 L 159.75 17.9375 z M 160.75 18.9375 L 182.75 18.9375 L 182.75 28.9375 L 160.75 28.9375 L 160.75 18.9375 z "
       id="path4058" />
    <path
       d="M 15.78125 56.75 C 15.300778 56.750007 14.878903 56.839851 14.53125 57.03125 C 14.187497 57.218756 13.91406 57.515631 13.6875 57.90625 L 13.6875 56.90625 L 12.59375 56.90625 L 12.59375 65.96875 L 13.6875 65.96875 L 13.6875 62.46875 C 13.91406 62.859376 14.187497 63.152344 14.53125 63.34375 C 14.878903 63.53125 15.300778 63.625 15.78125 63.625 C 16.57812 63.625 17.222651 63.320313 17.71875 62.6875 C 18.218744 62.054689 18.468744 61.218753 18.46875 60.1875 C 18.468744 59.156255 18.218744 58.320317 17.71875 57.6875 C 17.222651 57.054693 16.57812 56.750007 15.78125 56.75 z M 15.5 57.65625 C 16.070307 57.656255 16.519527 57.859381 16.84375 58.3125 C 17.17187 58.761723 17.343744 59.394536 17.34375 60.1875 C 17.343744 60.980472 17.17187 61.609377 16.84375 62.0625 C 16.519527 62.51172 16.070307 62.718751 15.5 62.71875 C 14.929684 62.718751 14.484372 62.51172 14.15625 62.0625 C 13.832029 61.609377 13.687498 60.980472 13.6875 60.1875 C 13.687498 59.394536 13.832029 58.761723 14.15625 58.3125 C 14.484372 57.859381 14.929684 57.656255 15.5 57.65625 z "
       id="path4004" />
    <path
       style="font-size:65.00091553%;baseline-shift:sub"
       d="m 20.613986,65.21352 2.685096,0 0,0.64747 -3.610597,0 0,-0.64747 c 0.291995,-0.302152 0.689364,-0.707138 1.192106,-1.214959 0.505279,-0.510356 0.822665,-0.839169 0.952162,-0.986439 0.24629,-0.276759 0.417679,-0.510356 0.514167,-0.700791 0.09902,-0.192968 0.148534,-0.382131 0.148538,-0.567489 -4e-6,-0.302148 -0.106646,-0.54844 -0.319927,-0.738877 -0.210748,-0.190428 -0.48624,-0.285644 -0.826476,-0.285649 -0.241216,5e-6 -0.496396,0.0419 -0.765538,0.125685 -0.266607,0.0838 -0.552255,0.21075 -0.856946,0.380865 l 0,-0.776964 c 0.309769,-0.12441 0.599226,-0.218357 0.868372,-0.28184 0.269142,-0.06347 0.515435,-0.09521 0.738877,-0.09522 0.589068,6e-6 1.058801,0.147273 1.4092,0.441803 0.350391,0.294541 0.525589,0.6881 0.525593,1.180681 -4e-6,0.233601 -0.04444,0.455772 -0.133302,0.666513 -0.08633,0.208209 -0.245027,0.454502 -0.476081,0.738878 -0.06348,0.07364 -0.265339,0.28692 -0.605575,0.639852 -0.340242,0.350398 -0.820131,0.841713 -1.439669,1.473947"
       id="path3909" />
    <path
       d="M 250.75 57.875 C 250.26953 57.875007 249.84765 57.964851 249.5 58.15625 C 249.15624 58.343756 248.88281 58.640631 248.65625 59.03125 L 248.65625 58.03125 L 247.5625 58.03125 L 247.5625 67.09375 L 248.65625 67.09375 L 248.65625 63.625 C 248.88281 64.015626 249.15624 64.308594 249.5 64.5 C 249.84765 64.6875 250.26953 64.78125 250.75 64.78125 C 251.54687 64.78125 252.1914 64.445313 252.6875 63.8125 C 253.18749 63.179689 253.43749 62.375003 253.4375 61.34375 C 253.43749 60.312505 253.18749 59.476567 252.6875 58.84375 C 252.1914 58.210943 251.54687 57.875007 250.75 57.875 z M 250.5 58.78125 C 251.07031 58.781255 251.48828 59.015631 251.8125 59.46875 C 252.14062 59.917973 252.31249 60.550786 252.3125 61.34375 C 252.31249 62.136722 252.14062 62.734377 251.8125 63.1875 C 251.48828 63.63672 251.07031 63.875001 250.5 63.875 C 249.92969 63.875001 249.45312 63.63672 249.125 63.1875 C 248.80078 62.734377 248.65625 62.136722 248.65625 61.34375 C 248.65625 60.550786 248.80078 59.917973 249.125 59.46875 C 249.45312 59.015631 249.92969 58.781255 250.5 58.78125 z "
       id="path3998" />
    <path
       style="font-size:65.00091553%;baseline-shift:sub"
       d="m 255.59145,66.357656 2.68509,0 0,0.64747 -3.61059,0 0,-0.64747 c 0.29199,-0.302152 0.68936,-0.707138 1.1921,-1.214959 0.50528,-0.510356 0.82267,-0.839169 0.95216,-0.986439 0.24629,-0.276759 0.41768,-0.510356 0.51417,-0.700791 0.099,-0.192968 0.14853,-0.382131 0.14854,-0.567489 -10e-6,-0.302148 -0.10665,-0.54844 -0.31993,-0.738877 -0.21075,-0.190428 -0.48624,-0.285644 -0.82647,-0.285649 -0.24122,5e-6 -0.4964,0.0419 -0.76554,0.125685 -0.26661,0.0838 -0.55226,0.21075 -0.85695,0.380865 l 0,-0.776964 c 0.30977,-0.12441 0.59923,-0.218357 0.86837,-0.28184 0.26914,-0.06347 0.51544,-0.09521 0.73888,-0.09522 0.58907,6e-6 1.0588,0.147273 1.4092,0.441803 0.35039,0.294541 0.52559,0.6881 0.52559,1.180681 0,0.233601 -0.0444,0.455772 -0.1333,0.666513 -0.0863,0.208209 -0.24503,0.454502 -0.47608,0.738878 -0.0635,0.07364 -0.26534,0.28692 -0.60558,0.639852 -0.34024,0.350398 -0.82013,0.841713 -1.43966,1.473947"
       id="path3914" />
    <path
       d="m 264.15292,59.155907 7.51172,0 0,0.984375 -7.51172,0 0,-0.984375"
       id="path3992" />
    <path
       d="m 264.15292,61.546532 7.51172,0 0,0.996094 -7.51172,0 0,-0.996094"
       id="path3916" />
    <path
       d="m 279.05917,63.609032 4.13086,0 0,0.996094 -5.55469,0 0,-0.996094 c 0.44922,-0.464842 1.06055,-1.087888 1.83399,-1.86914 0.77734,-0.785153 1.26562,-1.291012 1.46484,-1.517579 0.3789,-0.425776 0.64257,-0.785151 0.79102,-1.078125 0.15233,-0.296869 0.22851,-0.587884 0.22851,-0.873046 0,-0.464837 -0.16407,-0.843743 -0.49218,-1.136719 -0.32423,-0.292961 -0.74806,-0.439445 -1.27149,-0.439453 -0.3711,8e-6 -0.76367,0.06446 -1.17773,0.193359 -0.41016,0.128914 -0.84962,0.324226 -1.31836,0.585938 l 0,-1.195313 c 0.47656,-0.191398 0.92187,-0.335929 1.33593,-0.433594 0.41406,-0.09765 0.79297,-0.146475 1.13672,-0.146484 0.90625,9e-6 1.6289,0.226571 2.16797,0.679687 0.53906,0.453133 0.80859,1.058601 0.80859,1.816407 0,0.359381 -0.0684,0.701177 -0.20507,1.02539 -0.13282,0.320318 -0.37696,0.699224 -0.73243,1.136719 -0.0976,0.113285 -0.4082,0.44141 -0.93163,0.984375 -0.52345,0.539065 -1.26173,1.294924 -2.21485,2.267578"
       id="path3918" />
    <path
       style="font-size:medium;font-style:normal;font-variant:normal;font-weight:normal;font-stretch:normal;text-indent:0;text-align:start;text-decoration:none;line-height:normal;letter-spacing:normal;word-spacing:normal;text-transform:none;direction:ltr;block-progression:tb;writing-mode:lr-tb;text-anchor:start;baseline-shift:baseline;color:#000000;fill:#000000;fill-opacity:1;stroke:none;stroke-width:1.00003982;marker:none;visibility:visible;display:inline;overflow:visible;enable-background:accumulate;font-family:Sans;-inkscape-font-specification:Sans"
       d="M 39.75 49.9375 L 39.75 50.4375 L 39.75 73.4375 L 39.75 73.9375 L 40.25 73.9375 L 51.25 73.9375 L 51.75 73.9375 L 51.75 73.4375 L 51.75 50.4375 L 51.75 49.9375 L 51.25 49.9375 L 40.25 49.9375 L 39.75 49.9375 z M 40.75 50.9375 L 50.75 50.9375 L 50.75 72.9375 L 40.75 72.9375 L 40.75 50.9375 z "
       id="path4062" />
    <path
       style="font-size:medium;font-style:normal;font-variant:normal;font-weight:normal;font-stretch:normal;text-indent:0;text-align:start;text-decoration:none;line-height:normal;letter-spacing:normal;word-spacing:normal;text-transform:none;direction:ltr;block-progression:tb;writing-mode:lr-tb;text-anchor:start;baseline-shift:baseline;color:#000000;fill:#000000;fill-opacity:1;stroke:none;stroke-width:1.00003982;marker:none;visibility:visible;display:inline;overflow:visible;enable-background:accumulate;font-family:Sans;-inkscape-font-specification:Sans"
       d="M 51.75 49.9375 L 51.75 50.4375 L 51.75 73.4375 L 51.75 73.9375 L 52.25 73.9375 L 63.25 73.9375 L 63.75 73.9375 L 63.75 73.4375 L 63.75 50.4375 L 63.75 49.9375 L 63.25 49.9375 L 52.25 49.9375 L 51.75 49.9375 z M 52.75 50.9375 L 62.75 50.9375 L 62.75 72.9375 L 52.75 72.9375 L 52.75 50.9375 z "
       id="path4066" />
    <path
       style="font-size:medium;font-style:normal;font-variant:normal;font-weight:normal;font-stretch:normal;text-indent:0;text-align:start;text-decoration:none;line-height:normal;letter-spacing:normal;word-spacing:normal;text-transform:none;direction:ltr;block-progression:tb;writing-mode:lr-tb;text-anchor:start;baseline-shift:baseline;color:#000000;fill:#000000;fill-opacity:1;stroke:none;stroke-width:1.00003982;marker:none;visibility:visible;display:inline;overflow:visible;enable-background:accumulate;font-family:Sans;-inkscape-font-specification:Sans"
       d="M 99.75 49.9375 L 99.75 50.4375 L 99.75 61.4375 L 99.75 61.9375 L 100.25 61.9375 L 123.25 61.9375 L 123.75 61.9375 L 123.75 61.4375 L 123.75 50.4375 L 123.75 49.9375 L 123.25 49.9375 L 100.25 49.9375 L 99.75 49.9375 z M 100.75 50.9375 L 122.75 50.9375 L 122.75 60.9375 L 100.75 60.9375 L 100.75 50.9375 z "
       id="path4070" />
    <path
       style="font-size:medium;font-style:normal;font-variant:normal;font-weight:normal;font-stretch:normal;text-indent:0;text-align:start;text-decoration:none;line-height:normal;letter-spacing:normal;word-spacing:normal;text-transform:none;direction:ltr;block-progression:tb;writing-mode:lr-tb;text-anchor:start;baseline-shift:baseline;color:#000000;fill:#000000;fill-opacity:1;stroke:none;stroke-width:1.00003982;marker:none;visibility:visible;display:inline;overflow:visible;enable-background:accumulate;font-family:Sans;-inkscape-font-specification:Sans"
       d="M 99.75 61.9375 L 99.75 62.4375 L 99.75 73.4375 L 99.75 73.9375 L 100.25 73.9375 L 123.25 73.9375 L 123.75 73.9375 L 123.75 73.4375 L 123.75 62.4375 L 123.75 61.9375 L 123.25 61.9375 L 100.25 61.9375 L 99.75 61.9375 z M 100.75 62.9375 L 122.75 62.9375 L 122.75 72.9375 L 100.75 72.9375 L 100.75 62.9375 z "
       id="path4074" />
  </g>
</svg>
