<?xml version="1.0" encoding="UTF-8" standalone="no"?>
<!-- Created with Inkscape (http://www.inkscape.org/) -->

<svg
   xmlns:dc="http://purl.org/dc/elements/1.1/"
   xmlns:cc="http://creativecommons.org/ns#"
   xmlns:rdf="http://www.w3.org/1999/02/22-rdf-syntax-ns#"
   xmlns:svg="http://www.w3.org/2000/svg"
   xmlns="http://www.w3.org/2000/svg"
   xmlns:sodipodi="http://sodipodi.sourceforge.net/DTD/sodipodi-0.dtd"
   xmlns:inkscape="http://www.inkscape.org/namespaces/inkscape"
   width="100"
   height="100"
   id="svg2"
   version="1.1"
   inkscape:version="0.48.0 r9654"
   sodipodi:docname="2011-(03)mar-02, 03.svg">
  <defs
     id="defs4">
    <marker
       inkscape:stockid="Arrow2Lend"
       orient="auto"
       refY="0.0"
       refX="0.0"
       id="Arrow2Lend"
       style="overflow:visible;">
      <path
         id="path4198"
         style="font-size:12.0;fill-rule:evenodd;stroke-width:0.62500000;stroke-linejoin:round;"
         d="M 8.7185878,4.0337352 L -2.2072895,0.016013256 L 8.7185884,-4.0017078 C 6.9730900,-1.6296469 6.9831476,1.6157441 8.7185878,4.0337352 z "
         transform="scale(1.1) rotate(180) translate(1,0)" />
    </marker>
  </defs>
  <sodipodi:namedview
     id="base"
     pagecolor="#ffffff"
     bordercolor="#666666"
     borderopacity="1.0"
     inkscape:pageopacity="0.0"
     inkscape:pageshadow="2"
     inkscape:zoom="3.515625"
     inkscape:cx="121.49735"
     inkscape:cy="46.153853"
     inkscape:document-units="px"
     inkscape:current-layer="layer1"
     showgrid="false"
     inkscape:window-width="1589"
     inkscape:window-height="1117"
     inkscape:window-x="1600"
     inkscape:window-y="27"
     inkscape:window-maximized="1"
     showguides="true"
     inkscape:guide-bbox="true" />
  <metadata
     id="metadata7">
    <rdf:RDF>
      <cc:Work
         rdf:about="">
        <dc:format>image/svg+xml</dc:format>
        <dc:type
           rdf:resource="http://purl.org/dc/dcmitype/StillImage" />
        <dc:title />
      </cc:Work>
    </rdf:RDF>
  </metadata>
  <g
     inkscape:label="Layer 1"
     inkscape:groupmode="layer"
     id="layer1">
    <path
       style="font-size:medium;font-style:normal;font-variant:normal;font-weight:normal;font-stretch:normal;text-indent:0;text-align:start;text-decoration:none;line-height:normal;letter-spacing:normal;word-spacing:normal;text-transform:none;direction:ltr;block-progression:tb;writing-mode:lr-tb;text-anchor:start;baseline-shift:baseline;color:#000000;fill:#000000;fill-opacity:1;stroke:none;stroke-width:1;marker:none;visibility:visible;display:inline;overflow:visible;enable-background:accumulate;font-family:Sans;-inkscape-font-specification:Sans"
       d="M 49.9375 8.125 A 0.50005 0.50005 0 0 0 49.53125 8.40625 L 13 71.65625 A 0.50005 0.50005 0 0 0 13.4375 72.4375 L 86.53125 72.4375 A 0.50005 0.50005 0 0 0 86.9375 71.6875 L 50.4375 8.40625 A 0.50005 0.50005 0 0 0 49.9375 8.125 z M 50 9.65625 L 85.65625 71.4375 L 14.34375 71.40625 L 50 9.65625 z "
       id="path5020" />
    <path
       style="font-size:12px;fill-rule:evenodd;stroke-width:0.625;stroke-linejoin:round"
       d="m 38.703259,37.330763 -9.943638,8.068425 2.347656,-12.588245 c 1.260515,2.984286 4.334072,4.800265 7.595982,4.51982 z"
       id="path4853"
       inkscape:connector-curvature="0"
       inkscape:transform-center-x="-1.6772097"
       inkscape:transform-center-y="-0.94248678" />
    <path
       style="font-size:12px;font-style:normal;font-weight:normal;line-height:125%;letter-spacing:0px;word-spacing:0px;fill:#000000;fill-opacity:1;stroke:none;font-family:Sans"
       d="m 44.652719,91.519905 0,1.01953 c -0.30469,-0.15624 -0.6211,-0.27343 -0.94922,-0.35156 -0.32813,-0.0781 -0.66797,-0.11718 -1.01953,-0.11719 -0.53516,1e-5 -0.9375,0.082 -1.20703,0.24609 -0.26563,0.16407 -0.39844,0.41017 -0.39844,0.73829 0,0.25 0.0957,0.44727 0.28711,0.59179 0.1914,0.14063 0.57617,0.2754 1.1543,0.4043 l 0.36914,0.082 c 0.76562,0.16407 1.30859,0.39649 1.6289,0.69727 0.32422,0.29687 0.48632,0.71289 0.48633,1.24804 -10e-6,0.60938 -0.24219,1.0918 -0.72656,1.44727 -0.48048,0.35547 -1.14258,0.5332 -1.98633,0.5332 -0.35157,0 -0.71875,-0.0351 -1.10156,-0.10547 -0.37891,-0.0664 -0.7793,-0.16797 -1.20117,-0.30468 l 0,-1.11329 c 0.39843,0.20704 0.79101,0.36329 1.17773,0.46875 0.38672,0.10157 0.76953,0.15235 1.14844,0.15235 0.50781,0 0.89843,-0.0859 1.17187,-0.25781 0.27344,-0.17578 0.41015,-0.42188 0.41016,-0.73829 -10e-6,-0.29296 -0.0996,-0.51757 -0.29883,-0.67382 -0.19532,-0.15625 -0.62696,-0.30664 -1.29492,-0.45118 l -0.375,-0.0879 c -0.66797,-0.14062 -1.15039,-0.35546 -1.44727,-0.64453 -0.29687,-0.29296 -0.44531,-0.69335 -0.44531,-1.20117 0,-0.61718 0.21875,-1.09374 0.65625,-1.42969 0.4375,-0.33593 1.05859,-0.5039 1.86328,-0.5039 0.39844,0 0.77344,0.0293 1.125,0.0879 0.35156,0.0586 0.67578,0.14649 0.97266,0.26367"
       id="path4821"
       inkscape:connector-curvature="0" />
    <path
       style="font-size:12px;font-style:normal;font-weight:normal;line-height:125%;letter-spacing:0px;word-spacing:0px;fill:#000000;fill-opacity:1;stroke:none;font-family:Sans"
       d="m 46.867559,92.439825 7.511721,0 0,0.98438 -7.511721,0 0,-0.98438"
       id="path4882"
       inkscape:connector-curvature="0" />
    <path
       style="font-size:12px;font-style:normal;font-weight:normal;line-height:125%;letter-spacing:0px;word-spacing:0px;fill:#000000;fill-opacity:1;stroke:none;font-family:Sans"
       d="m 46.867559,94.830455 7.511721,0 0,0.99609 -7.511721,0 0,-0.99609"
       id="path4823"
       inkscape:connector-curvature="0" />
    <path
       style="font-size:12px;font-style:normal;font-weight:normal;line-height:125%;letter-spacing:0px;word-spacing:0px;fill:#000000;fill-opacity:1;stroke:none;font-family:Sans"
       d="m 60.584358,92.334355 c -0.121099,-0.0703 -0.253911,-0.12109 -0.398438,-0.15234 -0.140629,-0.0352 -0.296879,-0.0527 -0.46875,-0.0527 -0.609378,10e-6 -1.078128,0.19923 -1.40625,0.59766 -0.324221,0.39454 -0.48633,0.9629 -0.486328,1.70508 l 0,3.45703 -1.083984,0 0,-6.5625 1.083984,0 0,1.01953 c 0.22656,-0.39843 0.521482,-0.69335 0.884766,-0.88476 0.363278,-0.19531 0.804683,-0.29297 1.324219,-0.29297 0.07421,0 0.156245,0.006 0.246093,0.0176 0.08984,0.008 0.189449,0.0215 0.298828,0.041 l 0.0059,1.10742"
       id="path4825"
       inkscape:connector-curvature="0" />
    <path
       style="font-size:12px;font-style:normal;font-weight:normal;line-height:125%;letter-spacing:0px;word-spacing:0px;fill:#000000;fill-opacity:1;stroke:none;font-family:Sans"
       d="m 62.16639,93.307015 2.48437,0 0,0.66797 -3.503902,0 0,-0.64453 c 0.132812,-0.12109 0.322265,-0.29101 0.568359,-0.50977 1.343753,-1.1914 2.015623,-1.9707 2.015623,-2.33789 0,-0.2578 -0.10156,-0.46484 -0.30469,-0.62109 -0.20312,-0.16015 -0.4707,-0.24023 -0.80273,-0.24024 -0.20313,1e-5 -0.42383,0.0352 -0.662109,0.10547 -0.238283,0.0664 -0.498048,0.16798 -0.779297,0.30469 l 0,-0.72071 c 0.30078,-0.10936 0.580077,-0.19139 0.837886,-0.24609 0.26172,-0.0547 0.50391,-0.082 0.72657,-0.082 0.5664,10e-6 1.01952,0.12891 1.35937,0.38672 0.33984,0.25782 0.50976,0.59766 0.50977,1.01953 -1e-5,0.54298 -0.64649,1.36915 -1.93946,2.47852 -0.21875,0.1875 -0.38867,0.33398 -0.50976,0.43945"
       id="path4827"
       inkscape:connector-curvature="0" />
  </g>
</svg>
