<?xml version="1.0" encoding="UTF-8" standalone="no"?>
<!-- Created with Inkscape (http://www.inkscape.org/) -->

<svg
   xmlns:dc="http://purl.org/dc/elements/1.1/"
   xmlns:cc="http://creativecommons.org/ns#"
   xmlns:rdf="http://www.w3.org/1999/02/22-rdf-syntax-ns#"
   xmlns:svg="http://www.w3.org/2000/svg"
   xmlns="http://www.w3.org/2000/svg"
   xmlns:sodipodi="http://sodipodi.sourceforge.net/DTD/sodipodi-0.dtd"
   xmlns:inkscape="http://www.inkscape.org/namespaces/inkscape"
   width="30"
   height="120"
   id="svg2"
   version="1.1"
   inkscape:version="0.48.0 r9654"
   sodipodi:docname="2011-(01)jan-14 - 03.svg">
  <defs
     id="defs4" />
  <sodipodi:namedview
     id="base"
     pagecolor="#ffffff"
     bordercolor="#666666"
     borderopacity="1.0"
     inkscape:pageopacity="0.0"
     inkscape:pageshadow="2"
     inkscape:zoom="2.4859223"
     inkscape:cx="-67.272555"
     inkscape:cy="22.308732"
     inkscape:document-units="px"
     inkscape:current-layer="layer1"
     showgrid="false"
     inkscape:window-width="1589"
     inkscape:window-height="1117"
     inkscape:window-x="1600"
     inkscape:window-y="27"
     inkscape:window-maximized="1" />
  <metadata
     id="metadata7">
    <rdf:RDF>
      <cc:Work
         rdf:about="">
        <dc:format>image/svg+xml</dc:format>
        <dc:type
           rdf:resource="http://purl.org/dc/dcmitype/StillImage" />
        <dc:title />
      </cc:Work>
    </rdf:RDF>
  </metadata>
  <g
     inkscape:label="Layer 1"
     inkscape:groupmode="layer"
     id="layer1">
    <path
       inkscape:connector-curvature="0"
       id="path2996"
       d="m 5.96875,12.1875 0,49.46875 0,49.09375 1,0 0,-49.09375 0,-49.46875 -1,0 z"
       style="font-size:medium;font-style:normal;font-variant:normal;font-weight:normal;font-stretch:normal;text-indent:0;text-align:start;text-decoration:none;line-height:normal;letter-spacing:normal;word-spacing:normal;text-transform:none;direction:ltr;block-progression:tb;writing-mode:lr-tb;text-anchor:start;baseline-shift:baseline;color:#000000;fill:#000000;fill-opacity:1;stroke:none;stroke-width:1px;marker:none;visibility:visible;display:inline;overflow:visible;enable-background:accumulate;font-family:Sans;-inkscape-font-specification:Sans" />
    <path
       inkscape:connector-curvature="0"
       id="path4617"
       d="m 6.470221,106.8279 c 2.208,0 4,1.792 4,4 0,2.208 -1.792,4 -4,4 -2.208,0 -4,-1.792 -4,-4 0,-2.208 1.792,-4 4,-4 z"
       style="fill-rule:evenodd;stroke:#000000;stroke-width:0.8pt;marker-start:none;marker-end:none" />
    <path
       inkscape:connector-curvature="0"
       id="path4619"
       d="m 6.470221,57.751549 c 2.208,0 4,1.792 4,4 0,2.208 -1.792,4 -4,4 -2.208,0 -4,-1.792 -4,-4 0,-2.208 1.792,-4 4,-4 z"
       style="fill-rule:evenodd;stroke:#000000;stroke-width:0.8pt;marker-start:none;marker-end:none" />
    <path
       inkscape:connector-curvature="0"
       id="path4621"
       d="m 6.470221,8.272932 c 2.208,0 4,1.792 4,4 0,2.208 -1.792,4 -4,4 -2.208,0 -4,-1.792 -4,-4 0,-2.208 1.792,-4 4,-4 z"
       style="fill-rule:evenodd;stroke:#000000;stroke-width:0.8pt;marker-start:none;marker-end:none" />
    <path
       style="font-size:12px;font-style:normal;font-variant:normal;font-weight:normal;font-stretch:normal;line-height:125%;letter-spacing:0px;word-spacing:0px;fill:#000000;fill-opacity:1;stroke:none;font-family:DejaVu Sans;-inkscape-font-specification:DejaVu Sans"
       d="m 16.833984,15.488176 4.13086,0 0,0.996094 -5.554688,0 0,-0.996094 c 0.449218,-0.464842 1.060545,-1.087888 1.833985,-1.86914 0.77734,-0.785153 1.265621,-1.291012 1.464843,-1.517579 0.378902,-0.425776 0.642574,-0.785151 0.791016,-1.078125 0.152339,-0.296869 0.22851,-0.587884 0.228516,-0.873046 -6e-6,-0.464837 -0.164068,-0.8437429 -0.492188,-1.1367188 -0.324223,-0.292961 -0.748051,-0.4394452 -1.271484,-0.4394531 -0.371097,7.9e-6 -0.763675,0.064461 -1.177735,0.1933594 -0.410158,0.1289138 -0.84961,0.3242261 -1.318359,0.5859375 l 0,-1.1953125 c 0.476561,-0.1913978 0.921873,-0.3359289 1.335937,-0.4335938 0.41406,-0.097647 0.792966,-0.1464755 1.136719,-0.1464844 0.906246,8.9e-6 1.628901,0.2265712 2.167969,0.6796875 0.539056,0.4531328 0.808587,1.058601 0.808594,1.8164062 -7e-6,0.359381 -0.06837,0.701177 -0.205078,1.02539 -0.132819,0.320318 -0.376959,0.699224 -0.732422,1.136719 -0.09766,0.113285 -0.408208,0.44141 -0.931641,0.984375 -0.523441,0.539065 -1.261722,1.294924 -2.214844,2.267578"
       id="path4591"
       inkscape:connector-curvature="0" />
    <path
       style="font-size:12px;font-style:normal;font-variant:normal;font-weight:normal;font-stretch:normal;line-height:125%;letter-spacing:0px;word-spacing:0px;fill:#000000;fill-opacity:1;stroke:none;font-family:DejaVu Sans;-inkscape-font-specification:DejaVu Sans"
       d="m 23.466797,7.7362235 4.646484,0 0,0.9960937 -3.5625,0 0,2.1445308 c 0.171873,-0.05859 0.343748,-0.101557 0.515625,-0.128906 0.171872,-0.03124 0.343747,-0.04687 0.515625,-0.04687 0.976558,6e-6 1.749995,0.267583 2.320313,0.802734 0.570306,0.535161 0.855462,1.25977 0.855468,2.173828 -6e-6,0.941408 -0.292975,1.67383 -0.878906,2.197266 -0.585942,0.519531 -1.412113,0.779297 -2.478515,0.779297 -0.367191,0 -0.74219,-0.03125 -1.125,-0.09375 -0.378908,-0.0625 -0.771486,-0.15625 -1.177735,-0.28125 l 0,-1.189453 c 0.351561,0.191407 0.714842,0.333985 1.089844,0.427734 0.374998,0.09375 0.771482,0.140626 1.189453,0.140625 0.675777,10e-7 1.210933,-0.177733 1.605469,-0.533203 0.394526,-0.355467 0.591791,-0.837888 0.591797,-1.447266 -6e-6,-0.609371 -0.197271,-1.091793 -0.591797,-1.447265 -0.394536,-0.355465 -0.929692,-0.533199 -1.605469,-0.533203 -0.316409,4e-6 -0.632815,0.03516 -0.949219,0.105468 -0.312502,0.07032 -0.632814,0.179692 -0.960937,0.328125 l 0,-4.3945305"
       id="path4593"
       inkscape:connector-curvature="0" />
    <path
       style="font-size:12px;font-style:normal;font-variant:normal;font-weight:normal;font-stretch:normal;line-height:125%;letter-spacing:0px;word-spacing:0px;fill:#000000;fill-opacity:1;stroke:none;font-family:DejaVu Sans;-inkscape-font-specification:DejaVu Sans"
       d="m 15.826172,57.333958 4.646484,0 0,0.996094 -3.5625,0 0,2.144531 c 0.171873,-0.05859 0.343748,-0.101557 0.515625,-0.128906 0.171872,-0.03124 0.343747,-0.04687 0.515625,-0.04687 0.976558,6e-6 1.749995,0.267583 2.320313,0.802734 0.570306,0.535161 0.855462,1.25977 0.855468,2.173828 -6e-6,0.941408 -0.292975,1.67383 -0.878906,2.197266 -0.585942,0.519531 -1.412113,0.779297 -2.478515,0.779297 -0.367191,0 -0.74219,-0.03125 -1.125,-0.09375 -0.378908,-0.0625 -0.771486,-0.15625 -1.177735,-0.28125 l 0,-1.189453 c 0.351561,0.191407 0.714842,0.333985 1.089844,0.427734 0.374998,0.09375 0.771482,0.140626 1.189453,0.140625 0.675777,10e-7 1.210933,-0.177733 1.605469,-0.533203 0.394526,-0.355467 0.591791,-0.837888 0.591797,-1.447266 -6e-6,-0.609371 -0.197271,-1.091793 -0.591797,-1.447265 -0.394536,-0.355464 -0.929692,-0.533199 -1.605469,-0.533203 -0.316409,4e-6 -0.632815,0.03516 -0.949219,0.105468 -0.312502,0.07032 -0.632814,0.179692 -0.960937,0.328125 l 0,-4.394531"
       id="path4595"
       inkscape:connector-curvature="0" />
    <path
       style="font-size:12px;font-style:normal;font-variant:normal;font-weight:normal;font-stretch:normal;line-height:125%;letter-spacing:0px;word-spacing:0px;fill:#000000;fill-opacity:1;stroke:none;font-family:DejaVu Sans;-inkscape-font-specification:DejaVu Sans"
       d="m 16.019531,113.89046 1.933594,0 0,-6.67383 -2.103516,0.42187 0,-1.07812 2.091797,-0.42188 1.183594,0 0,7.75196 1.933594,0 0,0.99609 -5.039063,0 0,-0.99609"
       id="path4597"
       inkscape:connector-curvature="0" />
  </g>
</svg>
