<?xml version="1.0" encoding="UTF-8" standalone="no"?>
<!-- Created with Inkscape (http://www.inkscape.org/) -->

<svg
   xmlns:dc="http://purl.org/dc/elements/1.1/"
   xmlns:cc="http://creativecommons.org/ns#"
   xmlns:rdf="http://www.w3.org/1999/02/22-rdf-syntax-ns#"
   xmlns:svg="http://www.w3.org/2000/svg"
   xmlns="http://www.w3.org/2000/svg"
   xmlns:sodipodi="http://sodipodi.sourceforge.net/DTD/sodipodi-0.dtd"
   xmlns:inkscape="http://www.inkscape.org/namespaces/inkscape"
   width="60"
   height="60"
   id="svg2"
   version="1.1"
   inkscape:version="0.48.0 r9654"
   sodipodi:docname="2011-(02)feb-16, 06.svg">
  <defs
     id="defs4" />
  <sodipodi:namedview
     id="base"
     pagecolor="#ffffff"
     bordercolor="#666666"
     borderopacity="1.0"
     inkscape:pageopacity="0.0"
     inkscape:pageshadow="2"
     inkscape:zoom="1.4833982"
     inkscape:cx="90.437193"
     inkscape:cy="-31.043739"
     inkscape:document-units="px"
     inkscape:current-layer="layer1"
     showgrid="false"
     inkscape:window-width="1589"
     inkscape:window-height="1117"
     inkscape:window-x="1600"
     inkscape:window-y="27"
     inkscape:window-maximized="1" />
  <metadata
     id="metadata7">
    <rdf:RDF>
      <cc:Work
         rdf:about="">
        <dc:format>image/svg+xml</dc:format>
        <dc:type
           rdf:resource="http://purl.org/dc/dcmitype/StillImage" />
        <dc:title />
      </cc:Work>
    </rdf:RDF>
  </metadata>
  <g
     inkscape:label="Layer 1"
     inkscape:groupmode="layer"
     id="layer1">
    <path
       style="font-size:medium;font-style:normal;font-variant:normal;font-weight:normal;font-stretch:normal;text-indent:0;text-align:start;text-decoration:none;line-height:normal;letter-spacing:normal;word-spacing:normal;text-transform:none;direction:ltr;block-progression:tb;writing-mode:lr-tb;text-anchor:start;baseline-shift:baseline;color:#000000;fill:#000000;fill-opacity:1;stroke:none;stroke-width:1;marker:none;visibility:visible;display:inline;overflow:visible;enable-background:accumulate;font-family:Sans;-inkscape-font-specification:Sans"
       d="m 13.527384,13.468918 c -3.5839277,0 -6.4999997,2.916072 -6.4999997,6.5 0,3.583928 2.916072,6.5 6.4999997,6.5 3.583928,0 6.5,-2.916072 6.5,-6.5 0,-3.583928 -2.916072,-6.5 -6.5,-6.5 z"
       id="path3004"
       inkscape:connector-curvature="0" />
    <path
       style="font-size:12px;font-style:normal;font-weight:normal;line-height:125%;letter-spacing:0px;word-spacing:0px;fill:#000000;fill-opacity:1;stroke:none;font-family:Sans"
       d="m 12.946293,2.7718739 c -0.351566,7e-6 -0.722659,0.01563 -1.09375,0.09375 -0.371095,0.07423 -0.73047,0.191413 -1.125,0.34375 l 0,1 c 0.328123,-0.179682 0.64453,-0.3164 1,-0.40625 0.355467,-0.08984 0.718747,-0.124994 1.09375,-0.125 0.589839,6e-6 1.050777,0.132818 1.375,0.40625 0.32812,0.269536 0.499995,0.660161 0.5,1.15625 l 0,0.09375 -1.5,0 c -0.980471,4e-6 -1.722658,0.1875037 -2.21875,0.5624997 -0.492188,0.375003 -0.750001,0.949221 -0.75,1.6875 -1e-6,0.632813 0.199218,1.121094 0.59375,1.5 0.398436,0.375 0.953123,0.5625 1.625,0.5625 0.531246,0 0.976559,-0.09375 1.34375,-0.28125 0.367183,-0.191406 0.660151,-0.476562 0.90625,-0.875 l 0,1 1.09375,0 0,-3.75 c -6e-6,-0.9999947 -0.250006,-1.7578067 -0.71875,-2.2499997 -0.468755,-0.492181 -1.175786,-0.718743 -2.125,-0.71875 z m 0.6875,3.4062497 1.0625,0 0,0.25 c -5e-6,0.703128 -0.167974,1.26172 -0.53125,1.6875 -0.359379,0.421876 -0.839847,0.625001 -1.4375,0.625 -0.433596,1e-6 -0.777346,-0.08984 -1.03125,-0.3125 -0.250002,-0.226562 -0.375002,-0.554686 -0.375,-0.9375 -2e-6,-0.480466 0.164061,-0.800779 0.5,-1 0.335935,-0.199218 0.941403,-0.312497 1.8125,-0.3125 z"
       id="path3026"
       inkscape:connector-curvature="0" />
    <path
       style="font-size:12px;font-style:normal;font-weight:normal;line-height:125%;letter-spacing:0px;word-spacing:0px;fill:#000000;fill-opacity:1;stroke:none;font-family:Sans"
       d="m 49.484493,1.667493 0,3.5624999 c -0.22657,-0.390619 -0.4961,-0.687494 -0.84375,-0.875 -0.34375,-0.191399 -0.76563,-0.281243 -1.25,-0.28125 -0.79298,7e-6 -1.43751,0.304693 -1.9375,0.9375 -0.4961,0.6328167 -0.75001,1.4687547 -0.75,2.4999997 -1e-5,1.031253 0.2539,1.867189 0.75,2.5000004 0.49999,0.632813 1.14452,0.9375 1.9375,0.9375 0.48437,0 0.90625,-0.09375 1.25,-0.28125 0.34765,-0.191406 0.61718,-0.484374 0.84375,-0.8750004 l 0,1.0000004 1.09375,0 0,-9.125 -1.09375,0 z m -1.84375,3.3124999 c 0.57031,5e-6 1.04687,0.203131 1.375,0.6562497 0.32812,0.449223 0.46874,1.082036 0.46875,1.875 -1e-5,0.792972 -0.14063,1.421877 -0.46875,1.875 -0.32813,0.44922 -0.80469,0.6562514 -1.375,0.6562504 -0.57032,10e-7 -1.01563,-0.2070304 -1.34375,-0.6562504 -0.32422,-0.453123 -0.46876,-1.082028 -0.46875,-1.875 -1e-5,-0.792964 0.14453,-1.425777 0.46875,-1.875 0.32812,-0.4531187 0.77343,-0.6562447 1.34375,-0.6562497 z"
       id="path3046"
       inkscape:connector-curvature="0" />
    <path
       style="font-size:12px;font-style:normal;font-weight:normal;line-height:125%;letter-spacing:0px;word-spacing:0px;fill:#000000;fill-opacity:1;stroke:none;font-family:Sans"
       d="m 10.53614,49.714057 0,9.125 1.09375,0 0,-1 c 0.22656,0.39063 0.499997,0.6836 0.84375,0.875 0.347653,0.1875 0.769528,0.28125 1.25,0.28125 0.79687,0 1.441401,-0.30468 1.9375,-0.9375 0.499994,-0.63281 0.749994,-1.46874 0.75,-2.5 -6e-6,-1.03124 -0.250006,-1.86718 -0.75,-2.5 -0.496099,-0.6328 -1.14063,-0.93749 -1.9375,-0.9375 -0.480472,1e-5 -0.902347,0.0899 -1.25,0.28125 -0.343753,0.18751 -0.61719,0.48439 -0.84375,0.875 l 0,-3.5625 -1.09375,0 z m 2.90625,3.3125 c 0.570308,1e-5 1.019527,0.20314 1.34375,0.65625 0.32812,0.44923 0.499994,1.08204 0.5,1.875 -6e-6,0.79298 -0.17188,1.42188 -0.5,1.875 -0.324223,0.44922 -0.773442,0.65626 -1.34375,0.65625 -0.570315,1e-5 -1.015628,-0.20703 -1.34375,-0.65625 -0.324221,-0.45312 -0.468752,-1.08202 -0.46875,-1.875 -2e-6,-0.79296 0.144529,-1.42577 0.46875,-1.875 0.328122,-0.45311 0.773435,-0.65624 1.34375,-0.65625 z"
       id="path3030"
       inkscape:connector-curvature="0" />
    <path
       style="font-size:12px;font-style:normal;font-weight:normal;line-height:125%;letter-spacing:0px;word-spacing:0px;fill:#000000;fill-opacity:1;stroke:none;font-family:Sans"
       d="m 49.411225,51.39224 0,1.00781 c -0.3047,-0.16796 -0.61134,-0.29296 -0.91992,-0.375 -0.3047,-0.0859 -0.61329,-0.1289 -0.92579,-0.12891 -0.69922,10e-6 -1.24219,0.22267 -1.6289,0.66797 -0.38672,0.44141 -0.58008,1.06251 -0.58008,1.86328 0,0.80079 0.19336,1.42383 0.58008,1.86914 0.38671,0.44141 0.92968,0.66211 1.6289,0.66211 0.3125,0 0.62109,-0.041 0.92579,-0.12304 0.30858,-0.0859 0.61522,-0.21289 0.91992,-0.38086 l 0,0.99609 c -0.30079,0.14063 -0.61329,0.2461 -0.9375,0.31641 -0.32032,0.0703 -0.66212,0.10547 -1.02539,0.10547 -0.98829,0 -1.77344,-0.31055 -2.35547,-0.93164 -0.58204,-0.6211 -0.87305,-1.45899 -0.87305,-2.51368 0,-1.0703 0.29297,-1.9121 0.87891,-2.52539 0.58984,-0.61327 1.39648,-0.91991 2.41992,-0.91992 0.33203,10e-6 0.65624,0.0352 0.97266,0.10547 0.3164,0.0664 0.62304,0.16798 0.91992,0.30469"
       id="path3032"
       inkscape:connector-curvature="0" />
    <path
       inkscape:connector-curvature="0"
       id="path3014"
       d="m 46.788733,13.468918 c -3.58393,0 -6.5,2.916072 -6.5,6.5 0,3.583928 2.91607,6.5 6.5,6.5 3.58392,0 6.5,-2.916072 6.5,-6.5 0,-3.583928 -2.91608,-6.5 -6.5,-6.5 z"
       style="font-size:medium;font-style:normal;font-variant:normal;font-weight:normal;font-stretch:normal;text-indent:0;text-align:start;text-decoration:none;line-height:normal;letter-spacing:normal;word-spacing:normal;text-transform:none;direction:ltr;block-progression:tb;writing-mode:lr-tb;text-anchor:start;baseline-shift:baseline;color:#000000;fill:#000000;fill-opacity:1;stroke:none;stroke-width:1;marker:none;visibility:visible;display:inline;overflow:visible;enable-background:accumulate;font-family:Sans;-inkscape-font-specification:Sans" />
    <path
       style="font-size:medium;font-style:normal;font-variant:normal;font-weight:normal;font-stretch:normal;text-indent:0;text-align:start;text-decoration:none;line-height:normal;letter-spacing:normal;word-spacing:normal;text-transform:none;direction:ltr;block-progression:tb;writing-mode:lr-tb;text-anchor:start;baseline-shift:baseline;color:#000000;fill:#000000;fill-opacity:1;stroke:none;stroke-width:1;marker:none;visibility:visible;display:inline;overflow:visible;enable-background:accumulate;font-family:Sans;-inkscape-font-specification:Sans"
       d="m 46.788733,33.653227 c -3.58393,0 -6.5,2.91608 -6.5,6.5 0,3.58393 2.91607,6.5 6.5,6.5 3.58392,0 6.5,-2.91607 6.5,-6.5 0,-3.58392 -2.91608,-6.5 -6.5,-6.5 z"
       id="path3024"
       inkscape:connector-curvature="0" />
    <path
       inkscape:connector-curvature="0"
       id="path3035"
       d="m 13.174954,47.449261 c 3.58393,0 6.5,-2.91608 6.5,-6.5 0,-3.58393 -2.91607,-6.5 -6.5,-6.5 -3.5839196,0 -6.4999996,2.91607 -6.4999996,6.5 0,3.58392 2.91608,6.5 6.4999996,6.5 z"
       style="font-size:medium;font-style:normal;font-variant:normal;font-weight:normal;font-stretch:normal;text-indent:0;text-align:start;text-decoration:none;line-height:normal;letter-spacing:normal;word-spacing:normal;text-transform:none;direction:ltr;block-progression:tb;writing-mode:lr-tb;text-anchor:start;baseline-shift:baseline;color:#000000;fill:#000000;fill-opacity:1;stroke:none;stroke-width:1;marker:none;visibility:visible;display:inline;overflow:visible;enable-background:accumulate;font-family:Sans;-inkscape-font-specification:Sans"
       inkscape:transform-center-x="-0.16084715"
       inkscape:transform-center-y="-15.613174" />
  </g>
</svg>
