<?xml version="1.0" encoding="UTF-8" standalone="no"?>
<!-- Created with Inkscape (http://www.inkscape.org/) -->

<svg
   xmlns:dc="http://purl.org/dc/elements/1.1/"
   xmlns:cc="http://creativecommons.org/ns#"
   xmlns:rdf="http://www.w3.org/1999/02/22-rdf-syntax-ns#"
   xmlns:svg="http://www.w3.org/2000/svg"
   xmlns="http://www.w3.org/2000/svg"
   xmlns:sodipodi="http://sodipodi.sourceforge.net/DTD/sodipodi-0.dtd"
   xmlns:inkscape="http://www.inkscape.org/namespaces/inkscape"
   width="150"
   height="170"
   id="svg2"
   version="1.1"
   inkscape:version="0.48.0 r9654"
   sodipodi:docname="2011-(02)feb-09, 05.svg">
  <defs
     id="defs4" />
  <sodipodi:namedview
     id="base"
     pagecolor="#ffffff"
     bordercolor="#666666"
     borderopacity="1.0"
     inkscape:pageopacity="0.0"
     inkscape:pageshadow="2"
     inkscape:zoom="1.9203158"
     inkscape:cx="152.14763"
     inkscape:cy="27.274519"
     inkscape:document-units="px"
     inkscape:current-layer="layer1"
     showgrid="false"
     inkscape:window-width="1589"
     inkscape:window-height="1117"
     inkscape:window-x="1600"
     inkscape:window-y="27"
     inkscape:window-maximized="1"
     showguides="true"
     inkscape:guide-bbox="true" />
  <metadata
     id="metadata7">
    <rdf:RDF>
      <cc:Work
         rdf:about="">
        <dc:format>image/svg+xml</dc:format>
        <dc:type
           rdf:resource="http://purl.org/dc/dcmitype/StillImage" />
        <dc:title />
      </cc:Work>
    </rdf:RDF>
  </metadata>
  <g
     inkscape:label="Layer 1"
     inkscape:groupmode="layer"
     id="layer1">
    <path
       style="color:#000000;fill:#000000;fill-opacity:1;stroke:none;stroke-width:0;marker:none;visibility:visible;display:inline;overflow:visible;enable-background:accumulate"
       d="m 88.33374,158.0228 c 0,2.48161 -2.011749,4.49337 -4.493366,4.49337 -2.481617,0 -4.493364,-2.01176 -4.493364,-4.49337 0,-2.48163 2.011747,-4.49337 4.493364,-4.49337 2.481617,0 4.493366,2.01174 4.493366,4.49337 z"
       id="path3779" />
    <path
       style="color:#000000;fill:#000000;fill-opacity:1;stroke:none;stroke-width:0;marker:none;visibility:visible;display:inline;overflow:visible;enable-background:accumulate"
       d="m 31.572239,108.55178 c 0,2.48161 -2.011749,4.49337 -4.493366,4.49337 -2.481617,0 -4.493364,-2.01176 -4.493364,-4.49337 0,-2.48163 2.011747,-4.49337 4.493364,-4.49337 2.481617,0 4.493366,2.01174 4.493366,4.49337 z"
       id="path3779-5" />
    <path
       style="color:#000000;fill:#000000;fill-opacity:1;stroke:none;stroke-width:0;marker:none;visibility:visible;display:inline;overflow:visible;enable-background:accumulate"
       d="m 67.503836,108.55177 c 0,2.48161 -2.011749,4.49337 -4.493366,4.49337 -2.481617,0 -4.493364,-2.01176 -4.493364,-4.49337 0,-2.48163 2.011747,-4.49337 4.493364,-4.49337 2.481617,0 4.493366,2.01174 4.493366,4.49337 z"
       id="path3779-0" />
    <path
       style="color:#000000;fill:#000000;fill-opacity:1;stroke:none;stroke-width:0;marker:none;visibility:visible;display:inline;overflow:visible;enable-background:accumulate"
       d="m 40.68533,45.54131 c 0,2.481608 -2.011749,4.493367 -4.493366,4.493367 -2.481617,0 -4.493364,-2.011759 -4.493364,-4.493367 0,-2.481626 2.011747,-4.493368 4.493364,-4.493368 2.481617,0 4.493366,2.011742 4.493366,4.493368 z"
       id="path3779-4" />
    <path
       style="color:#000000;fill:#000000;fill-opacity:1;stroke:none;stroke-width:0;marker:none;visibility:visible;display:inline;overflow:visible;enable-background:accumulate"
       d="m 135.20104,51.5299 c 0,2.481608 -2.01175,4.493367 -4.49337,4.493367 -2.48162,0 -4.49336,-2.011759 -4.49336,-4.493367 0,-2.481626 2.01174,-4.493368 4.49336,-4.493368 2.48162,0 4.49337,2.011742 4.49337,4.493368 z"
       id="path3779-8" />
    <path
       style="color:#000000;fill:#000000;fill-opacity:1;stroke:none;stroke-width:0;marker:none;visibility:visible;display:inline;overflow:visible;enable-background:accumulate"
       d="m 92.239351,16.37944 c 0,2.481608 -2.011749,4.493367 -4.493366,4.493367 -2.481617,0 -4.493364,-2.011759 -4.493364,-4.493367 0,-2.481626 2.011747,-4.493368 4.493364,-4.493368 2.481617,0 4.493366,2.011742 4.493366,4.493368 z"
       id="path3779-7" />
    <path
       style="font-size:medium;font-style:normal;font-variant:normal;font-weight:normal;font-stretch:normal;text-indent:0;text-align:start;text-decoration:none;line-height:normal;letter-spacing:normal;word-spacing:normal;text-transform:none;direction:ltr;block-progression:tb;writing-mode:lr-tb;text-anchor:start;baseline-shift:baseline;color:#000000;fill:#000000;fill-opacity:1;stroke:none;stroke-width:1px;marker:none;visibility:visible;display:inline;overflow:visible;enable-background:accumulate;font-family:Sans;-inkscape-font-specification:Sans"
       d="m 65.3125,113.3125 -0.9375,0.375 15.09375,38.53125 0.9375,-0.375 L 65.3125,113.3125 z"
       id="path3827" />
    <path
       style="font-size:12px;fill-rule:evenodd;stroke-width:0.625;stroke-linejoin:round"
       d="m 64.602549,125.07128 -0.270421,-12.80243 8.500023,9.57732 c -3.129952,-0.83563 -6.449724,0.47725 -8.229602,3.22511 z"
       id="path4365" />
    <path
       style="font-size:medium;font-style:normal;font-variant:normal;font-weight:normal;font-stretch:normal;text-indent:0;text-align:start;text-decoration:none;line-height:normal;letter-spacing:normal;word-spacing:normal;text-transform:none;direction:ltr;block-progression:tb;writing-mode:lr-tb;text-anchor:start;baseline-shift:baseline;color:#000000;fill:#000000;fill-opacity:1;stroke:none;stroke-width:1px;marker:none;visibility:visible;display:inline;overflow:visible;enable-background:accumulate;font-family:Sans;-inkscape-font-specification:Sans"
       d="m 29.5,113.375 -0.6875,0.75 47.65625,43.5 0.6875,-0.75 L 29.5,113.375 z"
       id="path3829" />
    <path
       style="font-size:12px;fill-rule:evenodd;stroke-width:0.625;stroke-linejoin:round"
       d="m 34.06752,124.24295 -5.898478,-11.36589 11.856645,4.83688 c -3.177112,0.6331 -5.575352,3.27752 -5.958167,6.52901 z"
       id="path4357" />
    <path
       style="font-size:medium;font-style:normal;font-variant:normal;font-weight:normal;font-stretch:normal;text-indent:0;text-align:start;text-decoration:none;line-height:normal;letter-spacing:normal;word-spacing:normal;text-transform:none;direction:ltr;block-progression:tb;writing-mode:lr-tb;text-anchor:start;baseline-shift:baseline;color:#000000;fill:#000000;fill-opacity:1;stroke:none;stroke-width:1px;marker:none;visibility:visible;display:inline;overflow:visible;enable-background:accumulate;font-family:Sans;-inkscape-font-specification:Sans"
       d="m 127.65625,57.5625 -42.71875,94 0.90625,0.40625 L 128.5625,58 127.65625,57.5625 z"
       id="path3831" />
    <path
       style="font-size:12px;fill-rule:evenodd;stroke-width:0.625;stroke-linejoin:round"
       d="m 119.64245,65.676775 8.99473,-9.114286 -0.94725,12.770206 c -1.58146,-2.82734 -4.83629,-4.293837 -8.04748,-3.65592 z"
       id="path4349" />
    <path
       style="font-size:medium;font-style:normal;font-variant:normal;font-weight:normal;font-stretch:normal;text-indent:0;text-align:start;text-decoration:none;line-height:normal;letter-spacing:normal;word-spacing:normal;text-transform:none;direction:ltr;block-progression:tb;writing-mode:lr-tb;text-anchor:start;baseline-shift:baseline;color:#000000;fill:#000000;fill-opacity:1;stroke:none;stroke-width:1px;marker:none;visibility:visible;display:inline;overflow:visible;enable-background:accumulate;font-family:Sans;-inkscape-font-specification:Sans"
       d="m 30.5625,49.40625 c 0,0 -14.394617,20.058509 -15.96875,44.03125 -0.787067,11.98637 1.655657,24.992 10.71875,36.875 9.063093,11.883 24.726159,22.64451 50.3125,30.28125 L 75.90625,159.625 C 50.459317,152.02987 35.027702,141.3602 26.125,129.6875 17.222298,118.0148 14.818574,105.30529 15.59375,93.5 17.144102,69.889422 31.40625,50 31.40625,50 L 30.5625,49.40625 z"
       id="path3833" />
    <path
       style="font-size:12px;fill-rule:evenodd;stroke-width:0.625;stroke-linejoin:round"
       d="M 21.15076,55.812314 31.743726,48.617559 28.335425,60.960934 C 27.332922,57.880375 24.424703,55.80992 21.15076,55.812314 z"
       id="path4341" />
    <path
       style="font-size:medium;font-style:normal;font-variant:normal;font-weight:normal;font-stretch:normal;text-indent:0;text-align:start;text-decoration:none;line-height:normal;letter-spacing:normal;word-spacing:normal;text-transform:none;direction:ltr;block-progression:tb;writing-mode:lr-tb;text-anchor:start;baseline-shift:baseline;color:#000000;fill:#000000;fill-opacity:1;stroke:none;stroke-width:1px;marker:none;visibility:visible;display:inline;overflow:visible;enable-background:accumulate;font-family:Sans;-inkscape-font-specification:Sans"
       d="M 92.96875,24.15625 82.3125,150.9375 l 1,0.0937 10.65625,-126.8125 -1,-0.0625 z"
       id="path3835" />
    <path
       style="font-size:12px;fill-rule:evenodd;stroke-width:0.625;stroke-linejoin:round"
       d="m 88.155899,34.47117 5.41217,-11.605338 3.395659,12.34686 C 94.524736,33.080515 90.966462,32.79205 88.155899,34.47117 z"
       id="path4333" />
    <path
       style="font-size:medium;font-style:normal;font-variant:normal;font-weight:normal;font-stretch:normal;text-indent:0;text-align:start;text-decoration:none;line-height:normal;letter-spacing:normal;word-spacing:normal;text-transform:none;direction:ltr;block-progression:tb;writing-mode:lr-tb;text-anchor:start;baseline-shift:baseline;color:#000000;fill:#000000;fill-opacity:1;stroke:none;stroke-width:1px;marker:none;visibility:visible;display:inline;overflow:visible;enable-background:accumulate;font-family:Sans;-inkscape-font-specification:Sans"
       d="M 98.25,21.75 97.5625,22.46875 123.875,46.6875 124.53125,45.96875 98.25,21.75 z"
       id="path3837" />
    <path
       style="font-size:12px;fill-rule:evenodd;stroke-width:0.625;stroke-linejoin:round"
       d="m 102.75932,32.613183 -5.84763,-11.392132 11.83491,4.889815 c -3.17991,0.618896 -5.58994,3.252575 -5.98728,6.502317 z"
       id="path4325" />
    <path
       style="font-size:medium;font-style:normal;font-variant:normal;font-weight:normal;font-stretch:normal;text-indent:0;text-align:start;text-decoration:none;line-height:normal;letter-spacing:normal;word-spacing:normal;text-transform:none;direction:ltr;block-progression:tb;writing-mode:lr-tb;text-anchor:start;baseline-shift:baseline;color:#000000;fill:#000000;fill-opacity:1;stroke:none;stroke-width:1px;marker:none;visibility:visible;display:inline;overflow:visible;enable-background:accumulate;font-family:Sans;-inkscape-font-specification:Sans"
       d="m 85.4375,22.75 -21.59375,80.21875 0.9375,0.25 21.625,-80.1875 L 85.4375,22.75 z"
       id="path3839" />
    <path
       style="font-size:12px;fill-rule:evenodd;stroke-width:0.625;stroke-linejoin:round"
       d="m 78.85746,32.056465 7.394449,-10.454546 1.140081,12.754436 c -2.019798,-2.532839 -5.469642,-3.451047 -8.53453,-2.29989 z"
       id="path4317" />
    <path
       style="font-size:medium;font-style:normal;font-variant:normal;font-weight:normal;font-stretch:normal;text-indent:0;text-align:start;text-decoration:none;line-height:normal;letter-spacing:normal;word-spacing:normal;text-transform:none;direction:ltr;block-progression:tb;writing-mode:lr-tb;text-anchor:start;baseline-shift:baseline;color:#000000;fill:#000000;fill-opacity:1;stroke:none;stroke-width:1px;marker:none;visibility:visible;display:inline;overflow:visible;enable-background:accumulate;font-family:Sans;-inkscape-font-specification:Sans"
       d="M 80.28125,20.28125 28.75,102.5625 29.59375,103.09375 81.125,20.8125 80.28125,20.28125 z"
       id="path3841" />
    <path
       style="font-size:12px;fill-rule:evenodd;stroke-width:0.625;stroke-linejoin:round"
       d="M 71.279678,27.248506 81.406094,19.410704 78.769793,31.94168 c -1.191606,-3.012463 -4.222622,-4.898588 -7.490115,-4.693174 z"
       id="path4309" />
    <path
       style="font-size:medium;font-style:normal;font-variant:normal;font-weight:normal;font-stretch:normal;text-indent:0;text-align:start;text-decoration:none;line-height:normal;letter-spacing:normal;word-spacing:normal;text-transform:none;direction:ltr;block-progression:tb;writing-mode:lr-tb;text-anchor:start;baseline-shift:baseline;color:#000000;fill:#000000;fill-opacity:1;stroke:none;stroke-width:1px;marker:none;visibility:visible;display:inline;overflow:visible;enable-background:accumulate;font-family:Sans;-inkscape-font-specification:Sans"
       d="m 76.53125,15.96875 -35.9375,24.46875 0.5625,0.84375 35.9375,-24.5 -0.5625,-0.8125 z"
       id="path3843" />
    <path
       style="font-size:12px;fill-rule:evenodd;stroke-width:0.625;stroke-linejoin:round"
       d="m 65.476899,18.730595 12.42105,-3.11335 -7.445009,10.418602 c 0.117956,-3.237429 -1.900933,-6.181679 -4.976041,-7.305252 z"
       id="path4301" />
  </g>
</svg>
