<?xml version="1.0" encoding="UTF-8" standalone="no"?>
<!-- Created with Inkscape (http://www.inkscape.org/) -->

<svg
   xmlns:dc="http://purl.org/dc/elements/1.1/"
   xmlns:cc="http://creativecommons.org/ns#"
   xmlns:rdf="http://www.w3.org/1999/02/22-rdf-syntax-ns#"
   xmlns:svg="http://www.w3.org/2000/svg"
   xmlns="http://www.w3.org/2000/svg"
   xmlns:sodipodi="http://sodipodi.sourceforge.net/DTD/sodipodi-0.dtd"
   xmlns:inkscape="http://www.inkscape.org/namespaces/inkscape"
   width="350"
   height="80"
   id="svg2"
   version="1.1"
   inkscape:version="0.48.0 r9654"
   sodipodi:docname="2011-(02)feb-02, 10.svg">
  <defs
     id="defs4" />
  <sodipodi:namedview
     id="base"
     pagecolor="#ffffff"
     bordercolor="#666666"
     borderopacity="1.0"
     inkscape:pageopacity="0.0"
     inkscape:pageshadow="2"
     inkscape:zoom="2.4586144"
     inkscape:cx="308.1155"
     inkscape:cy="16.466287"
     inkscape:document-units="px"
     inkscape:current-layer="layer1"
     showgrid="false"
     inkscape:window-width="1589"
     inkscape:window-height="1117"
     inkscape:window-x="1600"
     inkscape:window-y="27"
     inkscape:window-maximized="1"
     showguides="true"
     inkscape:guide-bbox="true" />
  <metadata
     id="metadata7">
    <rdf:RDF>
      <cc:Work
         rdf:about="">
        <dc:format>image/svg+xml</dc:format>
        <dc:type
           rdf:resource="http://purl.org/dc/dcmitype/StillImage" />
        <dc:title />
      </cc:Work>
    </rdf:RDF>
  </metadata>
  <g
     inkscape:label="Layer 1"
     inkscape:groupmode="layer"
     id="layer1">
    <path
       style="font-size:medium;font-style:normal;font-variant:normal;font-weight:normal;font-stretch:normal;text-indent:0;text-align:start;text-decoration:none;line-height:normal;letter-spacing:normal;word-spacing:normal;text-transform:none;direction:ltr;block-progression:tb;writing-mode:lr-tb;text-anchor:start;baseline-shift:baseline;color:#000000;fill:#000000;fill-opacity:1;stroke:none;stroke-width:1;marker:none;visibility:visible;display:inline;overflow:visible;enable-background:accumulate;font-family:Sans;-inkscape-font-specification:Sans"
       d="M 35.40625 18.53125 C 18.58947 18.53125 4.9375 32.15197 4.9375 48.96875 C 4.9375 65.78553 18.58947 79.4375 35.40625 79.4375 C 52.22303 79.4375 65.84375 65.78553 65.84375 48.96875 C 65.84375 32.15197 52.22303 18.53125 35.40625 18.53125 z M 35.40625 19.53125 C 51.68259 19.53125 64.84375 32.69241 64.84375 48.96875 C 64.84375 65.24509 51.68259 78.4375 35.40625 78.4375 C 19.12991 78.4375 5.9375 65.24509 5.9375 48.96875 C 5.9375 32.69241 19.12991 19.53125 35.40625 19.53125 z "
       id="path3043" />
    <path
       style="font-size:medium;font-style:normal;font-variant:normal;font-weight:normal;font-stretch:normal;text-indent:0;text-align:start;text-decoration:none;line-height:normal;letter-spacing:normal;word-spacing:normal;text-transform:none;direction:ltr;block-progression:tb;writing-mode:lr-tb;text-anchor:start;baseline-shift:baseline;color:#000000;fill:#000000;fill-opacity:1;stroke:none;stroke-width:1;marker:none;visibility:visible;display:inline;overflow:visible;enable-background:accumulate;font-family:Sans;-inkscape-font-specification:Sans"
       d="M 177.40625 18.53125 C 160.58947 18.53125 146.9375 32.15197 146.9375 48.96875 C 146.9375 65.78553 160.58947 79.4375 177.40625 79.4375 C 194.22303 79.4375 207.84375 65.78553 207.84375 48.96875 C 207.84375 32.15197 194.22303 18.53125 177.40625 18.53125 z M 177.40625 19.53125 C 193.68259 19.53125 206.84375 32.69241 206.84375 48.96875 C 206.84375 65.24509 193.68259 78.4375 177.40625 78.4375 C 161.12991 78.4375 147.9375 65.24509 147.9375 48.96875 C 147.9375 32.69241 161.12991 19.53125 177.40625 19.53125 z "
       id="path3047" />
    <path
       style="font-size:medium;font-style:normal;font-variant:normal;font-weight:normal;font-stretch:normal;text-indent:0;text-align:start;text-decoration:none;line-height:normal;letter-spacing:normal;word-spacing:normal;text-transform:none;direction:ltr;block-progression:tb;writing-mode:lr-tb;text-anchor:start;baseline-shift:baseline;color:#000000;fill:#000000;fill-opacity:1;stroke:none;stroke-width:1;marker:none;visibility:visible;display:inline;overflow:visible;enable-background:accumulate;font-family:Sans;-inkscape-font-specification:Sans"
       d="M 315.40625 18.53125 C 298.58947 18.53125 284.9375 32.15197 284.9375 48.96875 C 284.9375 65.78553 298.58947 79.4375 315.40625 79.4375 C 332.22303 79.4375 345.84375 65.78553 345.84375 48.96875 C 345.84375 32.15197 332.22303 18.53125 315.40625 18.53125 z M 315.40625 19.53125 C 331.68259 19.53125 344.84375 32.69241 344.84375 48.96875 C 344.84375 65.24509 331.68259 78.4375 315.40625 78.4375 C 299.12991 78.4375 285.9375 65.24509 285.9375 48.96875 C 285.9375 32.69241 299.12991 19.53125 315.40625 19.53125 z "
       id="path3051" />
    <path
       style="font-size:20px;font-style:normal;font-weight:normal;line-height:125%;letter-spacing:0px;word-spacing:0px;fill:#000000;fill-opacity:1;stroke:none;font-family:Sans"
       d="m 28.666705,1.8520401 2.11914,0 3.623047,5.4199219 3.642578,-5.4199219 2.119141,0 -4.6875,7.0019531 5,7.5781248 -2.119141,0 -4.101562,-6.201172 -4.13086,6.201172 -2.128906,0 5.205078,-7.7832029 -4.541015,-6.796875"
       id="path3040" />
    <path
       style="font-size:20px;font-style:normal;font-weight:normal;line-height:125%;letter-spacing:0px;word-spacing:0px;fill:#000000;fill-opacity:1;stroke:none;font-family:Sans"
       d="m 170.91488,1.8520401 2.11915,0 4.04296,5.9960937 4.01368,-5.9960937 2.11914,0 -5.15625,7.6367187 0,6.9433592 -1.98243,0 0,-6.9433592 -5.15625,-7.6367187"
       id="path3042" />
    <path
       style="font-size:20px;font-style:normal;font-weight:normal;line-height:125%;letter-spacing:0px;word-spacing:0px;fill:#000000;fill-opacity:1;stroke:none;font-family:Sans"
       d="m 309.15499,1.8520401 11.45507,0 0,1.5039062 -9.21875,11.4160157 9.44336,0 0,1.660156 -11.90429,0 0,-1.503906 9.21875,-11.4160157 -8.99414,0 0,-1.6601562"
       id="path3044" />
    <path
       style="font-size:medium;font-style:normal;font-variant:normal;font-weight:normal;font-stretch:normal;text-indent:0;text-align:start;text-decoration:none;line-height:normal;letter-spacing:normal;word-spacing:normal;text-transform:none;direction:ltr;block-progression:tb;writing-mode:lr-tb;text-anchor:start;baseline-shift:baseline;color:#000000;fill:#000000;fill-opacity:1;stroke:none;stroke-width:1;marker:none;visibility:visible;display:inline;overflow:visible;enable-background:accumulate;font-family:Sans;-inkscape-font-specification:Sans"
       d="m 33.018072,31.84375 c -1.30259,0 -2.34375,1.041161 -2.34375,2.34375 0,1.30259 1.04116,2.375 2.34375,2.375 1.302589,0 2.375,-1.07241 2.375,-2.375 0,-1.302589 -1.072411,-2.34375 -2.375,-2.34375 z"
       id="path3096" />
    <path
       style="font-size:medium;font-style:normal;font-variant:normal;font-weight:normal;font-stretch:normal;text-indent:0;text-align:start;text-decoration:none;line-height:normal;letter-spacing:normal;word-spacing:normal;text-transform:none;direction:ltr;block-progression:tb;writing-mode:lr-tb;text-anchor:start;baseline-shift:baseline;color:#000000;fill:#000000;fill-opacity:1;stroke:none;stroke-width:1;marker:none;visibility:visible;display:inline;overflow:visible;enable-background:accumulate;font-family:Sans;-inkscape-font-specification:Sans"
       d="m 28.582801,57.621727 c -1.30259,0 -2.34375,1.041161 -2.34375,2.34375 0,1.30259 1.04116,2.375 2.34375,2.375 1.302589,0 2.375,-1.07241 2.375,-2.375 0,-1.302589 -1.072411,-2.34375 -2.375,-2.34375 z"
       id="path3096-4" />
    <path
       style="font-size:medium;font-style:normal;font-variant:normal;font-weight:normal;font-stretch:normal;text-indent:0;text-align:start;text-decoration:none;line-height:normal;letter-spacing:normal;word-spacing:normal;text-transform:none;direction:ltr;block-progression:tb;writing-mode:lr-tb;text-anchor:start;baseline-shift:baseline;color:#000000;fill:#000000;fill-opacity:1;stroke:none;stroke-width:1;marker:none;visibility:visible;display:inline;overflow:visible;enable-background:accumulate;font-family:Sans;-inkscape-font-specification:Sans"
       d="m 49.31666,47.969758 c -1.30259,0 -2.34375,1.041161 -2.34375,2.34375 0,1.30259 1.04116,2.375 2.34375,2.375 1.302589,0 2.375,-1.07241 2.375,-2.375 0,-1.302589 -1.072411,-2.34375 -2.375,-2.34375 z"
       id="path3096-7" />
    <path
       style="font-size:medium;font-style:normal;font-variant:normal;font-weight:normal;font-stretch:normal;text-indent:0;text-align:start;text-decoration:none;line-height:normal;letter-spacing:normal;word-spacing:normal;text-transform:none;direction:ltr;block-progression:tb;writing-mode:lr-tb;text-anchor:start;baseline-shift:baseline;color:#000000;fill:#000000;fill-opacity:1;stroke:none;stroke-width:1;marker:none;visibility:visible;display:inline;overflow:visible;enable-background:accumulate;font-family:Sans;-inkscape-font-specification:Sans"
       d="m 186.23162,32.955585 c -1.30259,0 -2.34375,1.041161 -2.34375,2.34375 0,1.30259 1.04116,2.375 2.34375,2.375 1.30259,0 2.375,-1.07241 2.375,-2.375 0,-1.302589 -1.07241,-2.34375 -2.375,-2.34375 z"
       id="path3096-44" />
    <path
       style="font-size:medium;font-style:normal;font-variant:normal;font-weight:normal;font-stretch:normal;text-indent:0;text-align:start;text-decoration:none;line-height:normal;letter-spacing:normal;word-spacing:normal;text-transform:none;direction:ltr;block-progression:tb;writing-mode:lr-tb;text-anchor:start;baseline-shift:baseline;color:#000000;fill:#000000;fill-opacity:1;stroke:none;stroke-width:1;marker:none;visibility:visible;display:inline;overflow:visible;enable-background:accumulate;font-family:Sans;-inkscape-font-specification:Sans"
       d="m 166.92769,44.037475 c -1.30259,0 -2.34375,1.041161 -2.34375,2.34375 0,1.30259 1.04116,2.375 2.34375,2.375 1.30258,0 2.375,-1.07241 2.375,-2.375 0,-1.302589 -1.07242,-2.34375 -2.375,-2.34375 z"
       id="path3096-3" />
    <path
       style="font-size:medium;font-style:normal;font-variant:normal;font-weight:normal;font-stretch:normal;text-indent:0;text-align:start;text-decoration:none;line-height:normal;letter-spacing:normal;word-spacing:normal;text-transform:none;direction:ltr;block-progression:tb;writing-mode:lr-tb;text-anchor:start;baseline-shift:baseline;color:#000000;fill:#000000;fill-opacity:1;stroke:none;stroke-width:1;marker:none;visibility:visible;display:inline;overflow:visible;enable-background:accumulate;font-family:Sans;-inkscape-font-specification:Sans"
       d="m 179.4395,64.056373 c -1.30259,0 -2.34375,1.041161 -2.34375,2.34375 0,1.30259 1.04116,2.375 2.34375,2.375 1.30259,0 2.375,-1.07241 2.375,-2.375 0,-1.302589 -1.07241,-2.34375 -2.375,-2.34375 z"
       id="path3096-0" />
    <path
       style="font-size:medium;font-style:normal;font-variant:normal;font-weight:normal;font-stretch:normal;text-indent:0;text-align:start;text-decoration:none;line-height:normal;letter-spacing:normal;word-spacing:normal;text-transform:none;direction:ltr;block-progression:tb;writing-mode:lr-tb;text-anchor:start;baseline-shift:baseline;color:#000000;fill:#000000;fill-opacity:1;stroke:none;stroke-width:1;marker:none;visibility:visible;display:inline;overflow:visible;enable-background:accumulate;font-family:Sans;-inkscape-font-specification:Sans"
       d="m 307.41745,31.525663 c -1.30259,0 -2.34375,1.041161 -2.34375,2.34375 0,1.30259 1.04116,2.375 2.34375,2.375 1.30259,0 2.375,-1.07241 2.375,-2.375 0,-1.302589 -1.07241,-2.34375 -2.375,-2.34375 z"
       id="path3096-78" />
    <path
       style="font-size:medium;font-style:normal;font-variant:normal;font-weight:normal;font-stretch:normal;text-indent:0;text-align:start;text-decoration:none;line-height:normal;letter-spacing:normal;word-spacing:normal;text-transform:none;direction:ltr;block-progression:tb;writing-mode:lr-tb;text-anchor:start;baseline-shift:baseline;color:#000000;fill:#000000;fill-opacity:1;stroke:none;stroke-width:1;marker:none;visibility:visible;display:inline;overflow:visible;enable-background:accumulate;font-family:Sans;-inkscape-font-specification:Sans"
       d="m 317.78438,51.187081 c -1.30259,0 -2.34375,1.041161 -2.34375,2.34375 0,1.30259 1.04116,2.375 2.34375,2.375 1.30259,0 2.375,-1.07241 2.375,-2.375 0,-1.302589 -1.07241,-2.34375 -2.375,-2.34375 z"
       id="path3096-6" />
    <path
       style="font-size:medium;font-style:normal;font-variant:normal;font-weight:normal;font-stretch:normal;text-indent:0;text-align:start;text-decoration:none;line-height:normal;letter-spacing:normal;word-spacing:normal;text-transform:none;direction:ltr;block-progression:tb;writing-mode:lr-tb;text-anchor:start;baseline-shift:baseline;color:#000000;fill:#000000;fill-opacity:1;stroke:none;stroke-width:1;marker:none;visibility:visible;display:inline;overflow:visible;enable-background:accumulate;font-family:Sans;-inkscape-font-specification:Sans"
       d="m 312.77966,66.558735 c -1.30259,0 -2.34375,1.041161 -2.34375,2.34375 0,1.30259 1.04116,2.375 2.34375,2.375 1.30259,0 2.375,-1.07241 2.375,-2.375 0,-1.302589 -1.07241,-2.34375 -2.375,-2.34375 z"
       id="path3096-8" />
    <path
       style="font-size:medium;font-style:normal;font-variant:normal;font-weight:normal;font-stretch:normal;text-indent:0;text-align:start;text-decoration:none;line-height:normal;letter-spacing:normal;word-spacing:normal;text-transform:none;direction:ltr;block-progression:tb;writing-mode:lr-tb;text-anchor:start;baseline-shift:baseline;color:#000000;fill:#000000;fill-opacity:1;stroke:none;stroke-width:1px;marker:none;visibility:visible;display:inline;overflow:visible;enable-background:accumulate;font-family:Sans;-inkscape-font-specification:Sans"
       d="m 91.28125,16.3125 c -21.095074,0.276353 -41.862586,4.652923 -57.625,16.8125 l 0.625,0.8125 c 24.827382,-19.152552 62.578584,-18.762944 94.15625,-13.5 31.57767,5.262944 56.90625,15.34375 56.90625,15.34375 l 0.375,-0.9375 c 0,0 -25.42865,-10.123525 -57.125,-15.40625 -11.88613,-1.981022 -24.65546,-3.290812 -37.3125,-3.125 z"
       id="path3165" />
    <path
       style="font-size:12px;font-style:normal;font-variant:normal;font-weight:normal;font-stretch:normal;text-indent:0;text-align:start;text-decoration:none;line-height:normal;letter-spacing:normal;word-spacing:normal;text-transform:none;direction:ltr;block-progression:tb;writing-mode:lr-tb;text-anchor:start;baseline-shift:baseline;color:#000000;fill-opacity:1;fill-rule:evenodd;stroke:none;stroke-width:0.625;marker:none;visibility:visible;display:inline;overflow:visible;enable-background:accumulate;font-family:Sans;-inkscape-font-specification:Sans"
       d="M 177.125,26.9375 A 0.31253125,0.31253125 0 0 0 177.0313,27 a 0.31253125,0.31253125 0 0 0 -0.0937,0.3125 c 0.75858,3.049111 -0.49227,6.23275 -3.125,7.875 a 0.31253125,0.31253125 0 0 0 -0.125,0.125 0.31253125,0.31253125 0 0 0 0.125,0.40625 0.31253125,0.31253125 0 0 0 0.15625,0.03125 L 186.75,36.09375 A 0.31253125,0.31253125 0 0 0 187,36 a 0.31253125,0.31253125 0 0 0 0.0312,-0.375 0.31253125,0.31253125 0 0 0 -0.0625,-0.0625 L 177.4375,27 a 0.31253125,0.31253125 0 0 0 -0.3125,-0.0625 z"
       id="path3117" />
    <path
       style="font-size:medium;font-style:normal;font-variant:normal;font-weight:normal;font-stretch:normal;text-indent:0;text-align:start;text-decoration:none;line-height:normal;letter-spacing:normal;word-spacing:normal;text-transform:none;direction:ltr;block-progression:tb;writing-mode:lr-tb;text-anchor:start;baseline-shift:baseline;color:#000000;fill:#000000;fill-opacity:1;stroke:none;stroke-width:1px;marker:none;visibility:visible;display:inline;overflow:visible;enable-background:accumulate;font-family:Sans;-inkscape-font-specification:Sans"
       d="m 237.65625,24.4375 c -6.79384,-0.129468 -13.50297,0.01349 -19.84375,0.59375 -12.68157,1.160515 -23.87414,3.978643 -31.15625,9.53125 l 0.59375,0.78125 c 7.0171,-5.350543 18.06843,-8.160564 30.65625,-9.3125 12.58782,-1.151936 26.71618,-0.651218 39.96875,0.53125 26.50513,2.364936 49.4375,7.46875 49.4375,7.46875 l 0.21875,-1 c 0,0 -22.9818,-5.097072 -49.5625,-7.46875 -6.64517,-0.59292 -13.51866,-0.995532 -20.3125,-1.125 z"
       id="path3167" />
    <path
       style="font-size:12px;font-style:normal;font-variant:normal;font-weight:normal;font-stretch:normal;text-indent:0;text-align:start;text-decoration:none;line-height:normal;letter-spacing:normal;word-spacing:normal;text-transform:none;direction:ltr;block-progression:tb;writing-mode:lr-tb;text-anchor:start;baseline-shift:baseline;color:#000000;fill-opacity:1;fill-rule:evenodd;stroke:none;stroke-width:0.625;marker:none;visibility:visible;display:inline;overflow:visible;enable-background:accumulate;font-family:Sans;-inkscape-font-specification:Sans"
       d="M 297.875,26.5625 A 0.31253125,0.31253125 0 0 0 297.65625,27 c 1.2359,2.888785 0.52409,6.239537 -1.8125,8.28125 a 0.31253125,0.31253125 0 0 0 -0.0625,0.40625 0.31253125,0.31253125 0 0 0 0.3125,0.125 l 12.6875,-1.71875 a 0.31253125,0.31253125 0 0 0 0.125,-0.03125 0.31253125,0.31253125 0 0 0 0.0937,-0.09375 0.31253125,0.31253125 0 0 0 -0.0312,-0.375 0.31253125,0.31253125 0 0 0 -0.0625,-0.0625 L 298.125,26.625 a 0.31253125,0.31253125 0 0 0 -0.25,-0.0625 z"
       id="path3113" />
    <path
       style="font-size:medium;font-style:normal;font-variant:normal;font-weight:normal;font-stretch:normal;text-indent:0;text-align:start;text-decoration:none;line-height:normal;letter-spacing:normal;word-spacing:normal;text-transform:none;direction:ltr;block-progression:tb;writing-mode:lr-tb;text-anchor:start;baseline-shift:baseline;color:#000000;fill:#000000;fill-opacity:1;stroke:none;stroke-width:1px;marker:none;visibility:visible;display:inline;overflow:visible;enable-background:accumulate;font-family:Sans;-inkscape-font-specification:Sans"
       d="m 109.78125,37.90625 c -18.96523,0.168428 -40.436653,2.905483 -60.625,11.25 l 0.375,0.90625 C 102.93975,27.986987 165.75,45.4375 165.75,45.4375 L 166,44.5 c 0,0 -24.61003,-6.874463 -56.21875,-6.59375 z"
       id="path3169" />
    <path
       style="font-size:12px;font-style:normal;font-variant:normal;font-weight:normal;font-stretch:normal;text-indent:0;text-align:start;text-decoration:none;line-height:normal;letter-spacing:normal;word-spacing:normal;text-transform:none;direction:ltr;block-progression:tb;writing-mode:lr-tb;text-anchor:start;baseline-shift:baseline;color:#000000;fill-opacity:1;fill-rule:evenodd;stroke:none;stroke-width:0.625;marker:none;visibility:visible;display:inline;overflow:visible;enable-background:accumulate;font-family:Sans;-inkscape-font-specification:Sans"
       d="m 156.75,37.5 a 0.31253125,0.31253125 0 0 0 -0.28125,0.25 0.31253125,0.31253125 0 0 0 0,0.1875 c 1.08031,2.950499 0.16074,6.241859 -2.28125,8.15625 A 0.31253125,0.31253125 0 0 0 154.125,46.5 a 0.31253125,0.31253125 0 0 0 0.28125,0.15625 L 167.1875,45.625 a 0.31253125,0.31253125 0 0 0 0.25,-0.1875 0.31253125,0.31253125 0 0 0 -0.0937,-0.375 l -10.40625,-7.5 A 0.31253125,0.31253125 0 0 0 156.75,37.5 z"
       id="path3109" />
    <path
       style="font-size:medium;font-style:normal;font-variant:normal;font-weight:normal;font-stretch:normal;text-indent:0;text-align:start;text-decoration:none;line-height:normal;letter-spacing:normal;word-spacing:normal;text-transform:none;direction:ltr;block-progression:tb;writing-mode:lr-tb;text-anchor:start;baseline-shift:baseline;color:#000000;fill:#000000;fill-opacity:1;stroke:none;stroke-width:1px;marker:none;visibility:visible;display:inline;overflow:visible;enable-background:accumulate;font-family:Sans;-inkscape-font-specification:Sans"
       d="m 218.4375,39.78125 c -17.27578,0.0018 -35.04078,1.461895 -51.625,5.40625 l 0.25,0.96875 c 65.93085,-15.680849 150.59375,7.875 150.59375,7.875 l 0.28125,-0.96875 c 0,0 -47.67267,-13.286701 -99.5,-13.28125 z"
       id="path3171" />
    <path
       style="font-size:12px;font-style:normal;font-variant:normal;font-weight:normal;font-stretch:normal;text-indent:0;text-align:start;text-decoration:none;line-height:normal;letter-spacing:normal;word-spacing:normal;text-transform:none;direction:ltr;block-progression:tb;writing-mode:lr-tb;text-anchor:start;baseline-shift:baseline;color:#000000;fill-opacity:1;fill-rule:evenodd;stroke:none;stroke-width:0.625;marker:none;visibility:visible;display:inline;overflow:visible;enable-background:accumulate;font-family:Sans;-inkscape-font-specification:Sans"
       d="m 308.59375,46.09375 a 0.31253125,0.31253125 0 0 0 -0.0312,0.03125 0.31253125,0.31253125 0 0 0 -0.125,0.09375 0.31253125,0.31253125 0 0 0 -0.0312,0.28125 c 1.08012,2.95057 0.16087,6.273272 -2.28125,8.1875 a 0.31253125,0.31253125 0 0 0 0.15625,0.53125 0.31253125,0.31253125 0 0 0 0.0625,0 l 12.75,-1.03125 a 0.31253125,0.31253125 0 0 0 0.21875,-0.09375 0.31253125,0.31253125 0 0 0 0.0312,-0.375 0.31253125,0.31253125 0 0 0 -0.0625,-0.09375 L 308.875,46.15625 a 0.31253125,0.31253125 0 0 0 -0.28125,-0.0625 z"
       id="path3105" />
    <path
       style="font-size:medium;font-style:normal;font-variant:normal;font-weight:normal;font-stretch:normal;text-indent:0;text-align:start;text-decoration:none;line-height:normal;letter-spacing:normal;word-spacing:normal;text-transform:none;direction:ltr;block-progression:tb;writing-mode:lr-tb;text-anchor:start;baseline-shift:baseline;color:#000000;fill:#000000;fill-opacity:1;stroke:none;stroke-width:1px;marker:none;visibility:visible;display:inline;overflow:visible;enable-background:accumulate;font-family:Sans;-inkscape-font-specification:Sans"
       d="M 93.84375,48.78125 C 72.865205,48.288072 50.320931,50.895871 29.125,59.53125 L 29.5,60.4375 C 96.800584,33.018743 178.1875,66.875 178.1875,66.875 l 0.375,-0.90625 c 0,0 -38.56595,-16.102508 -84.71875,-17.1875 z"
       id="path3179" />
    <path
       style="font-size:12px;font-style:normal;font-variant:normal;font-weight:normal;font-stretch:normal;text-indent:0;text-align:start;text-decoration:none;line-height:normal;letter-spacing:normal;word-spacing:normal;text-transform:none;direction:ltr;block-progression:tb;writing-mode:lr-tb;text-anchor:start;baseline-shift:baseline;color:#000000;fill-opacity:1;fill-rule:evenodd;stroke:none;stroke-width:0.625;marker:none;visibility:visible;display:inline;overflow:visible;enable-background:accumulate;font-family:Sans;-inkscape-font-specification:Sans"
       d="m 170.125,57.90625 a 0.31253125,0.31253125 0 0 0 -0.21875,0.25 0.31253125,0.31253125 0 0 0 0,0.125 c 0.70936,3.060935 -0.59116,6.212867 -3.25,7.8125 a 0.31253125,0.31253125 0 0 0 -0.0312,0.03125 0.31253125,0.31253125 0 0 0 -0.0937,0.15625 0.31253125,0.31253125 0 0 0 0.15625,0.375 0.31253125,0.31253125 0 0 0 0.125,0.03125 l 12.78125,0.53125 a 0.31253125,0.31253125 0 0 0 0.25,-0.09375 0.31253125,0.31253125 0 0 0 -0.0312,-0.4375 l -9.375,-8.71875 a 0.31253125,0.31253125 0 0 0 -0.125,-0.0625 0.31253125,0.31253125 0 0 0 -0.1875,0 z"
       id="path3101" />
    <path
       style="font-size:medium;font-style:normal;font-variant:normal;font-weight:normal;font-stretch:normal;text-indent:0;text-align:start;text-decoration:none;line-height:normal;letter-spacing:normal;word-spacing:normal;text-transform:none;direction:ltr;block-progression:tb;writing-mode:lr-tb;text-anchor:start;baseline-shift:baseline;color:#000000;fill:#000000;fill-opacity:1;stroke:none;stroke-width:1px;marker:none;visibility:visible;display:inline;overflow:visible;enable-background:accumulate;font-family:Sans;-inkscape-font-specification:Sans"
       d="m 242.03125,54.9375 c -18.994,0.104125 -40.74197,2.936515 -63.8125,11 l 0.34375,0.9375 C 252.01871,41.200987 311.875,68.65625 311.875,68.65625 L 312.28125,67.75 c 0,0 -28.4632,-13.041575 -70.25,-12.8125 z"
       id="path3173" />
    <path
       style="font-size:12px;font-style:normal;font-variant:normal;font-weight:normal;font-stretch:normal;text-indent:0;text-align:start;text-decoration:none;line-height:normal;letter-spacing:normal;word-spacing:normal;text-transform:none;direction:ltr;block-progression:tb;writing-mode:lr-tb;text-anchor:start;baseline-shift:baseline;color:#000000;fill-opacity:1;fill-rule:evenodd;stroke:none;stroke-width:0.625;marker:none;visibility:visible;display:inline;overflow:visible;enable-background:accumulate;font-family:Sans;-inkscape-font-specification:Sans"
       d="m 304.125,59.40625 a 0.31253125,0.31253125 0 0 0 -0.21875,0.375 c 0.60191,3.083864 -0.81812,6.181808 -3.53125,7.6875 a 0.31253125,0.31253125 0 0 0 -0.125,0.15625 0.31253125,0.31253125 0 0 0 0.25,0.4375 l 12.78125,1 a 0.31253125,0.31253125 0 0 0 0.25,-0.125 A 0.31253125,0.31253125 0 0 0 313.5,68.53125 L 304.4375,59.5 a 0.31253125,0.31253125 0 0 0 -0.3125,-0.09375 z"
       id="path3097" />
    <path
       style="font-size:12px;font-style:normal;font-weight:normal;line-height:125%;letter-spacing:0px;word-spacing:0px;fill:#000000;fill-opacity:1;stroke:none;font-family:Sans"
       d="m 108.78125,3.8438024 0,0.8964844 -1.03125,0 c -0.38672,8.2e-6 -0.65625,0.078133 -0.80859,0.234375 -0.14844,0.1562578 -0.22266,0.4375076 -0.22266,0.84375 l 0,0.5800781 1.77539,0 0,0.8378907 -1.77539,0 0,6.1230464 c 0,0.730468 -0.16992,1.261718 -0.50977,1.59375 -0.33984,0.335936 -0.8789,0.503904 -1.61718,0.503907 l -1.01953,0 0,-0.896485 1.03125,0 c 0.38671,-10e-7 0.65429,-0.07813 0.80273,-0.234375 0.15234,-0.156251 0.22851,-0.437501 0.22852,-0.84375 l 0,-6.2460934 -1.03125,0 0,-0.8378907 1.03125,0 0,-0.4570312 c -1e-5,-0.730461 0.16992,-1.2617105 0.50976,-1.59375 0.33984,-0.3359286 0.8789,-0.5038971 1.61719,-0.5039063 l 1.01953,0"
       id="path4501" />
    <path
       style="font-size:12px;font-style:normal;font-weight:normal;line-height:125%;letter-spacing:0px;word-spacing:0px;fill:#000000;fill-opacity:1;stroke:none;font-family:Sans"
       d="M 245.59375 6.25 C 244.78906 6.2500067 244.14844 6.5429751 243.65625 7.15625 C 243.16406 7.7695364 242.90625 8.5781293 242.90625 9.59375 C 242.90625 10.605471 243.16406 11.41797 243.65625 12.03125 C 244.14844 12.644532 244.78906 12.96875 245.59375 12.96875 C 246.07812 12.96875 246.49609 12.87891 246.84375 12.6875 C 247.1914 12.496094 247.49609 12.19922 247.71875 11.8125 L 247.71875 12.34375 C 247.71875 13.089844 247.53905 13.632812 247.1875 14 C 246.83593 14.371092 246.30077 14.562498 245.59375 14.5625 C 245.27343 14.562498 244.96484 14.51953 244.65625 14.4375 C 244.34765 14.35547 244.03515 14.234374 243.71875 14.0625 L 243.71875 15.125 C 244.03515 15.242185 244.35156 15.32031 244.6875 15.375 C 245.02344 15.43359 245.37109 15.46875 245.75 15.46875 C 246.77343 15.468747 247.53515 15.171873 248.03125 14.625 C 248.52733 14.08203 248.78124 13.273437 248.78125 12.15625 L 248.78125 6.40625 L 247.71875 6.40625 L 247.71875 7.40625 C 247.49609 7.0195372 247.1914 6.7226625 246.84375 6.53125 C 246.49609 6.3398506 246.07812 6.2500067 245.59375 6.25 z M 245.875 7.15625 C 246.45702 7.1562558 246.89844 7.3515681 247.21875 7.78125 C 247.54297 8.2109423 247.71875 8.8125041 247.71875 9.59375 C 247.71875 10.371096 247.54297 10.976564 247.21875 11.40625 C 246.89844 11.835939 246.45702 12.062501 245.875 12.0625 C 245.29687 12.062501 244.82422 11.835939 244.5 11.40625 C 244.17969 10.976564 244.03125 10.371096 244.03125 9.59375 C 244.03125 8.8125041 244.17969 8.2109423 244.5 7.78125 C 244.82422 7.3515681 245.29687 7.1562558 245.875 7.15625 z "
       id="path3093" />
  </g>
</svg>
