<?xml version="1.0" encoding="UTF-8" standalone="no"?>
<!-- Created with Inkscape (http://www.inkscape.org/) -->

<svg
   xmlns:dc="http://purl.org/dc/elements/1.1/"
   xmlns:cc="http://creativecommons.org/ns#"
   xmlns:rdf="http://www.w3.org/1999/02/22-rdf-syntax-ns#"
   xmlns:svg="http://www.w3.org/2000/svg"
   xmlns="http://www.w3.org/2000/svg"
   xmlns:sodipodi="http://sodipodi.sourceforge.net/DTD/sodipodi-0.dtd"
   xmlns:inkscape="http://www.inkscape.org/namespaces/inkscape"
   width="130"
   height="100"
   id="svg2"
   version="1.1"
   inkscape:version="0.48.0 r9654"
   sodipodi:docname="2011-(02)feb-23, 01.svg">
  <defs
     id="defs4" />
  <sodipodi:namedview
     id="base"
     pagecolor="#ffffff"
     bordercolor="#666666"
     borderopacity="1.0"
     inkscape:pageopacity="0.0"
     inkscape:pageshadow="2"
     inkscape:zoom="3.0899048"
     inkscape:cx="59.615027"
     inkscape:cy="60.151811"
     inkscape:document-units="px"
     inkscape:current-layer="layer1"
     showgrid="false"
     inkscape:window-width="1589"
     inkscape:window-height="1117"
     inkscape:window-x="1600"
     inkscape:window-y="27"
     inkscape:window-maximized="1"
     showguides="true"
     inkscape:guide-bbox="true" />
  <metadata
     id="metadata7">
    <rdf:RDF>
      <cc:Work
         rdf:about="">
        <dc:format>image/svg+xml</dc:format>
        <dc:type
           rdf:resource="http://purl.org/dc/dcmitype/StillImage" />
        <dc:title />
      </cc:Work>
    </rdf:RDF>
  </metadata>
  <g
     inkscape:label="Layer 1"
     inkscape:groupmode="layer"
     id="layer1">
    <path
       style="font-size:medium;font-style:normal;font-variant:normal;font-weight:normal;font-stretch:normal;text-indent:0;text-align:start;text-decoration:none;line-height:normal;letter-spacing:normal;word-spacing:normal;text-transform:none;direction:ltr;block-progression:tb;writing-mode:lr-tb;text-anchor:start;baseline-shift:baseline;color:#000000;fill:#000000;fill-opacity:1;stroke:none;stroke-width:1;marker:none;visibility:visible;display:inline;overflow:visible;enable-background:accumulate;font-family:Sans;-inkscape-font-specification:Sans"
       d="m 43.334769,21.804983 c -20.839263,0 -37.7812499,16.268923 -37.7812499,36.34375 0,20.074829 16.9419869,36.34375 37.7812499,36.34375 20.839263,0 37.75,-16.268921 37.75,-36.34375 0,-20.074827 -16.910737,-36.34375 -37.75,-36.34375 z m 0,1 c 20.319451,0 36.75,15.830808 36.75,35.34375 0,19.512944 -16.430549,35.34375 -36.75,35.34375 -20.319451,0 -36.7812499,-15.830806 -36.7812499,-35.34375 0,-19.512942 16.4617989,-35.34375 36.7812499,-35.34375 z"
       id="path4092"
       inkscape:connector-curvature="0" />
    <path
       style="font-size:medium;font-style:normal;font-variant:normal;font-weight:normal;font-stretch:normal;text-indent:0;text-align:start;text-decoration:none;line-height:normal;letter-spacing:normal;word-spacing:normal;text-transform:none;direction:ltr;block-progression:tb;writing-mode:lr-tb;text-anchor:start;baseline-shift:baseline;color:#000000;fill:#000000;fill-opacity:1;stroke:none;stroke-width:1;marker:none;visibility:visible;display:inline;overflow:visible;enable-background:accumulate;font-family:Sans;-inkscape-font-specification:Sans"
       d="m 87.76357,21.804984 c -20.83926,0 -37.781251,16.268923 -37.781251,36.34375 0,20.074829 16.941991,36.34375 37.781251,36.34375 20.83926,0 37.75,-16.268921 37.75,-36.34375 0,-20.074827 -16.91074,-36.34375 -37.75,-36.34375 z m 0,1 c 20.31945,0 36.75,15.830808 36.75,35.34375 0,19.512944 -16.43055,35.34375 -36.75,35.34375 -20.31945,0 -36.781251,-15.830806 -36.781251,-35.34375 0,-19.512942 16.461801,-35.34375 36.781251,-35.34375 z"
       id="path4096"
       inkscape:connector-curvature="0" />
    <path
       style="font-size:24px;font-style:normal;font-weight:normal;line-height:125%;letter-spacing:0px;word-spacing:0px;fill:#000000;fill-opacity:1;stroke:none;font-family:Sans"
       d="m 17.794784,7.8296326 -5.0625,13.2187494 1.90625,0 1.1875,-3.40625 5.96875,0 1.1875,3.40625 1.875,0 -5.03125,-13.2187494 -2.03125,0 z m 1,1.75 2.4375,6.5937494 -4.875,0 2.4375,-6.5937494 z"
       id="path3013"
       inkscape:connector-curvature="0" />
    <path
       style="font-size:24px;font-style:normal;font-weight:normal;line-height:125%;letter-spacing:0px;word-spacing:0px;fill:#000000;fill-opacity:1;stroke:none;font-family:Sans"
       d="m 106.89346,7.0450965 0,13.2187505 4.75,0 c 1.48199,0 2.6345,-0.293921 3.4375,-0.9375 0.80298,-0.643576 1.18749,-1.56912 1.1875,-2.75 -1e-5,-0.897462 -0.2287,-1.653652 -0.71875,-2.25 -0.48418,-0.602241 -1.18276,-0.998553 -2.0625,-1.1875 0.73213,-0.118081 1.27836,-0.396737 1.65625,-0.875 0.37787,-0.478247 0.59374,-1.128591 0.59375,-1.937501 -1e-5,-1.0450645 -0.38696,-1.8706665 -1.125,-2.4374995 -0.73805,-0.566808 -1.79234,-0.843736 -3.15625,-0.84375 l -4.5625,0 z m 1.78125,1.46875 2.65625,0 c 0.87384,1.1e-5 1.51238,0.169366 1.9375,0.5 0.43102,0.330656 0.65624,0.832816 0.65625,1.4999995 -1e-5,0.67311 -0.22523,1.169363 -0.65625,1.500001 -0.42512,0.324749 -1.06366,0.500007 -1.9375,0.5 l -2.65625,0 0,-4.0000005 z m 0,5.4375005 2.875,0 c 0.96241,6e-6 1.66445,0.198163 2.125,0.59375 0.46644,0.389695 0.71874,1.01714 0.71875,1.84375 -1e-5,0.820712 -0.25231,1.411005 -0.71875,1.8125 -0.46055,0.395596 -1.16259,0.593752 -2.125,0.59375 l -2.875,0 0,-4.84375 z"
       id="path3015"
       inkscape:connector-curvature="0" />
    <path
       style="font-size:12px;font-style:normal;font-weight:normal;line-height:125%;letter-spacing:0px;word-spacing:0px;fill:#000000;fill-opacity:1;stroke:none;font-family:Sans"
       d="m 30.982897,42.409168 1.933594,0 0,-6.673828 -2.103516,0.421875 0,-1.078125 2.091797,-0.421875 1.183594,0 0,7.751953 1.933594,0 0,0.996094 -5.039063,0 0,-0.996094"
       id="path3004"
       inkscape:connector-curvature="0" />
    <path
       style="font-size:12px;font-style:normal;font-weight:normal;line-height:125%;letter-spacing:0px;word-spacing:0px;fill:#000000;fill-opacity:1;stroke:none;font-family:Sans"
       d="m 65.526213,44.011077 4.13086,0 0,0.996094 -5.554688,0 0,-0.996094 c 0.449218,-0.464842 1.060545,-1.087888 1.833985,-1.86914 0.77734,-0.785153 1.265621,-1.291012 1.464843,-1.517579 0.378902,-0.425776 0.642574,-0.785151 0.791016,-1.078125 0.152339,-0.296869 0.22851,-0.587884 0.228516,-0.873046 -6e-6,-0.464837 -0.164068,-0.843743 -0.492188,-1.136719 -0.324223,-0.292961 -0.748051,-0.439445 -1.271484,-0.439453 -0.371097,8e-6 -0.763675,0.06446 -1.177735,0.193359 -0.410158,0.128914 -0.84961,0.324226 -1.318359,0.585938 l 0,-1.195313 c 0.476561,-0.191398 0.921873,-0.335929 1.335937,-0.433594 0.41406,-0.09765 0.792966,-0.146475 1.136719,-0.146484 0.906246,9e-6 1.628901,0.226571 2.167969,0.679687 0.539056,0.453133 0.808587,1.058601 0.808594,1.816407 -7e-6,0.359381 -0.06837,0.701177 -0.205078,1.02539 -0.132819,0.320318 -0.376959,0.699224 -0.732422,1.136719 -0.09766,0.113285 -0.408208,0.44141 -0.931641,0.984375 -0.523441,0.539065 -1.261722,1.294924 -2.214844,2.267578"
       id="path3006"
       inkscape:connector-curvature="0" />
    <path
       style="font-size:12px;font-style:normal;font-weight:normal;line-height:125%;letter-spacing:0px;word-spacing:0px;fill:#000000;fill-opacity:1;stroke:none;font-family:Sans"
       d="m 57.230598,59.747789 4.13086,0 0,0.996094 -5.554688,0 0,-0.996094 c 0.449218,-0.464842 1.060545,-1.087888 1.833985,-1.86914 0.77734,-0.785153 1.265621,-1.291012 1.464843,-1.517579 0.378902,-0.425776 0.642574,-0.785151 0.791016,-1.078125 0.152339,-0.296869 0.22851,-0.587884 0.228516,-0.873046 -6e-6,-0.464837 -0.164068,-0.843743 -0.492188,-1.136719 -0.324223,-0.292961 -0.748051,-0.439445 -1.271484,-0.439453 -0.371097,8e-6 -0.763675,0.06446 -1.177735,0.193359 -0.410158,0.128914 -0.84961,0.324226 -1.318359,0.585938 l 0,-1.195313 c 0.476561,-0.191398 0.921873,-0.335929 1.335937,-0.433594 0.41406,-0.09765 0.792966,-0.146475 1.136719,-0.146484 0.906246,9e-6 1.628901,0.226571 2.167969,0.679687 0.539056,0.453133 0.808587,1.058601 0.808594,1.816407 -7e-6,0.359381 -0.06837,0.701177 -0.205078,1.02539 -0.132819,0.320318 -0.376959,0.699224 -0.732422,1.136719 -0.09766,0.113285 -0.408208,0.44141 -0.931641,0.984375 -0.523441,0.539065 -1.261722,1.294924 -2.214844,2.267578"
       id="path3006-4"
       inkscape:connector-curvature="0" />
    <path
       style="font-size:12px;font-style:normal;font-weight:normal;line-height:125%;letter-spacing:0px;word-spacing:0px;fill:#000000;fill-opacity:1;stroke:none;font-family:Sans"
       d="m 67.070899,75.080351 4.13086,0 0,0.996094 -5.554688,0 0,-0.996094 c 0.449218,-0.464842 1.060545,-1.087888 1.833985,-1.86914 0.77734,-0.785153 1.265621,-1.291012 1.464843,-1.517579 0.378902,-0.425776 0.642574,-0.785151 0.791016,-1.078125 0.152339,-0.296869 0.22851,-0.587884 0.228516,-0.873046 -6e-6,-0.464837 -0.164068,-0.843743 -0.492188,-1.136719 -0.324223,-0.292961 -0.748051,-0.439445 -1.271484,-0.439453 -0.371097,8e-6 -0.763675,0.06446 -1.177735,0.193359 -0.410158,0.128914 -0.84961,0.324226 -1.318359,0.585938 l 0,-1.195313 c 0.476561,-0.191398 0.921873,-0.335929 1.335937,-0.433594 0.41406,-0.09765 0.792966,-0.146475 1.136719,-0.146484 0.906246,9e-6 1.628901,0.226571 2.167969,0.679687 0.539056,0.453133 0.808587,1.058601 0.808594,1.816407 -7e-6,0.359381 -0.06837,0.701177 -0.205078,1.02539 -0.132819,0.320318 -0.376959,0.699224 -0.732422,1.136719 -0.09766,0.113285 -0.408208,0.44141 -0.931641,0.984375 -0.523441,0.539065 -1.261722,1.294924 -2.214844,2.267578"
       id="path3006-7"
       inkscape:connector-curvature="0" />
    <path
       style="font-size:12px;font-style:normal;font-weight:normal;line-height:125%;letter-spacing:0px;word-spacing:0px;fill:#000000;fill-opacity:1;stroke:none;font-family:Sans"
       d="m 13.126835,63.101351 1.933594,0 0,-6.673828 -2.103516,0.421875 0,-1.078125 2.091797,-0.421875 1.183594,0 0,7.751953 1.933594,0 0,0.996094 -5.039063,0 0,-0.996094"
       id="path3004-4"
       inkscape:connector-curvature="0" />
    <path
       style="font-size:12px;font-style:normal;font-weight:normal;line-height:125%;letter-spacing:0px;word-spacing:0px;fill:#000000;fill-opacity:1;stroke:none;font-family:Sans"
       d="m 33.493969,84.383861 1.933594,0 0,-6.673828 -2.103516,0.421875 0,-1.078125 2.091797,-0.421875 1.183594,0 0,7.751953 1.933594,0 0,0.996094 -5.039063,0 0,-0.996094"
       id="path3004-43"
       inkscape:connector-curvature="0" />
    <path
       style="font-size:12px;font-style:normal;font-weight:normal;line-height:125%;letter-spacing:0px;word-spacing:0px;fill:#000000;fill-opacity:1;stroke:none;font-family:Sans"
       d="m 37.842008,61.728286 1.933594,0 0,-6.673828 -2.103516,0.421875 0,-1.078125 2.091797,-0.421875 1.183594,0 0,7.751953 1.933594,0 0,0.996094 -5.039063,0 0,-0.996094"
       id="path3004-0"
       inkscape:connector-curvature="0" />
    <path
       style="font-size:12px;font-style:normal;font-weight:normal;line-height:125%;letter-spacing:0px;word-spacing:0px;fill:#000000;fill-opacity:1;stroke:none;font-family:Sans"
       d="m 109.2414,48.455322 1.93359,0 0,-6.673828 -2.10351,0.421875 0,-1.078125 2.0918,-0.421875 1.18359,0 0,7.751953 1.93359,0 0,0.996094 -5.03906,0 0,-0.996094"
       id="path3004-7"
       inkscape:connector-curvature="0" />
    <path
       style="font-size:12px;font-style:normal;font-weight:normal;line-height:125%;letter-spacing:0px;word-spacing:0px;fill:#000000;fill-opacity:1;stroke:none;font-family:Sans"
       d="m 80.178184,86.443459 1.933594,0 0,-6.673828 -2.103516,0.421875 0,-1.078125 2.091797,-0.421875 1.183594,0 0,7.751953 1.933594,0 0,0.996094 -5.039063,0 0,-0.996094"
       id="path3004-8"
       inkscape:connector-curvature="0" />
    <path
       style="font-size:12px;font-style:normal;font-weight:normal;line-height:125%;letter-spacing:0px;word-spacing:0px;fill:#000000;fill-opacity:1;stroke:none;font-family:Sans"
       d="m 89.103111,58.982155 1.93359,0 0,-6.673828 -2.10351,0.421875 0,-1.078125 2.09179,-0.421875 1.1836,0 0,7.751953 1.93359,0 0,0.996094 -5.03906,0 0,-0.996094"
       id="path3004-6"
       inkscape:connector-curvature="0" />
    <path
       style="font-size:12px;font-style:normal;font-weight:normal;line-height:125%;letter-spacing:0px;word-spacing:0px;fill:#000000;fill-opacity:1;stroke:none;font-family:Sans"
       d="m 81.780094,36.326579 1.933594,0 0,-6.673828 -2.103516,0.421875 0,-1.078125 2.091797,-0.421875 1.183594,0 0,7.751953 1.933594,0 0,0.996094 -5.039063,0 0,-0.996094"
       id="path3004-88"
       inkscape:connector-curvature="0" />
    <path
       style="font-size:12px;font-style:normal;font-weight:normal;line-height:125%;letter-spacing:0px;word-spacing:0px;fill:#000000;fill-opacity:1;stroke:none;font-family:Sans"
       d="m 101.91838,79.120444 1.9336,0 0,-6.673828 -2.10352,0.421875 0,-1.078125 2.0918,-0.421875 1.1836,0 0,7.751953 1.93359,0 0,0.996094 -5.03907,0 0,-0.996094"
       id="path3004-431"
       inkscape:connector-curvature="0" />
  </g>
</svg>
