<?xml version="1.0" encoding="UTF-8" standalone="no"?>
<!-- Created with Inkscape (http://www.inkscape.org/) -->

<svg
   xmlns:dc="http://purl.org/dc/elements/1.1/"
   xmlns:cc="http://creativecommons.org/ns#"
   xmlns:rdf="http://www.w3.org/1999/02/22-rdf-syntax-ns#"
   xmlns:svg="http://www.w3.org/2000/svg"
   xmlns="http://www.w3.org/2000/svg"
   xmlns:sodipodi="http://sodipodi.sourceforge.net/DTD/sodipodi-0.dtd"
   xmlns:inkscape="http://www.inkscape.org/namespaces/inkscape"
   width="150"
   height="150"
   id="svg2"
   version="1.1"
   inkscape:version="0.48.0 r9654"
   sodipodi:docname="2011-(02)feb-23, 05.svg">
  <defs
     id="defs4" />
  <sodipodi:namedview
     id="base"
     pagecolor="#ffffff"
     bordercolor="#666666"
     borderopacity="1.0"
     inkscape:pageopacity="0.0"
     inkscape:pageshadow="2"
     inkscape:zoom="4"
     inkscape:cx="120.68802"
     inkscape:cy="51.59779"
     inkscape:document-units="px"
     inkscape:current-layer="layer1"
     showgrid="false"
     inkscape:window-width="1589"
     inkscape:window-height="1117"
     inkscape:window-x="1600"
     inkscape:window-y="27"
     inkscape:window-maximized="1"
     showguides="true"
     inkscape:guide-bbox="true" />
  <metadata
     id="metadata7">
    <rdf:RDF>
      <cc:Work
         rdf:about="">
        <dc:format>image/svg+xml</dc:format>
        <dc:type
           rdf:resource="http://purl.org/dc/dcmitype/StillImage" />
        <dc:title />
      </cc:Work>
    </rdf:RDF>
  </metadata>
  <g
     inkscape:label="Layer 1"
     inkscape:groupmode="layer"
     id="layer1">
    <path
       style="font-size:medium;font-style:normal;font-variant:normal;font-weight:normal;font-stretch:normal;text-indent:0;text-align:start;text-decoration:none;line-height:normal;letter-spacing:normal;word-spacing:normal;text-transform:none;direction:ltr;block-progression:tb;writing-mode:lr-tb;text-anchor:start;baseline-shift:baseline;color:#000000;fill:#000000;fill-opacity:1;stroke:none;stroke-width:1;marker:none;visibility:visible;display:inline;overflow:visible;enable-background:accumulate;font-family:Sans;-inkscape-font-specification:Sans"
       d="m 76.124264,43.407524 c 2.593589,0 4.684714,2.091126 4.684714,4.684714 0,2.593588 -2.091125,4.684714 -4.684714,4.684714 -2.593588,0 -4.684713,-2.091126 -4.684713,-4.684714 0,-2.593588 2.091125,-4.684714 4.684713,-4.684714 z"
       id="path3003"
       inkscape:connector-curvature="0" />
    <path
       style="font-size:medium;font-style:normal;font-variant:normal;font-weight:normal;font-stretch:normal;text-indent:0;text-align:start;text-decoration:none;line-height:normal;letter-spacing:normal;word-spacing:normal;text-transform:none;direction:ltr;block-progression:tb;writing-mode:lr-tb;text-anchor:start;baseline-shift:baseline;color:#000000;fill:#000000;fill-opacity:1;stroke:none;stroke-width:1;marker:none;visibility:visible;display:inline;overflow:visible;enable-background:accumulate;font-family:Sans;-inkscape-font-specification:Sans"
       d="m 76.9375,11.75 c -7.009312,-0.266222 -13.837373,3.628061 -17,10.375 -4.216838,8.995918 -0.308418,19.720663 8.6875,23.9375 l 0.40625,-0.90625 c -8.506572,-3.987455 -12.174956,-14.118428 -8.1875,-22.625 3.987455,-8.506572 14.118428,-12.174956 22.625,-8.1875 8.506572,3.987455 12.174956,14.118428 8.1875,22.625 C 89.973525,40.558564 87.087276,43.43687 83.5,45.125 l 0.40625,0.90625 C 87.70435,44.243908 90.780881,41.175788 92.5625,37.375 96.779338,28.379082 92.870918,17.654337 83.875,13.4375 81.62602,12.383291 79.273937,11.838741 76.9375,11.75 z"
       id="path3014" />
    <g
       id="g4994">
      <path
         style="font-size:medium;font-style:normal;font-variant:normal;font-weight:normal;font-stretch:normal;text-indent:0;text-align:start;text-decoration:none;line-height:normal;letter-spacing:normal;word-spacing:normal;text-transform:none;direction:ltr;block-progression:tb;writing-mode:lr-tb;text-anchor:start;baseline-shift:baseline;color:#000000;fill:#000000;fill-opacity:1;stroke:none;stroke-width:1px;marker:none;visibility:visible;display:inline;overflow:visible;enable-background:accumulate;font-family:Sans;-inkscape-font-specification:Sans"
         d="m 68.625,44.71875 -0.65625,0.75 0.875,0.78125 0.6875,-0.71875 -0.90625,-0.8125 z"
         id="path3016"
         inkscape:connector-curvature="0" />
      <path
         inkscape:connector-curvature="0"
         d="m 64.21718,35.436885 5.974922,11.325888 -11.888965,-4.756885 c 3.172775,-0.654491 5.553143,-3.315012 5.914043,-6.569003 z"
         style="font-size:12px;fill-rule:evenodd;stroke-width:0.625;stroke-linejoin:round"
         id="path5000" />
    </g>
    <path
       inkscape:connector-curvature="0"
       id="path3974"
       d="m 114.07493,108.70445 c -1.29679,2.24611 -4.15332,3.01152 -6.39944,1.71472 -2.24611,-1.29679 -3.01152,-4.15332 -1.71472,-6.39944 1.29679,-2.24611 4.15332,-3.01151 6.39944,-1.71472 2.24611,1.29679 3.01152,4.15332 1.71472,6.39944 z"
       style="font-size:medium;font-style:normal;font-variant:normal;font-weight:normal;font-stretch:normal;text-indent:0;text-align:start;text-decoration:none;line-height:normal;letter-spacing:normal;word-spacing:normal;text-transform:none;direction:ltr;block-progression:tb;writing-mode:lr-tb;text-anchor:start;baseline-shift:baseline;color:#000000;fill:#000000;fill-opacity:1;stroke:none;stroke-width:1;marker:none;visibility:visible;display:inline;overflow:visible;enable-background:accumulate;font-family:Sans;-inkscape-font-specification:Sans"
       inkscape:transform-center-x="-33.76785"
       inkscape:transform-center-y="19.350692" />
    <path
       style="font-size:medium;font-style:normal;font-variant:normal;font-weight:normal;font-stretch:normal;text-indent:0;text-align:start;text-decoration:none;line-height:normal;letter-spacing:normal;word-spacing:normal;text-transform:none;direction:ltr;block-progression:tb;writing-mode:lr-tb;text-anchor:start;baseline-shift:baseline;color:#000000;fill:#000000;fill-opacity:1;stroke:none;stroke-width:1;marker:none;visibility:visible;display:inline;overflow:visible;enable-background:accumulate;font-family:Sans;-inkscape-font-specification:Sans"
       d="m 141.08453,125.23749 c 3.73521,-5.93713 3.7767,-13.79755 -0.48501,-19.90993 -5.68228,-8.149848 -16.92439,-10.12743 -25.07423,-4.44515 l 0.58171,0.80494 c 7.70652,-5.373177 18.31439,-3.484604 23.68757,4.22192 5.37318,7.70652 3.48461,18.3144 -4.22192,23.68757 -7.70652,5.37318 -18.31439,3.48461 -23.68757,-4.22191 -2.26751,-3.25219 -3.31707,-7.19091 -2.98539,-11.14165 l -0.98797,-0.1013 c -0.35116,4.18292 0.76764,8.38134 3.16841,11.82466 5.68228,8.14985 16.92439,10.12743 25.07424,4.44515 2.03746,-1.42057 3.68509,-3.18526 4.93016,-5.1643 z"
       id="path3976" />
    <g
       id="g5019">
      <path
         style="font-size:medium;font-style:normal;font-variant:normal;font-weight:normal;font-stretch:normal;text-indent:0;text-align:start;text-decoration:none;line-height:normal;letter-spacing:normal;word-spacing:normal;text-transform:none;direction:ltr;block-progression:tb;writing-mode:lr-tb;text-anchor:start;baseline-shift:baseline;color:#000000;fill:#000000;fill-opacity:1;stroke:none;stroke-width:1px;marker:none;visibility:visible;display:inline;overflow:visible;enable-background:accumulate;font-family:Sans;-inkscape-font-specification:Sans"
         d="m 116.375,100.625 -1.125,0.375 0.3125,0.9375 1.125,-0.375 -0.3125,-0.9375 z"
         id="path3978"
         inkscape:connector-curvature="0" />
      <path
         inkscape:connector-curvature="0"
         d="m 126.93125,102.37792 -12.79597,-0.4885 10.06406,-7.917707 c -1.01958,3.07495 0.0943,6.466667 2.73191,8.406207 z"
         style="font-size:12px;fill-rule:evenodd;stroke-width:0.625;stroke-linejoin:round"
         id="path5025" />
    </g>
    <path
       inkscape:transform-center-y="19.568471"
       inkscape:transform-center-x="33.642115"
       style="font-size:medium;font-style:normal;font-variant:normal;font-weight:normal;font-stretch:normal;text-indent:0;text-align:start;text-decoration:none;line-height:normal;letter-spacing:normal;word-spacing:normal;text-transform:none;direction:ltr;block-progression:tb;writing-mode:lr-tb;text-anchor:start;baseline-shift:baseline;color:#000000;fill:#000000;fill-opacity:1;stroke:none;stroke-width:1;marker:none;visibility:visible;display:inline;overflow:visible;enable-background:accumulate;font-family:Sans;-inkscape-font-specification:Sans"
       d="m 38.550802,108.92223 c -1.296794,-2.24611 -0.531393,-5.10264 1.714728,-6.39944 2.246109,-1.2968 5.102641,-0.53139 6.399438,1.71473 1.296793,2.24611 0.531384,5.10263 -1.714729,6.39943 -2.246108,1.2968 -5.10264,0.5314 -6.399437,-1.71472 z"
       id="path3980"
       inkscape:connector-curvature="0" />
    <path
       style="font-size:medium;font-style:normal;font-variant:normal;font-weight:normal;font-stretch:normal;text-indent:0;text-align:start;text-decoration:none;line-height:normal;letter-spacing:normal;word-spacing:normal;text-transform:none;direction:ltr;block-progression:tb;writing-mode:lr-tb;text-anchor:start;baseline-shift:baseline;color:#000000;fill:#000000;fill-opacity:1;stroke:none;stroke-width:1;marker:none;visibility:visible;display:inline;overflow:visible;enable-background:accumulate;font-family:Sans;-inkscape-font-specification:Sans"
       d="m 10.727966,124.0467 c 3.274101,6.20336 10.06068,10.16949 17.485014,9.53493 9.899112,-0.84607 17.232804,-9.59323 16.386733,-19.49234 l -0.987961,0.1013 c 0.800049,9.36064 -6.139439,17.60304 -15.500075,18.40308 -9.360635,0.80005 -17.603035,-6.13944 -18.4030826,-15.50007 -0.8000487,-9.36064 6.1394396,-17.603036 15.5000746,-18.403084 3.950233,-0.337624 7.886043,0.722788 11.141645,2.985394 l 0.58171,-0.80495 C 33.485091,98.475383 29.289755,97.345089 25.107367,97.702556 15.208254,98.548626 7.8745629,107.29579 8.7206339,117.1949 c 0.2115182,2.47478 0.9159656,4.78402 2.0073321,6.8518 z"
       id="path3982" />
    <g
       id="g5011">
      <path
         style="font-size:medium;font-style:normal;font-variant:normal;font-weight:normal;font-stretch:normal;text-indent:0;text-align:start;text-decoration:none;line-height:normal;letter-spacing:normal;word-spacing:normal;text-transform:none;direction:ltr;block-progression:tb;writing-mode:lr-tb;text-anchor:start;baseline-shift:baseline;color:#000000;fill:#000000;fill-opacity:1;stroke:none;stroke-width:1px;marker:none;visibility:visible;display:inline;overflow:visible;enable-background:accumulate;font-family:Sans;-inkscape-font-specification:Sans"
         d="m 43.6875,113.59375 -0.25,1.15625 0.96875,0.21875 0.25,-1.1875 -0.96875,-0.1875 z"
         id="path3984"
         inkscape:connector-curvature="0" />
      <path
         inkscape:connector-curvature="0"
         d="m 37.601581,123.21939 6.821035,-10.83739 1.824911,12.67459 c -2.153195,-2.42046 -5.647459,-3.15165 -8.645946,-1.8372 z"
         style="font-size:12px;fill-rule:evenodd;stroke-width:0.625;stroke-linejoin:round"
         id="path5017" />
    </g>
    <path
       style="font-size:medium;font-style:normal;font-variant:normal;font-weight:normal;font-stretch:normal;text-indent:0;text-align:start;text-decoration:none;line-height:normal;letter-spacing:normal;word-spacing:normal;text-transform:none;direction:ltr;block-progression:tb;writing-mode:lr-tb;text-anchor:start;baseline-shift:baseline;color:#000000;fill:#000000;fill-opacity:1;stroke:none;stroke-width:1px;marker:none;visibility:visible;display:inline;overflow:visible;enable-background:accumulate;font-family:Sans;-inkscape-font-specification:Sans"
       d="m 72.3125,53.25 -27,47.75 0.875,0.5 27,-47.75 -0.875,-0.5 z"
       id="path3990" />
    <path
       style="font-size:12px;fill-rule:evenodd;stroke-width:0.625;stroke-linejoin:round"
       d="m 63.625678,60.62182 9.762649,-8.286501 -2.068506,12.637117 C 69.993573,62.016776 66.880582,60.26926 63.625678,60.62182 z"
       id="path5055" />
    <path
       style="font-size:12px;fill-rule:evenodd;stroke-width:0.625;stroke-linejoin:round"
       d="m 54.874322,94.12818 -9.762649,8.2865 2.068506,-12.637116 c 1.326248,2.95566 4.439239,4.703176 7.694143,4.350616 z"
       id="path5057" />
    <path
       style="font-size:medium;font-style:normal;font-variant:normal;font-weight:normal;font-stretch:normal;text-indent:0;text-align:start;text-decoration:none;line-height:normal;letter-spacing:normal;word-spacing:normal;text-transform:none;direction:ltr;block-progression:tb;writing-mode:lr-tb;text-anchor:start;baseline-shift:baseline;color:#000000;fill:#000000;fill-opacity:1;stroke:none;stroke-width:1px;marker:none;visibility:visible;display:inline;overflow:visible;enable-background:accumulate;font-family:Sans;-inkscape-font-specification:Sans"
       d="m 49.125,105.75 0,1 54.375,0 0,-1 -54.375,0 z"
       id="path3992" />
    <path
       style="font-size:12px;fill-rule:evenodd;stroke-width:0.625;stroke-linejoin:round"
       d="m 59.82433,110.68711 -12.018465,-4.4195 12.018465,-4.41949 c -1.920048,2.60927 -1.908985,6.1792 0,8.83899 z"
       id="path5045" />
    <path
       style="font-size:12px;fill-rule:evenodd;stroke-width:0.625;stroke-linejoin:round"
       d="m 92.809553,101.81289 12.018467,4.4195 -12.018467,4.41949 c 1.920048,-2.60927 1.908985,-6.1792 0,-8.83899 z"
       id="path5047" />
    <path
       style="font-size:medium;font-style:normal;font-variant:normal;font-weight:normal;font-stretch:normal;text-indent:0;text-align:start;text-decoration:none;line-height:normal;letter-spacing:normal;word-spacing:normal;text-transform:none;direction:ltr;block-progression:tb;writing-mode:lr-tb;text-anchor:start;baseline-shift:baseline;color:#000000;fill:#000000;fill-opacity:1;stroke:none;stroke-width:1px;marker:none;visibility:visible;display:inline;overflow:visible;enable-background:accumulate;font-family:Sans;-inkscape-font-specification:Sans"
       d="m 80.1875,53.25 -0.875,0.5 27.25,47.25 0.875,-0.5 -27.25,-47.25 z"
       id="path3994" />
    <path
       style="font-size:12px;fill-rule:evenodd;stroke-width:0.625;stroke-linejoin:round"
       d="m 105.50286,89.272538 2.17586,12.619072 -9.832742,-8.203202 c 3.219542,0.359701 6.306512,-1.433385 7.656882,-4.41587 z"
       id="path5065" />
    <path
       style="font-size:12px;fill-rule:evenodd;stroke-width:0.625;stroke-linejoin:round"
       d="m 81.247144,64.977462 -2.175868,-12.619074 9.832746,8.203204 c -3.219546,-0.359701 -6.306513,1.433385 -7.656878,4.41587 z"
       id="path5067" />
    <path
       style="font-size:medium;font-style:normal;font-variant:normal;font-weight:normal;font-stretch:normal;text-indent:0;text-align:start;text-decoration:none;line-height:normal;letter-spacing:normal;word-spacing:normal;text-transform:none;direction:ltr;block-progression:tb;writing-mode:lr-tb;text-anchor:start;baseline-shift:baseline;color:#000000;fill:#000000;fill-opacity:1;stroke:none;stroke-width:1px;marker:none;visibility:visible;display:inline;overflow:visible;enable-background:accumulate;font-family:Sans;-inkscape-font-specification:Sans"
       d="M 75,4.5 C 51.722402,4.4823642 30.24337,23.691871 16.5625,48.21875 2.8816305,72.745629 -3.0559728,102.67 5.0625,124.4375 9.4651171,136.24193 21.040583,142.26784 34.5,145.375 c 13.459417,3.10716 28.878571,3.32049 41.25,3.375 12.136994,0.0535 27.28849,-0.009 40.53125,-2.9375 13.24276,-2.9282 24.65039,-8.74911 29.03125,-20.3125 8.29662,-21.8991 2.36633,-52.092533 -11.40625,-76.84375 C 120.13367,23.905033 98.462312,4.5177758 75,4.5 z m 0,1 c 22.909658,0.017357 44.36774,19.101052 58.03125,43.65625 13.66351,24.555198 19.47595,54.50364 11.34375,75.96875 -4.2166,11.1298 -15.2245,16.82477 -28.3125,19.71875 -13.088,2.89398 -28.182524,2.9597 -40.3125,2.90625 C 63.386016,147.6955 48.023888,147.47779 34.71875,144.40625 21.413612,141.33471 10.241249,135.43427 6,124.0625 -1.9572542,102.72727 3.8658053,73.018652 17.4375,48.6875 31.009195,24.356348 52.274628,5.4827826 75,5.5 z"
       id="path5106"
       inkscape:connector-curvature="0" />
  </g>
</svg>
