<?xml version="1.0" encoding="UTF-8" standalone="no"?>
<!-- Created with Inkscape (http://www.inkscape.org/) -->

<svg
   xmlns:dc="http://purl.org/dc/elements/1.1/"
   xmlns:cc="http://creativecommons.org/ns#"
   xmlns:rdf="http://www.w3.org/1999/02/22-rdf-syntax-ns#"
   xmlns:svg="http://www.w3.org/2000/svg"
   xmlns="http://www.w3.org/2000/svg"
   xmlns:sodipodi="http://sodipodi.sourceforge.net/DTD/sodipodi-0.dtd"
   xmlns:inkscape="http://www.inkscape.org/namespaces/inkscape"
   width="190"
   height="60"
   id="svg2"
   version="1.1"
   inkscape:version="0.48.0 r9654"
   sodipodi:docname="2011-(02)feb-16, 03.svg">
  <defs
     id="defs4" />
  <sodipodi:namedview
     id="base"
     pagecolor="#ffffff"
     bordercolor="#666666"
     borderopacity="1.0"
     inkscape:pageopacity="0.0"
     inkscape:pageshadow="2"
     inkscape:zoom="1.5449523"
     inkscape:cx="196.21874"
     inkscape:cy="-112.47109"
     inkscape:document-units="px"
     inkscape:current-layer="layer1"
     showgrid="false"
     inkscape:window-width="1589"
     inkscape:window-height="1117"
     inkscape:window-x="1600"
     inkscape:window-y="27"
     inkscape:window-maximized="1" />
  <metadata
     id="metadata7">
    <rdf:RDF>
      <cc:Work
         rdf:about="">
        <dc:format>image/svg+xml</dc:format>
        <dc:type
           rdf:resource="http://purl.org/dc/dcmitype/StillImage" />
        <dc:title />
      </cc:Work>
    </rdf:RDF>
  </metadata>
  <g
     inkscape:label="Layer 1"
     inkscape:groupmode="layer"
     id="layer1">
    <path
       style="font-size:medium;font-style:normal;font-variant:normal;font-weight:normal;font-stretch:normal;text-indent:0;text-align:start;text-decoration:none;line-height:normal;letter-spacing:normal;word-spacing:normal;text-transform:none;direction:ltr;block-progression:tb;writing-mode:lr-tb;text-anchor:start;baseline-shift:baseline;color:#000000;fill:#000000;fill-opacity:1;stroke:none;stroke-width:1;marker:none;visibility:visible;display:inline;overflow:visible;enable-background:accumulate;font-family:Sans;-inkscape-font-specification:Sans"
       d="m 17.337282,14.68814 c -3.583928,0 -6.5,2.916072 -6.5,6.5 0,3.583928 2.916072,6.5 6.5,6.5 3.583928,0 6.5,-2.916072 6.5,-6.5 0,-3.583928 -2.916072,-6.5 -6.5,-6.5 z"
       id="path3004"
       inkscape:connector-curvature="0" />
    <path
       style="font-size:medium;font-style:normal;font-variant:normal;font-weight:normal;font-stretch:normal;text-indent:0;text-align:start;text-decoration:none;line-height:normal;letter-spacing:normal;word-spacing:normal;text-transform:none;direction:ltr;block-progression:tb;writing-mode:lr-tb;text-anchor:start;baseline-shift:baseline;color:#000000;fill:#000000;fill-opacity:1;stroke:none;stroke-width:1;marker:none;visibility:visible;display:inline;overflow:visible;enable-background:accumulate;font-family:Sans;-inkscape-font-specification:Sans"
       d="m 94.647461,14.355478 c -3.58393,0 -6.500002,2.916072 -6.500002,6.5 0,3.583928 2.916072,6.5 6.500002,6.5 3.58393,0 6.499999,-2.916072 6.499999,-6.5 0,-3.583928 -2.916069,-6.5 -6.499999,-6.5 z"
       id="path3004-4"
       inkscape:connector-curvature="0" />
    <path
       style="font-size:medium;font-style:normal;font-variant:normal;font-weight:normal;font-stretch:normal;text-indent:0;text-align:start;text-decoration:none;line-height:normal;letter-spacing:normal;word-spacing:normal;text-transform:none;direction:ltr;block-progression:tb;writing-mode:lr-tb;text-anchor:start;baseline-shift:baseline;color:#000000;fill:#000000;fill-opacity:1;stroke:none;stroke-width:1;marker:none;visibility:visible;display:inline;overflow:visible;enable-background:accumulate;font-family:Sans;-inkscape-font-specification:Sans"
       d="m 173.46386,14.596485 c -3.58393,0 -6.5,2.916072 -6.5,6.5 0,3.583928 2.91607,6.5 6.5,6.5 3.58393,0 6.5,-2.916072 6.5,-6.5 0,-3.583928 -2.91607,-6.5 -6.5,-6.5 z"
       id="path3004-4-4"
       inkscape:connector-curvature="0" />
    <path
       style="font-size:medium;font-style:normal;font-variant:normal;font-weight:normal;font-stretch:normal;text-indent:0;text-align:start;text-decoration:none;line-height:normal;letter-spacing:normal;word-spacing:normal;text-transform:none;direction:ltr;block-progression:tb;writing-mode:lr-tb;text-anchor:start;baseline-shift:baseline;color:#000000;fill:#000000;fill-opacity:1;stroke:none;stroke-width:1px;marker:none;visibility:visible;display:inline;overflow:visible;enable-background:accumulate;font-family:Sans;-inkscape-font-specification:Sans"
       d="M 58.25,12.1875 C 47.611752,11.900661 34.993579,12.491912 21.875,15.125 l 0.1875,0.96875 C 56.797862,9.1218612 88,16.5625 88,16.5625 l 0.21875,-1 c 0,0 -12.238337,-2.896935 -29.96875,-3.375 z"
       id="path3006" />
    <path
       style="font-size:12px;fill-rule:evenodd;stroke-width:0.625;stroke-linejoin:round"
       d="M 78.734562,9.2671992 89.400936,16.35267 76.685307,17.865353 c 2.472673,-2.093024 3.289573,-5.56825 2.049255,-8.5981538 z"
       id="path4980" />
    <path
       style="font-size:medium;font-style:normal;font-variant:normal;font-weight:normal;font-stretch:normal;text-indent:0;text-align:start;text-decoration:none;line-height:normal;letter-spacing:normal;word-spacing:normal;text-transform:none;direction:ltr;block-progression:tb;writing-mode:lr-tb;text-anchor:start;baseline-shift:baseline;color:#000000;fill:#000000;fill-opacity:1;stroke:none;stroke-width:1px;marker:none;visibility:visible;display:inline;overflow:visible;enable-background:accumulate;font-family:Sans;-inkscape-font-specification:Sans"
       d="m 136.1875,12.1875 c -10.63825,-0.286839 -23.25642,0.304412 -36.375,2.9375 L 100,16.09375 c 34.73538,-6.9718888 65.9375,0.46875 65.9375,0.46875 l 0.21875,-1 c 0,0 -12.23833,-2.896935 -29.96875,-3.375 z"
       id="path4220" />
    <path
       style="font-size:12px;fill-rule:evenodd;stroke-width:0.625;stroke-linejoin:round"
       d="m 156.675,9.2671996 10.66638,7.0854704 -12.71563,1.512684 c 2.47267,-2.093025 3.28957,-5.568251 2.04925,-8.5981544 z"
       id="path4972" />
    <path
       style="font-size:medium;font-style:normal;font-variant:normal;font-weight:normal;font-stretch:normal;text-indent:0;text-align:start;text-decoration:none;line-height:normal;letter-spacing:normal;word-spacing:normal;text-transform:none;direction:ltr;block-progression:tb;writing-mode:lr-tb;text-anchor:start;baseline-shift:baseline;color:#000000;fill:#000000;fill-opacity:1;stroke:none;stroke-width:1px;marker:none;visibility:visible;display:inline;overflow:visible;enable-background:accumulate;font-family:Sans;-inkscape-font-specification:Sans"
       d="m 21.5,27.53125 -0.4375,0.875 C 59.079648,48.214967 96.230652,48.464173 123.78125,43.75 c 13.7753,-2.357087 25.15026,-5.956448 33.03125,-8.96875 3.94049,-1.506151 7.03302,-2.855844 9.09375,-3.84375 1.03037,-0.493953 1.79834,-0.905595 2.3125,-1.1875 0.25708,-0.140952 0.4298,-0.258869 0.5625,-0.34375 0.0663,-0.04244 0.12483,-0.07111 0.1875,-0.125 0.0313,-0.02694 0.0773,-0.01564 0.15625,-0.1875 0.0394,-0.08593 -0.0614,-0.529864 -0.0625,-0.53125 -0.001,-0.0014 -0.30511,-0.182841 -0.375,-0.1875 l -0.0625,1 c -0.0633,-0.0042 -0.34481,-0.188886 -0.34375,-0.1875 0.001,0.0014 -0.0996,-0.419149 -0.0625,-0.5 0.0742,-0.161703 0.0848,-0.148522 0.0937,-0.15625 0.018,-0.01545 -0.0142,3.59e-4 -0.0625,0.03125 -0.0966,0.06178 -0.28567,0.177853 -0.53125,0.3125 -0.49116,0.269294 -1.23274,0.668579 -2.25,1.15625 -2.03453,0.975343 -5.0854,2.316246 -9,3.8125 C 148.63955,36.836259 137.32381,40.406001 123.625,42.75 96.227379,47.437998 59.283256,47.218098 21.5,27.53125 z"
       id="path4222" />
    <path
       style="font-size:medium;font-style:normal;font-variant:normal;font-weight:normal;font-stretch:normal;text-indent:0;text-align:start;text-decoration:none;line-height:normal;letter-spacing:normal;word-spacing:normal;text-transform:none;direction:ltr;block-progression:tb;writing-mode:lr-tb;text-anchor:start;baseline-shift:baseline;color:#000000;fill:#000000;fill-opacity:1;stroke:none;stroke-width:1px;marker:none;visibility:visible;display:inline;overflow:visible;enable-background:accumulate;font-family:Sans;-inkscape-font-specification:Sans"
       d="m 169.3125,28.40625 -4.375,1.90625 0.40625,0.90625 4.375,-1.90625 -0.40625,-0.90625 z"
       id="path4770" />
    <path
       style="font-size:12px;fill-rule:evenodd;stroke-width:0.625;stroke-linejoin:round"
       d="m 157.94543,29.062064 12.78337,-0.749025 -9.25273,8.852254 c 0.71798,-3.159013 -0.71813,-6.427362 -3.53064,-8.103229 z"
       id="path4960" />
  </g>
</svg>
