<?xml version="1.0" encoding="UTF-8" standalone="no"?>
<!-- Created with Inkscape (http://www.inkscape.org/) -->

<svg
   xmlns:dc="http://purl.org/dc/elements/1.1/"
   xmlns:cc="http://creativecommons.org/ns#"
   xmlns:rdf="http://www.w3.org/1999/02/22-rdf-syntax-ns#"
   xmlns:svg="http://www.w3.org/2000/svg"
   xmlns="http://www.w3.org/2000/svg"
   xmlns:sodipodi="http://sodipodi.sourceforge.net/DTD/sodipodi-0.dtd"
   xmlns:inkscape="http://www.inkscape.org/namespaces/inkscape"
   width="170"
   height="150"
   id="svg2"
   version="1.1"
   inkscape:version="0.48.0 r9654"
   sodipodi:docname="2011-(02)feb-23, 08.svg">
  <defs
     id="defs4" />
  <sodipodi:namedview
     id="base"
     pagecolor="#ffffff"
     bordercolor="#666666"
     borderopacity="1.0"
     inkscape:pageopacity="0.0"
     inkscape:pageshadow="2"
     inkscape:zoom="1.7578125"
     inkscape:cx="128.33658"
     inkscape:cy="26.330331"
     inkscape:document-units="px"
     inkscape:current-layer="layer1"
     showgrid="false"
     inkscape:window-width="1589"
     inkscape:window-height="1117"
     inkscape:window-x="1600"
     inkscape:window-y="27"
     inkscape:window-maximized="1"
     showguides="true"
     inkscape:guide-bbox="true" />
  <metadata
     id="metadata7">
    <rdf:RDF>
      <cc:Work
         rdf:about="">
        <dc:format>image/svg+xml</dc:format>
        <dc:type
           rdf:resource="http://purl.org/dc/dcmitype/StillImage" />
        <dc:title></dc:title>
      </cc:Work>
    </rdf:RDF>
  </metadata>
  <g
     inkscape:label="Layer 1"
     inkscape:groupmode="layer"
     id="layer1">
    <path
       style="font-size:medium;font-style:normal;font-variant:normal;font-weight:normal;font-stretch:normal;text-indent:0;text-align:start;text-decoration:none;line-height:normal;letter-spacing:normal;word-spacing:normal;text-transform:none;direction:ltr;block-progression:tb;writing-mode:lr-tb;text-anchor:start;baseline-shift:baseline;color:#000000;fill:#000000;fill-opacity:1;stroke:none;stroke-width:1;marker:none;visibility:visible;display:inline;overflow:visible;enable-background:accumulate;font-family:Sans;-inkscape-font-specification:Sans"
       d="m 49.296506,111.32116 c 0.265518,2.57996 2.559736,4.44602 5.139698,4.1805 2.57996,-0.26552 4.44602,-2.55973 4.180502,-5.1397 -0.26552,-2.57996 -2.559737,-4.44601 -5.139698,-4.1805 -2.579961,0.26552 -4.446021,2.55974 -4.180502,5.1397 z"
       id="path3003"
       inkscape:connector-curvature="0"
       inkscape:transform-center-x="30.475504"
       inkscape:transform-center-y="17.825706" />
    <path
       style="font-size:medium;font-style:normal;font-variant:normal;font-weight:normal;font-stretch:normal;text-indent:0;text-align:start;text-decoration:none;line-height:normal;letter-spacing:normal;word-spacing:normal;text-transform:none;direction:ltr;block-progression:tb;writing-mode:lr-tb;text-anchor:start;baseline-shift:baseline;color:#000000;fill:#000000;fill-opacity:1;stroke:none;stroke-width:1;marker:none;visibility:visible;display:inline;overflow:visible;enable-background:accumulate;font-family:Sans;-inkscape-font-specification:Sans"
       d="m 17.888569,115.37106 c -0.982401,-6.94523 2.192397,-14.13609 8.580113,-17.972817 8.516953,-5.115639 19.585474,-2.325702 24.701113,6.191257 l -0.859902,0.49688 C 45.472528,96.032722 35.019234,93.420772 26.965572,98.258137 18.91191,103.0955 16.299959,113.5488 21.137326,121.60246 c 4.837365,8.05366 15.29066,10.66561 23.344321,5.82824 3.398683,-2.04139 5.966386,-5.20714 7.2784,-8.94839 l 0.943078,0.31134 c -1.38912,3.96112 -4.126161,7.33559 -7.724585,9.49695 -8.516954,5.11564 -19.585475,2.3257 -24.701113,-6.19125 -1.278909,-2.12924 -2.061393,-4.41321 -2.38886,-6.72829 z"
       id="path3014"
       inkscape:connector-curvature="0"
       inkscape:transform-center-y="19.828566"
       inkscape:transform-center-x="49.224116" />
    <g
       id="g4994"
       inkscape:transform-center-x="38.344319"
       inkscape:transform-center-y="6.3910632"
       transform="matrix(0.10237505,0.99474587,0.99474587,-0.10237505,-1.6761731,40.040713)">
      <path
         style="font-size:medium;font-style:normal;font-variant:normal;font-weight:normal;font-stretch:normal;text-indent:0;text-align:start;text-decoration:none;line-height:normal;letter-spacing:normal;word-spacing:normal;text-transform:none;direction:ltr;block-progression:tb;writing-mode:lr-tb;text-anchor:start;baseline-shift:baseline;color:#000000;fill:#000000;fill-opacity:1;stroke:none;stroke-width:1px;marker:none;visibility:visible;display:inline;overflow:visible;enable-background:accumulate;font-family:Sans;-inkscape-font-specification:Sans"
         d="m 68.625,44.71875 -0.65625,0.75 0.875,0.78125 0.6875,-0.71875 -0.90625,-0.8125 z"
         id="path3016"
         inkscape:connector-curvature="0" />
      <path
         inkscape:connector-curvature="0"
         d="m 64.21718,35.436885 5.974922,11.325888 -11.888965,-4.756885 c 3.172775,-0.654491 5.553143,-3.315012 5.914043,-6.569003 z"
         style="font-size:12px;fill-rule:evenodd;stroke-width:0.625;stroke-linejoin:round"
         id="path5000" />
    </g>
    <path
       inkscape:connector-curvature="0"
       id="path3974"
       d="m 126.14512,106.62553 c -0.19055,-2.58656 -2.42966,-4.5184 -5.01625,-4.32785 -2.58657,0.19055 -4.51841,2.42966 -4.32785,5.01625 0.19055,2.58657 2.42967,4.5184 5.01625,4.32785 2.58658,-0.19055 4.51841,-2.42966 4.32785,-5.01625 z"
       style="font-size:medium;font-style:normal;font-variant:normal;font-weight:normal;font-stretch:normal;text-indent:0;text-align:start;text-decoration:none;line-height:normal;letter-spacing:normal;word-spacing:normal;text-transform:none;direction:ltr;block-progression:tb;writing-mode:lr-tb;text-anchor:start;baseline-shift:baseline;color:#000000;fill:#000000;fill-opacity:1;stroke:none;stroke-width:1;marker:none;visibility:visible;display:inline;overflow:visible;enable-background:accumulate;font-family:Sans;-inkscape-font-specification:Sans"
       inkscape:transform-center-x="-37.04096"
       inkscape:transform-center-y="13.953874" />
    <path
       style="font-size:medium;font-style:normal;font-variant:normal;font-weight:normal;font-stretch:normal;text-indent:0;text-align:start;text-decoration:none;line-height:normal;letter-spacing:normal;word-spacing:normal;text-transform:none;direction:ltr;block-progression:tb;writing-mode:lr-tb;text-anchor:start;baseline-shift:baseline;color:#000000;fill:#000000;fill-opacity:1;stroke:none;stroke-width:1;marker:none;visibility:visible;display:inline;overflow:visible;enable-background:accumulate;font-family:Sans;-inkscape-font-specification:Sans"
       d="m 157.65734,103.48857 c 0.78049,6.9708 -2.6016,14.06654 -9.09794,17.71632 -8.6618,4.86639 -19.64471,1.75649 -24.51108,-6.9053 l 0.87396,-0.4717 c 4.60167,8.19062 14.97477,11.10474 23.16539,6.50308 8.19062,-4.60167 11.10476,-14.97479 6.50308,-23.165399 -4.60167,-8.190617 -14.97478,-11.104756 -23.1654,-6.503086 -3.45648,1.941931 -6.11495,5.03185 -7.53495,8.733472 l -0.93365,-0.338579 c 1.50346,-3.91915 4.33725,-7.212787 7.99686,-9.268842 8.6618,-4.86639 19.64471,-1.756495 24.5111,6.905298 1.2166,2.16545 1.93247,4.471166 2.19264,6.794756 z"
       id="path3976"
       inkscape:connector-curvature="0"
       inkscape:transform-center-x="-55.930253"
       inkscape:transform-center-y="12.480857" />
    <g
       id="g5019"
       inkscape:transform-center-x="-44.66981"
       inkscape:transform-center-y="25.525996"
       transform="matrix(0.90042063,0.43502034,0.43502034,-0.90042063,-23.858942,154.88035)">
      <path
         style="font-size:medium;font-style:normal;font-variant:normal;font-weight:normal;font-stretch:normal;text-indent:0;text-align:start;text-decoration:none;line-height:normal;letter-spacing:normal;word-spacing:normal;text-transform:none;direction:ltr;block-progression:tb;writing-mode:lr-tb;text-anchor:start;baseline-shift:baseline;color:#000000;fill:#000000;fill-opacity:1;stroke:none;stroke-width:1px;marker:none;visibility:visible;display:inline;overflow:visible;enable-background:accumulate;font-family:Sans;-inkscape-font-specification:Sans"
         d="m 116.375,100.625 -1.125,0.375 0.3125,0.9375 1.125,-0.375 -0.3125,-0.9375 z"
         id="path3978"
         inkscape:connector-curvature="0" />
      <path
         inkscape:connector-curvature="0"
         d="m 126.93125,102.37792 -12.79597,-0.4885 10.06406,-7.917707 c -1.01958,3.07495 0.0943,6.466667 2.73191,8.406207 z"
         style="font-size:12px;fill-rule:evenodd;stroke-width:0.625;stroke-linejoin:round"
         id="path5025" />
    </g>
    <path
       inkscape:transform-center-y="-42.55584"
       inkscape:transform-center-x="0.19861621"
       style="font-size:medium;font-style:normal;font-variant:normal;font-weight:normal;font-stretch:normal;text-indent:0;text-align:start;text-decoration:none;line-height:normal;letter-spacing:normal;word-spacing:normal;text-transform:none;direction:ltr;block-progression:tb;writing-mode:lr-tb;text-anchor:start;baseline-shift:baseline;color:#000000;fill:#000000;fill-opacity:1;stroke:none;stroke-width:1;marker:none;visibility:visible;display:inline;overflow:visible;enable-background:accumulate;font-family:Sans;-inkscape-font-specification:Sans"
       d="m 83.958976,45.783355 c -2.589131,0.151976 -4.554126,2.362043 -4.402144,4.951183 0.151977,2.589132 2.362052,4.554122 4.951192,4.402139 2.589129,-0.151982 4.55411,-2.362051 4.402131,-4.951186 -0.151977,-2.589132 -2.362044,-4.554127 -4.951179,-4.402136 z"
       id="path3980"
       inkscape:connector-curvature="0" />
    <path
       style="font-size:medium;font-style:normal;font-variant:normal;font-weight:normal;font-stretch:normal;text-indent:0;text-align:start;text-decoration:none;line-height:normal;letter-spacing:normal;word-spacing:normal;text-transform:none;direction:ltr;block-progression:tb;writing-mode:lr-tb;text-anchor:start;baseline-shift:baseline;color:#000000;fill:#000000;fill-opacity:1;stroke:none;stroke-width:1;marker:none;visibility:visible;display:inline;overflow:visible;enable-background:accumulate;font-family:Sans;-inkscape-font-specification:Sans"
       d="m 81.292007,14.227891 c 6.981671,-0.676513 14.026201,2.810958 17.578755,9.360973 4.736758,8.73336 1.463518,19.668704 -7.269831,24.405453 l -0.45866,-0.880885 C 99.400561,42.634337 102.46897,32.305813 97.989877,24.047524 93.510795,15.789237 83.182264,12.720831 74.923977,17.199913 66.665682,21.679 63.597279,32.007529 68.076362,40.265815 c 1.8902,3.485044 4.940157,6.189269 8.620191,7.664284 l -0.352448,0.9285 c -3.896312,-1.56171 -7.147344,-4.444269 -9.148627,-8.134125 -4.736749,-8.733351 -1.463512,-19.668697 7.26984,-24.405446 2.183341,-1.184187 4.499469,-1.865639 6.826689,-2.091137 z"
       id="path3982"
       inkscape:connector-curvature="0"
       inkscape:transform-center-x="1.3989878"
       inkscape:transform-center-y="-61.514128" />
    <g
       id="g5011"
       inkscape:transform-center-x="-11.440337"
       inkscape:transform-center-y="-50.058918"
       transform="matrix(0.54988964,0.83523732,0.83523732,-0.54988964,-28.215626,73.479485)">
      <path
         style="font-size:medium;font-style:normal;font-variant:normal;font-weight:normal;font-stretch:normal;text-indent:0;text-align:start;text-decoration:none;line-height:normal;letter-spacing:normal;word-spacing:normal;text-transform:none;direction:ltr;block-progression:tb;writing-mode:lr-tb;text-anchor:start;baseline-shift:baseline;color:#000000;fill:#000000;fill-opacity:1;stroke:none;stroke-width:1px;marker:none;visibility:visible;display:inline;overflow:visible;enable-background:accumulate;font-family:Sans;-inkscape-font-specification:Sans"
         d="m 43.6875,113.59375 -0.25,1.15625 0.96875,0.21875 0.25,-1.1875 -0.96875,-0.1875 z"
         id="path3984"
         inkscape:connector-curvature="0" />
      <path
         inkscape:connector-curvature="0"
         d="m 37.601581,123.21939 6.821035,-10.83739 1.824911,12.67459 c -2.153195,-2.42046 -5.647459,-3.15165 -8.645946,-1.8372 z"
         style="font-size:12px;fill-rule:evenodd;stroke-width:0.625;stroke-linejoin:round"
         id="path5017" />
    </g>
    <path
       style="font-size:medium;font-style:normal;font-variant:normal;font-weight:normal;font-stretch:normal;text-indent:0;text-align:start;text-decoration:none;line-height:normal;letter-spacing:normal;word-spacing:normal;text-transform:none;direction:ltr;block-progression:tb;writing-mode:lr-tb;text-anchor:start;baseline-shift:baseline;color:#000000;fill:#000000;fill-opacity:1;stroke:none;stroke-width:1px;marker:none;visibility:visible;display:inline;overflow:visible;enable-background:accumulate;font-family:Sans;-inkscape-font-specification:Sans"
       d="m 60.355038,111.17346 -0.06353,-1.00578 54.449452,-3.22207 0.0635,1.00578 -54.449453,3.22207 z"
       id="path3994"
       inkscape:connector-curvature="0"
       inkscape:transform-center-x="-3.1158963"
       inkscape:transform-center-y="16.04368" />
    <path
       style="font-size:12px;fill-rule:evenodd;stroke-width:0.625;stroke-linejoin:round"
       d="m 104.36306,112.50937 11.7364,-5.12174 -12.25854,-3.70181 c 2.07083,2.49128 2.27067,6.05563 0.52214,8.82355 z"
       id="path5065"
       inkscape:connector-curvature="0"
       inkscape:transform-center-x="-25.53808"
       inkscape:transform-center-y="15.081737" />
    <path
       style="font-size:12px;fill-rule:evenodd;stroke-width:0.625;stroke-linejoin:round"
       d="m 70.73294,105.6097 -11.736409,5.12173 12.258547,3.70182 c -2.070831,-2.49129 -2.270669,-6.05564 -0.522138,-8.82355 z"
       id="path5067"
       inkscape:connector-curvature="0"
       inkscape:transform-center-x="19.306305"
       inkscape:transform-center-y="17.00562" />
    <path
       style="font-size:medium;font-style:normal;font-variant:normal;font-weight:normal;font-stretch:normal;text-indent:0;text-align:start;text-decoration:none;line-height:normal;letter-spacing:normal;word-spacing:normal;text-transform:none;direction:ltr;block-progression:tb;writing-mode:lr-tb;text-anchor:start;baseline-shift:baseline;color:#000000;fill:#000000;fill-opacity:1;stroke:none;stroke-width:1;marker:none;visibility:visible;display:inline;overflow:visible;enable-background:accumulate;font-family:Sans;-inkscape-font-specification:Sans"
       d="m 61.601469,52.884153 c -9.066723,-13.77161 -5.272954,-32.296757 8.498661,-41.363484 13.77161,-9.0667234 32.31394,-5.2468483 41.38067,8.524762 9.06672,13.771611 5.24685,32.313947 -8.52476,41.38067 -13.771618,9.066727 -32.287847,5.229664 -41.354571,-8.541948 z m 0.835237,-0.54989 C 71.206248,65.654479 89.085925,69.36041 102.40615,60.590864 115.72636,51.821323 119.4151,33.915536 110.64556,20.59532 101.87602,7.275106 83.970234,3.5863652 70.650019,12.355906 57.329797,21.125453 53.667165,39.014049 62.436706,52.334263 z"
       id="path3017"
       inkscape:connector-curvature="0"
       inkscape:transform-center-x="-2.1050329"
       inkscape:transform-center-y="-56.545093" />
    <path
       style="font-size:medium;font-style:normal;font-variant:normal;font-weight:normal;font-stretch:normal;text-indent:0;text-align:start;text-decoration:none;line-height:normal;letter-spacing:normal;word-spacing:normal;text-transform:none;direction:ltr;block-progression:tb;writing-mode:lr-tb;text-anchor:start;baseline-shift:baseline;color:#000000;fill:#000000;fill-opacity:1;stroke:none;stroke-width:1px;marker:none;visibility:visible;display:inline;overflow:visible;enable-background:accumulate;font-family:Sans;-inkscape-font-specification:Sans"
       d="M 10.172522,124.45692 C 9.9536263,124.13393 9.7632058,123.80888 9.5628136,123.47399 7.9596748,120.79487 6.9578182,117.72467 6.7038507,114.24412 6.1508556,106.66548 9.0846115,100.29871 14.190236,95.097839 19.29586,89.89697 26.568315,85.815869 34.829757,82.63197 51.35265,76.26419 71.80846,73.503764 86.742662,72.886098 c 14.219298,-0.588095 33.871378,0.424967 50.058708,5.168577 8.09366,2.371803 15.34113,5.662533 20.5954,10.198957 5.25427,4.536425 8.49951,10.359734 8.5571,17.600738 0.0594,7.46575 -3.19045,13.38963 -8.53721,18.00479 -5.34676,4.61515 -12.77098,7.97606 -21.07851,10.43518 -16.61505,4.91822 -36.857788,6.27544 -51.497512,6.85338 -13.66809,0.53957 -32.593815,0.73651 -48.417951,-2.61958 -7.912067,-1.67804 -15.066861,-4.22062 -20.390683,-8.12628 -2.329171,-1.70873 -4.327224,-3.68398 -5.859482,-5.94494 z m 0.852422,-0.52379 c 1.458421,2.15157 3.348947,4.01389 5.601071,5.66609 5.14771,3.77647 12.164308,6.31632 19.992848,7.97664 15.657079,3.32066 34.559865,3.11352 48.201525,2.575 14.613316,-0.57689 34.794762,-1.96775 51.246072,-6.8375 8.22566,-2.43488 15.51475,-5.7485 20.6959,-10.2207 5.18116,-4.47221 8.25169,-10.04635 8.19465,-17.21805 -0.0553,-6.946916 -3.12303,-12.457315 -8.21472,-16.853362 C 151.6506,84.625202 144.54304,81.361692 136.5358,79.015216 120.52133,74.322262 100.93938,73.30734 86.806197,73.891876 71.958098,74.50598 51.551752,77.284489 35.196938,83.587496 27.019535,86.739006 19.852121,90.782141 14.896732,95.829972 9.9413442,100.8778 7.1780064,106.89487 7.7096281,114.18058 c 0.2432801,3.33409 1.1964247,6.24721 2.7227909,8.79573 0.190795,0.31856 0.384179,0.64946 0.592525,0.95682 z"
       id="path3028"
       inkscape:connector-curvature="0"
       inkscape:transform-center-x="-1.8639258"
       inkscape:transform-center-y="14.079455" />
  </g>
</svg>
