<?xml version="1.0" encoding="UTF-8" standalone="no"?>
<!-- Created with Inkscape (http://www.inkscape.org/) -->

<svg
   xmlns:dc="http://purl.org/dc/elements/1.1/"
   xmlns:cc="http://creativecommons.org/ns#"
   xmlns:rdf="http://www.w3.org/1999/02/22-rdf-syntax-ns#"
   xmlns:svg="http://www.w3.org/2000/svg"
   xmlns="http://www.w3.org/2000/svg"
   xmlns:xlink="http://www.w3.org/1999/xlink"
   xmlns:sodipodi="http://sodipodi.sourceforge.net/DTD/sodipodi-0.dtd"
   xmlns:inkscape="http://www.inkscape.org/namespaces/inkscape"
   width="200"
   height="170"
   id="svg2"
   version="1.1"
   inkscape:version="0.48.0 r9654"
   sodipodi:docname="2011-(01)jan-14 - 04.svg">
  <defs
     id="defs4" />
  <sodipodi:namedview
     id="base"
     pagecolor="#ffffff"
     bordercolor="#666666"
     borderopacity="1.0"
     inkscape:pageopacity="0.0"
     inkscape:pageshadow="2"
     inkscape:zoom="1.7578125"
     inkscape:cx="60.028487"
     inkscape:cy="70.503094"
     inkscape:document-units="px"
     inkscape:current-layer="layer1"
     showgrid="false"
     inkscape:window-width="1589"
     inkscape:window-height="1117"
     inkscape:window-x="1600"
     inkscape:window-y="27"
     inkscape:window-maximized="1" />
  <metadata
     id="metadata7">
    <rdf:RDF>
      <cc:Work
         rdf:about="">
        <dc:format>image/svg+xml</dc:format>
        <dc:type
           rdf:resource="http://purl.org/dc/dcmitype/StillImage" />
        <dc:title />
      </cc:Work>
    </rdf:RDF>
  </metadata>
  <g
     inkscape:label="Layer 1"
     inkscape:groupmode="layer"
     id="layer1">
    <path
       style="font-size:12px;font-style:normal;font-weight:normal;line-height:125%;letter-spacing:0px;word-spacing:0px;fill:#000000;fill-opacity:1;stroke:none;font-family:Sans"
       d="m 157.29485,112.28667 0,8.75 1.1875,0 0,-3.53125 1.46875,0 c 0.98047,0 1.71875,-0.21484 2.21875,-0.65625 0.5039,-0.44141 0.75,-1.10547 0.75,-1.96875 0,-0.85547 -0.2461,-1.49609 -0.75,-1.9375 -0.5,-0.44531 -1.23828,-0.65625 -2.21875,-0.65625 l -2.65625,0 z m 1.1875,0.96875 1.46875,0 c 0.55078,0 0.98047,0.15235 1.28125,0.4375 0.30078,0.28516 0.46875,0.66406 0.46875,1.1875 0,0.52735 -0.16797,0.93359 -0.46875,1.21875 -0.30078,0.28516 -0.73047,0.4375 -1.28125,0.4375 l -1.46875,0 0,-3.28125 z"
       id="path3976"
       inkscape:connector-curvature="0" />
    <path
       style="font-size:12px;font-style:normal;font-weight:normal;line-height:125%;letter-spacing:0px;word-spacing:0px;fill:#000000;fill-opacity:1;stroke:none;font-family:Sans"
       d="m 191.2636,114.31792 c -0.35156,0 -0.72265,0.0156 -1.09375,0.0937 -0.37109,0.0742 -0.76172,0.19141 -1.15625,0.34375 l 0,1 c 0.32813,-0.17969 0.67578,-0.3164 1.03125,-0.40625 0.35547,-0.0898 0.71875,-0.125 1.09375,-0.125 0.58984,0 1.05078,0.13281 1.375,0.40625 0.32812,0.26953 0.5,0.66016 0.5,1.15625 l 0,0.0937 -1.53125,0 c -0.98047,0 -1.72265,0.1875 -2.21875,0.5625 -0.49218,0.375 -0.71875,0.94922 -0.71875,1.6875 0,0.63281 0.19922,1.12109 0.59375,1.5 0.39844,0.375 0.92188,0.5625 1.59375,0.5625 0.53125,0 0.97656,-0.0937 1.34375,-0.28125 0.36719,-0.19141 0.69141,-0.47657 0.9375,-0.875 l 0,1 1.0625,0 0,-3.75 c 0,-1 -0.21875,-1.75781 -0.6875,-2.25 -0.46875,-0.49219 -1.17578,-0.71875 -2.125,-0.71875 z m 0.65625,3.40625 1.09375,0 0,0.25 c 0,0.70312 -0.19922,1.26172 -0.5625,1.6875 -0.35938,0.42187 -0.83984,0.625 -1.4375,0.625 -0.43359,0 -0.77734,-0.0898 -1.03125,-0.3125 -0.25,-0.22657 -0.375,-0.55469 -0.375,-0.9375 0,-0.48047 0.16406,-0.80078 0.5,-1 0.33594,-0.19922 0.94141,-0.3125 1.8125,-0.3125 z"
       id="path3986"
       inkscape:connector-curvature="0" />
    <path
       style="font-size:12px;font-style:normal;font-weight:normal;line-height:125%;letter-spacing:0px;word-spacing:0px;fill:#000000;fill-opacity:1;stroke:none;font-family:Sans"
       d="m 186.16985,127.13042 c -0.98047,0 -1.73047,0.37891 -2.25,1.15625 -0.51562,0.77344 -0.78125,1.89844 -0.78125,3.375 0,1.47265 0.26563,2.59765 0.78125,3.375 0.51953,0.77343 1.26953,1.15625 2.25,1.15625 0.98047,0 1.73437,-0.38282 2.25,-1.15625 0.51953,-0.77735 0.78125,-1.90235 0.78125,-3.375 0,-1.47656 -0.26172,-2.60156 -0.78125,-3.375 -0.51563,-0.77734 -1.26953,-1.15625 -2.25,-1.15625 z m 0,0.9375 c 0.61328,0 1.07031,0.30469 1.375,0.90625 0.30859,0.59766 0.46875,1.48438 0.46875,2.6875 0,1.19922 -0.16016,2.11719 -0.46875,2.71875 -0.30469,0.59765 -0.76172,0.875 -1.375,0.875 -0.60937,0 -1.0664,-0.27735 -1.375,-0.875 -0.30469,-0.60156 -0.46875,-1.51953 -0.46875,-2.71875 0,-1.20312 0.16406,-2.08984 0.46875,-2.6875 0.3086,-0.60156 0.76563,-0.90625 1.375,-0.90625 z"
       id="path3996"
       inkscape:connector-curvature="0" />
    <path
       style="font-size:12px;font-style:normal;font-weight:normal;line-height:125%;letter-spacing:0px;word-spacing:0px;fill:#000000;fill-opacity:1;stroke:none;font-family:Sans"
       d="m 67.136455,3.5182114 c -0.98047,9e-6 -1.73047,0.378914 -2.25,1.15625 -0.51562,0.773444 -0.75,1.898443 -0.75,3.375 0,1.472659 0.23438,2.5976576 0.75,3.3749996 0.51953,0.773437 1.26953,1.15625 2.25,1.15625 0.98047,0 1.73437,-0.382813 2.25,-1.15625 0.51953,-0.777342 0.78125,-1.9023406 0.78125,-3.3749996 0,-1.476557 -0.26172,-2.601556 -0.78125,-3.375 -0.51563,-0.777336 -1.26953,-1.156241 -2.25,-1.15625 z m 0,0.9375 c 0.61328,8e-6 1.07031,0.304695 1.375,0.90625 0.30859,0.597662 0.46875,1.48438 0.46875,2.6875 0,1.199221 -0.16016,2.1171896 -0.46875,2.7187496 -0.30469,0.597658 -0.76172,0.875001 -1.375,0.875 -0.60938,10e-7 -1.0664,-0.277342 -1.375,-0.875 -0.30469,-0.60156 -0.4375,-1.5195286 -0.4375,-2.7187496 0,-1.20312 0.13281,-2.089838 0.4375,-2.6875 0.3086,-0.601555 0.76562,-0.906242 1.375,-0.90625 z"
       id="path3117"
       inkscape:connector-curvature="0" />
    <path
       style="font-size:12px;font-style:normal;font-weight:normal;line-height:125%;letter-spacing:0px;word-spacing:0px;fill:#000000;fill-opacity:1;stroke:none;font-family:Sans"
       d="m 63.530555,52.192299 c -0.98047,9e-6 -1.73047,0.378914 -2.25,1.15625 -0.51563,0.773444 -0.75,1.898443 -0.75,3.375 0,1.472658 0.23437,2.597657 0.75,3.374999 0.51953,0.773437 1.26953,1.15625 2.25,1.15625 0.98046,0 1.73437,-0.382813 2.25,-1.15625 0.51952,-0.777342 0.78124,-1.902341 0.78125,-3.374999 -1e-5,-1.476557 -0.26173,-2.601556 -0.78125,-3.375 -0.51563,-0.777336 -1.26954,-1.156241 -2.25,-1.15625 z m 0,0.9375 c 0.61327,8e-6 1.0703,0.304695 1.375,0.90625 0.30859,0.597662 0.46874,1.48438 0.46875,2.6875 -1e-5,1.19922 -0.16016,2.117189 -0.46875,2.718749 -0.3047,0.597658 -0.76173,0.875001 -1.375,0.875 -0.60938,10e-7 -1.06641,-0.277342 -1.375,-0.875 -0.30469,-0.60156 -0.4375,-1.519529 -0.4375,-2.718749 0,-1.20312 0.13281,-2.089838 0.4375,-2.6875 0.30859,-0.601555 0.76562,-0.906242 1.375,-0.90625 z"
       id="path3107"
       inkscape:connector-curvature="0" />
    <path
       style="font-size:12px;font-style:normal;font-weight:normal;line-height:125%;letter-spacing:0px;word-spacing:0px;fill:#000000;fill-opacity:1;stroke:none;font-family:Sans"
       d="m 112.01735,40.928874 c -0.98047,9e-6 -1.73047,0.378914 -2.25,1.15625 -0.51563,0.773444 -0.78125,1.898443 -0.78125,3.375 0,1.472659 0.26562,2.597658 0.78125,3.375 0.51953,0.773437 1.26953,1.15625 2.25,1.15625 0.98046,0 1.73437,-0.382813 2.25,-1.15625 0.51952,-0.777342 0.78124,-1.902341 0.78125,-3.375 -10e-6,-1.476557 -0.26173,-2.601556 -0.78125,-3.375 -0.51563,-0.777336 -1.26954,-1.156241 -2.25,-1.15625 z m 0,0.9375 c 0.61327,8e-6 1.07031,0.304695 1.375,0.90625 0.30859,0.597662 0.46874,1.48438 0.46875,2.6875 -10e-6,1.199221 -0.16016,2.11719 -0.46875,2.71875 -0.30469,0.597658 -0.76173,0.875001 -1.375,0.875 -0.60938,10e-7 -1.06641,-0.277342 -1.375,-0.875 -0.30469,-0.60156 -0.46875,-1.519529 -0.46875,-2.71875 0,-1.20312 0.16406,-2.089838 0.46875,-2.6875 0.30859,-0.601555 0.76562,-0.906242 1.375,-0.90625 z"
       id="path3103"
       inkscape:connector-curvature="0" />
    <path
       style="font-size:12px;font-style:normal;font-weight:normal;line-height:125%;letter-spacing:0px;word-spacing:0px;fill:#000000;fill-opacity:1;stroke:none;font-family:Sans"
       d="m 99.356285,87.993899 c -0.98047,9e-6 -1.73047,0.378914 -2.25,1.15625 -0.51562,0.773444 -0.75,1.898443 -0.75,3.375 0,1.472659 0.23438,2.597658 0.75,3.375 0.51953,0.773437 1.26953,1.15625 2.25,1.15625 0.980465,0 1.734365,-0.382813 2.249995,-1.15625 0.51953,-0.777342 0.78125,-1.902341 0.78125,-3.375 0,-1.476557 -0.26172,-2.601556 -0.78125,-3.375 -0.51563,-0.777336 -1.26953,-1.156241 -2.249995,-1.15625 z m 0,0.9375 c 0.61328,8e-6 1.070305,0.304695 1.374995,0.90625 0.30859,0.597662 0.46875,1.48438 0.46875,2.6875 0,1.199221 -0.16016,2.11719 -0.46875,2.71875 -0.30469,0.597658 -0.761715,0.875001 -1.374995,0.875 -0.60938,10e-7 -1.06641,-0.277342 -1.375,-0.875 -0.30469,-0.60156 -0.4375,-1.519529 -0.4375,-2.71875 0,-1.20312 0.13281,-2.089838 0.4375,-2.6875 0.30859,-0.601555 0.76562,-0.906242 1.375,-0.90625 z"
       id="path3091"
       inkscape:connector-curvature="0" />
    <path
       style="font-size:12px;font-style:normal;font-weight:normal;line-height:125%;letter-spacing:0px;word-spacing:0px;fill:#000000;fill-opacity:1;stroke:none;font-family:Sans"
       d="m 141.25856,77.132739 c -1.10547,9e-6 -2,0.39454 -2.65625,1.21875 -0.65625,0.820319 -0.96875,1.929693 -0.96875,3.3125 0,1.472659 0.27735,2.597658 0.8125,3.375 0.53516,0.773437 1.30078,1.15625 2.3125,1.15625 0.88281,0 1.59375,-0.269531 2.125,-0.8125 0.53125,-0.542968 0.78125,-1.25781 0.78125,-2.15625 0,-0.917965 -0.23828,-1.656245 -0.75,-2.1875 -0.50781,-0.535151 -1.21484,-0.781244 -2.09375,-0.78125 -0.41797,6e-6 -0.80859,0.09766 -1.15625,0.28125 -0.34765,0.179693 -0.61328,0.410162 -0.84375,0.75 0.0586,-1.0664 0.27735,-1.847649 0.6875,-2.375 0.41406,-0.527336 1,-0.781242 1.78125,-0.78125 0.29687,8e-6 0.60547,0.01954 0.90625,0.09375 0.30469,0.07423 0.60937,0.203133 0.90625,0.34375 l 0,-1.09375 c -0.32813,-0.117178 -0.63281,-0.1914 -0.9375,-0.25 -0.30078,-0.05858 -0.60938,-0.09374 -0.90625,-0.09375 z m -0.5,4.0625 c 0.53125,5e-6 0.94141,0.167973 1.25,0.53125 0.3125,0.363285 0.46875,0.867191 0.46875,1.5 0,0.628909 -0.15625,1.132814 -0.46875,1.5 -0.30859,0.363282 -0.71875,0.531251 -1.25,0.53125 -0.53125,10e-7 -0.96875,-0.167968 -1.28125,-0.53125 -0.30859,-0.367186 -0.46875,-0.871091 -0.46875,-1.5 0,-0.632809 0.16016,-1.136715 0.46875,-1.5 0.3125,-0.363277 0.75,-0.531245 1.28125,-0.53125 z"
       id="path3087"
       inkscape:connector-curvature="0" />
    <g
       id="g3021"
       transform="translate(3.6486347,-6.1168686)">
      <path
         style="font-size:medium;font-style:normal;font-variant:normal;font-weight:normal;font-stretch:normal;text-indent:0;text-align:start;text-decoration:none;line-height:normal;letter-spacing:normal;word-spacing:normal;text-transform:none;direction:ltr;block-progression:tb;writing-mode:lr-tb;text-anchor:start;baseline-shift:baseline;color:#000000;fill:#000000;fill-opacity:1;stroke:none;stroke-width:1px;marker:none;visibility:visible;display:inline;overflow:visible;enable-background:accumulate;font-family:Sans;-inkscape-font-specification:Sans"
         d="m 55.78125,24.0625 -35.6875,35.71875 0.6875,0.6875 L 56.5,24.78125 55.78125,24.0625 z"
         id="path2995"
         inkscape:connector-curvature="0" />
      <path
         inkscape:connector-curvature="0"
         style="fill-rule:evenodd;stroke:#000000;stroke-width:0.8pt;marker-start:none;marker-end:none"
         d="m 23.206888,57.351987 c 1.561291,1.561292 1.561291,4.095563 0,5.656855 -1.561292,1.561291 -4.095563,1.561291 -5.656855,0 -1.561291,-1.561292 -1.561291,-4.095563 0,-5.656855 1.561292,-1.561291 4.095563,-1.561291 5.656855,0 z"
         id="path3027" />
      <path
         inkscape:connector-curvature="0"
         style="fill-rule:evenodd;stroke:#000000;stroke-width:0.8pt;marker-start:none;marker-end:none"
         d="m 58.91578,21.643094 c 1.561291,1.561292 1.561291,4.095563 0,5.656855 -1.561292,1.561291 -4.095563,1.561291 -5.656855,0 -1.561291,-1.561292 -1.561291,-4.095563 0,-5.656855 1.561292,-1.561291 4.095563,-1.561291 5.656855,0 z"
         id="path3029" />
    </g>
    <g
       id="g3031"
       transform="translate(3.6486347,-6.1168686)">
      <path
         style="font-size:medium;font-style:normal;font-variant:normal;font-weight:normal;font-stretch:normal;text-indent:0;text-align:start;text-decoration:none;line-height:normal;letter-spacing:normal;word-spacing:normal;text-transform:none;direction:ltr;block-progression:tb;writing-mode:lr-tb;text-anchor:start;baseline-shift:baseline;color:#000000;fill:#000000;fill-opacity:1;stroke:none;stroke-width:1px;marker:none;visibility:visible;display:inline;overflow:visible;enable-background:accumulate;font-family:Sans;-inkscape-font-specification:Sans"
         d="m 91.78125,60.0625 -35.6875,35.71875 0.6875,0.6875 L 92.5,60.78125 91.78125,60.0625 z"
         id="path2997"
         inkscape:connector-curvature="0" />
      <path
         inkscape:connector-curvature="0"
         style="fill-rule:evenodd;stroke:#000000;stroke-width:0.8pt;marker-start:none;marker-end:none"
         d="m 59.206888,93.351987 c 1.561291,1.561292 1.561291,4.095563 0,5.656855 -1.561292,1.561288 -4.095563,1.561288 -5.656855,0 -1.561291,-1.561292 -1.561291,-4.095563 0,-5.656855 1.561292,-1.561291 4.095563,-1.561291 5.656855,0 z"
         id="path3037" />
      <path
         inkscape:connector-curvature="0"
         style="fill-rule:evenodd;stroke:#000000;stroke-width:0.8pt;marker-start:none;marker-end:none"
         d="m 94.91578,57.643094 c 1.561291,1.561292 1.561291,4.095563 0,5.656855 -1.561292,1.561291 -4.095563,1.561291 -5.656855,0 -1.561291,-1.561292 -1.561291,-4.095563 0,-5.656855 1.561292,-1.561291 4.095563,-1.561291 5.656855,0 z"
         id="path3039" />
    </g>
    <path
       style="font-size:medium;font-style:normal;font-variant:normal;font-weight:normal;font-stretch:normal;text-indent:0;text-align:start;text-decoration:none;line-height:normal;letter-spacing:normal;word-spacing:normal;text-transform:none;direction:ltr;block-progression:tb;writing-mode:lr-tb;text-anchor:start;baseline-shift:baseline;color:#000000;fill:#000000;fill-opacity:1;stroke:none;stroke-width:1px;marker:none;visibility:visible;display:inline;overflow:visible;enable-background:accumulate;font-family:Sans;-inkscape-font-specification:Sans"
       d="m 60.429885,17.945631 -0.6875,0.71875 35.6875,35.6875 0.71875,-0.6875 -35.71875,-35.71875 z"
       id="path2999"
       inkscape:connector-curvature="0" />
    <path
       style="font-size:medium;font-style:normal;font-variant:normal;font-weight:normal;font-stretch:normal;text-indent:0;text-align:start;text-decoration:none;line-height:normal;letter-spacing:normal;word-spacing:normal;text-transform:none;direction:ltr;block-progression:tb;writing-mode:lr-tb;text-anchor:start;baseline-shift:baseline;color:#000000;fill:#000000;fill-opacity:1;stroke:none;stroke-width:1px;marker:none;visibility:visible;display:inline;overflow:visible;enable-background:accumulate;font-family:Sans;-inkscape-font-specification:Sans"
       d="m 24.429885,53.945631 -0.6875,0.71875 35.6875,35.6875 0.71875,-0.6875 -35.71875,-35.71875 z"
       id="path3001"
       inkscape:connector-curvature="0" />
    <g
       id="g2996"
       transform="translate(39.648635,29.883131)">
      <path
         inkscape:connector-curvature="0"
         id="path2998"
         d="m 91.78125,60.0625 -35.6875,35.71875 0.6875,0.6875 L 92.5,60.78125 91.78125,60.0625 z"
         style="font-size:medium;font-style:normal;font-variant:normal;font-weight:normal;font-stretch:normal;text-indent:0;text-align:start;text-decoration:none;line-height:normal;letter-spacing:normal;word-spacing:normal;text-transform:none;direction:ltr;block-progression:tb;writing-mode:lr-tb;text-anchor:start;baseline-shift:baseline;color:#000000;fill:#000000;fill-opacity:1;stroke:none;stroke-width:1px;marker:none;visibility:visible;display:inline;overflow:visible;enable-background:accumulate;font-family:Sans;-inkscape-font-specification:Sans" />
      <path
         id="path3000"
         d="m 59.206888,93.351987 c 1.561291,1.561292 1.561291,4.095563 0,5.656855 -1.561292,1.561288 -4.095563,1.561288 -5.656855,0 -1.561291,-1.561292 -1.561291,-4.095563 0,-5.656855 1.561292,-1.561291 4.095563,-1.561291 5.656855,0 z"
         style="fill-rule:evenodd;stroke:#000000;stroke-width:0.8pt;marker-start:none;marker-end:none"
         inkscape:connector-curvature="0" />
      <path
         id="path3002"
         d="m 94.91578,57.643094 c 1.561291,1.561292 1.561291,4.095563 0,5.656855 -1.561292,1.561291 -4.095563,1.561291 -5.656855,0 -1.561291,-1.561292 -1.561291,-4.095563 0,-5.656855 1.561292,-1.561291 4.095563,-1.561291 5.656855,0 z"
         style="fill-rule:evenodd;stroke:#000000;stroke-width:0.8pt;marker-start:none;marker-end:none"
         inkscape:connector-curvature="0" />
    </g>
    <path
       id="path3004"
       d="m 96.429885,53.945631 -0.6875,0.71875 35.687495,35.6875 0.71875,-0.6875 -35.718745,-35.71875 z"
       style="font-size:medium;font-style:normal;font-variant:normal;font-weight:normal;font-stretch:normal;text-indent:0;text-align:start;text-decoration:none;line-height:normal;letter-spacing:normal;word-spacing:normal;text-transform:none;direction:ltr;block-progression:tb;writing-mode:lr-tb;text-anchor:start;baseline-shift:baseline;color:#000000;fill:#000000;fill-opacity:1;stroke:none;stroke-width:1px;marker:none;visibility:visible;display:inline;overflow:visible;enable-background:accumulate;font-family:Sans;-inkscape-font-specification:Sans"
       inkscape:connector-curvature="0" />
    <path
       id="path3006"
       d="m 60.429885,89.945631 -0.6875,0.71875 35.6875,35.687499 0.71875,-0.6875 -35.71875,-35.718749 z"
       style="font-size:medium;font-style:normal;font-variant:normal;font-weight:normal;font-stretch:normal;text-indent:0;text-align:start;text-decoration:none;line-height:normal;letter-spacing:normal;word-spacing:normal;text-transform:none;direction:ltr;block-progression:tb;writing-mode:lr-tb;text-anchor:start;baseline-shift:baseline;color:#000000;fill:#000000;fill-opacity:1;stroke:none;stroke-width:1px;marker:none;visibility:visible;display:inline;overflow:visible;enable-background:accumulate;font-family:Sans;-inkscape-font-specification:Sans"
       inkscape:connector-curvature="0" />
    <g
       transform="translate(3.6486347,19.883131)"
       id="g3008">
      <path
         inkscape:connector-curvature="0"
         id="path3010"
         d="m 55.78125,24.0625 -35.6875,35.71875 0.6875,0.6875 L 56.5,24.78125 55.78125,24.0625 z"
         style="font-size:medium;font-style:normal;font-variant:normal;font-weight:normal;font-stretch:normal;text-indent:0;text-align:start;text-decoration:none;line-height:normal;letter-spacing:normal;word-spacing:normal;text-transform:none;direction:ltr;block-progression:tb;writing-mode:lr-tb;text-anchor:start;baseline-shift:baseline;color:#000000;fill:#000000;fill-opacity:1;stroke:none;stroke-width:1px;marker:none;visibility:visible;display:inline;overflow:visible;enable-background:accumulate;font-family:Sans;-inkscape-font-specification:Sans" />
      <path
         id="path3012"
         d="m 23.206888,57.351987 c 1.561291,1.561292 1.561291,4.095563 0,5.656855 -1.561292,1.561291 -4.095563,1.561291 -5.656855,0 -1.561291,-1.561292 -1.561291,-4.095563 0,-5.656855 1.561292,-1.561291 4.095563,-1.561291 5.656855,0 z"
         style="fill-rule:evenodd;stroke:#000000;stroke-width:0.8pt;marker-start:none;marker-end:none"
         inkscape:connector-curvature="0" />
      <path
         id="path3014"
         d="m 58.91578,21.643094 c 1.561291,1.561292 1.561291,4.095563 0,5.656855 -1.561292,1.561291 -4.095563,1.561291 -5.656855,0 -1.561291,-1.561292 -1.561291,-4.095563 0,-5.656855 1.561292,-1.561291 4.095563,-1.561291 5.656855,0 z"
         style="fill-rule:evenodd;stroke:#000000;stroke-width:0.8pt;marker-start:none;marker-end:none"
         inkscape:connector-curvature="0" />
    </g>
    <g
       transform="translate(3.6486347,19.883131)"
       id="g3016">
      <path
         inkscape:connector-curvature="0"
         id="path3018"
         d="m 91.78125,60.0625 -35.6875,35.71875 0.6875,0.6875 L 92.5,60.78125 91.78125,60.0625 z"
         style="font-size:medium;font-style:normal;font-variant:normal;font-weight:normal;font-stretch:normal;text-indent:0;text-align:start;text-decoration:none;line-height:normal;letter-spacing:normal;word-spacing:normal;text-transform:none;direction:ltr;block-progression:tb;writing-mode:lr-tb;text-anchor:start;baseline-shift:baseline;color:#000000;fill:#000000;fill-opacity:1;stroke:none;stroke-width:1px;marker:none;visibility:visible;display:inline;overflow:visible;enable-background:accumulate;font-family:Sans;-inkscape-font-specification:Sans" />
      <path
         id="path3020"
         d="m 59.206888,93.351987 c 1.561291,1.561292 1.561291,4.095563 0,5.656855 -1.561292,1.561288 -4.095563,1.561288 -5.656855,0 -1.561291,-1.561292 -1.561291,-4.095563 0,-5.656855 1.561292,-1.561291 4.095563,-1.561291 5.656855,0 z"
         style="fill-rule:evenodd;stroke:#000000;stroke-width:0.8pt;marker-start:none;marker-end:none"
         inkscape:connector-curvature="0" />
      <path
         id="path3022"
         d="m 94.91578,57.643094 c 1.561291,1.561292 1.561291,4.095563 0,5.656855 -1.561292,1.561291 -4.095563,1.561291 -5.656855,0 -1.561291,-1.561292 -1.561291,-4.095563 0,-5.656855 1.561292,-1.561291 4.095563,-1.561291 5.656855,0 z"
         style="fill-rule:evenodd;stroke:#000000;stroke-width:0.8pt;marker-start:none;marker-end:none"
         inkscape:connector-curvature="0" />
    </g>
    <path
       inkscape:connector-curvature="0"
       id="path3024"
       d="m 60.429885,43.945632 -0.6875,0.71875 35.6875,35.687499 0.71875,-0.6875 -35.71875,-35.718749 z"
       style="font-size:medium;font-style:normal;font-variant:normal;font-weight:normal;font-stretch:normal;text-indent:0;text-align:start;text-decoration:none;line-height:normal;letter-spacing:normal;word-spacing:normal;text-transform:none;direction:ltr;block-progression:tb;writing-mode:lr-tb;text-anchor:start;baseline-shift:baseline;color:#000000;fill:#000000;fill-opacity:1;stroke:none;stroke-width:1px;marker:none;visibility:visible;display:inline;overflow:visible;enable-background:accumulate;font-family:Sans;-inkscape-font-specification:Sans" />
    <path
       inkscape:connector-curvature="0"
       id="path3026"
       d="m 24.429885,79.945631 -0.6875,0.71875 35.6875,35.687499 0.71875,-0.6875 -35.71875,-35.718749 z"
       style="font-size:medium;font-style:normal;font-variant:normal;font-weight:normal;font-stretch:normal;text-indent:0;text-align:start;text-decoration:none;line-height:normal;letter-spacing:normal;word-spacing:normal;text-transform:none;direction:ltr;block-progression:tb;writing-mode:lr-tb;text-anchor:start;baseline-shift:baseline;color:#000000;fill:#000000;fill-opacity:1;stroke:none;stroke-width:1px;marker:none;visibility:visible;display:inline;overflow:visible;enable-background:accumulate;font-family:Sans;-inkscape-font-specification:Sans" />
    <g
       transform="translate(39.648635,55.883132)"
       id="g3028">
      <path
         style="font-size:medium;font-style:normal;font-variant:normal;font-weight:normal;font-stretch:normal;text-indent:0;text-align:start;text-decoration:none;line-height:normal;letter-spacing:normal;word-spacing:normal;text-transform:none;direction:ltr;block-progression:tb;writing-mode:lr-tb;text-anchor:start;baseline-shift:baseline;color:#000000;fill:#000000;fill-opacity:1;stroke:none;stroke-width:1px;marker:none;visibility:visible;display:inline;overflow:visible;enable-background:accumulate;font-family:Sans;-inkscape-font-specification:Sans"
         d="m 91.78125,60.0625 -35.6875,35.71875 0.6875,0.6875 L 92.5,60.78125 91.78125,60.0625 z"
         id="path3030"
         inkscape:connector-curvature="0" />
      <path
         inkscape:connector-curvature="0"
         style="fill-rule:evenodd;stroke:#000000;stroke-width:0.8pt;marker-start:none;marker-end:none"
         d="m 59.206888,93.351987 c 1.561291,1.561292 1.561291,4.095563 0,5.656855 -1.561292,1.561288 -4.095563,1.561288 -5.656855,0 -1.561291,-1.561292 -1.561291,-4.095563 0,-5.656855 1.561292,-1.561291 4.095563,-1.561291 5.656855,0 z"
         id="path3032" />
      <path
         inkscape:connector-curvature="0"
         style="fill-rule:evenodd;stroke:#000000;stroke-width:0.8pt;marker-start:none;marker-end:none"
         d="m 94.91578,57.643094 c 1.561291,1.561292 1.561291,4.095563 0,5.656855 -1.561292,1.561291 -4.095563,1.561291 -5.656855,0 -1.561291,-1.561292 -1.561291,-4.095563 0,-5.656855 1.561292,-1.561291 4.095563,-1.561291 5.656855,0 z"
         id="path3034" />
    </g>
    <path
       inkscape:connector-curvature="0"
       style="font-size:medium;font-style:normal;font-variant:normal;font-weight:normal;font-stretch:normal;text-indent:0;text-align:start;text-decoration:none;line-height:normal;letter-spacing:normal;word-spacing:normal;text-transform:none;direction:ltr;block-progression:tb;writing-mode:lr-tb;text-anchor:start;baseline-shift:baseline;color:#000000;fill:#000000;fill-opacity:1;stroke:none;stroke-width:1px;marker:none;visibility:visible;display:inline;overflow:visible;enable-background:accumulate;font-family:Sans;-inkscape-font-specification:Sans"
       d="m 96.429885,79.945631 -0.6875,0.71875 35.687495,35.687499 0.71875,-0.6875 -35.718745,-35.718749 z"
       id="path3036" />
    <path
       inkscape:connector-curvature="0"
       style="font-size:medium;font-style:normal;font-variant:normal;font-weight:normal;font-stretch:normal;text-indent:0;text-align:start;text-decoration:none;line-height:normal;letter-spacing:normal;word-spacing:normal;text-transform:none;direction:ltr;block-progression:tb;writing-mode:lr-tb;text-anchor:start;baseline-shift:baseline;color:#000000;fill:#000000;fill-opacity:1;stroke:none;stroke-width:1px;marker:none;visibility:visible;display:inline;overflow:visible;enable-background:accumulate;font-family:Sans;-inkscape-font-specification:Sans"
       d="m 60.429885,115.94563 -0.6875,0.71875 35.6875,35.6875 0.71875,-0.6875 -35.71875,-35.71875 z"
       id="path3038" />
    <use
       x="0"
       y="0"
       xlink:href="#g3008"
       id="use3040"
       width="110"
       height="120"
       transform="translate(-4.6739927e-6,-3.5742226e-7)" />
    <use
       x="0"
       y="0"
       xlink:href="#g3016"
       id="use3042"
       width="110"
       height="120"
       transform="translate(-4.6739927e-6,-3.5742226e-7)" />
    <use
       x="0"
       y="0"
       xlink:href="#path3024"
       id="use3044"
       width="110"
       height="120"
       transform="translate(-4.6739927e-6,-3.5742225e-7)" />
    <use
       x="0"
       y="0"
       xlink:href="#path3026"
       id="use3046"
       width="110"
       height="120"
       transform="translate(-4.6739927e-6,-3.5742225e-7)" />
    <use
       x="0"
       y="0"
       xlink:href="#g3028"
       id="use3048"
       width="110"
       height="120"
       transform="translate(-4.6739927e-6,-3.5742226e-7)" />
    <use
       x="0"
       y="0"
       xlink:href="#path3036"
       id="use3050"
       width="110"
       height="120"
       transform="translate(-4.6739927e-6,-3.5742225e-7)" />
    <use
       x="0"
       y="0"
       xlink:href="#path3038"
       id="use3052"
       width="110"
       height="120"
       transform="translate(-4.6739927e-6,-3.5742225e-7)" />
    <path
       style="font-size:medium;font-style:normal;font-variant:normal;font-weight:normal;font-stretch:normal;text-indent:0;text-align:start;text-decoration:none;line-height:normal;letter-spacing:normal;word-spacing:normal;text-transform:none;direction:ltr;block-progression:tb;writing-mode:lr-tb;text-anchor:start;baseline-shift:baseline;color:#000000;fill:#000000;fill-opacity:1;stroke:none;stroke-width:1px;marker:none;visibility:visible;display:inline;overflow:visible;enable-background:accumulate;font-family:Sans;-inkscape-font-specification:Sans"
       d="m 23.673215,53.933689 0,26.156249 1,0 0,-26.156249 -1,0 z"
       id="path3054"
       inkscape:connector-curvature="0" />
    <path
       inkscape:connector-curvature="0"
       id="path3060"
       d="m 95.270945,53.933689 0,26.156249 1,0 0,-26.156249 -1,0 z"
       style="font-size:medium;font-style:normal;font-variant:normal;font-weight:normal;font-stretch:normal;text-indent:0;text-align:start;text-decoration:none;line-height:normal;letter-spacing:normal;word-spacing:normal;text-transform:none;direction:ltr;block-progression:tb;writing-mode:lr-tb;text-anchor:start;baseline-shift:baseline;color:#000000;fill:#000000;fill-opacity:1;stroke:none;stroke-width:1px;marker:none;visibility:visible;display:inline;overflow:visible;enable-background:accumulate;font-family:Sans;-inkscape-font-specification:Sans" />
    <path
       inkscape:connector-curvature="0"
       id="path3062"
       d="m 59.673215,89.933688 0,26.156252 1,0 0,-26.156252 -1,0 z"
       style="font-size:medium;font-style:normal;font-variant:normal;font-weight:normal;font-stretch:normal;text-indent:0;text-align:start;text-decoration:none;line-height:normal;letter-spacing:normal;word-spacing:normal;text-transform:none;direction:ltr;block-progression:tb;writing-mode:lr-tb;text-anchor:start;baseline-shift:baseline;color:#000000;fill:#000000;fill-opacity:1;stroke:none;stroke-width:1px;marker:none;visibility:visible;display:inline;overflow:visible;enable-background:accumulate;font-family:Sans;-inkscape-font-specification:Sans" />
    <path
       style="font-size:medium;font-style:normal;font-variant:normal;font-weight:normal;font-stretch:normal;text-indent:0;text-align:start;text-decoration:none;line-height:normal;letter-spacing:normal;word-spacing:normal;text-transform:none;direction:ltr;block-progression:tb;writing-mode:lr-tb;text-anchor:start;baseline-shift:baseline;color:#000000;fill:#000000;fill-opacity:1;stroke:none;stroke-width:1px;marker:none;visibility:visible;display:inline;overflow:visible;enable-background:accumulate;font-family:Sans;-inkscape-font-specification:Sans"
       d="m 131.27094,89.933688 0,26.156252 1,0 0,-26.156252 -1,0 z"
       id="path3064"
       inkscape:connector-curvature="0" />
    <path
       style="font-size:medium;font-style:normal;font-variant:normal;font-weight:normal;font-stretch:normal;text-indent:0;text-align:start;text-decoration:none;line-height:normal;letter-spacing:normal;word-spacing:normal;text-transform:none;direction:ltr;block-progression:tb;writing-mode:lr-tb;text-anchor:start;baseline-shift:baseline;color:#000000;fill:#000000;fill-opacity:1;stroke:none;stroke-width:1px;marker:none;visibility:visible;display:inline;overflow:visible;enable-background:accumulate;font-family:Sans;-inkscape-font-specification:Sans"
       d="m 58.868675,19.933688 0,26.156251 1,0 0,-26.156251 -1,0 z"
       id="path3066"
       inkscape:connector-curvature="0" />
    <path
       inkscape:connector-curvature="0"
       id="path3068"
       d="m 95.270945,125.93369 0,26.15625 1,0 0,-26.15625 -1,0 z"
       style="font-size:medium;font-style:normal;font-variant:normal;font-weight:normal;font-stretch:normal;text-indent:0;text-align:start;text-decoration:none;line-height:normal;letter-spacing:normal;word-spacing:normal;text-transform:none;direction:ltr;block-progression:tb;writing-mode:lr-tb;text-anchor:start;baseline-shift:baseline;color:#000000;fill:#000000;fill-opacity:1;stroke:none;stroke-width:1px;marker:none;visibility:visible;display:inline;overflow:visible;enable-background:accumulate;font-family:Sans;-inkscape-font-specification:Sans" />
    <path
       style="font-size:12px;font-style:normal;font-weight:normal;line-height:125%;letter-spacing:0px;word-spacing:0px;fill:#000000;fill-opacity:1;stroke:none;font-family:Sans"
       d="m 93.641145,166.29271 1.93359,0 0,-6.67383 -2.10351,0.42187 0,-1.07812 2.0918,-0.42188 1.18359,0 0,7.75196 1.93359,0 0,0.99609 -5.03906,0 0,-0.99609"
       id="path3079"
       inkscape:connector-curvature="0" />
    <path
       style="font-size:12px;font-style:normal;font-weight:normal;line-height:125%;letter-spacing:0px;word-spacing:0px;fill:#000000;fill-opacity:1;stroke:none;font-family:Sans"
       d="m 139.70681,126.46845 4.13086,0 0,0.99609 -5.55469,0 0,-0.99609 c 0.44922,-0.46484 1.06054,-1.08789 1.83398,-1.86914 0.77734,-0.78515 1.26562,-1.29101 1.46485,-1.51758 0.3789,-0.42578 0.64257,-0.78515 0.79101,-1.07812 0.15234,-0.29687 0.22851,-0.58789 0.22852,-0.87305 -1e-5,-0.46484 -0.16407,-0.84374 -0.49219,-1.13672 -0.32422,-0.29296 -0.74805,-0.43944 -1.27148,-0.43945 -0.3711,1e-5 -0.76368,0.0645 -1.17774,0.19336 -0.41016,0.12891 -0.84961,0.32422 -1.31836,0.58593 l 0,-1.19531 c 0.47656,-0.1914 0.92188,-0.33593 1.33594,-0.43359 0.41406,-0.0977 0.79297,-0.14648 1.13672,-0.14649 0.90624,1e-5 1.6289,0.22657 2.16797,0.67969 0.53905,0.45313 0.80858,1.0586 0.80859,1.81641 -10e-6,0.35938 -0.0684,0.70117 -0.20508,1.02539 -0.13282,0.32032 -0.37696,0.69922 -0.73242,1.13672 -0.0977,0.11328 -0.40821,0.44141 -0.93164,0.98437 -0.52344,0.53907 -1.26172,1.29493 -2.21484,2.26758"
       id="path3081"
       inkscape:connector-curvature="0" />
    <path
       style="font-size:12px;font-style:normal;font-weight:normal;line-height:125%;letter-spacing:0px;word-spacing:0px;fill:#000000;fill-opacity:1;stroke:none;font-family:Sans"
       d="m 97.417025,114.30018 c 0.5664,0.1211 1.00781,0.37305 1.32422,0.75586 0.32031,0.38281 0.48046,0.85547 0.48047,1.41797 -1e-5,0.86328 -0.29688,1.53125 -0.89063,2.0039 -0.59375,0.47266 -1.4375,0.70899 -2.53125,0.70899 -0.36719,0 -0.74609,-0.0371 -1.13672,-0.11133 -0.38672,-0.0703 -0.78711,-0.17774 -1.20117,-0.32227 l 0,-1.14258 c 0.32813,0.19141 0.6875,0.33594 1.07813,0.4336 0.39062,0.0977 0.79882,0.14648 1.22461,0.14648 0.74218,0 1.30663,-0.14648 1.69336,-0.43945 0.39062,-0.29297 0.58593,-0.71875 0.58593,-1.27734 0,-0.51563 -0.18164,-0.91797 -0.54492,-1.20704 -0.35938,-0.29296 -0.86133,-0.43944 -1.50586,-0.43945 l -1.01953,0 0,-0.97265 1.06641,0 c 0.58203,0 1.02734,-0.11523 1.33594,-0.34571 0.30858,-0.23437 0.46288,-0.5703 0.46289,-1.00781 -1e-5,-0.44921 -0.16017,-0.79296 -0.48047,-1.03125 -0.31641,-0.24218 -0.77149,-0.36327 -1.36524,-0.36328 -0.32422,1e-5 -0.67187,0.0352 -1.04297,0.10547 -0.37109,0.0703 -0.77929,0.17969 -1.22461,0.32812 l 0,-1.05469 c 0.44922,-0.12499 0.86914,-0.21874 1.25977,-0.28125 0.39453,-0.0625 0.76562,-0.0937 1.11328,-0.0937 0.89843,1e-5 1.60937,0.20509 2.13281,0.61524 0.52344,0.40626 0.78515,0.95704 0.78516,1.65234 -10e-6,0.48438 -0.13868,0.89454 -0.41602,1.23047 -0.27734,0.33204 -0.67188,0.56251 -1.18359,0.69141"
       id="path3083"
       inkscape:connector-curvature="0" />
    <path
       style="font-size:12px;font-style:normal;font-weight:normal;line-height:125%;letter-spacing:0px;word-spacing:0px;fill:#000000;fill-opacity:1;stroke:none;font-family:Sans"
       d="m 49.388885,118.7165 4.64648,0 0,0.99609 -3.5625,0 0,2.14453 c 0.17188,-0.0586 0.34375,-0.10156 0.51563,-0.1289 0.17187,-0.0312 0.34375,-0.0469 0.51562,-0.0469 0.97656,0 1.75,0.26758 2.32032,0.80273 0.5703,0.53516 0.85546,1.25977 0.85547,2.17383 -10e-6,0.94141 -0.29298,1.67383 -0.87891,2.19726 -0.58594,0.51953 -1.41211,0.7793 -2.47852,0.7793 -0.36719,0 -0.74219,-0.0312 -1.125,-0.0937 -0.3789,-0.0625 -0.77148,-0.15625 -1.17773,-0.28125 l 0,-1.18945 c 0.35156,0.1914 0.71484,0.33398 1.08984,0.42773 0.375,0.0937 0.77148,0.14063 1.18946,0.14063 0.67577,0 1.21093,-0.17774 1.60546,-0.53321 0.39453,-0.35546 0.5918,-0.83788 0.5918,-1.44726 0,-0.60937 -0.19727,-1.0918 -0.5918,-1.44727 -0.39453,-0.35546 -0.92969,-0.5332 -1.60546,-0.5332 -0.31641,0 -0.63282,0.0352 -0.94922,0.10547 -0.3125,0.0703 -0.63282,0.17969 -0.96094,0.32812 l 0,-4.39453"
       id="path3085"
       inkscape:connector-curvature="0" />
    <path
       style="font-size:12px;font-style:normal;font-weight:normal;line-height:125%;letter-spacing:0px;word-spacing:0px;fill:#000000;fill-opacity:1;stroke:none;font-family:Sans"
       d="m 89.399255,95.896295 1.9336,0 0,-6.673828 -2.10352,0.421875 0,-1.078125 2.0918,-0.421875 1.18359,0 0,7.751953 1.93359,0 0,0.996094 -5.03906,0 0,-0.996094"
       id="path3089"
       inkscape:connector-curvature="0" />
    <path
       style="font-size:12px;font-style:normal;font-weight:normal;line-height:125%;letter-spacing:0px;word-spacing:0px;fill:#000000;fill-opacity:1;stroke:none;font-family:Sans"
       d="m 54.195015,80.207953 1.9336,0 0,-6.673828 -2.10352,0.421875 0,-1.078125 2.0918,-0.421875 1.18359,0 0,7.751953 1.9336,0 0,0.996094 -5.03907,0 0,-0.996094"
       id="path3093"
       inkscape:connector-curvature="0" />
    <path
       style="font-size:12px;font-style:normal;font-weight:normal;line-height:125%;letter-spacing:0px;word-spacing:0px;fill:#000000;fill-opacity:1;stroke:none;font-family:Sans"
       d="m 61.642285,72.456 4.64648,0 0,0.996094 -3.5625,0 0,2.144531 c 0.17188,-0.05859 0.34375,-0.101557 0.51563,-0.128906 0.17187,-0.03124 0.34375,-0.04687 0.51562,-0.04687 0.97656,6e-6 1.75,0.267583 2.32032,0.802734 0.5703,0.535161 0.85546,1.25977 0.85547,2.173828 -1e-5,0.941408 -0.29298,1.67383 -0.87891,2.197266 -0.58594,0.519531 -1.41211,0.779297 -2.47852,0.779297 -0.36719,0 -0.74219,-0.03125 -1.125,-0.09375 -0.3789,-0.0625 -0.77148,-0.15625 -1.17773,-0.28125 l 0,-1.189453 c 0.35156,0.191407 0.71484,0.333985 1.08984,0.427734 0.375,0.09375 0.77149,0.140626 1.18946,0.140625 0.67577,10e-7 1.21093,-0.177733 1.60547,-0.533203 0.39452,-0.355467 0.59179,-0.837888 0.59179,-1.447266 0,-0.609371 -0.19727,-1.091793 -0.59179,-1.447265 -0.39454,-0.355464 -0.9297,-0.533199 -1.60547,-0.533203 -0.31641,4e-6 -0.63282,0.03516 -0.94922,0.105468 -0.3125,0.07032 -0.63282,0.179692 -0.96094,0.328125 l 0,-4.394531"
       id="path3095"
       inkscape:connector-curvature="0" />
    <path
       style="font-size:12px;font-style:normal;font-weight:normal;line-height:125%;letter-spacing:0px;word-spacing:0px;fill:#000000;fill-opacity:1;stroke:none;font-family:Sans"
       d="m 5.3236847,89.862318 4.13086,0 0,0.996094 -5.55468,0 0,-0.996094 c 0.44921,-0.464842 1.06054,-1.087888 1.83398,-1.86914 0.77734,-0.785153 1.26562,-1.291012 1.46484,-1.517579 0.37891,-0.425776 0.64258,-0.785151 0.79102,-1.078125 0.15234,-0.296869 0.22851,-0.587884 0.22852,-0.873046 -10e-6,-0.464837 -0.16407,-0.843743 -0.49219,-1.136719 -0.32422,-0.292961 -0.74805,-0.439445 -1.27149,-0.439453 -0.37109,8e-6 -0.76367,0.06446 -1.17773,0.193359 -0.41016,0.128914 -0.84961,0.324226 -1.31836,0.585938 l 0,-1.195313 c 0.47656,-0.191398 0.92187,-0.335929 1.33594,-0.433594 0.41406,-0.09765 0.79296,-0.146475 1.13672,-0.146484 0.90624,9e-6 1.6289,0.226571 2.16797,0.679687 0.53905,0.453133 0.80858,1.058601 0.80859,1.816407 -10e-6,0.359381 -0.0684,0.701177 -0.20508,1.02539 -0.13282,0.320318 -0.37696,0.699224 -0.73242,1.136719 -0.0977,0.113285 -0.40821,0.44141 -0.93164,0.984375 -0.52344,0.539065 -1.26172,1.294924 -2.21485,2.267578"
       id="path3097"
       inkscape:connector-curvature="0" />
    <path
       style="font-size:12px;font-style:normal;font-weight:normal;line-height:125%;letter-spacing:0px;word-spacing:0px;fill:#000000;fill-opacity:1;stroke:none;font-family:Sans"
       d="m 11.956505,82.110365 4.64648,0 0,0.996094 -3.5625,0 0,2.144531 c 0.17187,-0.05859 0.34375,-0.101557 0.51563,-0.128906 0.17187,-0.03124 0.34374,-0.04687 0.51562,-0.04687 0.97656,6e-6 1.75,0.267583 2.32031,0.802734 0.57031,0.535161 0.85547,1.25977 0.85547,2.173828 0,0.941408 -0.29297,1.67383 -0.8789,2.197266 -0.58595,0.519531 -1.41212,0.779297 -2.47852,0.779297 -0.36719,0 -0.74219,-0.03125 -1.125,-0.09375 -0.37891,-0.0625 -0.77149,-0.15625 -1.17773,-0.28125 l 0,-1.189453 c 0.35156,0.191407 0.71484,0.333985 1.08984,0.427734 0.375,0.09375 0.77148,0.140626 1.18945,0.140625 0.67578,10e-7 1.21094,-0.177733 1.60547,-0.533203 0.39453,-0.355467 0.59179,-0.837888 0.5918,-1.447266 -10e-6,-0.609371 -0.19727,-1.091793 -0.5918,-1.447265 -0.39453,-0.355464 -0.92969,-0.533199 -1.60547,-0.533203 -0.31641,4e-6 -0.63281,0.03516 -0.94922,0.105468 -0.3125,0.07032 -0.63281,0.179692 -0.96093,0.328125 l 0,-4.394531"
       id="path3099"
       inkscape:connector-curvature="0" />
    <path
       style="font-size:12px;font-style:normal;font-weight:normal;line-height:125%;letter-spacing:0px;word-spacing:0px;fill:#000000;fill-opacity:1;stroke:none;font-family:Sans"
       d="m 105.43336,45.110567 c 0.5664,0.121098 1.00781,0.373051 1.32422,0.755859 0.32031,0.382817 0.48046,0.855472 0.48047,1.417969 -1e-5,0.863283 -0.29688,1.531251 -0.89062,2.003906 -0.59376,0.472657 -1.43751,0.708985 -2.53125,0.708985 -0.36719,0 -0.7461,-0.03711 -1.13672,-0.111328 -0.38672,-0.07031 -0.78711,-0.177735 -1.20117,-0.322266 l 0,-1.142578 c 0.32812,0.191407 0.68749,0.335939 1.07812,0.433594 0.39062,0.09766 0.79883,0.146485 1.22461,0.146484 0.74218,10e-7 1.30664,-0.146483 1.69336,-0.439453 0.39062,-0.292967 0.58593,-0.718748 0.58594,-1.277344 -1e-5,-0.515622 -0.18165,-0.917965 -0.54493,-1.207031 -0.35938,-0.292965 -0.86133,-0.439449 -1.50585,-0.439453 l -1.01954,0 0,-0.972656 1.06641,0 c 0.58203,5e-6 1.02734,-0.11523 1.33594,-0.345704 0.30859,-0.234369 0.46288,-0.570306 0.46289,-1.007812 -10e-6,-0.449212 -0.16016,-0.792962 -0.48047,-1.03125 -0.31641,-0.24218 -0.77149,-0.363273 -1.36523,-0.363281 -0.32423,8e-6 -0.67188,0.03516 -1.04297,0.105468 -0.3711,0.07032 -0.7793,0.179696 -1.22461,0.328125 l 0,-1.054687 c 0.44921,-0.124991 0.86914,-0.218741 1.25976,-0.28125 0.39453,-0.06249 0.76562,-0.09374 1.11328,-0.09375 0.89844,9e-6 1.60937,0.205087 2.13282,0.615234 0.52343,0.406258 0.78515,0.957039 0.78515,1.652344 0,0.484381 -0.13868,0.894537 -0.41601,1.230469 -0.27735,0.332036 -0.67188,0.562505 -1.1836,0.691406"
       id="path3101"
       inkscape:connector-curvature="0" />
    <path
       style="font-size:12px;font-style:normal;font-weight:normal;line-height:125%;letter-spacing:0px;word-spacing:0px;fill:#000000;fill-opacity:1;stroke:none;font-family:Sans"
       d="m 53.380165,52.342742 4.64648,0 0,0.996094 -3.5625,0 0,2.144531 c 0.17187,-0.05859 0.34375,-0.101557 0.51563,-0.128906 0.17187,-0.03124 0.34374,-0.04687 0.51562,-0.04687 0.97656,6e-6 1.75,0.267583 2.32031,0.802734 0.57031,0.535161 0.85547,1.25977 0.85547,2.173827 0,0.941408 -0.29297,1.67383 -0.8789,2.197266 -0.58595,0.519531 -1.41212,0.779297 -2.47852,0.779297 -0.36719,0 -0.74219,-0.03125 -1.125,-0.09375 -0.37891,-0.0625 -0.77149,-0.15625 -1.17773,-0.28125 l 0,-1.189453 c 0.35156,0.191407 0.71484,0.333985 1.08984,0.427734 0.375,0.09375 0.77148,0.140626 1.18945,0.140625 0.67578,1e-6 1.21094,-0.177733 1.60547,-0.533203 0.39453,-0.355467 0.59179,-0.837888 0.5918,-1.447266 -1e-5,-0.60937 -0.19727,-1.091792 -0.5918,-1.447264 -0.39453,-0.355464 -0.92969,-0.533199 -1.60547,-0.533203 -0.31641,4e-6 -0.63281,0.03516 -0.94922,0.105468 -0.3125,0.07032 -0.63281,0.179692 -0.96093,0.328125 l 0,-4.394531"
       id="path3105"
       inkscape:connector-curvature="0" />
    <path
       style="font-size:12px;font-style:normal;font-weight:normal;line-height:125%;letter-spacing:0px;word-spacing:0px;fill:#000000;fill-opacity:1;stroke:none;font-family:Sans"
       d="m 4.5906247,42.286112 5.6250003,0 0,0.503906 -3.1757803,8.244141 -1.23633,0 2.98828,-7.751953 -4.20117,0 0,-0.996094"
       id="path3109"
       inkscape:connector-curvature="0" />
    <path
       style="font-size:12px;font-style:normal;font-weight:normal;line-height:125%;letter-spacing:0px;word-spacing:0px;fill:#000000;fill-opacity:1;stroke:none;font-family:Sans"
       d="m 12.541795,42.286112 4.64649,0 0,0.996094 -3.5625,0 0,2.144531 c 0.17187,-0.05859 0.34375,-0.101557 0.51562,-0.128906 0.17188,-0.03124 0.34375,-0.04687 0.51563,-0.04687 0.97656,6e-6 1.74999,0.267583 2.32031,0.802734 0.57031,0.535161 0.85546,1.25977 0.85547,2.173828 -10e-6,0.941408 -0.29298,1.67383 -0.87891,2.197266 -0.58594,0.519531 -1.41211,0.779297 -2.47851,0.779297 -0.36719,0 -0.74219,-0.03125 -1.125,-0.09375 -0.37891,-0.0625 -0.77149,-0.15625 -1.17774,-0.28125 l 0,-1.189453 c 0.35156,0.191407 0.71485,0.333985 1.08985,0.427734 0.375,0.09375 0.77148,0.140626 1.18945,0.140625 0.67578,1e-6 1.21093,-0.177733 1.60547,-0.533203 0.39453,-0.355467 0.59179,-0.837888 0.5918,-1.447266 -10e-6,-0.609371 -0.19727,-1.091793 -0.5918,-1.447265 -0.39454,-0.355464 -0.92969,-0.533199 -1.60547,-0.533203 -0.31641,4e-6 -0.63281,0.03516 -0.94922,0.105468 -0.3125,0.07032 -0.63281,0.179692 -0.96094,0.328125 l 0,-4.394531"
       id="path3111"
       inkscape:connector-curvature="0" />
    <path
       style="font-size:12px;font-style:normal;font-weight:normal;line-height:125%;letter-spacing:0px;word-spacing:0px;fill:#000000;fill-opacity:1;stroke:none;font-family:Sans"
       d="m 49.538805,11.420607 1.93359,0 0,-6.6738276 -2.10351,0.421875 0,-1.078125 2.09179,-0.421875 1.1836,0 0,7.7519526 1.93359,0 0,0.996094 -5.03906,0 0,-0.996094"
       id="path3113"
       inkscape:connector-curvature="0" />
    <path
       style="font-size:12px;font-style:normal;font-weight:normal;line-height:125%;letter-spacing:0px;word-spacing:0px;fill:#000000;fill-opacity:1;stroke:none;font-family:Sans"
       d="m 56.986065,3.6686544 4.64649,0 0,0.996094 -3.5625,0 0,2.144531 c 0.17187,-0.05859 0.34374,-0.101557 0.51562,-0.128906 0.17187,-0.03124 0.34375,-0.04687 0.51563,-0.04687 0.97656,6e-6 1.74999,0.267583 2.32031,0.802734 0.57031,0.535161 0.85546,1.25977 0.85547,2.173828 -10e-6,0.9414076 -0.29298,1.6738296 -0.87891,2.1972656 -0.58594,0.519531 -1.41211,0.779297 -2.47851,0.779297 -0.36719,0 -0.74219,-0.03125 -1.125,-0.09375 -0.37891,-0.0625 -0.77149,-0.15625 -1.17774,-0.28125 l 0,-1.189453 c 0.35156,0.191407 0.71484,0.333985 1.08985,0.427734 0.37499,0.09375 0.77148,0.140626 1.18945,0.140625 0.67578,10e-7 1.21093,-0.177733 1.60547,-0.533203 0.39452,-0.355467 0.59179,-0.837888 0.59179,-1.4472656 0,-0.609371 -0.19727,-1.091793 -0.59179,-1.447265 -0.39454,-0.355464 -0.92969,-0.533199 -1.60547,-0.533203 -0.31641,4e-6 -0.63282,0.03516 -0.94922,0.105468 -0.3125,0.07032 -0.63281,0.179692 -0.96094,0.328125 l 0,-4.394531"
       id="path3115"
       inkscape:connector-curvature="0" />
    <rect
       style="fill:none;stroke:#000000;stroke-opacity:1"
       id="rect3195"
       width="107.80707"
       height="33.388008"
       x="42.266075"
       y="104.63103"
       rx="11.240773"
       ry="11.240773" />
    <path
       style="font-size:12px;font-style:normal;font-weight:normal;line-height:125%;letter-spacing:0px;word-spacing:0px;fill:#000000;fill-opacity:1;stroke:none;font-family:Sans"
       d="m 168.0722,115.47422 c -0.1211,-0.0703 -0.25391,-0.12109 -0.39844,-0.15235 -0.14063,-0.0352 -0.29688,-0.0527 -0.46875,-0.0527 -0.60938,1e-5 -1.07813,0.19923 -1.40625,0.59766 -0.32422,0.39454 -0.48633,0.9629 -0.48633,1.70508 l 0,3.45703 -1.08398,0 0,-6.5625 1.08398,0 0,1.01953 c 0.22656,-0.39843 0.52148,-0.69335 0.88477,-0.88476 0.36328,-0.19531 0.80468,-0.29297 1.32422,-0.29297 0.0742,0 0.15624,0.006 0.24609,0.0176 0.0898,0.008 0.18945,0.0215 0.29883,0.041 l 0.006,1.10742"
       id="path3978"
       inkscape:connector-curvature="0" />
    <path
       style="font-size:12px;font-style:normal;font-weight:normal;line-height:125%;letter-spacing:0px;word-spacing:0px;fill:#000000;fill-opacity:1;stroke:none;font-family:Sans"
       d="m 169.21478,114.46641 1.07812,0 0,6.5625 -1.07812,0 0,-6.5625"
       id="path4017"
       inkscape:connector-curvature="0" />
    <path
       style="font-size:12px;font-style:normal;font-weight:normal;line-height:125%;letter-spacing:0px;word-spacing:0px;fill:#000000;fill-opacity:1;stroke:none;font-family:Sans"
       d="m 169.21478,111.91172 1.07812,0 0,1.36523 -1.07812,0 0,-1.36523"
       id="path3980"
       inkscape:connector-curvature="0" />
    <path
       style="font-size:12px;font-style:normal;font-weight:normal;line-height:125%;letter-spacing:0px;word-spacing:0px;fill:#000000;fill-opacity:1;stroke:none;font-family:Sans"
       d="m 177.65228,115.72617 c 0.26952,-0.48437 0.59179,-0.84179 0.96679,-1.07226 0.375,-0.23047 0.8164,-0.3457 1.32422,-0.34571 0.68359,1e-5 1.21093,0.24024 1.58203,0.72071 0.37109,0.47656 0.55663,1.15625 0.55664,2.03906 l 0,3.96094 -1.08398,0 0,-3.92579 c -1e-5,-0.6289 -0.11134,-1.09569 -0.33398,-1.40039 -0.22267,-0.30468 -0.56251,-0.45702 -1.01954,-0.45703 -0.5586,1e-5 -1,0.18555 -1.32421,0.55664 -0.32423,0.3711 -0.48634,0.87696 -0.48633,1.51758 l 0,3.70899 -1.08399,0 0,-3.92579 c 0,-0.6328 -0.11133,-1.0996 -0.33398,-1.40039 -0.22266,-0.30468 -0.56641,-0.45702 -1.03125,-0.45703 -0.55079,1e-5 -0.98829,0.18751 -1.3125,0.5625 -0.32422,0.3711 -0.48633,0.87501 -0.48633,1.51172 l 0,3.70899 -1.08398,0 0,-6.5625 1.08398,0 0,1.01953 c 0.24609,-0.40234 0.54101,-0.69922 0.88477,-0.89063 0.34374,-0.1914 0.75195,-0.2871 1.22461,-0.28711 0.47655,1e-5 0.88085,0.1211 1.21289,0.36328 0.33593,0.2422 0.58397,0.59376 0.74414,1.05469"
       id="path3982"
       inkscape:connector-curvature="0" />
    <path
       style="font-size:12px;font-style:normal;font-weight:normal;line-height:125%;letter-spacing:0px;word-spacing:0px;fill:#000000;fill-opacity:1;stroke:none;font-family:Sans"
       d="m 185.30462,112.60312 0,1.86329 2.2207,0 0,0.83789 -2.2207,0 0,3.5625 c 0,0.53515 0.0723,0.8789 0.2168,1.03125 0.14843,0.15234 0.44726,0.22851 0.89648,0.22851 l 1.10742,0 0,0.90235 -1.10742,0 c -0.83203,0 -1.40625,-0.1543 -1.72265,-0.4629 -0.31641,-0.31249 -0.47462,-0.8789 -0.47461,-1.69921 l 0,-3.5625 -0.79102,0 0,-0.83789 0.79102,0 0,-1.86329 1.08398,0"
       id="path3984"
       inkscape:connector-curvature="0" />
    <path
       style="font-size:12px;font-style:normal;font-weight:normal;line-height:125%;letter-spacing:0px;word-spacing:0px;fill:#000000;fill-opacity:1;stroke:none;font-family:Sans"
       d="m 196.30853,111.91172 1.07812,0 0,9.11719 -1.07812,0 0,-9.11719"
       id="path3988"
       inkscape:connector-curvature="0" />
    <path
       style="font-size:12px;font-style:normal;font-weight:normal;line-height:125%;letter-spacing:0px;word-spacing:0px;fill:#000000;fill-opacity:1;stroke:none;font-family:Sans"
       d="m 161.05853,129.46641 1.07812,0 0,6.5625 -1.07812,0 0,-6.5625"
       id="path4031"
       inkscape:connector-curvature="0" />
    <path
       style="font-size:12px;font-style:normal;font-weight:normal;line-height:125%;letter-spacing:0px;word-spacing:0px;fill:#000000;fill-opacity:1;stroke:none;font-family:Sans"
       d="m 161.05853,126.91172 1.07812,0 0,1.36523 -1.07812,0 0,-1.36523"
       id="path3990"
       inkscape:connector-curvature="0" />
    <path
       style="font-size:12px;font-style:normal;font-weight:normal;line-height:125%;letter-spacing:0px;word-spacing:0px;fill:#000000;fill-opacity:1;stroke:none;font-family:Sans"
       d="m 168.56439,135.03281 1.93359,0 0,-6.67383 -2.10352,0.42188 0,-1.07813 2.0918,-0.42187 1.18359,0 0,7.75195 1.9336,0 0,0.9961 -5.03906,0 0,-0.9961"
       id="path3992"
       inkscape:connector-curvature="0" />
    <path
       style="font-size:12px;font-style:normal;font-weight:normal;line-height:125%;letter-spacing:0px;word-spacing:0px;fill:#000000;fill-opacity:1;stroke:none;font-family:Sans"
       d="m 176.01165,127.28086 4.64649,0 0,0.99609 -3.5625,0 0,2.14453 c 0.17187,-0.0586 0.34374,-0.10155 0.51562,-0.1289 0.17187,-0.0312 0.34375,-0.0469 0.51563,-0.0469 0.97655,0 1.74999,0.26758 2.32031,0.80273 0.5703,0.53516 0.85546,1.25977 0.85547,2.17383 -1e-5,0.94141 -0.29298,1.67383 -0.87891,2.19727 -0.58594,0.51953 -1.41211,0.77929 -2.47851,0.77929 -0.3672,0 -0.74219,-0.0312 -1.125,-0.0937 -0.37891,-0.0625 -0.77149,-0.15625 -1.17774,-0.28125 l 0,-1.18945 c 0.35156,0.19141 0.71484,0.33398 1.08984,0.42773 0.375,0.0937 0.77149,0.14063 1.18946,0.14063 0.67577,0 1.21093,-0.17773 1.60547,-0.5332 0.39452,-0.35547 0.59179,-0.83789 0.59179,-1.44727 0,-0.60937 -0.19727,-1.09179 -0.59179,-1.44727 -0.39454,-0.35546 -0.9297,-0.53319 -1.60547,-0.5332 -0.31641,10e-6 -0.63282,0.0352 -0.94922,0.10547 -0.3125,0.0703 -0.63282,0.17969 -0.96094,0.32812 l 0,-4.39453"
       id="path3994"
       inkscape:connector-curvature="0" />
  </g>
</svg>
