<?xml version="1.0" encoding="UTF-8" standalone="no"?>
<!-- Created with Inkscape (http://www.inkscape.org/) -->

<svg
   xmlns:dc="http://purl.org/dc/elements/1.1/"
   xmlns:cc="http://creativecommons.org/ns#"
   xmlns:rdf="http://www.w3.org/1999/02/22-rdf-syntax-ns#"
   xmlns:svg="http://www.w3.org/2000/svg"
   xmlns="http://www.w3.org/2000/svg"
   xmlns:sodipodi="http://sodipodi.sourceforge.net/DTD/sodipodi-0.dtd"
   xmlns:inkscape="http://www.inkscape.org/namespaces/inkscape"
   width="140"
   height="130"
   id="svg2"
   version="1.1"
   inkscape:version="0.47 r22583"
   sodipodi:docname="2010-(11)nov-15 figur 3.svg">
  <defs
     id="defs4" />
  <sodipodi:namedview
     id="base"
     pagecolor="#ffffff"
     bordercolor="#666666"
     borderopacity="1.0"
     inkscape:pageopacity="0.0"
     inkscape:pageshadow="2"
     inkscape:zoom="2.8284271"
     inkscape:cx="152.06752"
     inkscape:cy="64.355656"
     inkscape:document-units="px"
     inkscape:current-layer="layer1"
     showgrid="false"
     inkscape:window-width="1589"
     inkscape:window-height="1117"
     inkscape:window-x="1600"
     inkscape:window-y="27"
     inkscape:window-maximized="1"
     showguides="true"
     inkscape:guide-bbox="true"
     inkscape:snap-midpoints="true"
     inkscape:snap-global="false" />
  <metadata
     id="metadata7">
    <rdf:RDF>
      <cc:Work
         rdf:about="">
        <dc:format>image/svg+xml</dc:format>
        <dc:type
           rdf:resource="http://purl.org/dc/dcmitype/StillImage" />
        <dc:title />
      </cc:Work>
    </rdf:RDF>
  </metadata>
  <g
     inkscape:label="Layer 1"
     inkscape:groupmode="layer"
     id="layer1">
    <path
       style="font-size:medium;font-style:normal;font-variant:normal;font-weight:normal;font-stretch:normal;text-indent:0;text-align:start;text-decoration:none;line-height:normal;letter-spacing:normal;word-spacing:normal;text-transform:none;direction:ltr;block-progression:tb;writing-mode:lr-tb;text-anchor:start;color:#000000;fill:#000000;fill-opacity:1;stroke:none;stroke-width:1;marker:none;visibility:visible;display:inline;overflow:visible;enable-background:accumulate;font-family:Andale Mono;-inkscape-font-specification:Andale Mono"
       d="M 22.53125 7.6875 C 12.551478 7.6875 4.4375 15.801476 4.4375 25.78125 C 4.4375 35.761023 12.551478 43.875 22.53125 43.875 C 32.511024 43.875 40.625 35.761023 40.625 25.78125 C 40.625 15.801476 32.511024 7.6875 22.53125 7.6875 z M 22.53125 9 C 31.809679 9 39.3125 16.502821 39.3125 25.78125 C 39.3125 35.059679 31.809679 42.5625 22.53125 42.5625 C 13.252823 42.5625 5.75 35.059679 5.75 25.78125 C 5.75 16.502821 13.252823 9 22.53125 9 z "
       id="path4976" />
    <path
       style="font-size:12px;font-style:normal;font-variant:normal;font-weight:normal;font-stretch:normal;text-align:start;line-height:125%;writing-mode:lr-tb;text-anchor:start;fill:#000000;fill-opacity:1;stroke:none;font-family:DejaVu Sans;-inkscape-font-specification:DejaVu Sans"
       d="m 16.456224,20.67097 1.763672,0 2.232422,5.953125 2.244141,-5.953125 1.763672,0 0,8.748047 -1.154297,0 0,-7.681641 -2.25586,6 -1.189453,0 -2.255859,-6 0,7.681641 -1.148438,0 0,-8.748047"
       id="path4866" />
    <path
       style="font-size:9px;font-style:normal;font-variant:normal;font-weight:normal;font-stretch:normal;text-align:start;line-height:125%;writing-mode:lr-tb;text-anchor:start;fill:#000000;fill-opacity:1;stroke:none;font-family:DejaVu Sans;-inkscape-font-specification:DejaVu Sans"
       d="m 26.075242,32.074998 1.450195,0 0,-5.005371 -1.577636,0.316406 0,-0.808593 1.568847,-0.316407 0.887695,0 0,5.813965 1.450196,0 0,0.74707 -3.779297,0 0,-0.74707"
       id="path4869" />
    <path
       style="font-size:medium;font-style:normal;font-variant:normal;font-weight:normal;font-stretch:normal;text-indent:0;text-align:start;text-decoration:none;line-height:normal;letter-spacing:normal;word-spacing:normal;text-transform:none;direction:ltr;block-progression:tb;writing-mode:lr-tb;text-anchor:start;color:#000000;fill:#000000;fill-opacity:1;stroke:none;stroke-width:1;marker:none;visibility:visible;display:inline;overflow:visible;enable-background:accumulate;font-family:Andale Mono;-inkscape-font-specification:Andale Mono"
       d="M 115 88.40625 C 105.02023 88.40625 96.90625 96.520224 96.90625 106.5 C 96.90625 116.47977 105.02023 124.59375 115 124.59375 C 124.97978 124.59375 133.09375 116.47977 133.09375 106.5 C 133.09375 96.520224 124.97978 88.40625 115 88.40625 z M 115 89.71875 C 124.27843 89.71875 131.78125 97.221569 131.78125 106.5 C 131.78125 115.77843 124.27843 123.28125 115 123.28125 C 105.72158 123.28125 98.1875 115.77843 98.1875 106.5 C 98.1875 97.221569 105.72158 89.71875 115 89.71875 z "
       id="path4980" />
    <path
       style="font-size:12px;font-style:normal;font-variant:normal;font-weight:normal;font-stretch:normal;text-align:start;line-height:125%;writing-mode:lr-tb;text-anchor:start;fill:#000000;fill-opacity:1;stroke:none;font-family:DejaVu Sans;-inkscape-font-specification:DejaVu Sans"
       d="m 108.9189,101.38953 1.76368,0 2.23242,5.95313 2.24414,-5.95313 1.76367,0 0,8.74805 -1.1543,0 0,-7.68164 -2.25586,6 -1.18945,0 -2.25586,-6 0,7.68164 -1.14844,0 0,-8.74805"
       id="path4873" />
    <path
       style="font-size:9px;font-style:normal;font-variant:normal;font-weight:normal;font-stretch:normal;text-align:start;line-height:125%;writing-mode:lr-tb;text-anchor:start;fill:#000000;fill-opacity:1;stroke:none;font-family:DejaVu Sans;-inkscape-font-specification:DejaVu Sans"
       d="m 119.14876,112.79356 3.09815,0 0,0.74707 -4.16602,0 0,-0.74707 c 0.33691,-0.34863 0.79541,-0.81592 1.37549,-1.40185 0.583,-0.58887 0.94922,-0.96826 1.09863,-1.13819 0.28418,-0.31933 0.48193,-0.58886 0.59326,-0.80859 0.11426,-0.22265 0.17139,-0.44092 0.17139,-0.65479 0,-0.34863 -0.12305,-0.6328 -0.36914,-0.85254 -0.24317,-0.21972 -0.56104,-0.32958 -0.95361,-0.32959 -0.27833,1e-5 -0.57276,0.0484 -0.8833,0.14502 -0.30762,0.0967 -0.63721,0.24317 -0.98877,0.43946 l 0,-0.89649 c 0.35742,-0.14355 0.6914,-0.25194 1.00195,-0.32519 0.31054,-0.0732 0.59472,-0.10986 0.85254,-0.10987 0.67968,1e-5 1.22167,0.16993 1.62598,0.50977 0.40429,0.33985 0.60644,0.79395 0.60644,1.3623 0,0.26954 -0.0513,0.52589 -0.15381,0.76905 -0.0996,0.24023 -0.28272,0.52441 -0.54932,0.85254 -0.0732,0.085 -0.30615,0.33105 -0.69872,0.73828 -0.39259,0.4043 -0.9463,0.97119 -1.66114,1.70068"
       id="path4876" />
    <path
       style="font-size:medium;font-style:normal;font-variant:normal;font-weight:normal;font-stretch:normal;text-indent:0;text-align:start;text-decoration:none;line-height:normal;letter-spacing:normal;word-spacing:normal;text-transform:none;direction:ltr;block-progression:tb;writing-mode:lr-tb;text-anchor:start;color:#000000;fill:#000000;fill-opacity:1;stroke:none;stroke-width:1px;marker:none;visibility:visible;display:inline;overflow:visible;enable-background:accumulate;font-family:Andale Mono;-inkscape-font-specification:Andale Mono"
       d="m 35.875,37.65625 -0.75,0.6875 c 4.170664,4.35741 8.335546,9.324177 12.125,12.46875 1.894727,1.572286 3.68013,2.702589 5.4375,3.03125 1.75737,0.328661 3.460675,-0.237913 4.8125,-1.90625 1.815326,-2.240359 3.46185,-3.615761 4.625,-4.21875 0.581575,-0.301494 1.041608,-0.403826 1.3125,-0.375 0.270892,0.02883 0.362499,0.116654 0.46875,0.375 0.212503,0.516691 0.07882,1.905346 -0.875,3.9375 -0.95382,2.032154 -2.648131,4.715551 -5.28125,7.90625 -2.683215,3.251403 -4.442195,5.917231 -5.375,7.9375 -0.466403,1.010134 -0.70818,1.86262 -0.78125,2.5625 -0.07307,0.69988 0.03873,1.33174 0.53125,1.6875 0.492516,0.35576 1.157821,0.316758 1.84375,0.0625 0.685929,-0.254258 1.455553,-0.722964 2.375,-1.4375 1.838894,-1.429072 4.200503,-3.8237 6.9375,-7.3125 2.72867,-3.478186 5.08879,-5.860812 6.90625,-7.25 0.90873,-0.694594 1.671464,-1.132643 2.25,-1.34375 0.578536,-0.211107 0.931082,-0.177454 1.0625,-0.09375 0.131418,0.0837 0.248673,0.277793 0.21875,0.8125 -0.02992,0.534707 -0.260097,1.323197 -0.6875,2.3125 -0.854806,1.978607 -2.540743,4.764013 -5.28125,8.1875 -2.789318,3.484463 -4.592478,6.302446 -5.53125,8.40625 -0.469386,1.051902 -0.725036,1.939066 -0.78125,2.65625 -0.05621,0.717184 0.128525,1.358057 0.65625,1.6875 0.527725,0.329443 1.188345,0.250437 1.90625,-0.03125 0.717905,-0.281687 1.540791,-0.778665 2.5,-1.53125 1.918418,-1.50517 4.350999,-3.988824 7.15625,-7.5625 2.744064,-3.495729 5.134164,-5.961933 7,-7.46875 0.932918,-0.753409 1.729195,-1.288228 2.34375,-1.5625 0.614555,-0.274272 1.021406,-0.27688 1.15625,-0.21875 0.06742,0.02907 0.113592,0.06496 0.15625,0.15625 0.04266,0.09129 0.06872,0.258648 0.0625,0.5 -0.01245,0.482703 -0.211842,1.240784 -0.625,2.21875 -0.826317,1.955932 -2.52882,4.782489 -5.28125,8.375 -2.795813,3.649136 -4.578194,6.589349 -5.53125,8.75 -0.476528,1.080326 -0.742914,1.965431 -0.8125,2.6875 -0.06959,0.722069 0.07115,1.383313 0.59375,1.71875 0.522597,0.335437 1.181722,0.239612 1.875,-0.0625 0.693278,-0.302112 1.4801,-0.846627 2.40625,-1.625 1.852301,-1.556747 4.2043,-4.08698 6.90625,-7.71875 2.661277,-3.5771 4.735655,-5.883385 6.28125,-7.1875 0.772798,-0.652058 1.428246,-1.04899 1.90625,-1.25 C 92.571754,66.42399 92.857399,66.440948 93,66.5 c 0.142601,0.05905 0.23964,0.156824 0.3125,0.46875 0.07286,0.311926 0.06959,0.805488 -0.03125,1.375 -0.201674,1.139023 -0.796262,2.651085 -1.71875,4.15625 -0.934171,1.524229 -1.649036,2.802193 -1.9375,4.125 -0.288464,1.322807 -0.110032,2.655711 0.6875,4.125 1.595064,2.938578 5.5395,6.522684 13.28125,12.8125 l 0.625,-0.78125 c -7.724816,-6.276058 -11.577751,-9.879799 -13,-12.5 -0.711124,-1.3101 -0.836123,-2.326051 -0.59375,-3.4375 0.242373,-1.111449 0.891552,-2.341096 1.8125,-3.84375 0.977512,-1.594946 1.611001,-3.185471 1.84375,-4.5 0.116375,-0.657265 0.119692,-1.237576 0,-1.75 -0.119692,-0.512424 -0.41762,-0.985154 -0.90625,-1.1875 -0.48863,-0.202346 -1.066682,-0.136066 -1.6875,0.125 -0.620818,0.261066 -1.302471,0.743481 -2.125,1.4375 -1.645059,1.388038 -3.779871,3.6983 -6.46875,7.3125 -2.669702,3.588424 -4.95939,6.083864 -6.71875,7.5625 -0.87968,0.739318 -1.63654,1.228656 -2.1875,1.46875 -0.55096,0.240094 -0.858513,0.206949 -0.9375,0.15625 -0.07899,-0.0507 -0.177547,-0.235986 -0.125,-0.78125 0.05255,-0.545264 0.268364,-1.353941 0.71875,-2.375 0.900771,-2.042118 2.673989,-4.924276 5.4375,-8.53125 2.785001,-3.635023 4.52346,-6.504144 5.40625,-8.59375 0.441395,-1.044803 0.669534,-1.897113 0.6875,-2.59375 0.009,-0.348319 -0.0247,-0.65597 -0.15625,-0.9375 -0.131551,-0.28153 -0.371125,-0.533336 -0.65625,-0.65625 -0.57025,-0.245829 -1.231331,-0.110355 -1.96875,0.21875 -0.737419,0.329105 -1.585193,0.898244 -2.5625,1.6875 -1.954614,1.578513 -4.409882,4.086525 -7.1875,7.625 -2.770762,3.529741 -5.148501,5.978102 -6.96875,7.40625 -0.910124,0.714074 -1.675713,1.149665 -2.25,1.375 -0.574287,0.225335 -0.891211,0.192914 -1,0.125 -0.108789,-0.06791 -0.228987,-0.251958 -0.1875,-0.78125 0.04149,-0.529292 0.246435,-1.324065 0.6875,-2.3125 0.882131,-1.97687 2.621192,-4.747396 5.375,-8.1875 2.777689,-3.469936 4.556455,-6.294573 5.46875,-8.40625 0.456148,-1.055839 0.709384,-1.930466 0.75,-2.65625 0.04062,-0.725784 -0.159619,-1.382525 -0.6875,-1.71875 -0.527881,-0.336225 -1.210074,-0.265437 -1.9375,0 -0.727426,0.265437 -1.53928,0.734417 -2.5,1.46875 -1.92144,1.468667 -4.359864,3.912832 -7.125,7.4375 -2.70241,3.444713 -4.98186,5.775199 -6.71875,7.125 -0.868445,0.674901 -1.623748,1.115114 -2.15625,1.3125 -0.532502,0.197386 -0.787584,0.125643 -0.875,0.0625 -0.08742,-0.06314 -0.210783,-0.258924 -0.15625,-0.78125 0.05453,-0.522326 0.280977,-1.270621 0.71875,-2.21875 0.875547,-1.896258 2.573099,-4.544116 5.21875,-7.75 2.672112,-3.237948 4.432371,-5.95228 5.4375,-8.09375 1.005129,-2.14147 1.34868,-3.705501 0.90625,-4.78125 -0.221215,-0.537874 -0.73978,-0.907807 -1.3125,-0.96875 -0.57272,-0.06094 -1.188367,0.112792 -1.875,0.46875 -1.373266,0.711915 -3.036076,2.191951 -4.90625,4.5 -1.177307,1.452957 -2.412064,1.836096 -3.875,1.5625 -1.462936,-0.273596 -3.167635,-1.291963 -5,-2.8125 -3.66473,-3.041074 -7.795664,-8.01366 -12,-12.40625 z"
       id="path3725" />
    <path
       style="font-size:medium;font-style:normal;font-variant:normal;font-weight:normal;font-stretch:normal;text-indent:0;text-align:start;text-decoration:none;line-height:normal;letter-spacing:normal;word-spacing:normal;text-transform:none;direction:ltr;block-progression:tb;writing-mode:lr-tb;text-anchor:start;color:#000000;fill:#000000;fill-opacity:1;stroke:none;stroke-width:1px;marker:none;visibility:visible;display:inline;overflow:visible;enable-background:accumulate;font-family:Andale Mono;-inkscape-font-specification:Andale Mono"
       d="m 53.65625,21.84375 -0.65625,0.75 64,56.5625 0.65625,-0.75 -64,-56.5625 z"
       id="path3727" />
    <path
       style="font-size:12px;fill-rule:evenodd;stroke-width:0.625;stroke-linejoin:round"
       d="m 112.24815,68.388856 6.07758,11.271133 -11.93169,-4.648668 c 3.1667,-0.683291 5.52279,-3.36533 5.85411,-6.622465 z"
       id="path4908" />
    <path
       style="font-size:12px;font-style:normal;font-variant:normal;font-weight:normal;font-stretch:normal;text-align:start;line-height:125%;writing-mode:lr-tb;text-anchor:start;fill:#000000;fill-opacity:1;stroke:none;font-family:DejaVu Sans;-inkscape-font-specification:DejaVu Sans"
       d="M 86.8125 35.15625 C 85.828122 35.156257 85.050779 35.460943 84.46875 36.09375 C 83.890624 36.722661 83.59375 37.582036 83.59375 38.65625 C 83.59375 39.695315 83.890624 40.515627 84.5 41.125 C 85.113279 41.734375 85.953122 42.03125 87 42.03125 C 87.417965 42.03125 87.812495 41.99219 88.21875 41.90625 C 88.624995 41.820312 89.019526 41.695312 89.40625 41.53125 L 89.40625 40.5 C 89.023432 40.703126 88.64062 40.867188 88.25 40.96875 C 87.863277 41.070313 87.476558 41.125001 87.0625 41.125 C 86.347653 41.125001 85.777341 40.91797 85.375 40.53125 C 84.976561 40.140627 84.76562 39.58594 84.71875 38.84375 L 89.65625 38.84375 L 89.65625 38.3125 C 89.656243 37.335942 89.421869 36.566411 88.90625 36 C 88.394526 35.429693 87.695308 35.156257 86.8125 35.15625 z M 86.8125 36.0625 C 87.343746 36.062506 87.773432 36.242193 88.09375 36.59375 C 88.417963 36.945317 88.58595 37.410161 88.59375 38 L 84.75 38 C 84.804685 37.382817 85.015623 36.902349 85.375 36.5625 C 85.738279 36.222662 86.210934 36.062506 86.8125 36.0625 z "
       id="path4958" />
    <path
       style="font-size:9px;font-style:normal;font-variant:normal;font-weight:normal;font-stretch:normal;text-align:start;line-height:125%;writing-mode:lr-tb;text-anchor:start;fill:#000000;fill-opacity:1;stroke:none;font-family:DejaVu Sans;-inkscape-font-specification:DejaVu Sans"
       d="m 91.601104,44.524131 1.450195,0 0,-5.005371 -1.577636,0.316406 0,-0.808593 1.568847,-0.316407 0.887695,0 0,5.813965 1.450196,0 0,0.74707 -3.779297,0 0,-0.74707"
       id="path4882" />
    <path
       style="font-size:9px;font-style:normal;font-variant:normal;font-weight:normal;font-stretch:normal;text-align:start;line-height:125%;writing-mode:lr-tb;text-anchor:start;fill:#000000;fill-opacity:1;stroke:none;font-family:DejaVu Sans;-inkscape-font-specification:DejaVu Sans"
       d="m 97.270049,44.154991 0.927246,0 0,0.755859 -0.720703,1.40625 -0.566894,0 0.360351,-1.40625 0,-0.755859"
       id="path4884" />
    <path
       style="font-size:9px;font-style:normal;font-variant:normal;font-weight:normal;font-stretch:normal;text-align:start;line-height:125%;writing-mode:lr-tb;text-anchor:start;fill:#000000;fill-opacity:1;stroke:none;font-family:DejaVu Sans;-inkscape-font-specification:DejaVu Sans"
       d="m 100.80765,44.524131 3.09814,0 0,0.74707 -4.166014,0 0,-0.74707 c 0.336914,-0.348632 0.795414,-0.815916 1.375484,-1.401855 0.58301,-0.588865 0.94922,-0.968259 1.09864,-1.138184 0.28417,-0.319332 0.48193,-0.588863 0.59326,-0.808594 0.11425,-0.222652 0.17138,-0.440913 0.17138,-0.654785 0,-0.348628 -0.12305,-0.632807 -0.36914,-0.852539 -0.24316,-0.219721 -0.56103,-0.329584 -0.95361,-0.32959 -0.27832,6e-6 -0.57275,0.04835 -0.8833,0.14502 -0.30762,0.09669 -0.63721,0.243169 -0.988769,0.439453 l 0,-0.896484 c 0.357419,-0.143549 0.691409,-0.251947 1.001949,-0.325196 0.31055,-0.07324 0.59473,-0.109856 0.85254,-0.109863 0.67969,7e-6 1.22168,0.169928 1.62598,0.509766 0.40429,0.339849 0.60644,0.79395 0.60644,1.362304 0,0.269536 -0.0513,0.525883 -0.1538,0.769043 -0.0996,0.240238 -0.28272,0.524418 -0.54932,0.852539 -0.0732,0.08496 -0.30616,0.331058 -0.69873,0.738282 -0.39258,0.404298 -0.94629,0.971192 -1.66113,1.700683"
       id="path4886" />
    <path
       style="font-size:12px;font-style:normal;font-variant:normal;font-weight:normal;font-stretch:normal;text-align:start;line-height:125%;writing-mode:lr-tb;text-anchor:start;fill:#000000;fill-opacity:1;stroke:none;font-family:DejaVu Sans;-inkscape-font-specification:DejaVu Sans"
       d="m 24.575211,83.258443 5.53125,0 0,0.996094 -4.347656,0 0,2.589844 4.166016,0 0,0.996093 -4.166016,0 0,3.169922 4.453125,0 0,0.996094 -5.636719,0 0,-8.748047"
       id="path4889" />
    <path
       style="font-size:12px;font-style:normal;font-variant:normal;font-weight:normal;font-stretch:normal;text-align:start;line-height:125%;writing-mode:lr-tb;text-anchor:start;fill:#000000;fill-opacity:1;stroke:none;font-family:DejaVu Sans;-inkscape-font-specification:DejaVu Sans"
       d="m 32.397477,90.518209 1.236328,0 0,1.007812 -0.960937,1.875 -0.75586,0 0.480469,-1.875 0,-1.007812"
       id="path4891" />
    <path
       style="font-size:12px;font-style:normal;font-variant:normal;font-weight:normal;font-stretch:normal;text-align:start;line-height:125%;writing-mode:lr-tb;text-anchor:start;fill:#000000;fill-opacity:1;stroke:none;font-family:DejaVu Sans;-inkscape-font-specification:DejaVu Sans"
       d="m 39.809586,83.258443 1.183594,0 0,7.751953 4.259766,0 0,0.996094 -5.44336,0 0,-8.748047"
       id="path4893" />
    <path
       style="font-size:9px;font-style:normal;font-variant:normal;font-weight:normal;font-stretch:normal;text-align:start;line-height:125%;writing-mode:lr-tb;text-anchor:start;fill:#000000;fill-opacity:1;stroke:none;font-family:DejaVu Sans;-inkscape-font-specification:DejaVu Sans"
       d="m 47.237278,93.591378 1.450195,0 0,-5.005371 -1.577636,0.316406 0,-0.808593 1.568847,-0.316407 0.887695,0 0,5.813965 1.450196,0 0,0.74707 -3.779297,0 0,-0.74707"
       id="path4896" />
    <path
       style="font-size:9px;font-style:normal;font-variant:normal;font-weight:normal;font-stretch:normal;text-align:start;line-height:125%;writing-mode:lr-tb;text-anchor:start;fill:#000000;fill-opacity:1;stroke:none;font-family:DejaVu Sans;-inkscape-font-specification:DejaVu Sans"
       d="m 52.906223,93.222238 0.927246,0 0,0.755859 -0.720703,1.40625 -0.566894,0 0.360351,-1.40625 0,-0.755859"
       id="path4898" />
    <path
       style="font-size:9px;font-style:normal;font-variant:normal;font-weight:normal;font-stretch:normal;text-align:start;line-height:125%;writing-mode:lr-tb;text-anchor:start;fill:#000000;fill-opacity:1;stroke:none;font-family:DejaVu Sans;-inkscape-font-specification:DejaVu Sans"
       d="m 56.443821,93.591378 3.098144,0 0,0.74707 -4.166015,0 0,-0.74707 c 0.336913,-0.348632 0.795409,-0.815916 1.375488,-1.401855 0.583005,-0.588865 0.949216,-0.968259 1.098633,-1.138184 0.284176,-0.319332 0.48193,-0.588863 0.593262,-0.808594 0.114254,-0.222652 0.171382,-0.440913 0.171386,-0.654785 -4e-6,-0.348628 -0.12305,-0.632807 -0.36914,-0.852539 -0.243168,-0.219721 -0.561038,-0.329584 -0.953614,-0.32959 -0.278322,6e-6 -0.572755,0.04835 -0.8833,0.14502 -0.307619,0.09669 -0.637208,0.243169 -0.98877,0.439453 l 0,-0.896484 c 0.357421,-0.143549 0.691405,-0.251947 1.001953,-0.325196 0.310545,-0.07324 0.594725,-0.109856 0.852539,-0.109863 0.679685,7e-6 1.221676,0.169928 1.625977,0.509766 0.404292,0.339849 0.60644,0.79395 0.606445,1.362304 -5e-6,0.269536 -0.05127,0.525883 -0.153808,0.769043 -0.09961,0.240238 -0.28272,0.524418 -0.549317,0.852539 -0.07325,0.08496 -0.306156,0.331058 -0.69873,0.738282 -0.392581,0.404298 -0.946292,0.971192 -1.661133,1.700683"
       id="path4900" />
  </g>
</svg>
