<?xml version="1.0" encoding="UTF-8" standalone="no"?>
<!-- Created with Inkscape (http://www.inkscape.org/) -->

<svg
   xmlns:dc="http://purl.org/dc/elements/1.1/"
   xmlns:cc="http://creativecommons.org/ns#"
   xmlns:rdf="http://www.w3.org/1999/02/22-rdf-syntax-ns#"
   xmlns:svg="http://www.w3.org/2000/svg"
   xmlns="http://www.w3.org/2000/svg"
   xmlns:sodipodi="http://sodipodi.sourceforge.net/DTD/sodipodi-0.dtd"
   xmlns:inkscape="http://www.inkscape.org/namespaces/inkscape"
   width="350"
   height="50"
   id="svg2"
   version="1.1"
   inkscape:version="0.47 r22583"
   sodipodi:docname="drawing.svg">
  <defs
     id="defs4" />
  <sodipodi:namedview
     id="base"
     pagecolor="#ffffff"
     bordercolor="#666666"
     borderopacity="1.0"
     inkscape:pageopacity="0.0"
     inkscape:pageshadow="2"
     inkscape:zoom="2.8"
     inkscape:cx="178.31509"
     inkscape:cy="0.30552692"
     inkscape:document-units="px"
     inkscape:current-layer="layer1"
     showgrid="false"
     inkscape:window-width="1589"
     inkscape:window-height="1117"
     inkscape:window-x="1600"
     inkscape:window-y="27"
     inkscape:window-maximized="1"
     showguides="true"
     inkscape:guide-bbox="true" />
  <metadata
     id="metadata7">
    <rdf:RDF>
      <cc:Work
         rdf:about="">
        <dc:format>image/svg+xml</dc:format>
        <dc:type
           rdf:resource="http://purl.org/dc/dcmitype/StillImage" />
        <dc:title />
      </cc:Work>
    </rdf:RDF>
  </metadata>
  <g
     inkscape:label="Layer 1"
     inkscape:groupmode="layer"
     id="layer1">
    <path
       style="font-size:medium;font-style:normal;font-variant:normal;font-weight:normal;font-stretch:normal;text-indent:0;text-align:start;text-decoration:none;line-height:normal;letter-spacing:normal;word-spacing:normal;text-transform:none;direction:ltr;block-progression:tb;writing-mode:lr-tb;text-anchor:start;color:#000000;fill:#000000;fill-opacity:1;stroke:none;stroke-width:1px;marker:none;visibility:visible;display:inline;overflow:visible;enable-background:accumulate;font-family:Bitstream Charter;-inkscape-font-specification:Bitstream Charter"
       d="m 7.96875,32.3125 0,1 337,0 0,-1 -337,0 z"
       id="path2813" />
    <path
       style="font-size:12px;fill-rule:evenodd;stroke-width:0.625;stroke-linejoin:round"
       d="m 334.27665,28.387746 12.01847,4.419494 -12.01847,4.419494 c 1.92005,-2.609267 1.90899,-6.179198 0,-8.838988 z"
       id="path4308" />
    <path
       style="font-size:medium;font-style:normal;font-variant:normal;font-weight:normal;font-stretch:normal;text-indent:0;text-align:start;text-decoration:none;line-height:normal;letter-spacing:normal;word-spacing:normal;text-transform:none;direction:ltr;block-progression:tb;writing-mode:lr-tb;text-anchor:start;color:#000000;fill:#000000;fill-opacity:1;stroke:none;stroke-width:1px;marker:none;visibility:visible;display:inline;overflow:visible;enable-background:accumulate;font-family:Bitstream Charter;-inkscape-font-specification:Bitstream Charter"
       d="m 7.09375,24.25 0,17.15625 1,0 0,-17.15625 -1,0 z"
       id="path4035" />
    <path
       style="font-size:medium;font-style:normal;font-variant:normal;font-weight:normal;font-stretch:normal;text-indent:0;text-align:start;text-decoration:none;line-height:normal;letter-spacing:normal;word-spacing:normal;text-transform:none;direction:ltr;block-progression:tb;writing-mode:lr-tb;text-anchor:start;color:#000000;fill:#000000;fill-opacity:1;stroke:none;stroke-width:1px;marker:none;visibility:visible;display:inline;overflow:visible;enable-background:accumulate;font-family:Bitstream Charter;-inkscape-font-specification:Bitstream Charter"
       d="m 47.09375,24.25 0,17.15625 1,0 0,-17.15625 -1,0 z"
       id="path4087" />
    <path
       style="font-size:medium;font-style:normal;font-variant:normal;font-weight:normal;font-stretch:normal;text-indent:0;text-align:start;text-decoration:none;line-height:normal;letter-spacing:normal;word-spacing:normal;text-transform:none;direction:ltr;block-progression:tb;writing-mode:lr-tb;text-anchor:start;color:#000000;fill:#000000;fill-opacity:1;stroke:none;stroke-width:1px;marker:none;visibility:visible;display:inline;overflow:visible;enable-background:accumulate;font-family:Bitstream Charter;-inkscape-font-specification:Bitstream Charter"
       d="m 87.09375,24.25 0,17.15625 1,0 0,-17.15625 -1,0 z"
       id="path4089" />
    <path
       style="font-size:medium;font-style:normal;font-variant:normal;font-weight:normal;font-stretch:normal;text-indent:0;text-align:start;text-decoration:none;line-height:normal;letter-spacing:normal;word-spacing:normal;text-transform:none;direction:ltr;block-progression:tb;writing-mode:lr-tb;text-anchor:start;color:#000000;fill:#000000;fill-opacity:1;stroke:none;stroke-width:1px;marker:none;visibility:visible;display:inline;overflow:visible;enable-background:accumulate;font-family:Bitstream Charter;-inkscape-font-specification:Bitstream Charter"
       d="m 127.09375,24.25 0,17.15625 1,0 0,-17.15625 -1,0 z"
       id="path4091" />
    <path
       style="font-size:medium;font-style:normal;font-variant:normal;font-weight:normal;font-stretch:normal;text-indent:0;text-align:start;text-decoration:none;line-height:normal;letter-spacing:normal;word-spacing:normal;text-transform:none;direction:ltr;block-progression:tb;writing-mode:lr-tb;text-anchor:start;color:#000000;fill:#000000;fill-opacity:1;stroke:none;stroke-width:1px;marker:none;visibility:visible;display:inline;overflow:visible;enable-background:accumulate;font-family:Bitstream Charter;-inkscape-font-specification:Bitstream Charter"
       d="m 167.09375,24.25 0,17.15625 1,0 0,-17.15625 -1,0 z"
       id="path4093" />
    <path
       style="font-size:medium;font-style:normal;font-variant:normal;font-weight:normal;font-stretch:normal;text-indent:0;text-align:start;text-decoration:none;line-height:normal;letter-spacing:normal;word-spacing:normal;text-transform:none;direction:ltr;block-progression:tb;writing-mode:lr-tb;text-anchor:start;color:#000000;fill:#000000;fill-opacity:1;stroke:none;stroke-width:1px;marker:none;visibility:visible;display:inline;overflow:visible;enable-background:accumulate;font-family:Bitstream Charter;-inkscape-font-specification:Bitstream Charter"
       d="m 207.09375,24.25 0,17.15625 1,0 0,-17.15625 -1,0 z"
       id="path4095" />
    <path
       style="font-size:medium;font-style:normal;font-variant:normal;font-weight:normal;font-stretch:normal;text-indent:0;text-align:start;text-decoration:none;line-height:normal;letter-spacing:normal;word-spacing:normal;text-transform:none;direction:ltr;block-progression:tb;writing-mode:lr-tb;text-anchor:start;color:#000000;fill:#000000;fill-opacity:1;stroke:none;stroke-width:1px;marker:none;visibility:visible;display:inline;overflow:visible;enable-background:accumulate;font-family:Bitstream Charter;-inkscape-font-specification:Bitstream Charter"
       d="m 247.09375,24.25 0,17.15625 1,0 0,-17.15625 -1,0 z"
       id="path4097" />
    <path
       style="font-size:medium;font-style:normal;font-variant:normal;font-weight:normal;font-stretch:normal;text-indent:0;text-align:start;text-decoration:none;line-height:normal;letter-spacing:normal;word-spacing:normal;text-transform:none;direction:ltr;block-progression:tb;writing-mode:lr-tb;text-anchor:start;color:#000000;fill:#000000;fill-opacity:1;stroke:none;stroke-width:1px;marker:none;visibility:visible;display:inline;overflow:visible;enable-background:accumulate;font-family:Bitstream Charter;-inkscape-font-specification:Bitstream Charter"
       d="m 287.09375,24.25 0,17.15625 1,0 0,-17.15625 -1,0 z"
       id="path4099" />
    <path
       style="font-size:medium;font-style:normal;font-variant:normal;font-weight:normal;font-stretch:normal;text-indent:0;text-align:start;text-decoration:none;line-height:normal;letter-spacing:normal;word-spacing:normal;text-transform:none;direction:ltr;block-progression:tb;writing-mode:lr-tb;text-anchor:start;color:#000000;fill:#000000;fill-opacity:1;stroke:none;stroke-width:1px;marker:none;visibility:visible;display:inline;overflow:visible;enable-background:accumulate;font-family:Bitstream Charter;-inkscape-font-specification:Bitstream Charter"
       d="m 327.09375,24.25 0,17.15625 1,0 0,-17.15625 -1,0 z"
       id="path4101" />
    <path
       style="font-size:12px;font-style:normal;font-variant:normal;font-weight:normal;font-stretch:normal;fill:#000000;fill-opacity:1;stroke:none;font-family:DejaVu Sans;-inkscape-font-specification:DejaVu Sans"
       d="m 5.3198176,8.277182 0,1.863281 2.2207032,0 0,0.837891 -2.2207032,0 0,3.5625 c -2.2e-6,0.535157 0.072263,0.878907 0.2167969,1.03125 0.1484349,0.152344 0.4472628,0.228516 0.8964844,0.228515 l 1.1074219,0 0,0.902344 -1.1074219,0 c -0.8320338,0 -1.4062519,-0.154297 -1.7226563,-0.462891 C 4.3940351,15.927573 4.2358321,15.361167 4.2358332,14.540854 l 0,-3.5625 -0.7910156,0 0,-0.837891 0.7910156,0 0,-1.863281 1.0839844,0"
       id="path4223" />
    <path
       style="font-size:8px;font-style:normal;font-variant:normal;font-weight:normal;font-stretch:normal;fill:#000000;fill-opacity:1;stroke:none;font-family:DejaVu Sans;-inkscape-font-specification:DejaVu Sans"
       d="M 10.8125 13.65625 C 10.158852 13.656256 9.6588528 13.919277 9.3125 14.4375 C 8.9687494 14.95313 8.7812495 15.703129 8.78125 16.6875 C 8.7812495 17.669273 8.9687494 18.419272 9.3125 18.9375 C 9.6588528 19.453125 10.158852 19.718749 10.8125 19.71875 C 11.466142 19.718749 11.937497 19.453125 12.28125 18.9375 C 12.6276 18.419272 12.812495 17.669273 12.8125 16.6875 C 12.812495 15.703129 12.6276 14.95313 12.28125 14.4375 C 11.937497 13.919277 11.466142 13.656256 10.8125 13.65625 z M 10.8125 14.28125 C 11.221351 14.281256 11.515622 14.505213 11.71875 14.90625 C 11.924476 15.304692 12.031246 15.88542 12.03125 16.6875 C 12.031246 17.486981 11.924476 18.09896 11.71875 18.5 C 11.515622 18.898438 11.221351 19.09375 10.8125 19.09375 C 10.406248 19.09375 10.080727 18.898438 9.875 18.5 C 9.6718736 18.09896 9.5624987 17.486981 9.5625 16.6875 C 9.5624987 15.88542 9.6718736 15.304692 9.875 14.90625 C 10.080727 14.505213 10.406248 14.281256 10.8125 14.28125 z "
       id="path4354" />
    <path
       style="font-size:12px;font-style:normal;font-variant:normal;font-weight:normal;font-stretch:normal;fill:#000000;fill-opacity:1;stroke:none;font-family:DejaVu Sans;-inkscape-font-specification:DejaVu Sans"
       d="m 45.319818,8.277182 0,1.863281 2.220703,0 0,0.837891 -2.220703,0 0,3.5625 c -3e-6,0.535157 0.07226,0.878907 0.216796,1.03125 0.148435,0.152344 0.447263,0.228516 0.896485,0.228515 l 1.107422,0 0,0.902344 -1.107422,0 c -0.832034,0 -1.406252,-0.154297 -1.722656,-0.462891 -0.316408,-0.312499 -0.474611,-0.878905 -0.47461,-1.699218 l 0,-3.5625 -0.791015,0 0,-0.837891 0.791015,0 0,-1.863281 1.083985,0"
       id="path4229" />
    <path
       style="font-size:8px;font-style:normal;font-variant:normal;font-weight:normal;font-stretch:normal;fill:#000000;fill-opacity:1;stroke:none;font-family:DejaVu Sans;-inkscape-font-specification:DejaVu Sans"
       d="m 49.248978,18.94125 1.289062,0 0,-4.449219 -1.402344,0.28125 0,-0.71875 1.394532,-0.28125 0.789062,0 0,5.167969 1.289063,0 0,0.664062 -3.359375,0 0,-0.664062"
       id="path4232" />
    <path
       style="font-size:12px;font-style:normal;font-variant:normal;font-weight:normal;font-stretch:normal;fill:#000000;fill-opacity:1;stroke:none;font-family:DejaVu Sans;-inkscape-font-specification:DejaVu Sans"
       d="m 85.319818,8.277182 0,1.863281 2.220703,0 0,0.837891 -2.220703,0 0,3.5625 c -3e-6,0.535157 0.07226,0.878907 0.216796,1.03125 0.148435,0.152344 0.447263,0.228516 0.896485,0.228515 l 1.107422,0 0,0.902344 -1.107422,0 c -0.832034,0 -1.406252,-0.154297 -1.722656,-0.462891 -0.316408,-0.312499 -0.474611,-0.878905 -0.47461,-1.699218 l 0,-3.5625 -0.791015,0 0,-0.837891 0.791015,0 0,-1.863281 1.083985,0"
       id="path4235" />
    <path
       style="font-size:8px;font-style:normal;font-variant:normal;font-weight:normal;font-stretch:normal;fill:#000000;fill-opacity:1;stroke:none;font-family:DejaVu Sans;-inkscape-font-specification:DejaVu Sans"
       d="m 89.791951,18.94125 2.753906,0 0,0.664062 -3.703125,0 0,-0.664062 c 0.299479,-0.309895 0.70703,-0.725259 1.222657,-1.246094 0.518227,-0.523435 0.843747,-0.860674 0.976562,-1.011719 0.252601,-0.283851 0.428382,-0.523434 0.527344,-0.71875 0.101559,-0.197913 0.15234,-0.391923 0.152344,-0.582031 -4e-6,-0.309891 -0.109379,-0.562495 -0.328125,-0.757812 -0.216149,-0.195308 -0.498701,-0.292964 -0.847657,-0.292969 -0.247397,5e-6 -0.509116,0.04297 -0.785156,0.128906 -0.273439,0.08594 -0.566407,0.216151 -0.878906,0.390625 l 0,-0.796875 c 0.317707,-0.127598 0.614582,-0.223953 0.890625,-0.289062 0.27604,-0.0651 0.528644,-0.09765 0.757812,-0.09766 0.604164,6e-6 1.085935,0.151048 1.445313,0.453125 0.359371,0.302089 0.539058,0.705734 0.539062,1.210938 -4e-6,0.239587 -0.04558,0.467452 -0.136718,0.683594 -0.08855,0.213545 -0.251306,0.466148 -0.488282,0.757812 -0.06511,0.07552 -0.272138,0.294273 -0.621093,0.65625 -0.348961,0.359377 -0.841148,0.863283 -1.476563,1.511719"
       id="path4238" />
    <path
       style="font-size:12px;font-style:normal;font-variant:normal;font-weight:normal;font-stretch:normal;fill:#000000;fill-opacity:1;stroke:none;font-family:DejaVu Sans;-inkscape-font-specification:DejaVu Sans"
       d="m 315.8249,8.277182 0,1.863281 2.2207,0 0,0.837891 -2.2207,0 0,3.5625 c -1e-5,0.535157 0.0723,0.878907 0.21679,1.03125 0.14844,0.152344 0.44727,0.228516 0.89649,0.228515 l 1.10742,0 0,0.902344 -1.10742,0 c -0.83204,0 -1.40626,-0.154297 -1.72266,-0.462891 -0.31641,-0.312499 -0.47461,-0.878905 -0.47461,-1.699218 l 0,-3.5625 -0.79101,0 0,-0.837891 0.79101,0 0,-1.863281 1.08399,0"
       id="path4241" />
    <path
       style="font-size:8px;font-style:normal;font-variant:normal;font-weight:normal;font-stretch:normal;fill:#000000;fill-opacity:1;stroke:none;font-family:DejaVu Sans;-inkscape-font-specification:DejaVu Sans"
       d="m 319.54703,13.773281 1.0625,0 2.58593,4.878906 0,-4.878906 0.76563,0 0,5.832031 -1.0625,0 -2.58594,-4.878906 0,4.878906 -0.76562,0 0,-5.832031"
       id="path4244" />
    <path
       style="font-size:8px;font-style:normal;font-variant:normal;font-weight:normal;font-stretch:normal;fill:#000000;fill-opacity:1;stroke:none;font-family:DejaVu Sans;-inkscape-font-specification:DejaVu Sans"
       d="m 330.97281,14.589687 0,2.175782 2.17578,0 0,0.664062 -2.17578,0 0,2.175781 -0.65625,0 0,-2.175781 -2.17578,0 0,-0.664062 2.17578,0 0,-2.175782 0.65625,0"
       id="path4246" />
    <path
       style="font-size:8px;font-style:normal;font-variant:normal;font-weight:normal;font-stretch:normal;fill:#000000;fill-opacity:1;stroke:none;font-family:DejaVu Sans;-inkscape-font-specification:DejaVu Sans"
       d="m 337.53531,18.94125 1.28906,0 0,-4.449219 -1.40234,0.28125 0,-0.71875 1.39453,-0.28125 0.78906,0 0,5.167969 1.28906,0 0,0.664062 -3.35937,0 0,-0.664062"
       id="path4248" />
    <path
       style="font-size:12px;font-style:normal;font-variant:normal;font-weight:normal;font-stretch:normal;fill:#000000;fill-opacity:1;stroke:none;font-family:DejaVu Sans;-inkscape-font-specification:DejaVu Sans"
       d="m 236.30966,8.277182 0,1.863281 2.2207,0 0,0.837891 -2.2207,0 0,3.5625 c -1e-5,0.535157 0.0723,0.878907 0.21679,1.03125 0.14844,0.152344 0.44727,0.228516 0.89649,0.228515 l 1.10742,0 0,0.902344 -1.10742,0 c -0.83204,0 -1.40626,-0.154297 -1.72266,-0.462891 -0.31641,-0.312499 -0.47461,-0.878905 -0.47461,-1.699218 l 0,-3.5625 -0.79101,0 0,-0.837891 0.79101,0 0,-1.863281 1.08399,0"
       id="path4251" />
    <path
       style="font-size:8px;font-style:normal;font-variant:normal;font-weight:normal;font-stretch:normal;fill:#000000;fill-opacity:1;stroke:none;font-family:DejaVu Sans;-inkscape-font-specification:DejaVu Sans"
       d="m 243.63725,16.964687 0,2.640625 -0.71875,0 0,-2.617187 c 0,-0.41406 -0.0807,-0.723955 -0.24218,-0.929688 -0.16146,-0.205725 -0.40365,-0.30859 -0.72657,-0.308593 -0.38802,3e-6 -0.69401,0.123701 -0.91796,0.371093 -0.22396,0.247399 -0.33594,0.584639 -0.33594,1.011719 l 0,2.472656 -0.72266,0 0,-4.375 0.72266,0 0,0.679688 c 0.17187,-0.263017 0.37369,-0.459631 0.60547,-0.589844 0.23437,-0.130204 0.5039,-0.195308 0.80859,-0.195312 0.5026,4e-6 0.88281,0.156254 1.14063,0.46875 0.2578,0.309899 0.38671,0.76693 0.38671,1.371093"
       id="path4254" />
    <path
       style="font-size:8px;font-style:normal;font-variant:normal;font-weight:normal;font-stretch:normal;fill:#000000;fill-opacity:1;stroke:none;font-family:DejaVu Sans;-inkscape-font-specification:DejaVu Sans"
       d="m 250.55132,14.589687 0,2.175782 2.17578,0 0,0.664062 -2.17578,0 0,2.175781 -0.65625,0 0,-2.175781 -2.17578,0 0,-0.664062 2.17578,0 0,-2.175782 0.65625,0"
       id="path4256" />
    <path
       style="font-size:8px;font-style:normal;font-variant:normal;font-weight:normal;font-stretch:normal;fill:#000000;fill-opacity:1;stroke:none;font-family:DejaVu Sans;-inkscape-font-specification:DejaVu Sans"
       d="m 257.11382,18.94125 1.28906,0 0,-4.449219 -1.40234,0.28125 0,-0.71875 1.39453,-0.28125 0.78906,0 0,5.167969 1.28906,0 0,0.664062 -3.35937,0 0,-0.664062"
       id="path4258" />
    <path
       style="font-size:12px;font-style:normal;font-variant:normal;font-weight:normal;font-stretch:normal;fill:#000000;fill-opacity:1;stroke:none;font-family:DejaVu Sans;-inkscape-font-specification:DejaVu Sans"
       d="m 205.31982,8.277182 0,1.863281 2.2207,0 0,0.837891 -2.2207,0 0,3.5625 c -1e-5,0.535157 0.0723,0.878907 0.21679,1.03125 0.14844,0.152344 0.44727,0.228516 0.89649,0.228515 l 1.10742,0 0,0.902344 -1.10742,0 c -0.83204,0 -1.40626,-0.154297 -1.72266,-0.462891 -0.31641,-0.312499 -0.47461,-0.878905 -0.47461,-1.699218 l 0,-3.5625 -0.79101,0 0,-0.837891 0.79101,0 0,-1.863281 1.08399,0"
       id="path4261" />
    <path
       style="font-size:8px;font-style:normal;font-variant:normal;font-weight:normal;font-stretch:normal;fill:#000000;fill-opacity:1;stroke:none;font-family:DejaVu Sans;-inkscape-font-specification:DejaVu Sans"
       d="m 212.64741,16.964687 0,2.640625 -0.71875,0 0,-2.617187 c 0,-0.41406 -0.0807,-0.723955 -0.24218,-0.929688 -0.16146,-0.205725 -0.40365,-0.30859 -0.72657,-0.308593 -0.38802,3e-6 -0.69401,0.123701 -0.91796,0.371093 -0.22396,0.247399 -0.33594,0.584639 -0.33594,1.011719 l 0,2.472656 -0.72266,0 0,-4.375 0.72266,0 0,0.679688 c 0.17187,-0.263017 0.37369,-0.459631 0.60547,-0.589844 0.23437,-0.130204 0.5039,-0.195308 0.80859,-0.195312 0.5026,4e-6 0.88281,0.156254 1.14063,0.46875 0.2578,0.309899 0.38671,0.76693 0.38671,1.371093"
       id="path4264" />
  </g>
</svg>
