<?xml version="1.0" encoding="UTF-8" standalone="no"?>
<!-- Created with Inkscape (http://www.inkscape.org/) -->

<svg
   xmlns:dc="http://purl.org/dc/elements/1.1/"
   xmlns:cc="http://creativecommons.org/ns#"
   xmlns:rdf="http://www.w3.org/1999/02/22-rdf-syntax-ns#"
   xmlns:svg="http://www.w3.org/2000/svg"
   xmlns="http://www.w3.org/2000/svg"
   xmlns:sodipodi="http://sodipodi.sourceforge.net/DTD/sodipodi-0.dtd"
   xmlns:inkscape="http://www.inkscape.org/namespaces/inkscape"
   width="260"
   height="160"
   id="svg2"
   version="1.1"
   inkscape:version="0.47 r22583"
   sodipodi:docname="2010-(11)nov-10 figur 4.svg">
  <defs
     id="defs4" />
  <sodipodi:namedview
     id="base"
     pagecolor="#ffffff"
     bordercolor="#666666"
     borderopacity="1.0"
     inkscape:pageopacity="0.0"
     inkscape:pageshadow="2"
     inkscape:zoom="2.8284271"
     inkscape:cx="101.64439"
     inkscape:cy="50.13907"
     inkscape:document-units="px"
     inkscape:current-layer="layer1"
     showgrid="false"
     inkscape:window-width="1589"
     inkscape:window-height="1117"
     inkscape:window-x="1600"
     inkscape:window-y="27"
     inkscape:window-maximized="1"
     showguides="true"
     inkscape:guide-bbox="true"
     inkscape:snap-midpoints="true"
     inkscape:snap-global="false" />
  <metadata
     id="metadata7">
    <rdf:RDF>
      <cc:Work
         rdf:about="">
        <dc:format>image/svg+xml</dc:format>
        <dc:type
           rdf:resource="http://purl.org/dc/dcmitype/StillImage" />
        <dc:title />
      </cc:Work>
    </rdf:RDF>
  </metadata>
  <g
     inkscape:label="Layer 1"
     inkscape:groupmode="layer"
     id="layer1">
    <path
       style="font-size:9px;font-style:normal;font-variant:normal;font-weight:normal;font-stretch:normal;fill:#000000;fill-opacity:1;stroke:none;font-family:DejaVu Sans;-inkscape-font-specification:DejaVu Sans"
       d="M 13.6875 55.8125 C 12.952146 55.812507 12.389647 56.104498 12 56.6875 C 11.61328 57.267583 11.40625 58.111332 11.40625 59.21875 C 11.40625 60.323244 11.61328 61.166993 12 61.75 C 12.389647 62.330078 12.952146 62.625 13.6875 62.625 C 14.422848 62.625 14.957027 62.330078 15.34375 61.75 C 15.733394 61.166993 15.937495 60.323244 15.9375 59.21875 C 15.937495 58.111332 15.733394 57.267583 15.34375 56.6875 C 14.957027 56.104498 14.422848 55.812507 13.6875 55.8125 z M 13.6875 56.53125 C 14.147457 56.531256 14.49023 56.767584 14.71875 57.21875 C 14.950191 57.666997 15.062495 58.31641 15.0625 59.21875 C 15.062495 60.118166 14.950191 60.798829 14.71875 61.25 C 14.49023 61.698243 14.147457 61.9375 13.6875 61.9375 C 13.230466 61.9375 12.856443 61.698243 12.625 61.25 C 12.396483 60.798829 12.281249 60.118166 12.28125 59.21875 C 12.281249 58.31641 12.396483 57.666997 12.625 57.21875 C 12.856443 56.767584 13.230466 56.531256 13.6875 56.53125 z "
       id="path5099" />
    <path
       style="font-size:medium;font-style:normal;font-variant:normal;font-weight:normal;font-stretch:normal;text-indent:0;text-align:start;text-decoration:none;line-height:normal;letter-spacing:normal;word-spacing:normal;text-transform:none;direction:ltr;block-progression:tb;writing-mode:lr-tb;text-anchor:start;color:#000000;fill:#000000;fill-opacity:1;stroke:none;stroke-width:1px;marker:none;visibility:visible;display:inline;overflow:visible;enable-background:accumulate;font-family:Andale Mono;-inkscape-font-specification:Andale Mono"
       d="m 18.59375,12.21875 0,113.125 0,0.5 0.5,0 226.96875,0 0,-1 -226.46875,0 0,-112.625 -1,0 z"
       id="path2848" />
    <path
       style="font-size:12px;fill-rule:evenodd;stroke-width:0.625;stroke-linejoin:round"
       d="m 14.654774,22.905134 4.419494,-12.018465 4.419494,12.018465 c -2.609267,-1.920048 -6.179198,-1.908985 -8.838988,0 z"
       id="path5199" />
    <path
       style="font-size:12px;fill-rule:evenodd;stroke-width:0.625;stroke-linejoin:round"
       d="m 235.3827,120.91466 12.01847,4.4195 -12.01847,4.41949 c 1.92005,-2.60927 1.90899,-6.1792 0,-8.83899 z"
       id="path5201" />
    <path
       style="font-size:12px;font-style:normal;font-variant:normal;font-weight:normal;font-stretch:normal;fill:#000000;fill-opacity:1;stroke:none;font-family:DejaVu Sans;-inkscape-font-specification:DejaVu Sans"
       d="m 2.8242188,59.462943 1.1894531,0 0,5.314453 c -2.3e-6,0.937503 0.1699194,1.613283 0.5097656,2.027344 0.3398407,0.410157 0.8906214,0.615235 1.6523437,0.615234 0.7578074,10e-7 1.306635,-0.205077 1.6464844,-0.615234 0.3398374,-0.414061 0.5097591,-1.089841 0.5097657,-2.027344 l 0,-5.314453 1.1894531,0 0,5.460938 c -7.8e-6,1.140627 -0.2832106,2.001954 -0.8496094,2.583984 -0.5625063,0.582031 -1.3945367,0.873047 -2.4960938,0.873047 -1.105472,0 -1.9414087,-0.291016 -2.5078124,-0.873047 -0.5625014,-0.58203 -0.8437511,-1.443357 -0.84375,-2.583984 l 0,-5.460938"
       id="path5096" />
    <path
       style="font-size:medium;font-style:normal;font-variant:normal;font-weight:normal;font-stretch:normal;text-indent:0;text-align:start;text-decoration:none;line-height:normal;letter-spacing:normal;word-spacing:normal;text-transform:none;direction:ltr;block-progression:tb;writing-mode:lr-tb;text-anchor:start;color:#000000;fill:#000000;fill-opacity:1;stroke:none;stroke-width:1px;marker:none;visibility:visible;display:inline;overflow:visible;enable-background:accumulate;font-family:Andale Mono;-inkscape-font-specification:Andale Mono"
       d="m 18.59375,117.96875 0,14.84375 1,0 0,-14.84375 -1,0 z"
       id="path4297" />
    <path
       style="font-size:medium;font-style:normal;font-variant:normal;font-weight:normal;font-stretch:normal;text-indent:0;text-align:start;text-decoration:none;line-height:normal;letter-spacing:normal;word-spacing:normal;text-transform:none;direction:ltr;block-progression:tb;writing-mode:lr-tb;text-anchor:start;color:#000000;fill:#000000;fill-opacity:1;stroke:none;stroke-width:1px;marker:none;visibility:visible;display:inline;overflow:visible;enable-background:accumulate;font-family:Andale Mono;-inkscape-font-specification:Andale Mono"
       d="m 62.59375,117.96875 0,14.84375 1,0 0,-14.84375 -1,0 z"
       id="path4299" />
    <path
       style="font-size:medium;font-style:normal;font-variant:normal;font-weight:normal;font-stretch:normal;text-indent:0;text-align:start;text-decoration:none;line-height:normal;letter-spacing:normal;word-spacing:normal;text-transform:none;direction:ltr;block-progression:tb;writing-mode:lr-tb;text-anchor:start;color:#000000;fill:#000000;fill-opacity:1;stroke:none;stroke-width:1px;marker:none;visibility:visible;display:inline;overflow:visible;enable-background:accumulate;font-family:Andale Mono;-inkscape-font-specification:Andale Mono"
       d="m 106.59375,117.96875 0,14.84375 1,0 0,-14.84375 -1,0 z"
       id="path4301" />
    <path
       style="font-size:medium;font-style:normal;font-variant:normal;font-weight:normal;font-stretch:normal;text-indent:0;text-align:start;text-decoration:none;line-height:normal;letter-spacing:normal;word-spacing:normal;text-transform:none;direction:ltr;block-progression:tb;writing-mode:lr-tb;text-anchor:start;color:#000000;fill:#000000;fill-opacity:1;stroke:none;stroke-width:1px;marker:none;visibility:visible;display:inline;overflow:visible;enable-background:accumulate;font-family:Andale Mono;-inkscape-font-specification:Andale Mono"
       d="m 150.59375,117.96875 0,14.84375 1,0 0,-14.84375 -1,0 z"
       id="path4303" />
    <path
       style="font-size:medium;font-style:normal;font-variant:normal;font-weight:normal;font-stretch:normal;text-indent:0;text-align:start;text-decoration:none;line-height:normal;letter-spacing:normal;word-spacing:normal;text-transform:none;direction:ltr;block-progression:tb;writing-mode:lr-tb;text-anchor:start;color:#000000;fill:#000000;fill-opacity:1;stroke:none;stroke-width:1px;marker:none;visibility:visible;display:inline;overflow:visible;enable-background:accumulate;font-family:Andale Mono;-inkscape-font-specification:Andale Mono"
       d="m 194.59375,117.96875 0,14.84375 1,0 0,-14.84375 -1,0 z"
       id="path4305" />
    <path
       style="font-size:medium;font-style:normal;font-variant:normal;font-weight:normal;font-stretch:normal;text-indent:0;text-align:start;text-decoration:none;line-height:normal;letter-spacing:normal;word-spacing:normal;text-transform:none;direction:ltr;block-progression:tb;writing-mode:lr-tb;text-anchor:start;color:#000000;fill:#000000;fill-opacity:1;stroke:none;stroke-width:1px;marker:none;visibility:visible;display:inline;overflow:visible;enable-background:accumulate;font-family:Andale Mono;-inkscape-font-specification:Andale Mono"
       d="M 151.03125,33.71875 106.71875,66.78125 63.15625,45 62.96875,44.90625 62.75,44.96875 18.5625,61.9375 l 0.34375,0.9375 44,-16.875 43.65625,21.8125 0.25,0.15625 0.25,-0.1875 44.5625,-33.25 -0.59375,-0.8125 z"
       id="path4315" />
    <path
       style="fill-rule:evenodd;stroke:#000000;stroke-width:0.4pt;marker-start:none;marker-end:none"
       d="m 20.568064,61.716647 c 0.395761,1.030626 -0.119492,2.188273 -1.150118,2.584033 -1.030626,0.39576 -2.188273,-0.119493 -2.584033,-1.150119 -0.395761,-1.030626 0.119492,-2.188272 1.150118,-2.584033 1.030626,-0.39576 2.188273,0.119493 2.584033,1.150119 z"
       id="path5165" />
    <path
       style="fill-rule:evenodd;stroke:#000000;stroke-width:0.4pt;marker-start:none;marker-end:none"
       d="m 64.890198,45.543735 c -0.05353,1.102701 -0.991918,1.954204 -2.09462,1.900675 -1.102701,-0.05353 -1.954204,-0.991918 -1.900676,-2.094619 0.05353,-1.102702 0.991918,-1.954205 2.09462,-1.900676 1.102702,0.05353 1.954204,0.991918 1.900676,2.09462 z"
       id="path5167" />
    <path
       style="fill-rule:evenodd;stroke:#000000;stroke-width:0.4pt;marker-start:none;marker-end:none"
       d="m 108.72542,67.195477 c 0.0978,1.099664 -0.7154,2.071476 -1.81507,2.169222 -1.09966,0.09775 -2.07147,-0.715404 -2.16922,-1.815069 -0.0977,-1.099664 0.71541,-2.071476 1.81507,-2.169222 1.09966,-0.09775 2.07148,0.715404 2.16922,1.815069 z"
       id="path5169" />
    <path
       style="fill-rule:evenodd;stroke:#000000;stroke-width:0.4pt;marker-start:none;marker-end:none"
       d="m 152.89184,32.962987 c 0.66015,0.884882 0.47776,2.138822 -0.40713,2.798973 -0.88488,0.66015 -2.13882,0.477759 -2.79897,-0.407124 -0.66015,-0.884882 -0.47776,-2.138822 0.40712,-2.798973 0.88489,-0.66015 2.13883,-0.477759 2.79898,0.407124 z"
       id="path5171" />
    <path
       style="font-size:12px;font-style:normal;font-variant:normal;font-weight:normal;font-stretch:normal;fill:#000000;fill-opacity:1;stroke:none;font-family:DejaVu Sans;-inkscape-font-specification:DejaVu Sans"
       d="m 87.514589,28.615349 1.189453,0 0,5.314453 c -2e-6,0.937503 0.169919,1.613283 0.509766,2.027344 0.33984,0.410157 0.890621,0.615235 1.652343,0.615234 0.757808,10e-7 1.306635,-0.205077 1.646485,-0.615234 0.339837,-0.414061 0.509759,-1.089841 0.509765,-2.027344 l 0,-5.314453 1.189453,0 0,5.460938 c -7e-6,1.140627 -0.28321,2.001954 -0.849609,2.583984 -0.562506,0.582031 -1.394537,0.873047 -2.496094,0.873047 -1.105472,0 -1.941408,-0.291016 -2.507812,-0.873047 -0.562502,-0.58203 -0.843751,-1.443357 -0.84375,-2.583984 l 0,-5.460938"
       id="path5102" />
    <path
       style="font-size:12px;font-style:normal;font-variant:normal;font-weight:normal;font-stretch:normal;fill:#000000;fill-opacity:1;stroke:none;font-family:DejaVu Sans;-inkscape-font-specification:DejaVu Sans"
       d="m 98.981386,28.257927 c -0.523441,0.898446 -0.912113,1.787117 -1.166016,2.666016 -0.253909,0.878912 -0.380862,1.769536 -0.380859,2.671875 -3e-6,0.902346 0.12695,1.796877 0.380859,2.683594 0.25781,0.882812 0.646481,1.771483 1.166016,2.666015 l -0.9375,0 c -0.58594,-0.917969 -1.025393,-1.820312 -1.31836,-2.707031 -0.289063,-0.886717 -0.433595,-1.767575 -0.433593,-2.642578 -2e-6,-0.871089 0.14453,-1.748042 0.433593,-2.63086 0.289061,-0.882805 0.728514,-1.785148 1.31836,-2.707031 l 0.9375,0"
       id="path5104" />
    <path
       style="font-size:12px;font-style:normal;font-variant:normal;font-weight:normal;font-stretch:normal;fill:#000000;fill-opacity:1;stroke:none;font-family:DejaVu Sans;-inkscape-font-specification:DejaVu Sans"
       d="m 102.14545,28.937615 0,1.863281 2.2207,0 0,0.837891 -2.2207,0 0,3.5625 c 0,0.535157 0.0723,0.878907 0.2168,1.03125 0.14843,0.152344 0.44726,0.228516 0.89648,0.228515 l 1.10742,0 0,0.902344 -1.10742,0 c -0.83203,0 -1.40625,-0.154297 -1.72266,-0.462891 -0.3164,-0.312499 -0.47461,-0.878905 -0.47461,-1.699218 l 0,-3.5625 -0.79101,0 0,-0.837891 0.79101,0 0,-1.863281 1.08399,0"
       id="path5106" />
    <path
       style="font-size:12px;font-style:normal;font-variant:normal;font-weight:normal;font-stretch:normal;fill:#000000;fill-opacity:1;stroke:none;font-family:DejaVu Sans;-inkscape-font-specification:DejaVu Sans"
       d="m 105.62006,28.257927 0.9375,0 c 0.58593,0.921883 1.02343,1.824226 1.3125,2.707031 0.29296,0.882818 0.43945,1.759771 0.43945,2.63086 0,0.875003 -0.14649,1.755861 -0.43945,2.642578 -0.28907,0.886719 -0.72657,1.789062 -1.3125,2.707031 l -0.9375,0 c 0.51953,-0.894532 0.90625,-1.783203 1.16015,-2.666015 0.25781,-0.886717 0.38672,-1.781248 0.38672,-2.683594 0,-0.902339 -0.12891,-1.792963 -0.38672,-2.671875 -0.2539,-0.878899 -0.64062,-1.76757 -1.16015,-2.666016"
       id="path5108" />
    <path
       style="font-size:12px;font-style:normal;font-variant:normal;font-weight:normal;font-stretch:normal;fill:#000000;fill-opacity:1;stroke:none;font-family:DejaVu Sans;-inkscape-font-specification:DejaVu Sans"
       d="m 157.84463,29.373564 1.18945,0 0,5.314453 c 0,0.937503 0.16992,1.613283 0.50977,2.027344 0.33984,0.410157 0.89062,0.615235 1.65234,0.615234 0.75781,10e-7 1.30664,-0.205077 1.64649,-0.615234 0.33983,-0.414061 0.50975,-1.089841 0.50976,-2.027344 l 0,-5.314453 1.18945,0 0,5.460938 c 0,1.140627 -0.28321,2.001954 -0.84961,2.583984 -0.5625,0.582031 -1.39453,0.873047 -2.49609,0.873047 -1.10547,0 -1.94141,-0.291016 -2.50781,-0.873047 -0.5625,-0.58203 -0.84375,-1.443357 -0.84375,-2.583984 l 0,-5.460938"
       id="path5111" />
    <path
       style="font-size:12px;font-style:normal;font-variant:normal;font-weight:normal;font-stretch:normal;fill:#000000;fill-opacity:1;stroke:none;font-family:DejaVu Sans;-inkscape-font-specification:DejaVu Sans"
       d="m 176.95205,29.016142 c -0.52344,0.898446 -0.91211,1.787117 -1.16602,2.666016 -0.2539,0.878912 -0.38086,1.769536 -0.38085,2.671875 -1e-5,0.902346 0.12695,1.796877 0.38085,2.683594 0.25781,0.882812 0.64649,1.771483 1.16602,2.666015 l -0.9375,0 c -0.58594,-0.917969 -1.02539,-1.820312 -1.31836,-2.707031 -0.28906,-0.886717 -0.43359,-1.767575 -0.43359,-2.642578 0,-0.871089 0.14453,-1.748042 0.43359,-2.63086 0.28906,-0.882805 0.72851,-1.785148 1.31836,-2.707031 l 0.9375,0"
       id="path5113" />
    <path
       style="font-size:12px;font-style:normal;font-variant:normal;font-weight:normal;font-stretch:normal;fill:#000000;fill-opacity:1;stroke:none;font-family:DejaVu Sans;-inkscape-font-specification:DejaVu Sans"
       d="m 184.50478,34.160673 0,3.960938 -1.07812,0 0,-3.925781 c -1e-5,-0.62109 -0.1211,-1.085933 -0.36328,-1.394532 -0.24219,-0.308588 -0.60548,-0.462884 -1.08985,-0.46289 -0.58203,6e-6 -1.04101,0.185552 -1.37695,0.55664 -0.33594,0.371099 -0.50391,0.876958 -0.5039,1.517579 l 0,3.708984 -1.08399,0 0,-6.5625 1.08399,0 0,1.019531 c 0.25781,-0.394525 0.56054,-0.689447 0.9082,-0.884765 0.35156,-0.195306 0.75585,-0.292962 1.21289,-0.292969 0.7539,7e-6 1.32421,0.234381 1.71094,0.703125 0.38671,0.464849 0.58007,1.150395 0.58007,2.05664"
       id="path5115" />
    <path
       style="font-size:12px;font-style:normal;font-variant:normal;font-weight:normal;font-stretch:normal;fill:#000000;fill-opacity:1;stroke:none;font-family:DejaVu Sans;-inkscape-font-specification:DejaVu Sans"
       d="m 186.62588,29.004423 1.08398,0 0,5.384766 3.2168,-2.830078 1.37695,0 -3.48047,3.070312 3.62696,3.492188 -1.40625,0 -3.33399,-3.205078 0,3.205078 -1.08398,0 0,-9.117188"
       id="path5117" />
    <path
       style="font-size:12px;font-style:normal;font-variant:normal;font-weight:normal;font-stretch:normal;fill:#000000;fill-opacity:1;stroke:none;font-family:DejaVu Sans;-inkscape-font-specification:DejaVu Sans"
       d="m 193.45791,29.016142 0.9375,0 c 0.58593,0.921883 1.02343,1.824226 1.3125,2.707031 0.29296,0.882818 0.43945,1.759771 0.43945,2.63086 0,0.875003 -0.14649,1.755861 -0.43945,2.642578 -0.28907,0.886719 -0.72657,1.789062 -1.3125,2.707031 l -0.9375,0 c 0.51953,-0.894532 0.90625,-1.783203 1.16016,-2.666015 0.25781,-0.886717 0.38671,-1.781248 0.38671,-2.683594 0,-0.902339 -0.1289,-1.792963 -0.38671,-2.671875 -0.25391,-0.878899 -0.64063,-1.76757 -1.16016,-2.666016"
       id="path5119" />
    <path
       style="font-size:9px;font-style:normal;font-variant:normal;font-weight:normal;font-stretch:normal;fill:#000000;fill-opacity:1;stroke:none;font-family:DejaVu Sans;-inkscape-font-specification:DejaVu Sans"
       d="m 170.77105,29.444798 0,2.970703 -0.80859,0 0,-2.944335 c 0,-0.465817 -0.0908,-0.81445 -0.27246,-1.045899 -0.18165,-0.231441 -0.45411,-0.347164 -0.81738,-0.347168 -0.43653,4e-6 -0.78077,0.139164 -1.03272,0.417481 -0.25195,0.278324 -0.37793,0.657718 -0.37793,1.138183 l 0,2.781738 -0.81299,0 0,-4.921875 0.81299,0 0,0.764649 c 0.19336,-0.295894 0.42041,-0.517085 0.68115,-0.663574 0.26367,-0.14648 0.5669,-0.219722 0.90967,-0.219727 0.56543,5e-6 0.99316,0.175786 1.2832,0.527344 0.29004,0.348637 0.43506,0.862796 0.43506,1.54248"
       id="path5122" />
    <path
       style="font-size:12px;font-style:normal;font-variant:normal;font-weight:normal;font-stretch:normal;fill:#000000;fill-opacity:1;stroke:none;font-family:DejaVu Sans;-inkscape-font-specification:DejaVu Sans"
       d="m 169.75757,110.69084 1.1836,0 0,8.74805 -1.1836,0 0,-8.74805"
       id="path5125" />
    <path
       style="font-size:9px;font-style:normal;font-variant:normal;font-weight:normal;font-stretch:normal;fill:#000000;fill-opacity:1;stroke:none;font-family:DejaVu Sans;-inkscape-font-specification:DejaVu Sans"
       d="m 178.54923,118.76208 0,2.9707 -0.80859,0 0,-2.94434 c 0,-0.46581 -0.0908,-0.81445 -0.27246,-1.04589 -0.18165,-0.23145 -0.45411,-0.34717 -0.81738,-0.34717 -0.43653,0 -0.78077,0.13916 -1.03272,0.41748 -0.25195,0.27832 -0.37793,0.65772 -0.37793,1.13818 l 0,2.78174 -0.81299,0 0,-4.92188 0.81299,0 0,0.76465 c 0.19336,-0.29589 0.42041,-0.51708 0.68115,-0.66357 0.26367,-0.14648 0.5669,-0.21972 0.90967,-0.21973 0.56543,1e-5 0.99316,0.17579 1.2832,0.52735 0.29004,0.34863 0.43506,0.86279 0.43506,1.54248"
       id="path5128" />
    <path
       style="font-size:medium;font-style:normal;font-variant:normal;font-weight:normal;font-stretch:normal;text-indent:0;text-align:start;text-decoration:none;line-height:normal;letter-spacing:normal;word-spacing:normal;text-transform:none;direction:ltr;block-progression:tb;writing-mode:lr-tb;text-anchor:start;color:#000000;fill:#000000;fill-opacity:1;stroke:none;stroke-width:1px;marker:none;visibility:visible;display:inline;overflow:visible;enable-background:accumulate;font-family:Andale Mono;-inkscape-font-specification:Andale Mono"
       d="m 168.1875,110.09375 0,1 4.25,0 0,-1 -4.25,0 z"
       id="path5020" />
    <path
       style="font-size:medium;font-style:normal;font-variant:normal;font-weight:normal;font-stretch:normal;text-indent:0;text-align:start;text-decoration:none;line-height:normal;letter-spacing:normal;word-spacing:normal;text-transform:none;direction:ltr;block-progression:tb;writing-mode:lr-tb;text-anchor:start;color:#000000;fill:#000000;fill-opacity:1;stroke:none;stroke-width:1px;marker:none;visibility:visible;display:inline;overflow:visible;enable-background:accumulate;font-family:Andale Mono;-inkscape-font-specification:Andale Mono"
       d="m 168.1875,118.71875 0,1 4.25,0 0,-1 -4.25,0 z"
       id="path5022" />
    <path
       style="font-size:12px;font-style:normal;font-variant:normal;font-weight:normal;font-stretch:normal;fill:#000000;fill-opacity:1;stroke:none;font-family:DejaVu Sans;-inkscape-font-specification:DejaVu Sans"
       d="m 35.149414,126.64453 1.083984,0 0,5.38477 3.216797,-2.83008 1.376953,0 -3.480469,3.07031 3.626953,3.49219 -1.40625,0 -3.333984,-3.20508 0,3.20508 -1.083984,0 0,-9.11719"
       id="path5131" />
    <path
       style="font-size:12px;font-style:normal;font-variant:normal;font-weight:normal;font-stretch:normal;fill:#000000;fill-opacity:1;stroke:none;font-family:DejaVu Sans;-inkscape-font-specification:DejaVu Sans"
       d="m 81.149414,126.64453 1.083984,0 0,5.38477 3.216797,-2.83008 1.376953,0 -3.480469,3.07031 3.626953,3.49219 -1.40625,0 -3.333984,-3.20508 0,3.20508 -1.083984,0 0,-9.11719"
       id="path5134" />
    <path
       style="font-size:12px;font-style:normal;font-variant:normal;font-weight:normal;font-stretch:normal;fill:#000000;fill-opacity:1;stroke:none;font-family:DejaVu Sans;-inkscape-font-specification:DejaVu Sans"
       d="m 127.14941,126.64453 1.08399,0 0,5.38477 3.21679,-2.83008 1.37696,0 -3.48047,3.07031 3.62695,3.49219 -1.40625,0 -3.33398,-3.20508 0,3.20508 -1.08399,0 0,-9.11719"
       id="path5137" />
    <path
       style="font-size:12px;font-style:normal;font-variant:normal;font-weight:normal;font-stretch:normal;fill:#000000;fill-opacity:1;stroke:none;font-family:DejaVu Sans;-inkscape-font-specification:DejaVu Sans"
       d="m 136.49893,140.19583 0,1.86328 2.2207,0 0,0.83789 -2.2207,0 0,3.5625 c -1e-5,0.53516 0.0723,0.87891 0.21679,1.03125 0.14844,0.15234 0.44727,0.22852 0.89649,0.22852 l 1.10742,0 0,0.90234 -1.10742,0 c -0.83204,0 -1.40626,-0.1543 -1.72266,-0.46289 -0.31641,-0.3125 -0.47461,-0.87891 -0.47461,-1.69922 l 0,-3.5625 -0.79101,0 0,-0.83789 0.79101,0 0,-1.86328 1.08399,0"
       id="path5140" />
    <path
       style="font-size:12px;font-style:normal;font-variant:normal;font-weight:normal;font-stretch:normal;fill:#000000;fill-opacity:1;stroke:none;font-family:DejaVu Sans;-inkscape-font-specification:DejaVu Sans"
       d="m 144.10439,143.17239 7.51172,0 0,0.98438 -7.51172,0 0,-0.98438"
       id="path5291" />
    <path
       style="font-size:12px;font-style:normal;font-variant:normal;font-weight:normal;font-stretch:normal;fill:#000000;fill-opacity:1;stroke:none;font-family:DejaVu Sans;-inkscape-font-specification:DejaVu Sans"
       d="m 144.10439,145.56302 7.51172,0 0,0.99609 -7.51172,0 0,-0.99609"
       id="path5142" />
    <path
       style="font-size:12px;font-style:normal;font-variant:normal;font-weight:normal;font-stretch:normal;fill:#000000;fill-opacity:1;stroke:none;font-family:DejaVu Sans;-inkscape-font-specification:DejaVu Sans"
       d="m 159.47353,144.66067 0,3.96094 -1.07812,0 0,-3.92578 c -1e-5,-0.62109 -0.1211,-1.08593 -0.36328,-1.39453 -0.24219,-0.30859 -0.60548,-0.46289 -1.08985,-0.46289 -0.58203,0 -1.04101,0.18555 -1.37695,0.55664 -0.33594,0.3711 -0.50391,0.87695 -0.5039,1.51758 l 0,3.70898 -1.08399,0 0,-6.5625 1.08399,0 0,1.01953 c 0.25781,-0.39452 0.56054,-0.68945 0.9082,-0.88476 0.35156,-0.19531 0.75585,-0.29297 1.21289,-0.29297 0.7539,0 1.32421,0.23438 1.71094,0.70312 0.38671,0.46485 0.58007,1.1504 0.58007,2.05664"
       id="path5144" />
    <path
       style="font-size:12px;font-style:normal;font-variant:normal;font-weight:normal;font-stretch:normal;fill:#000000;fill-opacity:1;stroke:none;font-family:DejaVu Sans;-inkscape-font-specification:DejaVu Sans"
       d="m 161.59463,139.50442 1.08398,0 0,5.38477 3.2168,-2.83008 1.37695,0 -3.48047,3.07031 3.62696,3.49219 -1.40625,0 -3.33399,-3.20508 0,3.20508 -1.08398,0 0,-9.11719"
       id="path5146" />
    <path
       style="font-size:9px;font-style:normal;font-variant:normal;font-weight:normal;font-stretch:normal;fill:#000000;fill-opacity:1;stroke:none;font-family:DejaVu Sans;-inkscape-font-specification:DejaVu Sans"
       d="m 143.91749,139.9448 0,2.9707 -0.80859,0 0,-2.94433 c 0,-0.46582 -0.0908,-0.81445 -0.27246,-1.0459 -0.18165,-0.23144 -0.45411,-0.34717 -0.81738,-0.34717 -0.43653,0 -0.78077,0.13916 -1.03272,0.41748 -0.25195,0.27833 -0.37793,0.65772 -0.37793,1.13818 l 0,2.78174 -0.81299,0 0,-4.92187 0.81299,0 0,0.76465 c 0.19336,-0.2959 0.42041,-0.51709 0.68115,-0.66358 0.26367,-0.14648 0.5669,-0.21972 0.90967,-0.21973 0.56543,1e-5 0.99316,0.17579 1.2832,0.52735 0.29004,0.34864 0.43506,0.86279 0.43506,1.54248"
       id="path5149" />
  </g>
</svg>
