<?xml version="1.0" encoding="UTF-8" standalone="no"?>
<!-- Created with Inkscape (http://www.inkscape.org/) -->

<svg
   xmlns:dc="http://purl.org/dc/elements/1.1/"
   xmlns:cc="http://creativecommons.org/ns#"
   xmlns:rdf="http://www.w3.org/1999/02/22-rdf-syntax-ns#"
   xmlns:svg="http://www.w3.org/2000/svg"
   xmlns="http://www.w3.org/2000/svg"
   xmlns:sodipodi="http://sodipodi.sourceforge.net/DTD/sodipodi-0.dtd"
   xmlns:inkscape="http://www.inkscape.org/namespaces/inkscape"
   width="240"
   height="50"
   id="svg2"
   version="1.1"
   inkscape:version="0.47 r22583"
   sodipodi:docname="2010-(11)nov-03 figur 1.svg">
  <defs
     id="defs4" />
  <sodipodi:namedview
     id="base"
     pagecolor="#ffffff"
     bordercolor="#666666"
     borderopacity="1.0"
     inkscape:pageopacity="0.0"
     inkscape:pageshadow="2"
     inkscape:zoom="4"
     inkscape:cx="166.32694"
     inkscape:cy="-0.57265"
     inkscape:document-units="px"
     inkscape:current-layer="layer1"
     showgrid="false"
     inkscape:window-width="1589"
     inkscape:window-height="1117"
     inkscape:window-x="1600"
     inkscape:window-y="27"
     inkscape:window-maximized="1"
     showguides="true"
     inkscape:guide-bbox="true"
     inkscape:snap-midpoints="true" />
  <metadata
     id="metadata7">
    <rdf:RDF>
      <cc:Work
         rdf:about="">
        <dc:format>image/svg+xml</dc:format>
        <dc:type
           rdf:resource="http://purl.org/dc/dcmitype/StillImage" />
        <dc:title />
      </cc:Work>
    </rdf:RDF>
  </metadata>
  <g
     inkscape:label="Layer 1"
     inkscape:groupmode="layer"
     id="layer1">
    <path
       style="font-size:medium;font-style:normal;font-variant:normal;font-weight:normal;font-stretch:normal;text-indent:0;text-align:start;text-decoration:none;line-height:normal;letter-spacing:normal;word-spacing:normal;text-transform:none;direction:ltr;block-progression:tb;writing-mode:lr-tb;text-anchor:start;color:#000000;fill:#000000;fill-opacity:1;stroke:none;stroke-width:1px;marker:none;visibility:visible;display:inline;overflow:visible;enable-background:accumulate;font-family:Bitstream Charter;-inkscape-font-specification:Bitstream Charter"
       d="m 7.40625,21.4375 0,1 221.21875,0 0,-1 -221.21875,0 z"
       id="path2940" />
    <path
       style="font-size:12px;font-style:normal;font-variant:normal;font-weight:normal;font-stretch:normal;text-indent:0;text-align:start;text-decoration:none;line-height:normal;letter-spacing:normal;word-spacing:normal;text-transform:none;direction:ltr;block-progression:tb;writing-mode:lr-tb;text-anchor:start;color:#000000;fill-opacity:1;fill-rule:evenodd;stroke:none;stroke-width:0.625;marker:none;visibility:visible;display:inline;overflow:visible;enable-background:accumulate;font-family:Bitstream Charter;-inkscape-font-specification:Bitstream Charter"
       d="m 222.09375,17.1875 a 0.31253125,0.31253125 0 0 0 -0.0312,0.03125 0.31253125,0.31253125 0 0 0 -0.15625,0.4375 0.31253125,0.31253125 0 0 0 0.0312,0.03125 c 1.83209,2.552644 1.83907,5.969538 0,8.46875 a 0.31253125,0.31253125 0 0 0 -0.0625,0.28125 0.31253125,0.31253125 0 0 0 0.40625,0.1875 l 12.03125,-4.40625 a 0.31253125,0.31253125 0 0 0 0,-0.59375 l -12.03125,-4.40625 a 0.31253125,0.31253125 0 0 0 -0.1875,-0.03125 z"
       id="path3848" />
    <path
       style="font-size:medium;font-style:normal;font-variant:normal;font-weight:normal;font-stretch:normal;text-indent:0;text-align:start;text-decoration:none;line-height:normal;letter-spacing:normal;word-spacing:normal;text-transform:none;direction:ltr;block-progression:tb;writing-mode:lr-tb;text-anchor:start;color:#000000;fill:#000000;fill-opacity:1;stroke:none;stroke-width:1px;marker:none;visibility:visible;display:inline;overflow:visible;enable-background:accumulate;font-family:Bitstream Charter;-inkscape-font-specification:Bitstream Charter"
       d="m 17.46875,11.84375 0,20 1,0 0,-20 -1,0 z"
       id="path4164" />
    <path
       style="font-size:medium;font-style:normal;font-variant:normal;font-weight:normal;font-stretch:normal;text-indent:0;text-align:start;text-decoration:none;line-height:normal;letter-spacing:normal;word-spacing:normal;text-transform:none;direction:ltr;block-progression:tb;writing-mode:lr-tb;text-anchor:start;color:#000000;fill:#000000;fill-opacity:1;stroke:none;stroke-width:1px;marker:none;visibility:visible;display:inline;overflow:visible;enable-background:accumulate;font-family:Bitstream Charter;-inkscape-font-specification:Bitstream Charter"
       d="m 37.46875,11.84375 0,20 1,0 0,-20 -1,0 z"
       id="path2831" />
    <g
       transform="translate(-0.82319,-5.225586)"
       style="font-size:12px;font-style:normal;font-weight:normal;fill:#000000;fill-opacity:1;stroke:none;font-family:Bitstream Vera Sans"
       id="flowRoot2839">
      <path
         d="m 29.103516,15.150443 0,1.007813 c -0.304693,-0.167964 -0.611334,-0.292964 -0.919922,-0.375 -0.304692,-0.08593 -0.613286,-0.128901 -0.925782,-0.128907 -0.699222,6e-6 -1.24219,0.222662 -1.628906,0.667969 -0.38672,0.441411 -0.58008,1.062504 -0.580078,1.863281 -2e-6,0.800784 0.193358,1.42383 0.580078,1.869141 0.386716,0.441407 0.929684,0.66211 1.628906,0.662109 0.312496,1e-6 0.62109,-0.04102 0.925782,-0.123047 0.308588,-0.08594 0.615229,-0.212889 0.919922,-0.380859 l 0,0.996094 c -0.300787,0.140625 -0.613287,0.246094 -0.9375,0.316406 -0.320317,0.07031 -0.662114,0.105469 -1.025391,0.105469 -0.988284,0 -1.77344,-0.310547 -2.355469,-0.931641 -0.582032,-0.621092 -0.873047,-1.458982 -0.873047,-2.513672 0,-1.070308 0.292968,-1.912104 0.878907,-2.52539 0.589841,-0.613275 1.396481,-0.919915 2.419921,-0.919922 0.332027,7e-6 0.656246,0.03516 0.972657,0.105469 0.316401,0.06641 0.623041,0.167975 0.919922,0.304687"
         style="font-variant:normal;font-stretch:normal;font-family:DejaVu Sans;-inkscape-font-specification:DejaVu Sans"
         id="path3044" />
    </g>
    <g
       transform="translate(4.711966,0.761732)"
       style="font-size:12px;font-style:normal;font-weight:normal;fill:#000000;fill-opacity:1;stroke:none;font-family:Bitstream Vera Sans"
       id="flowRoot2839-2">
      <path
         d="m 24.366211,17.723672 1.450195,0 0,-5.005371 -1.577636,0.316406 0,-0.808593 1.568847,-0.316407 0.887695,0 0,5.813965 1.450196,0 0,0.74707 -3.779297,0 0,-0.74707"
         style="font-size:9px;font-variant:normal;font-stretch:normal;font-family:DejaVu Sans;-inkscape-font-specification:DejaVu Sans"
         id="path3047" />
    </g>
    <path
       style="font-size:medium;font-style:normal;font-variant:normal;font-weight:normal;font-stretch:normal;text-indent:0;text-align:start;text-decoration:none;line-height:normal;letter-spacing:normal;word-spacing:normal;text-transform:none;direction:ltr;block-progression:tb;writing-mode:lr-tb;text-anchor:start;color:#000000;fill:#000000;fill-opacity:1;stroke:none;stroke-width:1px;marker:none;visibility:visible;display:inline;overflow:visible;enable-background:accumulate;font-family:Bitstream Charter;-inkscape-font-specification:Bitstream Charter"
       d="m 57.46875,11.84375 0,20 1,0 0,-20 -1,0 z"
       id="path2878" />
    <g
       transform="translate(19.17681,-5.225586)"
       style="font-size:12px;font-style:normal;font-weight:normal;fill:#000000;fill-opacity:1;stroke:none;font-family:Bitstream Vera Sans"
       id="flowRoot2880">
      <path
         d="m 29.103516,15.150443 0,1.007813 c -0.304693,-0.167964 -0.611334,-0.292964 -0.919922,-0.375 -0.304692,-0.08593 -0.613286,-0.128901 -0.925782,-0.128907 -0.699222,6e-6 -1.24219,0.222662 -1.628906,0.667969 -0.38672,0.441411 -0.58008,1.062504 -0.580078,1.863281 -2e-6,0.800784 0.193358,1.42383 0.580078,1.869141 0.386716,0.441407 0.929684,0.66211 1.628906,0.662109 0.312496,1e-6 0.62109,-0.04102 0.925782,-0.123047 0.308588,-0.08594 0.615229,-0.212889 0.919922,-0.380859 l 0,0.996094 c -0.300787,0.140625 -0.613287,0.246094 -0.9375,0.316406 -0.320317,0.07031 -0.662114,0.105469 -1.025391,0.105469 -0.988284,0 -1.77344,-0.310547 -2.355469,-0.931641 -0.582032,-0.621092 -0.873047,-1.458982 -0.873047,-2.513672 0,-1.070308 0.292968,-1.912104 0.878907,-2.52539 0.589841,-0.613275 1.396481,-0.919915 2.419921,-0.919922 0.332027,7e-6 0.656246,0.03516 0.972657,0.105469 0.316401,0.06641 0.623041,0.167975 0.919922,0.304687"
         style="font-variant:normal;font-stretch:normal;font-family:DejaVu Sans;-inkscape-font-specification:DejaVu Sans"
         id="path3050" />
    </g>
    <g
       transform="translate(24.711966,0.761732)"
       style="font-size:12px;font-style:normal;font-weight:normal;fill:#000000;fill-opacity:1;stroke:none;font-family:Bitstream Vera Sans"
       id="flowRoot2888">
      <path
         d="m 24.977051,17.723672 3.098144,0 0,0.74707 -4.166015,0 0,-0.74707 c 0.336913,-0.348632 0.795408,-0.815916 1.375488,-1.401855 0.583005,-0.588865 0.949216,-0.968259 1.098633,-1.138184 0.284176,-0.319332 0.48193,-0.588863 0.593261,-0.808594 0.114254,-0.222652 0.171383,-0.440913 0.171387,-0.654785 -4e-6,-0.348628 -0.12305,-0.632807 -0.36914,-0.852539 -0.243168,-0.219721 -0.561039,-0.329584 -0.953614,-0.32959 -0.278322,6e-6 -0.572756,0.04835 -0.8833,0.14502 -0.307619,0.09669 -0.637209,0.243169 -0.98877,0.439453 l 0,-0.896484 c 0.357421,-0.143549 0.691405,-0.251947 1.001953,-0.325196 0.310545,-0.07324 0.594724,-0.109856 0.852539,-0.109863 0.679684,7e-6 1.221676,0.169928 1.625977,0.509766 0.404292,0.339849 0.60644,0.79395 0.606445,1.362304 -5e-6,0.269536 -0.05127,0.525883 -0.153809,0.769043 -0.09961,0.240238 -0.282719,0.524418 -0.549316,0.852539 -0.07325,0.08496 -0.306156,0.331058 -0.69873,0.738282 -0.392582,0.404298 -0.946292,0.971192 -1.661133,1.700683"
         style="font-size:9px;font-variant:normal;font-stretch:normal;font-family:DejaVu Sans;-inkscape-font-specification:DejaVu Sans"
         id="path3053" />
    </g>
    <path
       style="font-size:medium;font-style:normal;font-variant:normal;font-weight:normal;font-stretch:normal;text-indent:0;text-align:start;text-decoration:none;line-height:normal;letter-spacing:normal;word-spacing:normal;text-transform:none;direction:ltr;block-progression:tb;writing-mode:lr-tb;text-anchor:start;color:#000000;fill:#000000;fill-opacity:1;stroke:none;stroke-width:1px;marker:none;visibility:visible;display:inline;overflow:visible;enable-background:accumulate;font-family:Bitstream Charter;-inkscape-font-specification:Bitstream Charter"
       d="m 77.46875,11.84375 0,20 1,0 0,-20 -1,0 z"
       id="path2896" />
    <g
       transform="translate(39.17681,-5.225586)"
       style="font-size:12px;font-style:normal;font-weight:normal;fill:#000000;fill-opacity:1;stroke:none;font-family:Bitstream Vera Sans"
       id="flowRoot2898">
      <path
         d="m 29.103516,15.150443 0,1.007813 c -0.304693,-0.167964 -0.611334,-0.292964 -0.919922,-0.375 -0.304692,-0.08593 -0.613286,-0.128901 -0.925782,-0.128907 -0.699222,6e-6 -1.24219,0.222662 -1.628906,0.667969 -0.38672,0.441411 -0.58008,1.062504 -0.580078,1.863281 -2e-6,0.800784 0.193358,1.42383 0.580078,1.869141 0.386716,0.441407 0.929684,0.66211 1.628906,0.662109 0.312496,1e-6 0.62109,-0.04102 0.925782,-0.123047 0.308588,-0.08594 0.615229,-0.212889 0.919922,-0.380859 l 0,0.996094 c -0.300787,0.140625 -0.613287,0.246094 -0.9375,0.316406 -0.320317,0.07031 -0.662114,0.105469 -1.025391,0.105469 -0.988284,0 -1.77344,-0.310547 -2.355469,-0.931641 -0.582032,-0.621092 -0.873047,-1.458982 -0.873047,-2.513672 0,-1.070308 0.292968,-1.912104 0.878907,-2.52539 0.589841,-0.613275 1.396481,-0.919915 2.419921,-0.919922 0.332027,7e-6 0.656246,0.03516 0.972657,0.105469 0.316401,0.06641 0.623041,0.167975 0.919922,0.304687"
         style="font-variant:normal;font-stretch:normal;font-family:DejaVu Sans;-inkscape-font-specification:DejaVu Sans"
         id="path3056" />
    </g>
    <g
       transform="translate(44.711966,0.761732)"
       style="font-size:12px;font-style:normal;font-weight:normal;fill:#000000;fill-opacity:1;stroke:none;font-family:Bitstream Vera Sans"
       id="flowRoot2906">
      <path
         d="m 26.901855,14.933145 c 0.424801,0.09082 0.755855,0.279788 0.993165,0.566894 0.240229,0.287112 0.360346,0.641604 0.360351,1.063477 -5e-6,0.647462 -0.222661,1.148438 -0.667969,1.50293 -0.445316,0.354492 -1.078128,0.531738 -1.898437,0.531738 -0.275393,0 -0.559572,-0.02783 -0.852539,-0.0835 -0.290041,-0.05273 -0.590333,-0.133301 -0.900879,-0.241699 l 0,-0.856934 c 0.246093,0.143556 0.515624,0.251954 0.808594,0.325195 0.292967,0.07324 0.599119,0.109864 0.918457,0.109864 0.556637,0 0.979977,-0.109863 1.270019,-0.32959 0.292965,-0.219726 0.439449,-0.539061 0.439453,-0.958008 -4e-6,-0.386717 -0.136234,-0.688474 -0.408691,-0.905274 -0.269535,-0.219723 -0.645999,-0.329586 -1.129395,-0.329589 l -0.764648,0 0,-0.729493 0.799805,0 c 0.43652,4e-6 0.770504,-0.08642 1.001953,-0.259277 0.231441,-0.175777 0.347164,-0.42773 0.347168,-0.755859 -4e-6,-0.336909 -0.120121,-0.594721 -0.360352,-0.773438 -0.237308,-0.181635 -0.578616,-0.272455 -1.023926,-0.272461 -0.243166,6e-6 -0.503908,0.02637 -0.782226,0.0791 -0.278322,0.05274 -0.584474,0.134771 -0.918457,0.246094 l 0,-0.791016 c 0.336913,-0.09374 0.651854,-0.164056 0.944824,-0.210938 0.295896,-0.04687 0.574216,-0.0703 0.834961,-0.07031 0.673825,7e-6 1.207027,0.153815 1.599609,0.461426 0.392574,0.304693 0.588863,0.717779 0.588867,1.239258 -4e-6,0.363285 -0.104008,0.670902 -0.312011,0.922851 -0.208012,0.249027 -0.503911,0.421879 -0.887696,0.518555"
         style="font-size:9px;font-variant:normal;font-stretch:normal;font-family:DejaVu Sans;-inkscape-font-specification:DejaVu Sans"
         id="path3059" />
    </g>
    <path
       style="font-size:medium;font-style:normal;font-variant:normal;font-weight:normal;font-stretch:normal;text-indent:0;text-align:start;text-decoration:none;line-height:normal;letter-spacing:normal;word-spacing:normal;text-transform:none;direction:ltr;block-progression:tb;writing-mode:lr-tb;text-anchor:start;color:#000000;fill:#000000;fill-opacity:1;stroke:none;stroke-width:1px;marker:none;visibility:visible;display:inline;overflow:visible;enable-background:accumulate;font-family:Bitstream Charter;-inkscape-font-specification:Bitstream Charter"
       d="m 97.46875,11.84375 0,20 1,0 0,-20 -1,0 z"
       id="path2914" />
    <path
       style="font-size:medium;font-style:normal;font-variant:normal;font-weight:normal;font-stretch:normal;text-indent:0;text-align:start;text-decoration:none;line-height:normal;letter-spacing:normal;word-spacing:normal;text-transform:none;direction:ltr;block-progression:tb;writing-mode:lr-tb;text-anchor:start;color:#000000;fill:#000000;fill-opacity:1;stroke:none;stroke-width:1px;marker:none;visibility:visible;display:inline;overflow:visible;enable-background:accumulate;font-family:Bitstream Charter;-inkscape-font-specification:Bitstream Charter"
       d="m 117.46875,11.84375 0,20 1,0 0,-20 -1,0 z"
       id="path2932" />
    <g
       transform="translate(-11.555176,19.446725)"
       style="font-size:12px;font-style:normal;font-weight:normal;fill:#000000;fill-opacity:1;stroke:none;font-family:Bitstream Vera Sans"
       id="flowRoot2839-5">
      <path
         d="m 29.835937,17.500052 0,3.960938 -1.078125,0 0,-3.925781 c -5e-6,-0.62109 -0.121099,-1.085933 -0.363281,-1.394532 -0.242192,-0.308588 -0.605473,-0.462884 -1.089844,-0.46289 -0.582034,6e-6 -1.041018,0.185552 -1.376953,0.55664 -0.335939,0.371099 -0.503908,0.876958 -0.503906,1.517579 l 0,3.708984 -1.083984,0 0,-6.5625 1.083984,0 0,1.019531 c 0.25781,-0.394525 0.560544,-0.689447 0.908203,-0.884765 0.351559,-0.195306 0.755856,-0.292962 1.212891,-0.292969 0.753901,7e-6 1.324213,0.234381 1.710937,0.703125 0.386713,0.464849 0.580072,1.150395 0.580078,2.05664"
         style="font-variant:normal;font-stretch:normal;font-family:DejaVu Sans;-inkscape-font-specification:DejaVu Sans"
         id="path3062" />
    </g>
    <g
       transform="translate(-5.2700195,25.434043)"
       style="font-size:12px;font-style:normal;font-weight:normal;fill:#000000;fill-opacity:1;stroke:none;font-family:Bitstream Vera Sans"
       id="flowRoot2839-2-0">
      <path
         d="m 24.366211,17.723672 1.450195,0 0,-5.005371 -1.577636,0.316406 0,-0.808593 1.568847,-0.316407 0.887695,0 0,5.813965 1.450196,0 0,0.74707 -3.779297,0 0,-0.74707"
         style="font-size:9px;font-variant:normal;font-stretch:normal;font-family:DejaVu Sans;-inkscape-font-specification:DejaVu Sans"
         id="path3065" />
    </g>
    <g
       transform="translate(8.444824,19.446725)"
       style="font-size:12px;font-style:normal;font-weight:normal;fill:#000000;fill-opacity:1;stroke:none;font-family:Bitstream Vera Sans"
       id="flowRoot2993">
      <path
         d="m 29.835937,17.500052 0,3.960938 -1.078125,0 0,-3.925781 c -5e-6,-0.62109 -0.121099,-1.085933 -0.363281,-1.394532 -0.242192,-0.308588 -0.605473,-0.462884 -1.089844,-0.46289 -0.582034,6e-6 -1.041018,0.185552 -1.376953,0.55664 -0.335939,0.371099 -0.503908,0.876958 -0.503906,1.517579 l 0,3.708984 -1.083984,0 0,-6.5625 1.083984,0 0,1.019531 c 0.25781,-0.394525 0.560544,-0.689447 0.908203,-0.884765 0.351559,-0.195306 0.755856,-0.292962 1.212891,-0.292969 0.753901,7e-6 1.324213,0.234381 1.710937,0.703125 0.386713,0.464849 0.580072,1.150395 0.580078,2.05664"
         style="font-variant:normal;font-stretch:normal;font-family:DejaVu Sans;-inkscape-font-specification:DejaVu Sans"
         id="path3068" />
    </g>
    <g
       transform="translate(14.72998,25.434043)"
       style="font-size:12px;font-style:normal;font-weight:normal;fill:#000000;fill-opacity:1;stroke:none;font-family:Bitstream Vera Sans"
       id="flowRoot3001">
      <path
         d="m 24.977051,17.723672 3.098144,0 0,0.74707 -4.166015,0 0,-0.74707 c 0.336913,-0.348632 0.795408,-0.815916 1.375488,-1.401855 0.583005,-0.588865 0.949216,-0.968259 1.098633,-1.138184 0.284176,-0.319332 0.48193,-0.588863 0.593261,-0.808594 0.114254,-0.222652 0.171383,-0.440913 0.171387,-0.654785 -4e-6,-0.348628 -0.12305,-0.632807 -0.36914,-0.852539 -0.243168,-0.219721 -0.561039,-0.329584 -0.953614,-0.32959 -0.278322,6e-6 -0.572756,0.04835 -0.8833,0.14502 -0.307619,0.09669 -0.637209,0.243169 -0.98877,0.439453 l 0,-0.896484 c 0.357421,-0.143549 0.691405,-0.251947 1.001953,-0.325196 0.310545,-0.07324 0.594724,-0.109856 0.852539,-0.109863 0.679684,7e-6 1.221676,0.169928 1.625977,0.509766 0.404292,0.339849 0.60644,0.79395 0.606445,1.362304 -5e-6,0.269536 -0.05127,0.525883 -0.153809,0.769043 -0.09961,0.240238 -0.282719,0.524418 -0.549316,0.852539 -0.07325,0.08496 -0.306156,0.331058 -0.69873,0.738282 -0.392582,0.404298 -0.946292,0.971192 -1.661133,1.700683"
         style="font-size:9px;font-variant:normal;font-stretch:normal;font-family:DejaVu Sans;-inkscape-font-specification:DejaVu Sans"
         id="path3071" />
    </g>
    <g
       transform="translate(28.444824,19.446725)"
       style="font-size:12px;font-style:normal;font-weight:normal;fill:#000000;fill-opacity:1;stroke:none;font-family:Bitstream Vera Sans"
       id="flowRoot3009">
      <path
         d="m 29.835937,17.500052 0,3.960938 -1.078125,0 0,-3.925781 c -5e-6,-0.62109 -0.121099,-1.085933 -0.363281,-1.394532 -0.242192,-0.308588 -0.605473,-0.462884 -1.089844,-0.46289 -0.582034,6e-6 -1.041018,0.185552 -1.376953,0.55664 -0.335939,0.371099 -0.503908,0.876958 -0.503906,1.517579 l 0,3.708984 -1.083984,0 0,-6.5625 1.083984,0 0,1.019531 c 0.25781,-0.394525 0.560544,-0.689447 0.908203,-0.884765 0.351559,-0.195306 0.755856,-0.292962 1.212891,-0.292969 0.753901,7e-6 1.324213,0.234381 1.710937,0.703125 0.386713,0.464849 0.580072,1.150395 0.580078,2.05664"
         style="font-variant:normal;font-stretch:normal;font-family:DejaVu Sans;-inkscape-font-specification:DejaVu Sans"
         id="path3074" />
    </g>
    <g
       transform="translate(34.72998,25.434043)"
       style="font-size:12px;font-style:normal;font-weight:normal;fill:#000000;fill-opacity:1;stroke:none;font-family:Bitstream Vera Sans"
       id="flowRoot3017">
      <path
         d="m 26.901855,14.933145 c 0.424801,0.09082 0.755855,0.279788 0.993165,0.566894 0.240229,0.287112 0.360346,0.641604 0.360351,1.063477 -5e-6,0.647462 -0.222661,1.148438 -0.667969,1.50293 -0.445316,0.354492 -1.078128,0.531738 -1.898437,0.531738 -0.275393,0 -0.559572,-0.02783 -0.852539,-0.0835 -0.290041,-0.05273 -0.590333,-0.133301 -0.900879,-0.241699 l 0,-0.856934 c 0.246093,0.143556 0.515624,0.251954 0.808594,0.325195 0.292967,0.07324 0.599119,0.109864 0.918457,0.109864 0.556637,0 0.979977,-0.109863 1.270019,-0.32959 0.292965,-0.219726 0.439449,-0.539061 0.439453,-0.958008 -4e-6,-0.386717 -0.136234,-0.688474 -0.408691,-0.905274 -0.269535,-0.219723 -0.645999,-0.329586 -1.129395,-0.329589 l -0.764648,0 0,-0.729493 0.799805,0 c 0.43652,4e-6 0.770504,-0.08642 1.001953,-0.259277 0.231441,-0.175777 0.347164,-0.42773 0.347168,-0.755859 -4e-6,-0.336909 -0.120121,-0.594721 -0.360352,-0.773438 -0.237308,-0.181635 -0.578616,-0.272455 -1.023926,-0.272461 -0.243166,6e-6 -0.503908,0.02637 -0.782226,0.0791 -0.278322,0.05274 -0.584474,0.134771 -0.918457,0.246094 l 0,-0.791016 c 0.336913,-0.09374 0.651854,-0.164056 0.944824,-0.210938 0.295896,-0.04687 0.574216,-0.0703 0.834961,-0.07031 0.673825,7e-6 1.207027,0.153815 1.599609,0.461426 0.392574,0.304693 0.588863,0.717779 0.588867,1.239258 -4e-6,0.363285 -0.104008,0.670902 -0.312011,0.922851 -0.208012,0.249027 -0.503911,0.421879 -0.887696,0.518555"
         style="font-size:9px;font-variant:normal;font-stretch:normal;font-family:DejaVu Sans;-inkscape-font-specification:DejaVu Sans"
         id="path3077" />
    </g>
    <path
       style="font-size:medium;font-style:normal;font-variant:normal;font-weight:normal;font-stretch:normal;text-indent:0;text-align:start;text-decoration:none;line-height:normal;letter-spacing:normal;word-spacing:normal;text-transform:none;direction:ltr;block-progression:tb;writing-mode:lr-tb;text-anchor:start;color:#000000;fill:#000000;fill-opacity:1;stroke:none;stroke-width:1px;marker:none;visibility:visible;display:inline;overflow:visible;enable-background:accumulate;font-family:Bitstream Charter;-inkscape-font-specification:Bitstream Charter"
       d="m 137.46875,11.84375 0,20 1,0 0,-20 -1,0 z"
       id="path3025" />
    <path
       style="font-size:medium;font-style:normal;font-variant:normal;font-weight:normal;font-stretch:normal;text-indent:0;text-align:start;text-decoration:none;line-height:normal;letter-spacing:normal;word-spacing:normal;text-transform:none;direction:ltr;block-progression:tb;writing-mode:lr-tb;text-anchor:start;color:#000000;fill:#000000;fill-opacity:1;stroke:none;stroke-width:1px;marker:none;visibility:visible;display:inline;overflow:visible;enable-background:accumulate;font-family:Bitstream Charter;-inkscape-font-specification:Bitstream Charter"
       d="m 157.46875,11.84375 0,20 1,0 0,-20 -1,0 z"
       id="path3027" />
    <path
       style="font-size:medium;font-style:normal;font-variant:normal;font-weight:normal;font-stretch:normal;text-indent:0;text-align:start;text-decoration:none;line-height:normal;letter-spacing:normal;word-spacing:normal;text-transform:none;direction:ltr;block-progression:tb;writing-mode:lr-tb;text-anchor:start;color:#000000;fill:#000000;fill-opacity:1;stroke:none;stroke-width:1px;marker:none;visibility:visible;display:inline;overflow:visible;enable-background:accumulate;font-family:Bitstream Charter;-inkscape-font-specification:Bitstream Charter"
       d="m 177.46875,11.84375 0,20 1,0 0,-20 -1,0 z"
       id="path3029" />
    <path
       style="font-size:medium;font-style:normal;font-variant:normal;font-weight:normal;font-stretch:normal;text-indent:0;text-align:start;text-decoration:none;line-height:normal;letter-spacing:normal;word-spacing:normal;text-transform:none;direction:ltr;block-progression:tb;writing-mode:lr-tb;text-anchor:start;color:#000000;fill:#000000;fill-opacity:1;stroke:none;stroke-width:1px;marker:none;visibility:visible;display:inline;overflow:visible;enable-background:accumulate;font-family:Bitstream Charter;-inkscape-font-specification:Bitstream Charter"
       d="m 197.46875,11.84375 0,20 1,0 0,-20 -1,0 z"
       id="path3031" />
  </g>
</svg>
