<?xml version="1.0" encoding="UTF-8" standalone="no"?>
<!-- Created with Inkscape (http://www.inkscape.org/) -->

<svg
   xmlns:dc="http://purl.org/dc/elements/1.1/"
   xmlns:cc="http://creativecommons.org/ns#"
   xmlns:rdf="http://www.w3.org/1999/02/22-rdf-syntax-ns#"
   xmlns:svg="http://www.w3.org/2000/svg"
   xmlns="http://www.w3.org/2000/svg"
   xmlns:sodipodi="http://sodipodi.sourceforge.net/DTD/sodipodi-0.dtd"
   xmlns:inkscape="http://www.inkscape.org/namespaces/inkscape"
   width="150"
   height="150"
   id="svg2"
   version="1.1"
   inkscape:version="0.47 r22583"
   sodipodi:docname="2010-(11)nov-03 figur 0.svg">
  <defs
     id="defs4" />
  <sodipodi:namedview
     id="base"
     pagecolor="#ffffff"
     bordercolor="#666666"
     borderopacity="1.0"
     inkscape:pageopacity="0.0"
     inkscape:pageshadow="2"
     inkscape:zoom="3.5096067"
     inkscape:cx="7.9626729"
     inkscape:cy="122.15906"
     inkscape:document-units="px"
     inkscape:current-layer="layer1"
     showgrid="false"
     inkscape:window-width="1589"
     inkscape:window-height="1117"
     inkscape:window-x="1600"
     inkscape:window-y="27"
     inkscape:window-maximized="1"
     showguides="true"
     inkscape:guide-bbox="true"
     inkscape:snap-midpoints="true" />
  <metadata
     id="metadata7">
    <rdf:RDF>
      <cc:Work
         rdf:about="">
        <dc:format>image/svg+xml</dc:format>
        <dc:type
           rdf:resource="http://purl.org/dc/dcmitype/StillImage" />
        <dc:title />
      </cc:Work>
    </rdf:RDF>
  </metadata>
  <g
     inkscape:label="Layer 1"
     inkscape:groupmode="layer"
     id="layer1">
    <g
       id="g2868"
       transform="translate(162.12643,41.775545)">
      <path
         id="path4703"
         d="m -69.987669,-19.496359 0,-3.972656 1.07813,0 0,3.931641 c -1e-5,0.621095 0.12109,1.087892 0.36328,1.40039 0.24218,0.308595 0.60546,0.462892 1.08984,0.462891 0.58203,10e-7 1.04101,-0.185546 1.37695,-0.556641 0.33984,-0.371092 0.50976,-0.876951 0.50977,-1.517578 l 0,-3.720703 1.07812,0 0,6.5625 -1.07812,0 0,-1.007813 c -0.26172,0.398439 -0.56641,0.695313 -0.91406,0.890625 -0.34376,0.191407 -0.74415,0.287108 -1.20117,0.287108 -0.75391,0 -1.32618,-0.234373 -1.7168,-0.703123 -0.39063,-0.468749 -0.58594,-1.154295 -0.58594,-2.056641"
         style="font-size:12px;font-style:normal;font-variant:normal;font-weight:normal;font-stretch:normal;fill:#000000;fill-opacity:1;stroke:none;font-family:DejaVu Sans;-inkscape-font-specification:DejaVu Sans" />
      <path
         id="path4614"
         d="m -59.669309,-26.011984 c -0.52344,0.898446 -0.91211,1.787117 -1.16602,2.666016 -0.2539,0.878912 -0.38086,1.769536 -0.38085,2.671875 -1e-5,0.902346 0.12695,1.796877 0.38085,2.683594 0.25781,0.882812 0.64649,1.771484 1.16602,2.666014 l -0.9375,0 c -0.58594,-0.91797 -1.02539,-1.820311 -1.31836,-2.70703 -0.28906,-0.886717 -0.43359,-1.767575 -0.43359,-2.642578 0,-0.871089 0.14453,-1.748042 0.43359,-2.63086 0.28906,-0.882805 0.72851,-1.785148 1.31836,-2.707031 l 0.9375,0"
         style="font-size:12px;font-style:normal;font-variant:normal;font-weight:normal;font-stretch:normal;fill:#000000;fill-opacity:1;stroke:none;font-family:DejaVu Sans;-inkscape-font-specification:DejaVu Sans" />
      <path
         id="path4616"
         d="m -52.116579,-23.469015 -2.37304,3.193359 2.49609,3.369141 -1.27148,0 -1.91016,-2.578125 -1.91016,2.578125 -1.27148,0 2.54883,-3.433594 -2.33203,-3.128906 1.27148,0 1.74024,2.337891 1.74023,-2.337891 1.27148,0"
         style="font-size:12px;font-style:normal;font-variant:normal;font-weight:normal;font-stretch:normal;fill:#000000;fill-opacity:1;stroke:none;font-family:DejaVu Sans;-inkscape-font-specification:DejaVu Sans" />
      <path
         id="path4618"
         d="m -50.640009,-26.011984 0.9375,0 c 0.58593,0.921883 1.02343,1.824226 1.3125,2.707031 0.29296,0.882818 0.43945,1.759771 0.43945,2.63086 0,0.875003 -0.14649,1.755861 -0.43945,2.642578 -0.28907,0.886719 -0.72657,1.78906 -1.3125,2.70703 l -0.9375,0 c 0.51953,-0.89453 0.90625,-1.783202 1.16015,-2.666014 0.25781,-0.886717 0.38672,-1.781248 0.38672,-2.683594 0,-0.902339 -0.12891,-1.792963 -0.38672,-2.671875 -0.2539,-0.878899 -0.64062,-1.76757 -1.16015,-2.666016"
         style="font-size:12px;font-style:normal;font-variant:normal;font-weight:normal;font-stretch:normal;fill:#000000;fill-opacity:1;stroke:none;font-family:DejaVu Sans;-inkscape-font-specification:DejaVu Sans" />
    </g>
    <g
       id="g2861"
       transform="translate(155.85792,54.148326)">
      <path
         id="path4623"
         d="m -46.846309,22.139125 c -0.52344,0.898446 -0.91211,1.787117 -1.16601,2.666016 -0.25391,0.878912 -0.38086,1.769536 -0.38086,2.671875 0,0.902346 0.12695,1.796877 0.38086,2.683594 0.25781,0.882812 0.64648,1.771484 1.16601,2.666014 l -0.9375,0 c -0.58594,-0.91797 -1.02539,-1.820311 -1.31836,-2.70703 -0.28906,-0.886717 -0.43359,-1.767575 -0.43359,-2.642578 0,-0.871089 0.14453,-1.748042 0.43359,-2.63086 0.28906,-0.882805 0.72852,-1.785148 1.31836,-2.707031 l 0.9375,0"
         style="font-size:12px;font-style:normal;font-variant:normal;font-weight:normal;font-stretch:normal;fill:#000000;fill-opacity:1;stroke:none;font-family:DejaVu Sans;-inkscape-font-specification:DejaVu Sans" />
      <path
         id="path4627"
         d="m -37.817009,22.139125 0.9375,0 c 0.58593,0.921883 1.02343,1.824226 1.3125,2.707031 0.29296,0.882818 0.43945,1.759771 0.43945,2.63086 0,0.875003 -0.14649,1.755861 -0.43945,2.642578 -0.28907,0.886719 -0.72657,1.78906 -1.3125,2.70703 l -0.9375,0 c 0.51953,-0.89453 0.90625,-1.783202 1.16016,-2.666014 0.25781,-0.886717 0.38671,-1.781248 0.38671,-2.683594 0,-0.902339 -0.1289,-1.792963 -0.38671,-2.671875 -0.25391,-0.878899 -0.64063,-1.76757 -1.16016,-2.666016"
         style="font-size:12px;font-style:normal;font-variant:normal;font-weight:normal;font-stretch:normal;fill:#000000;fill-opacity:1;stroke:none;font-family:DejaVu Sans;-inkscape-font-specification:DejaVu Sans" />
      <path
         id="path4693"
         d="m -60.984979,28.65475 0,-3.972656 1.07813,0 0,3.931641 c -10e-6,0.621095 0.12109,1.087892 0.36328,1.40039 0.24218,0.308595 0.60546,0.462892 1.08984,0.462891 0.58203,1e-6 1.04101,-0.185546 1.37695,-0.556641 0.33984,-0.371092 0.50976,-0.876951 0.50977,-1.517578 l 0,-3.720703 1.07812,0 0,6.5625 -1.07812,0 0,-1.007813 c -0.26172,0.398439 -0.56641,0.695313 -0.91406,0.890625 -0.34376,0.191407 -0.74415,0.287108 -1.20117,0.287108 -0.75391,0 -1.32618,-0.234373 -1.7168,-0.703123 -0.39063,-0.468749 -0.58594,-1.154295 -0.58594,-2.056641"
         style="font-size:12px;font-style:normal;font-variant:normal;font-weight:normal;font-stretch:normal;fill:#000000;fill-opacity:1;stroke:none;font-family:DejaVu Sans;-inkscape-font-specification:DejaVu Sans" />
      <path
         id="path4625"
         d="m -39.293569,24.682094 -2.37305,3.193359 2.49609,3.369141 -1.27148,0 -1.91016,-2.578125 -1.91015,2.578125 -1.27149,0 2.54883,-3.433594 -2.33203,-3.128906 1.27148,0 1.74024,2.337891 1.74023,-2.337891 1.27149,0"
         style="font-size:12px;font-style:normal;font-variant:normal;font-weight:normal;font-stretch:normal;fill:#000000;fill-opacity:1;stroke:none;font-family:DejaVu Sans;-inkscape-font-specification:DejaVu Sans" />
      <path
         id="path4630"
         d="m -50.476679,32.124843 0,2.970703 -0.80859,0 0,-2.944335 c -1e-5,-0.465817 -0.0908,-0.81445 -0.27246,-1.045899 -0.18165,-0.231441 -0.45411,-0.347164 -0.81738,-0.347168 -0.43653,4e-6 -0.78077,0.139164 -1.03272,0.417481 -0.25195,0.278324 -0.37793,0.657718 -0.37793,1.138183 l 0,2.781738 -0.81299,0 0,-6.83789 0.81299,0 0,2.680664 c 0.19336,-0.295894 0.42041,-0.517085 0.68115,-0.663574 0.26367,-0.14648 0.56689,-0.219722 0.90967,-0.219727 0.56543,5e-6 0.99316,0.175786 1.2832,0.527344 0.29004,0.348637 0.43506,0.862796 0.43506,1.54248"
         style="font-size:9px;font-style:normal;font-variant:normal;font-weight:normal;font-stretch:normal;fill:#000000;fill-opacity:1;stroke:none;font-family:DejaVu Sans;-inkscape-font-specification:DejaVu Sans" />
    </g>
    <path
       style="font-size:medium;font-style:normal;font-variant:normal;font-weight:normal;font-stretch:normal;text-indent:0;text-align:start;text-decoration:none;line-height:normal;letter-spacing:normal;word-spacing:normal;text-transform:none;direction:ltr;block-progression:tb;writing-mode:lr-tb;text-anchor:start;color:#000000;fill:#000000;fill-opacity:1;stroke:none;stroke-width:1px;marker:none;visibility:visible;display:inline;overflow:visible;enable-background:accumulate;font-family:Bitstream Charter;-inkscape-font-specification:Bitstream Charter"
       d="m 9.5625,13.40625 0,124.09375 0,0.5 0.5,0 131.375,0 0,-1 -130.875,0 0,-123.59375 -1,0 z"
       id="path2874" />
    <path
       style="font-size:12px;fill-rule:evenodd;stroke-width:0.625;stroke-linejoin:round"
       d="M 5.6367663,24.088703 10.05626,12.070238 14.475754,24.088703 c -2.609267,-1.920048 -6.1791975,-1.908985 -8.8389877,0 z"
       id="path4494" />
    <path
       style="font-size:12px;fill-rule:evenodd;stroke-width:0.625;stroke-linejoin:round"
       d="m 130.74675,133.07129 12.01847,4.4195 -12.01847,4.41949 c 1.92005,-2.60927 1.90899,-6.1792 0,-8.83899 z"
       id="path4496" />
    <path
       style="font-size:medium;font-style:normal;font-variant:normal;font-weight:normal;font-stretch:normal;text-indent:0;text-align:start;text-decoration:none;line-height:normal;letter-spacing:normal;word-spacing:normal;text-transform:none;direction:ltr;block-progression:tb;writing-mode:lr-tb;text-anchor:start;color:#000000;fill:#000000;fill-opacity:1;stroke:none;stroke-width:1px;marker:none;visibility:visible;display:inline;overflow:visible;enable-background:accumulate;font-family:Bitstream Charter;-inkscape-font-specification:Bitstream Charter"
       d="M 68.53125 42.1875 C 60.932247 42.22046 53.714492 43.521006 47.0625 46.0625 C 29.323855 52.839817 15.729272 68.614489 10.09375 93.6875 L 9.875 94.65625 L 10.78125 94.28125 L 108.6875 53.15625 L 109.71875 52.75 L 108.71875 52.25 C 94.908869 45.528518 81.196255 42.132574 68.53125 42.1875 z M 68.5625 43.1875 C 80.731937 43.13598 93.909931 46.354875 107.25 52.6875 L 11.3125 92.9375 C 17.024855 68.701966 30.22903 53.531566 47.40625 46.96875 C 53.936725 44.473684 61.071037 43.219218 68.5625 43.1875 z "
       id="path4537" />
    <path
       style="font-size:medium;font-style:normal;font-variant:normal;font-weight:normal;font-stretch:normal;text-indent:0;text-align:start;text-decoration:none;line-height:normal;letter-spacing:normal;word-spacing:normal;text-transform:none;direction:ltr;block-progression:tb;writing-mode:lr-tb;text-anchor:start;color:#000000;fill:#000000;fill-opacity:1;stroke:none;stroke-width:1;marker:none;visibility:visible;display:inline;overflow:visible;enable-background:accumulate;font-family:Bitstream Charter;-inkscape-font-specification:Bitstream Charter"
       d="M 77.21875,67.5 78,68.09375 78.59375,67.28125 77.8125,66.6875 z"
       id="path4533" />
    <path
       style="font-size:medium;font-style:normal;font-variant:normal;font-weight:normal;font-stretch:normal;text-indent:0;text-align:start;text-decoration:none;line-height:normal;letter-spacing:normal;word-spacing:normal;text-transform:none;direction:ltr;block-progression:tb;writing-mode:lr-tb;text-anchor:start;color:#000000;fill:#000000;fill-opacity:1;stroke:none;stroke-width:1;marker:none;visibility:visible;display:inline;overflow:visible;enable-background:accumulate;font-family:Bitstream Charter;-inkscape-font-specification:Bitstream Charter"
       d="m 79.625,69.25 0.8125,0.59375 0.59375,-0.78125 -0.8125,-0.59375 z"
       id="path4531" />
    <path
       style="font-size:medium;font-style:normal;font-variant:normal;font-weight:normal;font-stretch:normal;text-indent:0;text-align:start;text-decoration:none;line-height:normal;letter-spacing:normal;word-spacing:normal;text-transform:none;direction:ltr;block-progression:tb;writing-mode:lr-tb;text-anchor:start;color:#000000;fill:#000000;fill-opacity:1;stroke:none;stroke-width:1;marker:none;visibility:visible;display:inline;overflow:visible;enable-background:accumulate;font-family:Bitstream Charter;-inkscape-font-specification:Bitstream Charter"
       d="M 82.03125,71.03125 82.84375,71.625 83.4375,70.84375 82.625,70.25 z"
       id="path4529" />
    <path
       style="font-size:medium;font-style:normal;font-variant:normal;font-weight:normal;font-stretch:normal;text-indent:0;text-align:start;text-decoration:none;line-height:normal;letter-spacing:normal;word-spacing:normal;text-transform:none;direction:ltr;block-progression:tb;writing-mode:lr-tb;text-anchor:start;color:#000000;fill:#000000;fill-opacity:1;stroke:none;stroke-width:1;marker:none;visibility:visible;display:inline;overflow:visible;enable-background:accumulate;font-family:Bitstream Charter;-inkscape-font-specification:Bitstream Charter"
       d="m 84.46875,72.8125 0.78125,0.59375 0.59375,-0.8125 -0.8125,-0.5625 z"
       id="path4527" />
    <path
       style="font-size:medium;font-style:normal;font-variant:normal;font-weight:normal;font-stretch:normal;text-indent:0;text-align:start;text-decoration:none;line-height:normal;letter-spacing:normal;word-spacing:normal;text-transform:none;direction:ltr;block-progression:tb;writing-mode:lr-tb;text-anchor:start;color:#000000;fill:#000000;fill-opacity:1;stroke:none;stroke-width:1;marker:none;visibility:visible;display:inline;overflow:visible;enable-background:accumulate;font-family:Bitstream Charter;-inkscape-font-specification:Bitstream Charter"
       d="m 86.875,74.59375 0.8125,0.59375 0.59375,-0.8125 -0.8125,-0.59375 z"
       id="path4525" />
    <path
       style="font-size:medium;font-style:normal;font-variant:normal;font-weight:normal;font-stretch:normal;text-indent:0;text-align:start;text-decoration:none;line-height:normal;letter-spacing:normal;word-spacing:normal;text-transform:none;direction:ltr;block-progression:tb;writing-mode:lr-tb;text-anchor:start;color:#000000;fill:#000000;fill-opacity:1;stroke:none;stroke-width:1;marker:none;visibility:visible;display:inline;overflow:visible;enable-background:accumulate;font-family:Bitstream Charter;-inkscape-font-specification:Bitstream Charter"
       d="m 89.28125,76.375 0.8125,0.59375 0.59375,-0.8125 -0.8125,-0.59375 z"
       id="path4523" />
    <path
       style="font-size:medium;font-style:normal;font-variant:normal;font-weight:normal;font-stretch:normal;text-indent:0;text-align:start;text-decoration:none;line-height:normal;letter-spacing:normal;word-spacing:normal;text-transform:none;direction:ltr;block-progression:tb;writing-mode:lr-tb;text-anchor:start;color:#000000;fill:#000000;fill-opacity:1;stroke:none;stroke-width:1;marker:none;visibility:visible;display:inline;overflow:visible;enable-background:accumulate;font-family:Bitstream Charter;-inkscape-font-specification:Bitstream Charter"
       d="m 91.6875,78.15625 0.625,0.4375 0.59375,-0.8125 -0.625,-0.4375 z"
       id="path4286" />
    <path
       style="font-size:medium;font-style:normal;font-variant:normal;font-weight:normal;font-stretch:normal;text-indent:0;text-align:start;text-decoration:none;line-height:normal;letter-spacing:normal;word-spacing:normal;text-transform:none;direction:ltr;block-progression:tb;writing-mode:lr-tb;text-anchor:start;color:#000000;fill:#000000;fill-opacity:1;stroke:none;stroke-width:1;marker:none;visibility:visible;display:inline;overflow:visible;enable-background:accumulate;font-family:Bitstream Charter;-inkscape-font-specification:Bitstream Charter"
       d="M 83.34375,26.875 84.125,27.53125 84.75,26.75 84,26.125 z"
       id="path4519" />
    <path
       style="font-size:medium;font-style:normal;font-variant:normal;font-weight:normal;font-stretch:normal;text-indent:0;text-align:start;text-decoration:none;line-height:normal;letter-spacing:normal;word-spacing:normal;text-transform:none;direction:ltr;block-progression:tb;writing-mode:lr-tb;text-anchor:start;color:#000000;fill:#000000;fill-opacity:1;stroke:none;stroke-width:1;marker:none;visibility:visible;display:inline;overflow:visible;enable-background:accumulate;font-family:Bitstream Charter;-inkscape-font-specification:Bitstream Charter"
       d="m 81.46875,29.21875 0.78125,0.625 0.625,-0.78125 -0.78125,-0.625 z"
       id="path4517" />
    <path
       style="font-size:medium;font-style:normal;font-variant:normal;font-weight:normal;font-stretch:normal;text-indent:0;text-align:start;text-decoration:none;line-height:normal;letter-spacing:normal;word-spacing:normal;text-transform:none;direction:ltr;block-progression:tb;writing-mode:lr-tb;text-anchor:start;color:#000000;fill:#000000;fill-opacity:1;stroke:none;stroke-width:1;marker:none;visibility:visible;display:inline;overflow:visible;enable-background:accumulate;font-family:Bitstream Charter;-inkscape-font-specification:Bitstream Charter"
       d="m 79.5625,31.53125 0.78125,0.625 0.625,-0.75 L 80.1875,30.75 z"
       id="path4515" />
    <path
       style="font-size:medium;font-style:normal;font-variant:normal;font-weight:normal;font-stretch:normal;text-indent:0;text-align:start;text-decoration:none;line-height:normal;letter-spacing:normal;word-spacing:normal;text-transform:none;direction:ltr;block-progression:tb;writing-mode:lr-tb;text-anchor:start;color:#000000;fill:#000000;fill-opacity:1;stroke:none;stroke-width:1;marker:none;visibility:visible;display:inline;overflow:visible;enable-background:accumulate;font-family:Bitstream Charter;-inkscape-font-specification:Bitstream Charter"
       d="m 77.65625,33.875 0.78125,0.625 0.625,-0.78125 -0.75,-0.625 z"
       id="path4513" />
    <path
       style="font-size:medium;font-style:normal;font-variant:normal;font-weight:normal;font-stretch:normal;text-indent:0;text-align:start;text-decoration:none;line-height:normal;letter-spacing:normal;word-spacing:normal;text-transform:none;direction:ltr;block-progression:tb;writing-mode:lr-tb;text-anchor:start;color:#000000;fill:#000000;fill-opacity:1;stroke:none;stroke-width:1;marker:none;visibility:visible;display:inline;overflow:visible;enable-background:accumulate;font-family:Bitstream Charter;-inkscape-font-specification:Bitstream Charter"
       d="m 75.78125,36.1875 0.78125,0.625 0.625,-0.78125 -0.78125,-0.625 z"
       id="path4511" />
    <path
       style="font-size:medium;font-style:normal;font-variant:normal;font-weight:normal;font-stretch:normal;text-indent:0;text-align:start;text-decoration:none;line-height:normal;letter-spacing:normal;word-spacing:normal;text-transform:none;direction:ltr;block-progression:tb;writing-mode:lr-tb;text-anchor:start;color:#000000;fill:#000000;fill-opacity:1;stroke:none;stroke-width:1;marker:none;visibility:visible;display:inline;overflow:visible;enable-background:accumulate;font-family:Bitstream Charter;-inkscape-font-specification:Bitstream Charter"
       d="m 73.875,38.5 0.78125,0.65625 0.625,-0.78125 L 74.5,37.75 z"
       id="path4509" />
    <path
       style="font-size:medium;font-style:normal;font-variant:normal;font-weight:normal;font-stretch:normal;text-indent:0;text-align:start;text-decoration:none;line-height:normal;letter-spacing:normal;word-spacing:normal;text-transform:none;direction:ltr;block-progression:tb;writing-mode:lr-tb;text-anchor:start;color:#000000;fill:#000000;fill-opacity:1;stroke:none;stroke-width:1;marker:none;visibility:visible;display:inline;overflow:visible;enable-background:accumulate;font-family:Bitstream Charter;-inkscape-font-specification:Bitstream Charter"
       d="m 72,40.84375 0.75,0.625 0.65625,-0.78125 -0.78125,-0.625 z"
       id="path4288" />
  </g>
</svg>
