<?xml version="1.0" encoding="UTF-8" standalone="no"?>
<!-- Created with Inkscape (http://www.inkscape.org/) -->

<svg
   xmlns:dc="http://purl.org/dc/elements/1.1/"
   xmlns:cc="http://creativecommons.org/ns#"
   xmlns:rdf="http://www.w3.org/1999/02/22-rdf-syntax-ns#"
   xmlns:svg="http://www.w3.org/2000/svg"
   xmlns="http://www.w3.org/2000/svg"
   xmlns:sodipodi="http://sodipodi.sourceforge.net/DTD/sodipodi-0.dtd"
   xmlns:inkscape="http://www.inkscape.org/namespaces/inkscape"
   width="260"
   height="160"
   id="svg2"
   version="1.1"
   inkscape:version="0.47 r22583"
   sodipodi:docname="2010-(11)nov-10 figur 0.svg">
  <defs
     id="defs4" />
  <sodipodi:namedview
     id="base"
     pagecolor="#ffffff"
     bordercolor="#666666"
     borderopacity="1.0"
     inkscape:pageopacity="0.0"
     inkscape:pageshadow="2"
     inkscape:zoom="1.4142136"
     inkscape:cx="206.04665"
     inkscape:cy="93.697286"
     inkscape:document-units="px"
     inkscape:current-layer="layer1"
     showgrid="false"
     inkscape:window-width="1589"
     inkscape:window-height="1117"
     inkscape:window-x="1600"
     inkscape:window-y="27"
     inkscape:window-maximized="1"
     showguides="true"
     inkscape:guide-bbox="true"
     inkscape:snap-midpoints="true"
     inkscape:snap-global="false" />
  <metadata
     id="metadata7">
    <rdf:RDF>
      <cc:Work
         rdf:about="">
        <dc:format>image/svg+xml</dc:format>
        <dc:type
           rdf:resource="http://purl.org/dc/dcmitype/StillImage" />
        <dc:title />
      </cc:Work>
    </rdf:RDF>
  </metadata>
  <g
     inkscape:label="Layer 1"
     inkscape:groupmode="layer"
     id="layer1">
    <path
       style="font-size:12px;font-style:normal;font-variant:normal;font-weight:normal;font-stretch:normal;fill:#000000;fill-opacity:1;stroke:none;font-family:DejaVu Sans;-inkscape-font-specification:DejaVu Sans"
       d="M 179.34375 132.09375 C 178.36328 132.09376 177.61328 132.50391 177.09375 133.28125 C 176.57812 134.05469 176.3125 135.17969 176.3125 136.65625 C 176.3125 138.12891 176.57812 139.25391 177.09375 140.03125 C 177.61328 140.80469 178.36328 141.1875 179.34375 141.1875 C 180.32421 141.1875 181.07812 140.80469 181.59375 140.03125 C 182.11327 139.25391 182.34374 138.12891 182.34375 136.65625 C 182.34374 135.17969 182.11327 134.05469 181.59375 133.28125 C 181.07812 132.50391 180.32421 132.09376 179.34375 132.09375 z M 179.34375 133.03125 C 179.95702 133.03126 180.41406 133.33594 180.71875 133.9375 C 181.02734 134.53516 181.1875 135.45313 181.1875 136.65625 C 181.1875 137.85547 181.02734 138.74219 180.71875 139.34375 C 180.41406 139.94141 179.95702 140.25 179.34375 140.25 C 178.73437 140.25 178.27735 139.94141 177.96875 139.34375 C 177.66407 138.74219 177.5 137.85547 177.5 136.65625 C 177.5 135.45313 177.66407 134.53516 177.96875 133.9375 C 178.27735 133.33594 178.73437 133.03126 179.34375 133.03125 z "
       id="path4484" />
    <path
       style="font-size:medium;font-style:normal;font-variant:normal;font-weight:normal;font-stretch:normal;text-indent:0;text-align:start;text-decoration:none;line-height:normal;letter-spacing:normal;word-spacing:normal;text-transform:none;direction:ltr;block-progression:tb;writing-mode:lr-tb;text-anchor:start;color:#000000;fill:#000000;fill-opacity:1;stroke:none;stroke-width:1px;marker:none;visibility:visible;display:inline;overflow:visible;enable-background:accumulate;font-family:Andale Mono;-inkscape-font-specification:Andale Mono"
       d="m 15.5,5.25 0,147.75 1,0 0,-147.75 -1,0 z"
       id="path2859" />
    <path
       style="font-size:medium;font-style:normal;font-variant:normal;font-weight:normal;font-stretch:normal;text-indent:0;text-align:start;text-decoration:none;line-height:normal;letter-spacing:normal;word-spacing:normal;text-transform:none;direction:ltr;block-progression:tb;writing-mode:lr-tb;text-anchor:start;color:#000000;fill:#000000;fill-opacity:1;stroke:none;stroke-width:1px;marker:none;visibility:visible;display:inline;overflow:visible;enable-background:accumulate;font-family:Andale Mono;-inkscape-font-specification:Andale Mono"
       d="m 15.53125,6.03125 -8.875,8.875 0.6875,0.6875 8.875,-8.875 -0.6875,-0.6875 z"
       id="path2861" />
    <path
       style="font-size:medium;font-style:normal;font-variant:normal;font-weight:normal;font-stretch:normal;text-indent:0;text-align:start;text-decoration:none;line-height:normal;letter-spacing:normal;word-spacing:normal;text-transform:none;direction:ltr;block-progression:tb;writing-mode:lr-tb;text-anchor:start;color:#000000;fill:#000000;fill-opacity:1;stroke:none;stroke-width:1px;marker:none;visibility:visible;display:inline;overflow:visible;enable-background:accumulate;font-family:Andale Mono;-inkscape-font-specification:Andale Mono"
       d="m 15.53125,14.03125 -8.875,8.875 0.6875,0.6875 8.875,-8.875 -0.6875,-0.6875 z"
       id="path2863" />
    <path
       style="font-size:medium;font-style:normal;font-variant:normal;font-weight:normal;font-stretch:normal;text-indent:0;text-align:start;text-decoration:none;line-height:normal;letter-spacing:normal;word-spacing:normal;text-transform:none;direction:ltr;block-progression:tb;writing-mode:lr-tb;text-anchor:start;color:#000000;fill:#000000;fill-opacity:1;stroke:none;stroke-width:1px;marker:none;visibility:visible;display:inline;overflow:visible;enable-background:accumulate;font-family:Andale Mono;-inkscape-font-specification:Andale Mono"
       d="m 15.53125,22.03125 -8.875,8.875 0.6875,0.6875 8.875,-8.875 -0.6875,-0.6875 z"
       id="path2865" />
    <path
       style="font-size:medium;font-style:normal;font-variant:normal;font-weight:normal;font-stretch:normal;text-indent:0;text-align:start;text-decoration:none;line-height:normal;letter-spacing:normal;word-spacing:normal;text-transform:none;direction:ltr;block-progression:tb;writing-mode:lr-tb;text-anchor:start;color:#000000;fill:#000000;fill-opacity:1;stroke:none;stroke-width:1px;marker:none;visibility:visible;display:inline;overflow:visible;enable-background:accumulate;font-family:Andale Mono;-inkscape-font-specification:Andale Mono"
       d="m 15.53125,30.03125 -8.875,8.875 0.6875,0.6875 8.875,-8.875 -0.6875,-0.6875 z"
       id="path2867" />
    <path
       style="font-size:medium;font-style:normal;font-variant:normal;font-weight:normal;font-stretch:normal;text-indent:0;text-align:start;text-decoration:none;line-height:normal;letter-spacing:normal;word-spacing:normal;text-transform:none;direction:ltr;block-progression:tb;writing-mode:lr-tb;text-anchor:start;color:#000000;fill:#000000;fill-opacity:1;stroke:none;stroke-width:1px;marker:none;visibility:visible;display:inline;overflow:visible;enable-background:accumulate;font-family:Andale Mono;-inkscape-font-specification:Andale Mono"
       d="m 15.53125,38.03125 -8.875,8.875 0.6875,0.6875 8.875,-8.875 -0.6875,-0.6875 z"
       id="path2869" />
    <path
       style="font-size:medium;font-style:normal;font-variant:normal;font-weight:normal;font-stretch:normal;text-indent:0;text-align:start;text-decoration:none;line-height:normal;letter-spacing:normal;word-spacing:normal;text-transform:none;direction:ltr;block-progression:tb;writing-mode:lr-tb;text-anchor:start;color:#000000;fill:#000000;fill-opacity:1;stroke:none;stroke-width:1px;marker:none;visibility:visible;display:inline;overflow:visible;enable-background:accumulate;font-family:Andale Mono;-inkscape-font-specification:Andale Mono"
       d="m 15.53125,46.03125 -8.875,8.875 0.6875,0.6875 8.875,-8.875 -0.6875,-0.6875 z"
       id="path2871" />
    <path
       style="font-size:medium;font-style:normal;font-variant:normal;font-weight:normal;font-stretch:normal;text-indent:0;text-align:start;text-decoration:none;line-height:normal;letter-spacing:normal;word-spacing:normal;text-transform:none;direction:ltr;block-progression:tb;writing-mode:lr-tb;text-anchor:start;color:#000000;fill:#000000;fill-opacity:1;stroke:none;stroke-width:1px;marker:none;visibility:visible;display:inline;overflow:visible;enable-background:accumulate;font-family:Andale Mono;-inkscape-font-specification:Andale Mono"
       d="m 15.53125,54.03125 -8.875,8.875 0.6875,0.6875 8.875,-8.875 -0.6875,-0.6875 z"
       id="path2873" />
    <path
       style="font-size:medium;font-style:normal;font-variant:normal;font-weight:normal;font-stretch:normal;text-indent:0;text-align:start;text-decoration:none;line-height:normal;letter-spacing:normal;word-spacing:normal;text-transform:none;direction:ltr;block-progression:tb;writing-mode:lr-tb;text-anchor:start;color:#000000;fill:#000000;fill-opacity:1;stroke:none;stroke-width:1px;marker:none;visibility:visible;display:inline;overflow:visible;enable-background:accumulate;font-family:Andale Mono;-inkscape-font-specification:Andale Mono"
       d="m 15.53125,62.03125 -8.875,8.875 0.6875,0.6875 8.875,-8.875 -0.6875,-0.6875 z"
       id="path2875" />
    <path
       style="font-size:medium;font-style:normal;font-variant:normal;font-weight:normal;font-stretch:normal;text-indent:0;text-align:start;text-decoration:none;line-height:normal;letter-spacing:normal;word-spacing:normal;text-transform:none;direction:ltr;block-progression:tb;writing-mode:lr-tb;text-anchor:start;color:#000000;fill:#000000;fill-opacity:1;stroke:none;stroke-width:1px;marker:none;visibility:visible;display:inline;overflow:visible;enable-background:accumulate;font-family:Andale Mono;-inkscape-font-specification:Andale Mono"
       d="m 15.53125,70.03125 -8.875,8.875 0.6875,0.6875 8.875,-8.875 -0.6875,-0.6875 z"
       id="path2877" />
    <path
       style="font-size:medium;font-style:normal;font-variant:normal;font-weight:normal;font-stretch:normal;text-indent:0;text-align:start;text-decoration:none;line-height:normal;letter-spacing:normal;word-spacing:normal;text-transform:none;direction:ltr;block-progression:tb;writing-mode:lr-tb;text-anchor:start;color:#000000;fill:#000000;fill-opacity:1;stroke:none;stroke-width:1px;marker:none;visibility:visible;display:inline;overflow:visible;enable-background:accumulate;font-family:Andale Mono;-inkscape-font-specification:Andale Mono"
       d="m 15.53125,78.03125 -8.875,8.875 0.6875,0.6875 8.875,-8.875 -0.6875,-0.6875 z"
       id="path2879" />
    <path
       style="font-size:medium;font-style:normal;font-variant:normal;font-weight:normal;font-stretch:normal;text-indent:0;text-align:start;text-decoration:none;line-height:normal;letter-spacing:normal;word-spacing:normal;text-transform:none;direction:ltr;block-progression:tb;writing-mode:lr-tb;text-anchor:start;color:#000000;fill:#000000;fill-opacity:1;stroke:none;stroke-width:1px;marker:none;visibility:visible;display:inline;overflow:visible;enable-background:accumulate;font-family:Andale Mono;-inkscape-font-specification:Andale Mono"
       d="m 15.53125,86.03125 -8.875,8.875 0.6875,0.6875 8.875,-8.875 -0.6875,-0.6875 z"
       id="path2881" />
    <path
       style="font-size:medium;font-style:normal;font-variant:normal;font-weight:normal;font-stretch:normal;text-indent:0;text-align:start;text-decoration:none;line-height:normal;letter-spacing:normal;word-spacing:normal;text-transform:none;direction:ltr;block-progression:tb;writing-mode:lr-tb;text-anchor:start;color:#000000;fill:#000000;fill-opacity:1;stroke:none;stroke-width:1px;marker:none;visibility:visible;display:inline;overflow:visible;enable-background:accumulate;font-family:Andale Mono;-inkscape-font-specification:Andale Mono"
       d="m 15.53125,94.03125 -8.875,8.875 0.6875,0.6875 8.875,-8.875 -0.6875,-0.6875 z"
       id="path2883" />
    <path
       style="font-size:medium;font-style:normal;font-variant:normal;font-weight:normal;font-stretch:normal;text-indent:0;text-align:start;text-decoration:none;line-height:normal;letter-spacing:normal;word-spacing:normal;text-transform:none;direction:ltr;block-progression:tb;writing-mode:lr-tb;text-anchor:start;color:#000000;fill:#000000;fill-opacity:1;stroke:none;stroke-width:1px;marker:none;visibility:visible;display:inline;overflow:visible;enable-background:accumulate;font-family:Andale Mono;-inkscape-font-specification:Andale Mono"
       d="m 15.53125,102.03125 -8.875,8.875 0.6875,0.6875 8.875,-8.875 -0.6875,-0.6875 z"
       id="path2885" />
    <path
       style="font-size:medium;font-style:normal;font-variant:normal;font-weight:normal;font-stretch:normal;text-indent:0;text-align:start;text-decoration:none;line-height:normal;letter-spacing:normal;word-spacing:normal;text-transform:none;direction:ltr;block-progression:tb;writing-mode:lr-tb;text-anchor:start;color:#000000;fill:#000000;fill-opacity:1;stroke:none;stroke-width:1px;marker:none;visibility:visible;display:inline;overflow:visible;enable-background:accumulate;font-family:Andale Mono;-inkscape-font-specification:Andale Mono"
       d="m 15.53125,110.03125 -8.875,8.875 0.6875,0.6875 8.875,-8.875 -0.6875,-0.6875 z"
       id="path2887" />
    <path
       style="font-size:medium;font-style:normal;font-variant:normal;font-weight:normal;font-stretch:normal;text-indent:0;text-align:start;text-decoration:none;line-height:normal;letter-spacing:normal;word-spacing:normal;text-transform:none;direction:ltr;block-progression:tb;writing-mode:lr-tb;text-anchor:start;color:#000000;fill:#000000;fill-opacity:1;stroke:none;stroke-width:1px;marker:none;visibility:visible;display:inline;overflow:visible;enable-background:accumulate;font-family:Andale Mono;-inkscape-font-specification:Andale Mono"
       d="m 15.53125,118.03125 -8.875,8.875 0.6875,0.6875 8.875,-8.875 -0.6875,-0.6875 z"
       id="path2889" />
    <path
       style="font-size:medium;font-style:normal;font-variant:normal;font-weight:normal;font-stretch:normal;text-indent:0;text-align:start;text-decoration:none;line-height:normal;letter-spacing:normal;word-spacing:normal;text-transform:none;direction:ltr;block-progression:tb;writing-mode:lr-tb;text-anchor:start;color:#000000;fill:#000000;fill-opacity:1;stroke:none;stroke-width:1px;marker:none;visibility:visible;display:inline;overflow:visible;enable-background:accumulate;font-family:Andale Mono;-inkscape-font-specification:Andale Mono"
       d="m 15.53125,126.03125 -8.875,8.875 0.6875,0.6875 8.875,-8.875 -0.6875,-0.6875 z"
       id="path2891" />
    <path
       style="font-size:medium;font-style:normal;font-variant:normal;font-weight:normal;font-stretch:normal;text-indent:0;text-align:start;text-decoration:none;line-height:normal;letter-spacing:normal;word-spacing:normal;text-transform:none;direction:ltr;block-progression:tb;writing-mode:lr-tb;text-anchor:start;color:#000000;fill:#000000;fill-opacity:1;stroke:none;stroke-width:1px;marker:none;visibility:visible;display:inline;overflow:visible;enable-background:accumulate;font-family:Andale Mono;-inkscape-font-specification:Andale Mono"
       d="m 15.53125,134.03125 -8.875,8.875 0.6875,0.6875 8.875,-8.875 -0.6875,-0.6875 z"
       id="path2893" />
    <path
       style="font-size:medium;font-style:normal;font-variant:normal;font-weight:normal;font-stretch:normal;text-indent:0;text-align:start;text-decoration:none;line-height:normal;letter-spacing:normal;word-spacing:normal;text-transform:none;direction:ltr;block-progression:tb;writing-mode:lr-tb;text-anchor:start;color:#000000;fill:#000000;fill-opacity:1;stroke:none;stroke-width:1px;marker:none;visibility:visible;display:inline;overflow:visible;enable-background:accumulate;font-family:Andale Mono;-inkscape-font-specification:Andale Mono"
       d="m 15.53125,142.03125 -8.875,8.875 0.6875,0.6875 8.875,-8.875 -0.6875,-0.6875 z"
       id="path2895" />
    <g
       id="g4498">
      <path
         style="font-size:medium;font-style:normal;font-variant:normal;font-weight:normal;font-stretch:normal;text-indent:0;text-align:start;text-decoration:none;line-height:normal;letter-spacing:normal;word-spacing:normal;text-transform:none;direction:ltr;block-progression:tb;writing-mode:lr-tb;text-anchor:start;color:#000000;fill:#000000;fill-opacity:1;stroke:none;stroke-width:1px;marker:none;visibility:visible;display:inline;overflow:visible;enable-background:accumulate;font-family:Andale Mono;-inkscape-font-specification:Andale Mono"
         d="m 16.25,106.1875 0,1 227.34375,0 0,-1 -227.34375,0 z"
         id="path2899" />
      <path
         d="m 232.9091,102.24561 12.01847,4.4195 -12.01847,4.41949 c 1.92005,-2.60927 1.90899,-6.1792 0,-8.83899 z"
         style="font-size:12px;fill-rule:evenodd;stroke-width:0.625;stroke-linejoin:round"
         id="path4504" />
    </g>
    <g
       transform="translate(8.5,25)"
       style="font-size:12px;font-style:normal;font-weight:normal;fill:#000000;fill-opacity:1;stroke:none;font-family:Bitstream Vera Sans"
       id="flowRoot4313">
      <path
         d="m 246.33594,78.39849 -2.37305,3.193359 2.49609,3.369141 -1.27148,0 -1.91016,-2.578125 -1.91015,2.578125 -1.27149,0 2.54883,-3.433594 -2.33203,-3.128906 1.27148,0 1.74024,2.337891 1.74023,-2.337891 1.27149,0"
         style="font-variant:normal;font-stretch:normal;font-family:DejaVu Sans;-inkscape-font-specification:DejaVu Sans"
         id="path4473" />
    </g>
    <path
       style="font-size:medium;font-style:normal;font-variant:normal;font-weight:normal;font-stretch:normal;text-indent:0;text-align:start;text-decoration:none;line-height:normal;letter-spacing:normal;word-spacing:normal;text-transform:none;direction:ltr;block-progression:tb;writing-mode:lr-tb;text-anchor:start;color:#000000;fill:#000000;fill-opacity:1;stroke:none;stroke-width:1;marker:none;visibility:visible;display:inline;overflow:visible;enable-background:accumulate;font-family:Andale Mono;-inkscape-font-specification:Andale Mono"
       d="M 131.65625 56.1875 A 0.50005 0.50005 0 0 0 131.3125 56.6875 L 131.3125 106.6875 A 0.50005 0.50005 0 0 0 131.8125 107.1875 L 201.8125 107.1875 A 0.50005 0.50005 0 0 0 202.3125 106.6875 L 202.3125 56.6875 A 0.50005 0.50005 0 0 0 201.8125 56.1875 L 131.8125 56.1875 A 0.50005 0.50005 0 0 0 131.71875 56.1875 A 0.50005 0.50005 0 0 0 131.65625 56.1875 z M 132.3125 57.1875 L 201.3125 57.1875 L 201.3125 106.1875 L 132.3125 106.1875 L 132.3125 57.1875 z "
       id="path4588" />
    <g
       transform="translate(-82.996338,-3.9363596)"
       style="font-size:12px;font-style:normal;font-weight:normal;fill:#000000;fill-opacity:1;stroke:none;font-family:Bitstream Vera Sans"
       id="flowRoot4313-9">
      <path
         d="m 242.10547,79.425886 3.52734,0 4.46485,11.90625 4.48828,-11.90625 3.52734,0 0,17.496094 -2.30859,0 0,-15.363281 -4.51172,12 -2.37891,0 -4.51172,-12 0,15.363281 -2.29687,0 0,-17.496094"
         style="font-size:24px;font-variant:normal;font-stretch:normal;font-family:DejaVu Sans;-inkscape-font-specification:DejaVu Sans"
         id="path4477" />
    </g>
    <path
       style="font-size:medium;font-style:normal;font-variant:normal;font-weight:normal;font-stretch:normal;text-indent:0;text-align:start;text-decoration:none;line-height:normal;letter-spacing:normal;word-spacing:normal;text-transform:none;direction:ltr;block-progression:tb;writing-mode:lr-tb;text-anchor:start;color:#000000;fill:#000000;fill-opacity:1;stroke:none;stroke-width:1px;marker:none;visibility:visible;display:inline;overflow:visible;enable-background:accumulate;font-family:Andale Mono;-inkscape-font-specification:Andale Mono"
       d="m 166.25,106.5 0,22.75 1,0 0,-22.75 -1,0 z"
       id="path4368" />
    <path
       style="font-size:12px;font-style:normal;font-variant:normal;font-weight:normal;font-stretch:normal;fill:#000000;fill-opacity:1;stroke:none;font-family:DejaVu Sans;-inkscape-font-specification:DejaVu Sans"
       d="m 157.3086,134.45098 -2.37305,3.19336 2.49609,3.36914 -1.27148,0 -1.91016,-2.57812 -1.91015,2.57812 -1.27149,0 2.54883,-3.43359 -2.33203,-3.12891 1.27148,0 1.74024,2.3379 1.74023,-2.3379 1.27149,0"
       id="path4480" />
    <path
       style="font-size:12px;font-style:normal;font-variant:normal;font-weight:normal;font-stretch:normal;fill:#000000;fill-opacity:1;stroke:none;font-family:DejaVu Sans;-inkscape-font-specification:DejaVu Sans"
       d="m 162.91602,135.56427 7.51172,0 0,0.98437 -7.51172,0 0,-0.98437"
       id="path4643" />
    <path
       style="font-size:12px;font-style:normal;font-variant:normal;font-weight:normal;font-stretch:normal;fill:#000000;fill-opacity:1;stroke:none;font-family:DejaVu Sans;-inkscape-font-specification:DejaVu Sans"
       d="m 162.91602,137.95489 7.51172,0 0,0.99609 -7.51172,0 0,-0.99609"
       id="path4482" />
    <path
       style="font-size:medium;font-style:normal;font-variant:normal;font-weight:normal;font-stretch:normal;text-indent:0;text-align:start;text-decoration:none;line-height:normal;letter-spacing:normal;word-spacing:normal;text-transform:none;direction:ltr;block-progression:tb;writing-mode:lr-tb;text-anchor:start;color:#000000;fill:#000000;fill-opacity:1;stroke:none;stroke-width:1px;marker:none;visibility:visible;display:inline;overflow:visible;enable-background:accumulate;font-family:Andale Mono;-inkscape-font-specification:Andale Mono"
       d="m 40.46875,68.40625 c -0.121905,0.01661 -0.235107,0.06777 -0.34375,0.125 -0.217286,0.114454 -0.38734,0.287309 -0.5625,0.5 -0.35032,0.425382 -0.696745,1.066257 -1.0625,1.9375 -0.731511,1.742487 -1.565004,4.492934 -2.5625,8.59375 l 0.96875,0.21875 c 0.991242,-4.075106 1.84026,-6.791536 2.53125,-8.4375 0.345495,-0.822982 0.63595,-1.36598 0.875,-1.65625 0.119525,-0.145135 0.23186,-0.223984 0.28125,-0.25 0.04939,-0.02602 0.03592,-0.03011 0.03125,-0.03125 -0.0093,-0.0023 0.147869,0.09329 0.3125,0.4375 0.164631,0.344212 0.322203,0.878648 0.46875,1.53125 0.293094,1.305203 0.511683,3.11031 0.6875,5.09375 0.351635,3.96688 0.521206,8.654169 0.6875,11.75 0.08315,1.547916 0.129875,2.664105 0.28125,3.25 0.01892,0.07324 0.05844,0.110887 0.09375,0.1875 0.03531,0.07661 0.07435,0.207777 0.25,0.3125 0.08782,0.05236 0.218615,0.0802 0.34375,0.0625 0.125135,-0.0177 0.221464,-0.07441 0.28125,-0.125 0.119571,-0.101182 0.15327,-0.17613 0.1875,-0.25 0.136921,-0.295481 0.179662,-0.649149 0.28125,-1.28125 0.960152,-6.443073 1.936972,-12.919127 4.28125,-19.03125 0.345495,-0.822982 0.6672,-1.365979 0.90625,-1.65625 0.119525,-0.145135 0.23186,-0.223984 0.28125,-0.25 0.04939,-0.02602 0.03592,0.0011 0.03125,0 -0.0093,-0.0023 0.147869,0.09329 0.3125,0.4375 0.164631,0.344211 0.322203,0.878648 0.46875,1.53125 0.293094,1.305203 0.511683,3.11031 0.6875,5.09375 0.351635,3.966879 0.521206,8.654168 0.6875,11.75 0.08315,1.547916 0.129875,2.632855 0.28125,3.21875 0.01892,0.07324 0.05844,0.142137 0.09375,0.21875 0.03531,0.07661 0.0431,0.176527 0.21875,0.28125 0.08782,0.05236 0.249865,0.0802 0.375,0.0625 0.125135,-0.0177 0.221464,-0.07441 0.28125,-0.125 0.119572,-0.101182 0.15327,-0.17613 0.1875,-0.25 0.136921,-0.295481 0.179662,-0.64915 0.28125,-1.28125 0.79573,-6.482652 1.950181,-14.413399 4.3125,-18.9375 0.345495,-0.822982 0.63595,-1.365979 0.875,-1.65625 0.119525,-0.145135 0.23186,-0.223984 0.28125,-0.25 0.04939,-0.02602 0.03592,0.0011 0.03125,0 -0.0093,-0.0023 0.147869,0.09329 0.3125,0.4375 0.164631,0.344211 0.322203,0.847398 0.46875,1.5 0.293094,1.305203 0.511683,3.11031 0.6875,5.09375 0.351635,3.966879 0.521206,8.685418 0.6875,11.78125 0.08315,1.547916 0.129875,2.632855 0.28125,3.21875 0.01892,0.07324 0.05844,0.142137 0.09375,0.21875 0.03531,0.07661 0.07435,0.176527 0.25,0.28125 0.08782,0.05236 0.218615,0.0802 0.34375,0.0625 0.125135,-0.0177 0.221464,-0.07441 0.28125,-0.125 0.119571,-0.101182 0.15327,-0.17613 0.1875,-0.25 0.136921,-0.295481 0.179662,-0.64915 0.28125,-1.28125 0.786554,-6.48431 2.137394,-12.794749 4.34375,-18.9375 0.345495,-0.822982 0.6672,-1.39723 0.90625,-1.6875 0.119525,-0.145135 0.23186,-0.223984 0.28125,-0.25 -0.0093,-0.0023 0.147869,0.09329 0.3125,0.4375 0.164631,0.344212 0.353453,0.878648 0.5,1.53125 0.293094,1.305203 0.511683,3.11031 0.6875,5.09375 0.351635,3.96688 0.521206,8.654169 0.6875,11.75 0.08315,1.547916 0.129875,2.632855 0.28125,3.21875 0.01892,0.07324 0.02719,0.142137 0.0625,0.21875 0.03531,0.07661 0.07435,0.176527 0.25,0.28125 0.08782,0.05236 0.249865,0.111454 0.375,0.09375 0.125135,-0.0177 0.190215,-0.07441 0.25,-0.125 0.119571,-0.101182 0.15327,-0.20738 0.1875,-0.28125 0.136921,-0.295481 0.210912,-0.649149 0.3125,-1.28125 0.92383,-6.450618 1.917654,-12.896002 4.28125,-19 0.345495,-0.822982 0.6672,-1.365979 0.90625,-1.65625 0.119525,-0.145135 0.20061,-0.223984 0.25,-0.25 0.04939,-0.02602 0.03592,-0.03011 0.03125,-0.03125 -0.0093,-0.0023 0.147869,0.09329 0.3125,0.4375 0.164631,0.344211 0.353453,0.878648 0.5,1.53125 0.293094,1.305203 0.511683,3.11031 0.6875,5.09375 0.351635,3.966879 0.489956,8.685418 0.65625,11.78125 0.08315,1.547916 0.161125,2.632855 0.3125,3.21875 0.01892,0.07324 0.02719,0.142137 0.0625,0.21875 0.03531,0.07661 0.07435,0.176527 0.25,0.28125 0.08782,0.05236 0.218615,0.0802 0.34375,0.0625 0.125135,-0.0177 0.221464,-0.07441 0.28125,-0.125 0.119571,-0.101182 0.15327,-0.17613 0.1875,-0.25 0.136921,-0.295481 0.210912,-0.64915 0.3125,-1.28125 0.803613,-6.476157 2.06708,-12.799022 4.28125,-18.9375 0.345495,-0.822982 0.6672,-1.36598 0.90625,-1.65625 0.119525,-0.145135 0.23186,-0.223984 0.28125,-0.25 0.0051,0.0066 0.18639,0.07724 0.34375,0.40625 0.164631,0.344212 0.322203,0.878648 0.46875,1.53125 0.293094,1.305203 0.511683,3.11031 0.6875,5.09375 0.351635,3.96688 0.521206,8.654169 0.6875,11.75 0.08315,1.547916 0.129875,2.632855 0.28125,3.21875 0.01892,0.07324 0.05844,0.142137 0.09375,0.21875 0.03531,0.07661 0.0431,0.207777 0.21875,0.3125 0.08782,0.05236 0.249865,0.0802 0.375,0.0625 0.125135,-0.0177 0.221464,-0.07441 0.28125,-0.125 0.119571,-0.101182 0.12202,-0.17613 0.15625,-0.25 0.136921,-0.295481 0.210912,-0.649149 0.3125,-1.28125 0.803617,-6.476157 2.067081,-12.799021 4.28125,-18.9375 0.345495,-0.822982 0.6672,-1.39723 0.90625,-1.6875 0.119525,-0.145135 0.23186,-0.192734 0.28125,-0.21875 0.04939,-0.02602 0.03592,-0.03011 0.03125,-0.03125 -0.0093,-0.0023 0.147869,0.09329 0.3125,0.4375 0.164631,0.344212 0.322203,0.878648 0.46875,1.53125 0.293094,1.305203 0.511682,3.11031 0.6875,5.09375 0.351635,3.96688 0.521206,8.654169 0.6875,11.75 0.08315,1.547916 0.129875,2.632855 0.28125,3.21875 0.01892,0.07324 0.05844,0.142137 0.09375,0.21875 0.03531,0.07661 0.07435,0.176527 0.25,0.28125 0.08782,0.05236 0.218615,0.111454 0.34375,0.09375 0.12513,-0.0177 0.22146,-0.07441 0.28125,-0.125 0.11957,-0.101182 0.15327,-0.20738 0.1875,-0.28125 0.13692,-0.295481 0.17966,-0.649149 0.28125,-1.28125 0.79145,-6.474477 2.07827,-12.780228 4.31245,-18.90625 0.3455,-0.822982 0.63595,-1.39723 0.875,-1.6875 0.11953,-0.145135 0.23186,-0.223984 0.28125,-0.25 0.0494,-0.02602 0.0359,0.0011 0.0312,0 -0.009,-0.0023 0.14787,0.09329 0.3125,0.4375 0.16463,0.344212 0.3222,0.878648 0.46875,1.53125 0.29309,1.305203 0.51168,3.11031 0.6875,5.09375 0.35163,3.96688 0.52121,8.654169 0.6875,11.75 0.0832,1.547916 0.16113,2.632855 0.3125,3.21875 0.0189,0.07324 0.0272,0.142137 0.0625,0.21875 0.0353,0.07661 0.0743,0.176527 0.25,0.28125 0.0878,0.05236 0.21862,0.0802 0.34375,0.0625 0.12513,-0.0177 0.22146,-0.07441 0.28125,-0.125 0.11957,-0.101182 0.15327,-0.17613 0.1875,-0.25 0.13692,-0.295481 0.17966,-0.649149 0.28125,-1.28125 1.59067,-9.897449 1.78125,-10.5625 1.78125,-10.5625 L 111,80 c 0,0 -0.50972,2.897738 -1.5,8.96875 -0.01,-0.164545 -0.022,-0.169437 -0.0312,-0.34375 -0.16516,-3.074781 -0.33203,-7.771082 -0.6875,-11.78125 -0.17774,-2.005084 -0.40694,-3.830181 -0.71875,-5.21875 -0.15591,-0.694285 -0.31091,-1.289308 -0.53125,-1.75 -0.22034,-0.460692 -0.51006,-0.849081 -1,-0.96875 -0.24497,-0.05984 -0.50146,-0.0207 -0.71875,0.09375 -0.21729,0.114454 -0.38734,0.287309 -0.5625,0.5 -0.35032,0.425382 -0.69674,1.035007 -1.0625,1.90625 -2.28235,5.5782 -3.10779,11.562412 -4.06245,17.46875 -0.01,-0.164678 -0.022,-0.169286 -0.0312,-0.34375 -0.165163,-3.074781 -0.332028,-7.771082 -0.6875,-11.78125 -0.177736,-2.005084 -0.406936,-3.830181 -0.71875,-5.21875 -0.155907,-0.694285 -0.310908,-1.289308 -0.53125,-1.75 -0.220342,-0.460692 -0.510058,-0.849081 -1,-0.96875 -0.244971,-0.05984 -0.501464,-0.0207 -0.71875,0.09375 -0.217286,0.114454 -0.41859,0.287309 -0.59375,0.5 -0.35032,0.425382 -0.665495,1.035007 -1.03125,1.90625 -2.21704,5.562754 -3.12094,11.498448 -4.0625,17.375 -0.0063,-0.108689 -0.0252,-0.106096 -0.03125,-0.21875 -0.165163,-3.074781 -0.332028,-7.802332 -0.6875,-11.8125 -0.177736,-2.005084 -0.406936,-3.830181 -0.71875,-5.21875 -0.155907,-0.694285 -0.342158,-1.258058 -0.5625,-1.71875 -0.220342,-0.460692 -0.478808,-0.880331 -0.96875,-1 -0.244971,-0.05984 -0.501464,-0.0207 -0.71875,0.09375 -0.217286,0.114454 -0.41859,0.287309 -0.59375,0.5 -0.35032,0.425382 -0.665495,1.066257 -1.03125,1.9375 C 83.158225,76.829493 82.303654,82.811234 81.3439,88.71875 81.333826,88.554205 81.321863,88.549313 81.3125,88.375 81.147337,85.300219 81.011722,80.572668 80.65625,76.5625 80.478514,74.557416 80.249314,72.732319 79.9375,71.34375 79.781593,70.649466 79.595342,70.085692 79.375,69.625 c -0.220342,-0.460692 -0.478808,-0.880331 -0.96875,-1 -0.244971,-0.05984 -0.532714,0.01055 -0.75,0.125 -0.217286,0.114454 -0.38734,0.256059 -0.5625,0.46875 -0.35032,0.425382 -0.696745,1.066257 -1.0625,1.9375 C 73.752027,76.716617 72.966447,82.680096 72,88.5625 71.9938,88.454886 71.97474,88.455244 71.96875,88.34375 71.803587,85.26897 71.636722,80.572668 71.28125,76.5625 71.103514,74.557416 70.874314,72.732319 70.5625,71.34375 70.406593,70.649465 70.220342,70.054442 70,69.59375 69.779658,69.133058 69.521192,68.74467 69.03125,68.625 c -0.244971,-0.05984 -0.501464,-0.0207 -0.71875,0.09375 -0.217286,0.114454 -0.41859,0.287309 -0.59375,0.5 -0.35032,0.425382 -0.665495,1.035007 -1.03125,1.90625 -2.260545,5.59678 -3.174826,11.578276 -4.125,17.5 C 62.5526,88.460322 62.54062,88.455714 62.53125,88.28125 62.366087,85.206469 62.199222,80.510168 61.84375,76.5 61.666014,74.494916 61.436814,72.638569 61.125,71.25 c -0.155907,-0.694284 -0.310908,-1.258058 -0.53125,-1.71875 -0.220342,-0.460692 -0.510058,-0.849081 -1,-0.96875 -0.244971,-0.05984 -0.501464,-0.0207 -0.71875,0.09375 -0.217286,0.114454 -0.38734,0.287309 -0.5625,0.5 -0.35032,0.425382 -0.696745,1.035007 -1.0625,1.90625 -2.436106,5.525359 -3.10613,11.565515 -4.0625,17.46875 C 53.1776,88.366572 53.16562,88.361964 53.15625,88.1875 52.991087,85.112719 52.824222,80.416418 52.46875,76.40625 52.291014,74.401166 52.061814,72.576069 51.75,71.1875 c -0.155907,-0.694284 -0.310908,-1.289308 -0.53125,-1.75 -0.220342,-0.460692 -0.510058,-0.849081 -1,-0.96875 -0.244971,-0.05984 -0.501464,-0.0207 -0.71875,0.09375 -0.217286,0.114454 -0.41859,0.287309 -0.59375,0.5 -0.35032,0.425382 -0.665495,1.035007 -1.03125,1.90625 -2.294304,5.610798 -3.087517,11.628206 -4.0625,17.5625 C 43.8026,88.366572 43.79062,88.361964 43.78125,88.1875 43.616087,85.112719 43.449222,80.385168 43.09375,76.375 42.916014,74.369916 42.686814,72.544819 42.375,71.15625 42.219093,70.461965 42.064092,69.898192 41.84375,69.4375 c -0.220342,-0.460692 -0.510058,-0.880331 -1,-1 -0.122485,-0.02992 -0.253095,-0.04786 -0.375,-0.03125 z"
       id="path4401"
       sodipodi:nodetypes="csssccssssssssssssssccsssssssssssssccsssssssssssssccssssssssssssccsssssssssssssccssssssssssssccsssssssssssssccsssssssssssssscccsssssssccsssssssccsssssssccsssssssccsssssssccsssssssccsssssssccsssssc" />
    <path
       style="font-size:medium;font-style:normal;font-variant:normal;font-weight:normal;font-stretch:normal;text-indent:0;text-align:start;text-decoration:none;line-height:normal;letter-spacing:normal;word-spacing:normal;text-transform:none;direction:ltr;block-progression:tb;writing-mode:lr-tb;text-anchor:start;color:#000000;fill:#000000;fill-opacity:1;stroke:none;stroke-width:1px;marker:none;visibility:visible;display:inline;overflow:visible;enable-background:accumulate;font-family:Andale Mono;-inkscape-font-specification:Andale Mono"
       d="m 111,79.875 0,1 20.625,0 0,-1 -20.625,0 z"
       id="path4468" />
    <path
       style="font-size:medium;font-style:normal;font-variant:normal;font-weight:normal;font-stretch:normal;text-indent:0;text-align:start;text-decoration:none;line-height:normal;letter-spacing:normal;word-spacing:normal;text-transform:none;direction:ltr;block-progression:tb;writing-mode:lr-tb;text-anchor:start;color:#000000;fill:#000000;fill-opacity:1;stroke:none;stroke-width:1px;marker:none;visibility:visible;display:inline;overflow:visible;enable-background:accumulate;font-family:Andale Mono;-inkscape-font-specification:Andale Mono"
       d="m 16.25,78.6875 0,1 20.25,0 0,-1 -20.25,0 z"
       id="path4470" />
  </g>
</svg>
