<?xml version="1.0" encoding="UTF-8" standalone="no"?>
<!-- Created with Inkscape (http://www.inkscape.org/) -->

<svg
   xmlns:dc="http://purl.org/dc/elements/1.1/"
   xmlns:cc="http://creativecommons.org/ns#"
   xmlns:rdf="http://www.w3.org/1999/02/22-rdf-syntax-ns#"
   xmlns:svg="http://www.w3.org/2000/svg"
   xmlns="http://www.w3.org/2000/svg"
   xmlns:sodipodi="http://sodipodi.sourceforge.net/DTD/sodipodi-0.dtd"
   xmlns:inkscape="http://www.inkscape.org/namespaces/inkscape"
   width="180"
   height="230"
   id="svg2"
   version="1.1"
   inkscape:version="0.47 r22583"
   sodipodi:docname="2010-(11)nov-01 figur 6.svg">
  <defs
     id="defs4" />
  <sodipodi:namedview
     id="base"
     pagecolor="#ffffff"
     bordercolor="#666666"
     borderopacity="1.0"
     inkscape:pageopacity="0.0"
     inkscape:pageshadow="2"
     inkscape:zoom="1.4142136"
     inkscape:cx="-147.27645"
     inkscape:cy="87.290325"
     inkscape:document-units="px"
     inkscape:current-layer="layer1"
     showgrid="false"
     inkscape:window-width="1589"
     inkscape:window-height="1117"
     inkscape:window-x="1600"
     inkscape:window-y="27"
     inkscape:window-maximized="1"
     showguides="true"
     inkscape:guide-bbox="true"
     inkscape:snap-midpoints="true" />
  <metadata
     id="metadata7">
    <rdf:RDF>
      <cc:Work
         rdf:about="">
        <dc:format>image/svg+xml</dc:format>
        <dc:type
           rdf:resource="http://purl.org/dc/dcmitype/StillImage" />
        <dc:title />
      </cc:Work>
    </rdf:RDF>
  </metadata>
  <g
     inkscape:label="Layer 1"
     inkscape:groupmode="layer"
     id="layer1">
    <path
       style="font-size:medium;font-style:normal;font-variant:normal;font-weight:normal;font-stretch:normal;text-indent:0;text-align:start;text-decoration:none;line-height:normal;letter-spacing:normal;word-spacing:normal;text-transform:none;direction:ltr;block-progression:tb;writing-mode:lr-tb;text-anchor:start;color:#000000;fill:#000000;fill-opacity:0.44354838;stroke:none;stroke-width:1px;marker:none;visibility:visible;display:inline;overflow:visible;enable-background:accumulate;font-family:Bitstream Charter;-inkscape-font-specification:Bitstream Charter"
       d="m 95.90625,31.3125 -0.5,0.03125 0,2.546825 L 104,70.75 105,70.5 95.90625,31.3125 z"
       id="path3608"
       sodipodi:nodetypes="cccccc" />
    <path
       style="font-size:12px;font-style:normal;font-variant:normal;font-weight:normal;font-stretch:normal;fill:#000000;fill-opacity:1;stroke:none;font-family:DejaVu Sans;-inkscape-font-specification:DejaVu Sans"
       d="m 105.3125,27.1875 c -0.64844,0.10939 -1.16406,0.38672 -1.5625,0.8125 -0.53125,0.57032 -0.78125,1.41407 -0.78125,2.53125 0,1.07422 0.25,1.92188 0.78125,2.53125 0.52344,0.59766 1.16015,0.875 1.9375,0.875 l 0,2.34375 1.09375,0 0,-2.34375 c 0.79296,0 1.43358,-0.28125 1.9375,-0.875 0.53515,-0.6289 0.81249,-1.47265 0.8125,-2.53125 -1e-5,-1.15234 -0.27735,-2.01171 -0.8125,-2.5625 -0.4961,-0.51562 -1.01563,-0.78124 -1.5625,-0.78125 -0.96875,10e-6 -1.46875,0.60156 -1.46875,1.78125 l 0,4.03125 c -0.4375,0 -0.79297,-0.22265 -1.09375,-0.625 -0.33594,-0.44922 -0.5,-1.05469 -0.5,-1.84375 0,-0.74218 0.16406,-1.33203 0.5,-1.78125 0.22656,-0.30468 0.46093,-0.50395 0.71875,-0.59375 l 0,-0.96875 z m 1.84375,0.9375 c 0.21094,0 0.4453,0.17579 0.71875,0.53125 0.33593,0.4375 0.5,1.0625 0.5,1.875 0,0.8711 -0.16798,1.48047 -0.5,1.84375 -0.3711,0.40625 -0.72267,0.59375 -1.09375,0.59375 l 0,-4 c 0,-0.5664 0.12109,-0.84375 0.375,-0.84375 z"
       id="path3838" />
    <path
       style="font-size:12px;font-style:normal;font-variant:normal;font-weight:normal;font-stretch:normal;fill:#000000;fill-opacity:1;stroke:none;font-family:DejaVu Sans;-inkscape-font-specification:DejaVu Sans"
       d="m 15.3125,128.5625 c -0.980472,1e-5 -1.730471,0.37891 -2.25,1.15625 -0.515626,0.77344 -0.781251,1.89844 -0.78125,3.375 -10e-7,1.47265 0.265624,2.59765 0.78125,3.375 0.519529,0.77343 1.269528,1.15625 2.25,1.15625 0.980464,0 1.734369,-0.38282 2.25,-1.15625 0.519525,-0.77735 0.781243,-1.90235 0.78125,-3.375 -7e-6,-1.47656 -0.261725,-2.60156 -0.78125,-3.375 -0.515631,-0.77734 -1.269536,-1.15624 -2.25,-1.15625 z m 0,0.9375 c 0.613277,1e-5 1.070308,0.3047 1.375,0.90625 0.308588,0.59767 0.468744,1.48438 0.46875,2.6875 -6e-6,1.19922 -0.160162,2.11719 -0.46875,2.71875 -0.304692,0.59765 -0.761723,0.875 -1.375,0.875 -0.609378,0 -1.066409,-0.27735 -1.375,-0.875 -0.30469,-0.60156 -0.468752,-1.51953 -0.46875,-2.71875 -2e-6,-1.20312 0.16406,-2.08983 0.46875,-2.6875 0.308591,-0.60155 0.765622,-0.90624 1.375,-0.90625 z"
       id="path3701" />
    <path
       style="font-size:medium;font-style:normal;font-variant:normal;font-weight:normal;font-stretch:normal;text-indent:0;text-align:start;text-decoration:none;line-height:normal;letter-spacing:normal;word-spacing:normal;text-transform:none;direction:ltr;block-progression:tb;writing-mode:lr-tb;text-anchor:start;color:#000000;fill:#000000;stroke:#000000;stroke-width:1;stroke-opacity:0.34274194;marker:none;visibility:visible;display:inline;overflow:visible;enable-background:accumulate;font-family:Bitstream Charter;-inkscape-font-specification:Bitstream Charter;fill-opacity:0.05645161000000000"
       d="m 24.108376,132.41996 0.306092,0.39535 53.872346,69.58283 0.306093,0.39536 0.395357,-0.30609 79.837406,-61.81163 0.39535,-0.30609 -0.30609,-0.39536 -53.87234,-69.582832 -0.3061,-0.395357 -0.39535,0.306093 -79.837407,61.811626 -0.395357,0.3061 z"
       id="path3950" />
    <path
       style="font-size:medium;font-style:normal;font-variant:normal;font-weight:normal;font-stretch:normal;text-indent:0;text-align:start;text-decoration:none;line-height:normal;letter-spacing:normal;word-spacing:normal;text-transform:none;direction:ltr;block-progression:tb;writing-mode:lr-tb;text-anchor:start;color:#000000;fill:#000000;fill-opacity:0.19354838;stroke:none;stroke-width:1px;marker:none;visibility:visible;display:inline;overflow:visible;enable-background:accumulate;font-family:Bitstream Charter;-inkscape-font-specification:Bitstream Charter"
       d="m 25.15625,132 -0.0625,1 132.9375,7.75 0.0625,-1 L 25.15625,132 z"
       id="path3600" />
    <path
       style="font-size:medium;font-style:normal;font-variant:normal;font-weight:normal;font-stretch:normal;text-indent:0;text-align:start;text-decoration:none;line-height:normal;letter-spacing:normal;word-spacing:normal;text-transform:none;direction:ltr;block-progression:tb;writing-mode:lr-tb;text-anchor:start;color:#000000;fill:#000000;fill-opacity:0.19354838;stroke:none;stroke-width:1px;marker:none;visibility:visible;display:inline;overflow:visible;enable-background:accumulate;font-family:Bitstream Charter;-inkscape-font-specification:Bitstream Charter"
       d="m 104.09375,70.875 -26,131 1,0.1875 L 105.0625,71.09375 104.09375,70.875 z"
       id="path3602" />
    <path
       style="font-size:medium;font-style:normal;font-variant:normal;font-weight:normal;font-stretch:normal;text-indent:0;text-align:start;text-decoration:none;line-height:normal;letter-spacing:normal;word-spacing:normal;text-transform:none;direction:ltr;block-progression:tb;writing-mode:lr-tb;text-anchor:start;color:#000000;fill:#000000;fill-opacity:1;stroke:none;stroke-width:1px;marker:none;visibility:visible;display:inline;overflow:visible;enable-background:accumulate;font-family:Bitstream Charter;-inkscape-font-specification:Bitstream Charter"
       d="m 95.53125,30.3125 -0.4375,0.65625 -70.71875,101.3125 0.8125,0.5625 70.28125,-100.65625 62.46875,108.21875 0.875,-0.5 L 95.9375,31 95.53125,30.3125 z"
       id="path3604" />
    <path
       style="fill:#000000;fill-opacity:1;stroke:none"
       d="m 95.034798,136.37115 c 0,1.9038 -1.543339,3.44714 -3.447144,3.44714 -1.903805,0 -3.447144,-1.54334 -3.447144,-3.44714 0,-1.90381 1.543339,-3.44715 3.447144,-3.44715 1.903805,0 3.447144,1.54334 3.447144,3.44715 z"
       id="path3610" />
    <path
       style="fill:#000000;fill-opacity:1;stroke:none"
       d="m 161.41444,140.28234 c 0,1.9038 -1.54334,3.44714 -3.44714,3.44714 -1.90381,0 -3.44715,-1.54334 -3.44715,-3.44714 0,-1.90381 1.54334,-3.44715 3.44715,-3.44715 1.9038,0 3.44714,1.54334 3.44714,3.44715 z"
       id="path3610-0" />
    <path
       style="fill:#000000;fill-opacity:1;stroke:none"
       d="m 82.572036,200.91674 c 0,1.9038 -1.543339,3.44714 -3.447144,3.44714 -1.903805,0 -3.447144,-1.54334 -3.447144,-3.44714 0,-1.90381 1.543339,-3.44715 3.447144,-3.44715 1.903805,0 3.447144,1.54334 3.447144,3.44715 z"
       id="path3610-1" />
    <path
       style="fill:#000000;fill-opacity:1;stroke:none"
       d="m 28.655144,132.32738 c 0,1.9038 -1.543339,3.44714 -3.447144,3.44714 -1.903805,0 -3.447144,-1.54334 -3.447144,-3.44714 0,-1.90381 1.543339,-3.44715 3.447144,-3.44715 1.903805,0 3.447144,1.54334 3.447144,3.44715 z"
       id="path3610-08" />
    <path
       style="fill:#000000;fill-opacity:1;stroke:none"
       d="m 107.67433,71.5162 c 0,1.9038 -1.54334,3.44714 -3.44715,3.44714 -1.9038,0 -3.44714,-1.54334 -3.44714,-3.44714 0,-1.90381 1.54334,-3.44715 3.44714,-3.44715 1.90381,0 3.44715,1.54334 3.44715,3.44715 z"
       id="path3610-6" />
    <path
       style="font-size:12px;font-style:normal;font-variant:normal;font-weight:normal;font-stretch:normal;fill:#000000;fill-opacity:1;stroke:none;font-family:DejaVu Sans;-inkscape-font-specification:DejaVu Sans"
       d="m 132.4276,186.15133 -2.37305,3.19336 2.49609,3.36914 -1.27148,0 -1.91016,-2.57813 -1.91015,2.57813 -1.27149,0 2.54883,-3.43359 -2.33203,-3.12891 1.27148,0 1.74024,2.33789 1.74023,-2.33789 1.27149,0"
       id="path3832" />
    <path
       style="font-size:12px;font-style:normal;font-variant:normal;font-weight:normal;font-stretch:normal;fill:#000000;fill-opacity:1;stroke:none;font-family:DejaVu Sans;-inkscape-font-specification:DejaVu Sans"
       d="m 80,205.96875 c -0.980472,1e-5 -1.730471,0.37891 -2.25,1.15625 -0.515626,0.77344 -0.781251,1.89844 -0.78125,3.375 -10e-7,1.47265 0.265624,2.59765 0.78125,3.375 0.519529,0.77343 1.269528,1.15625 2.25,1.15625 0.980464,0 1.734369,-0.38282 2.25,-1.15625 0.519525,-0.77735 0.781243,-1.90235 0.78125,-3.375 -7e-6,-1.47656 -0.261725,-2.60156 -0.78125,-3.375 -0.515631,-0.77734 -1.269536,-1.15624 -2.25,-1.15625 z m 0,0.9375 c 0.613277,1e-5 1.070308,0.3047 1.375,0.90625 0.308588,0.59767 0.468744,1.48438 0.46875,2.6875 -6e-6,1.19922 -0.160162,2.11719 -0.46875,2.71875 -0.304692,0.59765 -0.761723,0.875 -1.375,0.875 -0.609378,0 -1.066409,-0.27735 -1.375,-0.875 -0.30469,-0.60156 -0.468752,-1.51953 -0.46875,-2.71875 -2e-6,-1.20312 0.16406,-2.08983 0.46875,-2.6875 0.308591,-0.60155 0.765622,-0.90624 1.375,-0.90625 z"
       id="path3701-9" />
    <path
       style="font-size:12px;font-style:normal;font-variant:normal;font-weight:normal;font-stretch:normal;fill:#000000;fill-opacity:1;stroke:none;font-family:DejaVu Sans;-inkscape-font-specification:DejaVu Sans"
       d="m 166,136.96875 c -0.98047,1e-5 -1.73047,0.37891 -2.25,1.15625 -0.51563,0.77344 -0.78125,1.89844 -0.78125,3.375 0,1.47265 0.26562,2.59765 0.78125,3.375 0.51953,0.77343 1.26953,1.15625 2.25,1.15625 0.98046,0 1.73437,-0.38282 2.25,-1.15625 0.51953,-0.77735 0.78124,-1.90235 0.78125,-3.375 -1e-5,-1.47656 -0.26172,-2.60156 -0.78125,-3.375 -0.51563,-0.77734 -1.26954,-1.15624 -2.25,-1.15625 z m 0,0.9375 c 0.61328,1e-5 1.07031,0.3047 1.375,0.90625 0.30859,0.59767 0.46874,1.48438 0.46875,2.6875 -1e-5,1.19922 -0.16016,2.11719 -0.46875,2.71875 -0.30469,0.59765 -0.76172,0.875 -1.375,0.875 -0.60938,0 -1.06641,-0.27735 -1.375,-0.875 -0.30469,-0.60156 -0.46875,-1.51953 -0.46875,-2.71875 0,-1.20312 0.16406,-2.08983 0.46875,-2.6875 0.30859,-0.60155 0.76562,-0.90624 1.375,-0.90625 z"
       id="path3701-2" />
    <path
       style="font-size:12px;font-style:normal;font-variant:normal;font-weight:normal;font-stretch:normal;fill:#000000;fill-opacity:1;stroke:none;font-family:DejaVu Sans;-inkscape-font-specification:DejaVu Sans"
       d="m 111.5,64.46875 c -0.98047,1e-5 -1.73047,0.37891 -2.25,1.15625 -0.51563,0.77344 -0.78125,1.89844 -0.78125,3.375 0,1.47265 0.26562,2.59765 0.78125,3.375 0.51953,0.77343 1.26953,1.15625 2.25,1.15625 0.98046,0 1.73437,-0.38282 2.25,-1.15625 0.51953,-0.77735 0.78124,-1.90235 0.78125,-3.375 -1e-5,-1.47656 -0.26172,-2.60156 -0.78125,-3.375 -0.51563,-0.77734 -1.26954,-1.15624 -2.25,-1.15625 z m 0,0.9375 c 0.61328,1e-5 1.07031,0.3047 1.375,0.90625 0.30859,0.59767 0.46874,1.48438 0.46875,2.6875 -1e-5,1.19922 -0.16016,2.11719 -0.46875,2.71875 -0.30469,0.59765 -0.76172,0.875 -1.375,0.875 -0.60938,0 -1.06641,-0.27735 -1.375,-0.875 -0.30469,-0.60156 -0.46875,-1.51953 -0.46875,-2.71875 0,-1.20312 0.16406,-2.08983 0.46875,-2.6875 0.30859,-0.60155 0.76562,-0.90624 1.375,-0.90625 z"
       id="path3701-20" />
    <path
       style="font-size:9px;font-style:normal;font-variant:normal;font-weight:normal;font-stretch:normal;fill:#000000;fill-opacity:1;stroke:none;font-family:DejaVu Sans;-inkscape-font-specification:DejaVu Sans"
       d="m 134.20379,190.13163 0.8086,0 0,5.00976 c 0,0.62696 -0.12012,1.08106 -0.36035,1.36231 -0.23731,0.28125 -0.6211,0.42187 -1.15137,0.42187 l -0.30762,0 0,-0.68554 0.21533,0 c 0.30762,-1e-5 0.51709,-0.0718 0.62842,-0.21534 0.11133,-0.14062 0.16699,-0.43506 0.16699,-0.8833 l 0,-5.00976"
       id="path3896" />
    <path
       style="font-size:9px;font-style:normal;font-variant:normal;font-weight:normal;font-stretch:normal;fill:#000000;fill-opacity:1;stroke:none;font-family:DejaVu Sans;-inkscape-font-specification:DejaVu Sans"
       d="m 134.20379,188.21561 0.8086,0 0,1.02393 -0.8086,0 0,-1.02393"
       id="path3835" />
    <path
       style="font-size:12px;font-style:normal;font-variant:normal;font-weight:normal;font-stretch:normal;fill:#000000;fill-opacity:1;stroke:none;font-family:DejaVu Sans;-inkscape-font-specification:DejaVu Sans"
       d="m 117.76028,24.69523 c -0.52344,0.89845 -0.91211,1.78712 -1.16601,2.66602 -0.25391,0.87891 -0.38087,1.76953 -0.38086,2.67187 -1e-5,0.90235 0.12695,1.79688 0.38086,2.6836 0.25781,0.88281 0.64648,1.77148 1.16601,2.66601 l -0.9375,0 c -0.58594,-0.91797 -1.02539,-1.82031 -1.31836,-2.70703 -0.28906,-0.88672 -0.43359,-1.76758 -0.43359,-2.64258 0,-0.87109 0.14453,-1.74804 0.43359,-2.63086 0.28906,-0.8828 0.72852,-1.78515 1.31836,-2.70703 l 0.9375,0"
       id="path3840" />
    <path
       style="font-size:12px;font-style:normal;font-variant:normal;font-weight:normal;font-stretch:normal;fill:#000000;fill-opacity:1;stroke:none;font-family:DejaVu Sans;-inkscape-font-specification:DejaVu Sans"
       d="m 125.31302,27.2382 -2.37305,3.19336 2.49609,3.36914 -1.27148,0 -1.91016,-2.57813 -1.91015,2.57813 -1.27149,0 2.54883,-3.43359 -2.33203,-3.12891 1.27148,0 1.74024,2.33789 1.74023,-2.33789 1.27149,0"
       id="path3842" />
    <path
       style="font-size:12px;font-style:normal;font-variant:normal;font-weight:normal;font-stretch:normal;fill:#000000;fill-opacity:1;stroke:none;font-family:DejaVu Sans;-inkscape-font-specification:DejaVu Sans"
       d="m 126.78958,24.69523 0.9375,0 c 0.58594,0.92188 1.02343,1.82423 1.3125,2.70703 0.29297,0.88282 0.43945,1.75977 0.43945,2.63086 0,0.875 -0.14648,1.75586 -0.43945,2.64258 -0.28907,0.88672 -0.72656,1.78906 -1.3125,2.70703 l -0.9375,0 c 0.51953,-0.89453 0.90625,-1.7832 1.16016,-2.66601 0.25781,-0.88672 0.38671,-1.78125 0.38671,-2.6836 0,-0.90234 -0.1289,-1.79296 -0.38671,-2.67187 -0.25391,-0.8789 -0.64063,-1.76757 -1.16016,-2.66602"
       id="path3844" />
    <path
       style="font-size:9px;font-style:normal;font-variant:normal;font-weight:normal;font-stretch:normal;fill:#000000;fill-opacity:1;stroke:none;font-family:DejaVu Sans;-inkscape-font-specification:DejaVu Sans"
       d="m 112.07373,31.92561 0.8086,0 0,5.00976 c 0,0.62696 -0.12012,1.08106 -0.36035,1.36231 -0.23731,0.28125 -0.6211,0.42187 -1.15137,0.42187 l -0.30762,0 0,-0.68554 0.21533,0 c 0.30762,-1e-5 0.51709,-0.0718 0.62842,-0.21534 0.11133,-0.14062 0.16699,-0.43506 0.16699,-0.8833 l 0,-5.00976"
       id="path3882" />
    <path
       style="font-size:9px;font-style:normal;font-variant:normal;font-weight:normal;font-stretch:normal;fill:#000000;fill-opacity:1;stroke:none;font-family:DejaVu Sans;-inkscape-font-specification:DejaVu Sans"
       d="m 112.07373,30.00959 0.8086,0 0,1.02393 -0.8086,0 0,-1.02393"
       id="path3847" />
    <path
       style="font-size:medium;font-style:normal;font-variant:normal;font-weight:normal;font-stretch:normal;text-indent:0;text-align:start;text-decoration:none;line-height:normal;letter-spacing:normal;word-spacing:normal;text-transform:none;direction:ltr;block-progression:tb;writing-mode:lr-tb;text-anchor:start;color:#000000;fill:#000000;fill-opacity:1;stroke:none;stroke-width:1;marker:none;visibility:visible;display:inline;overflow:visible;enable-background:accumulate;font-family:Bitstream Charter;-inkscape-font-specification:Bitstream Charter"
       d="m 91.4375,137.5625 0.59375,0.8125 0.8125,-0.5625 L 92.25,137 z"
       id="path3938" />
    <path
       style="font-size:medium;font-style:normal;font-variant:normal;font-weight:normal;font-stretch:normal;text-indent:0;text-align:start;text-decoration:none;line-height:normal;letter-spacing:normal;word-spacing:normal;text-transform:none;direction:ltr;block-progression:tb;writing-mode:lr-tb;text-anchor:start;color:#000000;fill:#000000;fill-opacity:1;stroke:none;stroke-width:1;marker:none;visibility:visible;display:inline;overflow:visible;enable-background:accumulate;font-family:Bitstream Charter;-inkscape-font-specification:Bitstream Charter"
       d="m 93.75,140.84375 0.5625,0.8125 0.8125,-0.5625 -0.5625,-0.84375 z"
       id="path3936" />
    <path
       style="font-size:medium;font-style:normal;font-variant:normal;font-weight:normal;font-stretch:normal;text-indent:0;text-align:start;text-decoration:none;line-height:normal;letter-spacing:normal;word-spacing:normal;text-transform:none;direction:ltr;block-progression:tb;writing-mode:lr-tb;text-anchor:start;color:#000000;fill:#000000;fill-opacity:1;stroke:none;stroke-width:1;marker:none;visibility:visible;display:inline;overflow:visible;enable-background:accumulate;font-family:Bitstream Charter;-inkscape-font-specification:Bitstream Charter"
       d="m 96.03125,144.125 0.59375,0.8125 0.8125,-0.59375 -0.5625,-0.8125 z"
       id="path3934" />
    <path
       style="font-size:medium;font-style:normal;font-variant:normal;font-weight:normal;font-stretch:normal;text-indent:0;text-align:start;text-decoration:none;line-height:normal;letter-spacing:normal;word-spacing:normal;text-transform:none;direction:ltr;block-progression:tb;writing-mode:lr-tb;text-anchor:start;color:#000000;fill:#000000;fill-opacity:1;stroke:none;stroke-width:1;marker:none;visibility:visible;display:inline;overflow:visible;enable-background:accumulate;font-family:Bitstream Charter;-inkscape-font-specification:Bitstream Charter"
       d="m 98.34375,147.375 0.5625,0.8125 0.84375,-0.5625 -0.59375,-0.8125 z"
       id="path3932" />
    <path
       style="font-size:medium;font-style:normal;font-variant:normal;font-weight:normal;font-stretch:normal;text-indent:0;text-align:start;text-decoration:none;line-height:normal;letter-spacing:normal;word-spacing:normal;text-transform:none;direction:ltr;block-progression:tb;writing-mode:lr-tb;text-anchor:start;color:#000000;fill:#000000;fill-opacity:1;stroke:none;stroke-width:1;marker:none;visibility:visible;display:inline;overflow:visible;enable-background:accumulate;font-family:Bitstream Charter;-inkscape-font-specification:Bitstream Charter"
       d="m 100.65625,150.65625 0.5625,0.8125 0.8125,-0.5625 -0.5625,-0.8125 z"
       id="path3930" />
    <path
       style="font-size:medium;font-style:normal;font-variant:normal;font-weight:normal;font-stretch:normal;text-indent:0;text-align:start;text-decoration:none;line-height:normal;letter-spacing:normal;word-spacing:normal;text-transform:none;direction:ltr;block-progression:tb;writing-mode:lr-tb;text-anchor:start;color:#000000;fill:#000000;fill-opacity:1;stroke:none;stroke-width:1;marker:none;visibility:visible;display:inline;overflow:visible;enable-background:accumulate;font-family:Bitstream Charter;-inkscape-font-specification:Bitstream Charter"
       d="m 102.9375,153.9375 0.5625,0.8125 0.84375,-0.5625 -0.59375,-0.84375 z"
       id="path3928" />
    <path
       style="font-size:medium;font-style:normal;font-variant:normal;font-weight:normal;font-stretch:normal;text-indent:0;text-align:start;text-decoration:none;line-height:normal;letter-spacing:normal;word-spacing:normal;text-transform:none;direction:ltr;block-progression:tb;writing-mode:lr-tb;text-anchor:start;color:#000000;fill:#000000;fill-opacity:1;stroke:none;stroke-width:1;marker:none;visibility:visible;display:inline;overflow:visible;enable-background:accumulate;font-family:Bitstream Charter;-inkscape-font-specification:Bitstream Charter"
       d="m 105.25,157.1875 0.5625,0.84375 0.8125,-0.59375 -0.5625,-0.8125 z"
       id="path3926" />
    <path
       style="font-size:medium;font-style:normal;font-variant:normal;font-weight:normal;font-stretch:normal;text-indent:0;text-align:start;text-decoration:none;line-height:normal;letter-spacing:normal;word-spacing:normal;text-transform:none;direction:ltr;block-progression:tb;writing-mode:lr-tb;text-anchor:start;color:#000000;fill:#000000;fill-opacity:1;stroke:none;stroke-width:1;marker:none;visibility:visible;display:inline;overflow:visible;enable-background:accumulate;font-family:Bitstream Charter;-inkscape-font-specification:Bitstream Charter"
       d="m 107.53125,160.46875 0.59375,0.8125 0.8125,-0.5625 -0.59375,-0.8125 z"
       id="path3924" />
    <path
       style="font-size:medium;font-style:normal;font-variant:normal;font-weight:normal;font-stretch:normal;text-indent:0;text-align:start;text-decoration:none;line-height:normal;letter-spacing:normal;word-spacing:normal;text-transform:none;direction:ltr;block-progression:tb;writing-mode:lr-tb;text-anchor:start;color:#000000;fill:#000000;fill-opacity:1;stroke:none;stroke-width:1;marker:none;visibility:visible;display:inline;overflow:visible;enable-background:accumulate;font-family:Bitstream Charter;-inkscape-font-specification:Bitstream Charter"
       d="m 109.84375,163.75 0.5625,0.8125 0.8125,-0.5625 -0.5625,-0.8125 z"
       id="path3922" />
    <path
       style="font-size:medium;font-style:normal;font-variant:normal;font-weight:normal;font-stretch:normal;text-indent:0;text-align:start;text-decoration:none;line-height:normal;letter-spacing:normal;word-spacing:normal;text-transform:none;direction:ltr;block-progression:tb;writing-mode:lr-tb;text-anchor:start;color:#000000;fill:#000000;fill-opacity:1;stroke:none;stroke-width:1;marker:none;visibility:visible;display:inline;overflow:visible;enable-background:accumulate;font-family:Bitstream Charter;-inkscape-font-specification:Bitstream Charter"
       d="m 112.125,167.03125 0.59375,0.8125 0.8125,-0.59375 -0.5625,-0.8125 z"
       id="path3920" />
    <path
       style="font-size:medium;font-style:normal;font-variant:normal;font-weight:normal;font-stretch:normal;text-indent:0;text-align:start;text-decoration:none;line-height:normal;letter-spacing:normal;word-spacing:normal;text-transform:none;direction:ltr;block-progression:tb;writing-mode:lr-tb;text-anchor:start;color:#000000;fill:#000000;fill-opacity:1;stroke:none;stroke-width:1;marker:none;visibility:visible;display:inline;overflow:visible;enable-background:accumulate;font-family:Bitstream Charter;-inkscape-font-specification:Bitstream Charter"
       d="M 114.4375,170.28125 115,171.125 l 0.84375,-0.59375 -0.59375,-0.8125 z"
       id="path3918" />
    <path
       style="font-size:medium;font-style:normal;font-variant:normal;font-weight:normal;font-stretch:normal;text-indent:0;text-align:start;text-decoration:none;line-height:normal;letter-spacing:normal;word-spacing:normal;text-transform:none;direction:ltr;block-progression:tb;writing-mode:lr-tb;text-anchor:start;color:#000000;fill:#000000;fill-opacity:1;stroke:none;stroke-width:1;marker:none;visibility:visible;display:inline;overflow:visible;enable-background:accumulate;font-family:Bitstream Charter;-inkscape-font-specification:Bitstream Charter"
       d="m 116.75,173.5625 0.5625,0.8125 0.8125,-0.5625 L 117.5625,173 z"
       id="path3916" />
    <path
       style="font-size:medium;font-style:normal;font-variant:normal;font-weight:normal;font-stretch:normal;text-indent:0;text-align:start;text-decoration:none;line-height:normal;letter-spacing:normal;word-spacing:normal;text-transform:none;direction:ltr;block-progression:tb;writing-mode:lr-tb;text-anchor:start;color:#000000;fill:#000000;fill-opacity:1;stroke:none;stroke-width:1;marker:none;visibility:visible;display:inline;overflow:visible;enable-background:accumulate;font-family:Bitstream Charter;-inkscape-font-specification:Bitstream Charter"
       d="m 119.03125,176.84375 0.59375,0.8125 0.8125,-0.5625 -0.59375,-0.8125 z"
       id="path3914" />
    <path
       style="font-size:medium;font-style:normal;font-variant:normal;font-weight:normal;font-stretch:normal;text-indent:0;text-align:start;text-decoration:none;line-height:normal;letter-spacing:normal;word-spacing:normal;text-transform:none;direction:ltr;block-progression:tb;writing-mode:lr-tb;text-anchor:start;color:#000000;fill:#000000;fill-opacity:1;stroke:none;stroke-width:1;marker:none;visibility:visible;display:inline;overflow:visible;enable-background:accumulate;font-family:Bitstream Charter;-inkscape-font-specification:Bitstream Charter"
       d="m 121.34375,180.125 0.5625,0.8125 0.8125,-0.59375 -0.5625,-0.8125 z"
       id="path3912" />
    <path
       style="font-size:medium;font-style:normal;font-variant:normal;font-weight:normal;font-stretch:normal;text-indent:0;text-align:start;text-decoration:none;line-height:normal;letter-spacing:normal;word-spacing:normal;text-transform:none;direction:ltr;block-progression:tb;writing-mode:lr-tb;text-anchor:start;color:#000000;fill:#000000;fill-opacity:1;stroke:none;stroke-width:1;marker:none;visibility:visible;display:inline;overflow:visible;enable-background:accumulate;font-family:Bitstream Charter;-inkscape-font-specification:Bitstream Charter"
       d="m 123.625,183.375 0.59375,0.84375 0.8125,-0.59375 -0.59375,-0.8125 z"
       id="path3823" />
    <path
       style="font-size:medium;font-style:normal;font-variant:normal;font-weight:normal;font-stretch:normal;text-indent:0;text-align:start;text-decoration:none;line-height:normal;letter-spacing:normal;word-spacing:normal;text-transform:none;direction:ltr;block-progression:tb;writing-mode:lr-tb;text-anchor:start;color:#000000;fill:#000000;fill-opacity:1;stroke:none;stroke-width:1px;marker:none;visibility:visible;display:inline;overflow:visible;enable-background:accumulate;font-family:Bitstream Charter;-inkscape-font-specification:Bitstream Charter"
       d="m 95.40625,31.34375 -0.5,0.03125 -16.96875,170.125 1,0.0937 L 95.627221,31.865862 95.40625,31.3437 l 0,5e-5 z"
       id="path3623"
       sodipodi:nodetypes="ccccccc" />
    <path
       style="font-size:medium;font-style:normal;font-variant:normal;font-weight:normal;font-stretch:normal;text-indent:0;text-align:start;text-decoration:none;line-height:normal;letter-spacing:normal;word-spacing:normal;text-transform:none;direction:ltr;block-progression:tb;writing-mode:lr-tb;text-anchor:start;color:#000000;fill:#000000;fill-opacity:0.6935484;stroke:none;stroke-width:1px;marker:none;visibility:visible;display:inline;overflow:visible;enable-background:accumulate;font-family:Bitstream Charter;-inkscape-font-specification:Bitstream Charter"
       d="m 25.09375,133 -0.8125,0.625 53.90625,69.46875 0.3125,0.40625 0.40625,-0.3125 79.875,-61.84375 -0.59375,-0.78125 -79.53125,61.5 L 25.09375,133 z"
       id="path3631" />
  </g>
</svg>
