<?xml version="1.0" encoding="UTF-8" standalone="no"?>
<!-- Created with Inkscape (http://www.inkscape.org/) -->

<svg
   xmlns:dc="http://purl.org/dc/elements/1.1/"
   xmlns:cc="http://creativecommons.org/ns#"
   xmlns:rdf="http://www.w3.org/1999/02/22-rdf-syntax-ns#"
   xmlns:svg="http://www.w3.org/2000/svg"
   xmlns="http://www.w3.org/2000/svg"
   xmlns:sodipodi="http://sodipodi.sourceforge.net/DTD/sodipodi-0.dtd"
   xmlns:inkscape="http://www.inkscape.org/namespaces/inkscape"
   width="300"
   height="100"
   id="svg2"
   version="1.1"
   inkscape:version="0.47 r22583"
   sodipodi:docname="2010-(10)okt-28 figur 2.svg">
  <defs
     id="defs4" />
  <sodipodi:namedview
     id="base"
     pagecolor="#ffffff"
     bordercolor="#666666"
     borderopacity="1.0"
     inkscape:pageopacity="0.0"
     inkscape:pageshadow="2"
     inkscape:zoom="1.979899"
     inkscape:cx="96.284512"
     inkscape:cy="-46.077528"
     inkscape:document-units="px"
     inkscape:current-layer="layer1"
     showgrid="false"
     inkscape:window-width="1589"
     inkscape:window-height="1117"
     inkscape:window-x="1600"
     inkscape:window-y="27"
     inkscape:window-maximized="1"
     showguides="true"
     inkscape:guide-bbox="true" />
  <metadata
     id="metadata7">
    <rdf:RDF>
      <cc:Work
         rdf:about="">
        <dc:format>image/svg+xml</dc:format>
        <dc:type
           rdf:resource="http://purl.org/dc/dcmitype/StillImage" />
        <dc:title />
      </cc:Work>
    </rdf:RDF>
  </metadata>
  <g
     inkscape:label="Layer 1"
     inkscape:groupmode="layer"
     id="layer1">
    <path
       style="font-size:medium;font-style:normal;font-variant:normal;font-weight:normal;font-stretch:normal;text-indent:0;text-align:start;text-decoration:none;line-height:normal;letter-spacing:normal;word-spacing:normal;text-transform:none;direction:ltr;block-progression:tb;writing-mode:lr-tb;text-anchor:start;color:#000000;fill:#000000;fill-opacity:1;stroke:none;stroke-width:1px;marker:none;visibility:visible;display:inline;overflow:visible;enable-background:accumulate;font-family:Bitstream Charter;-inkscape-font-specification:Bitstream Charter"
       d="m 8.2905267,37.511501 0,1 278.6539433,0 0,-1 -278.6539433,0 z"
       id="path2813" />
    <path
       style="font-size:12px;font-style:normal;font-variant:normal;font-weight:normal;font-stretch:normal;text-indent:0;text-align:start;text-decoration:none;line-height:normal;letter-spacing:normal;word-spacing:normal;text-transform:none;direction:ltr;block-progression:tb;writing-mode:lr-tb;text-anchor:start;color:#000000;fill-opacity:1;fill-rule:evenodd;stroke:none;stroke-width:0.625;marker:none;visibility:visible;display:inline;overflow:visible;enable-background:accumulate;font-family:Bitstream Charter;-inkscape-font-specification:Bitstream Charter"
       d="m 282.03125,33.28125 c -0.0111,0.0097 -0.0216,0.02011 -0.0312,0.03125 -0.15895,0.08742 -0.20683,0.32694 -0.0937,0.46875 1.83209,2.552644 1.83907,5.969535 0,8.46875 -0.0111,0.0097 -0.0215,0.02011 -0.0312,0.03125 -0.0639,0.120281 -0.037,0.281961 0.0625,0.375 0.0829,0.07454 0.20732,0.09942 0.3125,0.0625 L 294.2814,38.3125 c 0.24798,-0.08159 0.24798,-0.512161 0,-0.59375 L 282.25,33.28125 c -0.0698,-0.02607 -0.14897,-0.02607 -0.21875,0 z"
       id="path4308" />
    <path
       style="font-size:medium;font-style:normal;font-variant:normal;font-weight:normal;font-stretch:normal;text-indent:0;text-align:start;text-decoration:none;line-height:normal;letter-spacing:normal;word-spacing:normal;text-transform:none;direction:ltr;block-progression:tb;writing-mode:lr-tb;text-anchor:start;color:#000000;fill:#000000;fill-opacity:1;stroke:none;stroke-width:1;marker:none;visibility:visible;display:inline;overflow:visible;enable-background:accumulate;font-family:Bitstream Charter;-inkscape-font-specification:Bitstream Charter"
       d="m 85.03125,26.75 1,0 0,-1 -1,0 z"
       id="path4168" />
    <path
       style="font-size:medium;font-style:normal;font-variant:normal;font-weight:normal;font-stretch:normal;text-indent:0;text-align:start;text-decoration:none;line-height:normal;letter-spacing:normal;word-spacing:normal;text-transform:none;direction:ltr;block-progression:tb;writing-mode:lr-tb;text-anchor:start;color:#000000;fill:#000000;fill-opacity:1;stroke:none;stroke-width:1;marker:none;visibility:visible;display:inline;overflow:visible;enable-background:accumulate;font-family:Bitstream Charter;-inkscape-font-specification:Bitstream Charter"
       d="m 85.03125,30.75 1,0 0,-1 -1,0 z"
       id="path4166" />
    <path
       style="font-size:medium;font-style:normal;font-variant:normal;font-weight:normal;font-stretch:normal;text-indent:0;text-align:start;text-decoration:none;line-height:normal;letter-spacing:normal;word-spacing:normal;text-transform:none;direction:ltr;block-progression:tb;writing-mode:lr-tb;text-anchor:start;color:#000000;fill:#000000;fill-opacity:1;stroke:none;stroke-width:1;marker:none;visibility:visible;display:inline;overflow:visible;enable-background:accumulate;font-family:Bitstream Charter;-inkscape-font-specification:Bitstream Charter"
       d="m 85.03125,34.75 1,0 0,-1 -1,0 z"
       id="path4164" />
    <path
       style="font-size:medium;font-style:normal;font-variant:normal;font-weight:normal;font-stretch:normal;text-indent:0;text-align:start;text-decoration:none;line-height:normal;letter-spacing:normal;word-spacing:normal;text-transform:none;direction:ltr;block-progression:tb;writing-mode:lr-tb;text-anchor:start;color:#000000;fill:#000000;fill-opacity:1;stroke:none;stroke-width:1;marker:none;visibility:visible;display:inline;overflow:visible;enable-background:accumulate;font-family:Bitstream Charter;-inkscape-font-specification:Bitstream Charter"
       d="m 85.03125,38.75 1,0 0,-1 -1,0 z"
       id="path4162" />
    <path
       style="font-size:medium;font-style:normal;font-variant:normal;font-weight:normal;font-stretch:normal;text-indent:0;text-align:start;text-decoration:none;line-height:normal;letter-spacing:normal;word-spacing:normal;text-transform:none;direction:ltr;block-progression:tb;writing-mode:lr-tb;text-anchor:start;color:#000000;fill:#000000;fill-opacity:1;stroke:none;stroke-width:1;marker:none;visibility:visible;display:inline;overflow:visible;enable-background:accumulate;font-family:Bitstream Charter;-inkscape-font-specification:Bitstream Charter"
       d="m 85.03125,42.75 1,0 0,-1 -1,0 z"
       id="path4160" />
    <path
       style="font-size:medium;font-style:normal;font-variant:normal;font-weight:normal;font-stretch:normal;text-indent:0;text-align:start;text-decoration:none;line-height:normal;letter-spacing:normal;word-spacing:normal;text-transform:none;direction:ltr;block-progression:tb;writing-mode:lr-tb;text-anchor:start;color:#000000;fill:#000000;fill-opacity:1;stroke:none;stroke-width:1;marker:none;visibility:visible;display:inline;overflow:visible;enable-background:accumulate;font-family:Bitstream Charter;-inkscape-font-specification:Bitstream Charter"
       d="m 85.03125,46.75 1,0 0,-1 -1,0 z"
       id="path2841" />
    <path
       style="font-size:12px;font-style:normal;font-variant:normal;font-weight:normal;font-stretch:normal;fill:#000000;fill-opacity:1;stroke:none;font-family:DejaVu Sans;-inkscape-font-specification:DejaVu Sans"
       d="M 78.84375 10.15625 L 78.84375 13.6875 C 78.617182 13.296881 78.347651 13.031256 78 12.84375 C 77.656245 12.652351 77.234371 12.531257 76.75 12.53125 C 75.957029 12.531257 75.312498 12.867193 74.8125 13.5 C 74.316405 14.132817 74.0625 14.968755 74.0625 16 C 74.0625 17.031253 74.316405 17.867189 74.8125 18.5 C 75.312498 19.132812 75.957029 19.4375 76.75 19.4375 C 77.234371 19.4375 77.656245 19.34375 78 19.15625 C 78.347651 18.964843 78.617182 18.671876 78.84375 18.28125 L 78.84375 19.25 L 79.9375 19.25 L 79.9375 10.15625 L 78.84375 10.15625 z M 77.03125 13.4375 C 77.601558 13.437505 78.046871 13.671881 78.375 14.125 C 78.70312 14.574223 78.843744 15.207036 78.84375 16 C 78.843744 16.792972 78.70312 17.390626 78.375 17.84375 C 78.046871 18.29297 77.601558 18.531251 77.03125 18.53125 C 76.460934 18.531251 75.984372 18.29297 75.65625 17.84375 C 75.332029 17.390627 75.187498 16.792972 75.1875 16 C 75.187498 15.207036 75.332029 14.574223 75.65625 14.125 C 75.984372 13.671881 76.460934 13.437505 77.03125 13.4375 z "
       id="path4156" />
    <path
       style="font-size:12px;font-style:normal;font-variant:normal;font-weight:normal;font-stretch:normal;fill:#000000;fill-opacity:1;stroke:none;font-family:DejaVu Sans;-inkscape-font-specification:DejaVu Sans"
       d="m 83.221997,10.838929 0,1.863281 2.220703,0 0,0.837891 -2.220703,0 0,3.562499 c -2e-6,0.535158 0.07226,0.878908 0.216797,1.03125 0.148435,0.152344 0.447263,0.228516 0.896484,0.228516 l 1.107422,0 0,0.902344 -1.107422,0 c -0.832033,0 -1.406252,-0.154297 -1.722656,-0.462891 -0.316407,-0.312499 -0.47461,-0.878905 -0.474609,-1.699218 l 0,-3.5625 -0.791016,0 0,-0.837891 0.791016,0 0,-1.863281 1.083984,0"
       id="path3924" />
    <path
       style="font-size:12px;font-style:normal;font-variant:normal;font-weight:normal;font-stretch:normal;fill:#000000;fill-opacity:1;stroke:none;font-family:DejaVu Sans;-inkscape-font-specification:DejaVu Sans"
       d="m 88.782544,10.516662 0.996094,0 -3.046875,9.861328 -0.996094,0 3.046875,-9.861328"
       id="path3926" />
    <path
       style="font-size:12px;font-style:normal;font-variant:normal;font-weight:normal;font-stretch:normal;fill:#000000;fill-opacity:1;stroke:none;font-family:DejaVu Sans;-inkscape-font-specification:DejaVu Sans"
       d="m 92.093091,18.268615 4.130859,0 0,0.996094 -5.554687,0 0,-0.996094 c 0.449217,-0.464842 1.060545,-1.087888 1.833984,-1.86914 0.77734,-0.785153 1.265621,-1.291012 1.464844,-1.517579 0.378902,-0.425776 0.642573,-0.785151 0.791015,-1.078125 0.152339,-0.296869 0.228511,-0.587884 0.228516,-0.873046 -5e-6,-0.464837 -0.164067,-0.843743 -0.492187,-1.136719 -0.324224,-0.292961 -0.748051,-0.439445 -1.271485,-0.439453 -0.371097,8e-6 -0.763674,0.06446 -1.177734,0.193359 -0.410158,0.128914 -0.849611,0.324226 -1.31836,0.585938 l 0,-1.195313 c 0.476562,-0.191398 0.921874,-0.335929 1.335938,-0.433594 0.41406,-0.09765 0.792966,-0.146475 1.136719,-0.146484 0.906245,9e-6 1.628901,0.226571 2.167968,0.679687 0.539057,0.453133 0.808588,1.058601 0.808594,1.816407 -6e-6,0.359381 -0.06837,0.701177 -0.205078,1.02539 -0.132818,0.320318 -0.376959,0.699224 -0.732422,1.136719 -0.09766,0.113285 -0.408208,0.44141 -0.93164,0.984375 -0.523442,0.539065 -1.261722,1.294924 -2.214844,2.267578"
       id="path3928" />
    <path
       style="font-size:medium;font-style:normal;font-variant:normal;font-weight:normal;font-stretch:normal;text-indent:0;text-align:start;text-decoration:none;line-height:normal;letter-spacing:normal;word-spacing:normal;text-transform:none;direction:ltr;block-progression:tb;writing-mode:lr-tb;text-anchor:start;color:#000000;fill:#000000;fill-opacity:1;stroke:none;stroke-width:1;marker:none;visibility:visible;display:inline;overflow:visible;enable-background:accumulate;font-family:Bitstream Charter;-inkscape-font-specification:Bitstream Charter"
       d="m 189.03125,26.75 1,0 0,-1 -1,0 z"
       id="path4146" />
    <path
       style="font-size:medium;font-style:normal;font-variant:normal;font-weight:normal;font-stretch:normal;text-indent:0;text-align:start;text-decoration:none;line-height:normal;letter-spacing:normal;word-spacing:normal;text-transform:none;direction:ltr;block-progression:tb;writing-mode:lr-tb;text-anchor:start;color:#000000;fill:#000000;fill-opacity:1;stroke:none;stroke-width:1;marker:none;visibility:visible;display:inline;overflow:visible;enable-background:accumulate;font-family:Bitstream Charter;-inkscape-font-specification:Bitstream Charter"
       d="m 189.03125,30.75 1,0 0,-1 -1,0 z"
       id="path4144" />
    <path
       style="font-size:medium;font-style:normal;font-variant:normal;font-weight:normal;font-stretch:normal;text-indent:0;text-align:start;text-decoration:none;line-height:normal;letter-spacing:normal;word-spacing:normal;text-transform:none;direction:ltr;block-progression:tb;writing-mode:lr-tb;text-anchor:start;color:#000000;fill:#000000;fill-opacity:1;stroke:none;stroke-width:1;marker:none;visibility:visible;display:inline;overflow:visible;enable-background:accumulate;font-family:Bitstream Charter;-inkscape-font-specification:Bitstream Charter"
       d="m 189.03125,34.75 1,0 0,-1 -1,0 z"
       id="path4142" />
    <path
       style="font-size:medium;font-style:normal;font-variant:normal;font-weight:normal;font-stretch:normal;text-indent:0;text-align:start;text-decoration:none;line-height:normal;letter-spacing:normal;word-spacing:normal;text-transform:none;direction:ltr;block-progression:tb;writing-mode:lr-tb;text-anchor:start;color:#000000;fill:#000000;fill-opacity:1;stroke:none;stroke-width:1;marker:none;visibility:visible;display:inline;overflow:visible;enable-background:accumulate;font-family:Bitstream Charter;-inkscape-font-specification:Bitstream Charter"
       d="m 189.03125,38.75 1,0 0,-1 -1,0 z"
       id="path4140" />
    <path
       style="font-size:medium;font-style:normal;font-variant:normal;font-weight:normal;font-stretch:normal;text-indent:0;text-align:start;text-decoration:none;line-height:normal;letter-spacing:normal;word-spacing:normal;text-transform:none;direction:ltr;block-progression:tb;writing-mode:lr-tb;text-anchor:start;color:#000000;fill:#000000;fill-opacity:1;stroke:none;stroke-width:1;marker:none;visibility:visible;display:inline;overflow:visible;enable-background:accumulate;font-family:Bitstream Charter;-inkscape-font-specification:Bitstream Charter"
       d="m 189.03125,42.75 1,0 0,-1 -1,0 z"
       id="path4138" />
    <path
       style="font-size:medium;font-style:normal;font-variant:normal;font-weight:normal;font-stretch:normal;text-indent:0;text-align:start;text-decoration:none;line-height:normal;letter-spacing:normal;word-spacing:normal;text-transform:none;direction:ltr;block-progression:tb;writing-mode:lr-tb;text-anchor:start;color:#000000;fill:#000000;fill-opacity:1;stroke:none;stroke-width:1;marker:none;visibility:visible;display:inline;overflow:visible;enable-background:accumulate;font-family:Bitstream Charter;-inkscape-font-specification:Bitstream Charter"
       d="m 189.03125,46.75 1,0 0,-1 -1,0 z"
       id="path2843" />
    <path
       style="font-size:12px;font-style:normal;font-variant:normal;font-weight:normal;font-stretch:normal;fill:#000000;fill-opacity:1;stroke:none;font-family:DejaVu Sans;-inkscape-font-specification:DejaVu Sans"
       d="M 182.84375 10.15625 L 182.84375 13.6875 C 182.61718 13.296881 182.34765 13.031256 182 12.84375 C 181.65625 12.652351 181.23437 12.531257 180.75 12.53125 C 179.95703 12.531257 179.3125 12.867193 178.8125 13.5 C 178.31641 14.132817 178.0625 14.968755 178.0625 16 C 178.0625 17.031253 178.31641 17.867189 178.8125 18.5 C 179.3125 19.132812 179.95703 19.4375 180.75 19.4375 C 181.23437 19.4375 181.65625 19.34375 182 19.15625 C 182.34765 18.964843 182.61718 18.671876 182.84375 18.28125 L 182.84375 19.25 L 183.9375 19.25 L 183.9375 10.15625 L 182.84375 10.15625 z M 181.03125 13.4375 C 181.60156 13.437505 182.04687 13.671881 182.375 14.125 C 182.70312 14.574223 182.84374 15.207036 182.84375 16 C 182.84374 16.792972 182.70312 17.390626 182.375 17.84375 C 182.04687 18.29297 181.60156 18.531251 181.03125 18.53125 C 180.46094 18.531251 179.98437 18.29297 179.65625 17.84375 C 179.33203 17.390627 179.1875 16.792972 179.1875 16 C 179.1875 15.207036 179.33203 14.574223 179.65625 14.125 C 179.98437 13.671881 180.46094 13.437505 181.03125 13.4375 z "
       id="path4198" />
    <path
       style="font-size:12px;font-style:normal;font-variant:normal;font-weight:normal;font-stretch:normal;fill:#000000;fill-opacity:1;stroke:none;font-family:DejaVu Sans;-inkscape-font-specification:DejaVu Sans"
       d="m 187.22199,10.838929 0,1.863281 2.22071,0 0,0.837891 -2.22071,0 0,3.562499 c 0,0.535158 0.0723,0.878908 0.2168,1.03125 0.14844,0.152344 0.44726,0.228516 0.89648,0.228516 l 1.10743,0 0,0.902344 -1.10743,0 c -0.83203,0 -1.40625,-0.154297 -1.72265,-0.462891 -0.31641,-0.312499 -0.47461,-0.878905 -0.47461,-1.699218 l 0,-3.5625 -0.79102,0 0,-0.837891 0.79102,0 0,-1.863281 1.08398,0"
       id="path3933" />
    <path
       style="font-size:12px;font-style:normal;font-variant:normal;font-weight:normal;font-stretch:normal;fill:#000000;fill-opacity:1;stroke:none;font-family:DejaVu Sans;-inkscape-font-specification:DejaVu Sans"
       d="m 192.78254,10.516662 0.99609,0 -3.04687,9.861328 -0.9961,0 3.04688,-9.861328"
       id="path3935" />
    <path
       style="font-size:12px;font-style:normal;font-variant:normal;font-weight:normal;font-stretch:normal;fill:#000000;fill-opacity:1;stroke:none;font-family:DejaVu Sans;-inkscape-font-specification:DejaVu Sans"
       d="m 196.09309,18.268615 4.13086,0 0,0.996094 -5.55469,0 0,-0.996094 c 0.44922,-0.464842 1.06054,-1.087888 1.83398,-1.86914 0.77734,-0.785153 1.26562,-1.291012 1.46485,-1.517579 0.3789,-0.425776 0.64257,-0.785151 0.79101,-1.078125 0.15234,-0.296869 0.22851,-0.587884 0.22852,-0.873046 -1e-5,-0.464837 -0.16407,-0.843743 -0.49219,-1.136719 -0.32422,-0.292961 -0.74805,-0.439445 -1.27148,-0.439453 -0.3711,8e-6 -0.76368,0.06446 -1.17774,0.193359 -0.41016,0.128914 -0.84961,0.324226 -1.31836,0.585938 l 0,-1.195313 c 0.47656,-0.191398 0.92188,-0.335929 1.33594,-0.433594 0.41406,-0.09765 0.79297,-0.146475 1.13672,-0.146484 0.90624,9e-6 1.6289,0.226571 2.16797,0.679687 0.53905,0.453133 0.80859,1.058601 0.80859,1.816407 0,0.359381 -0.0684,0.701177 -0.20508,1.02539 -0.13282,0.320318 -0.37696,0.699224 -0.73242,1.136719 -0.0977,0.113285 -0.40821,0.44141 -0.93164,0.984375 -0.52344,0.539065 -1.26172,1.294924 -2.21484,2.267578"
       id="path3937" />
    <path
       style="font-size:medium;font-style:normal;font-variant:normal;font-weight:normal;font-stretch:normal;text-indent:0;text-align:start;text-decoration:none;line-height:normal;letter-spacing:normal;word-spacing:normal;text-transform:none;direction:ltr;block-progression:tb;writing-mode:lr-tb;text-anchor:start;color:#000000;fill:#000000;fill-opacity:1;stroke:none;stroke-width:1px;marker:none;visibility:visible;display:inline;overflow:visible;enable-background:accumulate;font-family:Bitstream Charter;-inkscape-font-specification:Bitstream Charter"
       d="m 137.03125,25.75 0,23.75 1,0 0,-23.75 -1,0 z"
       id="path2837" />
    <path
       style="font-size:12px;font-style:normal;font-variant:normal;font-weight:normal;font-stretch:normal;fill:#000000;fill-opacity:1;stroke:none;font-family:DejaVu Sans;-inkscape-font-specification:DejaVu Sans"
       d="M 136.84375 52.15625 L 136.84375 55.6875 C 136.61718 55.296881 136.34765 55.031256 136 54.84375 C 135.65625 54.652351 135.23437 54.531257 134.75 54.53125 C 133.95703 54.531257 133.3125 54.867193 132.8125 55.5 C 132.31641 56.132817 132.0625 56.968755 132.0625 58 C 132.0625 59.031253 132.31641 59.867189 132.8125 60.5 C 133.3125 61.132813 133.95703 61.4375 134.75 61.4375 C 135.23437 61.4375 135.65625 61.34375 136 61.15625 C 136.34765 60.964844 136.61718 60.671876 136.84375 60.28125 L 136.84375 61.25 L 137.9375 61.25 L 137.9375 52.15625 L 136.84375 52.15625 z M 135.03125 55.4375 C 135.60156 55.437505 136.04687 55.671881 136.375 56.125 C 136.70312 56.574223 136.84374 57.207036 136.84375 58 C 136.84374 58.792972 136.70312 59.390627 136.375 59.84375 C 136.04687 60.29297 135.60156 60.531251 135.03125 60.53125 C 134.46094 60.531251 133.98437 60.29297 133.65625 59.84375 C 133.33203 59.390627 133.1875 58.792972 133.1875 58 C 133.1875 57.207036 133.33203 56.574223 133.65625 56.125 C 133.98437 55.671881 134.46094 55.437505 135.03125 55.4375 z "
       id="path4122" />
    <path
       style="font-size:12px;font-style:normal;font-variant:normal;font-weight:normal;font-stretch:normal;fill:#000000;fill-opacity:1;stroke:none;font-family:DejaVu Sans;-inkscape-font-specification:DejaVu Sans"
       d="m 141.22199,52.838928 0,1.863281 2.22071,0 0,0.837891 -2.22071,0 0,3.5625 c 0,0.535157 0.0723,0.878907 0.2168,1.03125 0.14843,0.152344 0.44726,0.228516 0.89648,0.228515 l 1.10743,0 0,0.902344 -1.10743,0 c -0.83203,0 -1.40625,-0.154297 -1.72265,-0.462891 -0.31641,-0.312499 -0.47461,-0.878905 -0.47461,-1.699218 l 0,-3.5625 -0.79102,0 0,-0.837891 0.79102,0 0,-1.863281 1.08398,0"
       id="path3942" />
    <path
       style="font-size:medium;font-style:normal;font-variant:normal;font-weight:normal;font-stretch:normal;text-indent:0;text-align:start;text-decoration:none;line-height:normal;letter-spacing:normal;word-spacing:normal;text-transform:none;direction:ltr;block-progression:tb;writing-mode:lr-tb;text-anchor:start;color:#000000;fill:#000000;fill-opacity:1;stroke:none;stroke-width:1px;marker:none;visibility:visible;display:inline;overflow:visible;enable-background:accumulate;font-family:Bitstream Charter;-inkscape-font-specification:Bitstream Charter"
       d="m 33.03125,25.75 0,23.75 1,0 0,-23.75 -1,0 z"
       id="path2835" />
    <path
       style="font-size:medium;font-style:normal;font-variant:normal;font-weight:normal;font-stretch:normal;text-indent:0;text-align:start;text-decoration:none;line-height:normal;letter-spacing:normal;word-spacing:normal;text-transform:none;direction:ltr;block-progression:tb;writing-mode:lr-tb;text-anchor:start;color:#000000;fill:#000000;fill-opacity:1;stroke:none;stroke-width:1;marker:none;visibility:visible;display:inline;overflow:visible;enable-background:accumulate;font-family:Bitstream Charter;-inkscape-font-specification:Bitstream Charter"
       d="m 33.03125,54.75 1,0 0,-1 -1,0 z"
       id="path4114" />
    <path
       style="font-size:medium;font-style:normal;font-variant:normal;font-weight:normal;font-stretch:normal;text-indent:0;text-align:start;text-decoration:none;line-height:normal;letter-spacing:normal;word-spacing:normal;text-transform:none;direction:ltr;block-progression:tb;writing-mode:lr-tb;text-anchor:start;color:#000000;fill:#000000;fill-opacity:1;stroke:none;stroke-width:1;marker:none;visibility:visible;display:inline;overflow:visible;enable-background:accumulate;font-family:Bitstream Charter;-inkscape-font-specification:Bitstream Charter"
       d="m 33.03125,58.75 1,0 0,-1 -1,0 z"
       id="path4112" />
    <path
       style="font-size:medium;font-style:normal;font-variant:normal;font-weight:normal;font-stretch:normal;text-indent:0;text-align:start;text-decoration:none;line-height:normal;letter-spacing:normal;word-spacing:normal;text-transform:none;direction:ltr;block-progression:tb;writing-mode:lr-tb;text-anchor:start;color:#000000;fill:#000000;fill-opacity:1;stroke:none;stroke-width:1;marker:none;visibility:visible;display:inline;overflow:visible;enable-background:accumulate;font-family:Bitstream Charter;-inkscape-font-specification:Bitstream Charter"
       d="m 33.03125,62.75 1,0 0,-1 -1,0 z"
       id="path4110" />
    <path
       style="font-size:medium;font-style:normal;font-variant:normal;font-weight:normal;font-stretch:normal;text-indent:0;text-align:start;text-decoration:none;line-height:normal;letter-spacing:normal;word-spacing:normal;text-transform:none;direction:ltr;block-progression:tb;writing-mode:lr-tb;text-anchor:start;color:#000000;fill:#000000;fill-opacity:1;stroke:none;stroke-width:1;marker:none;visibility:visible;display:inline;overflow:visible;enable-background:accumulate;font-family:Bitstream Charter;-inkscape-font-specification:Bitstream Charter"
       d="m 33.03125,66.75 1,0 0,-1 -1,0 z"
       id="path4108" />
    <path
       style="font-size:medium;font-style:normal;font-variant:normal;font-weight:normal;font-stretch:normal;text-indent:0;text-align:start;text-decoration:none;line-height:normal;letter-spacing:normal;word-spacing:normal;text-transform:none;direction:ltr;block-progression:tb;writing-mode:lr-tb;text-anchor:start;color:#000000;fill:#000000;fill-opacity:1;stroke:none;stroke-width:1;marker:none;visibility:visible;display:inline;overflow:visible;enable-background:accumulate;font-family:Bitstream Charter;-inkscape-font-specification:Bitstream Charter"
       d="m 33.03125,70.75 1,0 0,-1 -1,0 z"
       id="path4106" />
    <path
       style="font-size:medium;font-style:normal;font-variant:normal;font-weight:normal;font-stretch:normal;text-indent:0;text-align:start;text-decoration:none;line-height:normal;letter-spacing:normal;word-spacing:normal;text-transform:none;direction:ltr;block-progression:tb;writing-mode:lr-tb;text-anchor:start;color:#000000;fill:#000000;fill-opacity:1;stroke:none;stroke-width:1;marker:none;visibility:visible;display:inline;overflow:visible;enable-background:accumulate;font-family:Bitstream Charter;-inkscape-font-specification:Bitstream Charter"
       d="m 33.03125,74.75 1,0 0,-1 -1,0 z"
       id="path2845" />
    <path
       style="font-size:12px;font-style:normal;font-variant:normal;font-weight:normal;font-stretch:normal;fill:#000000;fill-opacity:1;stroke:none;font-family:DejaVu Sans;-inkscape-font-specification:DejaVu Sans"
       d="m 10.807359,82.041227 0,1.86328 2.220703,0 0,0.83789 -2.220703,0 0,3.5625 c -3e-6,0.53516 0.07226,0.87891 0.216796,1.03125 0.148435,0.15235 0.447263,0.22852 0.896485,0.22852 l 1.107422,0 0,0.90234 -1.107422,0 c -0.832034,0 -1.406252,-0.1543 -1.722656,-0.46289 -0.316408,-0.3125 -0.474611,-0.87891 -0.47461,-1.69922 l 0,-3.5625 -0.791015,0 0,-0.83789 0.791015,0 0,-1.86328 1.083985,0"
       id="path3945" />
    <path
       style="font-size:12px;font-style:normal;font-variant:normal;font-weight:normal;font-stretch:normal;fill:#000000;fill-opacity:1;stroke:none;font-family:DejaVu Sans;-inkscape-font-specification:DejaVu Sans"
       d="m 20.924222,85.121511 7.511719,0 0,0.98438 -7.511719,0 0,-0.98438"
       id="path4100" />
    <path
       style="font-size:12px;font-style:normal;font-variant:normal;font-weight:normal;font-stretch:normal;fill:#000000;fill-opacity:1;stroke:none;font-family:DejaVu Sans;-inkscape-font-specification:DejaVu Sans"
       d="m 20.924222,87.512141 7.511719,0 0,0.99609 -7.511719,0 0,-0.99609"
       id="path3948" />
    <path
       style="font-size:12px;font-style:normal;font-variant:normal;font-weight:normal;font-stretch:normal;fill:#000000;fill-opacity:1;stroke:none;font-family:DejaVu Sans;-inkscape-font-specification:DejaVu Sans"
       d="m 40.113675,86.609791 0,3.96094 -1.078125,0 0,-3.92578 c -5e-6,-0.62109 -0.121099,-1.08593 -0.363281,-1.39453 -0.242192,-0.30859 -0.605473,-0.46289 -1.089844,-0.46289 -0.582034,0 -1.041018,0.18555 -1.376953,0.55664 -0.335939,0.3711 -0.503908,0.87695 -0.503906,1.51758 l 0,3.70898 -1.083984,0 0,-6.5625 1.083984,0 0,1.01953 c 0.25781,-0.39452 0.560544,-0.68945 0.908203,-0.88476 0.351559,-0.19531 0.755856,-0.29297 1.212891,-0.29297 0.753901,0 1.324213,0.23438 1.710937,0.70312 0.386713,0.46485 0.580072,1.1504 0.580078,2.05664"
       id="path3950" />
    <path
       style="font-size:12px;font-style:normal;font-variant:normal;font-weight:normal;font-stretch:normal;fill:#000000;fill-opacity:1;stroke:none;font-family:DejaVu Sans;-inkscape-font-specification:DejaVu Sans"
       d="M 50.40625 81.46875 L 50.40625 85 C 50.179682 84.60938 49.910151 84.3125 49.5625 84.125 C 49.218745 83.93359 48.796871 83.84375 48.3125 83.84375 C 47.519529 83.84375 46.874998 84.17969 46.375 84.8125 C 45.878905 85.44531 45.625 86.25 45.625 87.28125 C 45.625 88.3125 45.878905 89.14844 46.375 89.78125 C 46.874998 90.41407 47.519529 90.75 48.3125 90.75 C 48.796871 90.75 49.218745 90.65625 49.5625 90.46875 C 49.910151 90.27735 50.179682 89.98438 50.40625 89.59375 L 50.40625 90.5625 L 51.5 90.5625 L 51.5 81.46875 L 50.40625 81.46875 z M 48.5625 84.75 C 49.132808 84.75001 49.609371 84.98438 49.9375 85.4375 C 50.26562 85.88672 50.406244 86.48828 50.40625 87.28125 C 50.406244 88.07422 50.26562 88.70313 49.9375 89.15625 C 49.609371 89.60547 49.132808 89.84375 48.5625 89.84375 C 47.992184 89.84375 47.546872 89.60547 47.21875 89.15625 C 46.894529 88.70313 46.749998 88.07422 46.75 87.28125 C 46.749998 86.48828 46.894529 85.88672 47.21875 85.4375 C 47.546872 84.98438 47.992184 84.75001 48.5625 84.75 z "
       id="path4193" />
    <path
       style="font-size:12px;font-style:normal;font-variant:normal;font-weight:normal;font-stretch:normal;fill:#000000;fill-opacity:1;stroke:none;font-family:DejaVu Sans;-inkscape-font-specification:DejaVu Sans"
       d="m 54.779691,82.144951 0,1.86328 2.220703,0 0,0.83789 -2.220703,0 0,3.5625 c -2e-6,0.53516 0.07226,0.87891 0.216797,1.03125 0.148435,0.15235 0.447263,0.22852 0.896484,0.22852 l 1.107422,0 0,0.90234 -1.107422,0 c -0.832033,0 -1.406252,-0.1543 -1.722656,-0.46289 -0.316407,-0.3125 -0.47461,-0.87891 -0.474609,-1.69922 l 0,-3.5625 -0.791016,0 0,-0.83789 0.791016,0 0,-1.86328 1.083984,0"
       id="path3954" />
    <path
       style="font-size:8px;font-style:normal;font-variant:normal;font-weight:normal;font-stretch:normal;fill:#000000;fill-opacity:1;stroke:none;font-family:DejaVu Sans;-inkscape-font-specification:DejaVu Sans"
       d="m 18.215588,82.183547 0,2.64062 -0.71875,0 0,-2.61718 c -4e-6,-0.41406 -0.08073,-0.72396 -0.242188,-0.92969 -0.161461,-0.20573 -0.403648,-0.30859 -0.726562,-0.3086 -0.388023,10e-6 -0.694012,0.12371 -0.917969,0.3711 -0.22396,0.2474 -0.335939,0.58464 -0.335937,1.01172 l 0,2.47265 -0.722657,0 0,-4.375 0.722657,0 0,0.67969 c 0.171873,-0.26302 0.373696,-0.45963 0.605468,-0.58984 0.234373,-0.13021 0.503904,-0.19531 0.808594,-0.19532 0.502601,10e-6 0.882809,0.15626 1.140625,0.46875 0.257808,0.3099 0.386715,0.76693 0.386719,1.3711"
       id="path3957" />
    <path
       style="font-size:medium;font-style:normal;font-variant:normal;font-weight:normal;font-stretch:normal;text-indent:0;text-align:start;text-decoration:none;line-height:normal;letter-spacing:normal;word-spacing:normal;text-transform:none;direction:ltr;block-progression:tb;writing-mode:lr-tb;text-anchor:start;color:#000000;fill:#000000;fill-opacity:1;stroke:none;stroke-width:1px;marker:none;visibility:visible;display:inline;overflow:visible;enable-background:accumulate;font-family:Bitstream Charter;-inkscape-font-specification:Bitstream Charter"
       d="m 241.03125,25.75 0,23.75 1,0 0,-23.75 -1,0 z"
       id="path2839" />
    <path
       style="font-size:medium;font-style:normal;font-variant:normal;font-weight:normal;font-stretch:normal;text-indent:0;text-align:start;text-decoration:none;line-height:normal;letter-spacing:normal;word-spacing:normal;text-transform:none;direction:ltr;block-progression:tb;writing-mode:lr-tb;text-anchor:start;color:#000000;fill:#000000;fill-opacity:1;stroke:none;stroke-width:1;marker:none;visibility:visible;display:inline;overflow:visible;enable-background:accumulate;font-family:Bitstream Charter;-inkscape-font-specification:Bitstream Charter"
       d="m 241.03125,54.75 1,0 0,-1 -1,0 z"
       id="path4084" />
    <path
       style="font-size:medium;font-style:normal;font-variant:normal;font-weight:normal;font-stretch:normal;text-indent:0;text-align:start;text-decoration:none;line-height:normal;letter-spacing:normal;word-spacing:normal;text-transform:none;direction:ltr;block-progression:tb;writing-mode:lr-tb;text-anchor:start;color:#000000;fill:#000000;fill-opacity:1;stroke:none;stroke-width:1;marker:none;visibility:visible;display:inline;overflow:visible;enable-background:accumulate;font-family:Bitstream Charter;-inkscape-font-specification:Bitstream Charter"
       d="m 241.03125,58.75 1,0 0,-1 -1,0 z"
       id="path4082" />
    <path
       style="font-size:medium;font-style:normal;font-variant:normal;font-weight:normal;font-stretch:normal;text-indent:0;text-align:start;text-decoration:none;line-height:normal;letter-spacing:normal;word-spacing:normal;text-transform:none;direction:ltr;block-progression:tb;writing-mode:lr-tb;text-anchor:start;color:#000000;fill:#000000;fill-opacity:1;stroke:none;stroke-width:1;marker:none;visibility:visible;display:inline;overflow:visible;enable-background:accumulate;font-family:Bitstream Charter;-inkscape-font-specification:Bitstream Charter"
       d="m 241.03125,62.75 1,0 0,-1 -1,0 z"
       id="path4080" />
    <path
       style="font-size:medium;font-style:normal;font-variant:normal;font-weight:normal;font-stretch:normal;text-indent:0;text-align:start;text-decoration:none;line-height:normal;letter-spacing:normal;word-spacing:normal;text-transform:none;direction:ltr;block-progression:tb;writing-mode:lr-tb;text-anchor:start;color:#000000;fill:#000000;fill-opacity:1;stroke:none;stroke-width:1;marker:none;visibility:visible;display:inline;overflow:visible;enable-background:accumulate;font-family:Bitstream Charter;-inkscape-font-specification:Bitstream Charter"
       d="m 241.03125,66.75 1,0 0,-1 -1,0 z"
       id="path4078" />
    <path
       style="font-size:medium;font-style:normal;font-variant:normal;font-weight:normal;font-stretch:normal;text-indent:0;text-align:start;text-decoration:none;line-height:normal;letter-spacing:normal;word-spacing:normal;text-transform:none;direction:ltr;block-progression:tb;writing-mode:lr-tb;text-anchor:start;color:#000000;fill:#000000;fill-opacity:1;stroke:none;stroke-width:1;marker:none;visibility:visible;display:inline;overflow:visible;enable-background:accumulate;font-family:Bitstream Charter;-inkscape-font-specification:Bitstream Charter"
       d="m 241.03125,70.75 1,0 0,-1 -1,0 z"
       id="path4076" />
    <path
       style="font-size:medium;font-style:normal;font-variant:normal;font-weight:normal;font-stretch:normal;text-indent:0;text-align:start;text-decoration:none;line-height:normal;letter-spacing:normal;word-spacing:normal;text-transform:none;direction:ltr;block-progression:tb;writing-mode:lr-tb;text-anchor:start;color:#000000;fill:#000000;fill-opacity:1;stroke:none;stroke-width:1;marker:none;visibility:visible;display:inline;overflow:visible;enable-background:accumulate;font-family:Bitstream Charter;-inkscape-font-specification:Bitstream Charter"
       d="m 241.03125,74.75 1,0 0,-1 -1,0 z"
       id="path2847" />
    <path
       style="font-size:12px;font-style:normal;font-variant:normal;font-weight:normal;font-stretch:normal;fill:#000000;fill-opacity:1;stroke:none;font-family:DejaVu Sans;-inkscape-font-specification:DejaVu Sans"
       d="m 191.81752,82.041227 0,1.86328 2.2207,0 0,0.83789 -2.2207,0 0,3.5625 c -1e-5,0.53516 0.0723,0.87891 0.21679,1.03125 0.14844,0.15235 0.44726,0.22852 0.89649,0.22852 l 1.10742,0 0,0.90234 -1.10742,0 c -0.83204,0 -1.40626,-0.1543 -1.72266,-0.46289 -0.31641,-0.3125 -0.47461,-0.87891 -0.47461,-1.69922 l 0,-3.5625 -0.79101,0 0,-0.83789 0.79101,0 0,-1.86328 1.08399,0"
       id="path3960" />
    <path
       style="font-size:12px;font-style:normal;font-variant:normal;font-weight:normal;font-stretch:normal;fill:#000000;fill-opacity:1;stroke:none;font-family:DejaVu Sans;-inkscape-font-specification:DejaVu Sans"
       d="m 221.93437,85.121511 7.51172,0 0,0.98438 -7.51172,0 0,-0.98438"
       id="path4070" />
    <path
       style="font-size:12px;font-style:normal;font-variant:normal;font-weight:normal;font-stretch:normal;fill:#000000;fill-opacity:1;stroke:none;font-family:DejaVu Sans;-inkscape-font-specification:DejaVu Sans"
       d="m 221.93437,87.512141 7.51172,0 0,0.99609 -7.51172,0 0,-0.99609"
       id="path3963" />
    <path
       style="font-size:12px;font-style:normal;font-variant:normal;font-weight:normal;font-stretch:normal;fill:#000000;fill-opacity:1;stroke:none;font-family:DejaVu Sans;-inkscape-font-specification:DejaVu Sans"
       d="m 238.25859,81.465261 c -0.52344,0.89845 -0.91211,1.78712 -1.16601,2.66602 -0.25391,0.87891 -0.38086,1.76953 -0.38086,2.67187 0,0.90235 0.12695,1.79688 0.38086,2.6836 0.25781,0.88281 0.64648,1.77148 1.16601,2.66601 l -0.9375,0 c -0.58594,-0.91797 -1.02539,-1.82031 -1.31836,-2.70703 -0.28906,-0.88672 -0.43359,-1.76758 -0.43359,-2.64258 0,-0.87109 0.14453,-1.74804 0.43359,-2.63086 0.28906,-0.8828 0.72852,-1.78515 1.31836,-2.70703 l 0.9375,0"
       id="path3965" />
    <path
       style="font-size:12px;font-style:normal;font-variant:normal;font-weight:normal;font-stretch:normal;fill:#000000;fill-opacity:1;stroke:none;font-family:DejaVu Sans;-inkscape-font-specification:DejaVu Sans"
       d="m 245.81133,86.609791 0,3.96094 -1.07813,0 0,-3.92578 c 0,-0.62109 -0.1211,-1.08593 -0.36328,-1.39453 -0.24219,-0.30859 -0.60547,-0.46289 -1.08984,-0.46289 -0.58204,0 -1.04102,0.18555 -1.37696,0.55664 -0.33594,0.3711 -0.5039,0.87695 -0.5039,1.51758 l 0,3.70898 -1.08399,0 0,-6.5625 1.08399,0 0,1.01953 c 0.25781,-0.39452 0.56054,-0.68945 0.9082,-0.88476 0.35156,-0.19531 0.75586,-0.29297 1.21289,-0.29297 0.7539,0 1.32421,0.23438 1.71094,0.70312 0.38671,0.46485 0.58007,1.1504 0.58008,2.05664"
       id="path3967" />
    <path
       style="font-size:12px;font-style:normal;font-variant:normal;font-weight:normal;font-stretch:normal;fill:#000000;fill-opacity:1;stroke:none;font-family:DejaVu Sans;-inkscape-font-specification:DejaVu Sans"
       d="m 256.18242,83.047291 0,3.26367 3.26367,0 0,0.9961 -3.26367,0 0,3.26367 -0.98437,0 0,-3.26367 -3.26368,0 0,-0.9961 3.26368,0 0,-3.26367 0.98437,0"
       id="path3969" />
    <path
       style="font-size:12px;font-style:normal;font-variant:normal;font-weight:normal;font-stretch:normal;fill:#000000;fill-opacity:1;stroke:none;font-family:DejaVu Sans;-inkscape-font-specification:DejaVu Sans"
       d="m 266.02617,89.574641 1.93359,0 0,-6.67383 -2.10351,0.42187 0,-1.07812 2.0918,-0.42188 1.18359,0 0,7.75196 1.93359,0 0,0.99609 -5.03906,0 0,-0.99609"
       id="path3971" />
    <path
       style="font-size:12px;font-style:normal;font-variant:normal;font-weight:normal;font-stretch:normal;fill:#000000;fill-opacity:1;stroke:none;font-family:DejaVu Sans;-inkscape-font-specification:DejaVu Sans"
       d="m 273.13945,81.465261 0.9375,0 c 0.58594,0.92188 1.02344,1.82423 1.3125,2.70703 0.29297,0.88282 0.43945,1.75977 0.43946,2.63086 -1e-5,0.875 -0.14649,1.75586 -0.43946,2.64258 -0.28906,0.88672 -0.72656,1.78906 -1.3125,2.70703 l -0.9375,0 c 0.51953,-0.89453 0.90625,-1.7832 1.16016,-2.66601 0.25781,-0.88672 0.38671,-1.78125 0.38672,-2.6836 -10e-6,-0.90234 -0.12891,-1.79296 -0.38672,-2.67187 -0.25391,-0.8789 -0.64063,-1.76757 -1.16016,-2.66602"
       id="path3973" />
    <path
       style="font-size:12px;font-style:normal;font-variant:normal;font-weight:normal;font-stretch:normal;fill:#000000;fill-opacity:1;stroke:none;font-family:DejaVu Sans;-inkscape-font-specification:DejaVu Sans"
       d="M 286.125 81.46875 L 286.125 85 C 285.89843 84.60938 285.6289 84.3125 285.28125 84.125 C 284.93749 83.93359 284.51562 83.84375 284.03125 83.84375 C 283.23828 83.84375 282.59375 84.17969 282.09375 84.8125 C 281.59765 85.44531 281.34375 86.25 281.34375 87.28125 C 281.34375 88.3125 281.59765 89.14844 282.09375 89.78125 C 282.59375 90.41407 283.23828 90.75 284.03125 90.75 C 284.51562 90.75 284.93749 90.65625 285.28125 90.46875 C 285.6289 90.27735 285.89843 89.98438 286.125 89.59375 L 286.125 90.5625 L 287.21875 90.5625 L 287.21875 81.46875 L 286.125 81.46875 z M 284.28125 84.75 C 284.85156 84.75001 285.32812 84.98438 285.65625 85.4375 C 285.98437 85.88672 286.12499 86.48828 286.125 87.28125 C 286.12499 88.07422 285.98437 88.70313 285.65625 89.15625 C 285.32812 89.60547 284.85156 89.84375 284.28125 89.84375 C 283.71094 89.84375 283.26562 89.60547 282.9375 89.15625 C 282.61328 88.70313 282.46875 88.07422 282.46875 87.28125 C 282.46875 86.48828 282.61328 85.88672 282.9375 85.4375 C 283.26562 84.98438 283.71094 84.75001 284.28125 84.75 z "
       id="path4056" />
    <path
       style="font-size:12px;font-style:normal;font-variant:normal;font-weight:normal;font-stretch:normal;fill:#000000;fill-opacity:1;stroke:none;font-family:DejaVu Sans;-inkscape-font-specification:DejaVu Sans"
       d="m 290.50078,82.144951 0,1.86328 2.2207,0 0,0.83789 -2.2207,0 0,3.5625 c 0,0.53516 0.0723,0.87891 0.2168,1.03125 0.14843,0.15235 0.44726,0.22852 0.89648,0.22852 l 1.10742,0 0,0.90234 -1.10742,0 c -0.83203,0 -1.40625,-0.1543 -1.72265,-0.46289 -0.31641,-0.3125 -0.47462,-0.87891 -0.47461,-1.69922 l 0,-3.5625 -0.79102,0 0,-0.83789 0.79102,0 0,-1.86328 1.08398,0"
       id="path3977" />
    <path
       style="font-size:8px;font-style:normal;font-variant:normal;font-weight:normal;font-stretch:normal;fill:#000000;fill-opacity:1;stroke:none;font-family:DejaVu Sans;-inkscape-font-specification:DejaVu Sans"
       d="m 199.22574,82.183547 0,2.64062 -0.71875,0 0,-2.61718 c 0,-0.41406 -0.0807,-0.72396 -0.24218,-0.92969 -0.16146,-0.20573 -0.40365,-0.30859 -0.72657,-0.3086 -0.38802,10e-6 -0.69401,0.12371 -0.91796,0.3711 -0.22396,0.2474 -0.33594,0.58464 -0.33594,1.01172 l 0,2.47265 -0.72266,0 0,-4.375 0.72266,0 0,0.67969 c 0.17187,-0.26302 0.37369,-0.45963 0.60547,-0.58984 0.23437,-0.13021 0.5039,-0.19531 0.80859,-0.19532 0.5026,10e-6 0.88281,0.15626 1.14063,0.46875 0.2578,0.3099 0.38671,0.76693 0.38671,1.3711"
       id="path3980" />
    <path
       style="font-size:8px;font-style:normal;font-variant:normal;font-weight:normal;font-stretch:normal;fill:#000000;fill-opacity:1;stroke:none;font-family:DejaVu Sans;-inkscape-font-specification:DejaVu Sans"
       d="m 206.13981,79.808547 0,2.17578 2.17578,0 0,0.66406 -2.17578,0 0,2.17578 -0.65625,0 0,-2.17578 -2.17578,0 0,-0.66406 2.17578,0 0,-2.17578 0.65625,0"
       id="path3982" />
    <path
       style="font-size:8px;font-style:normal;font-variant:normal;font-weight:normal;font-stretch:normal;fill:#000000;fill-opacity:1;stroke:none;font-family:DejaVu Sans;-inkscape-font-specification:DejaVu Sans"
       d="m 212.70231,84.160107 1.28906,0 0,-4.44922 -1.40234,0.28125 0,-0.71875 1.39453,-0.28125 0.78906,0 0,5.16797 1.28906,0 0,0.66406 -3.35937,0 0,-0.66406"
       id="path3984" />
  </g>
</svg>
