<?xml version="1.0" encoding="UTF-8" standalone="no"?>
<!-- Created with Inkscape (http://www.inkscape.org/) -->

<svg
   xmlns:dc="http://purl.org/dc/elements/1.1/"
   xmlns:cc="http://creativecommons.org/ns#"
   xmlns:rdf="http://www.w3.org/1999/02/22-rdf-syntax-ns#"
   xmlns:svg="http://www.w3.org/2000/svg"
   xmlns="http://www.w3.org/2000/svg"
   xmlns:sodipodi="http://sodipodi.sourceforge.net/DTD/sodipodi-0.dtd"
   xmlns:inkscape="http://www.inkscape.org/namespaces/inkscape"
   width="340"
   height="100"
   id="svg2"
   version="1.1"
   inkscape:version="0.47 r22583"
   sodipodi:docname="2010-(11)nov-01 figur 1.svg">
  <defs
     id="defs4" />
  <sodipodi:namedview
     id="base"
     pagecolor="#ffffff"
     bordercolor="#666666"
     borderopacity="1.0"
     inkscape:pageopacity="0.0"
     inkscape:pageshadow="2"
     inkscape:zoom="2.8284271"
     inkscape:cx="201.10346"
     inkscape:cy="68.354209"
     inkscape:document-units="px"
     inkscape:current-layer="layer1"
     showgrid="false"
     inkscape:window-width="1589"
     inkscape:window-height="1117"
     inkscape:window-x="1600"
     inkscape:window-y="27"
     inkscape:window-maximized="1"
     showguides="true"
     inkscape:guide-bbox="true"
     inkscape:snap-midpoints="true" />
  <metadata
     id="metadata7">
    <rdf:RDF>
      <cc:Work
         rdf:about="">
        <dc:format>image/svg+xml</dc:format>
        <dc:type
           rdf:resource="http://purl.org/dc/dcmitype/StillImage" />
        <dc:title />
      </cc:Work>
    </rdf:RDF>
  </metadata>
  <g
     inkscape:label="Layer 1"
     inkscape:groupmode="layer"
     id="layer1">
    <path
       style="font-size:medium;font-style:normal;font-variant:normal;font-weight:normal;font-stretch:normal;text-indent:0;text-align:start;text-decoration:none;line-height:normal;letter-spacing:normal;word-spacing:normal;text-transform:none;direction:ltr;block-progression:tb;writing-mode:lr-tb;text-anchor:start;color:#000000;fill:#000000;fill-opacity:1;stroke:none;stroke-width:1px;marker:none;visibility:visible;display:inline;overflow:visible;enable-background:accumulate;font-family:Bitstream Charter;-inkscape-font-specification:Bitstream Charter"
       d="m 8.15625,70.9375 0,1 311.46875,0 0,-1 -311.46875,0 z"
       id="path2940" />
    <path
       style="font-size:12px;font-style:normal;font-variant:normal;font-weight:normal;font-stretch:normal;text-indent:0;text-align:start;text-decoration:none;line-height:normal;letter-spacing:normal;word-spacing:normal;text-transform:none;direction:ltr;block-progression:tb;writing-mode:lr-tb;text-anchor:start;color:#000000;fill-opacity:1;fill-rule:evenodd;stroke:none;stroke-width:0.625;marker:none;visibility:visible;display:inline;overflow:visible;enable-background:accumulate;font-family:Bitstream Charter;-inkscape-font-specification:Bitstream Charter"
       d="m 308.84375,66.6875 a 0.31253125,0.31253125 0 0 0 -0.0312,0.03125 0.31253125,0.31253125 0 0 0 -0.15625,0.4375 0.31253125,0.31253125 0 0 0 0.0312,0.03125 c 1.83209,2.552644 1.83907,5.969538 0,8.46875 a 0.31253125,0.31253125 0 0 0 -0.0625,0.28125 0.31253125,0.31253125 0 0 0 0.40625,0.1875 l 12.03125,-4.40625 a 0.31253125,0.31253125 0 0 0 0,-0.59375 l -12.03125,-4.40625 a 0.31253125,0.31253125 0 0 0 -0.1875,-0.03125 z"
       id="path3848" />
    <path
       style="font-size:12px;font-style:normal;font-variant:normal;font-weight:normal;font-stretch:normal;text-indent:0;text-align:start;text-decoration:none;line-height:normal;letter-spacing:normal;word-spacing:normal;text-transform:none;direction:ltr;block-progression:tb;writing-mode:lr-tb;text-anchor:start;color:#000000;fill-opacity:1;fill-rule:evenodd;stroke:none;stroke-width:0.625;marker:none;visibility:visible;display:inline;overflow:visible;enable-background:accumulate;font-family:Bitstream Charter;-inkscape-font-specification:Bitstream Charter"
       d="m 309.5625,67.5625 10.46875,3.84375 -10.4375,3.84375 c 1.35576,-2.381891 1.3346,-5.280076 -0.0312,-7.6875 z"
       id="path4441" />
    <path
       style="font-size:medium;font-style:normal;font-variant:normal;font-weight:normal;font-stretch:normal;text-indent:0;text-align:start;text-decoration:none;line-height:normal;letter-spacing:normal;word-spacing:normal;text-transform:none;direction:ltr;block-progression:tb;writing-mode:lr-tb;text-anchor:start;color:#000000;fill:#000000;fill-opacity:1;stroke:none;stroke-width:1px;marker:none;visibility:visible;display:inline;overflow:visible;enable-background:accumulate;font-family:Bitstream Charter;-inkscape-font-specification:Bitstream Charter"
       d="m 38.21875,61.34375 0,20 1,0 0,-20 -1,0 z"
       id="path4164" />
    <path
       style="fill:#000000;fill-opacity:1;stroke:none"
       d="m 42.644607,71.399549 c 0,2.209139 -1.790861,4 -4,4 -2.209139,0 -4,-1.790861 -4,-4 0,-2.209139 1.790861,-4 4,-4 2.209139,0 4,1.790861 4,4 z"
       id="path4178" />
    <path
       style="fill:#000000;fill-opacity:1;stroke:none"
       d="m 82.644607,51.399549 c 0,2.209139 -1.790861,4 -4,4 -2.209139,0 -4,-1.790861 -4,-4 0,-2.209139 1.790861,-4 4,-4 2.209139,0 4,1.790861 4,4 z"
       id="path4180" />
    <path
       style="fill:#000000;fill-opacity:1;stroke:none"
       d="m 122.64461,11.399549 c 0,2.209139 -1.79086,4 -4,4 -2.20914,0 -4,-1.790861 -4,-4 0,-2.209139 1.79086,-4 4,-4 2.20914,0 4,1.790861 4,4 z"
       id="path4182" />
    <path
       style="fill:#000000;fill-opacity:1;stroke:none"
       d="m 162.64461,31.399549 c 0,2.209139 -1.79086,4 -4,4 -2.20914,0 -4,-1.790861 -4,-4 0,-2.209139 1.79086,-4 4,-4 2.20914,0 4,1.790861 4,4 z"
       id="path4184" />
    <path
       style="fill:#000000;fill-opacity:1;stroke:none"
       d="m 202.64461,21.399549 c 0,2.209139 -1.79086,4 -4,4 -2.20914,0 -4,-1.790861 -4,-4 0,-2.209139 1.79086,-4 4,-4 2.20914,0 4,1.790861 4,4 z"
       id="path4186" />
    <path
       style="fill:#000000;fill-opacity:1;stroke:none"
       d="m 242.64461,15.399549 c 0,2.209139 -1.79086,4 -4,4 -2.20914,0 -4,-1.790861 -4,-4 0,-2.209139 1.79086,-4 4,-4 2.20914,0 4,1.790861 4,4 z"
       id="path4188" />
    <path
       style="font-size:medium;font-style:normal;font-variant:normal;font-weight:normal;font-stretch:normal;text-indent:0;text-align:start;text-decoration:none;line-height:normal;letter-spacing:normal;word-spacing:normal;text-transform:none;direction:ltr;block-progression:tb;writing-mode:lr-tb;text-anchor:start;color:#000000;fill:#000000;fill-opacity:1;stroke:none;stroke-width:1px;marker:none;visibility:visible;display:inline;overflow:visible;enable-background:accumulate;font-family:Bitstream Charter;-inkscape-font-specification:Bitstream Charter"
       d="m 78.21875,61.34375 0,20 1,0 0,-20 -1,0 z"
       id="path4206" />
    <path
       style="font-size:medium;font-style:normal;font-variant:normal;font-weight:normal;font-stretch:normal;text-indent:0;text-align:start;text-decoration:none;line-height:normal;letter-spacing:normal;word-spacing:normal;text-transform:none;direction:ltr;block-progression:tb;writing-mode:lr-tb;text-anchor:start;color:#000000;fill:#000000;fill-opacity:1;stroke:none;stroke-width:1px;marker:none;visibility:visible;display:inline;overflow:visible;enable-background:accumulate;font-family:Bitstream Charter;-inkscape-font-specification:Bitstream Charter"
       d="m 118.21875,61.34375 0,20 1,0 0,-20 -1,0 z"
       id="path4208" />
    <path
       style="font-size:medium;font-style:normal;font-variant:normal;font-weight:normal;font-stretch:normal;text-indent:0;text-align:start;text-decoration:none;line-height:normal;letter-spacing:normal;word-spacing:normal;text-transform:none;direction:ltr;block-progression:tb;writing-mode:lr-tb;text-anchor:start;color:#000000;fill:#000000;fill-opacity:1;stroke:none;stroke-width:1px;marker:none;visibility:visible;display:inline;overflow:visible;enable-background:accumulate;font-family:Bitstream Charter;-inkscape-font-specification:Bitstream Charter"
       d="m 158.21875,61.34375 0,20 1,0 0,-20 -1,0 z"
       id="path4210" />
    <path
       style="font-size:medium;font-style:normal;font-variant:normal;font-weight:normal;font-stretch:normal;text-indent:0;text-align:start;text-decoration:none;line-height:normal;letter-spacing:normal;word-spacing:normal;text-transform:none;direction:ltr;block-progression:tb;writing-mode:lr-tb;text-anchor:start;color:#000000;fill:#000000;fill-opacity:1;stroke:none;stroke-width:1px;marker:none;visibility:visible;display:inline;overflow:visible;enable-background:accumulate;font-family:Bitstream Charter;-inkscape-font-specification:Bitstream Charter"
       d="m 198.21875,61.34375 0,20 1,0 0,-20 -1,0 z"
       id="path4212" />
    <path
       style="font-size:medium;font-style:normal;font-variant:normal;font-weight:normal;font-stretch:normal;text-indent:0;text-align:start;text-decoration:none;line-height:normal;letter-spacing:normal;word-spacing:normal;text-transform:none;direction:ltr;block-progression:tb;writing-mode:lr-tb;text-anchor:start;color:#000000;fill:#000000;fill-opacity:1;stroke:none;stroke-width:1px;marker:none;visibility:visible;display:inline;overflow:visible;enable-background:accumulate;font-family:Bitstream Charter;-inkscape-font-specification:Bitstream Charter"
       d="m 238.21875,61.34375 0,20 1,0 0,-20 -1,0 z"
       id="path4214" />
    <path
       style="font-size:medium;font-style:normal;font-variant:normal;font-weight:normal;font-stretch:normal;text-indent:0;text-align:start;text-decoration:none;line-height:normal;letter-spacing:normal;word-spacing:normal;text-transform:none;direction:ltr;block-progression:tb;writing-mode:lr-tb;text-anchor:start;color:#000000;fill:#000000;fill-opacity:1;stroke:none;stroke-width:1px;marker:none;visibility:visible;display:inline;overflow:visible;enable-background:accumulate;font-family:Bitstream Charter;-inkscape-font-specification:Bitstream Charter"
       d="m 278.21875,61.34375 0,20 1,0 0,-20 -1,0 z"
       id="path4216" />
    <path
       style="font-size:12px;font-style:normal;font-variant:normal;font-weight:normal;font-stretch:normal;fill:#000000;fill-opacity:1;stroke:none;font-family:DejaVu Sans;-inkscape-font-specification:DejaVu Sans"
       d="M 38.53125 83.90625 C 37.550779 83.90626 36.800779 84.28516 36.28125 85.0625 C 35.765624 85.83594 35.499999 86.96094 35.5 88.4375 C 35.499999 89.91015 35.765624 91.03515 36.28125 91.8125 C 36.800779 92.58593 37.550779 92.96875 38.53125 92.96875 C 39.511714 92.96875 40.265619 92.58593 40.78125 91.8125 C 41.300774 91.03515 41.531243 89.91015 41.53125 88.4375 C 41.531243 86.96094 41.300774 85.83594 40.78125 85.0625 C 40.265619 84.28516 39.511714 83.90626 38.53125 83.90625 z M 38.53125 84.84375 C 39.144527 84.84376 39.601558 85.1172 39.90625 85.71875 C 40.214838 86.31642 40.374994 87.23438 40.375 88.4375 C 40.374994 89.63672 40.214838 90.52344 39.90625 91.125 C 39.601558 91.72265 39.144527 92.03125 38.53125 92.03125 C 37.921872 92.03125 37.464841 91.72265 37.15625 91.125 C 36.85156 90.52344 36.687498 89.63672 36.6875 88.4375 C 36.687498 87.23438 36.85156 86.31642 37.15625 85.71875 C 37.464841 85.1172 37.921872 84.84376 38.53125 84.84375 z "
       id="path3808" />
    <path
       style="font-size:12px;font-style:normal;font-variant:normal;font-weight:normal;font-stretch:normal;fill:#000000;fill-opacity:1;stroke:none;font-family:DejaVu Sans;-inkscape-font-specification:DejaVu Sans"
       d="m 106.23445,83.795039 0,1.86328 2.2207,0 0,0.83789 -2.2207,0 0,3.5625 c 0,0.53516 0.0723,0.87891 0.2168,1.03125 0.14843,0.15235 0.44726,0.22852 0.89648,0.22852 l 1.10742,0 0,0.90234 -1.10742,0 c -0.83203,0 -1.40625,-0.1543 -1.72265,-0.46289 -0.31641,-0.3125 -0.47462,-0.87891 -0.47461,-1.69922 l 0,-3.5625 -0.79102,0 0,-0.83789 0.79102,0 0,-1.86328 1.08398,0"
       id="path4376" />
    <path
       style="font-size:12px;font-style:normal;font-variant:normal;font-weight:normal;font-stretch:normal;fill:#000000;fill-opacity:1;stroke:none;font-family:DejaVu Sans;-inkscape-font-specification:DejaVu Sans"
       d="m 275.0163,83.482964 7.40039,0 0,0.9961 -3.10546,0 0,7.75195 -1.18946,0 0,-7.75195 -3.10547,0 0,-0.9961"
       id="path4379" />
    <path
       style="font-size:9px;font-style:normal;font-variant:normal;font-weight:normal;font-stretch:normal;fill:#000000;fill-opacity:1;stroke:none;font-family:DejaVu Sans;-inkscape-font-specification:DejaVu Sans"
       d="m 113.48152,91.750119 0,2.9707 -0.80859,0 0,-2.94433 c -10e-6,-0.46582 -0.0908,-0.81445 -0.27246,-1.0459 -0.18165,-0.23144 -0.45411,-0.34717 -0.81739,-0.34717 -0.43652,0 -0.78076,0.13916 -1.03271,0.41748 -0.25196,0.27832 -0.37793,0.65772 -0.37793,1.13818 l 0,2.78174 -0.81299,0 0,-4.92187 0.81299,0 0,0.76465 c 0.19336,-0.2959 0.42041,-0.51709 0.68115,-0.66358 0.26367,-0.14648 0.56689,-0.21972 0.90967,-0.21972 0.56543,0 0.99316,0.17578 1.2832,0.52734 0.29004,0.34864 0.43506,0.8628 0.43506,1.54248"
       id="path4382" />
    <path
       style="font-size:9px;font-style:normal;font-variant:normal;font-weight:normal;font-stretch:normal;fill:#000000;fill-opacity:1;stroke:none;font-family:DejaVu Sans;-inkscape-font-specification:DejaVu Sans"
       d="m 118.07381,91.525999 5.63378,0 0,0.74707 -5.63378,0 0,-0.74707"
       id="path4384" />
    <path
       style="font-size:9px;font-style:normal;font-variant:normal;font-weight:normal;font-stretch:normal;fill:#000000;fill-opacity:1;stroke:none;font-family:DejaVu Sans;-inkscape-font-specification:DejaVu Sans"
       d="m 128.64265,93.973749 1.4502,0 0,-5.00537 -1.57764,0.31641 0,-0.8086 1.56885,-0.3164 0.88769,0 0,5.81396 1.4502,0 0,0.74707 -3.7793,0 0,-0.74707"
       id="path4386" />
    <path
       style="font-size:9px;font-style:normal;font-variant:normal;font-weight:normal;font-stretch:normal;fill:#000000;fill-opacity:1;stroke:none;font-family:DejaVu Sans;-inkscape-font-specification:DejaVu Sans"
       d="m 163.07772,91.760314 0,2.9707 -0.80859,0 0,-2.94433 c -1e-5,-0.46582 -0.0908,-0.81445 -0.27246,-1.0459 -0.18165,-0.23144 -0.45411,-0.34717 -0.81738,-0.34717 -0.43653,0 -0.78077,0.13916 -1.03272,0.41748 -0.25195,0.27832 -0.37793,0.65772 -0.37793,1.13818 l 0,2.78174 -0.81299,0 0,-4.92187 0.81299,0 0,0.76465 c 0.19336,-0.2959 0.42041,-0.51709 0.68115,-0.66358 0.26367,-0.14648 0.56689,-0.21972 0.90967,-0.21972 0.56543,0 0.99316,0.17578 1.28321,0.52734 0.29003,0.34864 0.43505,0.8628 0.43505,1.54248"
       id="path4389" />
    <path
       style="font-size:9px;font-style:normal;font-variant:normal;font-weight:normal;font-stretch:normal;fill:#000000;fill-opacity:1;stroke:none;font-family:DejaVu Sans;-inkscape-font-specification:DejaVu Sans"
       d="m 193.43127,91.760314 0,2.9707 -0.80859,0 0,-2.94433 c -1e-5,-0.46582 -0.0908,-0.81445 -0.27246,-1.0459 -0.18165,-0.23144 -0.45411,-0.34717 -0.81738,-0.34717 -0.43653,0 -0.78077,0.13916 -1.03272,0.41748 -0.25195,0.27832 -0.37793,0.65772 -0.37793,1.13818 l 0,2.78174 -0.81299,0 0,-4.92187 0.81299,0 0,0.76465 c 0.19336,-0.2959 0.42041,-0.51709 0.68115,-0.66358 0.26367,-0.14648 0.56689,-0.21972 0.90967,-0.21972 0.56543,0 0.99316,0.17578 1.2832,0.52734 0.29004,0.34864 0.43506,0.8628 0.43506,1.54248"
       id="path4392" />
    <path
       style="font-size:9px;font-style:normal;font-variant:normal;font-weight:normal;font-stretch:normal;fill:#000000;fill-opacity:1;stroke:none;font-family:DejaVu Sans;-inkscape-font-specification:DejaVu Sans"
       d="m 201.20959,89.088434 0,2.44776 2.44776,0 0,0.74707 -2.44776,0 0,2.44775 -0.73828,0 0,-2.44775 -2.44775,0 0,-0.74707 2.44775,0 0,-2.44776 0.73828,0"
       id="path4394" />
    <path
       style="font-size:9px;font-style:normal;font-variant:normal;font-weight:normal;font-stretch:normal;fill:#000000;fill-opacity:1;stroke:none;font-family:DejaVu Sans;-inkscape-font-specification:DejaVu Sans"
       d="m 208.59241,93.983944 1.45019,0 0,-5.00537 -1.57764,0.31641 0,-0.8086 1.56885,-0.3164 0.8877,0 0,5.81396 1.45019,0 0,0.74707 -3.77929,0 0,-0.74707"
       id="path4396" />
    <path
       style="font-size:12px;font-style:normal;font-variant:normal;font-weight:normal;font-stretch:normal;fill:#000000;fill-opacity:1;stroke:none;font-family:DejaVu Sans;-inkscape-font-specification:DejaVu Sans"
       d="m 155.83065,83.805234 0,1.86328 2.2207,0 0,0.83789 -2.2207,0 0,3.5625 c -1e-5,0.53516 0.0723,0.87891 0.21679,1.03125 0.14844,0.15235 0.44726,0.22852 0.89649,0.22852 l 1.10742,0 0,0.90234 -1.10742,0 c -0.83204,0 -1.40626,-0.1543 -1.72266,-0.46289 -0.31641,-0.3125 -0.47461,-0.87891 -0.47461,-1.69922 l 0,-3.5625 -0.79101,0 0,-0.83789 0.79101,0 0,-1.86328 1.08399,0"
       id="path4399" />
    <path
       style="font-size:12px;font-style:normal;font-variant:normal;font-weight:normal;font-stretch:normal;fill:#000000;fill-opacity:1;stroke:none;font-family:DejaVu Sans;-inkscape-font-specification:DejaVu Sans"
       d="m 186.18421,83.805234 0,1.86328 2.2207,0 0,0.83789 -2.2207,0 0,3.5625 c -1e-5,0.53516 0.0723,0.87891 0.21679,1.03125 0.14844,0.15235 0.44726,0.22852 0.89649,0.22852 l 1.10742,0 0,0.90234 -1.10742,0 c -0.83204,0 -1.40626,-0.1543 -1.72266,-0.46289 -0.31641,-0.3125 -0.47461,-0.87891 -0.47461,-1.69922 l 0,-3.5625 -0.79101,0 0,-0.83789 0.79101,0 0,-1.86328 1.08399,0"
       id="path4402" />
    <path
       style="font-size:12px;font-style:normal;font-variant:normal;font-weight:normal;font-stretch:normal;fill:#000000;fill-opacity:1;stroke:none;font-family:DejaVu Sans;-inkscape-font-specification:DejaVu Sans"
       d="m 329.33892,66.712471 0,1.86328 2.2207,0 0,0.83789 -2.2207,0 0,3.5625 c -10e-6,0.53516 0.0723,0.87891 0.21679,1.03125 0.14844,0.15235 0.44727,0.22852 0.89649,0.22852 l 1.10742,0 0,0.90234 -1.10742,0 c -0.83204,0 -1.40625,-0.1543 -1.72266,-0.46289 -0.31641,-0.3125 -0.47461,-0.87891 -0.47461,-1.69922 l 0,-3.5625 -0.79101,0 0,-0.83789 0.79101,0 0,-1.86328 1.08399,0"
       id="path4405" />
    <path
       style="font-size:medium;font-style:normal;font-variant:normal;font-weight:normal;font-stretch:normal;text-indent:0;text-align:start;text-decoration:none;line-height:normal;letter-spacing:normal;word-spacing:normal;text-transform:none;direction:ltr;block-progression:tb;writing-mode:lr-tb;text-anchor:start;color:#000000;fill:#000000;fill-opacity:1;stroke:none;stroke-width:1px;marker:none;visibility:visible;display:inline;overflow:visible;enable-background:accumulate;font-family:Bitstream Charter;-inkscape-font-specification:Bitstream Charter"
       d="M 74.84375,52.75 42,69.15625 42.4375,70.0625 75.28125,53.625 74.84375,52.75 z"
       id="path2841" />
    <path
       style="font-size:medium;font-style:normal;font-variant:normal;font-weight:normal;font-stretch:normal;text-indent:0;text-align:start;text-decoration:none;line-height:normal;letter-spacing:normal;word-spacing:normal;text-transform:none;direction:ltr;block-progression:tb;writing-mode:lr-tb;text-anchor:start;color:#000000;fill:#000000;fill-opacity:1;stroke:none;stroke-width:1px;marker:none;visibility:visible;display:inline;overflow:visible;enable-background:accumulate;font-family:Bitstream Charter;-inkscape-font-specification:Bitstream Charter"
       d="M 115.46875,13.875 81.125,48.21875 81.8125,48.9375 116.15625,14.59375 115.46875,13.875 z"
       id="path2843" />
    <path
       style="font-size:medium;font-style:normal;font-variant:normal;font-weight:normal;font-stretch:normal;text-indent:0;text-align:start;text-decoration:none;line-height:normal;letter-spacing:normal;word-spacing:normal;text-transform:none;direction:ltr;block-progression:tb;writing-mode:lr-tb;text-anchor:start;color:#000000;fill:#000000;fill-opacity:1;stroke:none;stroke-width:1px;marker:none;visibility:visible;display:inline;overflow:visible;enable-background:accumulate;font-family:Bitstream Charter;-inkscape-font-specification:Bitstream Charter"
       d="M 122.4375,12.75 122,13.625 154.84375,30.0625 155.28125,29.15625 122.4375,12.75 z"
       id="path2845" />
    <path
       style="font-size:medium;font-style:normal;font-variant:normal;font-weight:normal;font-stretch:normal;text-indent:0;text-align:start;text-decoration:none;line-height:normal;letter-spacing:normal;word-spacing:normal;text-transform:none;direction:ltr;block-progression:tb;writing-mode:lr-tb;text-anchor:start;color:#000000;fill:#000000;fill-opacity:1;stroke:none;stroke-width:1px;marker:none;visibility:visible;display:inline;overflow:visible;enable-background:accumulate;font-family:Bitstream Charter;-inkscape-font-specification:Bitstream Charter"
       d="m 194.65625,21.875 -32.25,8.0625 0.25,0.96875 32.21875,-8.0625 -0.21875,-0.96875 z"
       id="path2847" />
    <path
       style="font-size:medium;font-style:normal;font-variant:normal;font-weight:normal;font-stretch:normal;text-indent:0;text-align:start;text-decoration:none;line-height:normal;letter-spacing:normal;word-spacing:normal;text-transform:none;direction:ltr;block-progression:tb;writing-mode:lr-tb;text-anchor:start;color:#000000;fill:#000000;fill-opacity:1;stroke:none;stroke-width:1px;marker:none;visibility:visible;display:inline;overflow:visible;enable-background:accumulate;font-family:Bitstream Charter;-inkscape-font-specification:Bitstream Charter"
       d="m 234.625,15.5 -32.09375,4.8125 0.15625,1 32.0625,-4.8125 -0.125,-1 z"
       id="path2849" />
    <path
       style="font-size:12px;font-style:normal;font-variant:normal;font-weight:normal;font-stretch:normal;fill:#000000;fill-opacity:1;stroke:none;font-family:DejaVu Sans;-inkscape-font-specification:DejaVu Sans"
       d="M 137.9375 56.09375 L 137.9375 59.65625 C 137.71093 59.265631 137.4414 58.968756 137.09375 58.78125 C 136.75 58.589851 136.32812 58.500007 135.84375 58.5 C 135.05078 58.500007 134.40625 58.804693 133.90625 59.4375 C 133.41016 60.070317 133.15625 60.906255 133.15625 61.9375 C 133.15625 62.968753 133.41016 63.804689 133.90625 64.4375 C 134.40625 65.070313 135.05078 65.375 135.84375 65.375 C 136.32812 65.375 136.75 65.28125 137.09375 65.09375 C 137.4414 64.902344 137.71093 64.609376 137.9375 64.21875 L 137.9375 65.21875 L 139.03125 65.21875 L 139.03125 56.09375 L 137.9375 56.09375 z M 136.09375 59.40625 C 136.66406 59.406255 137.14062 59.609381 137.46875 60.0625 C 137.79687 60.511723 137.93749 61.144536 137.9375 61.9375 C 137.93749 62.730472 137.79687 63.359377 137.46875 63.8125 C 137.14062 64.26172 136.66406 64.468751 136.09375 64.46875 C 135.52344 64.468751 135.07812 64.26172 134.75 63.8125 C 134.42578 63.359377 134.28125 62.730472 134.28125 61.9375 C 134.28125 61.144536 134.42578 60.511723 134.75 60.0625 C 135.07812 59.609381 135.52344 59.406255 136.09375 59.40625 z "
       id="path3776" />
    <path
       style="font-size:12px;font-style:normal;font-variant:normal;font-weight:normal;font-stretch:normal;fill:#000000;fill-opacity:1;stroke:none;font-family:DejaVu Sans;-inkscape-font-specification:DejaVu Sans"
       d="m 142.31445,56.785209 0,1.863281 2.22071,0 0,0.837891 -2.22071,0 0,3.5625 c 0,0.535157 0.0723,0.878907 0.2168,1.03125 0.14843,0.152344 0.44726,0.228516 0.89648,0.228515 l 1.10743,0 0,0.902344 -1.10743,0 c -0.83203,0 -1.40625,-0.154297 -1.72265,-0.462891 -0.31641,-0.312499 -0.47461,-0.878905 -0.47461,-1.699218 l 0,-3.5625 -0.79102,0 0,-0.837891 0.79102,0 0,-1.863281 1.08398,0"
       id="path3706" />
    <path
       style="font-size:12px;font-style:normal;font-variant:normal;font-weight:normal;font-stretch:normal;fill:#000000;fill-opacity:1;stroke:none;font-family:DejaVu Sans;-inkscape-font-specification:DejaVu Sans"
       d="M 177.9375 56.09375 L 177.9375 59.65625 C 177.71093 59.265631 177.4414 58.968756 177.09375 58.78125 C 176.75 58.589851 176.32812 58.500007 175.84375 58.5 C 175.05078 58.500007 174.40625 58.804693 173.90625 59.4375 C 173.41016 60.070317 173.15625 60.906255 173.15625 61.9375 C 173.15625 62.968753 173.41016 63.804689 173.90625 64.4375 C 174.40625 65.070313 175.05078 65.375 175.84375 65.375 C 176.32812 65.375 176.75 65.28125 177.09375 65.09375 C 177.4414 64.902344 177.71093 64.609376 177.9375 64.21875 L 177.9375 65.21875 L 179.03125 65.21875 L 179.03125 56.09375 L 177.9375 56.09375 z M 176.09375 59.40625 C 176.66406 59.406255 177.14062 59.609381 177.46875 60.0625 C 177.79687 60.511723 177.93749 61.144536 177.9375 61.9375 C 177.93749 62.730472 177.79687 63.359377 177.46875 63.8125 C 177.14062 64.26172 176.66406 64.468751 176.09375 64.46875 C 175.52344 64.468751 175.07812 64.26172 174.75 63.8125 C 174.42578 63.359377 174.28125 62.730472 174.28125 61.9375 C 174.28125 61.144536 174.42578 60.511723 174.75 60.0625 C 175.07812 59.609381 175.52344 59.406255 176.09375 59.40625 z "
       id="path3770" />
    <path
       style="font-size:12px;font-style:normal;font-variant:normal;font-weight:normal;font-stretch:normal;fill:#000000;fill-opacity:1;stroke:none;font-family:DejaVu Sans;-inkscape-font-specification:DejaVu Sans"
       d="m 182.31445,56.785209 0,1.863281 2.22071,0 0,0.837891 -2.22071,0 0,3.5625 c 0,0.535157 0.0723,0.878907 0.2168,1.03125 0.14843,0.152344 0.44726,0.228516 0.89648,0.228515 l 1.10743,0 0,0.902344 -1.10743,0 c -0.83203,0 -1.40625,-0.154297 -1.72265,-0.462891 -0.31641,-0.312499 -0.47461,-0.878905 -0.47461,-1.699218 l 0,-3.5625 -0.79102,0 0,-0.837891 0.79102,0 0,-1.863281 1.08398,0"
       id="path3711" />
    <path
       style="font-size:medium;font-style:normal;font-variant:normal;font-weight:normal;font-stretch:normal;text-indent:0;text-align:start;text-decoration:none;line-height:normal;letter-spacing:normal;word-spacing:normal;text-transform:none;direction:ltr;block-progression:tb;writing-mode:lr-tb;text-anchor:start;color:#000000;fill:#000000;fill-opacity:1;stroke:none;stroke-width:2.9000001;marker:none;visibility:visible;display:inline;overflow:visible;enable-background:accumulate;font-family:Bitstream Charter;-inkscape-font-specification:Bitstream Charter"
       d="m 119.21875,69.90625 0,2.875 39.65625,0 0,-2.875 -39.65625,0 z"
       id="path2867" />
    <path
       style="font-size:12px;font-style:normal;font-variant:normal;font-weight:normal;font-stretch:normal;fill:#000000;fill-opacity:1;stroke:none;font-family:DejaVu Sans;-inkscape-font-specification:DejaVu Sans"
       d="m 244.9867,19.505849 0,-3.972656 1.07813,0 0,3.931641 c -1e-5,0.621095 0.12109,1.087892 0.36328,1.40039 0.24218,0.308595 0.60546,0.462892 1.08984,0.462891 0.58203,1e-6 1.04101,-0.185546 1.37695,-0.556641 0.33984,-0.371092 0.50976,-0.876951 0.50977,-1.517578 l 0,-3.720703 1.07812,0 0,6.5625 -1.07812,0 0,-1.007813 c -0.26172,0.398439 -0.56641,0.695313 -0.91406,0.890625 -0.34376,0.191407 -0.74415,0.28711 -1.20117,0.28711 -0.75391,0 -1.32618,-0.234375 -1.7168,-0.703125 -0.39063,-0.468749 -0.58594,-1.154295 -0.58594,-2.056641"
       id="path3764" />
    <path
       style="font-size:12px;font-style:normal;font-variant:normal;font-weight:normal;font-stretch:normal;fill:#000000;fill-opacity:1;stroke:none;font-family:DejaVu Sans;-inkscape-font-specification:DejaVu Sans"
       d="m 247.69959,15.37499 0,0"
       id="path3714" />
    <path
       style="font-size:9px;font-style:normal;font-variant:normal;font-weight:normal;font-stretch:normal;fill:#000000;fill-opacity:1;stroke:none;font-family:DejaVu Sans;-inkscape-font-specification:DejaVu Sans"
       d="M 255.21875 17.90625 L 255.21875 20.5625 C 255.04883 20.269535 254.85449 20.04688 254.59375 19.90625 C 254.33593 19.762698 254.01953 19.687505 253.65625 19.6875 C 253.06152 19.687505 252.5625 19.931646 252.1875 20.40625 C 251.81543 20.880863 251.65625 21.507816 251.65625 22.28125 C 251.65625 23.05469 251.81543 23.681641 252.1875 24.15625 C 252.5625 24.630859 253.06152 24.875 253.65625 24.875 C 254.01953 24.875 254.33593 24.796875 254.59375 24.65625 C 254.85449 24.512696 255.04883 24.292969 255.21875 24 L 255.21875 24.75 L 256.03125 24.75 L 256.03125 17.90625 L 255.21875 17.90625 z M 253.84375 20.375 C 254.27148 20.375004 254.62891 20.53516 254.875 20.875 C 255.12109 21.211917 255.21875 21.686527 255.21875 22.28125 C 255.21875 22.875979 255.12109 23.347658 254.875 23.6875 C 254.62891 24.024415 254.27148 24.187501 253.84375 24.1875 C 253.41601 24.187501 253.08984 24.024415 252.84375 23.6875 C 252.60058 23.347658 252.46875 22.875979 252.46875 22.28125 C 252.46875 21.686527 252.60058 21.211917 252.84375 20.875 C 253.08984 20.53516 253.41601 20.375004 253.84375 20.375 z "
       id="path3760" />
    <path
       style="font-size:9px;font-style:normal;font-variant:normal;font-weight:normal;font-stretch:normal;fill:#000000;fill-opacity:1;stroke:none;font-family:DejaVu Sans;-inkscape-font-specification:DejaVu Sans"
       d="m 258.50526,18.416296 0,1.39746 1.66553,0 0,0.628418 -1.66553,0 0,2.671875 c 0,0.401369 0.0542,0.659181 0.1626,0.773438 0.11132,0.114258 0.33544,0.171387 0.67236,0.171387 l 0.83057,0 0,0.676757 -0.83057,0 c -0.62402,0 -1.05469,-0.115722 -1.29199,-0.347168 -0.23731,-0.234374 -0.35596,-0.659178 -0.35596,-1.274414 l 0,-2.671875 -0.59326,0 0,-0.628418 0.59326,0 0,-1.39746 0.81299,0"
       id="path3719" />
  </g>
</svg>
