<?xml version="1.0" encoding="UTF-8" standalone="no"?>
<!-- Created with Inkscape (http://www.inkscape.org/) -->

<svg
   xmlns:dc="http://purl.org/dc/elements/1.1/"
   xmlns:cc="http://creativecommons.org/ns#"
   xmlns:rdf="http://www.w3.org/1999/02/22-rdf-syntax-ns#"
   xmlns:svg="http://www.w3.org/2000/svg"
   xmlns="http://www.w3.org/2000/svg"
   xmlns:sodipodi="http://sodipodi.sourceforge.net/DTD/sodipodi-0.dtd"
   xmlns:inkscape="http://www.inkscape.org/namespaces/inkscape"
   width="300"
   height="200"
   id="svg2"
   version="1.1"
   inkscape:version="0.47 r22583"
   sodipodi:docname="2010-(10)okt-28 figur 1.svg">
  <defs
     id="defs4" />
  <sodipodi:namedview
     id="base"
     pagecolor="#ffffff"
     bordercolor="#666666"
     borderopacity="1.0"
     inkscape:pageopacity="0.0"
     inkscape:pageshadow="2"
     inkscape:zoom="1.979899"
     inkscape:cx="222.0647"
     inkscape:cy="91.992709"
     inkscape:document-units="px"
     inkscape:current-layer="layer1"
     showgrid="false"
     inkscape:window-width="1589"
     inkscape:window-height="1117"
     inkscape:window-x="1600"
     inkscape:window-y="27"
     inkscape:window-maximized="1"
     showguides="true"
     inkscape:guide-bbox="true" />
  <metadata
     id="metadata7">
    <rdf:RDF>
      <cc:Work
         rdf:about="">
        <dc:format>image/svg+xml</dc:format>
        <dc:type
           rdf:resource="http://purl.org/dc/dcmitype/StillImage" />
        <dc:title />
      </cc:Work>
    </rdf:RDF>
  </metadata>
  <g
     inkscape:label="Layer 1"
     inkscape:groupmode="layer"
     id="layer1">
    <path
       style="font-size:medium;font-style:normal;font-variant:normal;font-weight:normal;font-stretch:normal;text-indent:0;text-align:start;text-decoration:none;line-height:normal;letter-spacing:normal;word-spacing:normal;text-transform:none;direction:ltr;block-progression:tb;writing-mode:lr-tb;text-anchor:start;color:#000000;fill:#000000;fill-opacity:1;stroke:none;stroke-width:1px;marker:none;visibility:visible;display:inline;overflow:visible;enable-background:accumulate;font-family:Bitstream Charter;-inkscape-font-specification:Bitstream Charter"
       d="m 12.078599,162.26534 0,1 245.571441,0 0,-1 -245.571441,0 z"
       id="path2813"
       sodipodi:nodetypes="ccccc" />
    <path
       style="font-size:12px;fill-rule:evenodd;stroke-width:0.625;stroke-linejoin:round"
       d="m 246.95794,158.34059 12.01847,4.41949 -12.01847,4.4195 c 1.92005,-2.60927 1.90899,-6.1792 0,-8.83899 z"
       id="path4308" />
    <path
       style="font-size:medium;font-style:normal;font-variant:normal;font-weight:normal;font-stretch:normal;text-indent:0;text-align:start;text-decoration:none;line-height:normal;letter-spacing:normal;word-spacing:normal;text-transform:none;direction:ltr;block-progression:tb;writing-mode:lr-tb;text-anchor:start;color:#000000;fill:#000000;fill-opacity:1;stroke:none;stroke-width:1px;marker:none;visibility:visible;display:inline;overflow:visible;enable-background:accumulate;font-family:Bitstream Charter;-inkscape-font-specification:Bitstream Charter"
       d="m 132.06075,153.98347 0,17.15625 1,0 0,-17.15625 -1,0 z"
       id="path4087" />
    <path
       style="font-size:medium;font-style:normal;font-variant:normal;font-weight:normal;font-stretch:normal;text-indent:0;text-align:start;text-decoration:none;line-height:normal;letter-spacing:normal;word-spacing:normal;text-transform:none;direction:ltr;block-progression:tb;writing-mode:lr-tb;text-anchor:start;color:#000000;fill:#000000;fill-opacity:1;stroke:none;stroke-width:1px;marker:none;visibility:visible;display:inline;overflow:visible;enable-background:accumulate;font-family:Bitstream Charter;-inkscape-font-specification:Bitstream Charter"
       d="m 198.06075,153.98347 0,17.15625 1,0 0,-17.15625 -1,0 z"
       id="path4091" />
    <path
       style="font-size:12px;font-style:normal;font-variant:normal;font-weight:normal;font-stretch:normal;fill:#000000;fill-opacity:1;stroke:none;font-family:DejaVu Sans;-inkscape-font-specification:DejaVu Sans"
       d="m 130.28681,174.51573 0,1.86329 2.22071,0 0,0.83789 -2.22071,0 0,3.5625 c 0,0.53515 0.0723,0.8789 0.2168,1.03125 0.14844,0.15234 0.44726,0.22851 0.89649,0.22851 l 1.10742,0 0,0.90235 -1.10742,0 c -0.83204,0 -1.40626,-0.1543 -1.72266,-0.4629 -0.31641,-0.31249 -0.47461,-0.8789 -0.47461,-1.69921 l 0,-3.5625 -0.79102,0 0,-0.83789 0.79102,0 0,-1.86329 1.08398,0"
       id="path4229" />
    <path
       style="font-size:8px;font-style:normal;font-variant:normal;font-weight:normal;font-stretch:normal;fill:#000000;fill-opacity:1;stroke:none;font-family:DejaVu Sans;-inkscape-font-specification:DejaVu Sans"
       d="m 134.21597,185.1798 1.28907,0 0,-4.44922 -1.40235,0.28125 0,-0.71875 1.39453,-0.28125 0.78907,0 0,5.16797 1.28906,0 0,0.66406 -3.35938,0 0,-0.66406"
       id="path4232" />
    <path
       style="font-size:12px;font-style:normal;font-variant:normal;font-weight:normal;font-stretch:normal;fill:#000000;fill-opacity:1;stroke:none;font-family:DejaVu Sans;-inkscape-font-specification:DejaVu Sans"
       d="m 196.28681,174.51573 0,1.86329 2.22071,0 0,0.83789 -2.22071,0 0,3.5625 c 0,0.53515 0.0723,0.8789 0.2168,1.03125 0.14844,0.15234 0.44726,0.22851 0.89649,0.22851 l 1.10742,0 0,0.90235 -1.10742,0 c -0.83204,0 -1.40626,-0.1543 -1.72266,-0.4629 -0.31641,-0.31249 -0.47461,-0.8789 -0.47461,-1.69921 l 0,-3.5625 -0.79102,0 0,-0.83789 0.79102,0 0,-1.86329 1.08398,0"
       id="path4235" />
    <path
       style="font-size:8px;font-style:normal;font-variant:normal;font-weight:normal;font-stretch:normal;fill:#000000;fill-opacity:1;stroke:none;font-family:DejaVu Sans;-inkscape-font-specification:DejaVu Sans"
       d="m 200.75895,185.1798 2.7539,0 0,0.66406 -3.70312,0 0,-0.66406 c 0.29948,-0.30989 0.70703,-0.72526 1.22266,-1.24609 0.51822,-0.52344 0.84374,-0.86068 0.97656,-1.01172 0.2526,-0.28385 0.42838,-0.52343 0.52734,-0.71875 0.10156,-0.19791 0.15234,-0.39192 0.15235,-0.58203 -1e-5,-0.30989 -0.10938,-0.5625 -0.32813,-0.75781 -0.21615,-0.19531 -0.4987,-0.29297 -0.84766,-0.29297 -0.24739,0 -0.50911,0.043 -0.78515,0.1289 -0.27344,0.0859 -0.56641,0.21615 -0.87891,0.39063 l 0,-0.79688 c 0.31771,-0.12759 0.61458,-0.22395 0.89063,-0.28906 0.27604,-0.0651 0.52864,-0.0976 0.75781,-0.0977 0.60416,1e-5 1.08593,0.15105 1.44531,0.45313 0.35937,0.30209 0.53906,0.70573 0.53906,1.21093 0,0.23959 -0.0456,0.46746 -0.13671,0.6836 -0.0885,0.21354 -0.25131,0.46615 -0.48829,0.75781 -0.0651,0.0755 -0.27213,0.29427 -0.62109,0.65625 -0.34896,0.35938 -0.84115,0.86328 -1.47656,1.51172"
       id="path4238" />
    <path
       style="font-size:medium;font-style:normal;font-variant:normal;font-weight:normal;font-stretch:normal;text-indent:0;text-align:start;text-decoration:none;line-height:normal;letter-spacing:normal;word-spacing:normal;text-transform:none;direction:ltr;block-progression:tb;writing-mode:lr-tb;text-anchor:start;color:#000000;fill:#000000;fill-opacity:1;stroke:none;stroke-width:1px;marker:none;visibility:visible;display:inline;overflow:visible;enable-background:accumulate;font-family:Bitstream Charter;-inkscape-font-specification:Bitstream Charter"
       d="m 256.125,31.09375 -1.46875,2.96875 -0.0312,0.0625 c -0.1116,0.168151 -28.30604,42.582966 -71.34375,68.53125 -21.56155,12.99988 -46.8212,21.84956 -74.125,19.1875 C 81.852447,119.18169 52.457646,105.0151 22.59375,71.875 l -0.75,0.6875 c 29.987646,33.27743 59.642858,47.59266 87.21875,50.28125 27.57589,2.68859 53.03315,-6.23782 74.71875,-19.3125 43.37121,-26.149357 71.6875,-68.90625 71.6875,-68.90625 l 0.0312,-0.03125 0,-0.03125 1.53125,-3.03125 -0.90625,-0.4375 z"
       id="path3612" />
    <path
       style="font-size:medium;font-style:normal;font-variant:normal;font-weight:normal;font-stretch:normal;text-indent:0;text-align:start;text-decoration:none;line-height:normal;letter-spacing:normal;word-spacing:normal;text-transform:none;direction:ltr;block-progression:tb;writing-mode:lr-tb;text-anchor:start;color:#000000;fill-opacity:1;fill-rule:nonzero;stroke:none;stroke-width:1;marker:none;visibility:visible;display:inline;overflow:visible;enable-background:accumulate;font-family:Bitstream Charter;-inkscape-font-specification:Bitstream Charter"
       d="m 132.84375,117.1875 c -2.22284,0 -4.03125,1.80841 -4.03125,4.03125 0,2.22284 1.80841,4.03125 4.03125,4.03125 2.22284,0 4.03125,-1.80841 4.03125,-4.03125 0,-2.22284 -1.80841,-4.03125 -4.03125,-4.03125 z"
       id="path3614"
       sodipodi:nodetypes="csssc" />
    <path
       style="font-size:medium;font-style:normal;font-variant:normal;font-weight:normal;font-stretch:normal;text-indent:0;text-align:start;text-decoration:none;line-height:normal;letter-spacing:normal;word-spacing:normal;text-transform:none;direction:ltr;block-progression:tb;writing-mode:lr-tb;text-anchor:start;color:#000000;fill-opacity:1;fill-rule:nonzero;stroke:none;stroke-width:1;marker:none;visibility:visible;display:inline;overflow:visible;enable-background:accumulate;font-family:Bitstream Charter;-inkscape-font-specification:Bitstream Charter"
       d="m 198.50367,88.903231 c -2.22284,0 -4.03125,1.80841 -4.03125,4.03125 0,2.22284 1.80841,4.03125 4.03125,4.03125 2.22284,0 4.03125,-1.80841 4.03125,-4.03125 0,-2.22284 -1.80841,-4.03125 -4.03125,-4.03125 z"
       id="path3614-7"
       sodipodi:nodetypes="csssc" />
    <g
       style="font-size:40px;font-style:normal;font-weight:normal;fill:#000000;fill-opacity:1;stroke:none;font-family:Bitstream Vera Sans"
       id="flowRoot3638">
      <path
         d="m 267.60937,21.531302 0,0.896485 -1.03125,0 c -0.38672,8e-6 -0.65625,0.07813 -0.80859,0.234375 -0.14844,0.156258 -0.22266,0.437507 -0.22266,0.84375 l 0,0.580078 1.7754,0 0,0.837891 -1.7754,0 0,6.123046 c 0,0.730468 -0.16992,1.261718 -0.50976,1.59375 -0.33985,0.335936 -0.87891,0.503904 -1.61719,0.503907 l -1.01953,0 0,-0.896485 1.03125,0 c 0.38672,-1e-6 0.6543,-0.07813 0.80273,-0.234375 0.15235,-0.156251 0.22852,-0.437501 0.22852,-0.84375 l 0,-6.246093 -1.03125,0 0,-0.837891 1.03125,0 0,-0.457031 c 0,-0.730461 0.16992,-1.261711 0.50977,-1.59375 0.33984,-0.335929 0.8789,-0.503897 1.61718,-0.503907 l 1.01953,0"
         style="font-size:12px;font-variant:normal;font-stretch:normal;font-family:DejaVu Sans;-inkscape-font-specification:DejaVu Sans"
         id="path3647" />
      <path
         d="m 271.0957,21.543021 c -0.52344,0.898446 -0.91211,1.787117 -1.16601,2.666016 -0.25391,0.878912 -0.38086,1.769536 -0.38086,2.671875 0,0.902346 0.12695,1.796877 0.38086,2.683594 0.25781,0.882812 0.64648,1.771483 1.16601,2.666015 l -0.9375,0 c -0.58594,-0.917969 -1.02539,-1.820312 -1.31836,-2.707031 -0.28906,-0.886717 -0.43359,-1.767575 -0.43359,-2.642578 0,-0.871089 0.14453,-1.748042 0.43359,-2.63086 0.28906,-0.882805 0.72852,-1.785148 1.31836,-2.707031 l 0.9375,0"
         style="font-size:12px;font-variant:normal;font-stretch:normal;font-family:DejaVu Sans;-inkscape-font-specification:DejaVu Sans"
         id="path3649" />
      <path
         d="m 274.25977,22.222709 0,1.863281 2.2207,0 0,0.837891 -2.2207,0 0,3.5625 c -10e-6,0.535157 0.0723,0.878907 0.21679,1.03125 0.14844,0.152344 0.44727,0.228516 0.89649,0.228515 l 1.10742,0 0,0.902344 -1.10742,0 c -0.83204,0 -1.40626,-0.154297 -1.72266,-0.462891 -0.31641,-0.312499 -0.47461,-0.878905 -0.47461,-1.699218 l 0,-3.5625 -0.79101,0 0,-0.837891 0.79101,0 0,-1.863281 1.08399,0"
         style="font-size:12px;font-variant:normal;font-stretch:normal;font-family:DejaVu Sans;-inkscape-font-specification:DejaVu Sans"
         id="path3651" />
      <path
         d="m 277.73437,21.543021 0.9375,0 c 0.58594,0.921883 1.02344,1.824226 1.3125,2.707031 0.29297,0.882818 0.43945,1.759771 0.43946,2.63086 -1e-5,0.875003 -0.14649,1.755861 -0.43946,2.642578 -0.28906,0.886719 -0.72656,1.789062 -1.3125,2.707031 l -0.9375,0 c 0.51953,-0.894532 0.90625,-1.783203 1.16016,-2.666015 0.25781,-0.886717 0.38672,-1.781248 0.38672,-2.683594 0,-0.902339 -0.12891,-1.792963 -0.38672,-2.671875 -0.25391,-0.878899 -0.64063,-1.76757 -1.16016,-2.666016"
         style="font-size:12px;font-variant:normal;font-stretch:normal;font-family:DejaVu Sans;-inkscape-font-specification:DejaVu Sans"
         id="path3653" />
    </g>
  </g>
</svg>
