<?xml version="1.0" encoding="UTF-8" standalone="no"?>
<!-- Created with Inkscape (http://www.inkscape.org/) -->

<svg
   xmlns:dc="http://purl.org/dc/elements/1.1/"
   xmlns:cc="http://creativecommons.org/ns#"
   xmlns:rdf="http://www.w3.org/1999/02/22-rdf-syntax-ns#"
   xmlns:svg="http://www.w3.org/2000/svg"
   xmlns="http://www.w3.org/2000/svg"
   xmlns:sodipodi="http://sodipodi.sourceforge.net/DTD/sodipodi-0.dtd"
   xmlns:inkscape="http://www.inkscape.org/namespaces/inkscape"
   width="230"
   height="230"
   id="svg2"
   version="1.1"
   inkscape:version="0.47 r22583"
   sodipodi:docname="2010-(11)nov-01 figur 5.svg">
  <defs
     id="defs4" />
  <sodipodi:namedview
     id="base"
     pagecolor="#ffffff"
     bordercolor="#666666"
     borderopacity="1.0"
     inkscape:pageopacity="0.0"
     inkscape:pageshadow="2"
     inkscape:zoom="2"
     inkscape:cx="60.728426"
     inkscape:cy="123.60902"
     inkscape:document-units="px"
     inkscape:current-layer="layer1"
     showgrid="false"
     inkscape:window-width="1589"
     inkscape:window-height="1117"
     inkscape:window-x="1600"
     inkscape:window-y="27"
     inkscape:window-maximized="1"
     showguides="true"
     inkscape:guide-bbox="true"
     inkscape:snap-midpoints="true" />
  <metadata
     id="metadata7">
    <rdf:RDF>
      <cc:Work
         rdf:about="">
        <dc:format>image/svg+xml</dc:format>
        <dc:type
           rdf:resource="http://purl.org/dc/dcmitype/StillImage" />
        <dc:title />
      </cc:Work>
    </rdf:RDF>
  </metadata>
  <g
     inkscape:label="Layer 1"
     inkscape:groupmode="layer"
     id="layer1">
    <path
       style="font-size:medium;font-style:normal;font-variant:normal;font-weight:normal;font-stretch:normal;text-indent:0;text-align:start;text-decoration:none;line-height:normal;letter-spacing:normal;word-spacing:normal;text-transform:none;direction:ltr;block-progression:tb;writing-mode:lr-tb;text-anchor:start;color:#000000;fill:#000000;fill-opacity:1;stroke:none;stroke-width:2.48269773;marker:none;visibility:visible;display:inline;overflow:visible;enable-background:accumulate;font-family:Bitstream Charter;-inkscape-font-specification:Bitstream Charter"
       d="M 90.874426,10.174855 C 29.449949,32.711078 -9.6213542,97.890651 3.9105789,155.93102 17.442514,213.97139 78.362371,242.50334 139.78685,219.96712 201.21133,197.43089 240.30666,132.20405 226.77473,74.163676 213.2428,16.123312 152.2989,-12.361368 90.874426,10.174855 z m 0.652606,2.79912 C 151.76413,-9.1266051 211.07343,18.847735 224.19117,75.111566 237.30891,131.3754 199.36308,195.03198 139.12598,217.13257 78.888891,239.23314 19.611877,211.24696 6.4941366,154.98313 -6.623603,98.719295 31.289942,35.074554 91.527032,12.973975 z"
       id="path2862" />
    <g
       transform="translate(8.156145,6.350235)"
       style="font-size:40px;font-style:normal;font-weight:normal;fill:#000000;fill-opacity:1;stroke:none;font-family:Bitstream Vera Sans"
       id="flowRoot3636">
      <path
         d="m 191.65039,203.85552 0,1.04297 -3.51562,0 0,-1.04297 c 0.6914,-0.3789 1.23046,-0.89258 1.61718,-1.54101 0.38671,-0.64844 0.58007,-1.36719 0.58008,-2.15625 -1e-5,-0.9375 -0.25782,-1.68945 -0.77344,-2.25586 -0.51563,-0.5664 -1.19531,-0.84961 -2.03906,-0.84961 -0.84375,0 -1.52539,0.28516 -2.04492,0.85547 -0.51563,0.56641 -0.77344,1.31641 -0.77344,2.25 0,0.78906 0.19336,1.50781 0.58008,2.15625 0.39062,0.64843 0.93359,1.16211 1.62891,1.54101 l 0,1.04297 -3.51563,0 0,-1.04297 1.86914,0 c -0.61719,-0.54297 -1.06836,-1.10547 -1.35351,-1.6875 -0.28125,-0.58203 -0.42188,-1.23242 -0.42188,-1.95117 0,-1.24218 0.375,-2.24804 1.125,-3.01758 0.74609,-0.76952 1.71484,-1.15429 2.90625,-1.1543 1.18359,1e-5 2.15234,0.38478 2.90625,1.1543 0.74999,0.76563 1.12499,1.75196 1.125,2.95899 -1e-5,0.75781 -0.13868,1.42578 -0.41601,2.0039 -0.27736,0.57813 -0.73048,1.14258 -1.35938,1.69336 l 1.875,0"
         style="font-size:12px;font-variant:normal;font-stretch:normal;font-family:DejaVu Sans;-inkscape-font-specification:DejaVu Sans"
         id="path3662" />
    </g>
    <path
       style="font-size:medium;font-style:normal;font-variant:normal;font-weight:normal;font-stretch:normal;text-indent:0;text-align:start;text-decoration:none;line-height:normal;letter-spacing:normal;word-spacing:normal;text-transform:none;direction:ltr;block-progression:tb;writing-mode:lr-tb;text-anchor:start;color:#000000;fill:#000000;fill-opacity:1;stroke:none;stroke-width:1px;marker:none;visibility:visible;display:inline;overflow:visible;enable-background:accumulate;font-family:Bitstream Charter;-inkscape-font-specification:Bitstream Charter"
       d="m 131.78125,3.625 -1.0625,0.34375 -65.5,20.34375 -0.625,0.21875 0.375,0.5625 L 98,73.4375 98.5,74.15625 98.875,73.375 131.3125,4.65625 131.78125,3.625 z m -1.84375,1.65625 -31.59375,66.875 -32.1875,-47.0625 63.78125,-19.8125 z"
       id="path3644" />
    <path
       style="font-size:medium;font-style:normal;font-variant:normal;font-weight:normal;font-stretch:normal;text-indent:0;text-align:start;text-decoration:none;line-height:normal;letter-spacing:normal;word-spacing:normal;text-transform:none;direction:ltr;block-progression:tb;writing-mode:lr-tb;text-anchor:start;color:#000000;fill:#000000;fill-opacity:1;stroke:none;stroke-width:1px;marker:none;visibility:visible;display:inline;overflow:visible;enable-background:accumulate;font-family:Bitstream Charter;-inkscape-font-specification:Bitstream Charter"
       d="m 131,3.96875 -0.3125,0.96875 61.90625,20.03125 -94.53125,48.25 0.4375,0.90625 95.59375,-48.8125 1.09375,-0.53125 -1.15625,-0.375 L 131,3.96875 z"
       id="path3646" />
    <path
       style="font-size:medium;font-style:normal;font-variant:normal;font-weight:normal;font-stretch:normal;text-indent:0;text-align:start;text-decoration:none;line-height:normal;letter-spacing:normal;word-spacing:normal;text-transform:none;direction:ltr;block-progression:tb;writing-mode:lr-tb;text-anchor:start;color:#000000;fill:#000000;fill-opacity:1;stroke:none;stroke-width:1px;marker:none;visibility:visible;display:inline;overflow:visible;enable-background:accumulate;font-family:Bitstream Charter;-inkscape-font-specification:Bitstream Charter"
       d="M 65.125,24.5625 27.09375,59.9375 26.375,60.625 27.34375,60.8125 98.375,74.125 l 46.8125,26.5 0.0312,0.0312 0.0625,0 78.28125,27.40625 0.65625,0.25 0,-0.6875 L 224.75,72.8125 225.40625,73 224.75,72 l 0,-0.5625 -0.3125,0.125 -30.1875,-46.78125 -0.84375,0.5625 29.6875,45.9375 -76.71875,-22.21875 -0.625,-0.15625 -0.0312,0.65625 -0.53125,49.90625 -46.4375,-26.25 -0.0625,-0.0625 -0.09375,0 L 28.53125,60 65.8125,25.28125 65.125,24.5625 z M 146.71875,50.21875 222.625,72.1875 146.1875,99.125 146.71875,50.21875 z m 77.03125,22.625 -0.53125,54.0625 L 146.5625,100.0625 223.75,72.84375 z"
       id="path3648" />
    <path
       style="font-size:medium;font-style:normal;font-variant:normal;font-weight:normal;font-stretch:normal;text-indent:0;text-align:start;text-decoration:none;line-height:normal;letter-spacing:normal;word-spacing:normal;text-transform:none;direction:ltr;block-progression:tb;writing-mode:lr-tb;text-anchor:start;color:#000000;fill:#000000;fill-opacity:1;stroke:none;stroke-width:1px;marker:none;visibility:visible;display:inline;overflow:visible;enable-background:accumulate;font-family:Bitstream Charter;-inkscape-font-specification:Bitstream Charter"
       d="M 27,60.125 10.5,89.90625 10.34375,89.875 10.25,90.34375 9.78125,91.1875 10.125,91.125 2.28125,132.15625 2.09375,133.25 3.03125,132.6875 53.21875,103.15625 51,149.96875 50.9375,151.125 51.8125,150.375 96.03125,113.28125 96.75,157.5 l 0,0.53125 L 97.28125,158 146.1875,155.03125 166.90625,204 l 0.28125,0.65625 0.53125,-0.46875 33.15625,-30.625 0.125,0.0625 0.0937,-0.25 0.0937,-0.15625 22.75,-45.5 0.5625,-1.09375 -1.15625,0.40625 -76.09375,26.53125 -1,-53.5625 0,-0.625 L 145.625,99.5 97.03125,111.84375 99,73.78125 99.03125,73.125 98.40625,73.25 11.71875,89.8125 27.875,60.625 27,60.125 z m 70.96875,14.25 -1.9375,37.21875 L 13.125,90.5625 97.96875,74.375 z M 11.15625,91.125 53.4375,101.84375 3.5,131.25 11.15625,91.125 z M 145.25,100.65625 146.21875,153.375 97.8125,112.6875 145.25,100.65625 z m -91,1.40625 41.1875,10.4375 -43.375,36.40625 2.1875,-46.625 0,-0.21875 z m 42.78125,11.25 48.46875,40.75 -47.75,2.90625 -0.71875,-43.65625 z m 125.5,15.0625 -22.03125,44.03125 -52.375,-18.125 74.40625,-25.90625 z m -75.25,26.65625 52.5,18.15625 -32.21875,29.75 -20.28125,-47.90625 z"
       id="path3650" />
    <path
       style="font-size:medium;font-style:normal;font-variant:normal;font-weight:normal;font-stretch:normal;text-indent:0;text-align:start;text-decoration:none;line-height:normal;letter-spacing:normal;word-spacing:normal;text-transform:none;direction:ltr;block-progression:tb;writing-mode:lr-tb;text-anchor:start;color:#000000;fill:#000000;fill-opacity:1;stroke:none;stroke-width:1px;marker:none;visibility:visible;display:inline;overflow:visible;enable-background:accumulate;font-family:Bitstream Charter;-inkscape-font-specification:Bitstream Charter"
       d="m 2.46875,131.71875 0.125,0.84375 5.5,33.65625 L 8.1875,166.8125 8.75,166.625 50.71875,151.03125 49.75,184 49.71875,184.875 50.5,184.4375 97,158.09375 l 28.9375,64.5625 0.1875,0.4375 0.46875,-0.1875 40.9375,-18.71875 0.84375,-0.375 -0.78125,-0.5 -69.9375,-46.25 -0.1875,-0.40625 -0.3125,0.1875 -45.375,-6.96875 0,-0.28125 L 51.25,149.78125 3.25,132 2.46875,131.71875 z M 3.71875,133.25 49.8125,150.3125 9,165.46875 3.71875,133.25 z m 48,17.65625 44.03125,6.75 -44.96875,25.46875 0.9375,-32.21875 z m 46.71875,7.84375 67.875,44.90625 -39.6875,18.125 L 98.4375,158.75 z"
       id="path3652" />
    <path
       style="font-size:medium;font-style:normal;font-variant:normal;font-weight:normal;font-stretch:normal;text-indent:0;text-align:start;text-decoration:none;line-height:normal;letter-spacing:normal;word-spacing:normal;text-transform:none;direction:ltr;block-progression:tb;writing-mode:lr-tb;text-anchor:start;color:#000000;fill:#000000;fill-opacity:1;stroke:none;stroke-width:1px;marker:none;visibility:visible;display:inline;overflow:visible;enable-background:accumulate;font-family:Bitstream Charter;-inkscape-font-specification:Bitstream Charter"
       d="m 8.6875,165.90625 -0.59375,0.75 27.875,38.875 0.8125,0 13.75,-21.25 -0.21875,-0.75 -41.625,-17.625 z m 1.25,1.625 L 49.375,184.25 36.34375,204.375 9.9375,167.53125 z"
       id="path3654" />
    <path
       style="font-size:medium;font-style:normal;font-variant:normal;font-weight:normal;font-stretch:normal;text-indent:0;text-align:start;text-decoration:none;line-height:normal;letter-spacing:normal;word-spacing:normal;text-transform:none;direction:ltr;block-progression:tb;writing-mode:lr-tb;text-anchor:start;color:#000000;fill:#000000;fill-opacity:1;stroke:none;stroke-width:1px;marker:none;visibility:visible;display:inline;overflow:visible;enable-background:accumulate;font-family:Bitstream Charter;-inkscape-font-specification:Bitstream Charter"
       d="m 50.21875,183.3125 -0.4375,0.875 L 123,221.09375 36.46875,204.875 l -0.1875,1 90,16.875 0.3125,-0.9375 -0.125,-0.0625 -76.25,-38.4375 z"
       id="path3656" />
    <path
       style="font-size:medium;font-style:normal;font-variant:normal;font-weight:normal;font-stretch:normal;text-indent:0;text-align:start;text-decoration:none;line-height:normal;letter-spacing:normal;word-spacing:normal;text-transform:none;direction:ltr;block-progression:tb;writing-mode:lr-tb;text-anchor:start;color:#000000;fill:#000000;fill-opacity:1;stroke:none;stroke-width:1px;marker:none;visibility:visible;display:inline;overflow:visible;enable-background:accumulate;font-family:Bitstream Charter;-inkscape-font-specification:Bitstream Charter"
       d="m 36.9375,205.03125 -0.375,0.9375 L 87.40625,226 l 0.09375,0.0312 0.125,0 38.15625,-3.15625 -0.0625,-1 -38.03125,3.15625 -50.75,-20 z"
       id="path3658" />
  </g>
</svg>
