<?xml version="1.0" encoding="UTF-8" standalone="no"?>
<!-- Created with Inkscape (http://www.inkscape.org/) -->

<svg
   xmlns:dc="http://purl.org/dc/elements/1.1/"
   xmlns:cc="http://creativecommons.org/ns#"
   xmlns:rdf="http://www.w3.org/1999/02/22-rdf-syntax-ns#"
   xmlns:svg="http://www.w3.org/2000/svg"
   xmlns="http://www.w3.org/2000/svg"
   xmlns:sodipodi="http://sodipodi.sourceforge.net/DTD/sodipodi-0.dtd"
   xmlns:inkscape="http://www.inkscape.org/namespaces/inkscape"
   width="200"
   height="100"
   id="svg2"
   version="1.1"
   inkscape:version="0.47 r22583"
   sodipodi:docname="2010-(11)nov-01 figur 7.svg">
  <defs
     id="defs4" />
  <sodipodi:namedview
     id="base"
     pagecolor="#ffffff"
     bordercolor="#666666"
     borderopacity="1.0"
     inkscape:pageopacity="0.0"
     inkscape:pageshadow="2"
     inkscape:zoom="2.4816667"
     inkscape:cx="56.801711"
     inkscape:cy="56.323481"
     inkscape:document-units="px"
     inkscape:current-layer="layer1"
     showgrid="false"
     inkscape:window-width="1589"
     inkscape:window-height="1117"
     inkscape:window-x="1600"
     inkscape:window-y="27"
     inkscape:window-maximized="1"
     showguides="true"
     inkscape:guide-bbox="true"
     inkscape:snap-midpoints="true" />
  <metadata
     id="metadata7">
    <rdf:RDF>
      <cc:Work
         rdf:about="">
        <dc:format>image/svg+xml</dc:format>
        <dc:type
           rdf:resource="http://purl.org/dc/dcmitype/StillImage" />
        <dc:title />
      </cc:Work>
    </rdf:RDF>
  </metadata>
  <g
     inkscape:label="Layer 1"
     inkscape:groupmode="layer"
     id="layer1">
    <path
       style="font-size:12px;font-style:normal;font-variant:normal;font-weight:normal;font-stretch:normal;fill:#000000;fill-opacity:1;stroke:none;font-family:DejaVu Sans;-inkscape-font-specification:DejaVu Sans"
       d="m 17.46875,86.5625 c -0.980471,9e-6 -1.730471,0.378914 -2.25,1.15625 -0.515626,0.773444 -0.781251,1.898443 -0.78125,3.375 -10e-7,1.472659 0.265624,2.597658 0.78125,3.375 0.519529,0.773437 1.269529,1.15625 2.25,1.15625 0.980464,0 1.734369,-0.382813 2.25,-1.15625 0.519524,-0.777342 0.781243,-1.902341 0.78125,-3.375 -7e-6,-1.476557 -0.261726,-2.601556 -0.78125,-3.375 -0.515631,-0.777336 -1.269536,-1.156241 -2.25,-1.15625 z m 0,0.9375 c 0.613277,8e-6 1.070308,0.304695 1.375,0.90625 0.308589,0.597662 0.468744,1.48438 0.46875,2.6875 -6e-6,1.199221 -0.160161,2.11719 -0.46875,2.71875 -0.304692,0.597658 -0.761723,0.875001 -1.375,0.875 -0.609378,10e-7 -1.066409,-0.277342 -1.375,-0.875 -0.30469,-0.60156 -0.468752,-1.519529 -0.46875,-2.71875 -2e-6,-1.20312 0.16406,-2.089838 0.46875,-2.6875 0.308591,-0.601555 0.765622,-0.906242 1.375,-0.90625 z"
       id="path4606" />
    <path
       style="font-size:medium;font-style:normal;font-variant:normal;font-weight:normal;font-stretch:normal;text-indent:0;text-align:start;text-decoration:none;line-height:normal;letter-spacing:normal;word-spacing:normal;text-transform:none;direction:ltr;block-progression:tb;writing-mode:lr-tb;text-anchor:start;color:#000000;fill:#000000;fill-opacity:1;stroke:none;stroke-width:1px;marker:none;visibility:visible;display:inline;overflow:visible;enable-background:accumulate;font-family:Bitstream Charter;-inkscape-font-specification:Bitstream Charter"
       d="m 7.25,77.375 0,1 183.75,0 0,-1 -183.75,0 z"
       id="path2862" />
    <path
       style="font-size:12px;fill-rule:evenodd;stroke-width:0.625;stroke-linejoin:round"
       d="m 180.31022,73.429916 12.01847,4.419494 -12.01847,4.419494 c 1.92005,-2.609267 1.90899,-6.179198 0,-8.838988 z"
       id="path4660" />
    <path
       style="font-size:medium;font-style:normal;font-variant:normal;font-weight:normal;font-stretch:normal;text-indent:0;text-align:start;text-decoration:none;line-height:normal;letter-spacing:normal;word-spacing:normal;text-transform:none;direction:ltr;block-progression:tb;writing-mode:lr-tb;text-anchor:start;color:#000000;fill:#000000;fill-opacity:1;stroke:none;stroke-width:1px;marker:none;visibility:visible;display:inline;overflow:visible;enable-background:accumulate;font-family:Bitstream Charter;-inkscape-font-specification:Bitstream Charter"
       d="m 17.09375,70.28125 0,14.96875 1,0 0,-14.96875 -1,0 z"
       id="path4452" />
    <path
       style="font-size:medium;font-style:normal;font-variant:normal;font-weight:normal;font-stretch:normal;text-indent:0;text-align:start;text-decoration:none;line-height:normal;letter-spacing:normal;word-spacing:normal;text-transform:none;direction:ltr;block-progression:tb;writing-mode:lr-tb;text-anchor:start;color:#000000;fill:#000000;fill-opacity:1;stroke:none;stroke-width:1px;marker:none;visibility:visible;display:inline;overflow:visible;enable-background:accumulate;font-family:Bitstream Charter;-inkscape-font-specification:Bitstream Charter"
       d="m 157.09375,70.28125 0,14.96875 1,0 0,-14.96875 -1,0 z"
       id="path4454" />
    <path
       style="font-size:12px;font-style:normal;font-variant:normal;font-weight:normal;font-stretch:normal;fill:#000000;fill-opacity:1;stroke:none;font-family:DejaVu Sans;-inkscape-font-specification:DejaVu Sans"
       d="m 160.24219,91.503347 0,3.960938 -1.07813,0 0,-3.925781 c 0,-0.62109 -0.1211,-1.085933 -0.36328,-1.394532 -0.24219,-0.308588 -0.60547,-0.462884 -1.08984,-0.46289 -0.58204,6e-6 -1.04102,0.185552 -1.37696,0.55664 -0.33594,0.371099 -0.5039,0.876958 -0.5039,1.517579 l 0,3.708984 -1.08399,0 0,-9.117188 1.08399,0 0,3.574219 c 0.25781,-0.394525 0.56054,-0.689447 0.9082,-0.884765 0.35156,-0.195306 0.75586,-0.292962 1.21289,-0.292969 0.7539,7e-6 1.32421,0.234381 1.71094,0.703125 0.38671,0.464849 0.58007,1.150395 0.58008,2.05664"
       id="path4609" />
    <path
       style="font-size:medium;font-style:normal;font-variant:normal;font-weight:normal;font-stretch:normal;text-indent:0;text-align:start;text-decoration:none;line-height:normal;letter-spacing:normal;word-spacing:normal;text-transform:none;direction:ltr;block-progression:tb;writing-mode:lr-tb;text-anchor:start;color:#000000;fill:#000000;fill-opacity:1;stroke:none;stroke-width:1px;marker:none;visibility:visible;display:inline;overflow:visible;enable-background:accumulate;font-family:Bitstream Charter;-inkscape-font-specification:Bitstream Charter"
       d="M 87.25,9.65625 C 85.78518,9.661602 84.306802,9.716057 82.8125,9.8125 62.888473,11.098412 40.430648,20.700328 17.34375,45.875 L 16.5625,46.75 17.71875,46.71875 157.75,45.3125 l 1.0625,0 L 158.125,44.5 c 0,0 -16.64925,-19.821764 -42.59375,-29.5625 C 107.01821,11.741321 97.503737,9.618786 87.25,9.65625 z m 0,0.96875 c 10.119952,-0.02645 19.51836,2.089076 27.9375,5.25 24.0385,9.025138 39.50989,26.22548 41.4375,28.4375 L 18.9375,45.71875 C 41.594711,21.36304 63.45109,12.017735 82.875,10.78125 84.349684,10.687375 85.804293,10.628779 87.25,10.625 z"
       id="path4757" />
    <path
       style="font-size:12px;font-style:normal;font-variant:normal;font-weight:normal;font-stretch:normal;fill:#000000;fill-opacity:1;stroke:none;font-family:DejaVu Sans;-inkscape-font-specification:DejaVu Sans"
       d="m 156.47304,9.516401 0,-3.972656 1.07813,0 0,3.931641 c -1e-5,0.621095 0.12109,1.087892 0.36328,1.40039 0.24218,0.308595 0.60546,0.462892 1.08984,0.462891 0.58203,1e-6 1.04101,-0.185546 1.37695,-0.556641 0.33984,-0.371092 0.50976,-0.876951 0.50977,-1.517578 l 0,-3.720703 1.07812,0 0,6.5625 -1.07812,0 0,-1.007813 c -0.26172,0.398439 -0.56641,0.695313 -0.91406,0.890625 -0.34376,0.191407 -0.74415,0.287108 -1.20117,0.287108 -0.75391,0 -1.32618,-0.234373 -1.7168,-0.703123 -0.39063,-0.468749 -0.58594,-1.154295 -0.58594,-2.056641"
       id="path4703" />
    <path
       style="font-size:12px;font-style:normal;font-variant:normal;font-weight:normal;font-stretch:normal;fill:#000000;fill-opacity:1;stroke:none;font-family:DejaVu Sans;-inkscape-font-specification:DejaVu Sans"
       d="m 159.18593,5.385542 0,0"
       id="path4612" />
    <path
       style="font-size:12px;font-style:normal;font-variant:normal;font-weight:normal;font-stretch:normal;fill:#000000;fill-opacity:1;stroke:none;font-family:DejaVu Sans;-inkscape-font-specification:DejaVu Sans"
       d="m 166.7914,3.000776 c -0.52344,0.898446 -0.91211,1.787117 -1.16602,2.666016 -0.2539,0.878912 -0.38086,1.769536 -0.38085,2.671875 -1e-5,0.902346 0.12695,1.796877 0.38085,2.683594 0.25781,0.882812 0.64649,1.771484 1.16602,2.666014 l -0.9375,0 c -0.58594,-0.91797 -1.02539,-1.820311 -1.31836,-2.70703 -0.28906,-0.886717 -0.43359,-1.767575 -0.43359,-2.642578 0,-0.871089 0.14453,-1.748042 0.43359,-2.63086 0.28906,-0.882805 0.72851,-1.785148 1.31836,-2.707031 l 0.9375,0"
       id="path4614" />
    <path
       style="font-size:12px;font-style:normal;font-variant:normal;font-weight:normal;font-stretch:normal;fill:#000000;fill-opacity:1;stroke:none;font-family:DejaVu Sans;-inkscape-font-specification:DejaVu Sans"
       d="m 174.34413,5.543745 -2.37304,3.193359 2.49609,3.369141 -1.27148,0 -1.91016,-2.578125 -1.91016,2.578125 -1.27148,0 2.54883,-3.433594 -2.33203,-3.128906 1.27148,0 1.74024,2.337891 1.74023,-2.337891 1.27148,0"
       id="path4616" />
    <path
       style="font-size:12px;font-style:normal;font-variant:normal;font-weight:normal;font-stretch:normal;fill:#000000;fill-opacity:1;stroke:none;font-family:DejaVu Sans;-inkscape-font-specification:DejaVu Sans"
       d="m 175.8207,3.000776 0.9375,0 c 0.58593,0.921883 1.02343,1.824226 1.3125,2.707031 0.29296,0.882818 0.43945,1.759771 0.43945,2.63086 0,0.875003 -0.14649,1.755861 -0.43945,2.642578 -0.28907,0.886719 -0.72657,1.78906 -1.3125,2.70703 l -0.9375,0 c 0.51953,-0.89453 0.90625,-1.783202 1.16015,-2.666014 0.25781,-0.886717 0.38672,-1.781248 0.38672,-2.683594 0,-0.902339 -0.12891,-1.792963 -0.38672,-2.671875 -0.2539,-0.878899 -0.64062,-1.76757 -1.16015,-2.666016"
       id="path4618" />
    <path
       style="font-size:12px;font-style:normal;font-variant:normal;font-weight:normal;font-stretch:normal;fill:#000000;fill-opacity:1;stroke:none;font-family:DejaVu Sans;-inkscape-font-specification:DejaVu Sans"
       d="m 165.47573,57.66751 0,-3.972656 1.07813,0 0,3.931641 c -10e-6,0.621095 0.12109,1.087892 0.36328,1.40039 0.24218,0.308595 0.60546,0.462892 1.08984,0.462891 0.58203,10e-7 1.04101,-0.185546 1.37695,-0.556641 0.33984,-0.371092 0.50976,-0.876951 0.50977,-1.517578 l 0,-3.720703 1.07812,0 0,6.5625 -1.07812,0 0,-1.007813 c -0.26172,0.398439 -0.56641,0.695313 -0.91406,0.890625 -0.34376,0.191407 -0.74415,0.287108 -1.20117,0.287108 -0.75391,0 -1.32618,-0.234373 -1.7168,-0.703123 -0.39063,-0.468749 -0.58594,-1.154295 -0.58594,-2.056641"
       id="path4693" />
    <path
       style="font-size:12px;font-style:normal;font-variant:normal;font-weight:normal;font-stretch:normal;fill:#000000;fill-opacity:1;stroke:none;font-family:DejaVu Sans;-inkscape-font-specification:DejaVu Sans"
       d="m 168.18862,53.536651 0,0"
       id="path4621" />
    <path
       style="font-size:12px;font-style:normal;font-variant:normal;font-weight:normal;font-stretch:normal;fill:#000000;fill-opacity:1;stroke:none;font-family:DejaVu Sans;-inkscape-font-specification:DejaVu Sans"
       d="m 179.6144,51.151885 c -0.52344,0.898446 -0.91211,1.787117 -1.16601,2.666016 -0.25391,0.878912 -0.38086,1.769536 -0.38086,2.671875 0,0.902346 0.12695,1.796877 0.38086,2.683594 0.25781,0.882812 0.64648,1.771484 1.16601,2.666014 l -0.9375,0 c -0.58594,-0.91797 -1.02539,-1.820311 -1.31836,-2.70703 -0.28906,-0.886717 -0.43359,-1.767575 -0.43359,-2.642578 0,-0.871089 0.14453,-1.748042 0.43359,-2.63086 0.28906,-0.882805 0.72852,-1.785148 1.31836,-2.707031 l 0.9375,0"
       id="path4623" />
    <path
       style="font-size:12px;font-style:normal;font-variant:normal;font-weight:normal;font-stretch:normal;fill:#000000;fill-opacity:1;stroke:none;font-family:DejaVu Sans;-inkscape-font-specification:DejaVu Sans"
       d="m 187.16714,53.694854 -2.37305,3.193359 2.49609,3.369141 -1.27148,0 -1.91016,-2.578125 -1.91015,2.578125 -1.27149,0 2.54883,-3.433594 -2.33203,-3.128906 1.27148,0 1.74024,2.337891 1.74023,-2.337891 1.27149,0"
       id="path4625" />
    <path
       style="font-size:12px;font-style:normal;font-variant:normal;font-weight:normal;font-stretch:normal;fill:#000000;fill-opacity:1;stroke:none;font-family:DejaVu Sans;-inkscape-font-specification:DejaVu Sans"
       d="m 188.6437,51.151885 0.9375,0 c 0.58593,0.921883 1.02343,1.824226 1.3125,2.707031 0.29296,0.882818 0.43945,1.759771 0.43945,2.63086 0,0.875003 -0.14649,1.755861 -0.43945,2.642578 -0.28907,0.886719 -0.72657,1.78906 -1.3125,2.70703 l -0.9375,0 c 0.51953,-0.89453 0.90625,-1.783202 1.16016,-2.666014 0.25781,-0.886717 0.38671,-1.781248 0.38671,-2.683594 0,-0.902339 -0.1289,-1.792963 -0.38671,-2.671875 -0.25391,-0.878899 -0.64063,-1.76757 -1.16016,-2.666016"
       id="path4627" />
    <path
       style="font-size:9px;font-style:normal;font-variant:normal;font-weight:normal;font-stretch:normal;fill:#000000;fill-opacity:1;stroke:none;font-family:DejaVu Sans;-inkscape-font-specification:DejaVu Sans"
       d="m 175.98403,61.137603 0,2.970703 -0.80859,0 0,-2.944335 c -1e-5,-0.465817 -0.0908,-0.81445 -0.27246,-1.045899 -0.18165,-0.231441 -0.45411,-0.347164 -0.81738,-0.347168 -0.43653,4e-6 -0.78077,0.139164 -1.03272,0.417481 -0.25195,0.278324 -0.37793,0.657718 -0.37793,1.138183 l 0,2.781738 -0.81299,0 0,-6.83789 0.81299,0 0,2.680664 c 0.19336,-0.295894 0.42041,-0.517085 0.68115,-0.663574 0.26367,-0.14648 0.56689,-0.219722 0.90967,-0.219727 0.56543,5e-6 0.99316,0.175786 1.2832,0.527344 0.29004,0.348637 0.43506,0.862796 0.43506,1.54248"
       id="path4630" />
    <path
       style="font-size:medium;font-style:normal;font-variant:normal;font-weight:normal;font-stretch:normal;text-indent:0;text-align:start;text-decoration:none;line-height:normal;letter-spacing:normal;word-spacing:normal;text-transform:none;direction:ltr;block-progression:tb;writing-mode:lr-tb;text-anchor:start;color:#000000;fill:#000000;fill-opacity:1;stroke:none;stroke-width:1;marker:none;visibility:visible;display:inline;overflow:visible;enable-background:accumulate;font-family:Bitstream Charter;-inkscape-font-specification:Bitstream Charter"
       d="m 122.53125,46.5625 0.6875,0.71875 0.71875,-0.6875 -0.65625,-0.71875 z"
       id="path4753" />
    <path
       style="font-size:medium;font-style:normal;font-variant:normal;font-weight:normal;font-stretch:normal;text-indent:0;text-align:start;text-decoration:none;line-height:normal;letter-spacing:normal;word-spacing:normal;text-transform:none;direction:ltr;block-progression:tb;writing-mode:lr-tb;text-anchor:start;color:#000000;fill:#000000;fill-opacity:1;stroke:none;stroke-width:1;marker:none;visibility:visible;display:inline;overflow:visible;enable-background:accumulate;font-family:Bitstream Charter;-inkscape-font-specification:Bitstream Charter"
       d="m 125.5,49.34375 0.5,0.40625 0.0312,0 0.3125,0.21875 0.5625,-0.84375 -0.28125,-0.1875 -0.0312,0 -0.46875,-0.375 z"
       id="path4751" />
    <path
       style="font-size:medium;font-style:normal;font-variant:normal;font-weight:normal;font-stretch:normal;text-indent:0;text-align:start;text-decoration:none;line-height:normal;letter-spacing:normal;word-spacing:normal;text-transform:none;direction:ltr;block-progression:tb;writing-mode:lr-tb;text-anchor:start;color:#000000;fill:#000000;fill-opacity:1;stroke:none;stroke-width:1;marker:none;visibility:visible;display:inline;overflow:visible;enable-background:accumulate;font-family:Bitstream Charter;-inkscape-font-specification:Bitstream Charter"
       d="m 128.90625,51.59375 0.90625,0.46875 0.46875,-0.875 -0.90625,-0.46875 z"
       id="path4749" />
    <path
       style="font-size:medium;font-style:normal;font-variant:normal;font-weight:normal;font-stretch:normal;text-indent:0;text-align:start;text-decoration:none;line-height:normal;letter-spacing:normal;word-spacing:normal;text-transform:none;direction:ltr;block-progression:tb;writing-mode:lr-tb;text-anchor:start;color:#000000;fill:#000000;fill-opacity:1;stroke:none;stroke-width:1;marker:none;visibility:visible;display:inline;overflow:visible;enable-background:accumulate;font-family:Bitstream Charter;-inkscape-font-specification:Bitstream Charter"
       d="m 132.5625,53.34375 0.78125,0.34375 0.0312,0 0.125,0.0625 0.34375,-0.9375 -0.0937,-0.0625 -0.0312,0 -0.78125,-0.3125 z"
       id="path4747" />
    <path
       style="font-size:medium;font-style:normal;font-variant:normal;font-weight:normal;font-stretch:normal;text-indent:0;text-align:start;text-decoration:none;line-height:normal;letter-spacing:normal;word-spacing:normal;text-transform:none;direction:ltr;block-progression:tb;writing-mode:lr-tb;text-anchor:start;color:#000000;fill:#000000;fill-opacity:1;stroke:none;stroke-width:1;marker:none;visibility:visible;display:inline;overflow:visible;enable-background:accumulate;font-family:Bitstream Charter;-inkscape-font-specification:Bitstream Charter"
       d="m 136.34375,54.75 0.25,0.09375 0.0312,0 0.6875,0.1875 0.28125,-0.9375 -0.6875,-0.21875 -0.25,-0.09375 z"
       id="path4745" />
    <path
       style="font-size:medium;font-style:normal;font-variant:normal;font-weight:normal;font-stretch:normal;text-indent:0;text-align:start;text-decoration:none;line-height:normal;letter-spacing:normal;word-spacing:normal;text-transform:none;direction:ltr;block-progression:tb;writing-mode:lr-tb;text-anchor:start;color:#000000;fill:#000000;fill-opacity:1;stroke:none;stroke-width:1;marker:none;visibility:visible;display:inline;overflow:visible;enable-background:accumulate;font-family:Bitstream Charter;-inkscape-font-specification:Bitstream Charter"
       d="m 140.25,55.84375 0.96875,0.21875 0.21875,-0.96875 -0.96875,-0.21875 z"
       id="path4743" />
    <path
       style="font-size:medium;font-style:normal;font-variant:normal;font-weight:normal;font-stretch:normal;text-indent:0;text-align:start;text-decoration:none;line-height:normal;letter-spacing:normal;word-spacing:normal;text-transform:none;direction:ltr;block-progression:tb;writing-mode:lr-tb;text-anchor:start;color:#000000;fill:#000000;fill-opacity:1;stroke:none;stroke-width:1;marker:none;visibility:visible;display:inline;overflow:visible;enable-background:accumulate;font-family:Bitstream Charter;-inkscape-font-specification:Bitstream Charter"
       d="m 144.1875,56.6875 0.96875,0.1875 0.1875,-1 -1,-0.15625 z"
       id="path4741" />
    <path
       style="font-size:medium;font-style:normal;font-variant:normal;font-weight:normal;font-stretch:normal;text-indent:0;text-align:start;text-decoration:none;line-height:normal;letter-spacing:normal;word-spacing:normal;text-transform:none;direction:ltr;block-progression:tb;writing-mode:lr-tb;text-anchor:start;color:#000000;fill:#000000;fill-opacity:1;stroke:none;stroke-width:1;marker:none;visibility:visible;display:inline;overflow:visible;enable-background:accumulate;font-family:Bitstream Charter;-inkscape-font-specification:Bitstream Charter"
       d="m 148.125,57.34375 1,0.125 0.15625,-0.96875 -1,-0.15625 z"
       id="path4739" />
    <path
       style="font-size:medium;font-style:normal;font-variant:normal;font-weight:normal;font-stretch:normal;text-indent:0;text-align:start;text-decoration:none;line-height:normal;letter-spacing:normal;word-spacing:normal;text-transform:none;direction:ltr;block-progression:tb;writing-mode:lr-tb;text-anchor:start;color:#000000;fill:#000000;fill-opacity:1;stroke:none;stroke-width:1;marker:none;visibility:visible;display:inline;overflow:visible;enable-background:accumulate;font-family:Bitstream Charter;-inkscape-font-specification:Bitstream Charter"
       d="m 152.125,57.8125 0.5625,0.0625 0.4375,0.03125 0.0937,-1 -0.4375,-0.03125 -0.5625,-0.0625 z"
       id="path4737" />
    <path
       style="font-size:medium;font-style:normal;font-variant:normal;font-weight:normal;font-stretch:normal;text-indent:0;text-align:start;text-decoration:none;line-height:normal;letter-spacing:normal;word-spacing:normal;text-transform:none;direction:ltr;block-progression:tb;writing-mode:lr-tb;text-anchor:start;color:#000000;fill:#000000;fill-opacity:1;stroke:none;stroke-width:1;marker:none;visibility:visible;display:inline;overflow:visible;enable-background:accumulate;font-family:Bitstream Charter;-inkscape-font-specification:Bitstream Charter"
       d="m 156.125,58.125 1,0.0625 0.0625,-1 -1,-0.0625 z"
       id="path4735" />
    <path
       style="font-size:medium;font-style:normal;font-variant:normal;font-weight:normal;font-stretch:normal;text-indent:0;text-align:start;text-decoration:none;line-height:normal;letter-spacing:normal;word-spacing:normal;text-transform:none;direction:ltr;block-progression:tb;writing-mode:lr-tb;text-anchor:start;color:#000000;fill:#000000;fill-opacity:1;stroke:none;stroke-width:1;marker:none;visibility:visible;display:inline;overflow:visible;enable-background:accumulate;font-family:Bitstream Charter;-inkscape-font-specification:Bitstream Charter"
       d="m 160.15625,58.28125 1,0.03125 0.0312,-1 -1,-0.03125 z"
       id="path4567" />
    <path
       style="font-size:medium;font-style:normal;font-variant:normal;font-weight:normal;font-stretch:normal;text-indent:0;text-align:start;text-decoration:none;line-height:normal;letter-spacing:normal;word-spacing:normal;text-transform:none;direction:ltr;block-progression:tb;writing-mode:lr-tb;text-anchor:start;color:#000000;fill:#000000;fill-opacity:1;stroke:none;stroke-width:1;marker:none;visibility:visible;display:inline;overflow:visible;enable-background:accumulate;font-family:Bitstream Charter;-inkscape-font-specification:Bitstream Charter"
       d="m 147.4375,8.65625 1,0.03125 0.0312,-1 -1,-0.03125 z"
       id="path4731" />
    <path
       style="font-size:medium;font-style:normal;font-variant:normal;font-weight:normal;font-stretch:normal;text-indent:0;text-align:start;text-decoration:none;line-height:normal;letter-spacing:normal;word-spacing:normal;text-transform:none;direction:ltr;block-progression:tb;writing-mode:lr-tb;text-anchor:start;color:#000000;fill:#000000;fill-opacity:1;stroke:none;stroke-width:1;marker:none;visibility:visible;display:inline;overflow:visible;enable-background:accumulate;font-family:Bitstream Charter;-inkscape-font-specification:Bitstream Charter"
       d="m 143.46875,8.6875 1,0 -0.0312,-1 -1,0 z"
       id="path4729" />
    <path
       style="font-size:medium;font-style:normal;font-variant:normal;font-weight:normal;font-stretch:normal;text-indent:0;text-align:start;text-decoration:none;line-height:normal;letter-spacing:normal;word-spacing:normal;text-transform:none;direction:ltr;block-progression:tb;writing-mode:lr-tb;text-anchor:start;color:#000000;fill:#000000;fill-opacity:1;stroke:none;stroke-width:1;marker:none;visibility:visible;display:inline;overflow:visible;enable-background:accumulate;font-family:Bitstream Charter;-inkscape-font-specification:Bitstream Charter"
       d="m 139.4375,7.84375 0.0312,1 1,-0.0625 -0.0312,-1 z"
       id="path4727" />
    <path
       style="font-size:medium;font-style:normal;font-variant:normal;font-weight:normal;font-stretch:normal;text-indent:0;text-align:start;text-decoration:none;line-height:normal;letter-spacing:normal;word-spacing:normal;text-transform:none;direction:ltr;block-progression:tb;writing-mode:lr-tb;text-anchor:start;color:#000000;fill:#000000;fill-opacity:1;stroke:none;stroke-width:1;marker:none;visibility:visible;display:inline;overflow:visible;enable-background:accumulate;font-family:Bitstream Charter;-inkscape-font-specification:Bitstream Charter"
       d="m 136.0625,8.0625 -0.65625,0.0625 0.125,1 0.59375,-0.0625 0.0312,0 0.34375,-0.03125 -0.0625,-1 z"
       id="path4725" />
    <path
       style="font-size:medium;font-style:normal;font-variant:normal;font-weight:normal;font-stretch:normal;text-indent:0;text-align:start;text-decoration:none;line-height:normal;letter-spacing:normal;word-spacing:normal;text-transform:none;direction:ltr;block-progression:tb;writing-mode:lr-tb;text-anchor:start;color:#000000;fill:#000000;fill-opacity:1;stroke:none;stroke-width:1;marker:none;visibility:visible;display:inline;overflow:visible;enable-background:accumulate;font-family:Bitstream Charter;-inkscape-font-specification:Bitstream Charter"
       d="m 131.4375,8.59375 0.125,1 1,-0.15625 -0.15625,-1 z"
       id="path4723" />
    <path
       style="font-size:medium;font-style:normal;font-variant:normal;font-weight:normal;font-stretch:normal;text-indent:0;text-align:start;text-decoration:none;line-height:normal;letter-spacing:normal;word-spacing:normal;text-transform:none;direction:ltr;block-progression:tb;writing-mode:lr-tb;text-anchor:start;color:#000000;fill:#000000;fill-opacity:1;stroke:none;stroke-width:1;marker:none;visibility:visible;display:inline;overflow:visible;enable-background:accumulate;font-family:Bitstream Charter;-inkscape-font-specification:Bitstream Charter"
       d="m 127.46875,9.28125 0.1875,0.96875 0.96875,-0.1875 -0.1875,-0.96875 z"
       id="path4721" />
    <path
       style="font-size:medium;font-style:normal;font-variant:normal;font-weight:normal;font-stretch:normal;text-indent:0;text-align:start;text-decoration:none;line-height:normal;letter-spacing:normal;word-spacing:normal;text-transform:none;direction:ltr;block-progression:tb;writing-mode:lr-tb;text-anchor:start;color:#000000;fill:#000000;fill-opacity:1;stroke:none;stroke-width:1;marker:none;visibility:visible;display:inline;overflow:visible;enable-background:accumulate;font-family:Bitstream Charter;-inkscape-font-specification:Bitstream Charter"
       d="m 124.4375,10.03125 -0.90625,0.28125 0.3125,0.9375 0.90625,-0.28125 0.0312,0 L 124.5,10 l -0.0312,0 z"
       id="path4719" />
    <path
       style="font-size:medium;font-style:normal;font-variant:normal;font-weight:normal;font-stretch:normal;text-indent:0;text-align:start;text-decoration:none;line-height:normal;letter-spacing:normal;word-spacing:normal;text-transform:none;direction:ltr;block-progression:tb;writing-mode:lr-tb;text-anchor:start;color:#000000;fill:#000000;fill-opacity:1;stroke:none;stroke-width:1;marker:none;visibility:visible;display:inline;overflow:visible;enable-background:accumulate;font-family:Bitstream Charter;-inkscape-font-specification:Bitstream Charter"
       d="m 119.8125,11.90625 -0.0312,0.03125 -0.0312,0 0.28125,0.40625 0.0625,0.15625 0.15625,0.3125 0.0312,-0.03125 0.0312,0 0.84375,-0.4375 -0.46875,-0.875 z"
       id="path4717" />
    <path
       style="font-size:medium;font-style:normal;font-variant:normal;font-weight:normal;font-stretch:normal;text-indent:0;text-align:start;text-decoration:none;line-height:normal;letter-spacing:normal;word-spacing:normal;text-transform:none;direction:ltr;block-progression:tb;writing-mode:lr-tb;text-anchor:start;color:#000000;fill:#000000;fill-opacity:1;stroke:none;stroke-width:1;marker:none;visibility:visible;display:inline;overflow:visible;enable-background:accumulate;font-family:Bitstream Charter;-inkscape-font-specification:Bitstream Charter"
       d="m 117.25,13.90625 0,0.03125 -0.0312,0 -0.5625,0.75 0.8125,0.59375 0.5625,-0.71875 -0.71875,-0.71875 z"
       id="path4569" />
    <path
       style="font-size:medium;font-style:normal;font-variant:normal;font-weight:normal;font-stretch:normal;text-indent:0;text-align:start;text-decoration:none;line-height:normal;letter-spacing:normal;word-spacing:normal;text-transform:none;direction:ltr;block-progression:tb;writing-mode:lr-tb;text-anchor:start;color:#000000;fill:#000000;fill-opacity:1;stroke:none;stroke-width:1;marker:none;visibility:visible;display:inline;overflow:visible;enable-background:accumulate;font-family:Bitstream Charter;-inkscape-font-specification:Bitstream Charter"
       d="m 17.65625,43.5 c -1.607811,0 -2.90625,1.329688 -2.90625,2.9375 0,1.607812 1.298439,2.90625 2.90625,2.90625 1.607812,0 2.9375,-1.298438 2.9375,-2.90625 0,-1.607812 -1.329688,-2.9375 -2.9375,-2.9375 z m 0,1 c 1.067372,0 1.9375,0.870128 1.9375,1.9375 0,1.067372 -0.870128,1.90625 -1.9375,1.90625 -1.067371,0 -1.90625,-0.838878 -1.90625,-1.90625 0,-1.067372 0.838879,-1.9375 1.90625,-1.9375 z"
       id="path4765" />
    <path
       style="font-size:medium;font-style:normal;font-variant:normal;font-weight:normal;font-stretch:normal;text-indent:0;text-align:start;text-decoration:none;line-height:normal;letter-spacing:normal;word-spacing:normal;text-transform:none;direction:ltr;block-progression:tb;writing-mode:lr-tb;text-anchor:start;color:#000000;fill:#000000;fill-opacity:1;stroke:none;stroke-width:1;marker:none;visibility:visible;display:inline;overflow:visible;enable-background:accumulate;font-family:Bitstream Charter;-inkscape-font-specification:Bitstream Charter"
       d="m 157.53125,41.875 c -1.60781,0 -2.90625,1.329688 -2.90625,2.9375 0,1.607812 1.29844,2.90625 2.90625,2.90625 1.60781,0 2.9375,-1.298438 2.9375,-2.90625 0,-1.607812 -1.32969,-2.9375 -2.9375,-2.9375 z m 0,1 c 1.06737,0 1.9375,0.870128 1.9375,1.9375 0,1.067372 -0.87013,1.90625 -1.9375,1.90625 -1.06737,0 -1.90625,-0.838878 -1.90625,-1.90625 0,-1.067372 0.83888,-1.9375 1.90625,-1.9375 z"
       id="path4769" />
  </g>
</svg>
