<?xml version="1.0" encoding="UTF-8" standalone="no"?>
<!-- Created with Inkscape (http://www.inkscape.org/) -->

<svg
   xmlns:dc="http://purl.org/dc/elements/1.1/"
   xmlns:cc="http://creativecommons.org/ns#"
   xmlns:rdf="http://www.w3.org/1999/02/22-rdf-syntax-ns#"
   xmlns:svg="http://www.w3.org/2000/svg"
   xmlns="http://www.w3.org/2000/svg"
   xmlns:sodipodi="http://sodipodi.sourceforge.net/DTD/sodipodi-0.dtd"
   xmlns:inkscape="http://www.inkscape.org/namespaces/inkscape"
   width="285"
   height="100"
   id="svg2"
   version="1.1"
   inkscape:version="0.47 r22583"
   sodipodi:docname="2010-(11)nov-15 figur 1.svg">
  <defs
     id="defs4" />
  <sodipodi:namedview
     id="base"
     pagecolor="#ffffff"
     bordercolor="#666666"
     borderopacity="1.0"
     inkscape:pageopacity="0.0"
     inkscape:pageshadow="2"
     inkscape:zoom="1.4142136"
     inkscape:cx="217.84457"
     inkscape:cy="-2.5841021"
     inkscape:document-units="px"
     inkscape:current-layer="layer1"
     showgrid="false"
     inkscape:window-width="1589"
     inkscape:window-height="1117"
     inkscape:window-x="1600"
     inkscape:window-y="27"
     inkscape:window-maximized="1"
     showguides="true"
     inkscape:guide-bbox="true"
     inkscape:snap-midpoints="true"
     inkscape:snap-global="false" />
  <metadata
     id="metadata7">
    <rdf:RDF>
      <cc:Work
         rdf:about="">
        <dc:format>image/svg+xml</dc:format>
        <dc:type
           rdf:resource="http://purl.org/dc/dcmitype/StillImage" />
        <dc:title />
      </cc:Work>
    </rdf:RDF>
  </metadata>
  <g
     inkscape:label="Layer 1"
     inkscape:groupmode="layer"
     id="layer1">
    <path
       style="font-size:medium;font-style:normal;font-variant:normal;font-weight:normal;font-stretch:normal;text-indent:0;text-align:start;text-decoration:none;line-height:normal;letter-spacing:normal;word-spacing:normal;text-transform:none;direction:ltr;block-progression:tb;writing-mode:lr-tb;text-anchor:start;color:#000000;fill:#000000;fill-opacity:1;stroke:none;stroke-width:1px;marker:none;visibility:visible;display:inline;overflow:visible;enable-background:accumulate;font-family:Andale Mono;-inkscape-font-specification:Andale Mono"
       d="m 3.875,50.96875 0,1 277.1875,0 0,-1 -277.1875,0 z"
       id="path2866" />
    <path
       style="font-size:12px;fill-rule:evenodd;stroke-width:0.625;stroke-linejoin:round"
       d="m 270.3845,47.021999 12.01847,4.419494 -12.01847,4.419494 c 1.92005,-2.609267 1.90899,-6.179198 0,-8.838988 z"
       id="path4620" />
    <path
       style="font-size:medium;font-style:normal;font-variant:normal;font-weight:normal;font-stretch:normal;text-indent:0;text-align:start;text-decoration:none;line-height:normal;letter-spacing:normal;word-spacing:normal;text-transform:none;direction:ltr;block-progression:tb;writing-mode:lr-tb;text-anchor:start;color:#000000;fill:#000000;fill-opacity:1;stroke:none;stroke-width:0.99994224;marker:none;visibility:visible;display:inline;overflow:visible;enable-background:accumulate;font-family:Andale Mono;-inkscape-font-specification:Andale Mono"
       d="m 26,44.4375 0,14 1,0 0,-14 -1,0 z"
       id="path4090" />
    <path
       style="font-size:medium;font-style:normal;font-variant:normal;font-weight:normal;font-stretch:normal;text-indent:0;text-align:start;text-decoration:none;line-height:normal;letter-spacing:normal;word-spacing:normal;text-transform:none;direction:ltr;block-progression:tb;writing-mode:lr-tb;text-anchor:start;color:#000000;fill:#000000;fill-opacity:1;stroke:none;stroke-width:0.99994224;marker:none;visibility:visible;display:inline;overflow:visible;enable-background:accumulate;font-family:Andale Mono;-inkscape-font-specification:Andale Mono"
       d="m 66,44.4375 0,14 1,0 0,-14 -1,0 z"
       id="path4092" />
    <path
       style="font-size:medium;font-style:normal;font-variant:normal;font-weight:normal;font-stretch:normal;text-indent:0;text-align:start;text-decoration:none;line-height:normal;letter-spacing:normal;word-spacing:normal;text-transform:none;direction:ltr;block-progression:tb;writing-mode:lr-tb;text-anchor:start;color:#000000;fill:#000000;fill-opacity:1;stroke:none;stroke-width:0.99994224;marker:none;visibility:visible;display:inline;overflow:visible;enable-background:accumulate;font-family:Andale Mono;-inkscape-font-specification:Andale Mono"
       d="m 200,44.4375 0,14 1,0 0,-14 -1,0 z"
       id="path4094" />
    <path
       style="font-size:medium;font-style:normal;font-variant:normal;font-weight:normal;font-stretch:normal;text-indent:0;text-align:start;text-decoration:none;line-height:normal;letter-spacing:normal;word-spacing:normal;text-transform:none;direction:ltr;block-progression:tb;writing-mode:lr-tb;text-anchor:start;color:#000000;fill:#000000;fill-opacity:1;stroke:none;stroke-width:0.99994224;marker:none;visibility:visible;display:inline;overflow:visible;enable-background:accumulate;font-family:Andale Mono;-inkscape-font-specification:Andale Mono"
       d="m 240,44.4375 0,14 1,0 0,-14 -1,0 z"
       id="path4096" />
    <path
       style="font-size:medium;font-style:normal;font-variant:normal;font-weight:normal;font-stretch:normal;text-indent:0;text-align:start;text-decoration:none;line-height:normal;letter-spacing:normal;word-spacing:normal;text-transform:none;direction:ltr;block-progression:tb;writing-mode:lr-tb;text-anchor:start;color:#000000;fill:#000000;fill-opacity:1;stroke:none;stroke-width:3;marker:none;visibility:visible;display:inline;overflow:visible;enable-background:accumulate;font-family:Andale Mono;-inkscape-font-specification:Andale Mono"
       d="m 66.46875,49.96875 0,3 134,0 0,-3 -134,0 z"
       id="path4098" />
    <path
       style="font-size:medium;font-style:normal;font-variant:normal;font-weight:normal;font-stretch:normal;text-indent:0;text-align:start;text-decoration:none;line-height:normal;letter-spacing:normal;word-spacing:normal;text-transform:none;direction:ltr;block-progression:tb;writing-mode:lr-tb;text-anchor:start;color:#000000;fill:#000000;fill-opacity:1;stroke:none;stroke-width:1px;marker:none;visibility:visible;display:inline;overflow:visible;enable-background:accumulate;font-family:Andale Mono;-inkscape-font-specification:Andale Mono"
       d="M 122.9375,5.15625 C 92.685447,6.5087319 59.172609,15.600606 25.65625,39.25 l 0.5625,0.8125 c 106.74765,-75.321939 213.4375,-2.46875 213.4375,-2.46875 l 0.5625,-0.84375 c 0,0 -50.72673,-34.5692101 -117.28125,-31.59375 z"
       id="path4284" />
    <path
       style="fill-rule:evenodd;stroke:#000000;stroke-width:0.4pt;marker-start:none;marker-end:none"
       d="m 241.54802,38.270085 c -0.62219,0.911974 -1.86731,1.147163 -2.77929,0.524975 -0.91197,-0.622188 -1.14716,-1.867306 -0.52497,-2.779281 0.62219,-0.911974 1.86731,-1.147163 2.77928,-0.524975 0.91197,0.622188 1.14716,1.867306 0.52498,2.779281 z"
       id="path4592" />
    <path
       style="font-size:12px;font-style:normal;font-variant:normal;font-weight:normal;font-stretch:normal;text-align:start;line-height:125%;writing-mode:lr-tb;text-anchor:start;fill:#000000;fill-opacity:1;stroke:none;font-family:DejaVu Sans;-inkscape-font-specification:DejaVu Sans"
       d="m 24.514869,66.665528 0,3.960938 -1.078125,0 0,-3.925781 c -5e-6,-0.62109 -0.121099,-1.085933 -0.363281,-1.394532 -0.242192,-0.308588 -0.605473,-0.462884 -1.089844,-0.46289 -0.582034,6e-6 -1.041018,0.185552 -1.376953,0.55664 -0.335939,0.371099 -0.503908,0.876958 -0.503906,1.517579 l 0,3.708984 -1.083984,0 0,-6.5625 1.083984,0 0,1.019531 c 0.25781,-0.394525 0.560544,-0.689447 0.908203,-0.884765 0.351559,-0.195306 0.755856,-0.292962 1.212891,-0.292969 0.753901,7e-6 1.324213,0.234381 1.710937,0.703125 0.386713,0.464849 0.580072,1.150395 0.580078,2.05664"
       id="path4557" />
    <path
       style="font-size:12px;font-style:normal;font-variant:normal;font-weight:normal;font-stretch:normal;text-align:start;line-height:125%;writing-mode:lr-tb;text-anchor:start;fill:#000000;fill-opacity:1;stroke:none;font-family:DejaVu Sans;-inkscape-font-specification:DejaVu Sans"
       d="m 26.635963,61.509278 1.083985,0 0,5.384766 3.216796,-2.830078 1.376954,0 -3.480469,3.070312 3.626953,3.492188 -1.40625,0 -3.333984,-3.205078 0,3.205078 -1.083985,0 0,-9.117188"
       id="path4559" />
    <path
       style="font-size:12px;font-style:normal;font-variant:normal;font-weight:normal;font-stretch:normal;text-align:start;line-height:125%;writing-mode:lr-tb;text-anchor:start;fill:#000000;fill-opacity:1;stroke:none;font-family:DejaVu Sans;-inkscape-font-specification:DejaVu Sans"
       d="m 65.626198,62.200685 0,1.863281 2.220703,0 0,0.837891 -2.220703,0 0,3.5625 c -3e-6,0.535157 0.07226,0.878907 0.216796,1.03125 0.148435,0.152344 0.447263,0.228516 0.896485,0.228515 l 1.107422,0 0,0.902344 -1.107422,0 c -0.832034,0 -1.406252,-0.154297 -1.722656,-0.462891 -0.316408,-0.312499 -0.474611,-0.878905 -0.47461,-1.699218 l 0,-3.5625 -0.791015,0 0,-0.837891 0.791015,0 0,-1.863281 1.083985,0"
       id="path4562" />
    <path
       style="font-size:12px;font-style:normal;font-variant:normal;font-weight:normal;font-stretch:normal;text-align:start;line-height:125%;writing-mode:lr-tb;text-anchor:start;fill:#000000;fill-opacity:1;stroke:none;font-family:DejaVu Sans;-inkscape-font-specification:DejaVu Sans"
       d="m 202.24338,64.257325 0,1.019532 c -0.30469,-0.156245 -0.6211,-0.273432 -0.94922,-0.351563 -0.32813,-0.07812 -0.66797,-0.117182 -1.01953,-0.117187 -0.53516,5e-6 -0.9375,0.08204 -1.20703,0.246093 -0.26563,0.164068 -0.39844,0.410162 -0.39844,0.738282 0,0.250004 0.0957,0.44727 0.28711,0.591796 0.19141,0.14063 0.57617,0.275395 1.1543,0.404297 l 0.36914,0.08203 c 0.76562,0.164066 1.30859,0.396487 1.62891,0.697265 0.32421,0.296878 0.48632,0.712893 0.48633,1.248047 -1e-5,0.609376 -0.2422,1.091798 -0.72657,1.447266 -0.48047,0.355468 -1.14258,0.533203 -1.98633,0.533203 -0.35156,0 -0.71875,-0.03516 -1.10156,-0.105469 -0.37891,-0.06641 -0.77929,-0.167969 -1.20117,-0.304687 l 0,-1.113282 c 0.39844,0.207033 0.79101,0.363283 1.17773,0.46875 0.38672,0.101564 0.76953,0.152345 1.14844,0.152344 0.50781,10e-7 0.89844,-0.08594 1.17188,-0.257812 0.27343,-0.175781 0.41015,-0.421874 0.41015,-0.738282 0,-0.292966 -0.0996,-0.517576 -0.29882,-0.673828 -0.19532,-0.156247 -0.62696,-0.306638 -1.29493,-0.451172 l -0.375,-0.08789 c -0.66797,-0.140622 -1.15039,-0.355466 -1.44726,-0.644532 -0.29688,-0.292964 -0.44531,-0.693355 -0.44531,-1.201171 0,-0.617183 0.21875,-1.093745 0.65625,-1.429688 0.43749,-0.335931 1.05859,-0.503899 1.86328,-0.503906 0.39843,7e-6 0.77343,0.0293 1.125,0.08789 0.35156,0.0586 0.67577,0.146491 0.97265,0.263672"
       id="path4565" />
    <path
       style="font-size:12px;font-style:normal;font-variant:normal;font-weight:normal;font-stretch:normal;text-align:start;line-height:125%;writing-mode:lr-tb;text-anchor:start;fill:#000000;fill-opacity:1;stroke:none;font-family:DejaVu Sans;-inkscape-font-specification:DejaVu Sans"
       d="m 218.64963,61.520997 c -0.52344,0.898446 -0.91211,1.787117 -1.16601,2.666016 -0.25391,0.878912 -0.38086,1.769536 -0.38086,2.671875 0,0.902346 0.12695,1.796877 0.38086,2.683594 0.25781,0.882812 0.64648,1.771483 1.16601,2.666015 l -0.9375,0 c -0.58594,-0.917969 -1.02539,-1.820312 -1.31836,-2.707031 -0.28906,-0.886717 -0.43359,-1.767575 -0.43359,-2.642578 0,-0.871089 0.14453,-1.748042 0.43359,-2.63086 0.28906,-0.882805 0.72852,-1.785148 1.31836,-2.707031 l 0.9375,0"
       id="path4568" />
    <path
       style="font-size:12px;font-style:normal;font-variant:normal;font-weight:normal;font-stretch:normal;text-align:start;line-height:125%;writing-mode:lr-tb;text-anchor:start;fill:#000000;fill-opacity:1;stroke:none;font-family:DejaVu Sans;-inkscape-font-specification:DejaVu Sans"
       d="m 226.20237,66.665528 0,3.960938 -1.07813,0 0,-3.925781 c 0,-0.62109 -0.1211,-1.085933 -0.36328,-1.394532 -0.24219,-0.308588 -0.60547,-0.462884 -1.08984,-0.46289 -0.58204,6e-6 -1.04102,0.185552 -1.37696,0.55664 -0.33594,0.371099 -0.5039,0.876958 -0.5039,1.517579 l 0,3.708984 -1.08399,0 0,-6.5625 1.08399,0 0,1.019531 c 0.25781,-0.394525 0.56054,-0.689447 0.9082,-0.884765 0.35156,-0.195306 0.75586,-0.292962 1.21289,-0.292969 0.7539,7e-6 1.32421,0.234381 1.71094,0.703125 0.38671,0.464849 0.58007,1.150395 0.58008,2.05664"
       id="path4570" />
    <path
       style="font-size:12px;font-style:normal;font-variant:normal;font-weight:normal;font-stretch:normal;text-align:start;line-height:125%;writing-mode:lr-tb;text-anchor:start;fill:#000000;fill-opacity:1;stroke:none;font-family:DejaVu Sans;-inkscape-font-specification:DejaVu Sans"
       d="m 236.57346,63.103028 0,3.263672 3.26367,0 0,0.996094 -3.26367,0 0,3.263672 -0.98437,0 0,-3.263672 -3.26368,0 0,-0.996094 3.26368,0 0,-3.263672 0.98437,0"
       id="path4572" />
    <path
       style="font-size:12px;font-style:normal;font-variant:normal;font-weight:normal;font-stretch:normal;text-align:start;line-height:125%;writing-mode:lr-tb;text-anchor:start;fill:#000000;fill-opacity:1;stroke:none;font-family:DejaVu Sans;-inkscape-font-specification:DejaVu Sans"
       d="m 246.41721,69.630372 1.93359,0 0,-6.673828 -2.10351,0.421875 0,-1.078125 2.0918,-0.421875 1.18359,0 0,7.751953 1.93359,0 0,0.996094 -5.03906,0 0,-0.996094"
       id="path4574" />
    <path
       style="font-size:12px;font-style:normal;font-variant:normal;font-weight:normal;font-stretch:normal;text-align:start;line-height:125%;writing-mode:lr-tb;text-anchor:start;fill:#000000;fill-opacity:1;stroke:none;font-family:DejaVu Sans;-inkscape-font-specification:DejaVu Sans"
       d="m 253.53049,61.520997 0.9375,0 c 0.58594,0.921883 1.02344,1.824226 1.3125,2.707031 0.29297,0.882818 0.43945,1.759771 0.43946,2.63086 -10e-6,0.875003 -0.14649,1.755861 -0.43946,2.642578 -0.28906,0.886719 -0.72656,1.789062 -1.3125,2.707031 l -0.9375,0 c 0.51953,-0.894532 0.90625,-1.783203 1.16016,-2.666015 0.25781,-0.886717 0.38672,-1.781248 0.38672,-2.683594 0,-0.902339 -0.12891,-1.792963 -0.38672,-2.671875 -0.25391,-0.878899 -0.64063,-1.76757 -1.16016,-2.666016"
       id="path4576" />
    <path
       style="font-size:12px;font-style:normal;font-variant:normal;font-weight:normal;font-stretch:normal;text-align:start;line-height:125%;writing-mode:lr-tb;text-anchor:start;fill:#000000;fill-opacity:1;stroke:none;font-family:DejaVu Sans;-inkscape-font-specification:DejaVu Sans"
       d="m 258.3469,61.509278 1.08398,0 0,5.384766 3.2168,-2.830078 1.37695,0 -3.48047,3.070312 3.62696,3.492188 -1.40625,0 -3.33399,-3.205078 0,3.205078 -1.08398,0 0,-9.117188"
       id="path4578" />
    <path
       style="font-size:12px;font-style:normal;font-variant:normal;font-weight:normal;font-stretch:normal;text-align:start;line-height:125%;writing-mode:lr-tb;text-anchor:start;fill:#000000;fill-opacity:1;stroke:none;font-family:DejaVu Sans;-inkscape-font-specification:DejaVu Sans"
       d="m 240.43967,77.229 0.84375,0 0,0.363282 c 0,0.972661 -0.14453,1.625004 -0.43359,1.957031 -0.28907,0.328128 -0.86524,0.492191 -1.72852,0.492187 l -103.40039,0 c -0.58984,4e-6 -0.99804,0.105472 -1.22461,0.316407 -0.22656,0.21094 -0.33984,0.593752 -0.33984,1.148437 l 0,0.357422 -0.83789,0 0,-0.357422 c 0,-0.558591 -0.11133,-0.941403 -0.33399,-1.148437 -0.22655,-0.210935 -0.63085,-0.316403 -1.21289,-0.316407 l -103.406247,0 c -0.86327,4e-6 -1.43749,-0.164059 -1.72265,-0.492187 -0.28906,-0.332027 -0.43359,-0.98437 -0.4336,-1.957031 l 0,-0.363282 0.83789,0 0,0.398438 c 10e-6,0.550786 0.0859,0.910161 0.25782,1.078125 0.17188,0.167973 0.53321,0.251957 1.08398,0.251953 l 103.453117,0 c 0.61329,4e-6 1.0586,0.08985 1.33594,0.269531 0.27735,0.175785 0.46485,0.47852 0.5625,0.908203 0.10547,-0.43359 0.29688,-0.738277 0.57422,-0.914062 0.27735,-0.175777 0.72071,-0.263668 1.33008,-0.263672 l 103.45312,0 c 0.55079,4e-6 0.91211,-0.08398 1.08399,-0.251953 0.17187,-0.167964 0.25781,-0.527339 0.25781,-1.078125"
       id="path4515" />
    <path
       style="font-size:12px;font-style:normal;font-variant:normal;font-weight:normal;font-stretch:normal;text-align:start;line-height:125%;writing-mode:lr-tb;text-anchor:start;fill:#000000;fill-opacity:1;stroke:none;font-family:DejaVu Sans;-inkscape-font-specification:DejaVu Sans"
       d="m 130.43934,86.155445 1.1836,0 0,8.748047 -1.1836,0 0,-8.748047"
       id="path4581" />
    <path
       style="font-size:9px;font-style:normal;font-variant:normal;font-weight:normal;font-stretch:normal;text-align:start;line-height:125%;writing-mode:lr-tb;text-anchor:start;fill:#000000;fill-opacity:1;stroke:none;font-family:DejaVu Sans;-inkscape-font-specification:DejaVu Sans"
       d="m 137.12783,93.890764 0,2.970703 -0.80859,0 0,-2.944335 c -1e-5,-0.465817 -0.0908,-0.81445 -0.27246,-1.045899 -0.18165,-0.231441 -0.45411,-0.347164 -0.81738,-0.347168 -0.43653,4e-6 -0.78077,0.139164 -1.03272,0.417481 -0.25195,0.278324 -0.37793,0.657718 -0.37793,1.138183 l 0,2.781738 -0.81299,0 0,-4.921875 0.81299,0 0,0.764649 c 0.19336,-0.295894 0.42041,-0.517085 0.68115,-0.663574 0.26367,-0.14648 0.5669,-0.219722 0.90967,-0.219727 0.56543,5e-6 0.99316,0.175786 1.2832,0.527344 0.29004,0.348637 0.43506,0.862796 0.43506,1.54248"
       id="path4584" />
  </g>
</svg>
