<?xml version="1.0" encoding="UTF-8" standalone="no"?>
<!-- Created with Inkscape (http://www.inkscape.org/) -->

<svg
   xmlns:dc="http://purl.org/dc/elements/1.1/"
   xmlns:cc="http://creativecommons.org/ns#"
   xmlns:rdf="http://www.w3.org/1999/02/22-rdf-syntax-ns#"
   xmlns:svg="http://www.w3.org/2000/svg"
   xmlns="http://www.w3.org/2000/svg"
   xmlns:sodipodi="http://sodipodi.sourceforge.net/DTD/sodipodi-0.dtd"
   xmlns:inkscape="http://www.inkscape.org/namespaces/inkscape"
   width="260"
   height="60"
   id="svg2"
   version="1.1"
   inkscape:version="0.47 r22583"
   sodipodi:docname="2010-(11)nov-10 figur 1.svg">
  <defs
     id="defs4" />
  <sodipodi:namedview
     id="base"
     pagecolor="#ffffff"
     bordercolor="#666666"
     borderopacity="1.0"
     inkscape:pageopacity="0.0"
     inkscape:pageshadow="2"
     inkscape:zoom="2.8284272"
     inkscape:cx="82.797163"
     inkscape:cy="70.168141"
     inkscape:document-units="px"
     inkscape:current-layer="layer1"
     showgrid="false"
     inkscape:window-width="1589"
     inkscape:window-height="1117"
     inkscape:window-x="1600"
     inkscape:window-y="27"
     inkscape:window-maximized="1"
     showguides="true"
     inkscape:guide-bbox="true"
     inkscape:snap-midpoints="true"
     inkscape:snap-global="false" />
  <metadata
     id="metadata7">
    <rdf:RDF>
      <cc:Work
         rdf:about="">
        <dc:format>image/svg+xml</dc:format>
        <dc:type
           rdf:resource="http://purl.org/dc/dcmitype/StillImage" />
        <dc:title />
      </cc:Work>
    </rdf:RDF>
  </metadata>
  <g
     inkscape:label="Layer 1"
     inkscape:groupmode="layer"
     id="layer1">
    <path
       style="font-size:medium;font-style:normal;font-variant:normal;font-weight:normal;font-stretch:normal;text-indent:0;text-align:start;text-decoration:none;line-height:normal;letter-spacing:normal;word-spacing:normal;text-transform:none;direction:ltr;block-progression:tb;writing-mode:lr-tb;text-anchor:start;color:#000000;fill:#000000;fill-opacity:1;stroke:none;stroke-width:1;marker:none;visibility:visible;display:inline;overflow:visible;enable-background:accumulate;font-family:Andale Mono;-inkscape-font-specification:Andale Mono"
       d="m 5.65625,24.71875 0,1 246.0625,0 0,-1 -246.0625,0 z"
       id="path2848" />
    <path
       style="font-size:12px;fill-rule:evenodd;stroke-width:0.625;stroke-linejoin:round"
       d="m 241.03956,20.793339 12.01847,4.419494 -12.01847,4.419494 c 1.92005,-2.609267 1.90899,-6.179198 0,-8.838988 z"
       id="path4213" />
    <path
       style="font-size:medium;font-style:normal;font-variant:normal;font-weight:normal;font-stretch:normal;text-indent:0;text-align:start;text-decoration:none;line-height:normal;letter-spacing:normal;word-spacing:normal;text-transform:none;direction:ltr;block-progression:tb;writing-mode:lr-tb;text-anchor:start;color:#000000;fill:#000000;fill-opacity:1;stroke:none;stroke-width:1px;marker:none;visibility:visible;display:inline;overflow:visible;enable-background:accumulate;font-family:Andale Mono;-inkscape-font-specification:Andale Mono"
       d="m 36.96875,16.40625 0,18.03125 1,0 0,-18.03125 -1,0 z"
       id="path4070" />
    <path
       style="font-size:medium;font-style:normal;font-variant:normal;font-weight:normal;font-stretch:normal;text-indent:0;text-align:start;text-decoration:none;line-height:normal;letter-spacing:normal;word-spacing:normal;text-transform:none;direction:ltr;block-progression:tb;writing-mode:lr-tb;text-anchor:start;color:#000000;fill:#000000;fill-opacity:1;stroke:none;stroke-width:1px;marker:none;visibility:visible;display:inline;overflow:visible;enable-background:accumulate;font-family:Andale Mono;-inkscape-font-specification:Andale Mono"
       d="m 204.96875,16.40625 0,18.03125 1,0 0,-18.03125 -1,0 z"
       id="path4072" />
    <path
       style="font-size:12px;font-style:normal;font-variant:normal;font-weight:normal;font-stretch:normal;fill:#000000;fill-opacity:1;stroke:none;font-family:DejaVu Sans;-inkscape-font-specification:DejaVu Sans"
       d="m 119.28589,9.336443 1.08398,0 0,5.384766 3.2168,-2.830079 1.37695,0 -3.48047,3.070313 3.62695,3.492188 -1.40625,0 -3.33398,-3.205079 0,3.205079 -1.08398,0 0,-9.117188"
       id="path4161" />
    <path
       style="font-size:12px;font-style:normal;font-variant:normal;font-weight:normal;font-stretch:normal;fill:#000000;fill-opacity:1;stroke:none;font-family:DejaVu Sans;-inkscape-font-specification:DejaVu Sans"
       d="m 18.944049,41.04093 0,1.863281 2.220703,0 0,0.837891 -2.220703,0 0,3.5625 c -3e-6,0.535157 0.07226,0.878907 0.216796,1.03125 0.148435,0.152344 0.447263,0.228516 0.896485,0.228515 l 1.107422,0 0,0.902344 -1.107422,0 c -0.832034,0 -1.406252,-0.154297 -1.722656,-0.462891 -0.316408,-0.312499 -0.474611,-0.878905 -0.47461,-1.699218 l 0,-3.5625 -0.791015,0 0,-0.837891 0.791015,0 0,-1.863281 1.083985,0"
       id="path4164" />
    <path
       style="font-size:12px;font-style:normal;font-variant:normal;font-weight:normal;font-stretch:normal;fill:#000000;fill-opacity:1;stroke:none;font-family:DejaVu Sans;-inkscape-font-specification:DejaVu Sans"
       d="m 30.369833,44.017492 7.51172,0 0,0.984375 -7.51172,0 0,-0.984375"
       id="path4266" />
    <path
       style="font-size:12px;font-style:normal;font-variant:normal;font-weight:normal;font-stretch:normal;fill:#000000;fill-opacity:1;stroke:none;font-family:DejaVu Sans;-inkscape-font-specification:DejaVu Sans"
       d="m 30.369833,46.408117 7.51172,0 0,0.996094 -7.51172,0 0,-0.996094"
       id="path4166" />
    <path
       style="font-size:12px;font-style:normal;font-variant:normal;font-weight:normal;font-stretch:normal;fill:#000000;fill-opacity:1;stroke:none;font-family:DejaVu Sans;-inkscape-font-specification:DejaVu Sans"
       d="m 49.559283,45.505773 0,3.960938 -1.07812,0 0,-3.925781 c -1e-5,-0.62109 -0.1211,-1.085933 -0.36329,-1.394532 -0.24219,-0.308588 -0.60547,-0.462884 -1.08984,-0.46289 -0.58203,6e-6 -1.04102,0.185552 -1.37695,0.55664 -0.33594,0.371099 -0.50391,0.876958 -0.50391,1.517579 l 0,3.708984 -1.08398,0 0,-6.5625 1.08398,0 0,1.019531 c 0.25781,-0.394525 0.56054,-0.689447 0.9082,-0.884765 0.35156,-0.195306 0.75586,-0.292963 1.21289,-0.292969 0.75391,6e-6 1.32422,0.234381 1.71094,0.703125 0.38671,0.464849 0.58007,1.150395 0.58008,2.05664"
       id="path4168" />
    <path
       style="font-size:12px;font-style:normal;font-variant:normal;font-weight:normal;font-stretch:normal;fill:#000000;fill-opacity:1;stroke:none;font-family:DejaVu Sans;-inkscape-font-specification:DejaVu Sans"
       d="m 51.680373,40.349523 1.08399,0 0,5.384766 3.21679,-2.830078 1.37696,0 -3.48047,3.070312 3.62695,3.492188 -1.40625,0 -3.33398,-3.205078 0,3.205078 -1.08399,0 0,-9.117188"
       id="path4170" />
    <path
       style="font-size:9px;font-style:normal;font-variant:normal;font-weight:normal;font-stretch:normal;fill:#000000;fill-opacity:1;stroke:none;font-family:DejaVu Sans;-inkscape-font-specification:DejaVu Sans"
       d="m 26.500052,40.861961 0,2.970703 -0.808594,0 0,-2.944336 c -4e-6,-0.465816 -0.09082,-0.814449 -0.272461,-1.045898 -0.181644,-0.231441 -0.454105,-0.347164 -0.817382,-0.347168 -0.436526,4e-6 -0.780764,0.139165 -1.032715,0.417481 -0.251955,0.278323 -0.377932,0.657718 -0.37793,1.138183 l 0,2.781738 -0.812988,0 0,-4.921875 0.812988,0 0,0.764649 c 0.193358,-0.295894 0.420408,-0.517085 0.681152,-0.663574 0.26367,-0.14648 0.566892,-0.219722 0.909668,-0.219727 0.565426,5e-6 0.99316,0.175786 1.283204,0.527344 0.290034,0.348637 0.435053,0.862796 0.435058,1.54248"
       id="path4173" />
    <path
       style="font-size:12px;font-style:normal;font-variant:normal;font-weight:normal;font-stretch:normal;fill:#000000;fill-opacity:1;stroke:none;font-family:DejaVu Sans;-inkscape-font-specification:DejaVu Sans"
       d="m 160.23694,41.04093 0,1.863281 2.22071,0 0,0.837891 -2.22071,0 0,3.5625 c 0,0.535157 0.0723,0.878907 0.2168,1.03125 0.14843,0.152344 0.44726,0.228516 0.89648,0.228515 l 1.10743,0 0,0.902344 -1.10743,0 c -0.83203,0 -1.40625,-0.154297 -1.72265,-0.462891 -0.31641,-0.312499 -0.47461,-0.878905 -0.47461,-1.699218 l 0,-3.5625 -0.79102,0 0,-0.837891 0.79102,0 0,-1.863281 1.08398,0"
       id="path4176" />
    <path
       style="font-size:12px;font-style:normal;font-variant:normal;font-weight:normal;font-stretch:normal;fill:#000000;fill-opacity:1;stroke:none;font-family:DejaVu Sans;-inkscape-font-specification:DejaVu Sans"
       d="m 190.76429,44.017492 7.51172,0 0,0.984375 -7.51172,0 0,-0.984375"
       id="path4254" />
    <path
       style="font-size:12px;font-style:normal;font-variant:normal;font-weight:normal;font-stretch:normal;fill:#000000;fill-opacity:1;stroke:none;font-family:DejaVu Sans;-inkscape-font-specification:DejaVu Sans"
       d="m 190.76429,46.408117 7.51172,0 0,0.996094 -7.51172,0 0,-0.996094"
       id="path4178" />
    <path
       style="font-size:12px;font-style:normal;font-variant:normal;font-weight:normal;font-stretch:normal;fill:#000000;fill-opacity:1;stroke:none;font-family:DejaVu Sans;-inkscape-font-specification:DejaVu Sans"
       d="m 207.08851,40.361242 c -0.52344,0.898446 -0.91211,1.787117 -1.16602,2.666016 -0.25391,0.878912 -0.38086,1.769536 -0.38086,2.671875 0,0.902346 0.12695,1.796877 0.38086,2.683594 0.25781,0.882812 0.64648,1.771483 1.16602,2.666015 l -0.9375,0 c -0.58594,-0.917969 -1.02539,-1.820312 -1.31836,-2.707031 -0.28906,-0.886717 -0.4336,-1.767575 -0.4336,-2.642578 0,-0.871089 0.14454,-1.748042 0.4336,-2.63086 0.28906,-0.882805 0.72851,-1.785148 1.31836,-2.707031 l 0.9375,0"
       id="path4180" />
    <path
       style="font-size:12px;font-style:normal;font-variant:normal;font-weight:normal;font-stretch:normal;fill:#000000;fill-opacity:1;stroke:none;font-family:DejaVu Sans;-inkscape-font-specification:DejaVu Sans"
       d="m 214.64124,45.505773 0,3.960938 -1.07812,0 0,-3.925781 c -1e-5,-0.62109 -0.1211,-1.085933 -0.36328,-1.394532 -0.2422,-0.308588 -0.60548,-0.462884 -1.08985,-0.46289 -0.58203,6e-6 -1.04102,0.185552 -1.37695,0.55664 -0.33594,0.371099 -0.50391,0.876958 -0.50391,1.517579 l 0,3.708984 -1.08398,0 0,-6.5625 1.08398,0 0,1.019531 c 0.25781,-0.394525 0.56055,-0.689447 0.90821,-0.884765 0.35156,-0.195306 0.75585,-0.292963 1.21289,-0.292969 0.7539,6e-6 1.32421,0.234381 1.71093,0.703125 0.38672,0.464849 0.58008,1.150395 0.58008,2.05664"
       id="path4182" />
    <path
       style="font-size:12px;font-style:normal;font-variant:normal;font-weight:normal;font-stretch:normal;fill:#000000;fill-opacity:1;stroke:none;font-family:DejaVu Sans;-inkscape-font-specification:DejaVu Sans"
       d="m 225.01234,41.943273 0,3.263672 3.26367,0 0,0.996094 -3.26367,0 0,3.263672 -0.98438,0 0,-3.263672 -3.26367,0 0,-0.996094 3.26367,0 0,-3.263672 0.98438,0"
       id="path4184" />
    <path
       style="font-size:12px;font-style:normal;font-variant:normal;font-weight:normal;font-stretch:normal;fill:#000000;fill-opacity:1;stroke:none;font-family:DejaVu Sans;-inkscape-font-specification:DejaVu Sans"
       d="m 234.85609,48.470617 1.93359,0 0,-6.673828 -2.10352,0.421875 0,-1.078125 2.0918,-0.421875 1.18359,0 0,7.751953 1.9336,0 0,0.996094 -5.03906,0 0,-0.996094"
       id="path4186" />
    <path
       style="font-size:12px;font-style:normal;font-variant:normal;font-weight:normal;font-stretch:normal;fill:#000000;fill-opacity:1;stroke:none;font-family:DejaVu Sans;-inkscape-font-specification:DejaVu Sans"
       d="m 241.96937,40.361242 0.9375,0 c 0.58593,0.921883 1.02343,1.824226 1.3125,2.707031 0.29296,0.882818 0.43945,1.759771 0.43945,2.63086 0,0.875003 -0.14649,1.755861 -0.43945,2.642578 -0.28907,0.886719 -0.72657,1.789062 -1.3125,2.707031 l -0.9375,0 c 0.51953,-0.894532 0.90625,-1.783203 1.16015,-2.666015 0.25781,-0.886717 0.38672,-1.781248 0.38672,-2.683594 0,-0.902339 -0.12891,-1.792963 -0.38672,-2.671875 -0.2539,-0.878899 -0.64062,-1.76757 -1.16015,-2.666016"
       id="path4188" />
    <path
       style="font-size:12px;font-style:normal;font-variant:normal;font-weight:normal;font-stretch:normal;fill:#000000;fill-opacity:1;stroke:none;font-family:DejaVu Sans;-inkscape-font-specification:DejaVu Sans"
       d="m 246.78577,40.349523 1.08399,0 0,5.384766 3.21679,-2.830078 1.37696,0 -3.48047,3.070312 3.62695,3.492188 -1.40625,0 -3.33398,-3.205078 0,3.205078 -1.08399,0 0,-9.117188"
       id="path4190" />
    <path
       style="font-size:9px;font-style:normal;font-variant:normal;font-weight:normal;font-stretch:normal;fill:#000000;fill-opacity:1;stroke:none;font-family:DejaVu Sans;-inkscape-font-specification:DejaVu Sans"
       d="m 167.79295,40.861961 0,2.970703 -0.8086,0 0,-2.944336 c 0,-0.465816 -0.0908,-0.814449 -0.27246,-1.045898 -0.18164,-0.231441 -0.4541,-0.347164 -0.81738,-0.347168 -0.43653,4e-6 -0.78077,0.139165 -1.03272,0.417481 -0.25195,0.278323 -0.37793,0.657718 -0.37793,1.138183 l 0,2.781738 -0.81298,0 0,-4.921875 0.81298,0 0,0.764649 c 0.19336,-0.295894 0.42041,-0.517085 0.68116,-0.663574 0.26367,-0.14648 0.56689,-0.219722 0.90966,-0.219727 0.56543,5e-6 0.99316,0.175786 1.28321,0.527344 0.29003,0.348637 0.43505,0.862796 0.43506,1.54248"
       id="path4193" />
    <path
       style="font-size:9px;font-style:normal;font-variant:normal;font-weight:normal;font-stretch:normal;fill:#000000;fill-opacity:1;stroke:none;font-family:DejaVu Sans;-inkscape-font-specification:DejaVu Sans"
       d="m 175.57126,38.190086 0,2.447754 2.44776,0 0,0.74707 -2.44776,0 0,2.447754 -0.73828,0 0,-2.447754 -2.44775,0 0,-0.74707 2.44775,0 0,-2.447754 0.73828,0"
       id="path4195" />
    <path
       style="font-size:9px;font-style:normal;font-variant:normal;font-weight:normal;font-stretch:normal;fill:#000000;fill-opacity:1;stroke:none;font-family:DejaVu Sans;-inkscape-font-specification:DejaVu Sans"
       d="m 182.95408,43.085594 1.45019,0 0,-5.005371 -1.57764,0.316406 0,-0.808593 1.56885,-0.316407 0.8877,0 0,5.813965 1.45019,0 0,0.74707 -3.77929,0 0,-0.74707"
       id="path4197" />
  </g>
</svg>
