<?xml version="1.0" encoding="UTF-8" standalone="no"?>
<!-- Created with Inkscape (http://www.inkscape.org/) -->

<svg
   xmlns:dc="http://purl.org/dc/elements/1.1/"
   xmlns:cc="http://creativecommons.org/ns#"
   xmlns:rdf="http://www.w3.org/1999/02/22-rdf-syntax-ns#"
   xmlns:svg="http://www.w3.org/2000/svg"
   xmlns="http://www.w3.org/2000/svg"
   xmlns:sodipodi="http://sodipodi.sourceforge.net/DTD/sodipodi-0.dtd"
   xmlns:inkscape="http://www.inkscape.org/namespaces/inkscape"
   width="300"
   height="160"
   id="svg2"
   version="1.1"
   inkscape:version="0.47 r22583"
   sodipodi:docname="2010-(11)nov-15 figur 0.svg">
  <defs
     id="defs4" />
  <sodipodi:namedview
     id="base"
     pagecolor="#ffffff"
     bordercolor="#666666"
     borderopacity="1.0"
     inkscape:pageopacity="0.0"
     inkscape:pageshadow="2"
     inkscape:zoom="2.8284271"
     inkscape:cx="160.27953"
     inkscape:cy="108.04192"
     inkscape:document-units="px"
     inkscape:current-layer="layer1"
     showgrid="false"
     inkscape:window-width="1589"
     inkscape:window-height="1117"
     inkscape:window-x="1600"
     inkscape:window-y="27"
     inkscape:window-maximized="1"
     showguides="true"
     inkscape:guide-bbox="true"
     inkscape:snap-midpoints="true"
     inkscape:snap-global="false" />
  <metadata
     id="metadata7">
    <rdf:RDF>
      <cc:Work
         rdf:about="">
        <dc:format>image/svg+xml</dc:format>
        <dc:type
           rdf:resource="http://purl.org/dc/dcmitype/StillImage" />
        <dc:title />
      </cc:Work>
    </rdf:RDF>
  </metadata>
  <g
     inkscape:label="Layer 1"
     inkscape:groupmode="layer"
     id="layer1">
    <path
       style="font-size:12px;font-style:normal;font-variant:normal;font-weight:normal;font-stretch:normal;text-align:start;line-height:125%;writing-mode:lr-tb;text-anchor:start;fill:#000000;fill-opacity:1;stroke:none;font-family:DejaVu Sans;-inkscape-font-specification:DejaVu Sans"
       d="M 13.8125 78.125 C 13.179685 78.12501 12.70703 78.34767 12.375 78.78125 C 12.042968 79.21485 11.875 79.83204 11.875 80.65625 C 11.875 81.48438 12.042968 82.12891 12.375 82.5625 C 12.70703 82.9961 13.179685 83.21875 13.8125 83.21875 C 14.441403 83.21875 14.949215 82.9961 15.28125 82.5625 C 15.613277 82.12891 15.781245 81.48438 15.78125 80.65625 C 15.781245 79.83204 15.613277 79.21485 15.28125 78.78125 C 14.949215 78.34767 14.441403 78.12501 13.8125 78.125 z M 13.8125 78.65625 C 14.207028 78.65626 14.523435 78.82032 14.71875 79.15625 C 14.917968 79.4922 14.999997 79.98438 15 80.65625 C 14.999997 81.33204 14.917965 81.85157 14.71875 82.1875 C 14.523435 82.52344 14.207028 82.68751 13.8125 82.6875 C 13.417966 82.68751 13.132811 82.52344 12.9375 82.1875 C 12.738282 81.85157 12.656249 81.33204 12.65625 80.65625 C 12.656249 79.98438 12.73828 79.4922 12.9375 79.15625 C 13.132811 78.82032 13.417966 78.65626 13.8125 78.65625 z "
       id="path5611" />
    <path
       style="font-size:12px;font-style:normal;font-variant:normal;font-weight:normal;font-stretch:normal;text-align:start;line-height:125%;writing-mode:lr-tb;text-anchor:start;fill:#000000;fill-opacity:1;stroke:none;font-family:DejaVu Sans;-inkscape-font-specification:DejaVu Sans"
       d="M 12.84375 60.375 C 12.210935 60.37501 11.73828 60.59767 11.40625 61.03125 C 11.074218 61.46485 10.90625 62.11329 10.90625 62.9375 C 10.90625 63.76563 11.074218 64.37891 11.40625 64.8125 C 11.73828 65.2461 12.210935 65.46875 12.84375 65.46875 C 13.472653 65.46875 13.949215 65.2461 14.28125 64.8125 C 14.613277 64.37891 14.781245 63.76563 14.78125 62.9375 C 14.781245 62.11329 14.613277 61.46485 14.28125 61.03125 C 13.949215 60.59767 13.472653 60.37501 12.84375 60.375 z M 12.84375 60.90625 C 13.238278 60.90626 13.523435 61.07032 13.71875 61.40625 C 13.917968 61.7422 14.031247 62.26563 14.03125 62.9375 C 14.031247 63.61329 13.917965 64.10157 13.71875 64.4375 C 13.523435 64.77344 13.238278 64.93751 12.84375 64.9375 C 12.449216 64.93751 12.164061 64.77344 11.96875 64.4375 C 11.769532 64.10157 11.656249 63.61329 11.65625 62.9375 C 11.656249 62.26563 11.76953 61.7422 11.96875 61.40625 C 12.164061 61.07032 12.449216 60.90626 12.84375 60.90625 z "
       id="path5616" />
    <path
       style="font-size:medium;font-style:normal;font-variant:normal;font-weight:normal;font-stretch:normal;text-indent:0;text-align:start;text-decoration:none;line-height:normal;letter-spacing:normal;word-spacing:normal;text-transform:none;direction:ltr;block-progression:tb;writing-mode:lr-tb;text-anchor:start;color:#000000;fill:#000000;fill-opacity:1;stroke:none;stroke-width:1px;marker:none;visibility:visible;display:inline;overflow:visible;enable-background:accumulate;font-family:Andale Mono;-inkscape-font-specification:Andale Mono"
       d="m 20.25,4 0,133.5 0,0.5 0.5,0 253.25,0 0,-1 -252.75,0 0,-133 -1,0 z"
       id="path2859" />
    <path
       style="font-size:12px;fill-rule:evenodd;stroke-width:0.625;stroke-linejoin:round"
       d="M 16.312891,14.690447 20.732385,2.6719815 25.151879,14.690447 c -2.609267,-1.920048 -6.179198,-1.908985 -8.838988,0 z"
       id="path5729" />
    <path
       style="font-size:12px;fill-rule:evenodd;stroke-width:0.625;stroke-linejoin:round"
       d="m 263.30955,133.06289 12.01847,4.4195 -12.01847,4.41949 c 1.92005,-2.60927 1.90899,-6.1792 0,-8.83899 z"
       id="path5731" />
    <path
       style="font-size:medium;font-style:normal;font-variant:normal;font-weight:normal;font-stretch:normal;text-indent:0;text-align:start;text-decoration:none;line-height:normal;letter-spacing:normal;word-spacing:normal;text-transform:none;direction:ltr;block-progression:tb;writing-mode:lr-tb;text-anchor:start;color:#000000;fill:#000000;fill-opacity:1;stroke:none;stroke-width:1;marker:none;visibility:visible;display:inline;overflow:visible;enable-background:accumulate;font-family:Andale Mono;-inkscape-font-specification:Andale Mono"
       d="m 20.25,130.53125 0,14 1,0 0,-14 -1,0 z"
       id="path4269" />
    <path
       style="font-size:medium;font-style:normal;font-variant:normal;font-weight:normal;font-stretch:normal;text-indent:0;text-align:start;text-decoration:none;line-height:normal;letter-spacing:normal;word-spacing:normal;text-transform:none;direction:ltr;block-progression:tb;writing-mode:lr-tb;text-anchor:start;color:#000000;fill:#000000;fill-opacity:1;stroke:none;stroke-width:1;marker:none;visibility:visible;display:inline;overflow:visible;enable-background:accumulate;font-family:Andale Mono;-inkscape-font-specification:Andale Mono"
       d="m 70.25,130.53125 0,14 1,0 0,-14 -1,0 z"
       id="path4273" />
    <path
       style="font-size:medium;font-style:normal;font-variant:normal;font-weight:normal;font-stretch:normal;text-indent:0;text-align:start;text-decoration:none;line-height:normal;letter-spacing:normal;word-spacing:normal;text-transform:none;direction:ltr;block-progression:tb;writing-mode:lr-tb;text-anchor:start;color:#000000;fill:#000000;fill-opacity:1;stroke:none;stroke-width:1;marker:none;visibility:visible;display:inline;overflow:visible;enable-background:accumulate;font-family:Andale Mono;-inkscape-font-specification:Andale Mono"
       d="m 120.25,130.53125 0,14 1,0 0,-14 -1,0 z"
       id="path4275" />
    <path
       style="font-size:medium;font-style:normal;font-variant:normal;font-weight:normal;font-stretch:normal;text-indent:0;text-align:start;text-decoration:none;line-height:normal;letter-spacing:normal;word-spacing:normal;text-transform:none;direction:ltr;block-progression:tb;writing-mode:lr-tb;text-anchor:start;color:#000000;fill:#000000;fill-opacity:1;stroke:none;stroke-width:1;marker:none;visibility:visible;display:inline;overflow:visible;enable-background:accumulate;font-family:Andale Mono;-inkscape-font-specification:Andale Mono"
       d="m 170.25,130.53125 0,14 1,0 0,-14 -1,0 z"
       id="path4277" />
    <path
       style="font-size:medium;font-style:normal;font-variant:normal;font-weight:normal;font-stretch:normal;text-indent:0;text-align:start;text-decoration:none;line-height:normal;letter-spacing:normal;word-spacing:normal;text-transform:none;direction:ltr;block-progression:tb;writing-mode:lr-tb;text-anchor:start;color:#000000;fill:#000000;fill-opacity:1;stroke:none;stroke-width:1;marker:none;visibility:visible;display:inline;overflow:visible;enable-background:accumulate;font-family:Andale Mono;-inkscape-font-specification:Andale Mono"
       d="m 220.25,130.53125 0,14 1,0 0,-14 -1,0 z"
       id="path4279" />
    <path
       style="font-size:12px;font-style:normal;font-variant:normal;font-weight:normal;font-stretch:normal;text-align:start;line-height:125%;writing-mode:lr-tb;text-anchor:start;fill:#000000;fill-opacity:1;stroke:none;font-family:DejaVu Sans;-inkscape-font-specification:DejaVu Sans"
       d="m 43.839844,139.88669 1.083984,0 0,5.38477 3.216797,-2.83008 1.376953,0 -3.480469,3.07031 3.626953,3.49219 -1.40625,0 -3.333984,-3.20508 0,3.20508 -1.083984,0 0,-9.11719"
       id="path5600" />
    <path
       style="font-size:12px;font-style:normal;font-variant:normal;font-weight:normal;font-stretch:normal;text-align:start;line-height:125%;writing-mode:lr-tb;text-anchor:start;fill:#000000;fill-opacity:1;stroke:none;font-family:DejaVu Sans;-inkscape-font-specification:DejaVu Sans"
       d="m 93.839844,139.88669 1.083984,0 0,5.38477 3.216797,-2.83008 1.376953,0 -3.480469,3.07031 3.626953,3.49219 -1.40625,0 -3.333984,-3.20508 0,3.20508 -1.083984,0 0,-9.11719"
       id="path5603" />
    <path
       style="font-size:medium;font-style:normal;font-variant:normal;font-weight:normal;font-stretch:normal;text-indent:0;text-align:start;text-decoration:none;line-height:normal;letter-spacing:normal;word-spacing:normal;text-transform:none;direction:ltr;block-progression:tb;writing-mode:lr-tb;text-anchor:start;color:#000000;fill:#000000;fill-opacity:1;stroke:none;stroke-width:1px;marker:none;visibility:visible;display:inline;overflow:visible;enable-background:accumulate;font-family:Andale Mono;-inkscape-font-specification:Andale Mono"
       d="m 147.75,31.1875 c -8.65142,1.069172 -17.08775,8.45448 -26.125,15.53125 -9.0285,7.069919 -18.64028,13.847017 -29.40625,14.0625 -0.01011,1.83e-4 -0.02114,-1.61e-4 -0.03125,0 C 87.494775,60.85604 82.538325,58.526046 77.3125,55.5625 72.075412,52.592567 66.550904,49.012788 60.65625,46.6875 54.761596,44.362212 48.472672,43.294413 41.75,45.46875 35.027328,47.643087 27.924019,53.038815 20.34375,63.40625 l 0.8125,0.5625 C 28.658088,53.708583 35.602498,48.526881 42.0625,46.4375 c 6.460002,-2.089381 12.485126,-1.086593 18.25,1.1875 5.764874,2.274093 11.22442,5.820738 16.5,8.8125 5.27558,2.991762 10.365928,5.43521 15.40625,5.34375 C 103.4037,61.570649 113.18716,54.596808 122.25,47.5 c 9.04094,-7.079659 17.41456,-14.275813 25.5625,-15.3125 0.0212,-8.64e-4 0.0413,8.49e-4 0.0625,0 17.98219,-0.719712 34.45541,3.897164 50.125,8.625 15.68808,4.733413 30.56912,9.594725 45.34375,9.1875 l -0.0312,-1 c -14.53712,0.400678 -29.29912,-4.418974 -45,-9.15625 C 182.61167,35.106474 165.9839,30.446344 147.7813,31.1875 l -0.0312,0 z"
       id="path4328" />
    <path
       style="fill-rule:evenodd;stroke:#000000;stroke-width:0.4pt;marker-start:none;marker-end:none"
       d="m 21.906837,62.105309 c 0.891193,0.651606 1.085641,1.903733 0.434035,2.794927 -0.651607,0.891193 -1.903734,1.08564 -2.794927,0.434034 -0.891193,-0.651606 -1.085641,-1.903733 -0.434034,-2.794926 0.651606,-0.891194 1.903733,-1.085641 2.794926,-0.434035 z"
       id="path5701" />
    <path
       style="font-size:medium;font-style:normal;font-variant:normal;font-weight:normal;font-stretch:normal;text-indent:0;text-align:start;text-decoration:none;line-height:normal;letter-spacing:normal;word-spacing:normal;text-transform:none;direction:ltr;block-progression:tb;writing-mode:lr-tb;text-anchor:start;color:#000000;fill:#000000;fill-opacity:1;stroke:none;stroke-width:1px;marker:none;visibility:visible;display:inline;overflow:visible;enable-background:accumulate;font-family:Andale Mono;-inkscape-font-specification:Andale Mono"
       d="M 120.28125,27.90625 120,28.0625 l -50.96875,28.75 -0.03125,0 -48.46875,24.5 0.4375,0.875 48.5,-24.5 0.03125,0 50.71875,-28.59375 51.71875,38.3125 0.1875,0.125 0.21875,-0.03125 47.5,-10.25 -0.1875,-1 -47.28125,10.21875 -51.8125,-38.375 -0.28125,-0.1875 z"
       id="path4332" />
    <path
       style="fill-rule:evenodd;stroke:#000000;stroke-width:0.4pt;marker-start:none;marker-end:none"
       d="m 22.499455,80.866255 c 0.497783,0.985407 0.10203,2.189156 -0.883377,2.686939 -0.985408,0.497783 -2.189157,0.10203 -2.68694,-0.883377 -0.497783,-0.985408 -0.10203,-2.189157 0.883378,-2.68694 0.985407,-0.497783 2.189156,-0.10203 2.686939,0.883378 z"
       id="path5685" />
    <path
       style="fill-rule:evenodd;stroke:#000000;stroke-width:0.4pt;marker-start:none;marker-end:none"
       d="m 70.978873,56.326637 c 0.520098,0.973814 0.151865,2.186265 -0.821949,2.706363 -0.973814,0.520098 -2.186265,0.151865 -2.706363,-0.821949 -0.520098,-0.973814 -0.151865,-2.186265 0.821949,-2.706363 0.973814,-0.520098 2.186265,-0.151865 2.706363,0.821949 z"
       id="path5687" />
    <path
       style="fill-rule:evenodd;stroke:#000000;stroke-width:0.4pt;marker-start:none;marker-end:none"
       d="m 122.20623,28.621441 c -0.0684,1.101879 -1.01819,1.940641 -2.12007,1.872238 -1.10188,-0.0684 -1.94064,-1.018198 -1.87224,-2.120077 0.0684,-1.101879 1.0182,-1.940641 2.12008,-1.872238 1.10188,0.0684 1.94064,1.018198 1.87223,2.120077 z"
       id="path5689" />
    <path
       style="fill-rule:evenodd;stroke:#000000;stroke-width:0.4pt;marker-start:none;marker-end:none"
       d="m 174.16596,67.41317 c -0.23273,1.079192 -1.29747,1.76618 -2.37666,1.533456 -1.07919,-0.232724 -1.76618,-1.297468 -1.53346,-2.37666 0.23272,-1.079192 1.29747,-1.76618 2.37666,-1.533456 1.07919,0.232724 1.76618,1.297467 1.53346,2.37666 z"
       id="path5691" />
    <path
       style="fill-rule:evenodd;stroke:#000000;stroke-width:0.4pt;marker-start:none;marker-end:none"
       d="m 221.6659,56.336569 c 0.23287,1.07916 -0.45397,2.143997 -1.53313,2.376869 -1.07916,0.232871 -2.144,-0.453972 -2.37687,-1.533132 -0.23287,-1.07916 0.45397,-2.143998 1.53313,-2.376869 1.07916,-0.232872 2.144,0.453972 2.37687,1.533132 z"
       id="path5693" />
    <path
       style="font-size:12px;font-style:normal;font-variant:normal;font-weight:normal;font-stretch:normal;text-align:start;line-height:125%;writing-mode:lr-tb;text-anchor:start;fill:#000000;fill-opacity:1;stroke:none;font-family:DejaVu Sans;-inkscape-font-specification:DejaVu Sans"
       d="m 280.27888,133.27316 0,1.86328 2.2207,0 0,0.83789 -2.2207,0 0,3.5625 c -1e-5,0.53516 0.0723,0.87891 0.21679,1.03125 0.14844,0.15235 0.44727,0.22852 0.89649,0.22852 l 1.10742,0 0,0.90234 -1.10742,0 c -0.83204,0 -1.40626,-0.1543 -1.72266,-0.46289 -0.31641,-0.3125 -0.47461,-0.87891 -0.47461,-1.69922 l 0,-3.5625 -0.79101,0 0,-0.83789 0.79101,0 0,-1.86328 1.08399,0"
       id="path5606" />
    <path
       style="font-size:12px;font-style:normal;font-variant:normal;font-weight:normal;font-stretch:normal;text-align:start;line-height:125%;writing-mode:lr-tb;text-anchor:start;fill:#000000;fill-opacity:1;stroke:none;font-family:DejaVu Sans;-inkscape-font-specification:DejaVu Sans"
       d="m 3.626802,78.285418 1.189453,0 0,5.31446 c -2e-6,0.9375 0.169919,1.61328 0.509765,2.02734 0.339841,0.41016 0.890622,0.61524 1.652344,0.61523 0.757808,1e-5 1.306635,-0.20507 1.646485,-0.61523 0.339837,-0.41406 0.509759,-1.08984 0.509765,-2.02734 l 0,-5.31446 1.189453,0 0,5.46094 c -7e-6,1.14063 -0.28321,2.00195 -0.849609,2.58398 -0.562506,0.58204 -1.394537,0.87305 -2.496094,0.87305 -1.105472,0 -1.941408,-0.29101 -2.507812,-0.87305 -0.562502,-0.58203 -0.843751,-1.44335 -0.84375,-2.58398 l 0,-5.46094"
       id="path5609" />
    <path
       style="font-size:12px;font-style:normal;font-variant:normal;font-weight:normal;font-stretch:normal;text-align:start;line-height:125%;writing-mode:lr-tb;text-anchor:start;fill:#000000;fill-opacity:1;stroke:none;font-family:DejaVu Sans;-inkscape-font-specification:DejaVu Sans"
       d="m 3.790133,66.702945 0,-3.97266 1.078125,0 0,3.93164 c -2e-6,0.6211 0.121092,1.08789 0.363281,1.40039 0.242185,0.3086 0.605466,0.46289 1.089844,0.46289 0.582027,0 1.041011,-0.18554 1.376953,-0.55664 0.339839,-0.37109 0.509761,-0.87695 0.509766,-1.51758 l 0,-3.7207 1.078125,0 0,6.5625 -1.078125,0 0,-1.00781 c -0.261724,0.39844 -0.566411,0.69531 -0.914063,0.89062 -0.343754,0.19141 -0.744144,0.28711 -1.201171,0.28711 -0.753909,0 -1.326174,-0.23437 -1.716797,-0.70312 -0.390626,-0.46875 -0.585939,-1.1543 -0.585938,-2.05664"
       id="path5841" />
    <path
       style="font-size:12px;font-style:normal;font-variant:normal;font-weight:normal;font-stretch:normal;text-align:start;line-height:125%;writing-mode:lr-tb;text-anchor:start;fill:#000000;fill-opacity:1;stroke:none;font-family:DejaVu Sans;-inkscape-font-specification:DejaVu Sans"
       d="m 6.503024,62.572085 0,0"
       id="path5614" />
    <path
       style="font-size:12px;font-style:normal;font-variant:normal;font-weight:normal;font-stretch:normal;text-align:start;line-height:125%;writing-mode:lr-tb;text-anchor:start;fill:#000000;fill-opacity:1;stroke:none;font-family:DejaVu Sans;-inkscape-font-specification:DejaVu Sans"
       d="m 248.5039,50.27832 0,-3.97266 1.07813,0 0,3.93164 c -1e-5,0.6211 0.12109,1.08789 0.36328,1.40039 0.24218,0.3086 0.60546,0.46289 1.08984,0.46289 0.58203,0 1.04101,-0.18554 1.37695,-0.55664 0.33984,-0.37109 0.50977,-0.87695 0.50977,-1.51758 l 0,-3.7207 1.07813,0 0,6.5625 -1.07813,0 0,-1.00781 c -0.26172,0.39844 -0.56641,0.69531 -0.91406,0.89062 -0.34376,0.19141 -0.74415,0.28711 -1.20117,0.28711 -0.75391,0 -1.32618,-0.23437 -1.7168,-0.70312 -0.39063,-0.46875 -0.58594,-1.1543 -0.58594,-2.05664"
       id="path5833" />
    <path
       style="font-size:12px;font-style:normal;font-variant:normal;font-weight:normal;font-stretch:normal;text-align:start;line-height:125%;writing-mode:lr-tb;text-anchor:start;fill:#000000;fill-opacity:1;stroke:none;font-family:DejaVu Sans;-inkscape-font-specification:DejaVu Sans"
       d="m 251.21679,46.14746 0,0"
       id="path5619" />
    <path
       style="font-size:12px;font-style:normal;font-variant:normal;font-weight:normal;font-stretch:normal;text-align:start;line-height:125%;writing-mode:lr-tb;text-anchor:start;fill:#000000;fill-opacity:1;stroke:none;font-family:DejaVu Sans;-inkscape-font-specification:DejaVu Sans"
       d="m 258.82226,43.76269 c -0.52344,0.89845 -0.91211,1.78712 -1.16601,2.66602 -0.25391,0.87891 -0.38087,1.76953 -0.38086,2.67187 -1e-5,0.90235 0.12695,1.79688 0.38086,2.6836 0.25781,0.88281 0.64648,1.77148 1.16601,2.66601 l -0.9375,0 c -0.58594,-0.91797 -1.02539,-1.82031 -1.31836,-2.70703 -0.28906,-0.88672 -0.43359,-1.76758 -0.43359,-2.64258 0,-0.87109 0.14453,-1.74804 0.43359,-2.63086 0.28906,-0.8828 0.72851,-1.78515 1.31836,-2.70703 l 0.9375,0"
       id="path5621" />
    <path
       style="font-size:12px;font-style:normal;font-variant:normal;font-weight:normal;font-stretch:normal;text-align:start;line-height:125%;writing-mode:lr-tb;text-anchor:start;fill:#000000;fill-opacity:1;stroke:none;font-family:DejaVu Sans;-inkscape-font-specification:DejaVu Sans"
       d="m 261.98632,44.44238 0,1.86328 2.22071,0 0,0.83789 -2.22071,0 0,3.5625 c 0,0.53516 0.0723,0.87891 0.2168,1.03125 0.14844,0.15235 0.44726,0.22852 0.89648,0.22852 l 1.10743,0 0,0.90234 -1.10743,0 c -0.83203,0 -1.40625,-0.1543 -1.72265,-0.46289 -0.31641,-0.3125 -0.47461,-0.87891 -0.47461,-1.69922 l 0,-3.5625 -0.79102,0 0,-0.83789 0.79102,0 0,-1.86328 1.08398,0"
       id="path5623" />
    <path
       style="font-size:12px;font-style:normal;font-variant:normal;font-weight:normal;font-stretch:normal;text-align:start;line-height:125%;writing-mode:lr-tb;text-anchor:start;fill:#000000;fill-opacity:1;stroke:none;font-family:DejaVu Sans;-inkscape-font-specification:DejaVu Sans"
       d="m 265.46093,43.76269 0.9375,0 c 0.58594,0.92188 1.02344,1.82423 1.3125,2.70703 0.29297,0.88282 0.43945,1.75977 0.43946,2.63086 -1e-5,0.875 -0.14649,1.75586 -0.43946,2.64258 -0.28906,0.88672 -0.72656,1.78906 -1.3125,2.70703 l -0.9375,0 c 0.51953,-0.89453 0.90625,-1.7832 1.16016,-2.66601 0.25781,-0.88672 0.38672,-1.78125 0.38672,-2.6836 0,-0.90234 -0.12891,-1.79296 -0.38672,-2.67187 -0.25391,-0.8789 -0.64063,-1.76757 -1.16016,-2.66602"
       id="path5625" />
    <path
       style="font-size:12px;font-style:normal;font-variant:normal;font-weight:normal;font-stretch:normal;text-align:start;line-height:125%;writing-mode:lr-tb;text-anchor:start;fill:#000000;fill-opacity:1;stroke:none;font-family:DejaVu Sans;-inkscape-font-specification:DejaVu Sans"
       d="m 165.61441,74.220776 1.18945,0 0,5.31446 c 0,0.9375 0.16992,1.61328 0.50977,2.02734 0.33984,0.41016 0.89062,0.61524 1.65234,0.61523 0.75781,1e-5 1.30664,-0.20507 1.64649,-0.61523 0.33983,-0.41406 0.50975,-1.08984 0.50976,-2.02734 l 0,-5.31446 1.18945,0 0,5.46094 c 0,1.14063 -0.28321,2.00195 -0.84961,2.58398 -0.5625,0.58204 -1.39453,0.87305 -2.49609,0.87305 -1.10547,0 -1.94141,-0.29101 -2.50781,-0.87305 -0.5625,-0.58203 -0.84375,-1.44335 -0.84375,-2.58398 l 0,-5.46094"
       id="path5628" />
    <path
       style="font-size:12px;font-style:normal;font-variant:normal;font-weight:normal;font-stretch:normal;text-align:start;line-height:125%;writing-mode:lr-tb;text-anchor:start;fill:#000000;fill-opacity:1;stroke:none;font-family:DejaVu Sans;-inkscape-font-specification:DejaVu Sans"
       d="m 206.83827,66.605843 1.18945,0 0,5.31446 c 0,0.9375 0.16992,1.61328 0.50977,2.02734 0.33984,0.41016 0.89062,0.61524 1.65234,0.61523 0.75781,1e-5 1.30664,-0.20507 1.64649,-0.61523 0.33983,-0.41406 0.50975,-1.08984 0.50976,-2.02734 l 0,-5.31446 1.18945,0 0,5.46094 c 0,1.14063 -0.28321,2.00195 -0.84961,2.58398 -0.5625,0.58204 -1.39453,0.87305 -2.49609,0.87305 -1.10547,0 -1.94141,-0.29101 -2.50781,-0.87305 -0.5625,-0.58203 -0.84375,-1.44335 -0.84375,-2.58398 l 0,-5.46094"
       id="path5631" />
    <path
       style="font-size:9px;font-style:normal;font-variant:normal;font-weight:normal;font-stretch:normal;text-align:start;line-height:125%;writing-mode:lr-tb;text-anchor:start;fill:#000000;fill-opacity:1;stroke:none;font-family:DejaVu Sans;-inkscape-font-specification:DejaVu Sans"
       d="m 219.17901,65.995221 0,2.9707 -0.80859,0 0,-2.94433 c -1e-5,-0.46582 -0.0908,-0.81445 -0.27246,-1.0459 -0.18165,-0.23144 -0.45411,-0.34717 -0.81738,-0.34717 -0.43653,0 -0.78077,0.13916 -1.03272,0.41748 -0.25195,0.27832 -0.37793,0.65772 -0.37793,1.13818 l 0,2.78174 -0.81299,0 0,-4.92187 0.81299,0 0,0.76465 c 0.19336,-0.2959 0.42041,-0.51709 0.68115,-0.66358 0.26367,-0.14648 0.56689,-0.21972 0.90967,-0.21972 0.56543,0 0.99316,0.17578 1.28321,0.52734 0.29003,0.34864 0.43505,0.8628 0.43505,1.54248"
       id="path5634" />
    <path
       style="font-size:9px;font-style:normal;font-variant:normal;font-weight:normal;font-stretch:normal;text-align:start;line-height:125%;writing-mode:lr-tb;text-anchor:start;fill:#000000;fill-opacity:1;stroke:none;font-family:DejaVu Sans;-inkscape-font-specification:DejaVu Sans"
       d="m 224.0921,63.323341 0,2.44776 2.44775,0 0,0.74707 -2.44775,0 0,2.44775 -0.73828,0 0,-2.44775 -2.44776,0 0,-0.74707 2.44776,0 0,-2.44776 0.73828,0"
       id="path5636" />
    <path
       style="font-size:9px;font-style:normal;font-variant:normal;font-weight:normal;font-stretch:normal;text-align:start;line-height:125%;writing-mode:lr-tb;text-anchor:start;fill:#000000;fill-opacity:1;stroke:none;font-family:DejaVu Sans;-inkscape-font-specification:DejaVu Sans"
       d="m 228.60968,68.218851 1.45019,0 0,-5.00537 -1.57763,0.31641 0,-0.8086 1.56884,-0.3164 0.8877,0 0,5.81396 1.45019,0 0,0.74707 -3.77929,0 0,-0.74707"
       id="path5638" />
    <path
       style="font-size:9px;font-style:normal;font-variant:normal;font-weight:normal;font-stretch:normal;text-align:start;line-height:125%;writing-mode:lr-tb;text-anchor:start;fill:#000000;fill-opacity:1;stroke:none;font-family:DejaVu Sans;-inkscape-font-specification:DejaVu Sans"
       d="m 178.27617,73.580631 0,2.9707 -0.80859,0 0,-2.94433 c -1e-5,-0.46582 -0.0908,-0.81445 -0.27246,-1.0459 -0.18165,-0.23144 -0.45411,-0.34717 -0.81738,-0.34717 -0.43653,0 -0.78077,0.13916 -1.03272,0.41748 -0.25195,0.27832 -0.37793,0.65772 -0.37793,1.13818 l 0,2.78174 -0.81299,0 0,-4.92187 0.81299,0 0,0.76465 c 0.19336,-0.2959 0.42041,-0.51709 0.68115,-0.66358 0.26367,-0.14648 0.5669,-0.21972 0.90967,-0.21972 0.56543,0 0.99316,0.17578 1.28321,0.52734 0.29003,0.34864 0.43505,0.8628 0.43505,1.54248"
       id="path5641" />
    <path
       style="font-size:12px;font-style:normal;font-variant:normal;font-weight:normal;font-stretch:normal;text-align:start;line-height:125%;writing-mode:lr-tb;text-anchor:start;fill:#000000;fill-opacity:1;stroke:none;font-family:DejaVu Sans;-inkscape-font-specification:DejaVu Sans"
       d="m 152.37651,148.02588 0,1.86328 2.2207,0 0,0.83789 -2.2207,0 0,3.5625 c -1e-5,0.53516 0.0723,0.87891 0.21679,1.03125 0.14844,0.15235 0.44726,0.22852 0.89649,0.22852 l 1.10742,0 0,0.90234 -1.10742,0 c -0.83204,0 -1.40626,-0.1543 -1.72266,-0.46289 -0.31641,-0.3125 -0.47461,-0.87891 -0.47461,-1.69922 l 0,-3.5625 -0.79101,0 0,-0.83789 0.79101,0 0,-1.86328 1.08399,0"
       id="path5644" />
    <path
       style="font-size:12px;font-style:normal;font-variant:normal;font-weight:normal;font-stretch:normal;text-align:start;line-height:125%;writing-mode:lr-tb;text-anchor:start;fill:#000000;fill-opacity:1;stroke:none;font-family:DejaVu Sans;-inkscape-font-specification:DejaVu Sans"
       d="m 163.80229,151.00244 7.51172,0 0,0.98438 -7.51172,0 0,-0.98438"
       id="path5809" />
    <path
       style="font-size:12px;font-style:normal;font-variant:normal;font-weight:normal;font-stretch:normal;text-align:start;line-height:125%;writing-mode:lr-tb;text-anchor:start;fill:#000000;fill-opacity:1;stroke:none;font-family:DejaVu Sans;-inkscape-font-specification:DejaVu Sans"
       d="m 163.80229,153.39307 7.51172,0 0,0.99609 -7.51172,0 0,-0.99609"
       id="path5646" />
    <path
       style="font-size:12px;font-style:normal;font-variant:normal;font-weight:normal;font-stretch:normal;text-align:start;line-height:125%;writing-mode:lr-tb;text-anchor:start;fill:#000000;fill-opacity:1;stroke:none;font-family:DejaVu Sans;-inkscape-font-specification:DejaVu Sans"
       d="m 182.99174,152.49072 0,3.96094 -1.07813,0 0,-3.92578 c 0,-0.62109 -0.12109,-1.08593 -0.36328,-1.39453 -0.24219,-0.30859 -0.60547,-0.46289 -1.08984,-0.46289 -0.58204,0 -1.04102,0.18555 -1.37695,0.55664 -0.33594,0.3711 -0.50391,0.87695 -0.50391,1.51758 l 0,3.70898 -1.08398,0 0,-6.5625 1.08398,0 0,1.01953 c 0.25781,-0.39452 0.56054,-0.68945 0.9082,-0.88476 0.35156,-0.19531 0.75586,-0.29297 1.21289,-0.29297 0.75391,0 1.32422,0.23438 1.71094,0.70312 0.38671,0.46485 0.58007,1.1504 0.58008,2.05664"
       id="path5648" />
    <path
       style="font-size:12px;font-style:normal;font-variant:normal;font-weight:normal;font-stretch:normal;text-align:start;line-height:125%;writing-mode:lr-tb;text-anchor:start;fill:#000000;fill-opacity:1;stroke:none;font-family:DejaVu Sans;-inkscape-font-specification:DejaVu Sans"
       d="m 185.11283,147.33447 1.08399,0 0,5.38477 3.21679,-2.83008 1.37696,0 -3.48047,3.07031 3.62695,3.49219 -1.40625,0 -3.33398,-3.20508 0,3.20508 -1.08399,0 0,-9.11719"
       id="path5650" />
    <path
       style="font-size:9px;font-style:normal;font-variant:normal;font-weight:normal;font-stretch:normal;text-align:start;line-height:125%;writing-mode:lr-tb;text-anchor:start;fill:#000000;fill-opacity:1;stroke:none;font-family:DejaVu Sans;-inkscape-font-specification:DejaVu Sans"
       d="m 160.23752,147.06346 0,2.9707 -0.80859,0 0,-2.94433 c -1e-5,-0.46582 -0.0908,-0.81445 -0.27246,-1.0459 -0.18165,-0.23144 -0.45411,-0.34717 -0.81738,-0.34717 -0.43653,0 -0.78077,0.13916 -1.03272,0.41748 -0.25195,0.27832 -0.37793,0.65772 -0.37793,1.13818 l 0,2.78174 -0.81299,0 0,-4.92187 0.81299,0 0,0.76465 c 0.19336,-0.2959 0.42041,-0.51709 0.68115,-0.66358 0.26367,-0.14648 0.5669,-0.21972 0.90967,-0.21972 0.56543,0 0.99316,0.17578 1.2832,0.52734 0.29004,0.34864 0.43506,0.8628 0.43506,1.54248"
       id="path5653" />
    <path
       style="font-size:12px;font-style:normal;font-variant:normal;font-weight:normal;font-stretch:normal;text-align:start;line-height:125%;writing-mode:lr-tb;text-anchor:start;fill:#000000;fill-opacity:1;stroke:none;font-family:DejaVu Sans;-inkscape-font-specification:DejaVu Sans"
       d="m 205.08361,148.02588 0,1.86328 2.2207,0 0,0.83789 -2.2207,0 0,3.5625 c -1e-5,0.53516 0.0723,0.87891 0.21679,1.03125 0.14844,0.15235 0.44726,0.22852 0.89649,0.22852 l 1.10742,0 0,0.90234 -1.10742,0 c -0.83204,0 -1.40626,-0.1543 -1.72266,-0.46289 -0.31641,-0.3125 -0.47461,-0.87891 -0.47461,-1.69922 l 0,-3.5625 -0.79101,0 0,-0.83789 0.79101,0 0,-1.86328 1.08399,0"
       id="path5656" />
    <path
       style="font-size:12px;font-style:normal;font-variant:normal;font-weight:normal;font-stretch:normal;text-align:start;line-height:125%;writing-mode:lr-tb;text-anchor:start;fill:#000000;fill-opacity:1;stroke:none;font-family:DejaVu Sans;-inkscape-font-specification:DejaVu Sans"
       d="m 231.79064,151.00244 7.51172,0 0,0.98438 -7.51172,0 0,-0.98438"
       id="path5797" />
    <path
       style="font-size:12px;font-style:normal;font-variant:normal;font-weight:normal;font-stretch:normal;text-align:start;line-height:125%;writing-mode:lr-tb;text-anchor:start;fill:#000000;fill-opacity:1;stroke:none;font-family:DejaVu Sans;-inkscape-font-specification:DejaVu Sans"
       d="m 231.79064,153.39307 7.51172,0 0,0.99609 -7.51172,0 0,-0.99609"
       id="path5658" />
    <path
       style="font-size:12px;font-style:normal;font-variant:normal;font-weight:normal;font-stretch:normal;text-align:start;line-height:125%;writing-mode:lr-tb;text-anchor:start;fill:#000000;fill-opacity:1;stroke:none;font-family:DejaVu Sans;-inkscape-font-specification:DejaVu Sans"
       d="m 248.11486,147.34619 c -0.52345,0.89845 -0.91212,1.78712 -1.16602,2.66602 -0.25391,0.87891 -0.38086,1.76953 -0.38086,2.67187 0,0.90235 0.12695,1.79688 0.38086,2.6836 0.25781,0.88281 0.64648,1.77148 1.16602,2.66601 l -0.9375,0 c -0.58594,-0.91797 -1.0254,-1.82031 -1.31836,-2.70703 -0.28907,-0.88672 -0.4336,-1.76758 -0.4336,-2.64258 0,-0.87109 0.14453,-1.74804 0.4336,-2.63086 0.28906,-0.8828 0.72851,-1.78515 1.31836,-2.70703 l 0.9375,0"
       id="path5660" />
    <path
       style="font-size:12px;font-style:normal;font-variant:normal;font-weight:normal;font-stretch:normal;text-align:start;line-height:125%;writing-mode:lr-tb;text-anchor:start;fill:#000000;fill-opacity:1;stroke:none;font-family:DejaVu Sans;-inkscape-font-specification:DejaVu Sans"
       d="m 255.66759,152.49072 0,3.96094 -1.07813,0 0,-3.92578 c 0,-0.62109 -0.12109,-1.08593 -0.36328,-1.39453 -0.24219,-0.30859 -0.60547,-0.46289 -1.08984,-0.46289 -0.58204,0 -1.04102,0.18555 -1.37695,0.55664 -0.33594,0.3711 -0.50391,0.87695 -0.50391,1.51758 l 0,3.70898 -1.08398,0 0,-6.5625 1.08398,0 0,1.01953 c 0.25781,-0.39452 0.56054,-0.68945 0.9082,-0.88476 0.35156,-0.19531 0.75586,-0.29297 1.21289,-0.29297 0.75391,0 1.32422,0.23438 1.71094,0.70312 0.38671,0.46485 0.58007,1.1504 0.58008,2.05664"
       id="path5662" />
    <path
       style="font-size:12px;font-style:normal;font-variant:normal;font-weight:normal;font-stretch:normal;text-align:start;line-height:125%;writing-mode:lr-tb;text-anchor:start;fill:#000000;fill-opacity:1;stroke:none;font-family:DejaVu Sans;-inkscape-font-specification:DejaVu Sans"
       d="m 262.21837,148.92822 0,3.26367 3.26367,0 0,0.9961 -3.26367,0 0,3.26367 -0.98437,0 0,-3.26367 -3.26368,0 0,-0.9961 3.26368,0 0,-3.26367 0.98437,0"
       id="path5664" />
    <path
       style="font-size:12px;font-style:normal;font-variant:normal;font-weight:normal;font-stretch:normal;text-align:start;line-height:125%;writing-mode:lr-tb;text-anchor:start;fill:#000000;fill-opacity:1;stroke:none;font-family:DejaVu Sans;-inkscape-font-specification:DejaVu Sans"
       d="m 268.24181,155.45557 1.93359,0 0,-6.67383 -2.10351,0.42187 0,-1.07812 2.09179,-0.42188 1.1836,0 0,7.75196 1.93359,0 0,0.99609 -5.03906,0 0,-0.99609"
       id="path5666" />
    <path
       style="font-size:12px;font-style:normal;font-variant:normal;font-weight:normal;font-stretch:normal;text-align:start;line-height:125%;writing-mode:lr-tb;text-anchor:start;fill:#000000;fill-opacity:1;stroke:none;font-family:DejaVu Sans;-inkscape-font-specification:DejaVu Sans"
       d="m 275.35509,147.34619 0.9375,0 c 0.58593,0.92188 1.02343,1.82423 1.3125,2.70703 0.29296,0.88282 0.43945,1.75977 0.43945,2.63086 0,0.875 -0.14649,1.75586 -0.43945,2.64258 -0.28907,0.88672 -0.72657,1.78906 -1.3125,2.70703 l -0.9375,0 c 0.51953,-0.89453 0.90625,-1.7832 1.16016,-2.66601 0.25781,-0.88672 0.38671,-1.78125 0.38672,-2.6836 -1e-5,-0.90234 -0.12891,-1.79296 -0.38672,-2.67187 -0.25391,-0.8789 -0.64063,-1.76757 -1.16016,-2.66602"
       id="path5668" />
    <path
       style="font-size:12px;font-style:normal;font-variant:normal;font-weight:normal;font-stretch:normal;text-align:start;line-height:125%;writing-mode:lr-tb;text-anchor:start;fill:#000000;fill-opacity:1;stroke:none;font-family:DejaVu Sans;-inkscape-font-specification:DejaVu Sans"
       d="m 280.1715,147.33447 1.08398,0 0,5.38477 3.2168,-2.83008 1.37695,0 -3.48047,3.07031 3.62696,3.49219 -1.40625,0 -3.33399,-3.20508 0,3.20508 -1.08398,0 0,-9.11719"
       id="path5670" />
    <path
       style="font-size:9px;font-style:normal;font-variant:normal;font-weight:normal;font-stretch:normal;text-align:start;line-height:125%;writing-mode:lr-tb;text-anchor:start;fill:#000000;fill-opacity:1;stroke:none;font-family:DejaVu Sans;-inkscape-font-specification:DejaVu Sans"
       d="m 212.94462,147.06346 0,2.9707 -0.80859,0 0,-2.94433 c -1e-5,-0.46582 -0.0908,-0.81445 -0.27246,-1.0459 -0.18165,-0.23144 -0.45411,-0.34717 -0.81738,-0.34717 -0.43653,0 -0.78077,0.13916 -1.03272,0.41748 -0.25195,0.27832 -0.37793,0.65772 -0.37793,1.13818 l 0,2.78174 -0.81299,0 0,-4.92187 0.81299,0 0,0.76465 c 0.19336,-0.2959 0.42041,-0.51709 0.68115,-0.66358 0.26367,-0.14648 0.56689,-0.21972 0.90967,-0.21972 0.56543,0 0.99316,0.17578 1.2832,0.52734 0.29004,0.34864 0.43506,0.8628 0.43506,1.54248"
       id="path5673" />
    <path
       style="font-size:9px;font-style:normal;font-variant:normal;font-weight:normal;font-stretch:normal;text-align:start;line-height:125%;writing-mode:lr-tb;text-anchor:start;fill:#000000;fill-opacity:1;stroke:none;font-family:DejaVu Sans;-inkscape-font-specification:DejaVu Sans"
       d="m 217.85771,144.39158 0,2.44776 2.44775,0 0,0.74707 -2.44775,0 0,2.44775 -0.73828,0 0,-2.44775 -2.44776,0 0,-0.74707 2.44776,0 0,-2.44776 0.73828,0"
       id="path5675" />
    <path
       style="font-size:9px;font-style:normal;font-variant:normal;font-weight:normal;font-stretch:normal;text-align:start;line-height:125%;writing-mode:lr-tb;text-anchor:start;fill:#000000;fill-opacity:1;stroke:none;font-family:DejaVu Sans;-inkscape-font-specification:DejaVu Sans"
       d="m 222.37529,149.28709 1.45019,0 0,-5.00537 -1.57763,0.31641 0,-0.8086 1.56884,-0.3164 0.8877,0 0,5.81396 1.45019,0 0,0.74707 -3.77929,0 0,-0.74707"
       id="path5677" />
  </g>
</svg>
