<?xml version="1.0" encoding="UTF-8" standalone="no"?>
<!-- Created with Inkscape (http://www.inkscape.org/) -->

<svg
   xmlns:dc="http://purl.org/dc/elements/1.1/"
   xmlns:cc="http://creativecommons.org/ns#"
   xmlns:rdf="http://www.w3.org/1999/02/22-rdf-syntax-ns#"
   xmlns:svg="http://www.w3.org/2000/svg"
   xmlns="http://www.w3.org/2000/svg"
   xmlns:sodipodi="http://sodipodi.sourceforge.net/DTD/sodipodi-0.dtd"
   xmlns:inkscape="http://www.inkscape.org/namespaces/inkscape"
   width="260"
   height="180"
   id="svg2"
   version="1.1"
   inkscape:version="0.47 r22583"
   sodipodi:docname="2010-(11)nov-04 figur 3.svg">
  <defs
     id="defs4" />
  <sodipodi:namedview
     id="base"
     pagecolor="#ffffff"
     bordercolor="#666666"
     borderopacity="1.0"
     inkscape:pageopacity="0.0"
     inkscape:pageshadow="2"
     inkscape:zoom="2.8284271"
     inkscape:cx="138.42839"
     inkscape:cy="46.876176"
     inkscape:document-units="px"
     inkscape:current-layer="layer1"
     showgrid="false"
     inkscape:window-width="1589"
     inkscape:window-height="1117"
     inkscape:window-x="1600"
     inkscape:window-y="27"
     inkscape:window-maximized="1"
     showguides="true"
     inkscape:guide-bbox="true"
     inkscape:snap-midpoints="true"
     inkscape:snap-global="false" />
  <metadata
     id="metadata7">
    <rdf:RDF>
      <cc:Work
         rdf:about="">
        <dc:format>image/svg+xml</dc:format>
        <dc:type
           rdf:resource="http://purl.org/dc/dcmitype/StillImage" />
        <dc:title />
      </cc:Work>
    </rdf:RDF>
  </metadata>
  <g
     inkscape:label="Layer 1"
     inkscape:groupmode="layer"
     id="layer1">
    <path
       style="font-size:12px;font-style:normal;font-variant:normal;font-weight:normal;font-stretch:normal;fill:#000000;fill-opacity:1;stroke:none;font-family:DejaVu Sans;-inkscape-font-specification:DejaVu Sans"
       d="m 69.4375,92.720591 c -0.980471,9e-6 -1.730471,0.378914 -2.25,1.15625 -0.515626,0.773444 -0.781251,1.898443 -0.78125,3.375 -10e-7,1.472659 0.265624,2.597656 0.78125,3.375009 0.519529,0.77343 1.269529,1.15625 2.25,1.15625 0.980464,0 1.734369,-0.38282 2.25,-1.15625 0.519524,-0.777353 0.781243,-1.90235 0.78125,-3.375009 -7e-6,-1.476557 -0.261726,-2.601556 -0.78125,-3.375 -0.515631,-0.777336 -1.269536,-1.156241 -2.25,-1.15625 z m 0,0.9375 c 0.613277,8e-6 1.070308,0.304695 1.375,0.90625 0.308589,0.597662 0.468744,1.48438 0.46875,2.6875 -6e-6,1.199221 -0.160161,2.117193 -0.46875,2.718756 -0.304692,0.597653 -0.761723,0.875003 -1.375,0.875003 -0.609378,0 -1.066409,-0.27734 -1.375,-0.875003 -0.30469,-0.601563 -0.468752,-1.519535 -0.46875,-2.718756 -2e-6,-1.20312 0.16406,-2.089838 0.46875,-2.6875 0.308591,-0.601555 0.765622,-0.906242 1.375,-0.90625 z"
       id="path6934" />
    <path
       style="font-size:12px;font-style:normal;font-variant:normal;font-weight:normal;font-stretch:normal;fill:#000000;fill-opacity:1;stroke:none;font-family:DejaVu Sans;-inkscape-font-specification:DejaVu Sans"
       d="m 69.84375,52.876841 -3.625,5.53125 0,1.15625 3.9375,0 0,2.0625 1.1875,0 0,-2.0625 1.25,0 0,-0.96875 -1.25,0 0,-5.71875 -1.5,0 z m 0.3125,1.03125 0,4.6875 -3,0 3,-4.6875 z"
       id="path6940" />
    <path
       style="font-size:12px;font-style:normal;font-variant:normal;font-weight:normal;font-stretch:normal;fill:#000000;fill-opacity:1;stroke:none;font-family:DejaVu Sans;-inkscape-font-specification:DejaVu Sans"
       d="m 110.09375,52.720591 c -1.10547,9e-6 -2.00001,0.42579 -2.65625,1.25 -0.65626,0.820319 -0.96875,1.898443 -0.96875,3.28125 0,1.472659 0.24609,2.597658 0.78125,3.375 0.53515,0.773437 1.33203,1.15625 2.34375,1.15625 0.88281,0 1.5625,-0.269532 2.09375,-0.8125 0.53125,-0.542968 0.81249,-1.25781 0.8125,-2.15625 -1e-5,-0.917965 -0.26954,-1.624995 -0.78125,-2.15625 -0.50782,-0.535151 -1.1836,-0.812494 -2.0625,-0.8125 -0.41797,6e-6 -0.80859,0.09766 -1.15625,0.28125 -0.34766,0.179693 -0.64454,0.441412 -0.875,0.78125 0.0586,-1.0664 0.30859,-1.878899 0.71875,-2.40625 0.41406,-0.527336 1,-0.781242 1.78125,-0.78125 0.29687,8e-6 0.60547,0.01954 0.90625,0.09375 0.30469,0.07423 0.60937,0.203133 0.90625,0.34375 l 0,-1.09375 c -0.32813,-0.117178 -0.66407,-0.1914 -0.96875,-0.25 -0.30079,-0.05858 -0.57813,-0.09374 -0.875,-0.09375 z m -0.5,4.0625 c 0.53124,5e-6 0.9414,0.167973 1.25,0.53125 0.3125,0.363285 0.46875,0.867191 0.46875,1.5 0,0.628909 -0.15625,1.132814 -0.46875,1.5 -0.3086,0.363282 -0.71876,0.531251 -1.25,0.53125 -0.53126,1e-6 -0.96875,-0.167968 -1.28125,-0.53125 -0.30859,-0.367186 -0.46875,-0.871091 -0.46875,-1.5 0,-0.632809 0.16016,-1.136715 0.46875,-1.5 0.3125,-0.363277 0.74999,-0.531245 1.28125,-0.53125 z"
       id="path6946" />
    <path
       style="font-size:12px;font-style:normal;font-variant:normal;font-weight:normal;font-stretch:normal;fill:#000000;fill-opacity:1;stroke:none;font-family:DejaVu Sans;-inkscape-font-specification:DejaVu Sans"
       d="m 48.28125,114.4706 c -0.980471,10e-6 -1.730471,0.37891 -2.25,1.15625 -0.515626,0.77344 -0.781251,1.89844 -0.78125,3.375 -10e-7,1.47266 0.265624,2.59765 0.78125,3.375 0.519529,0.77343 1.269529,1.15625 2.25,1.15625 0.980464,0 1.703119,-0.38282 2.21875,-1.15625 0.519524,-0.77735 0.781243,-1.90234 0.78125,-3.375 -7e-6,-1.47656 -0.261726,-2.60156 -0.78125,-3.375 -0.515631,-0.77734 -1.238286,-1.15624 -2.21875,-1.15625 z m 0,0.9375 c 0.613277,10e-6 1.070308,0.3047 1.375,0.90625 0.308589,0.59767 0.437494,1.48438 0.4375,2.6875 -6e-6,1.19922 -0.128911,2.11719 -0.4375,2.71875 -0.304692,0.59765 -0.761723,0.875 -1.375,0.875 -0.609378,0 -1.097659,-0.27734 -1.40625,-0.875 -0.30469,-0.60156 -0.437502,-1.51953 -0.4375,-2.71875 -2e-6,-1.20312 0.13281,-2.08983 0.4375,-2.6875 0.308591,-0.60155 0.796872,-0.90624 1.40625,-0.90625 z"
       id="path6974" />
    <path
       style="font-size:12px;font-style:normal;font-variant:normal;font-weight:normal;font-stretch:normal;fill:#000000;fill-opacity:1;stroke:none;font-family:DejaVu Sans;-inkscape-font-specification:DejaVu Sans"
       d="m 30.28125,104.4706 c -0.980471,10e-6 -1.730471,0.37891 -2.25,1.15625 -0.515626,0.77344 -0.781251,1.89844 -0.78125,3.375 -1e-6,1.47266 0.265624,2.59765 0.78125,3.375 0.519529,0.77343 1.269529,1.15625 2.25,1.15625 0.980464,0 1.703119,-0.38282 2.21875,-1.15625 0.519524,-0.77735 0.781243,-1.90234 0.78125,-3.375 -7e-6,-1.47656 -0.261726,-2.60156 -0.78125,-3.375 -0.515631,-0.77734 -1.238286,-1.15624 -2.21875,-1.15625 z m 0,0.9375 c 0.613277,10e-6 1.070308,0.3047 1.375,0.90625 0.308589,0.59767 0.437494,1.48438 0.4375,2.6875 -6e-6,1.19922 -0.128911,2.11719 -0.4375,2.71875 -0.304692,0.59765 -0.761723,0.875 -1.375,0.875 -0.609378,0 -1.097659,-0.27734 -1.40625,-0.875 -0.30469,-0.60156 -0.437502,-1.51953 -0.4375,-2.71875 -2e-6,-1.20312 0.13281,-2.08983 0.4375,-2.6875 0.308591,-0.60155 0.796872,-0.90624 1.40625,-0.90625 z"
       id="path6995" />
    <path
       style="font-size:medium;font-style:normal;font-variant:normal;font-weight:normal;font-stretch:normal;text-indent:0;text-align:start;text-decoration:none;line-height:normal;letter-spacing:normal;word-spacing:normal;text-transform:none;direction:ltr;block-progression:tb;writing-mode:lr-tb;text-anchor:start;color:#000000;fill:#000000;fill-opacity:1;stroke:none;stroke-width:0.99998909;marker:none;visibility:visible;display:inline;overflow:visible;enable-background:accumulate;font-family:Andale Mono;-inkscape-font-specification:Andale Mono"
       d="m 39.09375,28.501841 0,80.375009 1,0 0,-80.375009 -1,0 z"
       id="path3049" />
    <path
       style="font-size:medium;font-style:normal;font-variant:normal;font-weight:normal;font-stretch:normal;text-indent:0;text-align:start;text-decoration:none;line-height:normal;letter-spacing:normal;word-spacing:normal;text-transform:none;direction:ltr;block-progression:tb;writing-mode:lr-tb;text-anchor:start;color:#000000;fill:#000000;fill-opacity:1;stroke:none;stroke-width:0.93544096px;marker:none;visibility:visible;display:inline;overflow:visible;enable-background:accumulate;font-family:Andale Mono;-inkscape-font-specification:Andale Mono"
       d="m 39.09375,28.501841 0,0.9375 80.4375,0 0,-0.9375 -80.4375,0 z"
       id="path3051" />
    <path
       style="font-size:medium;font-style:normal;font-variant:normal;font-weight:normal;font-stretch:normal;text-indent:0;text-align:start;text-decoration:none;line-height:normal;letter-spacing:normal;word-spacing:normal;text-transform:none;direction:ltr;block-progression:tb;writing-mode:lr-tb;text-anchor:start;color:#000000;fill:#000000;fill-opacity:1;stroke:none;stroke-width:0.93544096px;marker:none;visibility:visible;display:inline;overflow:visible;enable-background:accumulate;font-family:Andale Mono;-inkscape-font-specification:Andale Mono"
       d="m 39.09375,68.533091 0,0.9375 80.4375,0 0,-0.9375 -80.4375,0 z"
       id="path3053" />
    <path
       style="font-size:medium;font-style:normal;font-variant:normal;font-weight:normal;font-stretch:normal;text-indent:0;text-align:start;text-decoration:none;line-height:normal;letter-spacing:normal;word-spacing:normal;text-transform:none;direction:ltr;block-progression:tb;writing-mode:lr-tb;text-anchor:start;color:#000000;fill:#000000;fill-opacity:1;stroke:none;stroke-width:0.93544096px;marker:none;visibility:visible;display:inline;overflow:visible;enable-background:accumulate;font-family:Andale Mono;-inkscape-font-specification:Andale Mono"
       d="m 39.09375,108.56435 0,0.9375 80.4375,0 0,-0.9375 -80.4375,0 z"
       id="path3827" />
    <path
       style="font-size:medium;font-style:normal;font-variant:normal;font-weight:normal;font-stretch:normal;text-indent:0;text-align:start;text-decoration:none;line-height:normal;letter-spacing:normal;word-spacing:normal;text-transform:none;direction:ltr;block-progression:tb;writing-mode:lr-tb;text-anchor:start;color:#000000;fill:#000000;fill-opacity:1;stroke:none;stroke-width:0.99998909;marker:none;visibility:visible;display:inline;overflow:visible;enable-background:accumulate;font-family:Andale Mono;-inkscape-font-specification:Andale Mono"
       d="m 79.125,28.501841 0,80.375009 1,0 0,-80.375009 -1,0 z"
       id="path3829" />
    <path
       style="font-size:medium;font-style:normal;font-variant:normal;font-weight:normal;font-stretch:normal;text-indent:0;text-align:start;text-decoration:none;line-height:normal;letter-spacing:normal;word-spacing:normal;text-transform:none;direction:ltr;block-progression:tb;writing-mode:lr-tb;text-anchor:start;color:#000000;fill:#000000;fill-opacity:1;stroke:none;stroke-width:0.99998909;marker:none;visibility:visible;display:inline;overflow:visible;enable-background:accumulate;font-family:Andale Mono;-inkscape-font-specification:Andale Mono"
       d="m 119.125,28.501841 0,80.375009 1,0 0,-80.375009 -1,0 z"
       id="path3831" />
    <path
       style="font-size:medium;font-style:normal;font-variant:normal;font-weight:normal;font-stretch:normal;text-indent:0;text-align:start;text-decoration:none;line-height:normal;letter-spacing:normal;word-spacing:normal;text-transform:none;direction:ltr;block-progression:tb;writing-mode:lr-tb;text-anchor:start;color:#000000;fill:#000000;fill-opacity:1;stroke:none;stroke-width:1px;marker:none;visibility:visible;display:inline;overflow:visible;enable-background:accumulate;font-family:Andale Mono;-inkscape-font-specification:Andale Mono"
       d="m 79.21875,28.720591 -40.0625,39.9375 0.71875,0.71875 40.03125,-39.9375 -0.6875,-0.71875 z"
       id="path3833" />
    <path
       style="font-size:medium;font-style:normal;font-variant:normal;font-weight:normal;font-stretch:normal;text-indent:0;text-align:start;text-decoration:none;line-height:normal;letter-spacing:normal;word-spacing:normal;text-transform:none;direction:ltr;block-progression:tb;writing-mode:lr-tb;text-anchor:start;color:#000000;fill:#000000;fill-opacity:1;stroke:none;stroke-width:1px;marker:none;visibility:visible;display:inline;overflow:visible;enable-background:accumulate;font-family:Andale Mono;-inkscape-font-specification:Andale Mono"
       d="m 119.21875,28.720591 -40.0625,39.9375 0.71875,0.71875 40.03125,-39.9375 -0.6875,-0.71875 z"
       id="path3835" />
    <path
       style="font-size:medium;font-style:normal;font-variant:normal;font-weight:normal;font-stretch:normal;text-indent:0;text-align:start;text-decoration:none;line-height:normal;letter-spacing:normal;word-spacing:normal;text-transform:none;direction:ltr;block-progression:tb;writing-mode:lr-tb;text-anchor:start;color:#000000;fill:#000000;fill-opacity:1;stroke:none;stroke-width:1px;marker:none;visibility:visible;display:inline;overflow:visible;enable-background:accumulate;font-family:Andale Mono;-inkscape-font-specification:Andale Mono"
       d="m 79.21875,68.720591 -40.0625,39.937509 0.71875,0.71875 40.03125,-39.937509 -0.6875,-0.71875 z"
       id="path3837" />
    <path
       style="font-size:medium;font-style:normal;font-variant:normal;font-weight:normal;font-stretch:normal;text-indent:0;text-align:start;text-decoration:none;line-height:normal;letter-spacing:normal;word-spacing:normal;text-transform:none;direction:ltr;block-progression:tb;writing-mode:lr-tb;text-anchor:start;color:#000000;fill:#000000;fill-opacity:1;stroke:none;stroke-width:1px;marker:none;visibility:visible;display:inline;overflow:visible;enable-background:accumulate;font-family:Andale Mono;-inkscape-font-specification:Andale Mono"
       d="m 119.21875,68.720591 -40.0625,39.937509 0.71875,0.71875 40.03125,-39.937509 -0.6875,-0.71875 z"
       id="path3839" />
    <path
       style="font-size:12px;font-style:normal;font-variant:normal;font-weight:normal;font-stretch:normal;fill:#000000;fill-opacity:1;stroke:none;font-family:DejaVu Sans;-inkscape-font-specification:DejaVu Sans"
       d="m 47.099195,84.225306 1.933594,0 0,-6.673828 -2.103516,0.421875 0,-1.078125 2.091797,-0.421875 1.183594,0 0,7.751953 1.933594,0 0,0.996094 -5.039063,0 0,-0.996094"
       id="path6931" />
    <path
       style="font-size:12px;font-style:normal;font-variant:normal;font-weight:normal;font-stretch:normal;fill:#000000;fill-opacity:1;stroke:none;font-family:DejaVu Sans;-inkscape-font-specification:DejaVu Sans"
       d="m 46.905836,36.473353 4.646484,0 0,0.996094 -3.5625,0 0,2.144531 c 0.171873,-0.05859 0.343748,-0.101557 0.515625,-0.128906 0.171872,-0.03124 0.343747,-0.04687 0.515625,-0.04687 0.976558,6e-6 1.749995,0.267583 2.320313,0.802734 0.570306,0.535161 0.855462,1.25977 0.855469,2.173828 -7e-6,0.941408 -0.292976,1.67383 -0.878907,2.197266 -0.585942,0.519531 -1.412113,0.779297 -2.478515,0.779297 -0.367191,0 -0.74219,-0.03125 -1.125,-0.09375 -0.378908,-0.0625 -0.771486,-0.15625 -1.177735,-0.28125 l 0,-1.189453 c 0.351561,0.191407 0.714842,0.333985 1.089844,0.427734 0.374998,0.09375 0.771482,0.140626 1.189453,0.140625 0.675777,1e-6 1.210933,-0.177733 1.605469,-0.533203 0.394526,-0.355467 0.591791,-0.837888 0.591797,-1.447266 -6e-6,-0.609371 -0.197271,-1.091793 -0.591797,-1.447265 -0.394536,-0.355464 -0.929692,-0.533199 -1.605469,-0.533203 -0.316409,4e-6 -0.632815,0.03516 -0.949219,0.105468 -0.312502,0.07032 -0.632814,0.179692 -0.960937,0.328125 l 0,-4.394531"
       id="path6937" />
    <path
       style="font-size:12px;font-style:normal;font-variant:normal;font-weight:normal;font-stretch:normal;fill:#000000;fill-opacity:1;stroke:none;font-family:DejaVu Sans;-inkscape-font-specification:DejaVu Sans"
       d="m 86.595285,36.473353 5.625,0 0,0.503906 -3.175781,8.244141 -1.236328,0 2.988281,-7.751953 -4.201172,0 0,-0.996094"
       id="path6943" />
    <path
       style="font-size:12px;font-style:normal;font-variant:normal;font-weight:normal;font-stretch:normal;fill:#000000;fill-opacity:1;stroke:none;font-family:DejaVu Sans;-inkscape-font-specification:DejaVu Sans"
       d="m 90.480051,80.504603 c 0.5664,0.121098 1.007806,0.373051 1.324218,0.755859 0.320306,0.382817 0.480462,0.855472 0.480469,1.417969 -7e-6,0.863283 -0.296881,1.531251 -0.890625,2.003906 -0.593755,0.472657 -1.437504,0.708985 -2.53125,0.708985 -0.36719,0 -0.746096,-0.03711 -1.136719,-0.111328 -0.38672,-0.07031 -0.78711,-0.177735 -1.201171,-0.322266 l 0,-1.142578 c 0.328123,0.191407 0.687498,0.335939 1.078125,0.433594 0.390622,0.09766 0.798825,0.146485 1.224609,0.146484 0.742183,10e-7 1.306636,-0.146483 1.693359,-0.439453 0.39062,-0.292967 0.585932,-0.718748 0.585938,-1.277344 -6e-6,-0.515622 -0.181646,-0.917965 -0.544922,-1.207031 -0.35938,-0.292965 -0.861332,-0.439449 -1.505859,-0.439453 l -1.019532,0 0,-0.972656 1.066407,0 c 0.582027,5e-6 1.027339,-0.11523 1.335937,-0.345704 0.308589,-0.234369 0.462885,-0.570306 0.462891,-1.007812 -6e-6,-0.449212 -0.160162,-0.792962 -0.480469,-1.03125 -0.316411,-0.24218 -0.771489,-0.363273 -1.365234,-0.363281 -0.324222,8e-6 -0.671878,0.03516 -1.042969,0.105468 -0.371096,0.07032 -0.779299,0.179696 -1.22461,0.328125 l 0,-1.054687 c 0.449217,-0.124991 0.869139,-0.218741 1.259766,-0.28125 0.394528,-0.06249 0.765622,-0.09374 1.113281,-0.09375 0.898433,9e-6 1.60937,0.205087 2.132813,0.615234 0.523431,0.406258 0.78515,0.957039 0.785156,1.652344 -6e-6,0.484381 -0.138678,0.894537 -0.416016,1.230469 -0.277349,0.332036 -0.67188,0.562505 -1.183593,0.691406"
       id="path6949" />
    <path
       style="font-size:12px;font-style:normal;font-variant:normal;font-weight:normal;font-stretch:normal;fill:#000000;fill-opacity:1;stroke:none;font-family:DejaVu Sans;-inkscape-font-specification:DejaVu Sans"
       d="m 107.92246,100.63239 4.13086,0 0,0.99609 -5.55468,0 0,-0.99609 c 0.44921,-0.46485 1.06054,-1.087896 1.83398,-1.869153 0.77734,-0.785153 1.26562,-1.291012 1.46484,-1.517579 0.37891,-0.425776 0.64258,-0.785151 0.79102,-1.078125 0.15234,-0.296869 0.22851,-0.587884 0.22852,-0.873046 -10e-6,-0.464837 -0.16407,-0.843743 -0.49219,-1.136719 -0.32422,-0.292961 -0.74805,-0.439445 -1.27149,-0.439453 -0.37109,8e-6 -0.76367,0.06446 -1.17773,0.193359 -0.41016,0.128914 -0.84961,0.324226 -1.31836,0.585938 l 0,-1.195313 c 0.47656,-0.191398 0.92187,-0.335929 1.33594,-0.433594 0.41406,-0.09765 0.79296,-0.146475 1.13672,-0.146484 0.90624,9e-6 1.6289,0.226571 2.16797,0.679687 0.53905,0.453133 0.80858,1.058601 0.80859,1.816407 -1e-5,0.359381 -0.0684,0.701177 -0.20508,1.02539 -0.13282,0.320318 -0.37696,0.699224 -0.73242,1.136719 -0.0977,0.113285 -0.40821,0.44141 -0.93164,0.984375 -0.52344,0.539065 -1.26172,1.294928 -2.21485,2.267591"
       id="path6952" />
    <path
       style="fill:#000000;fill-opacity:1;stroke:none"
       d="m 40.985913,28.885407 c 0,0.759392 -0.615608,1.375 -1.375,1.375 -0.759392,0 -1.375,-0.615608 -1.375,-1.375 0,-0.759391 0.615608,-1.375 1.375,-1.375 0.759392,0 1.375,0.615609 1.375,1.375 z"
       id="path5710" />
    <path
       style="fill:#000000;fill-opacity:1;stroke:none"
       d="m 80.985913,28.885407 c 0,0.759392 -0.615608,1.375 -1.375,1.375 -0.759392,0 -1.375,-0.615608 -1.375,-1.375 0,-0.759391 0.615608,-1.375 1.375,-1.375 0.759392,0 1.375,0.615609 1.375,1.375 z"
       id="path5712" />
    <path
       style="fill:#000000;fill-opacity:1;stroke:none"
       d="m 120.98591,28.885407 c 0,0.759392 -0.61561,1.375 -1.375,1.375 -0.75939,0 -1.375,-0.615608 -1.375,-1.375 0,-0.759391 0.61561,-1.375 1.375,-1.375 0.75939,0 1.375,0.615609 1.375,1.375 z"
       id="path5714" />
    <path
       style="fill:#000000;fill-opacity:1;stroke:none"
       d="m 40.985913,68.885407 c 0,0.759392 -0.615608,1.375 -1.375,1.375 -0.759392,0 -1.375,-0.615608 -1.375,-1.375 0,-0.759391 0.615608,-1.375 1.375,-1.375 0.759392,0 1.375,0.615609 1.375,1.375 z"
       id="path5716" />
    <path
       style="fill:#000000;fill-opacity:1;stroke:none"
       d="m 80.985913,68.885407 c 0,0.759392 -0.615608,1.375 -1.375,1.375 -0.759392,0 -1.375,-0.615608 -1.375,-1.375 0,-0.759391 0.615608,-1.375 1.375,-1.375 0.759392,0 1.375,0.615609 1.375,1.375 z"
       id="path5718" />
    <path
       style="fill:#000000;fill-opacity:1;stroke:none"
       d="m 120.98591,68.885407 c 0,0.759392 -0.61561,1.375 -1.375,1.375 -0.75939,0 -1.375,-0.615608 -1.375,-1.375 0,-0.759391 0.61561,-1.375 1.375,-1.375 0.75939,0 1.375,0.615609 1.375,1.375 z"
       id="path5720" />
    <path
       style="fill:#000000;fill-opacity:1;stroke:none"
       d="m 40.985913,108.88542 c 0,0.75939 -0.615608,1.375 -1.375,1.375 -0.759392,0 -1.375,-0.61561 -1.375,-1.375 0,-0.7594 0.615608,-1.375 1.375,-1.375 0.759392,0 1.375,0.6156 1.375,1.375 z"
       id="path5722" />
    <path
       style="fill:#000000;fill-opacity:1;stroke:none"
       d="m 80.985913,108.88542 c 0,0.75939 -0.615608,1.375 -1.375,1.375 -0.759392,0 -1.375,-0.61561 -1.375,-1.375 0,-0.7594 0.615608,-1.375 1.375,-1.375 0.759392,0 1.375,0.6156 1.375,1.375 z"
       id="path5724" />
    <path
       style="fill:#000000;fill-opacity:1;stroke:none"
       d="m 120.98591,108.88542 c 0,0.75939 -0.61561,1.375 -1.375,1.375 -0.75939,0 -1.375,-0.61561 -1.375,-1.375 0,-0.7594 0.61561,-1.375 1.375,-1.375 0.75939,0 1.375,0.6156 1.375,1.375 z"
       id="path5726" />
    <path
       style="font-size:medium;font-style:normal;font-variant:normal;font-weight:normal;font-stretch:normal;text-indent:0;text-align:start;text-decoration:none;line-height:normal;letter-spacing:normal;word-spacing:normal;text-transform:none;direction:ltr;block-progression:tb;writing-mode:lr-tb;text-anchor:start;color:#000000;fill:#000000;fill-opacity:1;stroke:none;stroke-width:0.93544096px;marker:none;visibility:visible;display:inline;overflow:visible;enable-background:accumulate;font-family:Andale Mono;-inkscape-font-specification:Andale Mono"
       d="m 167.58763,92.999974 0,0.90625 70.6875,0 0,-0.90625 -70.6875,0 z"
       id="path5728" />
    <path
       style="font-size:12px;fill-rule:evenodd;stroke-width:0.625;stroke-linejoin:round"
       d="m 228.28823,89.301561 11.24256,4.134176 -11.24256,4.134175 c 1.79609,-2.440816 1.78574,-5.780275 0,-8.268351 z"
       id="path7040" />
    <path
       style="fill:#000000;fill-opacity:1;stroke:none"
       d="m 179.75368,93.331582 c 0,0.759392 -0.61561,1.375 -1.375,1.375 -0.75939,0 -1.375,-0.615608 -1.375,-1.375 0,-0.759391 0.61561,-1.375 1.375,-1.375 0.75939,0 1.375,0.615609 1.375,1.375 z"
       id="path5730" />
    <path
       style="fill:#000000;fill-opacity:1;stroke:none"
       d="m 199.75368,93.331582 c 0,0.759392 -0.61561,1.375 -1.375,1.375 -0.75939,0 -1.375,-0.615608 -1.375,-1.375 0,-0.759391 0.61561,-1.375 1.375,-1.375 0.75939,0 1.375,0.615609 1.375,1.375 z"
       id="path5732" />
    <path
       style="fill:#000000;fill-opacity:1;stroke:none"
       d="m 219.75368,93.331582 c 0,0.759392 -0.61561,1.375 -1.375,1.375 -0.75939,0 -1.375,-0.615608 -1.375,-1.375 0,-0.759391 0.61561,-1.375 1.375,-1.375 0.75939,0 1.375,0.615609 1.375,1.375 z"
       id="path5734" />
    <path
       style="font-size:12px;font-style:normal;font-variant:normal;font-weight:normal;font-stretch:normal;fill:#000000;fill-opacity:1;stroke:none;font-family:DejaVu Sans;-inkscape-font-specification:DejaVu Sans"
       d="m 249.15017,90.262244 -2.37305,3.193359 2.49609,3.369141 -1.27148,0 -1.91016,-2.578125 -1.91015,2.578125 -1.27149,0 2.54883,-3.433594 -2.33203,-3.128906 1.27148,0 1.74024,2.337891 1.74023,-2.337891 1.27149,0"
       id="path6967" />
    <path
       style="font-size:12px;font-style:normal;font-variant:normal;font-weight:normal;font-stretch:normal;fill:#000000;fill-opacity:1;stroke:none;font-family:DejaVu Sans;-inkscape-font-specification:DejaVu Sans"
       d="m 33.882398,116.81608 -2.373047,3.19336 2.496093,3.36914 -1.271484,0 -1.910156,-2.57813 -1.910156,2.57813 -1.271485,0 2.548828,-3.43359 -2.332031,-3.12891 1.271484,0 1.740235,2.33789 1.740234,-2.33789 1.271485,0"
       id="path6970" />
    <path
       style="font-size:12px;font-style:normal;font-variant:normal;font-weight:normal;font-stretch:normal;fill:#000000;fill-opacity:1;stroke:none;font-family:DejaVu Sans;-inkscape-font-specification:DejaVu Sans"
       d="m 35.669507,117.92936 7.511719,0 0,0.98438 -7.511719,0 0,-0.98438"
       id="path7184" />
    <path
       style="font-size:12px;font-style:normal;font-variant:normal;font-weight:normal;font-stretch:normal;fill:#000000;fill-opacity:1;stroke:none;font-family:DejaVu Sans;-inkscape-font-specification:DejaVu Sans"
       d="m 35.669507,120.31999 7.511719,0 0,0.99609 -7.511719,0 0,-0.99609"
       id="path6972" />
    <path
       style="font-size:12px;font-style:normal;font-variant:normal;font-weight:normal;font-stretch:normal;fill:#000000;fill-opacity:1;stroke:none;font-family:DejaVu Sans;-inkscape-font-specification:DejaVu Sans"
       d="m 73.882398,116.81608 -2.373047,3.19336 2.496093,3.36914 -1.271484,0 -1.910156,-2.57813 -1.910156,2.57813 -1.271485,0 2.548828,-3.43359 -2.332031,-3.12891 1.271484,0 1.740235,2.33789 1.740234,-2.33789 1.271485,0"
       id="path6977" />
    <path
       style="font-size:12px;font-style:normal;font-variant:normal;font-weight:normal;font-stretch:normal;fill:#000000;fill-opacity:1;stroke:none;font-family:DejaVu Sans;-inkscape-font-specification:DejaVu Sans"
       d="m 75.669507,117.92936 7.511719,0 0,0.98438 -7.511719,0 0,-0.98438"
       id="path7174" />
    <path
       style="font-size:12px;font-style:normal;font-variant:normal;font-weight:normal;font-stretch:normal;fill:#000000;fill-opacity:1;stroke:none;font-family:DejaVu Sans;-inkscape-font-specification:DejaVu Sans"
       d="m 75.669507,120.31999 7.511719,0 0,0.99609 -7.511719,0 0,-0.99609"
       id="path6979" />
    <path
       style="font-size:12px;font-style:normal;font-variant:normal;font-weight:normal;font-stretch:normal;fill:#000000;fill-opacity:1;stroke:none;font-family:DejaVu Sans;-inkscape-font-specification:DejaVu Sans"
       d="m 85.366773,118.81999 1.195312,0 0,-3.58008 -1.306641,0.24023 0,-0.67969 1.347657,-0.22851 0.802734,0 0,4.24805 1.201172,0 0,0.64453 -3.240234,0 0,-0.64453"
       id="path7170" />
    <path
       style="font-size:12px;font-style:normal;font-variant:normal;font-weight:normal;font-stretch:normal;fill:#000000;fill-opacity:1;stroke:none;font-family:DejaVu Sans;-inkscape-font-specification:DejaVu Sans"
       d="m 92.837476,122.71061 2.484375,0 0,0.66797 -3.503907,0 0,-0.64453 c 0.132805,-0.12109 0.322258,-0.29102 0.56836,-0.50977 1.34374,-1.1914 2.015615,-1.9707 2.015625,-2.33789 -10e-6,-0.25781 -0.101573,-0.46484 -0.304688,-0.62109 -0.203134,-0.16015 -0.470712,-0.24023 -0.802734,-0.24024 -0.203134,1e-5 -0.423837,0.0352 -0.66211,0.10547 -0.238289,0.0664 -0.498054,0.16798 -0.779296,0.30469 l 0,-0.7207 c 0.300773,-0.10937 0.58007,-0.1914 0.83789,-0.2461 0.26171,-0.0547 0.503898,-0.082 0.726563,-0.082 0.566396,1e-5 1.019521,0.12892 1.359375,0.38672 0.339833,0.25782 0.509755,0.59766 0.509765,1.01953 -1e-5,0.54298 -0.646494,1.36915 -1.939453,2.47852 -0.218758,0.1875 -0.38868,0.33399 -0.509765,0.43945"
       id="path7168" />
    <path
       style="font-size:12px;font-style:normal;font-variant:normal;font-weight:normal;font-stretch:normal;fill:#000000;fill-opacity:1;stroke:none;font-family:DejaVu Sans;-inkscape-font-specification:DejaVu Sans"
       d="m 92.526929,114.47236 0.9375,0 -5.460938,9.07617 -0.9375,0 5.460938,-9.07617"
       id="path6981" />
    <path
       style="font-size:12px;font-style:normal;font-variant:normal;font-weight:normal;font-stretch:normal;fill:#000000;fill-opacity:1;stroke:none;font-family:DejaVu Sans;-inkscape-font-specification:DejaVu Sans"
       d="m 113.8824,116.81608 -2.37305,3.19336 2.49609,3.36914 -1.27148,0 -1.91016,-2.57813 -1.91015,2.57813 -1.27149,0 2.54883,-3.43359 -2.33203,-3.12891 1.27148,0 1.74024,2.33789 1.74023,-2.33789 1.27149,0"
       id="path6984" />
    <path
       style="font-size:12px;font-style:normal;font-variant:normal;font-weight:normal;font-stretch:normal;fill:#000000;fill-opacity:1;stroke:none;font-family:DejaVu Sans;-inkscape-font-specification:DejaVu Sans"
       d="m 115.66951,117.92936 7.51172,0 0,0.98438 -7.51172,0 0,-0.98438"
       id="path7162" />
    <path
       style="font-size:12px;font-style:normal;font-variant:normal;font-weight:normal;font-stretch:normal;fill:#000000;fill-opacity:1;stroke:none;font-family:DejaVu Sans;-inkscape-font-specification:DejaVu Sans"
       d="m 115.66951,120.31999 7.51172,0 0,0.99609 -7.51172,0 0,-0.99609"
       id="path6986" />
    <path
       style="font-size:12px;font-style:normal;font-variant:normal;font-weight:normal;font-stretch:normal;fill:#000000;fill-opacity:1;stroke:none;font-family:DejaVu Sans;-inkscape-font-specification:DejaVu Sans"
       d="m 125.94099,122.38249 1.93359,0 0,-6.67383 -2.10351,0.42187 0,-1.07812 2.0918,-0.42188 1.18359,0 0,7.75196 1.93359,0 0,0.99609 -5.03906,0 0,-0.99609"
       id="path6988" />
    <path
       style="font-size:12px;font-style:normal;font-variant:normal;font-weight:normal;font-stretch:normal;fill:#000000;fill-opacity:1;stroke:none;font-family:DejaVu Sans;-inkscape-font-specification:DejaVu Sans"
       d="m 13.157788,113.98795 c -0.304691,0.78125 -0.601566,1.29102 -0.890625,1.5293 -0.289065,0.23828 -0.675783,0.35742 -1.160156,0.35742 l -0.861328,0 0,-0.90234 0.632812,0 c 0.296873,0 0.527342,-0.0703 0.691407,-0.21094 0.16406,-0.14062 0.3457,-0.47265 0.544921,-0.99609 l 0.19336,-0.49219 -2.654297,-6.45703 1.142578,0 2.050781,5.13281 2.050782,-5.13281 1.142578,0 -2.882813,7.17187"
       id="path6991" />
    <path
       style="font-size:12px;font-style:normal;font-variant:normal;font-weight:normal;font-stretch:normal;fill:#000000;fill-opacity:1;stroke:none;font-family:DejaVu Sans;-inkscape-font-specification:DejaVu Sans"
       d="m 17.669507,107.92936 7.511719,0 0,0.98438 -7.511719,0 0,-0.98438"
       id="path7154" />
    <path
       style="font-size:12px;font-style:normal;font-variant:normal;font-weight:normal;font-stretch:normal;fill:#000000;fill-opacity:1;stroke:none;font-family:DejaVu Sans;-inkscape-font-specification:DejaVu Sans"
       d="m 17.669507,110.31999 7.511719,0 0,0.99609 -7.511719,0 0,-0.99609"
       id="path6993" />
    <path
       style="font-size:12px;font-style:normal;font-variant:normal;font-weight:normal;font-stretch:normal;fill:#000000;fill-opacity:1;stroke:none;font-family:DejaVu Sans;-inkscape-font-specification:DejaVu Sans"
       d="m 13.157788,73.987944 c -0.304691,0.781249 -0.601566,1.291014 -0.890625,1.529297 -0.289065,0.238279 -0.675783,0.357419 -1.160156,0.357422 l -0.861328,0 0,-0.902344 0.632812,0 c 0.296873,-2e-6 0.527342,-0.07031 0.691407,-0.210938 0.16406,-0.140626 0.3457,-0.472657 0.544921,-0.996093 l 0.19336,-0.492188 -2.654297,-6.457031 1.142578,0 2.050781,5.132812 2.050782,-5.132812 1.142578,0 -2.882813,7.171875"
       id="path6998" />
    <path
       style="font-size:12px;font-style:normal;font-variant:normal;font-weight:normal;font-stretch:normal;fill:#000000;fill-opacity:1;stroke:none;font-family:DejaVu Sans;-inkscape-font-specification:DejaVu Sans"
       d="m 17.669507,67.92935 7.511719,0 0,0.984375 -7.511719,0 0,-0.984375"
       id="path7144" />
    <path
       style="font-size:12px;font-style:normal;font-variant:normal;font-weight:normal;font-stretch:normal;fill:#000000;fill-opacity:1;stroke:none;font-family:DejaVu Sans;-inkscape-font-specification:DejaVu Sans"
       d="m 17.669507,70.319975 7.511719,0 0,0.996094 -7.511719,0 0,-0.996094"
       id="path7000" />
    <path
       style="font-size:12px;font-style:normal;font-variant:normal;font-weight:normal;font-stretch:normal;fill:#000000;fill-opacity:1;stroke:none;font-family:DejaVu Sans;-inkscape-font-specification:DejaVu Sans"
       d="m 27.366773,68.819975 1.195312,0 0,-3.580078 -1.306641,0.240234 0,-0.679687 1.347657,-0.228516 0.802734,0 0,4.248047 1.201172,0 0,0.644531 -3.240234,0 0,-0.644531"
       id="path7140" />
    <path
       style="font-size:12px;font-style:normal;font-variant:normal;font-weight:normal;font-stretch:normal;fill:#000000;fill-opacity:1;stroke:none;font-family:DejaVu Sans;-inkscape-font-specification:DejaVu Sans"
       d="m 34.837476,72.7106 2.484375,0 0,0.667969 -3.503907,0 0,-0.644531 c 0.132805,-0.121093 0.322258,-0.291015 0.56836,-0.509766 1.34374,-1.191404 2.015615,-1.9707 2.015625,-2.337891 -1e-5,-0.257808 -0.101573,-0.464839 -0.304688,-0.621093 -0.203134,-0.160152 -0.470712,-0.24023 -0.802734,-0.240235 -0.203134,5e-6 -0.423837,0.03516 -0.66211,0.105469 -0.238289,0.06641 -0.498054,0.167973 -0.779296,0.304688 l 0,-0.720704 c 0.300773,-0.10937 0.58007,-0.191401 0.83789,-0.246093 0.26171,-0.05468 0.503898,-0.08203 0.726563,-0.08203 0.566396,5e-6 1.019521,0.128912 1.359375,0.386719 0.339833,0.257817 0.509755,0.59766 0.509765,1.019531 -10e-6,0.542972 -0.646494,1.369143 -1.939453,2.478516 -0.218758,0.187501 -0.38868,0.333985 -0.509765,0.439453"
       id="path7138" />
    <path
       style="font-size:12px;font-style:normal;font-variant:normal;font-weight:normal;font-stretch:normal;fill:#000000;fill-opacity:1;stroke:none;font-family:DejaVu Sans;-inkscape-font-specification:DejaVu Sans"
       d="m 34.526929,64.472321 0.9375,0 -5.460938,9.076172 -0.9375,0 5.460938,-9.076172"
       id="path7002" />
    <path
       style="font-size:12px;font-style:normal;font-variant:normal;font-weight:normal;font-stretch:normal;fill:#000000;fill-opacity:1;stroke:none;font-family:DejaVu Sans;-inkscape-font-specification:DejaVu Sans"
       d="m 13.157788,33.987944 c -0.304691,0.781248 -0.601566,1.291014 -0.890625,1.529297 -0.289065,0.238279 -0.675783,0.357419 -1.160156,0.357422 l -0.861328,0 0,-0.902344 0.632812,0 c 0.296873,-2e-6 0.527342,-0.07031 0.691407,-0.210938 0.16406,-0.140626 0.3457,-0.472657 0.544921,-0.996093 l 0.19336,-0.492188 -2.654297,-6.457031 1.142578,0 2.050781,5.132812 2.050782,-5.132812 1.142578,0 -2.882813,7.171875"
       id="path7005" />
    <path
       style="font-size:12px;font-style:normal;font-variant:normal;font-weight:normal;font-stretch:normal;fill:#000000;fill-opacity:1;stroke:none;font-family:DejaVu Sans;-inkscape-font-specification:DejaVu Sans"
       d="m 17.669507,27.92935 7.511719,0 0,0.984375 -7.511719,0 0,-0.984375"
       id="path7132" />
    <path
       style="font-size:12px;font-style:normal;font-variant:normal;font-weight:normal;font-stretch:normal;fill:#000000;fill-opacity:1;stroke:none;font-family:DejaVu Sans;-inkscape-font-specification:DejaVu Sans"
       d="m 17.669507,30.319975 7.511719,0 0,0.996094 -7.511719,0 0,-0.996094"
       id="path7007" />
    <path
       style="font-size:12px;font-style:normal;font-variant:normal;font-weight:normal;font-stretch:normal;fill:#000000;fill-opacity:1;stroke:none;font-family:DejaVu Sans;-inkscape-font-specification:DejaVu Sans"
       d="m 27.940991,32.382475 1.933594,0 0,-6.673828 -2.103516,0.421875 0,-1.078125 2.091797,-0.421875 1.183594,0 0,7.751953 1.933594,0 0,0.996094 -5.039063,0 0,-0.996094"
       id="path7009" />
    <path
       style="font-size:12px;font-style:normal;font-variant:normal;font-weight:normal;font-stretch:normal;fill:#000000;fill-opacity:1;stroke:none;font-family:DejaVu Sans;-inkscape-font-specification:DejaVu Sans"
       d="m 127.20662,108.74186 c 0.54687,0 0.90234,-0.084 1.0664,-0.25195 0.16797,-0.16797 0.25195,-0.53125 0.25196,-1.08985 l 0,-36.953129 c -1e-5,-0.609372 0.0879,-1.052731 0.26367,-1.330078 0.17577,-0.27734 0.48046,-0.468746 0.91406,-0.574219 -0.4336,-0.09765 -0.73829,-0.285152 -0.91406,-0.5625 -0.17579,-0.277339 -0.26368,-0.722651 -0.26367,-1.335937 l 0,-35.953125 c -1e-5,-0.55468 -0.084,-0.916008 -0.25196,-1.083984 -0.16406,-0.171867 -0.51953,-0.257805 -1.0664,-0.257813 l -2.41016,0 0,-0.837891 2.36914,0 c 0.97265,10e-6 1.62109,0.144541 1.94531,0.433594 0.32812,0.285165 0.49219,0.859383 0.49219,1.722656 l 0,35.90625 c 0,0.582037 0.10546,0.986333 0.31641,1.212891 0.21093,0.22266 0.59374,0.333988 1.14843,0.333984 l 0.36329,0 0,0.837891 -0.36329,0 c -0.55469,3e-6 -0.9375,0.113284 -1.14843,0.339844 -0.21095,0.226565 -0.31641,0.634768 -0.31641,1.224609 l 0,36.900397 c 0,0.86328 -0.16407,1.43946 -0.49219,1.72852 -0.32422,0.28906 -0.97266,0.43359 -1.94531,0.43359 l -2.36914,0 0,-0.84375"
       id="path6443" />
    <path
       style="font-size:12px;font-style:normal;font-variant:normal;font-weight:normal;font-stretch:normal;fill:#000000;fill-opacity:1;stroke:none;font-family:DejaVu Sans;-inkscape-font-specification:DejaVu Sans"
       d="m 137.28181,71.844392 1.93359,0 0,-6.673828 -2.10351,0.421875 0,-1.078125 2.0918,-0.421875 1.18359,0 0,7.751953 1.93359,0 0,0.996094 -5.03906,0 0,-0.996094"
       id="path7013" />
    <path
       style="font-size:12px;font-style:normal;font-variant:normal;font-weight:normal;font-stretch:normal;fill:#000000;fill-opacity:1;stroke:none;font-family:DejaVu Sans;-inkscape-font-specification:DejaVu Sans"
       d="m 39.920479,22.205721 c 10e-7,-0.546873 0.08399,-0.902341 0.251953,-1.066407 0.167969,-0.167965 0.53125,-0.251949 1.089844,-0.251953 l 36.953125,0 c 0.609372,4e-6 1.052731,-0.08789 1.330078,-0.263672 0.27734,-0.175777 0.468746,-0.480464 0.574219,-0.914062 0.09765,0.433598 0.285152,0.738285 0.5625,0.914062 0.277339,0.175785 0.722651,0.263676 1.335937,0.263672 l 35.953125,0 c 0.55468,4e-6 0.91601,0.08399 1.08398,0.251953 0.17187,0.164066 0.25781,0.519534 0.25782,1.066407 l 0,2.410156 0.83789,0 0,-2.369141 c -10e-6,-0.972653 -0.14454,-1.62109 -0.4336,-1.945312 -0.28516,-0.328121 -0.85938,-0.492183 -1.72265,-0.492188 l -35.906252,0 c -0.582037,5e-6 -0.986333,-0.105464 -1.212891,-0.316406 -0.22266,-0.210933 -0.333988,-0.593745 -0.333984,-1.148437 l 0,-0.363282 -0.837891,0 0,0.363282 c -3e-6,0.554692 -0.113284,0.937504 -0.339844,1.148437 -0.226565,0.210942 -0.634768,0.316411 -1.224609,0.316406 l -36.900391,0 c -0.86328,5e-6 -1.439452,0.164067 -1.728515,0.492188 -0.289061,0.324222 -0.433592,0.972659 -0.433594,1.945312 l 0,2.369141 0.84375,0"
       id="path6447" />
    <path
       style="font-size:12px;font-style:normal;font-variant:normal;font-weight:normal;font-stretch:normal;fill:#000000;fill-opacity:1;stroke:none;font-family:DejaVu Sans;-inkscape-font-specification:DejaVu Sans"
       d="m 77.926341,13.388337 1.933594,0 0,-6.6738292 -2.103516,0.421875 0,-1.078125 2.091797,-0.421875 1.183594,0 0,7.7519542 1.933594,0 0,0.996094 -5.039063,0 0,-0.996094"
       id="path7016" />
    <path
       style="font-size:medium;font-style:normal;font-variant:normal;font-weight:normal;font-stretch:normal;text-indent:0;text-align:start;text-decoration:none;line-height:normal;letter-spacing:normal;word-spacing:normal;text-transform:none;direction:ltr;block-progression:tb;writing-mode:lr-tb;text-anchor:start;color:#000000;fill:#000000;fill-opacity:1;stroke:none;stroke-width:1px;marker:none;visibility:visible;display:inline;overflow:visible;enable-background:accumulate;font-family:Andale Mono;-inkscape-font-specification:Andale Mono"
       d="m 12.21875,136.87685 0,35.6875 0,0.5 0.5,0 35.375,0 0,-1 -34.875,0 0,-35.1875 -1,0 z"
       id="path6480" />
    <path
       style="fill-rule:evenodd;stroke:#000000;stroke-width:0.4pt;marker-start:none"
       d="m 12.727922,140.8665 2,2 -2,-7 -2,7 2,-2 z"
       id="path7030" />
    <path
       style="font-size:12px;fill-rule:evenodd;stroke-width:0.625;stroke-linejoin:round"
       d="m 42.852109,170.15515 6.555527,2.41063 -6.555527,2.41063 c 1.047299,-1.42323 1.041264,-3.37047 0,-4.82126 z"
       id="path7032" />
    <path
       style="font-size:12px;font-style:normal;font-variant:normal;font-weight:normal;font-stretch:normal;fill:#000000;fill-opacity:1;stroke:none;font-family:DejaVu Sans;-inkscape-font-specification:DejaVu Sans"
       d="m 60.176947,169.67395 -2.373047,3.19336 2.496093,3.36914 -1.271484,0 -1.910156,-2.57813 -1.910156,2.57813 -1.271485,0 2.548828,-3.43359 -2.332031,-3.12891 1.271484,0 1.740235,2.33789 1.740234,-2.33789 1.271485,0"
       id="path7019" />
    <path
       style="font-size:12px;font-style:normal;font-variant:normal;font-weight:normal;font-stretch:normal;fill:#000000;fill-opacity:1;stroke:none;font-family:DejaVu Sans;-inkscape-font-specification:DejaVu Sans"
       d="m 21.030479,143.50937 c -0.304691,0.78125 -0.601566,1.29102 -0.890625,1.5293 -0.289065,0.23828 -0.675783,0.35742 -1.160156,0.35742 l -0.861328,0 0,-0.90234 0.632812,0 c 0.296873,0 0.527342,-0.0703 0.691407,-0.21094 0.16406,-0.14062 0.3457,-0.47265 0.544921,-0.99609 l 0.19336,-0.49219 -2.654297,-6.45703 1.142578,0 2.050781,5.13281 2.050782,-5.13281 1.142578,0 -2.882813,7.17187"
       id="path7022" />
  </g>
</svg>
