<?xml version="1.0" encoding="UTF-8" standalone="no"?>
<!-- Created with Inkscape (http://www.inkscape.org/) -->

<svg
   xmlns:dc="http://purl.org/dc/elements/1.1/"
   xmlns:cc="http://creativecommons.org/ns#"
   xmlns:rdf="http://www.w3.org/1999/02/22-rdf-syntax-ns#"
   xmlns:svg="http://www.w3.org/2000/svg"
   xmlns="http://www.w3.org/2000/svg"
   xmlns:sodipodi="http://sodipodi.sourceforge.net/DTD/sodipodi-0.dtd"
   xmlns:inkscape="http://www.inkscape.org/namespaces/inkscape"
   width="230"
   height="230"
   id="svg2"
   version="1.1"
   inkscape:version="0.47 r22583"
   sodipodi:docname="2010-(11)nov-15 figur 2.svg">
  <defs
     id="defs4" />
  <sodipodi:namedview
     id="base"
     pagecolor="#ffffff"
     bordercolor="#666666"
     borderopacity="1.0"
     inkscape:pageopacity="0.0"
     inkscape:pageshadow="2"
     inkscape:zoom="2"
     inkscape:cx="233.27751"
     inkscape:cy="84.470084"
     inkscape:document-units="px"
     inkscape:current-layer="layer1"
     showgrid="false"
     inkscape:window-width="1589"
     inkscape:window-height="1117"
     inkscape:window-x="1600"
     inkscape:window-y="27"
     inkscape:window-maximized="1"
     showguides="true"
     inkscape:guide-bbox="true"
     inkscape:snap-midpoints="true"
     inkscape:snap-global="false" />
  <metadata
     id="metadata7">
    <rdf:RDF>
      <cc:Work
         rdf:about="">
        <dc:format>image/svg+xml</dc:format>
        <dc:type
           rdf:resource="http://purl.org/dc/dcmitype/StillImage" />
        <dc:title />
      </cc:Work>
    </rdf:RDF>
  </metadata>
  <g
     inkscape:label="Layer 1"
     inkscape:groupmode="layer"
     id="layer1">
    <path
       style="font-size:12px;font-style:normal;font-variant:normal;font-weight:normal;font-stretch:normal;text-align:start;line-height:125%;writing-mode:lr-tb;text-anchor:start;fill:#000000;fill-opacity:1;stroke:none;font-family:DejaVu Sans;-inkscape-font-specification:DejaVu Sans"
       d="M 208.09375 194.96875 C 207.11328 194.96876 206.36328 195.34766 205.84375 196.125 C 205.32813 196.89844 205.06249 198.02344 205.0625 199.5 C 205.06249 200.97265 205.32813 202.09765 205.84375 202.875 C 206.36328 203.64843 207.11328 204.03125 208.09375 204.03125 C 209.07422 204.03125 209.82812 203.64843 210.34375 202.875 C 210.86328 202.09765 211.12499 200.97265 211.125 199.5 C 211.12499 198.02344 210.86328 196.89844 210.34375 196.125 C 209.82812 195.34766 209.07422 194.96876 208.09375 194.96875 z M 208.09375 195.90625 C 208.70703 195.90626 209.16405 196.21095 209.46875 196.8125 C 209.77733 197.41017 209.93749 198.29688 209.9375 199.5 C 209.93749 200.69922 209.77733 201.61719 209.46875 202.21875 C 209.16405 202.8164 208.70703 203.09375 208.09375 203.09375 C 207.48437 203.09375 207.02734 202.8164 206.71875 202.21875 C 206.41406 201.61719 206.25 200.69922 206.25 199.5 C 206.25 198.29688 206.41406 197.41017 206.71875 196.8125 C 207.02734 196.21095 207.48437 195.90626 208.09375 195.90625 z "
       id="path3717" />
    <path
       style="font-size:medium;font-style:normal;font-variant:normal;font-weight:normal;font-stretch:normal;text-indent:0;text-align:start;text-decoration:none;line-height:normal;letter-spacing:normal;word-spacing:normal;text-transform:none;direction:ltr;block-progression:tb;writing-mode:lr-tb;text-anchor:start;color:#000000;fill:#000000;fill-opacity:1;stroke:none;stroke-width:1px;marker:none;visibility:visible;display:inline;overflow:visible;enable-background:accumulate;font-family:Andale Mono;-inkscape-font-specification:Andale Mono"
       d="M 146.21875 14.4375 C 141.47683 14.493357 136.56782 15.279747 131.59375 16.46875 C 120.22446 19.186472 108.49696 24.125886 97.6875 27.96875 C 86.878043 31.811614 76.9989 34.520186 69.40625 32.9375 C 53.548449 29.631944 37.169943 40.525689 27.21875 55.84375 C 17.267557 71.161811 13.664194 91.04782 23.625 105.84375 C 28.469807 113.0403 29.38814 119.51705 28.28125 126.03125 C 27.17436 132.54545 23.987209 139.06684 20.59375 146.21875 C 13.806833 160.52256 6.2076728 177.31456 12.96875 201.15625 C 16.357215 213.10505 22.150276 218.36983 29.25 219.625 C 36.349724 220.88017 44.597307 218.21418 53.15625 214.65625 C 61.715193 211.09832 70.587407 206.63375 78.75 204.1875 C 86.912593 201.74125 94.311391 201.31835 100.125 205.65625 C 106.37598 210.3205 111.59715 211.23044 116.25 209.6875 C 120.90285 208.14456 124.92417 204.25259 128.96875 199.5 C 137.05791 189.99483 145.3232 177.00729 158.5625 171.78125 C 169.1262 167.61137 177.25565 163.02372 183.1875 157.25 C 189.11935 151.47628 192.85239 144.50986 194.65625 135.65625 C 198.26398 117.94904 194.22731 92.718899 185.03125 53.8125 C 180.4162 34.287278 172.79724 23.52237 163.40625 18.375 C 158.71076 15.801315 153.60858 14.647301 148.25 14.46875 C 147.58018 14.446431 146.89617 14.42952 146.21875 14.4375 z M 146.21875 15.4375 C 146.88058 15.429625 147.53324 15.447161 148.1875 15.46875 C 153.42155 15.641464 158.3992 16.762475 162.9375 19.25 C 172.0141 24.22505 179.48516 34.665599 184.0625 54.03125 C 193.25122 92.906589 197.19755 118.08758 193.65625 135.46875 C 191.8856 144.15934 188.26332 150.89115 182.46875 156.53125 C 176.67418 162.17135 168.71234 166.70154 158.21875 170.84375 C 144.58799 176.22431 136.20214 189.42614 128.1875 198.84375 C 124.18018 203.55255 120.27174 207.28146 115.9375 208.71875 C 111.60326 210.15604 106.80789 209.38724 100.71875 204.84375 C 94.554111 200.24392 86.760506 200.73379 78.46875 203.21875 C 70.176994 205.70371 61.291902 210.18089 52.78125 213.71875 C 44.270598 217.25661 36.130508 219.84505 29.40625 218.65625 C 22.681992 217.46745 17.2353 212.61428 13.90625 200.875 C 7.2322952 177.34053 14.718087 160.94951 21.5 146.65625 C 24.890957 139.50962 28.140217 132.90264 29.28125 126.1875 C 30.422283 119.47236 29.437486 112.66189 24.46875 105.28125 C 14.802468 90.922811 18.266605 71.485258 28.0625 56.40625 C 37.858395 41.327242 53.896911 30.71893 69.1875 33.90625 C 77.169045 35.570002 87.182216 32.763184 98.03125 28.90625 C 108.88028 25.049316 120.59009 20.127582 131.84375 17.4375 C 136.76723 16.260589 141.58596 15.492625 146.21875 15.4375 z "
       id="path3758" />
    <path
       style="font-size:28px;font-style:normal;font-variant:normal;font-weight:normal;font-stretch:normal;text-align:start;line-height:125%;writing-mode:lr-tb;text-anchor:start;fill:#000000;fill-opacity:1;stroke:none;font-family:DejaVu Sans;-inkscape-font-specification:DejaVu Sans"
       d="m 121.4397,126.06298 0,2.4336 -8.20312,0 0,-2.4336 c 1.61326,-0.88411 2.87107,-2.08268 3.77343,-3.5957 0.90233,-1.51301 1.3535,-3.1901 1.35352,-5.03125 -2e-5,-2.18749 -0.60158,-3.94204 -1.80469,-5.26367 -1.20314,-1.3216 -2.78907,-1.98241 -4.75781,-1.98242 -1.96876,10e-6 -3.55925,0.66538 -4.77148,1.99609 -1.20314,1.32163 -1.8047,3.07163 -1.80469,5.25 -1e-5,1.84115 0.45116,3.51824 1.35351,5.03125 0.91145,1.51302 2.17838,2.71159 3.80078,3.5957 l 0,2.4336 -8.20312,0 0,-2.4336 4.36133,0 c -1.44011,-1.26692 -2.49284,-2.57942 -3.15821,-3.9375 -0.65625,-1.35806 -0.98437,-2.87564 -0.98437,-4.55273 0,-2.89843 0.875,-5.24543 2.625,-7.04102 1.74088,-1.79555 4.00129,-2.69334 6.78125,-2.69336 2.76171,2e-5 5.02212,0.89781 6.78125,2.69336 1.74998,1.78648 2.62498,4.08791 2.625,6.9043 -2e-5,1.76824 -0.32359,3.32683 -0.9707,4.67578 -0.64716,1.34896 -1.70445,2.66602 -3.17188,3.95117 l 4.375,0"
       id="path3697" />
    <path
       style="font-size:12px;font-style:normal;font-variant:normal;font-weight:normal;font-stretch:normal;text-align:start;line-height:125%;writing-mode:lr-tb;text-anchor:start;fill:#000000;fill-opacity:1;stroke:none;font-family:DejaVu Sans;-inkscape-font-specification:DejaVu Sans"
       d="m 184.52344,176.77349 -2.37305,3.19336 2.49609,3.36914 -1.27148,0 -1.91016,-2.57813 -1.91015,2.57813 -1.27149,0 2.54883,-3.43359 -2.33203,-3.12891 1.27148,0 1.74024,2.33789 1.74023,-2.33789 1.27149,0"
       id="path3700" />
    <path
       style="font-size:12px;font-style:normal;font-variant:normal;font-weight:normal;font-stretch:normal;text-align:start;line-height:125%;writing-mode:lr-tb;text-anchor:start;fill:#000000;fill-opacity:1;stroke:none;font-family:DejaVu Sans;-inkscape-font-specification:DejaVu Sans"
       d="m 190.86914,179.66216 c 0.0273,0.28907 0.16406,0.66797 0.41016,1.13672 0.28906,0.54297 0.70702,0.9668 1.2539,1.27148 0.53516,0.29688 1.0918,0.44727 1.66992,0.45118 l 4.08399,0 0,0.93164 -4.08399,0 c -0.75,0 -1.47266,-0.19336 -2.16796,-0.58008 -0.69141,-0.38672 -1.22266,-0.92383 -1.59375,-1.61133 -0.3711,-0.6875 -0.55665,-1.39648 -0.55664,-2.12695 -1e-5,-0.72265 0.18554,-1.42773 0.55664,-2.11524 0.37109,-0.68749 0.90234,-1.22655 1.59375,-1.61718 0.6953,-0.39062 1.41796,-0.58593 2.16796,-0.58594 l 4.08399,0 0,0.93164 -4.08399,0 c -0.57812,0.004 -1.13476,0.15626 -1.66992,0.45703 -0.54297,0.3086 -0.96094,0.73243 -1.2539,1.27148 -0.25001,0.46876 -0.39258,0.88478 -0.42774,1.24805 l 7.43555,0 0,0.9375 -7.41797,0"
       id="path3702" />
    <path
       style="font-size:12px;font-style:normal;font-variant:normal;font-weight:normal;font-stretch:normal;text-align:start;line-height:125%;writing-mode:lr-tb;text-anchor:start;fill:#000000;fill-opacity:1;stroke:none;font-family:DejaVu Sans;-inkscape-font-specification:DejaVu Sans"
       d="m 211.8457,182.29302 0,1.04297 -3.51562,0 0,-1.04297 c 0.6914,-0.3789 1.23046,-0.89258 1.61719,-1.54101 0.38671,-0.64844 0.58007,-1.36719 0.58007,-2.15625 0,-0.9375 -0.25782,-1.68945 -0.77343,-2.25586 -0.51563,-0.5664 -1.19532,-0.84961 -2.03907,-0.84961 -0.84375,0 -1.52539,0.28516 -2.04492,0.85547 -0.51563,0.56641 -0.77344,1.31641 -0.77344,2.25 0,0.78906 0.19336,1.50781 0.58008,2.15625 0.39062,0.64843 0.93359,1.16211 1.62891,1.54101 l 0,1.04297 -3.51563,0 0,-1.04297 1.86914,0 c -0.61718,-0.54297 -1.06836,-1.10547 -1.35351,-1.6875 -0.28125,-0.58203 -0.42188,-1.23242 -0.42188,-1.95117 0,-1.24218 0.375,-2.24804 1.125,-3.01758 0.7461,-0.76952 1.71484,-1.15429 2.90625,-1.1543 1.18359,1e-5 2.15234,0.38478 2.90625,1.1543 0.75,0.76563 1.125,1.75196 1.125,2.95899 0,0.75781 -0.13868,1.42578 -0.41601,2.0039 -0.27735,0.57813 -0.73048,1.14258 -1.35938,1.69336 l 1.875,0"
       id="path3704" />
    <path
       style="font-size:12px;font-style:normal;font-variant:normal;font-weight:normal;font-stretch:normal;text-align:start;line-height:125%;writing-mode:lr-tb;text-anchor:start;fill:#000000;fill-opacity:1;stroke:none;font-family:DejaVu Sans;-inkscape-font-specification:DejaVu Sans"
       d="M 190.84375 31.96875 C 190.4375 31.96876 190.01562 32.03516 189.5625 32.15625 L 189.5625 33.125 C 189.99218 32.95309 190.34766 32.87501 190.625 32.875 C 191.35938 32.87501 191.8789 33.19923 192.15625 33.875 C 192.28125 34.1797 192.34375 34.59766 192.34375 35.125 C 192.34375 35.48438 192.3008 35.83985 192.25 36.15625 C 192.10546 35.87501 191.92968 35.63673 191.71875 35.46875 C 191.35937 35.1836 190.95703 35.0625 190.5 35.0625 C 189.80468 35.0625 189.26172 35.34376 188.875 35.9375 C 188.5 36.51563 188.3125 37.16407 188.3125 37.90625 C 188.3125 38.6211 188.51172 39.19922 188.9375 39.59375 C 189.29688 39.92579 189.76171 40.09375 190.3125 40.09375 C 190.89062 40.09375 191.4375 39.85156 191.9375 39.375 C 192.57422 38.76562 193.0039 37.8125 193.25 36.53125 C 193.34769 36.01954 193.40624 35.53516 193.40625 35.09375 C 193.40624 34.41798 193.30078 33.85938 193.09375 33.40625 C 192.64843 32.44532 191.89062 31.96876 190.84375 31.96875 z M 190.625 35.84375 C 191.22656 35.84376 191.71484 36.25391 192.0625 37.09375 C 191.97656 37.44141 191.85937 37.80079 191.6875 38.125 C 191.48047 38.51953 191.21875 38.82031 190.9375 39.0625 C 190.73828 39.23827 190.53125 39.34375 190.28125 39.34375 C 190 39.34375 189.74609 39.22265 189.5625 39 C 189.39058 38.78906 189.3125 38.48438 189.3125 38.09375 C 189.3125 37.69532 189.39062 37.29688 189.53125 36.875 C 189.75781 36.19532 190.10938 35.84376 190.625 35.84375 z "
       id="path3744" />
    <path
       style="font-size:12px;font-style:normal;font-variant:normal;font-weight:normal;font-stretch:normal;text-align:start;line-height:125%;writing-mode:lr-tb;text-anchor:start;fill:#000000;fill-opacity:1;stroke:none;font-family:DejaVu Sans;-inkscape-font-specification:DejaVu Sans"
       d="m 202.68107,38.87083 0,1.04297 -3.51563,0 0,-1.04297 c 0.6914,-0.3789 1.23047,-0.89258 1.61719,-1.54101 0.38671,-0.64844 0.58007,-1.36719 0.58008,-2.15625 -1e-5,-0.9375 -0.25782,-1.68945 -0.77344,-2.25586 -0.51563,-0.5664 -1.19532,-0.84961 -2.03906,-0.84961 -0.84375,0 -1.52539,0.28516 -2.04492,0.85547 -0.51563,0.56641 -0.77344,1.31641 -0.77344,2.25 0,0.78906 0.19336,1.50781 0.58008,2.15625 0.39062,0.64843 0.93359,1.16211 1.6289,1.54101 l 0,1.04297 -3.51562,0 0,-1.04297 1.86914,0 c -0.61719,-0.54297 -1.06836,-1.10547 -1.35352,-1.6875 -0.28125,-0.58203 -0.42187,-1.23242 -0.42187,-1.95117 0,-1.24218 0.375,-2.24804 1.125,-3.01758 0.74609,-0.76952 1.71484,-1.15429 2.90625,-1.1543 1.18359,10e-6 2.15234,0.38478 2.90625,1.1543 0.74999,0.76563 1.12499,1.75196 1.125,2.95899 -1e-5,0.75781 -0.13868,1.42578 -0.41602,2.0039 -0.27735,0.57813 -0.73047,1.14258 -1.35937,1.69336 l 1.875,0"
       id="path3709" />
    <path
       style="fill:#000000;fill-opacity:1;stroke:none"
       d="m 184.20131,40.495382 c 0,2.147883 -1.7412,3.889087 -3.88909,3.889087 -2.14788,0 -3.88908,-1.741204 -3.88908,-3.889087 0,-2.147884 1.7412,-3.889087 3.88908,-3.889087 2.14789,0 3.88909,1.741203 3.88909,3.889087 z"
       id="path2891" />
    <path
       style="font-size:12px;font-style:normal;font-variant:normal;font-weight:normal;font-stretch:normal;text-align:start;line-height:125%;writing-mode:lr-tb;text-anchor:start;fill:#000000;fill-opacity:1;stroke:none;font-family:DejaVu Sans;-inkscape-font-specification:DejaVu Sans"
       d="m 184.07032,195.44238 0,1.86328 2.2207,0 0,0.83789 -2.2207,0 0,3.5625 c -1e-5,0.53516 0.0723,0.87891 0.21679,1.03125 0.14844,0.15235 0.44727,0.22852 0.89649,0.22852 l 1.10742,0 0,0.90234 -1.10742,0 c -0.83204,0 -1.40626,-0.1543 -1.72266,-0.46289 -0.31641,-0.3125 -0.47461,-0.87891 -0.47461,-1.69922 l 0,-3.5625 -0.79101,0 0,-0.83789 0.79101,0 0,-1.86328 1.08399,0"
       id="path3713" />
    <path
       style="font-size:12px;font-style:normal;font-variant:normal;font-weight:normal;font-stretch:normal;text-align:start;line-height:125%;writing-mode:lr-tb;text-anchor:start;fill:#000000;fill-opacity:1;stroke:none;font-family:DejaVu Sans;-inkscape-font-specification:DejaVu Sans"
       d="m 191.67578,197.96191 0,-1.06641 7.51172,2.72461 0,0.97266 -7.51172,2.72461 0,-1.06641 6.03516,-2.13867 -6.03516,-2.15039"
       id="path3715" />
  </g>
</svg>
