<?xml version="1.0" encoding="UTF-8" standalone="no"?>
<!-- Created with Inkscape (http://www.inkscape.org/) -->

<svg
   xmlns:dc="http://purl.org/dc/elements/1.1/"
   xmlns:cc="http://creativecommons.org/ns#"
   xmlns:rdf="http://www.w3.org/1999/02/22-rdf-syntax-ns#"
   xmlns:svg="http://www.w3.org/2000/svg"
   xmlns="http://www.w3.org/2000/svg"
   xmlns:sodipodi="http://sodipodi.sourceforge.net/DTD/sodipodi-0.dtd"
   xmlns:inkscape="http://www.inkscape.org/namespaces/inkscape"
   width="270"
   height="160"
   id="svg2"
   version="1.1"
   inkscape:version="0.47 r22583"
   sodipodi:docname="2010-(11)nov-15 figur 4.svg">
  <defs
     id="defs4" />
  <sodipodi:namedview
     id="base"
     pagecolor="#ffffff"
     bordercolor="#666666"
     borderopacity="1.0"
     inkscape:pageopacity="0.0"
     inkscape:pageshadow="2"
     inkscape:zoom="1.4142136"
     inkscape:cx="199.74794"
     inkscape:cy="231.87324"
     inkscape:document-units="px"
     inkscape:current-layer="layer1"
     showgrid="false"
     inkscape:window-width="1589"
     inkscape:window-height="1117"
     inkscape:window-x="1600"
     inkscape:window-y="27"
     inkscape:window-maximized="1"
     showguides="true"
     inkscape:guide-bbox="true"
     inkscape:snap-midpoints="true"
     inkscape:snap-global="false" />
  <metadata
     id="metadata7">
    <rdf:RDF>
      <cc:Work
         rdf:about="">
        <dc:format>image/svg+xml</dc:format>
        <dc:type
           rdf:resource="http://purl.org/dc/dcmitype/StillImage" />
        <dc:title />
      </cc:Work>
    </rdf:RDF>
  </metadata>
  <g
     inkscape:label="Layer 1"
     inkscape:groupmode="layer"
     id="layer1">
    <path
       style="font-size:medium;font-style:normal;font-variant:normal;font-weight:normal;font-stretch:normal;text-indent:0;text-align:start;text-decoration:none;line-height:normal;letter-spacing:normal;word-spacing:normal;text-transform:none;direction:ltr;block-progression:tb;writing-mode:lr-tb;text-anchor:start;color:#000000;fill:#000000;fill-opacity:1;stroke:none;stroke-width:1px;marker:none;visibility:visible;display:inline;overflow:visible;enable-background:accumulate;font-family:Andale Mono;-inkscape-font-specification:Andale Mono"
       d="m 14.6875,6.5625 0,146.375 1,0 0,-146.375 -1,0 z"
       id="path2866" />
    <path
       style="font-size:medium;font-style:normal;font-variant:normal;font-weight:normal;font-stretch:normal;text-indent:0;text-align:start;text-decoration:none;line-height:normal;letter-spacing:normal;word-spacing:normal;text-transform:none;direction:ltr;block-progression:tb;writing-mode:lr-tb;text-anchor:start;color:#000000;fill:#000000;fill-opacity:1;stroke:none;stroke-width:1px;marker:none;visibility:visible;display:inline;overflow:visible;enable-background:accumulate;font-family:Andale Mono;-inkscape-font-specification:Andale Mono"
       d="M 14.9375,7.4375 6.15625,16.25 6.84375,16.9375 15.65625,8.15625 14.9375,7.4375 z"
       id="path2868" />
    <path
       style="font-size:medium;font-style:normal;font-variant:normal;font-weight:normal;font-stretch:normal;text-indent:0;text-align:start;text-decoration:none;line-height:normal;letter-spacing:normal;word-spacing:normal;text-transform:none;direction:ltr;block-progression:tb;writing-mode:lr-tb;text-anchor:start;color:#000000;fill:#000000;fill-opacity:1;stroke:none;stroke-width:1px;marker:none;visibility:visible;display:inline;overflow:visible;enable-background:accumulate;font-family:Andale Mono;-inkscape-font-specification:Andale Mono"
       d="M 14.9375,15.4375 6.15625,24.25 6.84375,24.9375 15.65625,16.15625 14.9375,15.4375 z"
       id="path2870" />
    <path
       style="font-size:medium;font-style:normal;font-variant:normal;font-weight:normal;font-stretch:normal;text-indent:0;text-align:start;text-decoration:none;line-height:normal;letter-spacing:normal;word-spacing:normal;text-transform:none;direction:ltr;block-progression:tb;writing-mode:lr-tb;text-anchor:start;color:#000000;fill:#000000;fill-opacity:1;stroke:none;stroke-width:1px;marker:none;visibility:visible;display:inline;overflow:visible;enable-background:accumulate;font-family:Andale Mono;-inkscape-font-specification:Andale Mono"
       d="M 14.9375,23.4375 6.15625,32.25 6.84375,32.9375 15.65625,24.15625 14.9375,23.4375 z"
       id="path2872" />
    <path
       style="font-size:medium;font-style:normal;font-variant:normal;font-weight:normal;font-stretch:normal;text-indent:0;text-align:start;text-decoration:none;line-height:normal;letter-spacing:normal;word-spacing:normal;text-transform:none;direction:ltr;block-progression:tb;writing-mode:lr-tb;text-anchor:start;color:#000000;fill:#000000;fill-opacity:1;stroke:none;stroke-width:1px;marker:none;visibility:visible;display:inline;overflow:visible;enable-background:accumulate;font-family:Andale Mono;-inkscape-font-specification:Andale Mono"
       d="M 14.9375,31.4375 6.15625,40.25 6.84375,40.9375 15.65625,32.15625 14.9375,31.4375 z"
       id="path2874" />
    <path
       style="font-size:medium;font-style:normal;font-variant:normal;font-weight:normal;font-stretch:normal;text-indent:0;text-align:start;text-decoration:none;line-height:normal;letter-spacing:normal;word-spacing:normal;text-transform:none;direction:ltr;block-progression:tb;writing-mode:lr-tb;text-anchor:start;color:#000000;fill:#000000;fill-opacity:1;stroke:none;stroke-width:1px;marker:none;visibility:visible;display:inline;overflow:visible;enable-background:accumulate;font-family:Andale Mono;-inkscape-font-specification:Andale Mono"
       d="M 14.9375,39.4375 6.15625,48.25 6.84375,48.9375 15.65625,40.15625 14.9375,39.4375 z"
       id="path2876" />
    <path
       style="font-size:medium;font-style:normal;font-variant:normal;font-weight:normal;font-stretch:normal;text-indent:0;text-align:start;text-decoration:none;line-height:normal;letter-spacing:normal;word-spacing:normal;text-transform:none;direction:ltr;block-progression:tb;writing-mode:lr-tb;text-anchor:start;color:#000000;fill:#000000;fill-opacity:1;stroke:none;stroke-width:1px;marker:none;visibility:visible;display:inline;overflow:visible;enable-background:accumulate;font-family:Andale Mono;-inkscape-font-specification:Andale Mono"
       d="M 14.9375,47.4375 6.15625,56.25 6.84375,56.9375 15.65625,48.15625 14.9375,47.4375 z"
       id="path2878" />
    <path
       style="font-size:medium;font-style:normal;font-variant:normal;font-weight:normal;font-stretch:normal;text-indent:0;text-align:start;text-decoration:none;line-height:normal;letter-spacing:normal;word-spacing:normal;text-transform:none;direction:ltr;block-progression:tb;writing-mode:lr-tb;text-anchor:start;color:#000000;fill:#000000;fill-opacity:1;stroke:none;stroke-width:1px;marker:none;visibility:visible;display:inline;overflow:visible;enable-background:accumulate;font-family:Andale Mono;-inkscape-font-specification:Andale Mono"
       d="M 14.9375,55.4375 6.15625,64.25 6.84375,64.9375 15.65625,56.15625 14.9375,55.4375 z"
       id="path2880" />
    <path
       style="font-size:medium;font-style:normal;font-variant:normal;font-weight:normal;font-stretch:normal;text-indent:0;text-align:start;text-decoration:none;line-height:normal;letter-spacing:normal;word-spacing:normal;text-transform:none;direction:ltr;block-progression:tb;writing-mode:lr-tb;text-anchor:start;color:#000000;fill:#000000;fill-opacity:1;stroke:none;stroke-width:1px;marker:none;visibility:visible;display:inline;overflow:visible;enable-background:accumulate;font-family:Andale Mono;-inkscape-font-specification:Andale Mono"
       d="M 14.9375,63.4375 6.15625,72.25 6.84375,72.9375 15.65625,64.15625 14.9375,63.4375 z"
       id="path2882" />
    <path
       style="font-size:medium;font-style:normal;font-variant:normal;font-weight:normal;font-stretch:normal;text-indent:0;text-align:start;text-decoration:none;line-height:normal;letter-spacing:normal;word-spacing:normal;text-transform:none;direction:ltr;block-progression:tb;writing-mode:lr-tb;text-anchor:start;color:#000000;fill:#000000;fill-opacity:1;stroke:none;stroke-width:1px;marker:none;visibility:visible;display:inline;overflow:visible;enable-background:accumulate;font-family:Andale Mono;-inkscape-font-specification:Andale Mono"
       d="M 14.9375,71.4375 6.15625,80.25 6.84375,80.9375 15.65625,72.15625 14.9375,71.4375 z"
       id="path2884" />
    <path
       style="font-size:medium;font-style:normal;font-variant:normal;font-weight:normal;font-stretch:normal;text-indent:0;text-align:start;text-decoration:none;line-height:normal;letter-spacing:normal;word-spacing:normal;text-transform:none;direction:ltr;block-progression:tb;writing-mode:lr-tb;text-anchor:start;color:#000000;fill:#000000;fill-opacity:1;stroke:none;stroke-width:1px;marker:none;visibility:visible;display:inline;overflow:visible;enable-background:accumulate;font-family:Andale Mono;-inkscape-font-specification:Andale Mono"
       d="M 14.9375,79.4375 6.15625,88.25 6.84375,88.9375 15.65625,80.15625 14.9375,79.4375 z"
       id="path2886" />
    <path
       style="font-size:medium;font-style:normal;font-variant:normal;font-weight:normal;font-stretch:normal;text-indent:0;text-align:start;text-decoration:none;line-height:normal;letter-spacing:normal;word-spacing:normal;text-transform:none;direction:ltr;block-progression:tb;writing-mode:lr-tb;text-anchor:start;color:#000000;fill:#000000;fill-opacity:1;stroke:none;stroke-width:1px;marker:none;visibility:visible;display:inline;overflow:visible;enable-background:accumulate;font-family:Andale Mono;-inkscape-font-specification:Andale Mono"
       d="M 14.9375,87.4375 6.15625,96.25 6.84375,96.9375 15.65625,88.15625 14.9375,87.4375 z"
       id="path2888" />
    <path
       style="font-size:medium;font-style:normal;font-variant:normal;font-weight:normal;font-stretch:normal;text-indent:0;text-align:start;text-decoration:none;line-height:normal;letter-spacing:normal;word-spacing:normal;text-transform:none;direction:ltr;block-progression:tb;writing-mode:lr-tb;text-anchor:start;color:#000000;fill:#000000;fill-opacity:1;stroke:none;stroke-width:1px;marker:none;visibility:visible;display:inline;overflow:visible;enable-background:accumulate;font-family:Andale Mono;-inkscape-font-specification:Andale Mono"
       d="m 14.9375,95.4375 -8.78125,8.8125 0.6875,0.6875 8.8125,-8.78125 -0.71875,-0.71875 z"
       id="path2890" />
    <path
       style="font-size:medium;font-style:normal;font-variant:normal;font-weight:normal;font-stretch:normal;text-indent:0;text-align:start;text-decoration:none;line-height:normal;letter-spacing:normal;word-spacing:normal;text-transform:none;direction:ltr;block-progression:tb;writing-mode:lr-tb;text-anchor:start;color:#000000;fill:#000000;fill-opacity:1;stroke:none;stroke-width:1px;marker:none;visibility:visible;display:inline;overflow:visible;enable-background:accumulate;font-family:Andale Mono;-inkscape-font-specification:Andale Mono"
       d="m 14.9375,103.4375 -8.78125,8.8125 0.6875,0.6875 8.8125,-8.78125 -0.71875,-0.71875 z"
       id="path2892" />
    <path
       style="font-size:medium;font-style:normal;font-variant:normal;font-weight:normal;font-stretch:normal;text-indent:0;text-align:start;text-decoration:none;line-height:normal;letter-spacing:normal;word-spacing:normal;text-transform:none;direction:ltr;block-progression:tb;writing-mode:lr-tb;text-anchor:start;color:#000000;fill:#000000;fill-opacity:1;stroke:none;stroke-width:1px;marker:none;visibility:visible;display:inline;overflow:visible;enable-background:accumulate;font-family:Andale Mono;-inkscape-font-specification:Andale Mono"
       d="m 14.9375,111.4375 -8.78125,8.8125 0.6875,0.6875 8.8125,-8.78125 -0.71875,-0.71875 z"
       id="path2894" />
    <path
       style="font-size:medium;font-style:normal;font-variant:normal;font-weight:normal;font-stretch:normal;text-indent:0;text-align:start;text-decoration:none;line-height:normal;letter-spacing:normal;word-spacing:normal;text-transform:none;direction:ltr;block-progression:tb;writing-mode:lr-tb;text-anchor:start;color:#000000;fill:#000000;fill-opacity:1;stroke:none;stroke-width:1px;marker:none;visibility:visible;display:inline;overflow:visible;enable-background:accumulate;font-family:Andale Mono;-inkscape-font-specification:Andale Mono"
       d="m 14.9375,119.4375 -8.78125,8.8125 0.6875,0.6875 8.8125,-8.78125 -0.71875,-0.71875 z"
       id="path2896" />
    <path
       style="font-size:medium;font-style:normal;font-variant:normal;font-weight:normal;font-stretch:normal;text-indent:0;text-align:start;text-decoration:none;line-height:normal;letter-spacing:normal;word-spacing:normal;text-transform:none;direction:ltr;block-progression:tb;writing-mode:lr-tb;text-anchor:start;color:#000000;fill:#000000;fill-opacity:1;stroke:none;stroke-width:1px;marker:none;visibility:visible;display:inline;overflow:visible;enable-background:accumulate;font-family:Andale Mono;-inkscape-font-specification:Andale Mono"
       d="m 14.9375,127.4375 -8.78125,8.8125 0.6875,0.6875 8.8125,-8.78125 -0.71875,-0.71875 z"
       id="path2898" />
    <path
       style="font-size:medium;font-style:normal;font-variant:normal;font-weight:normal;font-stretch:normal;text-indent:0;text-align:start;text-decoration:none;line-height:normal;letter-spacing:normal;word-spacing:normal;text-transform:none;direction:ltr;block-progression:tb;writing-mode:lr-tb;text-anchor:start;color:#000000;fill:#000000;fill-opacity:1;stroke:none;stroke-width:1px;marker:none;visibility:visible;display:inline;overflow:visible;enable-background:accumulate;font-family:Andale Mono;-inkscape-font-specification:Andale Mono"
       d="m 14.9375,135.4375 -8.78125,8.8125 0.6875,0.6875 8.8125,-8.78125 -0.71875,-0.71875 z"
       id="path2900" />
    <path
       style="font-size:medium;font-style:normal;font-variant:normal;font-weight:normal;font-stretch:normal;text-indent:0;text-align:start;text-decoration:none;line-height:normal;letter-spacing:normal;word-spacing:normal;text-transform:none;direction:ltr;block-progression:tb;writing-mode:lr-tb;text-anchor:start;color:#000000;fill:#000000;fill-opacity:1;stroke:none;stroke-width:1px;marker:none;visibility:visible;display:inline;overflow:visible;enable-background:accumulate;font-family:Andale Mono;-inkscape-font-specification:Andale Mono"
       d="m 14.9375,143.4375 -8.78125,8.8125 0.6875,0.6875 8.8125,-8.78125 -0.71875,-0.71875 z"
       id="path2902" />
    <path
       style="font-size:medium;font-style:normal;font-variant:normal;font-weight:normal;font-stretch:normal;text-indent:0;text-align:start;text-decoration:none;line-height:normal;letter-spacing:normal;word-spacing:normal;text-transform:none;direction:ltr;block-progression:tb;writing-mode:lr-tb;text-anchor:start;color:#000000;fill:#000000;fill-opacity:1;stroke:none;stroke-width:1px;marker:none;visibility:visible;display:inline;overflow:visible;enable-background:accumulate;font-family:Andale Mono;-inkscape-font-specification:Andale Mono"
       d="m 254.09375,6.5625 0,146.375 1,0 0,-146.375 -1,0 z"
       id="path2927" />
    <path
       style="font-size:medium;font-style:normal;font-variant:normal;font-weight:normal;font-stretch:normal;text-indent:0;text-align:start;text-decoration:none;line-height:normal;letter-spacing:normal;word-spacing:normal;text-transform:none;direction:ltr;block-progression:tb;writing-mode:lr-tb;text-anchor:start;color:#000000;fill:#000000;fill-opacity:1;stroke:none;stroke-width:1px;marker:none;visibility:visible;display:inline;overflow:visible;enable-background:accumulate;font-family:Andale Mono;-inkscape-font-specification:Andale Mono"
       d="m 262.9375,142.53125 -8.78125,8.8125 0.6875,0.6875 8.8125,-8.78125 -0.71875,-0.71875 z"
       id="path2929" />
    <path
       style="font-size:medium;font-style:normal;font-variant:normal;font-weight:normal;font-stretch:normal;text-indent:0;text-align:start;text-decoration:none;line-height:normal;letter-spacing:normal;word-spacing:normal;text-transform:none;direction:ltr;block-progression:tb;writing-mode:lr-tb;text-anchor:start;color:#000000;fill:#000000;fill-opacity:1;stroke:none;stroke-width:1px;marker:none;visibility:visible;display:inline;overflow:visible;enable-background:accumulate;font-family:Andale Mono;-inkscape-font-specification:Andale Mono"
       d="m 262.9375,134.53125 -8.78125,8.8125 0.6875,0.6875 8.8125,-8.78125 -0.71875,-0.71875 z"
       id="path2931" />
    <path
       style="font-size:medium;font-style:normal;font-variant:normal;font-weight:normal;font-stretch:normal;text-indent:0;text-align:start;text-decoration:none;line-height:normal;letter-spacing:normal;word-spacing:normal;text-transform:none;direction:ltr;block-progression:tb;writing-mode:lr-tb;text-anchor:start;color:#000000;fill:#000000;fill-opacity:1;stroke:none;stroke-width:1px;marker:none;visibility:visible;display:inline;overflow:visible;enable-background:accumulate;font-family:Andale Mono;-inkscape-font-specification:Andale Mono"
       d="m 262.9375,126.53125 -8.78125,8.8125 0.6875,0.6875 8.8125,-8.78125 -0.71875,-0.71875 z"
       id="path2933" />
    <path
       style="font-size:medium;font-style:normal;font-variant:normal;font-weight:normal;font-stretch:normal;text-indent:0;text-align:start;text-decoration:none;line-height:normal;letter-spacing:normal;word-spacing:normal;text-transform:none;direction:ltr;block-progression:tb;writing-mode:lr-tb;text-anchor:start;color:#000000;fill:#000000;fill-opacity:1;stroke:none;stroke-width:1px;marker:none;visibility:visible;display:inline;overflow:visible;enable-background:accumulate;font-family:Andale Mono;-inkscape-font-specification:Andale Mono"
       d="m 262.9375,118.53125 -8.78125,8.8125 0.6875,0.6875 8.8125,-8.78125 -0.71875,-0.71875 z"
       id="path2935" />
    <path
       style="font-size:medium;font-style:normal;font-variant:normal;font-weight:normal;font-stretch:normal;text-indent:0;text-align:start;text-decoration:none;line-height:normal;letter-spacing:normal;word-spacing:normal;text-transform:none;direction:ltr;block-progression:tb;writing-mode:lr-tb;text-anchor:start;color:#000000;fill:#000000;fill-opacity:1;stroke:none;stroke-width:1px;marker:none;visibility:visible;display:inline;overflow:visible;enable-background:accumulate;font-family:Andale Mono;-inkscape-font-specification:Andale Mono"
       d="m 262.9375,110.53125 -8.78125,8.8125 0.6875,0.6875 8.8125,-8.78125 -0.71875,-0.71875 z"
       id="path2937" />
    <path
       style="font-size:medium;font-style:normal;font-variant:normal;font-weight:normal;font-stretch:normal;text-indent:0;text-align:start;text-decoration:none;line-height:normal;letter-spacing:normal;word-spacing:normal;text-transform:none;direction:ltr;block-progression:tb;writing-mode:lr-tb;text-anchor:start;color:#000000;fill:#000000;fill-opacity:1;stroke:none;stroke-width:1px;marker:none;visibility:visible;display:inline;overflow:visible;enable-background:accumulate;font-family:Andale Mono;-inkscape-font-specification:Andale Mono"
       d="m 262.9375,102.53125 -8.78125,8.8125 0.6875,0.6875 8.8125,-8.78125 -0.71875,-0.71875 z"
       id="path2939" />
    <path
       style="font-size:medium;font-style:normal;font-variant:normal;font-weight:normal;font-stretch:normal;text-indent:0;text-align:start;text-decoration:none;line-height:normal;letter-spacing:normal;word-spacing:normal;text-transform:none;direction:ltr;block-progression:tb;writing-mode:lr-tb;text-anchor:start;color:#000000;fill:#000000;fill-opacity:1;stroke:none;stroke-width:1px;marker:none;visibility:visible;display:inline;overflow:visible;enable-background:accumulate;font-family:Andale Mono;-inkscape-font-specification:Andale Mono"
       d="m 262.9375,94.53125 -8.78125,8.8125 0.6875,0.6875 8.8125,-8.78125 -0.71875,-0.71875 z"
       id="path2941" />
    <path
       style="font-size:medium;font-style:normal;font-variant:normal;font-weight:normal;font-stretch:normal;text-indent:0;text-align:start;text-decoration:none;line-height:normal;letter-spacing:normal;word-spacing:normal;text-transform:none;direction:ltr;block-progression:tb;writing-mode:lr-tb;text-anchor:start;color:#000000;fill:#000000;fill-opacity:1;stroke:none;stroke-width:1px;marker:none;visibility:visible;display:inline;overflow:visible;enable-background:accumulate;font-family:Andale Mono;-inkscape-font-specification:Andale Mono"
       d="m 262.9375,86.53125 -8.78125,8.8125 0.6875,0.6875 8.8125,-8.78125 -0.71875,-0.71875 z"
       id="path2943" />
    <path
       style="font-size:medium;font-style:normal;font-variant:normal;font-weight:normal;font-stretch:normal;text-indent:0;text-align:start;text-decoration:none;line-height:normal;letter-spacing:normal;word-spacing:normal;text-transform:none;direction:ltr;block-progression:tb;writing-mode:lr-tb;text-anchor:start;color:#000000;fill:#000000;fill-opacity:1;stroke:none;stroke-width:1px;marker:none;visibility:visible;display:inline;overflow:visible;enable-background:accumulate;font-family:Andale Mono;-inkscape-font-specification:Andale Mono"
       d="m 262.9375,78.53125 -8.78125,8.8125 0.6875,0.6875 8.8125,-8.78125 -0.71875,-0.71875 z"
       id="path2945" />
    <path
       style="font-size:medium;font-style:normal;font-variant:normal;font-weight:normal;font-stretch:normal;text-indent:0;text-align:start;text-decoration:none;line-height:normal;letter-spacing:normal;word-spacing:normal;text-transform:none;direction:ltr;block-progression:tb;writing-mode:lr-tb;text-anchor:start;color:#000000;fill:#000000;fill-opacity:1;stroke:none;stroke-width:1px;marker:none;visibility:visible;display:inline;overflow:visible;enable-background:accumulate;font-family:Andale Mono;-inkscape-font-specification:Andale Mono"
       d="m 262.9375,70.53125 -8.78125,8.8125 0.6875,0.6875 8.8125,-8.78125 -0.71875,-0.71875 z"
       id="path2947" />
    <path
       style="font-size:medium;font-style:normal;font-variant:normal;font-weight:normal;font-stretch:normal;text-indent:0;text-align:start;text-decoration:none;line-height:normal;letter-spacing:normal;word-spacing:normal;text-transform:none;direction:ltr;block-progression:tb;writing-mode:lr-tb;text-anchor:start;color:#000000;fill:#000000;fill-opacity:1;stroke:none;stroke-width:1px;marker:none;visibility:visible;display:inline;overflow:visible;enable-background:accumulate;font-family:Andale Mono;-inkscape-font-specification:Andale Mono"
       d="m 262.9375,62.53125 -8.78125,8.8125 0.6875,0.6875 8.8125,-8.78125 -0.71875,-0.71875 z"
       id="path2949" />
    <path
       style="font-size:medium;font-style:normal;font-variant:normal;font-weight:normal;font-stretch:normal;text-indent:0;text-align:start;text-decoration:none;line-height:normal;letter-spacing:normal;word-spacing:normal;text-transform:none;direction:ltr;block-progression:tb;writing-mode:lr-tb;text-anchor:start;color:#000000;fill:#000000;fill-opacity:1;stroke:none;stroke-width:1px;marker:none;visibility:visible;display:inline;overflow:visible;enable-background:accumulate;font-family:Andale Mono;-inkscape-font-specification:Andale Mono"
       d="m 262.9375,54.53125 -8.78125,8.8125 0.6875,0.6875 8.8125,-8.78125 -0.71875,-0.71875 z"
       id="path2951" />
    <path
       style="font-size:medium;font-style:normal;font-variant:normal;font-weight:normal;font-stretch:normal;text-indent:0;text-align:start;text-decoration:none;line-height:normal;letter-spacing:normal;word-spacing:normal;text-transform:none;direction:ltr;block-progression:tb;writing-mode:lr-tb;text-anchor:start;color:#000000;fill:#000000;fill-opacity:1;stroke:none;stroke-width:1px;marker:none;visibility:visible;display:inline;overflow:visible;enable-background:accumulate;font-family:Andale Mono;-inkscape-font-specification:Andale Mono"
       d="m 262.9375,46.53125 -8.78125,8.8125 0.6875,0.6875 8.8125,-8.78125 -0.71875,-0.71875 z"
       id="path2953" />
    <path
       style="font-size:medium;font-style:normal;font-variant:normal;font-weight:normal;font-stretch:normal;text-indent:0;text-align:start;text-decoration:none;line-height:normal;letter-spacing:normal;word-spacing:normal;text-transform:none;direction:ltr;block-progression:tb;writing-mode:lr-tb;text-anchor:start;color:#000000;fill:#000000;fill-opacity:1;stroke:none;stroke-width:1px;marker:none;visibility:visible;display:inline;overflow:visible;enable-background:accumulate;font-family:Andale Mono;-inkscape-font-specification:Andale Mono"
       d="m 262.9375,38.53125 -8.78125,8.8125 0.6875,0.6875 8.8125,-8.78125 -0.71875,-0.71875 z"
       id="path2955" />
    <path
       style="font-size:medium;font-style:normal;font-variant:normal;font-weight:normal;font-stretch:normal;text-indent:0;text-align:start;text-decoration:none;line-height:normal;letter-spacing:normal;word-spacing:normal;text-transform:none;direction:ltr;block-progression:tb;writing-mode:lr-tb;text-anchor:start;color:#000000;fill:#000000;fill-opacity:1;stroke:none;stroke-width:1px;marker:none;visibility:visible;display:inline;overflow:visible;enable-background:accumulate;font-family:Andale Mono;-inkscape-font-specification:Andale Mono"
       d="m 262.9375,30.53125 -8.78125,8.8125 0.6875,0.6875 8.8125,-8.78125 -0.71875,-0.71875 z"
       id="path2957" />
    <path
       style="font-size:medium;font-style:normal;font-variant:normal;font-weight:normal;font-stretch:normal;text-indent:0;text-align:start;text-decoration:none;line-height:normal;letter-spacing:normal;word-spacing:normal;text-transform:none;direction:ltr;block-progression:tb;writing-mode:lr-tb;text-anchor:start;color:#000000;fill:#000000;fill-opacity:1;stroke:none;stroke-width:1px;marker:none;visibility:visible;display:inline;overflow:visible;enable-background:accumulate;font-family:Andale Mono;-inkscape-font-specification:Andale Mono"
       d="m 262.9375,22.53125 -8.78125,8.8125 0.6875,0.6875 8.8125,-8.78125 -0.71875,-0.71875 z"
       id="path2959" />
    <path
       style="font-size:medium;font-style:normal;font-variant:normal;font-weight:normal;font-stretch:normal;text-indent:0;text-align:start;text-decoration:none;line-height:normal;letter-spacing:normal;word-spacing:normal;text-transform:none;direction:ltr;block-progression:tb;writing-mode:lr-tb;text-anchor:start;color:#000000;fill:#000000;fill-opacity:1;stroke:none;stroke-width:1px;marker:none;visibility:visible;display:inline;overflow:visible;enable-background:accumulate;font-family:Andale Mono;-inkscape-font-specification:Andale Mono"
       d="m 262.9375,14.53125 -8.78125,8.8125 0.6875,0.6875 8.8125,-8.78125 -0.71875,-0.71875 z"
       id="path2961" />
    <path
       style="font-size:medium;font-style:normal;font-variant:normal;font-weight:normal;font-stretch:normal;text-indent:0;text-align:start;text-decoration:none;line-height:normal;letter-spacing:normal;word-spacing:normal;text-transform:none;direction:ltr;block-progression:tb;writing-mode:lr-tb;text-anchor:start;color:#000000;fill:#000000;fill-opacity:1;stroke:none;stroke-width:1px;marker:none;visibility:visible;display:inline;overflow:visible;enable-background:accumulate;font-family:Andale Mono;-inkscape-font-specification:Andale Mono"
       d="m 262.9375,6.53125 -8.78125,8.8125 0.6875,0.6875 8.8125,-8.78125 -0.71875,-0.71875 z"
       id="path2963" />
    <path
       style="font-size:medium;font-style:normal;font-variant:normal;font-weight:normal;font-stretch:normal;text-indent:0;text-align:start;text-decoration:none;line-height:normal;letter-spacing:normal;word-spacing:normal;text-transform:none;direction:ltr;block-progression:tb;writing-mode:lr-tb;text-anchor:start;color:#000000;fill:#000000;fill-opacity:1;stroke:none;stroke-width:1px;marker:none;visibility:visible;display:inline;overflow:visible;enable-background:accumulate;font-family:Andale Mono;-inkscape-font-specification:Andale Mono"
       d="m 250.3125,79.25 0,1 4.25,0 0,-1 -4.25,0 z"
       id="path3003" />
    <path
       style="fill:#000000;fill-opacity:1;stroke:none"
       d="m 49.710787,79.750002 c 0,2.623352 -2.126648,4.750001 -4.75,4.750001 -2.623352,0 -4.75,-2.126649 -4.75,-4.750001 0,-2.623352 2.126648,-4.75 4.75,-4.75 2.623352,0 4.75,2.126648 4.75,4.75 z"
       id="path3005" />
    <path
       style="fill:#000000;fill-opacity:1;stroke:none"
       d="m 93.710787,79.750002 c 0,2.623352 -2.126648,4.750001 -4.75,4.750001 -2.623352,0 -4.75,-2.126649 -4.75,-4.750001 0,-2.623352 2.126648,-4.75 4.75,-4.75 2.623352,0 4.75,2.126648 4.75,4.75 z"
       id="path3779" />
    <path
       style="fill:#000000;fill-opacity:1;stroke:none"
       d="m 137.71078,79.750002 c 0,2.623352 -2.12664,4.750001 -4.75,4.750001 -2.62335,0 -4.75,-2.126649 -4.75,-4.750001 0,-2.623352 2.12665,-4.75 4.75,-4.75 2.62336,0 4.75,2.126648 4.75,4.75 z"
       id="path3781" />
    <path
       style="fill:#000000;fill-opacity:1;stroke:none"
       d="m 181.71078,79.750002 c 0,2.623352 -2.12664,4.750001 -4.75,4.750001 -2.62335,0 -4.75,-2.126649 -4.75,-4.750001 0,-2.623352 2.12665,-4.75 4.75,-4.75 2.62336,0 4.75,2.126648 4.75,4.75 z"
       id="path3783" />
    <path
       style="fill:#000000;fill-opacity:1;stroke:none"
       d="m 225.71078,79.750002 c 0,2.623352 -2.12664,4.750001 -4.75,4.750001 -2.62335,0 -4.75,-2.126649 -4.75,-4.750001 0,-2.623352 2.12665,-4.75 4.75,-4.75 2.62336,0 4.75,2.126648 4.75,4.75 z"
       id="path3785" />
    <path
       style="font-size:medium;font-style:normal;font-variant:normal;font-weight:normal;font-stretch:normal;text-indent:0;text-align:start;text-decoration:none;line-height:normal;letter-spacing:normal;word-spacing:normal;text-transform:none;direction:ltr;block-progression:tb;writing-mode:lr-tb;text-anchor:start;color:#000000;fill:#000000;fill-opacity:1;stroke:none;stroke-width:1px;marker:none;visibility:visible;display:inline;overflow:visible;enable-background:accumulate;font-family:Andale Mono;-inkscape-font-specification:Andale Mono"
       d="m 27.03125,72.625 c -0.433399,-0.0036 -0.744318,0.277122 -0.96875,0.625 -0.224432,0.347878 -0.412035,0.791175 -0.5625,1.375 -0.300931,1.16765 -0.46875,2.863542 -0.46875,5.09375 0,2.167967 -0.22135,3.768874 -0.53125,4.78125 -0.15495,0.506188 -0.348747,0.866994 -0.5,1.0625 -0.151253,0.195506 -0.231585,0.187781 -0.25,0.1875 -0.01842,-2.81e-4 -0.09629,-0.01692 -0.25,-0.21875 -0.153706,-0.20183 -0.344956,-0.559012 -0.5,-1.0625 -0.310088,-1.006976 -0.53125,-2.55575 -0.53125,-4.65625 0,-2.175158 -0.157383,-3.784512 -0.40625,-4.90625 C 21.813633,73.784512 21.529483,73.102173 20.96875,72.75 20.688384,72.573913 20.286642,72.545092 20,72.6875 c -0.286642,0.142408 -0.469655,0.407873 -0.625,0.6875 -0.31069,0.559254 -0.4741,1.31197 -0.5,2.25 -0.02696,0.976275 -0.412122,1.921305 -0.9375,2.59375 -0.525378,0.672445 -1.192011,1.047709 -1.71875,1.03125 l -0.03125,1 c 0.973261,0.03041 1.872049,-0.562521 2.53125,-1.40625 0.659201,-0.843729 1.12284,-1.977491 1.15625,-3.1875 0.02266,-0.820492 0.187936,-1.475778 0.375,-1.8125 0.08112,-0.146012 0.156282,-0.1959 0.1875,-0.21875 0.08631,0.06286 0.435513,0.505054 0.65625,1.5 0.22461,1.012402 0.375,2.560947 0.375,4.6875 0,2.169788 0.238103,3.813824 0.59375,4.96875 0.177824,0.577463 0.362621,1.030472 0.625,1.375 0.262379,0.344528 0.637092,0.587263 1.0625,0.59375 0.425408,0.0065 0.766419,-0.251436 1.03125,-0.59375 0.264831,-0.342314 0.478333,-0.793784 0.65625,-1.375 0.355835,-1.162433 0.59375,-2.827335 0.59375,-5.0625 0,-2.172838 0.170071,-3.806092 0.4375,-4.84375 0.133714,-0.518829 0.306708,-0.891017 0.4375,-1.09375 0.130792,-0.202733 0.179492,-0.155794 0.125,-0.15625 -0.05449,-4.56e-4 0.02436,-0.01994 0.15625,0.1875 0.131892,0.20744 0.272358,0.567963 0.40625,1.09375 0.267784,1.051575 0.46875,2.698792 0.46875,4.90625 0,2.259452 0.195371,3.96203 0.53125,5.15625 0.16794,0.59711 0.376864,1.082263 0.625,1.4375 0.248136,0.355237 0.59669,0.622342 1.03125,0.625 0.43456,0.0027 0.782294,-0.268769 1.03125,-0.625 0.248956,-0.356231 0.425902,-0.833113 0.59375,-1.4375 0.335695,-1.208774 0.5625,-2.949977 0.5625,-5.28125 0,-2.185128 0.163972,-3.705949 0.40625,-4.6875 0.242278,-0.981551 0.613717,-1.358113 0.65625,-1.375 0.02127,-0.0084 -0.02793,-0.0088 0.03125,0.03125 0.05918,0.04008 0.176386,0.169554 0.28125,0.375 0.209728,0.410892 0.369364,1.101924 0.375,1.9375 0.014,2.074975 1.069508,3.251566 2.09375,3.78125 1.024242,0.529684 2.03125,0.5 2.03125,0.5 l 0,-1 c 0,0 -0.786421,-0.0049 -1.5625,-0.40625 -0.776079,-0.401348 -1.550606,-1.111602 -1.5625,-2.875 -0.0065,-0.96232 -0.188225,-1.795432 -0.5,-2.40625 -0.155888,-0.305409 -0.328889,-0.570622 -0.59375,-0.75 -0.264861,-0.179378 -0.645379,-0.253389 -0.96875,-0.125 -0.646742,0.256778 -0.976837,0.955821 -1.25,2.0625 -0.273163,1.106679 -0.4375,2.700642 -0.4375,4.9375 0,2.27015 -0.234133,3.961387 -0.53125,5.03125 -0.148559,0.534931 -0.322198,0.915299 -0.46875,1.125 -0.146552,0.209701 -0.200185,0.187422 -0.1875,0.1875 0.01269,7.8e-5 -0.07138,0.02348 -0.21875,-0.1875 -0.147372,-0.210981 -0.320283,-0.597127 -0.46875,-1.125 -0.296933,-1.055747 -0.5,-2.709918 -0.5,-4.90625 0,-2.263951 -0.199425,-3.975906 -0.5,-5.15625 -0.150288,-0.590172 -0.307917,-1.054993 -0.53125,-1.40625 -0.223333,-0.351257 -0.566601,-0.62137 -1,-0.625 z"
       id="path3787" />
    <path
       style="font-size:medium;font-style:normal;font-variant:normal;font-weight:normal;font-stretch:normal;text-indent:0;text-align:start;text-decoration:none;line-height:normal;letter-spacing:normal;word-spacing:normal;text-transform:none;direction:ltr;block-progression:tb;writing-mode:lr-tb;text-anchor:start;color:#000000;fill:#000000;fill-opacity:1;stroke:none;stroke-width:1px;marker:none;visibility:visible;display:inline;overflow:visible;enable-background:accumulate;font-family:Andale Mono;-inkscape-font-specification:Andale Mono"
       d="m 67.03125,72.625 c -0.433399,-0.0036 -0.744318,0.277122 -0.96875,0.625 -0.224432,0.347878 -0.412035,0.791175 -0.5625,1.375 -0.300931,1.16765 -0.46875,2.863542 -0.46875,5.09375 0,2.167967 -0.22135,3.768874 -0.53125,4.78125 -0.15495,0.506188 -0.348747,0.866994 -0.5,1.0625 -0.151253,0.195506 -0.231585,0.187781 -0.25,0.1875 -0.01841,-2.81e-4 -0.09629,-0.01692 -0.25,-0.21875 -0.153706,-0.20183 -0.344956,-0.559012 -0.5,-1.0625 -0.310088,-1.006976 -0.53125,-2.55575 -0.53125,-4.65625 0,-2.175158 -0.157383,-3.784512 -0.40625,-4.90625 C 61.813633,73.784512 61.529483,73.102173 60.96875,72.75 60.688384,72.573913 60.286642,72.545092 60,72.6875 c -0.286642,0.142408 -0.469655,0.407873 -0.625,0.6875 -0.31069,0.559254 -0.4741,1.31197 -0.5,2.25 -0.02696,0.976275 -0.412122,1.921305 -0.9375,2.59375 -0.525378,0.672445 -1.192011,1.047709 -1.71875,1.03125 l -0.03125,1 c 0.973261,0.03041 1.872049,-0.562521 2.53125,-1.40625 0.659201,-0.843729 1.12284,-1.977491 1.15625,-3.1875 0.02266,-0.820492 0.187936,-1.475778 0.375,-1.8125 0.08112,-0.146012 0.156282,-0.1959 0.1875,-0.21875 0.08631,0.06286 0.435513,0.505054 0.65625,1.5 0.22461,1.012402 0.375,2.560947 0.375,4.6875 0,2.169788 0.238103,3.813824 0.59375,4.96875 0.177824,0.577463 0.362621,1.030472 0.625,1.375 0.262379,0.344528 0.637092,0.587263 1.0625,0.59375 0.425408,0.0065 0.766419,-0.251436 1.03125,-0.59375 0.264831,-0.342314 0.478333,-0.793784 0.65625,-1.375 0.355835,-1.162433 0.59375,-2.827335 0.59375,-5.0625 0,-2.172838 0.170071,-3.806092 0.4375,-4.84375 0.133714,-0.518829 0.306708,-0.891017 0.4375,-1.09375 0.130792,-0.202733 0.179492,-0.155794 0.125,-0.15625 -0.05449,-4.56e-4 0.02436,-0.01994 0.15625,0.1875 0.131892,0.20744 0.272358,0.567963 0.40625,1.09375 0.267784,1.051575 0.46875,2.698792 0.46875,4.90625 0,2.259452 0.195371,3.96203 0.53125,5.15625 0.16794,0.59711 0.376864,1.082263 0.625,1.4375 0.248136,0.355237 0.59669,0.622342 1.03125,0.625 0.43456,0.0027 0.782294,-0.268769 1.03125,-0.625 0.248956,-0.356231 0.425902,-0.833113 0.59375,-1.4375 0.335695,-1.208774 0.5625,-2.949977 0.5625,-5.28125 0,-2.185128 0.163972,-3.705949 0.40625,-4.6875 0.242278,-0.981551 0.613717,-1.358113 0.65625,-1.375 0.02127,-0.0084 -0.02793,-0.0088 0.03125,0.03125 0.05918,0.04008 0.176386,0.169554 0.28125,0.375 0.209728,0.410892 0.369364,1.101924 0.375,1.9375 0.014,2.074975 1.069508,3.251566 2.09375,3.78125 1.024242,0.529684 2.03125,0.5 2.03125,0.5 l 0,-1 c 0,0 -0.786421,-0.0049 -1.5625,-0.40625 -0.776079,-0.401348 -1.550606,-1.111602 -1.5625,-2.875 -0.0065,-0.96232 -0.188225,-1.795432 -0.5,-2.40625 -0.155888,-0.305409 -0.328889,-0.570622 -0.59375,-0.75 -0.264861,-0.179378 -0.645379,-0.253389 -0.96875,-0.125 -0.646742,0.256778 -0.976837,0.955821 -1.25,2.0625 -0.273163,1.106679 -0.4375,2.700642 -0.4375,4.9375 0,2.27015 -0.234133,3.961387 -0.53125,5.03125 -0.148559,0.534931 -0.322198,0.915299 -0.46875,1.125 -0.146552,0.209701 -0.200185,0.187422 -0.1875,0.1875 0.01269,7.8e-5 -0.07138,0.02348 -0.21875,-0.1875 -0.147372,-0.210981 -0.320283,-0.597127 -0.46875,-1.125 -0.296933,-1.055747 -0.5,-2.709918 -0.5,-4.90625 0,-2.263951 -0.199425,-3.975906 -0.5,-5.15625 -0.150288,-0.590172 -0.307917,-1.054993 -0.53125,-1.40625 -0.223333,-0.351257 -0.566601,-0.62137 -1,-0.625 z"
       id="path3789" />
    <path
       style="font-size:medium;font-style:normal;font-variant:normal;font-weight:normal;font-stretch:normal;text-indent:0;text-align:start;text-decoration:none;line-height:normal;letter-spacing:normal;word-spacing:normal;text-transform:none;direction:ltr;block-progression:tb;writing-mode:lr-tb;text-anchor:start;color:#000000;fill:#000000;fill-opacity:1;stroke:none;stroke-width:1px;marker:none;visibility:visible;display:inline;overflow:visible;enable-background:accumulate;font-family:Andale Mono;-inkscape-font-specification:Andale Mono"
       d="m 111.03125,72.625 c -0.4334,-0.0036 -0.74432,0.277122 -0.96875,0.625 -0.22443,0.347878 -0.41203,0.791175 -0.5625,1.375 -0.30093,1.16765 -0.46875,2.863542 -0.46875,5.09375 0,2.167967 -0.22135,3.768874 -0.53125,4.78125 -0.15495,0.506188 -0.34875,0.866994 -0.5,1.0625 -0.15125,0.195506 -0.23158,0.187781 -0.25,0.1875 -0.0184,-2.81e-4 -0.0963,-0.01692 -0.25,-0.21875 -0.15371,-0.20183 -0.34496,-0.559012 -0.5,-1.0625 -0.31009,-1.006976 -0.53125,-2.55575 -0.53125,-4.65625 0,-2.175158 -0.15738,-3.784511 -0.40625,-4.90625 -0.24887,-1.121739 -0.53302,-1.804077 -1.09375,-2.15625 -0.28037,-0.176087 -0.68211,-0.204908 -0.96875,-0.0625 -0.28664,0.142408 -0.46966,0.407873 -0.625,0.6875 -0.31069,0.559254 -0.4741,1.31197 -0.5,2.25 -0.027,0.976275 -0.41212,1.921305 -0.9375,2.59375 -0.52538,0.672445 -1.19201,1.047709 -1.71875,1.03125 l -0.0312,1 c 0.97326,0.03041 1.87205,-0.562521 2.53125,-1.40625 0.6592,-0.843729 1.12284,-1.977491 1.15625,-3.1875 0.0226,-0.820491 0.18794,-1.475778 0.375,-1.8125 0.0811,-0.146012 0.15628,-0.1959 0.1875,-0.21875 0.0863,0.06286 0.43551,0.505054 0.65625,1.5 0.22461,1.012401 0.375,2.560947 0.375,4.6875 0,2.169788 0.2381,3.813824 0.59375,4.96875 0.17782,0.577463 0.36262,1.030472 0.625,1.375 0.26238,0.344528 0.63709,0.587263 1.0625,0.59375 0.42541,0.0065 0.76642,-0.251436 1.03125,-0.59375 0.26483,-0.342314 0.47833,-0.793784 0.65625,-1.375 0.35583,-1.162433 0.59375,-2.827335 0.59375,-5.0625 0,-2.172838 0.17007,-3.806092 0.4375,-4.84375 0.13371,-0.518829 0.30671,-0.891017 0.4375,-1.09375 0.13079,-0.202733 0.17949,-0.155794 0.125,-0.15625 -0.0545,-4.56e-4 0.0244,-0.01994 0.15625,0.1875 0.13189,0.20744 0.27236,0.567963 0.40625,1.09375 0.26778,1.051575 0.46875,2.698792 0.46875,4.90625 0,2.259452 0.19537,3.96203 0.53125,5.15625 0.16794,0.59711 0.37686,1.082263 0.625,1.4375 0.24814,0.355237 0.59669,0.622342 1.03125,0.625 0.43456,0.0027 0.78229,-0.268769 1.03125,-0.625 0.24896,-0.356231 0.4259,-0.833113 0.59375,-1.4375 0.3357,-1.208774 0.5625,-2.949977 0.5625,-5.28125 0,-2.185128 0.16397,-3.705949 0.40625,-4.6875 0.24228,-0.981551 0.61372,-1.358113 0.65625,-1.375 0.0213,-0.0084 -0.0279,-0.0088 0.0312,0.03125 0.0592,0.04008 0.17639,0.169554 0.28125,0.375 0.20973,0.410892 0.36936,1.101924 0.375,1.9375 0.014,2.074974 1.06951,3.251566 2.09375,3.78125 1.02424,0.529684 2.03125,0.5 2.03125,0.5 l 0,-1 c 0,0 -0.78642,-0.0049 -1.5625,-0.40625 -0.77608,-0.401347 -1.5506,-1.111601 -1.5625,-2.875 -0.006,-0.96232 -0.18822,-1.795432 -0.5,-2.40625 -0.15589,-0.305409 -0.32889,-0.570622 -0.59375,-0.75 -0.26486,-0.179378 -0.64538,-0.253389 -0.96875,-0.125 -0.64674,0.256778 -0.97684,0.955821 -1.25,2.0625 -0.27316,1.106679 -0.4375,2.700642 -0.4375,4.9375 0,2.27015 -0.23413,3.961387 -0.53125,5.03125 -0.14856,0.534931 -0.3222,0.915299 -0.46875,1.125 -0.14655,0.209701 -0.20018,0.187422 -0.1875,0.1875 0.0127,7.8e-5 -0.0714,0.02348 -0.21875,-0.1875 -0.14737,-0.210981 -0.32028,-0.597127 -0.46875,-1.125 -0.29693,-1.055747 -0.5,-2.709918 -0.5,-4.90625 0,-2.263951 -0.19942,-3.975906 -0.5,-5.15625 -0.15029,-0.590172 -0.30792,-1.054993 -0.53125,-1.40625 -0.22333,-0.351257 -0.5666,-0.62137 -1,-0.625 z"
       id="path3791" />
    <path
       style="font-size:medium;font-style:normal;font-variant:normal;font-weight:normal;font-stretch:normal;text-indent:0;text-align:start;text-decoration:none;line-height:normal;letter-spacing:normal;word-spacing:normal;text-transform:none;direction:ltr;block-progression:tb;writing-mode:lr-tb;text-anchor:start;color:#000000;fill:#000000;fill-opacity:1;stroke:none;stroke-width:1px;marker:none;visibility:visible;display:inline;overflow:visible;enable-background:accumulate;font-family:Andale Mono;-inkscape-font-specification:Andale Mono"
       d="m 155.03125,72.625 c -0.4334,-0.0036 -0.74432,0.277122 -0.96875,0.625 -0.22443,0.347878 -0.41203,0.791175 -0.5625,1.375 -0.30093,1.16765 -0.46875,2.863542 -0.46875,5.09375 0,2.167967 -0.22135,3.768874 -0.53125,4.78125 -0.15495,0.506188 -0.34875,0.866994 -0.5,1.0625 -0.15125,0.195506 -0.23158,0.187781 -0.25,0.1875 -0.0184,-2.81e-4 -0.0963,-0.01692 -0.25,-0.21875 -0.15371,-0.20183 -0.34496,-0.559012 -0.5,-1.0625 -0.31009,-1.006976 -0.53125,-2.55575 -0.53125,-4.65625 0,-2.175158 -0.15738,-3.784511 -0.40625,-4.90625 -0.24887,-1.121739 -0.53302,-1.804077 -1.09375,-2.15625 -0.28037,-0.176087 -0.68211,-0.204908 -0.96875,-0.0625 -0.28664,0.142408 -0.46966,0.407873 -0.625,0.6875 -0.31069,0.559254 -0.4741,1.31197 -0.5,2.25 -0.027,0.976275 -0.41212,1.921305 -0.9375,2.59375 -0.52538,0.672445 -1.19201,1.047709 -1.71875,1.03125 l -0.0312,1 c 0.97326,0.03041 1.87205,-0.562521 2.53125,-1.40625 0.6592,-0.843729 1.12284,-1.977491 1.15625,-3.1875 0.0226,-0.820491 0.18794,-1.475778 0.375,-1.8125 0.0811,-0.146012 0.15628,-0.1959 0.1875,-0.21875 0.0863,0.06286 0.43551,0.505054 0.65625,1.5 0.22461,1.012401 0.375,2.560947 0.375,4.6875 0,2.169788 0.2381,3.813824 0.59375,4.96875 0.17782,0.577463 0.36262,1.030472 0.625,1.375 0.26238,0.344528 0.63709,0.587263 1.0625,0.59375 0.42541,0.0065 0.76642,-0.251436 1.03125,-0.59375 0.26483,-0.342314 0.47833,-0.793784 0.65625,-1.375 0.35583,-1.162433 0.59375,-2.827335 0.59375,-5.0625 0,-2.172838 0.17007,-3.806092 0.4375,-4.84375 0.13371,-0.518829 0.30671,-0.891017 0.4375,-1.09375 0.13079,-0.202733 0.17949,-0.155794 0.125,-0.15625 -0.0545,-4.56e-4 0.0244,-0.01994 0.15625,0.1875 0.13189,0.20744 0.27236,0.567963 0.40625,1.09375 0.26778,1.051575 0.46875,2.698792 0.46875,4.90625 0,2.259452 0.19537,3.96203 0.53125,5.15625 0.16794,0.59711 0.37686,1.082263 0.625,1.4375 0.24814,0.355237 0.59669,0.622342 1.03125,0.625 0.43456,0.0027 0.78229,-0.268769 1.03125,-0.625 0.24896,-0.356231 0.4259,-0.833113 0.59375,-1.4375 0.3357,-1.208774 0.5625,-2.949977 0.5625,-5.28125 0,-2.185128 0.16397,-3.705949 0.40625,-4.6875 0.24228,-0.981551 0.61372,-1.358113 0.65625,-1.375 0.0213,-0.0084 -0.0279,-0.0088 0.0312,0.03125 0.0592,0.04008 0.17639,0.169554 0.28125,0.375 0.20973,0.410892 0.36936,1.101924 0.375,1.9375 0.014,2.074974 1.06951,3.251566 2.09375,3.78125 1.02424,0.529684 2.03125,0.5 2.03125,0.5 l 0,-1 c 0,0 -0.78642,-0.0049 -1.5625,-0.40625 -0.77608,-0.401347 -1.5506,-1.111601 -1.5625,-2.875 -0.006,-0.96232 -0.18822,-1.795432 -0.5,-2.40625 -0.15589,-0.305409 -0.32889,-0.570622 -0.59375,-0.75 -0.26486,-0.179378 -0.64538,-0.253389 -0.96875,-0.125 -0.64674,0.256778 -0.97684,0.955821 -1.25,2.0625 -0.27316,1.106679 -0.4375,2.700642 -0.4375,4.9375 0,2.27015 -0.23413,3.961387 -0.53125,5.03125 -0.14856,0.534931 -0.3222,0.915299 -0.46875,1.125 -0.14655,0.209701 -0.20018,0.187422 -0.1875,0.1875 0.0127,7.8e-5 -0.0714,0.02348 -0.21875,-0.1875 -0.14737,-0.210981 -0.32028,-0.597127 -0.46875,-1.125 -0.29693,-1.055747 -0.5,-2.709918 -0.5,-4.90625 0,-2.263951 -0.19942,-3.975906 -0.5,-5.15625 -0.15029,-0.590172 -0.30792,-1.054993 -0.53125,-1.40625 -0.22333,-0.351257 -0.5666,-0.62137 -1,-0.625 z"
       id="path3793" />
    <path
       style="font-size:medium;font-style:normal;font-variant:normal;font-weight:normal;font-stretch:normal;text-indent:0;text-align:start;text-decoration:none;line-height:normal;letter-spacing:normal;word-spacing:normal;text-transform:none;direction:ltr;block-progression:tb;writing-mode:lr-tb;text-anchor:start;color:#000000;fill:#000000;fill-opacity:1;stroke:none;stroke-width:1px;marker:none;visibility:visible;display:inline;overflow:visible;enable-background:accumulate;font-family:Andale Mono;-inkscape-font-specification:Andale Mono"
       d="m 199.03125,72.625 c -0.4334,-0.0036 -0.74432,0.277122 -0.96875,0.625 -0.22443,0.347878 -0.41203,0.791175 -0.5625,1.375 -0.30093,1.16765 -0.46875,2.863542 -0.46875,5.09375 0,2.167967 -0.22135,3.768874 -0.53125,4.78125 -0.15495,0.506188 -0.34875,0.866994 -0.5,1.0625 -0.15125,0.195506 -0.23158,0.187781 -0.25,0.1875 -0.0184,-2.81e-4 -0.0963,-0.01692 -0.25,-0.21875 -0.15371,-0.20183 -0.34496,-0.559012 -0.5,-1.0625 -0.31009,-1.006976 -0.53125,-2.55575 -0.53125,-4.65625 0,-2.175158 -0.15738,-3.784511 -0.40625,-4.90625 -0.24887,-1.121739 -0.53302,-1.804077 -1.09375,-2.15625 -0.28037,-0.176087 -0.68211,-0.204908 -0.96875,-0.0625 -0.28664,0.142408 -0.46966,0.407873 -0.625,0.6875 -0.31069,0.559254 -0.4741,1.31197 -0.5,2.25 -0.027,0.976275 -0.41212,1.921305 -0.9375,2.59375 -0.52538,0.672445 -1.19201,1.047709 -1.71875,1.03125 l -0.0312,1 c 0.97326,0.03041 1.87205,-0.562521 2.53125,-1.40625 0.6592,-0.843729 1.12284,-1.977491 1.15625,-3.1875 0.0226,-0.820491 0.18794,-1.475778 0.375,-1.8125 0.0811,-0.146012 0.15628,-0.1959 0.1875,-0.21875 0.0863,0.06286 0.43551,0.505054 0.65625,1.5 0.22461,1.012401 0.375,2.560947 0.375,4.6875 0,2.169788 0.2381,3.813824 0.59375,4.96875 0.17782,0.577463 0.36262,1.030472 0.625,1.375 0.26238,0.344528 0.63709,0.587263 1.0625,0.59375 0.42541,0.0065 0.76642,-0.251436 1.03125,-0.59375 0.26483,-0.342314 0.47833,-0.793784 0.65625,-1.375 0.35583,-1.162433 0.59375,-2.827335 0.59375,-5.0625 0,-2.172838 0.17007,-3.806092 0.4375,-4.84375 0.13371,-0.518829 0.30671,-0.891017 0.4375,-1.09375 0.13079,-0.202733 0.17949,-0.155794 0.125,-0.15625 -0.0545,-4.56e-4 0.0244,-0.01994 0.15625,0.1875 0.13189,0.20744 0.27236,0.567963 0.40625,1.09375 0.26778,1.051575 0.46875,2.698792 0.46875,4.90625 0,2.259452 0.19537,3.96203 0.53125,5.15625 0.16794,0.59711 0.37686,1.082263 0.625,1.4375 0.24814,0.355237 0.59669,0.622342 1.03125,0.625 0.43456,0.0027 0.78229,-0.268769 1.03125,-0.625 0.24896,-0.356231 0.4259,-0.833113 0.59375,-1.4375 0.3357,-1.208774 0.5625,-2.949977 0.5625,-5.28125 0,-2.185128 0.16397,-3.705949 0.40625,-4.6875 0.24228,-0.981551 0.61372,-1.358113 0.65625,-1.375 0.0213,-0.0084 -0.0279,-0.0088 0.0312,0.03125 0.0592,0.04008 0.17639,0.169554 0.28125,0.375 0.20973,0.410892 0.36936,1.101924 0.375,1.9375 0.014,2.074974 1.06951,3.251566 2.09375,3.78125 1.02424,0.529684 2.03125,0.5 2.03125,0.5 l 0,-1 c 0,0 -0.78642,-0.0049 -1.5625,-0.40625 -0.77608,-0.401347 -1.5506,-1.111601 -1.5625,-2.875 -0.006,-0.96232 -0.18822,-1.795432 -0.5,-2.40625 -0.15589,-0.305409 -0.32889,-0.570622 -0.59375,-0.75 -0.26486,-0.179378 -0.64538,-0.253389 -0.96875,-0.125 -0.64674,0.256778 -0.97684,0.955821 -1.25,2.0625 -0.27316,1.106679 -0.4375,2.700642 -0.4375,4.9375 0,2.27015 -0.23413,3.961387 -0.53125,5.03125 -0.14856,0.534931 -0.3222,0.915299 -0.46875,1.125 -0.14655,0.209701 -0.20018,0.187422 -0.1875,0.1875 0.0127,7.8e-5 -0.0714,0.02348 -0.21875,-0.1875 -0.14737,-0.210981 -0.32028,-0.597127 -0.46875,-1.125 -0.29693,-1.055747 -0.5,-2.709918 -0.5,-4.90625 0,-2.263951 -0.19942,-3.975906 -0.5,-5.15625 -0.15029,-0.590172 -0.30792,-1.054993 -0.53125,-1.40625 -0.22333,-0.351257 -0.5666,-0.62137 -1,-0.625 z"
       id="path3795" />
    <path
       style="font-size:medium;font-style:normal;font-variant:normal;font-weight:normal;font-stretch:normal;text-indent:0;text-align:start;text-decoration:none;line-height:normal;letter-spacing:normal;word-spacing:normal;text-transform:none;direction:ltr;block-progression:tb;writing-mode:lr-tb;text-anchor:start;color:#000000;fill:#000000;fill-opacity:1;stroke:none;stroke-width:1px;marker:none;visibility:visible;display:inline;overflow:visible;enable-background:accumulate;font-family:Andale Mono;-inkscape-font-specification:Andale Mono"
       d="m 239.03125,72.625 c -0.4334,-0.0036 -0.74432,0.277122 -0.96875,0.625 -0.22443,0.347878 -0.41203,0.791175 -0.5625,1.375 -0.30093,1.16765 -0.46875,2.863542 -0.46875,5.09375 0,2.167967 -0.22135,3.768874 -0.53125,4.78125 -0.15495,0.506188 -0.34875,0.866994 -0.5,1.0625 -0.15125,0.195506 -0.23158,0.187781 -0.25,0.1875 -0.0184,-2.81e-4 -0.0963,-0.01692 -0.25,-0.21875 -0.15371,-0.20183 -0.34496,-0.559012 -0.5,-1.0625 -0.31009,-1.006976 -0.53125,-2.55575 -0.53125,-4.65625 0,-2.175158 -0.15738,-3.784511 -0.40625,-4.90625 -0.24887,-1.121739 -0.53302,-1.804077 -1.09375,-2.15625 -0.28037,-0.176087 -0.68211,-0.204908 -0.96875,-0.0625 -0.28664,0.142408 -0.46966,0.407873 -0.625,0.6875 -0.31069,0.559254 -0.4741,1.31197 -0.5,2.25 -0.027,0.976275 -0.41212,1.921305 -0.9375,2.59375 -0.52538,0.672445 -1.19201,1.047709 -1.71875,1.03125 l -0.0312,1 c 0.97326,0.03041 1.87205,-0.562521 2.53125,-1.40625 0.6592,-0.843729 1.12284,-1.977491 1.15625,-3.1875 0.0226,-0.820491 0.18794,-1.475778 0.375,-1.8125 0.0811,-0.146012 0.15628,-0.1959 0.1875,-0.21875 0.0863,0.06286 0.43551,0.505054 0.65625,1.5 0.22461,1.012401 0.375,2.560947 0.375,4.6875 0,2.169788 0.2381,3.813824 0.59375,4.96875 0.17782,0.577463 0.36262,1.030472 0.625,1.375 0.26238,0.344528 0.63709,0.587263 1.0625,0.59375 0.42541,0.0065 0.76642,-0.251436 1.03125,-0.59375 0.26483,-0.342314 0.47833,-0.793784 0.65625,-1.375 0.35583,-1.162433 0.59375,-2.827335 0.59375,-5.0625 0,-2.172838 0.17007,-3.806092 0.4375,-4.84375 0.13371,-0.518829 0.30671,-0.891017 0.4375,-1.09375 0.13079,-0.202733 0.17949,-0.155794 0.125,-0.15625 -0.0545,-4.56e-4 0.0244,-0.01994 0.15625,0.1875 0.13189,0.20744 0.27236,0.567963 0.40625,1.09375 0.26778,1.051575 0.46875,2.698792 0.46875,4.90625 0,2.259452 0.19537,3.96203 0.53125,5.15625 0.16794,0.59711 0.37686,1.082263 0.625,1.4375 0.24814,0.355237 0.59669,0.622342 1.03125,0.625 0.43456,0.0027 0.78229,-0.268769 1.03125,-0.625 0.24896,-0.356231 0.4259,-0.833113 0.59375,-1.4375 0.3357,-1.208774 0.5625,-2.949977 0.5625,-5.28125 0,-2.185128 0.16397,-3.705949 0.40625,-4.6875 0.24228,-0.981551 0.61372,-1.358113 0.65625,-1.375 0.0213,-0.0084 -0.0279,-0.0088 0.0312,0.03125 0.0592,0.04008 0.17639,0.169554 0.28125,0.375 0.20973,0.410892 0.36936,1.101924 0.375,1.9375 0.014,2.074974 1.06951,3.251566 2.09375,3.78125 1.02424,0.529684 2.03125,0.5 2.03125,0.5 l 0,-1 c 0,0 -0.78642,-0.0049 -1.5625,-0.40625 -0.77608,-0.401347 -1.5506,-1.111601 -1.5625,-2.875 -0.006,-0.96232 -0.18822,-1.795432 -0.5,-2.40625 -0.15589,-0.305409 -0.32889,-0.570622 -0.59375,-0.75 -0.26486,-0.179378 -0.64538,-0.253389 -0.96875,-0.125 -0.64674,0.256778 -0.97684,0.955821 -1.25,2.0625 -0.27316,1.106679 -0.4375,2.700642 -0.4375,4.9375 0,2.27015 -0.23413,3.961387 -0.53125,5.03125 -0.14856,0.534931 -0.3222,0.915299 -0.46875,1.125 -0.14655,0.209701 -0.20018,0.187422 -0.1875,0.1875 0.0127,7.8e-5 -0.0714,0.02348 -0.21875,-0.1875 -0.14737,-0.210981 -0.32028,-0.597127 -0.46875,-1.125 -0.29693,-1.055747 -0.5,-2.709918 -0.5,-4.90625 0,-2.263951 -0.19942,-3.975906 -0.5,-5.15625 -0.15029,-0.590172 -0.30792,-1.054993 -0.53125,-1.40625 -0.22333,-0.351257 -0.5666,-0.62137 -1,-0.625 z"
       id="path3797" />
    <path
       style="font-size:medium;font-style:normal;font-variant:normal;font-weight:normal;font-stretch:normal;text-indent:0;text-align:start;text-decoration:none;line-height:normal;letter-spacing:normal;word-spacing:normal;text-transform:none;direction:ltr;block-progression:tb;writing-mode:lr-tb;text-anchor:start;color:#000000;fill:#000000;fill-opacity:1;stroke:none;stroke-width:1px;marker:none;visibility:visible;display:inline;overflow:visible;enable-background:accumulate;font-family:Andale Mono;-inkscape-font-specification:Andale Mono"
       d="m 210.3125,79.25 0,1 17.90625,0 0,-1 -17.90625,0 z"
       id="path3799" />
    <path
       style="font-size:medium;font-style:normal;font-variant:normal;font-weight:normal;font-stretch:normal;text-indent:0;text-align:start;text-decoration:none;line-height:normal;letter-spacing:normal;word-spacing:normal;text-transform:none;direction:ltr;block-progression:tb;writing-mode:lr-tb;text-anchor:start;color:#000000;fill:#000000;fill-opacity:1;stroke:none;stroke-width:1px;marker:none;visibility:visible;display:inline;overflow:visible;enable-background:accumulate;font-family:Andale Mono;-inkscape-font-specification:Andale Mono"
       d="m 166.28125,79.25 0,1 21.9375,0 0,-1 -21.9375,0 z"
       id="path3801" />
    <path
       style="font-size:medium;font-style:normal;font-variant:normal;font-weight:normal;font-stretch:normal;text-indent:0;text-align:start;text-decoration:none;line-height:normal;letter-spacing:normal;word-spacing:normal;text-transform:none;direction:ltr;block-progression:tb;writing-mode:lr-tb;text-anchor:start;color:#000000;fill:#000000;fill-opacity:1;stroke:none;stroke-width:1px;marker:none;visibility:visible;display:inline;overflow:visible;enable-background:accumulate;font-family:Andale Mono;-inkscape-font-specification:Andale Mono"
       d="m 122.25,79.25 0,1 22.03125,0 0,-1 -22.03125,0 z"
       id="path3803" />
    <path
       style="font-size:medium;font-style:normal;font-variant:normal;font-weight:normal;font-stretch:normal;text-indent:0;text-align:start;text-decoration:none;line-height:normal;letter-spacing:normal;word-spacing:normal;text-transform:none;direction:ltr;block-progression:tb;writing-mode:lr-tb;text-anchor:start;color:#000000;fill:#000000;fill-opacity:1;stroke:none;stroke-width:1px;marker:none;visibility:visible;display:inline;overflow:visible;enable-background:accumulate;font-family:Andale Mono;-inkscape-font-specification:Andale Mono"
       d="m 78.25,79.25 0,1 22.03125,0 0,-1 -22.03125,0 z"
       id="path3805" />
    <path
       style="font-size:medium;font-style:normal;font-variant:normal;font-weight:normal;font-stretch:normal;text-indent:0;text-align:start;text-decoration:none;line-height:normal;letter-spacing:normal;word-spacing:normal;text-transform:none;direction:ltr;block-progression:tb;writing-mode:lr-tb;text-anchor:start;color:#000000;fill:#000000;fill-opacity:1;stroke:none;stroke-width:1px;marker:none;visibility:visible;display:inline;overflow:visible;enable-background:accumulate;font-family:Andale Mono;-inkscape-font-specification:Andale Mono"
       d="m 38.28125,79.25 0,1 18,0 0,-1 -18,0 z"
       id="path3807" />
    <path
       style="font-size:medium;font-style:normal;font-variant:normal;font-weight:normal;font-stretch:normal;text-indent:0;text-align:start;text-decoration:none;line-height:normal;letter-spacing:normal;word-spacing:normal;text-transform:none;direction:ltr;block-progression:tb;writing-mode:lr-tb;text-anchor:start;color:#000000;fill:#000000;fill-opacity:1;stroke:none;stroke-width:1px;marker:none;visibility:visible;display:inline;overflow:visible;enable-background:accumulate;font-family:Andale Mono;-inkscape-font-specification:Andale Mono"
       d="m 15.28125,79.25 0,1 0.96875,0 0,-1 -0.96875,0 z"
       id="path3809" />
    <path
       style="font-size:12px;font-style:normal;font-variant:normal;font-weight:normal;font-stretch:normal;text-align:start;line-height:125%;writing-mode:lr-tb;text-anchor:start;fill:#000000;fill-opacity:1;stroke:none;font-family:DejaVu Sans;-inkscape-font-specification:DejaVu Sans"
       d="m 37.712664,89.556693 1.763672,0 2.232422,5.953125 2.244141,-5.953125 1.763672,0 0,8.748047 -1.154297,0 0,-7.681641 -2.25586,6.000001 -1.189453,0 -2.255859,-6.000001 0,7.681641 -1.148438,0 0,-8.748047"
       id="path3920" />
    <path
       style="font-size:9px;font-style:normal;font-variant:normal;font-weight:normal;font-stretch:normal;text-align:start;line-height:125%;writing-mode:lr-tb;text-anchor:start;fill:#000000;fill-opacity:1;stroke:none;font-family:DejaVu Sans;-inkscape-font-specification:DejaVu Sans"
       d="m 48.391104,100.68688 1.450195,0 0,-5.005371 -1.577636,0.316406 0,-0.808593 1.568847,-0.316407 0.887695,0 0,5.813965 1.450196,0 0,0.74707 -3.779297,0 0,-0.74707"
       id="path3923" />
    <path
       style="font-size:12px;font-style:normal;font-variant:normal;font-weight:normal;font-stretch:normal;text-align:start;line-height:125%;writing-mode:lr-tb;text-anchor:start;fill:#000000;fill-opacity:1;stroke:none;font-family:DejaVu Sans;-inkscape-font-specification:DejaVu Sans"
       d="m 81.712664,89.556693 1.763672,0 2.232422,5.953125 2.244141,-5.953125 1.763672,0 0,8.748047 -1.154297,0 0,-7.681641 -2.25586,6.000001 -1.189453,0 -2.255859,-6.000001 0,7.681641 -1.148438,0 0,-8.748047"
       id="path3926" />
    <path
       style="font-size:9px;font-style:normal;font-variant:normal;font-weight:normal;font-stretch:normal;text-align:start;line-height:125%;writing-mode:lr-tb;text-anchor:start;fill:#000000;fill-opacity:1;stroke:none;font-family:DejaVu Sans;-inkscape-font-specification:DejaVu Sans"
       d="m 93.001944,100.68688 3.098144,0 0,0.74707 -4.166015,0 0,-0.74707 c 0.336913,-0.34863 0.795408,-0.815916 1.375488,-1.401855 0.583005,-0.588865 0.949216,-0.968259 1.098633,-1.138184 0.284176,-0.319332 0.48193,-0.588863 0.593261,-0.808594 0.114254,-0.222652 0.171383,-0.440913 0.171387,-0.654785 -4e-6,-0.348628 -0.12305,-0.632807 -0.36914,-0.852539 -0.243168,-0.219721 -0.561039,-0.329584 -0.953614,-0.32959 -0.278322,6e-6 -0.572756,0.04835 -0.8833,0.145021 -0.307619,0.09669 -0.637209,0.243168 -0.98877,0.439453 l 0,-0.896484 c 0.357421,-0.143549 0.691405,-0.251947 1.001953,-0.325197 0.310545,-0.07324 0.594724,-0.109855 0.852539,-0.109863 0.679684,7e-6 1.221676,0.169928 1.625977,0.509766 0.404292,0.339849 0.60644,0.79395 0.606445,1.362304 -5e-6,0.269536 -0.05127,0.525883 -0.153809,0.769043 -0.09961,0.240238 -0.282719,0.524418 -0.549316,0.852539 -0.07325,0.08496 -0.306156,0.331058 -0.69873,0.738282 -0.392582,0.404298 -0.946292,0.971192 -1.661133,1.700683"
       id="path3929" />
    <path
       style="font-size:12px;font-style:normal;font-variant:normal;font-weight:normal;font-stretch:normal;text-align:start;line-height:125%;writing-mode:lr-tb;text-anchor:start;fill:#000000;fill-opacity:1;stroke:none;font-family:DejaVu Sans;-inkscape-font-specification:DejaVu Sans"
       d="m 146.52523,93.394584 1.23633,0 0,1.488281 -1.23633,0 0,-1.488281"
       id="path3932" />
    <path
       style="font-size:12px;font-style:normal;font-variant:normal;font-weight:normal;font-stretch:normal;text-align:start;line-height:125%;writing-mode:lr-tb;text-anchor:start;fill:#000000;fill-opacity:1;stroke:none;font-family:DejaVu Sans;-inkscape-font-specification:DejaVu Sans"
       d="m 154.16586,93.394584 1.23633,0 0,1.488281 -1.23633,0 0,-1.488281"
       id="path3934" />
    <path
       style="font-size:12px;font-style:normal;font-variant:normal;font-weight:normal;font-stretch:normal;text-align:start;line-height:125%;writing-mode:lr-tb;text-anchor:start;fill:#000000;fill-opacity:1;stroke:none;font-family:DejaVu Sans;-inkscape-font-specification:DejaVu Sans"
       d="m 161.80648,93.394584 1.23633,0 0,1.488281 -1.23633,0 0,-1.488281"
       id="path3936" />
    <path
       style="font-size:12px;font-style:normal;font-variant:normal;font-weight:normal;font-stretch:normal;text-align:start;line-height:125%;writing-mode:lr-tb;text-anchor:start;fill:#000000;fill-opacity:1;stroke:none;font-family:DejaVu Sans;-inkscape-font-specification:DejaVu Sans"
       d="m 212.29846,89.556693 1.76368,0 2.23242,5.953125 2.24414,-5.953125 1.76367,0 0,8.748047 -1.1543,0 0,-7.681641 -2.25586,6.000001 -1.18945,0 -2.25586,-6.000001 0,7.681641 -1.14844,0 0,-8.748047"
       id="path3939" />
    <path
       style="font-size:9px;font-style:normal;font-variant:normal;font-weight:normal;font-stretch:normal;text-align:start;line-height:125%;writing-mode:lr-tb;text-anchor:start;fill:#000000;fill-opacity:1;stroke:none;font-family:DejaVu Sans;-inkscape-font-specification:DejaVu Sans"
       d="m 226.54086,97.4569 c 0.20214,-0.363277 0.44384,-0.631343 0.72509,-0.8042 0.28125,-0.172846 0.6123,-0.259272 0.99317,-0.259277 0.51269,5e-6 0.90819,0.180182 1.18652,0.540527 0.27831,0.357426 0.41747,0.867192 0.41748,1.529297 l 0,2.970703 -0.81299,0 0,-2.944335 c 0,-0.471677 -0.0835,-0.821774 -0.25049,-1.050292 -0.16699,-0.228512 -0.42188,-0.34277 -0.76464,-0.342775 -0.41895,5e-6 -0.75001,0.139164 -0.99317,0.417481 -0.24317,0.278324 -0.36475,0.657718 -0.36474,1.138183 l 0,2.781738 -0.81299,0 0,-2.944335 c -1e-5,-0.474605 -0.0835,-0.824703 -0.25049,-1.050292 -0.167,-0.228512 -0.42481,-0.34277 -0.77344,-0.342775 -0.41309,5e-6 -0.74121,0.14063 -0.98437,0.421875 -0.24317,0.278324 -0.36475,0.656254 -0.36475,1.133789 l 0,2.781738 -0.81299,0 0,-4.921875 0.81299,0 0,0.764649 c 0.18457,-0.301753 0.40576,-0.524409 0.66357,-0.667969 0.25782,-0.14355 0.56397,-0.215327 0.91846,-0.215332 0.35742,5e-6 0.66064,0.09082 0.90967,0.272462 0.25195,0.181645 0.43798,0.445317 0.55811,0.791016"
       id="path3942" />
  </g>
</svg>
