<?xml version="1.0" encoding="UTF-8" standalone="no"?>
<!-- Created with Inkscape (http://www.inkscape.org/) -->

<svg
   xmlns:dc="http://purl.org/dc/elements/1.1/"
   xmlns:cc="http://creativecommons.org/ns#"
   xmlns:rdf="http://www.w3.org/1999/02/22-rdf-syntax-ns#"
   xmlns:svg="http://www.w3.org/2000/svg"
   xmlns="http://www.w3.org/2000/svg"
   xmlns:sodipodi="http://sodipodi.sourceforge.net/DTD/sodipodi-0.dtd"
   xmlns:inkscape="http://www.inkscape.org/namespaces/inkscape"
   width="200"
   height="200"
   id="svg2"
   version="1.1"
   inkscape:version="0.47 r22583"
   sodipodi:docname="2010-(11)nov-01 figur 10.svg">
  <defs
     id="defs4" />
  <sodipodi:namedview
     id="base"
     pagecolor="#ffffff"
     bordercolor="#666666"
     borderopacity="1.0"
     inkscape:pageopacity="0.0"
     inkscape:pageshadow="2"
     inkscape:zoom="2"
     inkscape:cx="177.80568"
     inkscape:cy="103.02229"
     inkscape:document-units="px"
     inkscape:current-layer="layer1"
     showgrid="false"
     inkscape:window-width="1589"
     inkscape:window-height="1117"
     inkscape:window-x="1600"
     inkscape:window-y="27"
     inkscape:window-maximized="1"
     showguides="true"
     inkscape:guide-bbox="true"
     inkscape:snap-midpoints="true" />
  <metadata
     id="metadata7">
    <rdf:RDF>
      <cc:Work
         rdf:about="">
        <dc:format>image/svg+xml</dc:format>
        <dc:type
           rdf:resource="http://purl.org/dc/dcmitype/StillImage" />
        <dc:title />
      </cc:Work>
    </rdf:RDF>
  </metadata>
  <g
     inkscape:label="Layer 1"
     inkscape:groupmode="layer"
     id="layer1">
    <path
       style="font-size:medium;font-style:normal;font-variant:normal;font-weight:normal;font-stretch:normal;text-indent:0;text-align:start;text-decoration:none;line-height:normal;letter-spacing:normal;word-spacing:normal;text-transform:none;direction:ltr;block-progression:tb;writing-mode:lr-tb;text-anchor:start;color:#000000;fill:#000000;fill-opacity:1;stroke:none;stroke-width:1px;marker:none;visibility:visible;display:inline;overflow:visible;enable-background:accumulate;font-family:Bitstream Charter;-inkscape-font-specification:Bitstream Charter"
       d="m 8,8.5 0,183.5 0,0.5 0.5,0 188.5,0 0,-1 -188,0 0,-183 -1,0 z"
       id="path4469" />
    <path
       style="font-size:12px;fill-rule:evenodd;stroke-width:0.625;stroke-linejoin:round"
       d="M 4.0628878,19.190451 8.4823819,7.1719863 12.901875,19.190452 c -2.609267,-1.920048 -6.179197,-1.908985 -8.8389872,-1e-6 z"
       id="path2853" />
    <path
       style="font-size:12px;fill-rule:evenodd;stroke-width:0.625;stroke-linejoin:round"
       d="m 186.30955,187.56289 12.01847,4.4195 -12.01847,4.41949 c 1.92005,-2.60927 1.90899,-6.1792 0,-8.83899 z"
       id="path2855" />
    <path
       style="font-size:medium;font-style:normal;font-variant:normal;font-weight:normal;font-stretch:normal;text-indent:0;text-align:start;text-decoration:none;line-height:normal;letter-spacing:normal;word-spacing:normal;text-transform:none;direction:ltr;block-progression:tb;writing-mode:lr-tb;text-anchor:start;color:#000000;fill:#000000;fill-opacity:1;stroke:none;stroke-width:1px;marker:none;visibility:visible;display:inline;overflow:visible;enable-background:accumulate;font-family:Bitstream Charter;-inkscape-font-specification:Bitstream Charter"
       d="m 184.21875,13.8125 c -0.8662,-0.01976 -1.74796,0.09883 -2.59375,0.4375 -1.69158,0.677339 -3.19621,2.213228 -4.25,4.90625 -1.58534,4.0514 -3.76516,9.053052 -6.0625,12.75 -1.14867,1.848474 -2.33262,3.353398 -3.4375,4.25 -1.10488,0.896602 -2.02565,1.16582 -2.90625,0.75 -0.53807,-0.254079 -1.08173,-0.317946 -1.59375,-0.1875 -0.51202,0.130446 -0.96352,0.445968 -1.34375,0.875 -0.76046,0.858064 -1.34257,2.17761 -1.84375,3.84375 -1.00236,3.33228 -1.68277,8.069901 -2.375,13.03125 -0.69223,4.961349 -1.36668,10.138166 -2.3125,14.3125 -0.47291,2.087167 -1.03146,3.931489 -1.65625,5.34375 -0.62479,1.412261 -1.3318,2.39006 -2.0625,2.8125 -0.38106,0.220302 -0.62849,0.198401 -0.90625,0.09375 -0.27776,-0.104651 -0.61337,-0.364606 -0.9375,-0.8125 -0.64826,-0.895788 -1.25292,-2.425588 -1.8125,-4.1875 -1.11917,-3.523824 -2.02926,-7.898471 -3.1875,-10.25 -0.28956,-0.587882 -0.59416,-1.056633 -1,-1.375 -0.40584,-0.318367 -1.01256,-0.412652 -1.5,-0.15625 -0.48744,0.256402 -0.86938,0.742381 -1.28125,1.46875 -0.41187,0.726369 -0.82488,1.696528 -1.28125,3 -1.82548,5.21389 -4.17698,15.56223 -7.4375,34.09375 -2.91174,16.5492 -4.84851,25.15677 -6.15625,28.1875 -0.3166,0.73373 -0.61417,1.07171 -0.6875,1.125 -0.0236,-0.0218 -0.0587,-0.0429 -0.125,-0.15625 -0.3566,-0.61018 -0.77289,-2.44876 -1.125,-4.96875 -1.40843,-10.07996 -2.39333,-31.58685 -6.5,-44.0625 -2.59183,-7.873737 -4.61761,-13.949397 -6.40625,-18 -0.89432,-2.025301 -1.70758,-3.546895 -2.5625,-4.5625 -0.85492,-1.015605 -1.83021,-1.563393 -2.84375,-1.34375 -1.01354,0.219643 -1.89299,1.07 -2.78125,2.46875 -0.88826,1.39875 -1.80174,3.394468 -2.8125,6 -2.021522,5.211064 -4.398531,12.930305 -7.46875,23.4375 -1.30764,4.475131 -2.819944,6.970238 -4.25,8 -0.715028,0.514881 -1.400273,0.691224 -2.09375,0.625 -0.693477,-0.06622 -1.416414,-0.406897 -2.15625,-0.96875 -2.959343,-2.247413 -5.853797,-8.290187 -7.25,-13.875 -0.656496,-2.625984 -1.250645,-4.661972 -1.8125,-6.15625 -0.561855,-1.494278 -1.039666,-2.458603 -1.75,-2.9375 -0.355167,-0.239449 -0.856775,-0.287196 -1.25,-0.125 -0.393225,0.162196 -0.679473,0.458229 -0.96875,0.875 -0.578553,0.833541 -1.120058,2.149875 -1.71875,3.96875 -2.394766,7.275499 -5.568422,22.739148 -11.5,45.40625 -2.471519,9.44473 -4.415489,15.23803 -5.90625,17.8125 -0.37269,0.64362 -0.726853,1.08361 -1,1.3125 -0.273147,0.22889 -0.432904,0.25007 -0.5625,0.21875 -0.129596,-0.0313 -0.321404,-0.16498 -0.5625,-0.53125 -0.241096,-0.36627 -0.50414,-0.92402 -0.75,-1.65625 -0.983439,-2.92894 -1.837787,-8.56396 -2.6875,-16.25 C 45.900287,114.97021 45.060807,105.19028 44,93.875 43.469104,88.212112 42.97529,84.254524 42.53125,81.71875 42.30923,80.450863 42.099896,79.552445 41.875,78.9375 c -0.112448,-0.307473 -0.204605,-0.549833 -0.375,-0.75 -0.0852,-0.100084 -0.219639,-0.189796 -0.375,-0.25 -0.155361,-0.0602 -0.346752,-0.0613 -0.5,0 -0.306497,0.122599 -0.41222,0.329095 -0.53125,0.5625 -0.11903,0.233405 -0.24479,0.530918 -0.34375,0.875 -0.19792,0.688164 -0.374384,1.605175 -0.5625,2.78125 -0.376233,2.35215 -0.758103,5.661789 -1.15625,9.6875 -1.592589,16.10284 -3.531405,43.77916 -7.0625,67.4375 -0.928806,6.223 -1.720766,10.19425 -2.4375,12.5 -0.358367,1.15287 -0.734521,1.86992 -1,2.21875 -0.13274,0.17442 -0.208042,0.26467 -0.25,0.28125 -0.04196,0.0166 -0.03814,-0.005 -0.09375,-0.0312 -0.111224,-0.0516 -0.431867,-0.36473 -0.71875,-0.90625 -0.286883,-0.54152 -0.568088,-1.27552 -0.875,-2.125 -0.613825,-1.69896 -1.254801,-3.83791 -1.96875,-5.78125 -0.713949,-1.94334 -1.462438,-3.69332 -2.46875,-4.71875 -0.503156,-0.51272 -1.124727,-0.85772 -1.8125,-0.8125 -0.687773,0.0452 -1.339136,0.45893 -1.96875,1.1875 -1.259229,1.45715 -2.589632,4.2576 -4.125,9.09375 C 11.714632,175.0237 9.9908079,181.89466 8,191.4063 l 0.96875,0.21875 c 1.986668,-9.49186 3.731409,-16.3417 5.25,-21.125 1.518591,-4.7833 2.846766,-7.52399 3.90625,-8.75 0.529742,-0.613 0.958178,-0.82251 1.28125,-0.84375 0.323072,-0.0212 0.648538,0.14127 1.03125,0.53125 0.765423,0.77997 1.550921,2.47214 2.25,4.375 0.699079,1.90286 1.339984,4.00969 1.96875,5.75 0.314383,0.87016 0.610397,1.63257 0.9375,2.25 0.327103,0.61743 0.637263,1.13429 1.15625,1.375 0.259494,0.12035 0.593384,0.1113 0.875,0 0.281616,-0.1113 0.516505,-0.29675 0.71875,-0.5625 0.404491,-0.53149 0.750105,-1.35646 1.125,-2.5625 0.74979,-2.41209 1.567909,-6.41124 2.5,-12.65625 3.539973,-23.71782 5.473109,-51.39824 7.0625,-67.46875 0.397348,-4.017628 0.786706,-7.283415 1.15625,-9.59375 0.184772,-1.155167 0.35421,-2.071936 0.53125,-2.6875 0.05977,-0.207809 0.101973,-0.334682 0.15625,-0.46875 0.02031,0.04701 0.04156,0.0365 0.0625,0.09375 0.183209,0.500958 0.40784,1.384868 0.625,2.625 0.434319,2.480265 0.907736,6.41168 1.4375,12.0625 1.060513,11.31214 1.898237,21.07667 2.75,28.78125 0.851763,7.70458 1.700507,13.34309 2.75,16.46875 0.262373,0.78142 0.526549,1.39312 0.84375,1.875 0.317201,0.48188 0.696996,0.85022 1.1875,0.96875 0.490504,0.11853 0.985755,-0.0539 1.40625,-0.40625 0.420495,-0.35237 0.812518,-0.89221 1.21875,-1.59375 1.624928,-2.80617 3.553022,-8.59213 6.03125,-18.0625 5.93752,-22.68981 9.123559,-38.218863 11.46875,-45.34375 0.586298,-1.781222 1.135123,-3.026741 1.59375,-3.6875 0.229313,-0.33038 0.451755,-0.51682 0.5625,-0.5625 0.110745,-0.04568 0.132179,-0.038 0.28125,0.0625 0.298141,0.201003 0.83798,1.009271 1.375,2.4375 0.53702,1.428229 1.129367,3.454966 1.78125,6.0625 1.432224,5.728897 4.249895,11.874345 7.625,14.4375 0.843776,0.640789 1.724756,1.036047 2.65625,1.125 0.931494,0.08895 1.869805,-0.147435 2.75,-0.78125 1.76039,-1.26763 3.319077,-3.955051 4.65625,-8.53125 3.068141,-10.500084 5.440754,-18.227804 7.4375,-23.375 0.99837,-2.573598 1.89274,-4.480518 2.71875,-5.78125 0.82601,-1.300732 1.59362,-1.940574 2.15625,-2.0625 0.56263,-0.121926 1.10382,0.15225 1.84375,1.03125 0.73993,0.879 1.56153,2.32876 2.4375,4.3125 1.75194,3.967481 3.78384,10.034578 6.375,17.90625 4.0136,12.192929 5.01097,33.6655 6.4375,43.875 0.35663,2.55237 0.6773,4.36381 1.25,5.34375 0.14318,0.24499 0.33211,0.46047 0.59375,0.59375 0.26164,0.13328 0.59256,0.11028 0.84375,-0.0312 0.50238,-0.28305 0.79807,-0.79492 1.15625,-1.625 1.4327,-3.32034 3.33547,-11.87248 6.25,-28.4375 3.25734,-18.51345 5.5981,-28.831119 7.375,-33.90625 0.44422,-1.268783 0.85377,-2.231323 1.21875,-2.875 0.36498,-0.643677 0.68594,-0.963049 0.875,-1.0625 0.18906,-0.09945 0.21254,-0.08946 0.40625,0.0625 0.19371,0.151958 0.46233,0.510644 0.71875,1.03125 1.0257,2.082425 1.9816,6.493621 3.125,10.09375 0.5717,1.800065 1.18537,3.417494 1.96875,4.5 0.39169,0.541253 0.82677,0.949697 1.375,1.15625 0.54823,0.206553 1.20274,0.146953 1.78125,-0.1875 1.03865,-0.60048 1.801,-1.74064 2.46875,-3.25 0.66775,-1.50936 1.23765,-3.407927 1.71875,-5.53125 0.96221,-4.246646 1.65225,-9.45014 2.34375,-14.40625 0.6915,-4.95611 1.38028,-9.672003 2.34375,-12.875 0.48173,-1.601499 1.04958,-2.81947 1.625,-3.46875 0.28771,-0.32464 0.57366,-0.493691 0.84375,-0.5625 0.27009,-0.06881 0.53075,-0.05231 0.90625,0.125 1.29361,0.61085 2.71037,0.146169 3.96875,-0.875 1.25838,-1.021169 2.47585,-2.600467 3.65625,-4.5 2.3608,-3.799067 4.5596,-8.825922 6.15625,-12.90625 0.98327,-2.512781 2.27919,-3.779836 3.6875,-4.34375 1.40831,-0.563914 2.97966,-0.453182 4.46875,0 2.97818,0.906363 5.53125,3.125 5.53125,3.125 l 0.65625,-0.78125 c 0,0 -2.65512,-2.291818 -5.90625,-3.28125 -0.81278,-0.247358 -1.66505,-0.417737 -2.53125,-0.4375 z"
       id="path2819" />
    <path
       style="font-size:medium;font-style:normal;font-variant:normal;font-weight:normal;font-stretch:normal;text-indent:0;text-align:start;text-decoration:none;line-height:normal;letter-spacing:normal;word-spacing:normal;text-transform:none;direction:ltr;block-progression:tb;writing-mode:lr-tb;text-anchor:start;color:#000000;fill:#000000;fill-opacity:1;stroke:none;stroke-width:1px;marker:none;visibility:visible;display:inline;overflow:visible;enable-background:accumulate;font-family:Bitstream Charter;-inkscape-font-specification:Bitstream Charter"
       d="m 70,75.375 0,116.125 1,0 0,-116.125 -1,0 z"
       id="path2821" />
    <path
       style="font-size:medium;font-style:normal;font-variant:normal;font-weight:normal;font-stretch:normal;text-indent:0;text-align:start;text-decoration:none;line-height:normal;letter-spacing:normal;word-spacing:normal;text-transform:none;direction:ltr;block-progression:tb;writing-mode:lr-tb;text-anchor:start;color:#000000;fill:#000000;fill-opacity:1;stroke:none;stroke-width:1px;marker:none;visibility:visible;display:inline;overflow:visible;enable-background:accumulate;font-family:Bitstream Charter;-inkscape-font-specification:Bitstream Charter"
       d="m 180,15.625 0,176.25 1,0 0,-176.25 -1,0 z"
       id="path2823" />
    <path
       style="font-size:medium;font-style:normal;font-variant:normal;font-weight:normal;font-stretch:normal;text-indent:0;text-align:start;text-decoration:none;line-height:normal;letter-spacing:normal;word-spacing:normal;text-transform:none;direction:ltr;block-progression:tb;writing-mode:lr-tb;text-anchor:start;color:#000000;fill:#000000;fill-opacity:1;stroke:none;stroke-width:1px;marker:none;visibility:visible;display:inline;overflow:visible;enable-background:accumulate;font-family:Bitstream Charter;-inkscape-font-specification:Bitstream Charter"
       d="m 125,128.34375 0,63.53125 1,0 0,-63.53125 -1,0 z"
       id="path2827" />
    <rect
       style="fill:#000000;fill-opacity:0.09803922;stroke:none"
       id="rect2829"
       width="110.13188"
       height="63.10928"
       x="70.533905"
       y="128.58221" />
  </g>
</svg>
