<?xml version="1.0" encoding="UTF-8" standalone="no"?>
<!-- Created with Inkscape (http://www.inkscape.org/) -->

<svg
   xmlns:dc="http://purl.org/dc/elements/1.1/"
   xmlns:cc="http://creativecommons.org/ns#"
   xmlns:rdf="http://www.w3.org/1999/02/22-rdf-syntax-ns#"
   xmlns:svg="http://www.w3.org/2000/svg"
   xmlns="http://www.w3.org/2000/svg"
   xmlns:sodipodi="http://sodipodi.sourceforge.net/DTD/sodipodi-0.dtd"
   xmlns:inkscape="http://www.inkscape.org/namespaces/inkscape"
   width="300"
   height="200"
   id="svg2"
   version="1.1"
   inkscape:version="0.48.0 r9654"
   sodipodi:docname="2010-(10)okt-28 figur 3.svg">
  <defs
     id="defs4" />
  <sodipodi:namedview
     id="base"
     pagecolor="#ffffff"
     bordercolor="#666666"
     borderopacity="1.0"
     inkscape:pageopacity="0.0"
     inkscape:pageshadow="2"
     inkscape:zoom="2.4859223"
     inkscape:cx="130.64167"
     inkscape:cy="73.540804"
     inkscape:document-units="px"
     inkscape:current-layer="layer1"
     showgrid="false"
     inkscape:window-width="1589"
     inkscape:window-height="1117"
     inkscape:window-x="1600"
     inkscape:window-y="27"
     inkscape:window-maximized="1"
     showguides="true"
     inkscape:guide-bbox="true" />
  <metadata
     id="metadata7">
    <rdf:RDF>
      <cc:Work
         rdf:about="">
        <dc:format>image/svg+xml</dc:format>
        <dc:type
           rdf:resource="http://purl.org/dc/dcmitype/StillImage" />
        <dc:title />
      </cc:Work>
    </rdf:RDF>
  </metadata>
  <g
     inkscape:label="Layer 1"
     inkscape:groupmode="layer"
     id="layer1">
    <path
       style="font-size:medium;font-style:normal;font-variant:normal;font-weight:normal;font-stretch:normal;text-indent:0;text-align:start;text-decoration:none;line-height:normal;letter-spacing:normal;word-spacing:normal;text-transform:none;direction:ltr;block-progression:tb;writing-mode:lr-tb;text-anchor:start;color:#000000;fill:#000000;fill-opacity:1;stroke:none;stroke-width:1px;marker:none;visibility:visible;display:inline;overflow:visible;enable-background:accumulate;font-family:Bitstream Charter;-inkscape-font-specification:Bitstream Charter"
       d="m 12.84375,6.3125001 0,0.5 0,137.1562499 0,0.5 1,0 0,-0.5 0,-137.1562499 0,-0.5 -1,0 z"
       id="path2876" />
    <path
       style="font-size:12px;font-style:normal;font-variant:normal;font-weight:normal;font-stretch:normal;text-indent:0;text-align:start;text-decoration:none;line-height:normal;letter-spacing:normal;word-spacing:normal;text-transform:none;direction:ltr;block-progression:tb;writing-mode:lr-tb;text-anchor:start;baseline-shift:baseline;color:#000000;fill-opacity:1;fill-rule:evenodd;stroke:none;stroke-width:0.625;marker:none;visibility:visible;display:inline;overflow:visible;enable-background:accumulate;font-family:Sans;-inkscape-font-specification:Sans"
       d="m 13.25,3.1875 a 0.31253125,0.31253125 0 0 0 -0.09375,0.0625 0.31253125,0.31253125 0 0 0 -0.0625,0.0625 0.31253125,0.31253125 0 0 0 -0.0625,0.09375 l -4.40625,12 a 0.31253125,0.31253125 0 0 0 0.125,0.375 0.31253125,0.31253125 0 0 0 0.34375,0 c 2.552644,-1.832084 5.969538,-1.839063 8.46875,0 a 0.31253125,0.31253125 0 0 0 0.46875,-0.125 0.31253125,0.31253125 0 0 0 0.03125,-0.25 l -4.4375,-12 A 0.31253125,0.31253125 0 0 0 13.53125,3.25 0.31253125,0.31253125 0 0 0 13.25,3.1875 z"
       id="path3298" />
    <path
       style="font-size:12px;font-style:normal;font-variant:normal;font-weight:normal;font-stretch:normal;text-indent:0;text-align:start;text-decoration:none;line-height:normal;letter-spacing:normal;word-spacing:normal;text-transform:none;direction:ltr;block-progression:tb;writing-mode:lr-tb;text-anchor:start;baseline-shift:baseline;color:#000000;fill-opacity:1;fill-rule:evenodd;stroke:none;stroke-width:0.625;marker:none;visibility:visible;display:inline;overflow:visible;enable-background:accumulate;font-family:Sans;-inkscape-font-specification:Sans"
       d="m 13.34375,4.40625 3.84375,10.5 C 14.800546,13.529976 11.919121,13.50443 9.5,14.875 L 13.34375,4.40625 z"
       id="path4110" />
    <path
       style="font-size:medium;font-style:normal;font-variant:normal;font-weight:normal;font-stretch:normal;text-indent:0;text-align:start;text-decoration:none;line-height:normal;letter-spacing:normal;word-spacing:normal;text-transform:none;direction:ltr;block-progression:tb;writing-mode:lr-tb;text-anchor:start;color:#000000;fill:#000000;fill-opacity:1;stroke:none;stroke-width:1px;marker:none;visibility:visible;display:inline;overflow:visible;enable-background:accumulate;font-family:Bitstream Charter;-inkscape-font-specification:Bitstream Charter"
       d="m 12.84375,143.46875 0,1 0.5,0 274.3125,0 0.5,0 0,-1 -0.5,0 -274.3125,0 -0.5,0 z"
       id="path2880" />
    <path
       style="font-size:12px;font-style:normal;font-variant:normal;font-weight:normal;font-stretch:normal;text-indent:0;text-align:start;text-decoration:none;line-height:normal;letter-spacing:normal;word-spacing:normal;text-transform:none;direction:ltr;block-progression:tb;writing-mode:lr-tb;text-anchor:start;baseline-shift:baseline;color:#000000;fill-opacity:1;fill-rule:evenodd;stroke:none;stroke-width:0.625;marker:none;visibility:visible;display:inline;overflow:visible;enable-background:accumulate;font-family:Sans;-inkscape-font-specification:Sans"
       d="m 278.875,139.21875 a 0.31253125,0.31253125 0 0 0 -0.1875,0.46875 0.31253125,0.31253125 0 0 0 0,0.0312 c 1.83209,2.55264 1.83907,5.96953 0,8.46875 a 0.31253125,0.31253125 0 0 0 -0.0312,0.25 0.31253125,0.31253125 0 0 0 0.40625,0.21875 l 12.0312,-4.4062 a 0.31253125,0.31253125 0 0 0 0,-0.59375 L 279.0625,139.25 a 0.31253125,0.31253125 0 0 0 -0.1875,-0.0312 z"
       id="path3294" />
    <path
       style="font-size:12px;font-style:normal;font-variant:normal;font-weight:normal;font-stretch:normal;text-indent:0;text-align:start;text-decoration:none;line-height:normal;letter-spacing:normal;word-spacing:normal;text-transform:none;direction:ltr;block-progression:tb;writing-mode:lr-tb;text-anchor:start;baseline-shift:baseline;color:#000000;fill-opacity:1;fill-rule:evenodd;stroke:none;stroke-width:0.625;marker:none;visibility:visible;display:inline;overflow:visible;enable-background:accumulate;font-family:Sans;-inkscape-font-specification:Sans"
       d="m 279.59375,140.09375 10.46875,3.84375 -10.4375,3.84375 c 1.35997,-2.38204 1.33392,-5.27791 -0.0312,-7.6875 z"
       id="path4118" />
    <path
       style="font-size:medium;font-style:normal;font-variant:normal;font-weight:normal;font-stretch:normal;text-indent:0;text-align:start;text-decoration:none;line-height:normal;letter-spacing:normal;word-spacing:normal;text-transform:none;direction:ltr;block-progression:tb;writing-mode:lr-tb;text-anchor:start;baseline-shift:baseline;color:#000000;fill:#000000;fill-opacity:1;stroke:none;stroke-width:1px;marker:none;visibility:visible;display:inline;overflow:visible;enable-background:accumulate;font-family:Sans;-inkscape-font-specification:Sans"
       d="m 12.84375,144.03125 0,4.65625 1,0 0,-4.65625 -1,0 z"
       id="path4124" />
    <path
       style="font-size:medium;font-style:normal;font-variant:normal;font-weight:normal;font-stretch:normal;text-indent:0;text-align:start;text-decoration:none;line-height:normal;letter-spacing:normal;word-spacing:normal;text-transform:none;direction:ltr;block-progression:tb;writing-mode:lr-tb;text-anchor:start;baseline-shift:baseline;color:#000000;fill:#000000;fill-opacity:1;stroke:none;stroke-width:1px;marker:none;visibility:visible;display:inline;overflow:visible;enable-background:accumulate;font-family:Sans;-inkscape-font-specification:Sans"
       d="m 32.84375,144.03125 0,4.65625 1,0 0,-4.65625 -1,0 z"
       id="path4166" />
    <path
       style="font-size:medium;font-style:normal;font-variant:normal;font-weight:normal;font-stretch:normal;text-indent:0;text-align:start;text-decoration:none;line-height:normal;letter-spacing:normal;word-spacing:normal;text-transform:none;direction:ltr;block-progression:tb;writing-mode:lr-tb;text-anchor:start;baseline-shift:baseline;color:#000000;fill:#000000;fill-opacity:1;stroke:none;stroke-width:1px;marker:none;visibility:visible;display:inline;overflow:visible;enable-background:accumulate;font-family:Sans;-inkscape-font-specification:Sans"
       d="m 52.84375,144.03125 0,4.65625 1,0 0,-4.65625 -1,0 z"
       id="path4168" />
    <path
       style="font-size:medium;font-style:normal;font-variant:normal;font-weight:normal;font-stretch:normal;text-indent:0;text-align:start;text-decoration:none;line-height:normal;letter-spacing:normal;word-spacing:normal;text-transform:none;direction:ltr;block-progression:tb;writing-mode:lr-tb;text-anchor:start;baseline-shift:baseline;color:#000000;fill:#000000;fill-opacity:1;stroke:none;stroke-width:1px;marker:none;visibility:visible;display:inline;overflow:visible;enable-background:accumulate;font-family:Sans;-inkscape-font-specification:Sans"
       d="m 72.84375,144.03125 0,4.65625 1,0 0,-4.65625 -1,0 z"
       id="path4170" />
    <path
       style="font-size:medium;font-style:normal;font-variant:normal;font-weight:normal;font-stretch:normal;text-indent:0;text-align:start;text-decoration:none;line-height:normal;letter-spacing:normal;word-spacing:normal;text-transform:none;direction:ltr;block-progression:tb;writing-mode:lr-tb;text-anchor:start;baseline-shift:baseline;color:#000000;fill:#000000;fill-opacity:1;stroke:none;stroke-width:1px;marker:none;visibility:visible;display:inline;overflow:visible;enable-background:accumulate;font-family:Sans;-inkscape-font-specification:Sans"
       d="m 92.84375,144.03125 0,4.65625 1,0 0,-4.65625 -1,0 z"
       id="path4172" />
    <path
       style="font-size:medium;font-style:normal;font-variant:normal;font-weight:normal;font-stretch:normal;text-indent:0;text-align:start;text-decoration:none;line-height:normal;letter-spacing:normal;word-spacing:normal;text-transform:none;direction:ltr;block-progression:tb;writing-mode:lr-tb;text-anchor:start;baseline-shift:baseline;color:#000000;fill:#000000;fill-opacity:1;stroke:none;stroke-width:1px;marker:none;visibility:visible;display:inline;overflow:visible;enable-background:accumulate;font-family:Sans;-inkscape-font-specification:Sans"
       d="m 112.84375,144.03125 0,4.65625 1,0 0,-4.65625 -1,0 z"
       id="path4174" />
    <path
       style="font-size:medium;font-style:normal;font-variant:normal;font-weight:normal;font-stretch:normal;text-indent:0;text-align:start;text-decoration:none;line-height:normal;letter-spacing:normal;word-spacing:normal;text-transform:none;direction:ltr;block-progression:tb;writing-mode:lr-tb;text-anchor:start;color:#000000;fill:#000000;fill-opacity:1;stroke:none;stroke-width:1px;marker:none;visibility:visible;display:inline;overflow:visible;enable-background:accumulate;font-family:Bitstream Charter;-inkscape-font-specification:Bitstream Charter"
       d="m 132.84375,144.03125 0,4.4375 -19.5625,19.5625 L 114,168.75 l 19.6875,-19.71875 0.15625,-0.15625 0,-0.1875 0,-4.65625 -1,0 z"
       id="path4176" />
    <path
       style="font-size:medium;font-style:normal;font-variant:normal;font-weight:normal;font-stretch:normal;text-indent:0;text-align:start;text-decoration:none;line-height:normal;letter-spacing:normal;word-spacing:normal;text-transform:none;direction:ltr;block-progression:tb;writing-mode:lr-tb;text-anchor:start;color:#000000;fill:#000000;fill-opacity:1;stroke:none;stroke-width:1px;marker:none;visibility:visible;display:inline;overflow:visible;enable-background:accumulate;font-family:Bitstream Charter;-inkscape-font-specification:Bitstream Charter"
       d="m 152.84375,144.03125 0,4.65625 0,0.1875 0.15625,0.15625 19.40625,19.6875 L 173.125,168 l -19.28125,-19.53125 0,-4.4375 -1,0 z"
       id="path4178" />
    <path
       style="font-size:medium;font-style:normal;font-variant:normal;font-weight:normal;font-stretch:normal;text-indent:0;text-align:start;text-decoration:none;line-height:normal;letter-spacing:normal;word-spacing:normal;text-transform:none;direction:ltr;block-progression:tb;writing-mode:lr-tb;text-anchor:start;baseline-shift:baseline;color:#000000;fill:#000000;fill-opacity:1;stroke:none;stroke-width:1px;marker:none;visibility:visible;display:inline;overflow:visible;enable-background:accumulate;font-family:Sans;-inkscape-font-specification:Sans"
       d="m 172.84375,144.03125 0,4.65625 1,0 0,-4.65625 -1,0 z"
       id="path4180" />
    <path
       style="font-size:medium;font-style:normal;font-variant:normal;font-weight:normal;font-stretch:normal;text-indent:0;text-align:start;text-decoration:none;line-height:normal;letter-spacing:normal;word-spacing:normal;text-transform:none;direction:ltr;block-progression:tb;writing-mode:lr-tb;text-anchor:start;baseline-shift:baseline;color:#000000;fill:#000000;fill-opacity:1;stroke:none;stroke-width:1px;marker:none;visibility:visible;display:inline;overflow:visible;enable-background:accumulate;font-family:Sans;-inkscape-font-specification:Sans"
       d="m 192.84375,144.03125 0,4.65625 1,0 0,-4.65625 -1,0 z"
       id="path4182" />
    <path
       style="font-size:medium;font-style:normal;font-variant:normal;font-weight:normal;font-stretch:normal;text-indent:0;text-align:start;text-decoration:none;line-height:normal;letter-spacing:normal;word-spacing:normal;text-transform:none;direction:ltr;block-progression:tb;writing-mode:lr-tb;text-anchor:start;baseline-shift:baseline;color:#000000;fill:#000000;fill-opacity:1;stroke:none;stroke-width:1px;marker:none;visibility:visible;display:inline;overflow:visible;enable-background:accumulate;font-family:Sans;-inkscape-font-specification:Sans"
       d="m 212.84375,144.03125 0,4.65625 1,0 0,-4.65625 -1,0 z"
       id="path4184" />
    <path
       style="font-size:medium;font-style:normal;font-variant:normal;font-weight:normal;font-stretch:normal;text-indent:0;text-align:start;text-decoration:none;line-height:normal;letter-spacing:normal;word-spacing:normal;text-transform:none;direction:ltr;block-progression:tb;writing-mode:lr-tb;text-anchor:start;baseline-shift:baseline;color:#000000;fill:#000000;fill-opacity:1;stroke:none;stroke-width:1px;marker:none;visibility:visible;display:inline;overflow:visible;enable-background:accumulate;font-family:Sans;-inkscape-font-specification:Sans"
       d="m 232.84375,144.03125 0,4.65625 1,0 0,-4.65625 -1,0 z"
       id="path4186" />
    <path
       style="font-size:medium;font-style:normal;font-variant:normal;font-weight:normal;font-stretch:normal;text-indent:0;text-align:start;text-decoration:none;line-height:normal;letter-spacing:normal;word-spacing:normal;text-transform:none;direction:ltr;block-progression:tb;writing-mode:lr-tb;text-anchor:start;baseline-shift:baseline;color:#000000;fill:#000000;fill-opacity:1;stroke:none;stroke-width:1px;marker:none;visibility:visible;display:inline;overflow:visible;enable-background:accumulate;font-family:Sans;-inkscape-font-specification:Sans"
       d="m 252.84375,144.03125 0,4.65625 1,0 0,-4.65625 -1,0 z"
       id="path4188" />
    <path
       style="font-size:medium;font-style:normal;font-variant:normal;font-weight:normal;font-stretch:normal;text-indent:0;text-align:start;text-decoration:none;line-height:normal;letter-spacing:normal;word-spacing:normal;text-transform:none;direction:ltr;block-progression:tb;writing-mode:lr-tb;text-anchor:start;baseline-shift:baseline;color:#000000;fill:#000000;fill-opacity:1;stroke:none;stroke-width:1px;marker:none;visibility:visible;display:inline;overflow:visible;enable-background:accumulate;font-family:Sans;-inkscape-font-specification:Sans"
       d="m 272.84375,144.03125 0,4.65625 1,0 0,-4.65625 -1,0 z"
       id="path4190" />
    <path
       style="font-size:medium;font-style:normal;font-variant:normal;font-weight:normal;font-stretch:normal;text-indent:0;text-align:start;text-decoration:none;line-height:normal;letter-spacing:normal;word-spacing:normal;text-transform:none;direction:ltr;block-progression:tb;writing-mode:lr-tb;text-anchor:start;baseline-shift:baseline;color:#000000;fill:#000000;fill-opacity:1;fill-rule:nonzero;stroke:none;stroke-width:1;marker:none;visibility:visible;display:inline;overflow:visible;enable-background:accumulate;font-family:Sans;-inkscape-font-specification:Sans"
       d="M 32.875 116.3125 L 32.875 116.8125 L 32.875 143.875 L 32.875 144.375 L 33.375 144.375 L 53.375 144.375 L 53.875 144.375 L 53.875 143.875 L 53.875 116.8125 L 53.875 116.3125 L 53.375 116.3125 L 33.375 116.3125 L 32.875 116.3125 z M 33.875 117.3125 L 52.875 117.3125 L 52.875 143.375 L 33.875 143.375 L 33.875 117.3125 z "
       id="path3264" />
    <path
       style="font-size:medium;font-style:normal;font-variant:normal;font-weight:normal;font-stretch:normal;text-indent:0;text-align:start;text-decoration:none;line-height:normal;letter-spacing:normal;word-spacing:normal;text-transform:none;direction:ltr;block-progression:tb;writing-mode:lr-tb;text-anchor:start;baseline-shift:baseline;color:#000000;fill:#000000;fill-opacity:1;fill-rule:nonzero;stroke:none;stroke-width:1;marker:none;visibility:visible;display:inline;overflow:visible;enable-background:accumulate;font-family:Sans;-inkscape-font-specification:Sans"
       d="M 53.0625 91.46875 L 53.0625 91.96875 L 53.0625 143.6875 L 53.0625 144.1875 L 53.5625 144.1875 L 73.1875 144.1875 L 73.6875 144.1875 L 73.6875 143.6875 L 73.6875 91.96875 L 73.6875 91.46875 L 73.1875 91.46875 L 53.5625 91.46875 L 53.0625 91.46875 z M 54.0625 92.46875 L 72.6875 92.46875 L 72.6875 143.1875 L 54.0625 143.1875 L 54.0625 92.46875 z "
       id="path3260" />
    <path
       style="font-size:medium;font-style:normal;font-variant:normal;font-weight:normal;font-stretch:normal;text-indent:0;text-align:start;text-decoration:none;line-height:normal;letter-spacing:normal;word-spacing:normal;text-transform:none;direction:ltr;block-progression:tb;writing-mode:lr-tb;text-anchor:start;baseline-shift:baseline;color:#000000;fill:#000000;fill-opacity:1;fill-rule:nonzero;stroke:none;stroke-width:1;marker:none;visibility:visible;display:inline;overflow:visible;enable-background:accumulate;font-family:Sans;-inkscape-font-specification:Sans"
       d="M 73.125 71.21875 L 73.125 71.71875 L 73.125 143.59375 L 73.125 144.09375 L 73.625 144.09375 L 93.25 144.09375 L 93.75 144.09375 L 93.75 143.59375 L 93.75 71.71875 L 93.75 71.21875 L 93.25 71.21875 L 73.625 71.21875 L 73.125 71.21875 z M 74.125 72.21875 L 92.75 72.21875 L 92.75 143.09375 L 74.125 143.09375 L 74.125 72.21875 z "
       id="path3256" />
    <path
       style="font-size:medium;font-style:normal;font-variant:normal;font-weight:normal;font-stretch:normal;text-indent:0;text-align:start;text-decoration:none;line-height:normal;letter-spacing:normal;word-spacing:normal;text-transform:none;direction:ltr;block-progression:tb;writing-mode:lr-tb;text-anchor:start;baseline-shift:baseline;color:#000000;fill:#000000;fill-opacity:1;fill-rule:nonzero;stroke:none;stroke-width:1;marker:none;visibility:visible;display:inline;overflow:visible;enable-background:accumulate;font-family:Sans;-inkscape-font-specification:Sans"
       d="M 93.15625 55.5625 L 93.15625 56.0625 L 93.15625 143.5625 L 93.15625 144.0625 L 93.65625 144.0625 L 113.28125 144.0625 L 113.78125 144.0625 L 113.78125 143.5625 L 113.78125 56.0625 L 113.78125 55.5625 L 113.28125 55.5625 L 93.65625 55.5625 L 93.15625 55.5625 z M 94.15625 56.5625 L 112.78125 56.5625 L 112.78125 143.0625 L 94.15625 143.0625 L 94.15625 56.5625 z "
       id="path3252" />
    <path
       style="font-size:medium;font-style:normal;font-variant:normal;font-weight:normal;font-stretch:normal;text-indent:0;text-align:start;text-decoration:none;line-height:normal;letter-spacing:normal;word-spacing:normal;text-transform:none;direction:ltr;block-progression:tb;writing-mode:lr-tb;text-anchor:start;baseline-shift:baseline;color:#000000;fill:#000000;fill-opacity:1;fill-rule:nonzero;stroke:none;stroke-width:1;marker:none;visibility:visible;display:inline;overflow:visible;enable-background:accumulate;font-family:Sans;-inkscape-font-specification:Sans"
       d="M 113.15625 42.71875 L 113.15625 43.21875 L 113.15625 143.53125 L 113.15625 144.03125 L 113.65625 144.03125 L 133.25 144.03125 L 133.75 144.03125 L 133.75 143.53125 L 133.75 43.21875 L 133.75 42.71875 L 133.25 42.71875 L 113.65625 42.71875 L 113.15625 42.71875 z M 114.15625 43.71875 L 132.75 43.71875 L 132.75 143.03125 L 114.15625 143.03125 L 114.15625 43.71875 z "
       id="path3248" />
    <path
       style="font-size:medium;font-style:normal;font-variant:normal;font-weight:normal;font-stretch:normal;text-indent:0;text-align:start;text-decoration:none;line-height:normal;letter-spacing:normal;word-spacing:normal;text-transform:none;direction:ltr;block-progression:tb;writing-mode:lr-tb;text-anchor:start;baseline-shift:baseline;color:#000000;fill:#000000;fill-opacity:1;fill-rule:nonzero;stroke:none;stroke-width:1;marker:none;visibility:visible;display:inline;overflow:visible;enable-background:accumulate;font-family:Sans;-inkscape-font-specification:Sans"
       d="M 133.125 34.96875 L 133.125 35.46875 L 133.125 143.5 L 133.125 144 L 133.625 144 L 153.21875 144 L 153.71875 144 L 153.71875 143.5 L 153.71875 35.46875 L 153.71875 34.96875 L 153.21875 34.96875 L 133.625 34.96875 L 133.125 34.96875 z M 134.125 35.96875 L 152.71875 35.96875 L 152.71875 143 L 134.125 143 L 134.125 35.96875 z "
       id="path3302" />
    <path
       style="font-size:medium;font-style:normal;font-variant:normal;font-weight:normal;font-stretch:normal;text-indent:0;text-align:start;text-decoration:none;line-height:normal;letter-spacing:normal;word-spacing:normal;text-transform:none;direction:ltr;block-progression:tb;writing-mode:lr-tb;text-anchor:start;baseline-shift:baseline;color:#000000;fill:#000000;fill-opacity:1;fill-rule:nonzero;stroke:none;stroke-width:1;marker:none;visibility:visible;display:inline;overflow:visible;enable-background:accumulate;font-family:Sans;-inkscape-font-specification:Sans"
       d="M 153.0625 32.125 L 153.0625 32.625 L 153.0625 143.5 L 153.0625 144 L 153.5625 144 L 173.15625 144 L 173.65625 144 L 173.65625 143.5 L 173.65625 32.625 L 173.65625 32.125 L 173.15625 32.125 L 153.5625 32.125 L 153.0625 32.125 z M 154.0625 33.125 L 172.65625 33.125 L 172.65625 143 L 154.0625 143 L 154.0625 33.125 z "
       id="path3244" />
    <path
       style="font-size:medium;font-style:normal;font-variant:normal;font-weight:normal;font-stretch:normal;text-indent:0;text-align:start;text-decoration:none;line-height:normal;letter-spacing:normal;word-spacing:normal;text-transform:none;direction:ltr;block-progression:tb;writing-mode:lr-tb;text-anchor:start;baseline-shift:baseline;color:#000000;fill:#000000;fill-opacity:1;fill-rule:nonzero;stroke:none;stroke-width:1;marker:none;visibility:visible;display:inline;overflow:visible;enable-background:accumulate;font-family:Sans;-inkscape-font-specification:Sans"
       d="M 173 34.96875 L 173 35.46875 L 173 143.5 L 173 144 L 173.5 144 L 193.09375 144 L 193.59375 144 L 193.59375 143.5 L 193.59375 35.46875 L 193.59375 34.96875 L 193.09375 34.96875 L 173.5 34.96875 L 173 34.96875 z M 174 35.96875 L 192.59375 35.96875 L 192.59375 143 L 174 143 L 174 35.96875 z "
       id="path3240" />
    <path
       style="font-size:medium;font-style:normal;font-variant:normal;font-weight:normal;font-stretch:normal;text-indent:0;text-align:start;text-decoration:none;line-height:normal;letter-spacing:normal;word-spacing:normal;text-transform:none;direction:ltr;block-progression:tb;writing-mode:lr-tb;text-anchor:start;baseline-shift:baseline;color:#000000;fill:#000000;fill-opacity:1;fill-rule:nonzero;stroke:none;stroke-width:1;marker:none;visibility:visible;display:inline;overflow:visible;enable-background:accumulate;font-family:Sans;-inkscape-font-specification:Sans"
       d="M 192.96875 42.71875 L 192.96875 43.21875 L 192.96875 143.53125 L 192.96875 144.03125 L 193.46875 144.03125 L 213.0625 144.03125 L 213.5625 144.03125 L 213.5625 143.53125 L 213.5625 43.21875 L 213.5625 42.71875 L 213.0625 42.71875 L 193.46875 42.71875 L 192.96875 42.71875 z M 193.96875 43.71875 L 212.5625 43.71875 L 212.5625 143.03125 L 193.96875 143.03125 L 193.96875 43.71875 z "
       id="path3236" />
    <path
       style="font-size:medium;font-style:normal;font-variant:normal;font-weight:normal;font-stretch:normal;text-indent:0;text-align:start;text-decoration:none;line-height:normal;letter-spacing:normal;word-spacing:normal;text-transform:none;direction:ltr;block-progression:tb;writing-mode:lr-tb;text-anchor:start;baseline-shift:baseline;color:#000000;fill:#000000;fill-opacity:1;fill-rule:nonzero;stroke:none;stroke-width:1;marker:none;visibility:visible;display:inline;overflow:visible;enable-background:accumulate;font-family:Sans;-inkscape-font-specification:Sans"
       d="M 212.9375 56.34375 L 212.9375 56.84375 L 212.9375 143.5625 L 212.9375 144.0625 L 213.4375 144.0625 L 233.0625 144.0625 L 233.5625 144.0625 L 233.5625 143.5625 L 233.5625 56.84375 L 233.5625 56.34375 L 233.0625 56.34375 L 213.4375 56.34375 L 212.9375 56.34375 z M 213.9375 57.34375 L 232.5625 57.34375 L 232.5625 143.0625 L 213.9375 143.0625 L 213.9375 57.34375 z "
       id="path3232" />
    <path
       style="font-size:medium;font-style:normal;font-variant:normal;font-weight:normal;font-stretch:normal;text-indent:0;text-align:start;text-decoration:none;line-height:normal;letter-spacing:normal;word-spacing:normal;text-transform:none;direction:ltr;block-progression:tb;writing-mode:lr-tb;text-anchor:start;baseline-shift:baseline;color:#000000;fill:#000000;fill-opacity:1;fill-rule:nonzero;stroke:none;stroke-width:1;marker:none;visibility:visible;display:inline;overflow:visible;enable-background:accumulate;font-family:Sans;-inkscape-font-specification:Sans"
       d="M 233.125 76.6875 L 233.125 77.1875 L 233.125 143.625 L 233.125 144.125 L 233.625 144.125 L 253.125 144.125 L 253.625 144.125 L 253.625 143.625 L 253.625 77.1875 L 253.625 76.6875 L 253.125 76.6875 L 233.625 76.6875 L 233.125 76.6875 z M 234.125 77.6875 L 252.625 77.6875 L 252.625 143.125 L 234.125 143.125 L 234.125 77.6875 z "
       id="path3228" />
    <path
       style="font-size:medium;font-style:normal;font-variant:normal;font-weight:normal;font-stretch:normal;text-indent:0;text-align:start;text-decoration:none;line-height:normal;letter-spacing:normal;word-spacing:normal;text-transform:none;direction:ltr;block-progression:tb;writing-mode:lr-tb;text-anchor:start;baseline-shift:baseline;color:#000000;fill:#000000;fill-opacity:1;fill-rule:nonzero;stroke:none;stroke-width:1;marker:none;visibility:visible;display:inline;overflow:visible;enable-background:accumulate;font-family:Sans;-inkscape-font-specification:Sans"
       d="M 252.96875 104.84375 L 252.96875 105.34375 L 252.96875 143.78125 L 252.96875 144.28125 L 253.46875 144.28125 L 273.25 144.28125 L 273.75 144.28125 L 273.75 143.78125 L 273.75 105.34375 L 273.75 104.84375 L 273.25 104.84375 L 253.46875 104.84375 L 252.96875 104.84375 z M 253.96875 105.84375 L 272.75 105.84375 L 272.75 143.28125 L 253.96875 143.28125 L 253.96875 105.84375 z "
       id="path3224" />
    <path
       style="font-size:12px;font-style:normal;font-variant:normal;font-weight:normal;font-stretch:normal;fill:#000000;fill-opacity:1;stroke:none;font-family:DejaVu Sans;-inkscape-font-specification:DejaVu Sans"
       d="m 109.72544,170.121 0,1.86328 2.2207,0 0,0.83789 -2.2207,0 0,3.5625 c -1e-5,0.53516 0.0723,0.87891 0.21679,1.03125 0.14844,0.15235 0.44727,0.22852 0.89649,0.22852 l 1.10742,0 0,0.90234 -1.10742,0 c -0.83204,0 -1.40626,-0.1543 -1.72266,-0.46289 -0.31641,-0.3125 -0.47461,-0.87891 -0.47461,-1.69922 l 0,-3.5625 -0.79101,0 0,-0.83789 0.79101,0 0,-1.86328 1.08399,0"
       id="path4357" />
    <path
       style="font-size:8px;font-style:normal;font-variant:normal;font-weight:normal;font-stretch:normal;fill:#000000;fill-opacity:1;stroke:none;font-family:DejaVu Sans;-inkscape-font-specification:DejaVu Sans"
       d="m 116.7077,178.17106 0,2.64062 -0.71875,0 0,-2.61718 c -1e-5,-0.41406 -0.0807,-0.72396 -0.24219,-0.92969 -0.16146,-0.20573 -0.40365,-0.30859 -0.72656,-0.3086 -0.38803,1e-5 -0.69402,0.12371 -0.91797,0.3711 -0.22396,0.2474 -0.33594,0.58464 -0.33594,1.01172 l 0,2.47265 -0.72266,0 0,-4.375 0.72266,0 0,0.67969 c 0.17187,-0.26302 0.37369,-0.45963 0.60547,-0.58984 0.23437,-0.13021 0.5039,-0.19531 0.80859,-0.19532 0.5026,1e-5 0.88281,0.15626 1.14063,0.46875 0.2578,0.3099 0.38671,0.76693 0.38672,1.3711"
       id="path4360" />
    <path
       style="font-size:12px;font-style:normal;font-variant:normal;font-weight:normal;font-stretch:normal;fill:#000000;fill-opacity:1;stroke:none;font-family:DejaVu Sans;-inkscape-font-specification:DejaVu Sans"
       d="m 169.72544,170.121 0,1.86328 2.2207,0 0,0.83789 -2.2207,0 0,3.5625 c -1e-5,0.53516 0.0723,0.87891 0.21679,1.03125 0.14844,0.15235 0.44727,0.22852 0.89649,0.22852 l 1.10742,0 0,0.90234 -1.10742,0 c -0.83204,0 -1.40626,-0.1543 -1.72266,-0.46289 -0.31641,-0.3125 -0.47461,-0.87891 -0.47461,-1.69922 l 0,-3.5625 -0.79101,0 0,-0.83789 0.79101,0 0,-1.86328 1.08399,0"
       id="path4363" />
    <path
       style="font-size:8px;font-style:normal;font-variant:normal;font-weight:normal;font-stretch:normal;fill:#000000;fill-opacity:1;stroke:none;font-family:DejaVu Sans;-inkscape-font-specification:DejaVu Sans"
       d="m 176.7077,178.17106 0,2.64062 -0.71875,0 0,-2.61718 c -10e-6,-0.41406 -0.0807,-0.72396 -0.24219,-0.92969 -0.16146,-0.20573 -0.40365,-0.30859 -0.72656,-0.3086 -0.38803,1e-5 -0.69402,0.12371 -0.91797,0.3711 -0.22396,0.2474 -0.33594,0.58464 -0.33594,1.01172 l 0,2.47265 -0.72266,0 0,-4.375 0.72266,0 0,0.67969 c 0.17187,-0.26302 0.37369,-0.45963 0.60547,-0.58984 0.23437,-0.13021 0.5039,-0.19531 0.80859,-0.19532 0.5026,1e-5 0.88281,0.15626 1.14063,0.46875 0.2578,0.3099 0.38671,0.76693 0.38672,1.3711"
       id="path4366" />
    <path
       style="font-size:8px;font-style:normal;font-variant:normal;font-weight:normal;font-stretch:normal;fill:#000000;fill-opacity:1;stroke:none;font-family:DejaVu Sans;-inkscape-font-specification:DejaVu Sans"
       d="m 183.62176,175.79606 0,2.17578 2.17578,0 0,0.66406 -2.17578,0 0,2.17578 -0.65625,0 0,-2.17578 -2.17578,0 0,-0.66406 2.17578,0 0,-2.17578 0.65625,0"
       id="path4368" />
    <path
       style="font-size:8px;font-style:normal;font-variant:normal;font-weight:normal;font-stretch:normal;fill:#000000;fill-opacity:1;stroke:none;font-family:DejaVu Sans;-inkscape-font-specification:DejaVu Sans"
       d="m 190.18426,180.14762 1.28906,0 0,-4.44922 -1.40234,0.28125 0,-0.71875 1.39453,-0.28125 0.78906,0 0,5.16797 1.28906,0 0,0.66406 -3.35937,0 0,-0.66406"
       id="path4370" />
    <path
       style="font-size:medium;font-style:normal;font-variant:normal;font-weight:normal;font-stretch:normal;text-indent:0;text-align:start;text-decoration:none;line-height:normal;letter-spacing:normal;word-spacing:normal;text-transform:none;direction:ltr;block-progression:tb;writing-mode:lr-tb;text-anchor:start;color:#000000;fill:#000000;fill-opacity:1;stroke:none;stroke-width:1px;marker:none;visibility:visible;display:inline;overflow:visible;enable-background:accumulate;font-family:Bitstream Charter;-inkscape-font-specification:Bitstream Charter"
       d="m 143.5,155.40625 0,29.90625 1,0 0,-29.90625 -1,0 z"
       id="path4309" />
    <path
       style="font-size:medium;font-style:normal;font-variant:normal;font-weight:normal;font-stretch:normal;text-indent:0;text-align:start;text-decoration:none;line-height:normal;letter-spacing:normal;word-spacing:normal;text-transform:none;direction:ltr;block-progression:tb;writing-mode:lr-tb;text-anchor:start;color:#000000;fill:#000000;fill-opacity:1;stroke:none;stroke-width:1px;marker:none;visibility:visible;display:inline;overflow:visible;enable-background:accumulate;font-family:Bitstream Charter;-inkscape-font-specification:Bitstream Charter"
       d="m 150.625,152.125 0,2.5 c -0.44417,0.007 -3.4242,0.0673 -6.9375,0.0937 -1.88323,0.0142 -3.79302,0.0106 -5.28125,0 -0.74412,-0.005 -1.36953,-0.016 -1.84375,-0.0312 -0.17489,-0.006 -0.31191,-0.0242 -0.4375,-0.0312 l 0,-2.15625 -1,0 0,2.625 0,0.375 0,2 1,0 0,-1.84375 c 0.12553,0.007 0.24701,0.0261 0.40625,0.0312 0.48932,0.0158 1.12626,0.0259 1.875,0.0312 1.49749,0.0107 3.39544,0.0142 5.28125,0 3.51811,-0.0265 6.49298,-0.087 6.9375,-0.0937 l 0,1.875 1,0 0,-1.875 0,-3.5 -1,0 z"
       id="path4311" />
    <path
       style="font-size:12px;font-style:normal;font-variant:normal;font-weight:normal;font-stretch:normal;fill:#000000;fill-opacity:1;stroke:none;font-family:DejaVu Sans;-inkscape-font-specification:DejaVu Sans"
       d="m 140.96972,187.5957 1.08399,0 0,5.38477 3.2168,-2.83008 1.37695,0 -3.48047,3.07031 3.62695,3.49219 -1.40625,0 -3.33398,-3.20508 0,3.20508 -1.08399,0 0,-9.11719"
       id="path4373" />
    <path
       id="path4072"
       d="m 33.875,117.3125 19,0 0,26.0625 -19,0 0,-26.0625 z"
       style="font-size:medium;font-style:normal;font-variant:normal;font-weight:normal;font-stretch:normal;text-indent:0;text-align:start;text-decoration:none;line-height:normal;letter-spacing:normal;word-spacing:normal;text-transform:none;direction:ltr;block-progression:tb;writing-mode:lr-tb;text-anchor:start;baseline-shift:baseline;color:#000000;fill:#d3d3d3;fill-opacity:1;fill-rule:nonzero;stroke:none;stroke-width:1;marker:none;visibility:visible;display:inline;overflow:visible;enable-background:accumulate;font-family:Sans;-inkscape-font-specification:Sans"
       inkscape:connector-curvature="0" />
    <path
       id="path4074"
       d="m 54.0625,92.46875 18.625,0 0,50.71875 -18.625,0 0,-50.71875 z"
       style="font-size:medium;font-style:normal;font-variant:normal;font-weight:normal;font-stretch:normal;text-indent:0;text-align:start;text-decoration:none;line-height:normal;letter-spacing:normal;word-spacing:normal;text-transform:none;direction:ltr;block-progression:tb;writing-mode:lr-tb;text-anchor:start;baseline-shift:baseline;color:#000000;fill:#d3d3d3;fill-opacity:1;fill-rule:nonzero;stroke:none;stroke-width:1;marker:none;visibility:visible;display:inline;overflow:visible;enable-background:accumulate;font-family:Sans;-inkscape-font-specification:Sans"
       inkscape:connector-curvature="0" />
    <path
       id="path4076"
       d="m 74.125,72.21875 18.625,0 0,70.875 -18.625,0 0,-70.875 z"
       style="font-size:medium;font-style:normal;font-variant:normal;font-weight:normal;font-stretch:normal;text-indent:0;text-align:start;text-decoration:none;line-height:normal;letter-spacing:normal;word-spacing:normal;text-transform:none;direction:ltr;block-progression:tb;writing-mode:lr-tb;text-anchor:start;baseline-shift:baseline;color:#000000;fill:#d3d3d3;fill-opacity:1;fill-rule:nonzero;stroke:none;stroke-width:1;marker:none;visibility:visible;display:inline;overflow:visible;enable-background:accumulate;font-family:Sans;-inkscape-font-specification:Sans"
       inkscape:connector-curvature="0" />
    <path
       id="path4078"
       d="m 94.15625,56.5625 18.625,0 0,86.5 -18.625,0 0,-86.5 z"
       style="font-size:medium;font-style:normal;font-variant:normal;font-weight:normal;font-stretch:normal;text-indent:0;text-align:start;text-decoration:none;line-height:normal;letter-spacing:normal;word-spacing:normal;text-transform:none;direction:ltr;block-progression:tb;writing-mode:lr-tb;text-anchor:start;baseline-shift:baseline;color:#000000;fill:#d3d3d3;fill-opacity:1;fill-rule:nonzero;stroke:none;stroke-width:1;marker:none;visibility:visible;display:inline;overflow:visible;enable-background:accumulate;font-family:Sans;-inkscape-font-specification:Sans"
       inkscape:connector-curvature="0" />
    <path
       id="path4080"
       d="m 114.15625,43.71875 18.59375,0 0,99.3125 -18.59375,0 0,-99.3125 z"
       style="font-size:medium;font-style:normal;font-variant:normal;font-weight:normal;font-stretch:normal;text-indent:0;text-align:start;text-decoration:none;line-height:normal;letter-spacing:normal;word-spacing:normal;text-transform:none;direction:ltr;block-progression:tb;writing-mode:lr-tb;text-anchor:start;baseline-shift:baseline;color:#000000;fill:#d3d3d3;fill-opacity:1;fill-rule:nonzero;stroke:none;stroke-width:1;marker:none;visibility:visible;display:inline;overflow:visible;enable-background:accumulate;font-family:Sans;-inkscape-font-specification:Sans"
       inkscape:connector-curvature="0" />
    <path
       id="path4082"
       d="m 134.125,35.96875 18.59375,0 0,107.03125 -18.59375,0 0,-107.03125 z"
       style="font-size:medium;font-style:normal;font-variant:normal;font-weight:normal;font-stretch:normal;text-indent:0;text-align:start;text-decoration:none;line-height:normal;letter-spacing:normal;word-spacing:normal;text-transform:none;direction:ltr;block-progression:tb;writing-mode:lr-tb;text-anchor:start;baseline-shift:baseline;color:#000000;fill:#9a9a9a;fill-opacity:1;fill-rule:nonzero;stroke:none;stroke-width:1;marker:none;visibility:visible;display:inline;overflow:visible;enable-background:accumulate;font-family:Sans;-inkscape-font-specification:Sans"
       inkscape:connector-curvature="0" />
    <path
       id="path4084"
       d="m 154.0625,33.125 18.59375,0 0,109.875 -18.59375,0 0,-109.875 z"
       style="font-size:medium;font-style:normal;font-variant:normal;font-weight:normal;font-stretch:normal;text-indent:0;text-align:start;text-decoration:none;line-height:normal;letter-spacing:normal;word-spacing:normal;text-transform:none;direction:ltr;block-progression:tb;writing-mode:lr-tb;text-anchor:start;baseline-shift:baseline;color:#000000;fill:#d3d3d3;fill-opacity:1;fill-rule:nonzero;stroke:none;stroke-width:1;marker:none;visibility:visible;display:inline;overflow:visible;enable-background:accumulate;font-family:Sans;-inkscape-font-specification:Sans"
       inkscape:connector-curvature="0" />
    <path
       id="path4086"
       d="m 174,35.96875 18.59375,0 0,107.03125 L 174,143 174,35.96875 z"
       style="font-size:medium;font-style:normal;font-variant:normal;font-weight:normal;font-stretch:normal;text-indent:0;text-align:start;text-decoration:none;line-height:normal;letter-spacing:normal;word-spacing:normal;text-transform:none;direction:ltr;block-progression:tb;writing-mode:lr-tb;text-anchor:start;baseline-shift:baseline;color:#000000;fill:#d3d3d3;fill-opacity:1;fill-rule:nonzero;stroke:none;stroke-width:1;marker:none;visibility:visible;display:inline;overflow:visible;enable-background:accumulate;font-family:Sans;-inkscape-font-specification:Sans"
       inkscape:connector-curvature="0" />
    <path
       id="path4088"
       d="m 193.96875,43.71875 18.59375,0 0,99.3125 -18.59375,0 0,-99.3125 z"
       style="font-size:medium;font-style:normal;font-variant:normal;font-weight:normal;font-stretch:normal;text-indent:0;text-align:start;text-decoration:none;line-height:normal;letter-spacing:normal;word-spacing:normal;text-transform:none;direction:ltr;block-progression:tb;writing-mode:lr-tb;text-anchor:start;baseline-shift:baseline;color:#000000;fill:#d3d3d3;fill-opacity:1;fill-rule:nonzero;stroke:none;stroke-width:1;marker:none;visibility:visible;display:inline;overflow:visible;enable-background:accumulate;font-family:Sans;-inkscape-font-specification:Sans"
       inkscape:connector-curvature="0" />
    <path
       id="path4090"
       d="m 213.9375,57.34375 18.625,0 0,85.71875 -18.625,0 0,-85.71875 z"
       style="font-size:medium;font-style:normal;font-variant:normal;font-weight:normal;font-stretch:normal;text-indent:0;text-align:start;text-decoration:none;line-height:normal;letter-spacing:normal;word-spacing:normal;text-transform:none;direction:ltr;block-progression:tb;writing-mode:lr-tb;text-anchor:start;baseline-shift:baseline;color:#000000;fill:#d3d3d3;fill-opacity:1;fill-rule:nonzero;stroke:none;stroke-width:1;marker:none;visibility:visible;display:inline;overflow:visible;enable-background:accumulate;font-family:Sans;-inkscape-font-specification:Sans"
       inkscape:connector-curvature="0" />
    <path
       id="path4092"
       d="m 234.125,77.6875 18.5,0 0,65.4375 -18.5,0 0,-65.4375 z"
       style="font-size:medium;font-style:normal;font-variant:normal;font-weight:normal;font-stretch:normal;text-indent:0;text-align:start;text-decoration:none;line-height:normal;letter-spacing:normal;word-spacing:normal;text-transform:none;direction:ltr;block-progression:tb;writing-mode:lr-tb;text-anchor:start;baseline-shift:baseline;color:#000000;fill:#d3d3d3;fill-opacity:1;fill-rule:nonzero;stroke:none;stroke-width:1;marker:none;visibility:visible;display:inline;overflow:visible;enable-background:accumulate;font-family:Sans;-inkscape-font-specification:Sans"
       inkscape:connector-curvature="0" />
    <path
       id="path4094"
       d="m 253.96875,105.84375 18.78125,0 0,37.4375 -18.78125,0 0,-37.4375 z"
       style="font-size:medium;font-style:normal;font-variant:normal;font-weight:normal;font-stretch:normal;text-indent:0;text-align:start;text-decoration:none;line-height:normal;letter-spacing:normal;word-spacing:normal;text-transform:none;direction:ltr;block-progression:tb;writing-mode:lr-tb;text-anchor:start;baseline-shift:baseline;color:#000000;fill:#d3d3d3;fill-opacity:1;fill-rule:nonzero;stroke:none;stroke-width:1;marker:none;visibility:visible;display:inline;overflow:visible;enable-background:accumulate;font-family:Sans;-inkscape-font-specification:Sans"
       inkscape:connector-curvature="0" />
    <path
       style="font-size:medium;font-style:normal;font-variant:normal;font-weight:normal;font-stretch:normal;text-indent:0;text-align:start;text-decoration:none;line-height:normal;letter-spacing:normal;word-spacing:normal;text-transform:none;direction:ltr;block-progression:tb;writing-mode:lr-tb;text-anchor:start;baseline-shift:baseline;color:#000000;fill:#000000;fill-opacity:1;stroke:none;stroke-width:1px;marker:none;visibility:visible;display:inline;overflow:visible;enable-background:accumulate;font-family:Sans;-inkscape-font-specification:Sans"
       d="M 157.03125,32.0625 C 119.98108,30.623658 84.018526,58.586295 57.28125,86.84375 30.543974,115.10121 13,143.71875 13,143.71875 l 0.875,0.53125 c 0,0 17.469419,-28.54764 44.125,-56.71875 26.655581,-28.171115 62.47874,-55.887051 99,-54.46875 36.54447,1.419203 65.53958,29.100527 85.40625,56.5 19.86667,27.39947 30.5625,54.4375 30.5625,54.4375 l 0.9375,-0.375 c 0,0 -10.73734,-27.14163 -30.6875,-54.65625 C 223.26859,61.45413 194.05821,33.50044 157.03125,32.0625 z"
       id="path4102" />
  </g>
</svg>
