<?xml version="1.0" encoding="UTF-8" standalone="no"?>
<!-- Created with Inkscape (http://www.inkscape.org/) -->

<svg
   xmlns:dc="http://purl.org/dc/elements/1.1/"
   xmlns:cc="http://creativecommons.org/ns#"
   xmlns:rdf="http://www.w3.org/1999/02/22-rdf-syntax-ns#"
   xmlns:svg="http://www.w3.org/2000/svg"
   xmlns="http://www.w3.org/2000/svg"
   xmlns:sodipodi="http://sodipodi.sourceforge.net/DTD/sodipodi-0.dtd"
   xmlns:inkscape="http://www.inkscape.org/namespaces/inkscape"
   width="260"
   height="200"
   id="svg2"
   version="1.1"
   inkscape:version="0.47 r22583"
   sodipodi:docname="2010-(11)nov-04 figur 8.svg">
  <defs
     id="defs4" />
  <sodipodi:namedview
     id="base"
     pagecolor="#ffffff"
     bordercolor="#666666"
     borderopacity="1.0"
     inkscape:pageopacity="0.0"
     inkscape:pageshadow="2"
     inkscape:zoom="2.8284272"
     inkscape:cx="145.94171"
     inkscape:cy="87.271478"
     inkscape:document-units="px"
     inkscape:current-layer="layer1"
     showgrid="false"
     inkscape:window-width="1589"
     inkscape:window-height="1117"
     inkscape:window-x="1600"
     inkscape:window-y="27"
     inkscape:window-maximized="1"
     showguides="true"
     inkscape:guide-bbox="true"
     inkscape:snap-midpoints="true"
     inkscape:snap-global="false" />
  <metadata
     id="metadata7">
    <rdf:RDF>
      <cc:Work
         rdf:about="">
        <dc:format>image/svg+xml</dc:format>
        <dc:type
           rdf:resource="http://purl.org/dc/dcmitype/StillImage" />
        <dc:title />
      </cc:Work>
    </rdf:RDF>
  </metadata>
  <g
     inkscape:label="Layer 1"
     inkscape:groupmode="layer"
     id="layer1">
    <path
       style="font-size:12px;font-style:normal;font-variant:normal;font-weight:normal;font-stretch:normal;fill:#000000;fill-opacity:1;stroke:none;font-family:DejaVu Sans;-inkscape-font-specification:DejaVu Sans"
       d="M 28.53125 180.0625 C 27.550778 180.06251 26.800779 180.44141 26.28125 181.21875 C 25.765624 181.99219 25.531249 183.11719 25.53125 184.59375 C 25.531249 186.0664 25.765624 187.1914 26.28125 187.96875 C 26.800779 188.74218 27.550778 189.125 28.53125 189.125 C 29.511714 189.125 30.26562 188.74218 30.78125 187.96875 C 31.300775 187.1914 31.562493 186.0664 31.5625 184.59375 C 31.562493 183.11719 31.300775 181.99219 30.78125 181.21875 C 30.26562 180.44141 29.511714 180.06251 28.53125 180.0625 z M 28.53125 181 C 29.144526 181.00001 29.601557 181.3047 29.90625 181.90625 C 30.214838 182.50392 30.374995 183.39063 30.375 184.59375 C 30.374995 185.79297 30.214838 186.71094 29.90625 187.3125 C 29.601557 187.91015 29.144526 188.1875 28.53125 188.1875 C 27.921871 188.1875 27.464842 187.91015 27.15625 187.3125 C 26.851561 186.71094 26.718748 185.79297 26.71875 184.59375 C 26.718748 183.39063 26.851561 182.50392 27.15625 181.90625 C 27.464842 181.3047 27.921871 181.00001 28.53125 181 z "
       id="path3650" />
    <path
       style="font-size:9px;font-style:normal;font-variant:normal;font-weight:normal;font-stretch:normal;fill:#000000;fill-opacity:1;stroke:none;font-family:DejaVu Sans;-inkscape-font-specification:DejaVu Sans"
       d="M 12.625 185.28125 C 11.889646 185.28126 11.327147 185.57325 10.9375 186.15625 C 10.55078 186.73633 10.343749 187.58008 10.34375 188.6875 C 10.343749 189.79199 10.55078 190.63574 10.9375 191.21875 C 11.327147 191.79882 11.889646 192.09375 12.625 192.09375 C 13.360348 192.09375 13.894527 191.79882 14.28125 191.21875 C 14.670894 190.63574 14.874995 189.79199 14.875 188.6875 C 14.874995 187.58008 14.670894 186.73633 14.28125 186.15625 C 13.894527 185.57325 13.360348 185.28126 12.625 185.28125 z M 12.625 186 C 13.084957 186.00001 13.42773 186.20508 13.65625 186.65625 C 13.887691 187.10449 13.999995 187.78516 14 188.6875 C 13.999995 189.58691 13.887691 190.26758 13.65625 190.71875 C 13.42773 191.16699 13.084957 191.40625 12.625 191.40625 C 12.167966 191.40625 11.793943 191.16699 11.5625 190.71875 C 11.333983 190.26758 11.249998 189.58691 11.25 188.6875 C 11.249998 187.78516 11.333983 187.10449 11.5625 186.65625 C 11.793943 186.20508 12.167966 186.00001 12.625 186 z "
       id="path3665" />
    <path
       style="font-size:12px;font-style:normal;font-variant:normal;font-weight:normal;font-stretch:normal;fill:#000000;fill-opacity:1;stroke:none;font-family:DejaVu Sans;-inkscape-font-specification:DejaVu Sans"
       d="m 23.066915,11.356654 0,0.896485 -1.03125,0 c -0.386722,8e-6 -0.656253,0.07813 -0.808594,0.234375 -0.14844,0.156258 -0.222658,0.437507 -0.222656,0.84375 l 0,0.580078 1.775391,0 0,0.837891 -1.775391,0 0,6.123046 c -2e-6,0.730468 -0.169924,1.261718 -0.509766,1.59375 -0.339845,0.335936 -0.878907,0.503904 -1.617187,0.503907 l -1.019531,0 0,-0.896485 1.03125,0 c 0.386718,-10e-7 0.654296,-0.07813 0.802734,-0.234375 0.152343,-0.156251 0.228514,-0.437501 0.228516,-0.84375 l 0,-6.246093 -1.03125,0 0,-0.837891 1.03125,0 0,-0.457031 c -2e-6,-0.730461 0.16992,-1.261711 0.509765,-1.59375 0.339842,-0.335929 0.878904,-0.503897 1.617188,-0.503907 l 1.019531,0"
       id="path4477" />
    <path
       style="font-size:medium;font-style:normal;font-variant:normal;font-weight:normal;font-stretch:normal;text-indent:0;text-align:start;text-decoration:none;line-height:normal;letter-spacing:normal;word-spacing:normal;text-transform:none;direction:ltr;block-progression:tb;writing-mode:lr-tb;text-anchor:start;color:#000000;fill:#000000;fill-opacity:1;stroke:none;stroke-width:1px;marker:none;visibility:visible;display:inline;overflow:visible;enable-background:accumulate;font-family:Andale Mono;-inkscape-font-specification:Andale Mono"
       d="m 7.15625,11.34375 0,154.5 0,0.5 0.5,0 239,0 0,-1 -238.5,0 0,-154 -1,0 z"
       id="path3031" />
    <path
       style="font-size:12px;fill-rule:evenodd;stroke-width:0.625;stroke-linejoin:round"
       d="M 3.2301533,22.045478 7.6496474,10.027013 12.069141,22.045478 c -2.6092674,-1.920048 -6.1791975,-1.908985 -8.8389877,0 z"
       id="path4492" />
    <path
       style="font-size:12px;fill-rule:evenodd;stroke-width:0.625;stroke-linejoin:round"
       d="m 235.97891,161.42075 12.01847,4.4195 -12.01847,4.41949 c 1.92005,-2.60927 1.90899,-6.1792 0,-8.83899 z"
       id="path4494" />
    <path
       style="font-size:medium;font-style:normal;font-variant:normal;font-weight:normal;font-stretch:normal;text-indent:0;text-align:start;text-decoration:none;line-height:normal;letter-spacing:normal;word-spacing:normal;text-transform:none;direction:ltr;block-progression:tb;writing-mode:lr-tb;text-anchor:start;color:#000000;fill:#000000;fill-opacity:1;stroke:none;stroke-width:1px;marker:none;visibility:visible;display:inline;overflow:visible;enable-background:accumulate;font-family:Andale Mono;-inkscape-font-specification:Andale Mono"
       d="M 7.625,27.5 A 0.50005,0.50005 0 0 0 7.25,28.09375 c 15.042361,70.448392 67.311969,105.06076 115.71875,122 C 171.37553,167.03299 216,166.375 216,166.375 a 0.50005,0.50005 0 1 0 0,-1 c 0,0 -44.50053,0.65451 -92.71875,-16.21875 C 75.063031,132.28299 23.207639,97.957859 8.25,27.90625 A 0.50005,0.50005 0 0 0 7.625,27.5 z"
       id="path4443" />
    <path
       style="font-size:12px;font-style:normal;font-variant:normal;font-weight:normal;font-stretch:normal;fill:#000000;fill-opacity:1;stroke:none;font-family:DejaVu Sans;-inkscape-font-specification:DejaVu Sans"
       d="m 256.83128,162.1488 -2.37305,3.19336 2.49609,3.36914 -1.27148,0 -1.91016,-2.57813 -1.91015,2.57813 -1.27149,0 2.54883,-3.43359 -2.33203,-3.12891 1.27148,0 1.74024,2.33789 1.74023,-2.33789 1.27149,0"
       id="path4480" />
    <path
       style="font-size:medium;font-style:normal;font-variant:normal;font-weight:normal;font-stretch:normal;text-indent:0;text-align:start;text-decoration:none;line-height:normal;letter-spacing:normal;word-spacing:normal;text-transform:none;direction:ltr;block-progression:tb;writing-mode:lr-tb;text-anchor:start;color:#000000;fill:#000000;fill-opacity:1;stroke:none;stroke-width:1;marker:none;visibility:visible;display:inline;overflow:visible;enable-background:accumulate;font-family:Andale Mono;-inkscape-font-specification:Andale Mono"
       d="m 7.15625,163.28125 1,0 0,-1 -1,0 z"
       id="path3775" />
    <path
       style="font-size:medium;font-style:normal;font-variant:normal;font-weight:normal;font-stretch:normal;text-indent:0;text-align:start;text-decoration:none;line-height:normal;letter-spacing:normal;word-spacing:normal;text-transform:none;direction:ltr;block-progression:tb;writing-mode:lr-tb;text-anchor:start;color:#000000;fill:#000000;fill-opacity:1;stroke:none;stroke-width:1;marker:none;visibility:visible;display:inline;overflow:visible;enable-background:accumulate;font-family:Andale Mono;-inkscape-font-specification:Andale Mono"
       d="m 7.15625,166.28125 1,0 0,-1 -1,0 z"
       id="path3773" />
    <path
       style="font-size:medium;font-style:normal;font-variant:normal;font-weight:normal;font-stretch:normal;text-indent:0;text-align:start;text-decoration:none;line-height:normal;letter-spacing:normal;word-spacing:normal;text-transform:none;direction:ltr;block-progression:tb;writing-mode:lr-tb;text-anchor:start;color:#000000;fill:#000000;fill-opacity:1;stroke:none;stroke-width:1;marker:none;visibility:visible;display:inline;overflow:visible;enable-background:accumulate;font-family:Andale Mono;-inkscape-font-specification:Andale Mono"
       d="m 7.15625,169.28125 1,0 0,-1 -1,0 z"
       id="path3771" />
    <path
       style="font-size:medium;font-style:normal;font-variant:normal;font-weight:normal;font-stretch:normal;text-indent:0;text-align:start;text-decoration:none;line-height:normal;letter-spacing:normal;word-spacing:normal;text-transform:none;direction:ltr;block-progression:tb;writing-mode:lr-tb;text-anchor:start;color:#000000;fill:#000000;fill-opacity:1;stroke:none;stroke-width:1;marker:none;visibility:visible;display:inline;overflow:visible;enable-background:accumulate;font-family:Andale Mono;-inkscape-font-specification:Andale Mono"
       d="m 7.15625,172.28125 1,0 0,-1 -1,0 z"
       id="path3769" />
    <path
       style="font-size:medium;font-style:normal;font-variant:normal;font-weight:normal;font-stretch:normal;text-indent:0;text-align:start;text-decoration:none;line-height:normal;letter-spacing:normal;word-spacing:normal;text-transform:none;direction:ltr;block-progression:tb;writing-mode:lr-tb;text-anchor:start;color:#000000;fill:#000000;fill-opacity:1;stroke:none;stroke-width:1;marker:none;visibility:visible;display:inline;overflow:visible;enable-background:accumulate;font-family:Andale Mono;-inkscape-font-specification:Andale Mono"
       d="m 7.15625,175.28125 1,0 0,-1 -1,0 z"
       id="path3767" />
    <path
       style="font-size:medium;font-style:normal;font-variant:normal;font-weight:normal;font-stretch:normal;text-indent:0;text-align:start;text-decoration:none;line-height:normal;letter-spacing:normal;word-spacing:normal;text-transform:none;direction:ltr;block-progression:tb;writing-mode:lr-tb;text-anchor:start;color:#000000;fill:#000000;fill-opacity:1;stroke:none;stroke-width:1;marker:none;visibility:visible;display:inline;overflow:visible;enable-background:accumulate;font-family:Andale Mono;-inkscape-font-specification:Andale Mono"
       d="m 7.15625,177.75 1,0 0,-0.46875 -1,0 z"
       id="path2819" />
    <path
       style="font-size:medium;font-style:normal;font-variant:normal;font-weight:normal;font-stretch:normal;text-indent:0;text-align:start;text-decoration:none;line-height:normal;letter-spacing:normal;word-spacing:normal;text-transform:none;direction:ltr;block-progression:tb;writing-mode:lr-tb;text-anchor:start;color:#000000;fill:#000000;fill-opacity:1;stroke:none;stroke-width:1;marker:none;visibility:visible;display:inline;overflow:visible;enable-background:accumulate;font-family:Andale Mono;-inkscape-font-specification:Andale Mono"
       d="m 67.15625,121.96875 1,0 0,-1 -1,0 z"
       id="path3763" />
    <path
       style="font-size:medium;font-style:normal;font-variant:normal;font-weight:normal;font-stretch:normal;text-indent:0;text-align:start;text-decoration:none;line-height:normal;letter-spacing:normal;word-spacing:normal;text-transform:none;direction:ltr;block-progression:tb;writing-mode:lr-tb;text-anchor:start;color:#000000;fill:#000000;fill-opacity:1;stroke:none;stroke-width:1;marker:none;visibility:visible;display:inline;overflow:visible;enable-background:accumulate;font-family:Andale Mono;-inkscape-font-specification:Andale Mono"
       d="m 67.15625,124.96875 1,0 0,-1 -1,0 z"
       id="path3761" />
    <path
       style="font-size:medium;font-style:normal;font-variant:normal;font-weight:normal;font-stretch:normal;text-indent:0;text-align:start;text-decoration:none;line-height:normal;letter-spacing:normal;word-spacing:normal;text-transform:none;direction:ltr;block-progression:tb;writing-mode:lr-tb;text-anchor:start;color:#000000;fill:#000000;fill-opacity:1;stroke:none;stroke-width:1;marker:none;visibility:visible;display:inline;overflow:visible;enable-background:accumulate;font-family:Andale Mono;-inkscape-font-specification:Andale Mono"
       d="m 67.15625,127.96875 1,0 0,-1 -1,0 z"
       id="path3759" />
    <path
       style="font-size:medium;font-style:normal;font-variant:normal;font-weight:normal;font-stretch:normal;text-indent:0;text-align:start;text-decoration:none;line-height:normal;letter-spacing:normal;word-spacing:normal;text-transform:none;direction:ltr;block-progression:tb;writing-mode:lr-tb;text-anchor:start;color:#000000;fill:#000000;fill-opacity:1;stroke:none;stroke-width:1;marker:none;visibility:visible;display:inline;overflow:visible;enable-background:accumulate;font-family:Andale Mono;-inkscape-font-specification:Andale Mono"
       d="m 67.15625,130.96875 1,0 0,-1 -1,0 z"
       id="path3757" />
    <path
       style="font-size:medium;font-style:normal;font-variant:normal;font-weight:normal;font-stretch:normal;text-indent:0;text-align:start;text-decoration:none;line-height:normal;letter-spacing:normal;word-spacing:normal;text-transform:none;direction:ltr;block-progression:tb;writing-mode:lr-tb;text-anchor:start;color:#000000;fill:#000000;fill-opacity:1;stroke:none;stroke-width:1;marker:none;visibility:visible;display:inline;overflow:visible;enable-background:accumulate;font-family:Andale Mono;-inkscape-font-specification:Andale Mono"
       d="m 67.15625,133.96875 1,0 0,-1 -1,0 z"
       id="path3755" />
    <path
       style="font-size:medium;font-style:normal;font-variant:normal;font-weight:normal;font-stretch:normal;text-indent:0;text-align:start;text-decoration:none;line-height:normal;letter-spacing:normal;word-spacing:normal;text-transform:none;direction:ltr;block-progression:tb;writing-mode:lr-tb;text-anchor:start;color:#000000;fill:#000000;fill-opacity:1;stroke:none;stroke-width:1;marker:none;visibility:visible;display:inline;overflow:visible;enable-background:accumulate;font-family:Andale Mono;-inkscape-font-specification:Andale Mono"
       d="m 67.15625,136.96875 1,0 0,-1 -1,0 z"
       id="path3753" />
    <path
       style="font-size:medium;font-style:normal;font-variant:normal;font-weight:normal;font-stretch:normal;text-indent:0;text-align:start;text-decoration:none;line-height:normal;letter-spacing:normal;word-spacing:normal;text-transform:none;direction:ltr;block-progression:tb;writing-mode:lr-tb;text-anchor:start;color:#000000;fill:#000000;fill-opacity:1;stroke:none;stroke-width:1;marker:none;visibility:visible;display:inline;overflow:visible;enable-background:accumulate;font-family:Andale Mono;-inkscape-font-specification:Andale Mono"
       d="m 67.15625,139.96875 1,0 0,-1 -1,0 z"
       id="path3751" />
    <path
       style="font-size:medium;font-style:normal;font-variant:normal;font-weight:normal;font-stretch:normal;text-indent:0;text-align:start;text-decoration:none;line-height:normal;letter-spacing:normal;word-spacing:normal;text-transform:none;direction:ltr;block-progression:tb;writing-mode:lr-tb;text-anchor:start;color:#000000;fill:#000000;fill-opacity:1;stroke:none;stroke-width:1;marker:none;visibility:visible;display:inline;overflow:visible;enable-background:accumulate;font-family:Andale Mono;-inkscape-font-specification:Andale Mono"
       d="m 67.15625,142.96875 1,0 0,-1 -1,0 z"
       id="path3749" />
    <path
       style="font-size:medium;font-style:normal;font-variant:normal;font-weight:normal;font-stretch:normal;text-indent:0;text-align:start;text-decoration:none;line-height:normal;letter-spacing:normal;word-spacing:normal;text-transform:none;direction:ltr;block-progression:tb;writing-mode:lr-tb;text-anchor:start;color:#000000;fill:#000000;fill-opacity:1;stroke:none;stroke-width:1;marker:none;visibility:visible;display:inline;overflow:visible;enable-background:accumulate;font-family:Andale Mono;-inkscape-font-specification:Andale Mono"
       d="m 67.15625,145.96875 1,0 0,-1 -1,0 z"
       id="path3747" />
    <path
       style="font-size:medium;font-style:normal;font-variant:normal;font-weight:normal;font-stretch:normal;text-indent:0;text-align:start;text-decoration:none;line-height:normal;letter-spacing:normal;word-spacing:normal;text-transform:none;direction:ltr;block-progression:tb;writing-mode:lr-tb;text-anchor:start;color:#000000;fill:#000000;fill-opacity:1;stroke:none;stroke-width:1;marker:none;visibility:visible;display:inline;overflow:visible;enable-background:accumulate;font-family:Andale Mono;-inkscape-font-specification:Andale Mono"
       d="m 67.15625,148.96875 1,0 0,-1 -1,0 z"
       id="path3745" />
    <path
       style="font-size:medium;font-style:normal;font-variant:normal;font-weight:normal;font-stretch:normal;text-indent:0;text-align:start;text-decoration:none;line-height:normal;letter-spacing:normal;word-spacing:normal;text-transform:none;direction:ltr;block-progression:tb;writing-mode:lr-tb;text-anchor:start;color:#000000;fill:#000000;fill-opacity:1;stroke:none;stroke-width:1;marker:none;visibility:visible;display:inline;overflow:visible;enable-background:accumulate;font-family:Andale Mono;-inkscape-font-specification:Andale Mono"
       d="m 67.15625,151.96875 1,0 0,-1 -1,0 z"
       id="path3743" />
    <path
       style="font-size:medium;font-style:normal;font-variant:normal;font-weight:normal;font-stretch:normal;text-indent:0;text-align:start;text-decoration:none;line-height:normal;letter-spacing:normal;word-spacing:normal;text-transform:none;direction:ltr;block-progression:tb;writing-mode:lr-tb;text-anchor:start;color:#000000;fill:#000000;fill-opacity:1;stroke:none;stroke-width:1;marker:none;visibility:visible;display:inline;overflow:visible;enable-background:accumulate;font-family:Andale Mono;-inkscape-font-specification:Andale Mono"
       d="m 67.15625,154.96875 1,0 0,-1 -1,0 z"
       id="path3741" />
    <path
       style="font-size:medium;font-style:normal;font-variant:normal;font-weight:normal;font-stretch:normal;text-indent:0;text-align:start;text-decoration:none;line-height:normal;letter-spacing:normal;word-spacing:normal;text-transform:none;direction:ltr;block-progression:tb;writing-mode:lr-tb;text-anchor:start;color:#000000;fill:#000000;fill-opacity:1;stroke:none;stroke-width:1;marker:none;visibility:visible;display:inline;overflow:visible;enable-background:accumulate;font-family:Andale Mono;-inkscape-font-specification:Andale Mono"
       d="m 67.15625,157.96875 1,0 0,-1 -1,0 z"
       id="path3739" />
    <path
       style="font-size:medium;font-style:normal;font-variant:normal;font-weight:normal;font-stretch:normal;text-indent:0;text-align:start;text-decoration:none;line-height:normal;letter-spacing:normal;word-spacing:normal;text-transform:none;direction:ltr;block-progression:tb;writing-mode:lr-tb;text-anchor:start;color:#000000;fill:#000000;fill-opacity:1;stroke:none;stroke-width:1;marker:none;visibility:visible;display:inline;overflow:visible;enable-background:accumulate;font-family:Andale Mono;-inkscape-font-specification:Andale Mono"
       d="m 67.15625,160.96875 1,0 0,-1 -1,0 z"
       id="path3737" />
    <path
       style="font-size:medium;font-style:normal;font-variant:normal;font-weight:normal;font-stretch:normal;text-indent:0;text-align:start;text-decoration:none;line-height:normal;letter-spacing:normal;word-spacing:normal;text-transform:none;direction:ltr;block-progression:tb;writing-mode:lr-tb;text-anchor:start;color:#000000;fill:#000000;fill-opacity:1;stroke:none;stroke-width:1;marker:none;visibility:visible;display:inline;overflow:visible;enable-background:accumulate;font-family:Andale Mono;-inkscape-font-specification:Andale Mono"
       d="m 67.15625,163.96875 1,0 0,-1 -1,0 z"
       id="path3735" />
    <path
       style="font-size:medium;font-style:normal;font-variant:normal;font-weight:normal;font-stretch:normal;text-indent:0;text-align:start;text-decoration:none;line-height:normal;letter-spacing:normal;word-spacing:normal;text-transform:none;direction:ltr;block-progression:tb;writing-mode:lr-tb;text-anchor:start;color:#000000;fill:#000000;fill-opacity:1;stroke:none;stroke-width:1;marker:none;visibility:visible;display:inline;overflow:visible;enable-background:accumulate;font-family:Andale Mono;-inkscape-font-specification:Andale Mono"
       d="m 67.15625,166.96875 1,0 0,-1 -1,0 z"
       id="path3733" />
    <path
       style="font-size:medium;font-style:normal;font-variant:normal;font-weight:normal;font-stretch:normal;text-indent:0;text-align:start;text-decoration:none;line-height:normal;letter-spacing:normal;word-spacing:normal;text-transform:none;direction:ltr;block-progression:tb;writing-mode:lr-tb;text-anchor:start;color:#000000;fill:#000000;fill-opacity:1;stroke:none;stroke-width:1;marker:none;visibility:visible;display:inline;overflow:visible;enable-background:accumulate;font-family:Andale Mono;-inkscape-font-specification:Andale Mono"
       d="m 67.15625,169.96875 1,0 0,-1 -1,0 z"
       id="path3731" />
    <path
       style="font-size:medium;font-style:normal;font-variant:normal;font-weight:normal;font-stretch:normal;text-indent:0;text-align:start;text-decoration:none;line-height:normal;letter-spacing:normal;word-spacing:normal;text-transform:none;direction:ltr;block-progression:tb;writing-mode:lr-tb;text-anchor:start;color:#000000;fill:#000000;fill-opacity:1;stroke:none;stroke-width:1;marker:none;visibility:visible;display:inline;overflow:visible;enable-background:accumulate;font-family:Andale Mono;-inkscape-font-specification:Andale Mono"
       d="m 67.15625,172.96875 1,0 0,-1 -1,0 z"
       id="path3729" />
    <path
       style="font-size:medium;font-style:normal;font-variant:normal;font-weight:normal;font-stretch:normal;text-indent:0;text-align:start;text-decoration:none;line-height:normal;letter-spacing:normal;word-spacing:normal;text-transform:none;direction:ltr;block-progression:tb;writing-mode:lr-tb;text-anchor:start;color:#000000;fill:#000000;fill-opacity:1;stroke:none;stroke-width:1;marker:none;visibility:visible;display:inline;overflow:visible;enable-background:accumulate;font-family:Andale Mono;-inkscape-font-specification:Andale Mono"
       d="m 67.15625,175.96875 1,0 0,-1 -1,0 z"
       id="path2821" />
    <path
       style="font-size:medium;font-style:normal;font-variant:normal;font-weight:normal;font-stretch:normal;text-indent:0;text-align:start;text-decoration:none;line-height:normal;letter-spacing:normal;word-spacing:normal;text-transform:none;direction:ltr;block-progression:tb;writing-mode:lr-tb;text-anchor:start;color:#000000;fill:#000000;fill-opacity:1;stroke:none;stroke-width:1;marker:none;visibility:visible;display:inline;overflow:visible;enable-background:accumulate;font-family:Andale Mono;-inkscape-font-specification:Andale Mono"
       d="m 127.15625,152.40625 1,0 0,-1 -1,0 z"
       id="path3725" />
    <path
       style="font-size:medium;font-style:normal;font-variant:normal;font-weight:normal;font-stretch:normal;text-indent:0;text-align:start;text-decoration:none;line-height:normal;letter-spacing:normal;word-spacing:normal;text-transform:none;direction:ltr;block-progression:tb;writing-mode:lr-tb;text-anchor:start;color:#000000;fill:#000000;fill-opacity:1;stroke:none;stroke-width:1;marker:none;visibility:visible;display:inline;overflow:visible;enable-background:accumulate;font-family:Andale Mono;-inkscape-font-specification:Andale Mono"
       d="m 127.15625,155.40625 1,0 0,-1 -1,0 z"
       id="path3723" />
    <path
       style="font-size:medium;font-style:normal;font-variant:normal;font-weight:normal;font-stretch:normal;text-indent:0;text-align:start;text-decoration:none;line-height:normal;letter-spacing:normal;word-spacing:normal;text-transform:none;direction:ltr;block-progression:tb;writing-mode:lr-tb;text-anchor:start;color:#000000;fill:#000000;fill-opacity:1;stroke:none;stroke-width:1;marker:none;visibility:visible;display:inline;overflow:visible;enable-background:accumulate;font-family:Andale Mono;-inkscape-font-specification:Andale Mono"
       d="m 127.15625,158.40625 1,0 0,-1 -1,0 z"
       id="path3721" />
    <path
       style="font-size:medium;font-style:normal;font-variant:normal;font-weight:normal;font-stretch:normal;text-indent:0;text-align:start;text-decoration:none;line-height:normal;letter-spacing:normal;word-spacing:normal;text-transform:none;direction:ltr;block-progression:tb;writing-mode:lr-tb;text-anchor:start;color:#000000;fill:#000000;fill-opacity:1;stroke:none;stroke-width:1;marker:none;visibility:visible;display:inline;overflow:visible;enable-background:accumulate;font-family:Andale Mono;-inkscape-font-specification:Andale Mono"
       d="m 127.15625,161.40625 1,0 0,-1 -1,0 z"
       id="path3719" />
    <path
       style="font-size:medium;font-style:normal;font-variant:normal;font-weight:normal;font-stretch:normal;text-indent:0;text-align:start;text-decoration:none;line-height:normal;letter-spacing:normal;word-spacing:normal;text-transform:none;direction:ltr;block-progression:tb;writing-mode:lr-tb;text-anchor:start;color:#000000;fill:#000000;fill-opacity:1;stroke:none;stroke-width:1;marker:none;visibility:visible;display:inline;overflow:visible;enable-background:accumulate;font-family:Andale Mono;-inkscape-font-specification:Andale Mono"
       d="m 127.15625,164.40625 1,0 0,-1 -1,0 z"
       id="path3717" />
    <path
       style="font-size:medium;font-style:normal;font-variant:normal;font-weight:normal;font-stretch:normal;text-indent:0;text-align:start;text-decoration:none;line-height:normal;letter-spacing:normal;word-spacing:normal;text-transform:none;direction:ltr;block-progression:tb;writing-mode:lr-tb;text-anchor:start;color:#000000;fill:#000000;fill-opacity:1;stroke:none;stroke-width:1;marker:none;visibility:visible;display:inline;overflow:visible;enable-background:accumulate;font-family:Andale Mono;-inkscape-font-specification:Andale Mono"
       d="m 127.15625,167.40625 1,0 0,-1 -1,0 z"
       id="path3715" />
    <path
       style="font-size:medium;font-style:normal;font-variant:normal;font-weight:normal;font-stretch:normal;text-indent:0;text-align:start;text-decoration:none;line-height:normal;letter-spacing:normal;word-spacing:normal;text-transform:none;direction:ltr;block-progression:tb;writing-mode:lr-tb;text-anchor:start;color:#000000;fill:#000000;fill-opacity:1;stroke:none;stroke-width:1;marker:none;visibility:visible;display:inline;overflow:visible;enable-background:accumulate;font-family:Andale Mono;-inkscape-font-specification:Andale Mono"
       d="m 127.15625,170.40625 1,0 0,-1 -1,0 z"
       id="path3713" />
    <path
       style="font-size:medium;font-style:normal;font-variant:normal;font-weight:normal;font-stretch:normal;text-indent:0;text-align:start;text-decoration:none;line-height:normal;letter-spacing:normal;word-spacing:normal;text-transform:none;direction:ltr;block-progression:tb;writing-mode:lr-tb;text-anchor:start;color:#000000;fill:#000000;fill-opacity:1;stroke:none;stroke-width:1;marker:none;visibility:visible;display:inline;overflow:visible;enable-background:accumulate;font-family:Andale Mono;-inkscape-font-specification:Andale Mono"
       d="m 127.15625,173.40625 1,0 0,-1 -1,0 z"
       id="path3711" />
    <path
       style="font-size:medium;font-style:normal;font-variant:normal;font-weight:normal;font-stretch:normal;text-indent:0;text-align:start;text-decoration:none;line-height:normal;letter-spacing:normal;word-spacing:normal;text-transform:none;direction:ltr;block-progression:tb;writing-mode:lr-tb;text-anchor:start;color:#000000;fill:#000000;fill-opacity:1;stroke:none;stroke-width:1;marker:none;visibility:visible;display:inline;overflow:visible;enable-background:accumulate;font-family:Andale Mono;-inkscape-font-specification:Andale Mono"
       d="m 127.15625,176.40625 1,0 0,-1 -1,0 z"
       id="path2823" />
    <path
       style="font-size:12px;font-style:normal;font-variant:normal;font-weight:normal;font-stretch:normal;fill:#000000;fill-opacity:1;stroke:none;font-family:DejaVu Sans;-inkscape-font-specification:DejaVu Sans"
       d="m 10.335938,182.39849 -2.3730469,3.19336 2.4960929,3.36914 -1.2714839,0 -1.910156,-2.57813 -1.9101565,2.57813 -1.2714844,0 2.5488279,-3.43359 -2.332031,-3.12891 1.271484,0 1.740235,2.33789 1.740234,-2.33789 1.2714849,0"
       id="path3646" />
    <path
       style="font-size:12px;font-style:normal;font-variant:normal;font-weight:normal;font-stretch:normal;fill:#000000;fill-opacity:1;stroke:none;font-family:DejaVu Sans;-inkscape-font-specification:DejaVu Sans"
       d="m 15.943359,183.51177 7.511719,0 0,0.98438 -7.511719,0 0,-0.98438"
       id="path3705" />
    <path
       style="font-size:12px;font-style:normal;font-variant:normal;font-weight:normal;font-stretch:normal;fill:#000000;fill-opacity:1;stroke:none;font-family:DejaVu Sans;-inkscape-font-specification:DejaVu Sans"
       d="m 15.943359,185.9024 7.511719,0 0,0.99609 -7.511719,0 0,-0.99609"
       id="path3648" />
    <path
       style="font-size:12px;font-style:normal;font-variant:normal;font-weight:normal;font-stretch:normal;fill:#000000;fill-opacity:1;stroke:none;font-family:DejaVu Sans;-inkscape-font-specification:DejaVu Sans"
       d="m 66.921726,185.00005 0,3.96094 -1.078125,0 0,-3.92578 c -6e-6,-0.62109 -0.1211,-1.08593 -0.363282,-1.39453 -0.242192,-0.30859 -0.605473,-0.46289 -1.089843,-0.46289 -0.582035,0 -1.041019,0.18555 -1.376954,0.55664 -0.335939,0.3711 -0.503908,0.87695 -0.503906,1.51758 l 0,3.70898 -1.083984,0 0,-9.11719 1.083984,0 0,3.57422 c 0.25781,-0.39452 0.560544,-0.68945 0.908203,-0.88476 0.351559,-0.19531 0.755856,-0.29297 1.212891,-0.29297 0.753901,0 1.324213,0.23438 1.710937,0.70312 0.386713,0.46485 0.580072,1.1504 0.580079,2.05664"
       id="path3653" />
    <path
       style="font-size:12px;font-style:normal;font-variant:normal;font-weight:normal;font-stretch:normal;fill:#000000;fill-opacity:1;stroke:none;font-family:DejaVu Sans;-inkscape-font-specification:DejaVu Sans"
       d="m 126.92174,185.00005 0,3.96094 -1.07813,0 0,-3.92578 c 0,-0.62109 -0.1211,-1.08593 -0.36328,-1.39453 -0.24219,-0.30859 -0.60547,-0.46289 -1.08984,-0.46289 -0.58204,0 -1.04102,0.18555 -1.37696,0.55664 -0.33593,0.3711 -0.5039,0.87695 -0.5039,1.51758 l 0,3.70898 -1.08399,0 0,-9.11719 1.08399,0 0,3.57422 c 0.25781,-0.39452 0.56054,-0.68945 0.9082,-0.88476 0.35156,-0.19531 0.75586,-0.29297 1.21289,-0.29297 0.7539,0 1.32422,0.23438 1.71094,0.70312 0.38671,0.46485 0.58007,1.1504 0.58008,2.05664"
       id="path3656" />
    <path
       style="font-size:9px;font-style:normal;font-variant:normal;font-weight:normal;font-stretch:normal;fill:#000000;fill-opacity:1;stroke:none;font-family:DejaVu Sans;-inkscape-font-specification:DejaVu Sans"
       d="m 130.06285,191.22367 3.09815,0 0,0.74707 -4.16602,0 0,-0.74707 c 0.33691,-0.34863 0.79541,-0.81591 1.37549,-1.40185 0.583,-0.58887 0.94921,-0.96826 1.09863,-1.13819 0.28418,-0.31933 0.48193,-0.58886 0.59326,-0.80859 0.11426,-0.22265 0.17138,-0.44091 0.17139,-0.65479 -10e-6,-0.34862 -0.12305,-0.6328 -0.36914,-0.85253 -0.24317,-0.21973 -0.56104,-0.32959 -0.95361,-0.32959 -0.27833,0 -0.57276,0.0483 -0.88331,0.14501 -0.30761,0.0967 -0.6372,0.24317 -0.98877,0.43946 l 0,-0.89649 c 0.35743,-0.14354 0.69141,-0.25194 1.00196,-0.32519 0.31054,-0.0732 0.59472,-0.10986 0.85254,-0.10987 0.67968,10e-6 1.22167,0.16993 1.62597,0.50977 0.4043,0.33985 0.60644,0.79395 0.60645,1.36231 -1e-5,0.26953 -0.0513,0.52588 -0.15381,0.76904 -0.0996,0.24024 -0.28272,0.52442 -0.54932,0.85254 -0.0733,0.085 -0.30615,0.33105 -0.69873,0.73828 -0.39258,0.4043 -0.94629,0.97119 -1.66113,1.70068"
       id="path3659" />
    <path
       style="font-size:9px;font-style:normal;font-variant:normal;font-weight:normal;font-stretch:normal;fill:#000000;fill-opacity:1;stroke:none;font-family:DejaVu Sans;-inkscape-font-specification:DejaVu Sans"
       d="m 69.451999,191.22367 1.450195,0 0,-5.00537 -1.577637,0.31641 0,-0.8086 1.568848,-0.3164 0.887696,0 0,5.81396 1.450195,0 0,0.74707 -3.779297,0 0,-0.74707"
       id="path3662" />
  </g>
</svg>
