<?xml version="1.0" encoding="UTF-8" standalone="no"?>
<!-- Created with Inkscape (http://www.inkscape.org/) -->

<svg
   xmlns:dc="http://purl.org/dc/elements/1.1/"
   xmlns:cc="http://creativecommons.org/ns#"
   xmlns:rdf="http://www.w3.org/1999/02/22-rdf-syntax-ns#"
   xmlns:svg="http://www.w3.org/2000/svg"
   xmlns="http://www.w3.org/2000/svg"
   xmlns:sodipodi="http://sodipodi.sourceforge.net/DTD/sodipodi-0.dtd"
   xmlns:inkscape="http://www.inkscape.org/namespaces/inkscape"
   width="260"
   height="180"
   id="svg2"
   version="1.1"
   inkscape:version="0.47 r22583"
   sodipodi:docname="2010-(11)nov-04 figur 7.svg">
  <defs
     id="defs4" />
  <sodipodi:namedview
     id="base"
     pagecolor="#ffffff"
     bordercolor="#666666"
     borderopacity="1.0"
     inkscape:pageopacity="0.0"
     inkscape:pageshadow="2"
     inkscape:zoom="1.4142136"
     inkscape:cx="241.56794"
     inkscape:cy="20.934006"
     inkscape:document-units="px"
     inkscape:current-layer="layer1"
     showgrid="false"
     inkscape:window-width="1589"
     inkscape:window-height="1117"
     inkscape:window-x="1600"
     inkscape:window-y="27"
     inkscape:window-maximized="1"
     showguides="true"
     inkscape:guide-bbox="true"
     inkscape:snap-midpoints="true"
     inkscape:snap-global="false" />
  <metadata
     id="metadata7">
    <rdf:RDF>
      <cc:Work
         rdf:about="">
        <dc:format>image/svg+xml</dc:format>
        <dc:type
           rdf:resource="http://purl.org/dc/dcmitype/StillImage" />
        <dc:title />
      </cc:Work>
    </rdf:RDF>
  </metadata>
  <g
     inkscape:label="Layer 1"
     inkscape:groupmode="layer"
     id="layer1">
    <path
       style="font-size:12px;font-style:normal;font-variant:normal;font-weight:normal;font-stretch:normal;fill:#000000;fill-opacity:1;stroke:none;font-family:DejaVu Sans;-inkscape-font-specification:DejaVu Sans"
       d="m 23.066915,11.356654 0,0.896485 -1.03125,0 c -0.386722,8e-6 -0.656253,0.07813 -0.808594,0.234375 -0.14844,0.156258 -0.222658,0.437507 -0.222656,0.84375 l 0,0.580078 1.775391,0 0,0.837891 -1.775391,0 0,6.123046 c -2e-6,0.730468 -0.169924,1.261718 -0.509766,1.59375 -0.339845,0.335936 -0.878907,0.503904 -1.617187,0.503907 l -1.019531,0 0,-0.896485 1.03125,0 c 0.386718,-10e-7 0.654296,-0.07813 0.802734,-0.234375 0.152343,-0.156251 0.228514,-0.437501 0.228516,-0.84375 l 0,-6.246093 -1.03125,0 0,-0.837891 1.03125,0 0,-0.457031 c -2e-6,-0.730461 0.16992,-1.261711 0.509765,-1.59375 0.339842,-0.335929 0.878904,-0.503897 1.617188,-0.503907 l 1.019531,0"
       id="path4477" />
    <path
       style="font-size:medium;font-style:normal;font-variant:normal;font-weight:normal;font-stretch:normal;text-indent:0;text-align:start;text-decoration:none;line-height:normal;letter-spacing:normal;word-spacing:normal;text-transform:none;direction:ltr;block-progression:tb;writing-mode:lr-tb;text-anchor:start;color:#000000;fill:#000000;fill-opacity:1;stroke:none;stroke-width:1px;marker:none;visibility:visible;display:inline;overflow:visible;enable-background:accumulate;font-family:Andale Mono;-inkscape-font-specification:Andale Mono"
       d="m 7.15625,11.34375 0,154.5 0,0.5 0.5,0 239,0 0,-1 -238.5,0 0,-154 -1,0 z"
       id="path3031" />
    <path
       style="font-size:12px;fill-rule:evenodd;stroke-width:0.625;stroke-linejoin:round"
       d="M 3.2301533,22.045478 7.6496474,10.027013 12.069141,22.045478 c -2.6092674,-1.920048 -6.1791975,-1.908985 -8.8389877,0 z"
       id="path4492" />
    <path
       style="font-size:12px;fill-rule:evenodd;stroke-width:0.625;stroke-linejoin:round"
       d="m 235.97891,161.42075 12.01847,4.4195 -12.01847,4.41949 c 1.92005,-2.60927 1.90899,-6.1792 0,-8.83899 z"
       id="path4494" />
    <path
       style="font-size:medium;font-style:normal;font-variant:normal;font-weight:normal;font-stretch:normal;text-indent:0;text-align:start;text-decoration:none;line-height:normal;letter-spacing:normal;word-spacing:normal;text-transform:none;direction:ltr;block-progression:tb;writing-mode:lr-tb;text-anchor:start;color:#000000;fill:#000000;fill-opacity:1;stroke:none;stroke-width:1px;marker:none;visibility:visible;display:inline;overflow:visible;enable-background:accumulate;font-family:Andale Mono;-inkscape-font-specification:Andale Mono"
       d="M 7.625,27.5 A 0.50005,0.50005 0 0 0 7.25,28.09375 c 15.042361,70.448392 67.311969,105.06076 115.71875,122 C 171.37553,167.03299 216,166.375 216,166.375 a 0.50005,0.50005 0 1 0 0,-1 c 0,0 -44.50053,0.65451 -92.71875,-16.21875 C 75.063031,132.28299 23.207639,97.957859 8.25,27.90625 A 0.50005,0.50005 0 0 0 7.625,27.5 z"
       id="path4443" />
    <path
       style="font-size:12px;font-style:normal;font-variant:normal;font-weight:normal;font-stretch:normal;fill:#000000;fill-opacity:1;stroke:none;font-family:DejaVu Sans;-inkscape-font-specification:DejaVu Sans"
       d="m 256.83128,162.1488 -2.37305,3.19336 2.49609,3.36914 -1.27148,0 -1.91016,-2.57813 -1.91015,2.57813 -1.27149,0 2.54883,-3.43359 -2.33203,-3.12891 1.27148,0 1.74024,2.33789 1.74023,-2.33789 1.27149,0"
       id="path4480" />
  </g>
</svg>
