<?xml version="1.0" encoding="UTF-8" standalone="no"?>
<!-- Created with Inkscape (http://www.inkscape.org/) -->

<svg
   xmlns:dc="http://purl.org/dc/elements/1.1/"
   xmlns:cc="http://creativecommons.org/ns#"
   xmlns:rdf="http://www.w3.org/1999/02/22-rdf-syntax-ns#"
   xmlns:svg="http://www.w3.org/2000/svg"
   xmlns="http://www.w3.org/2000/svg"
   xmlns:sodipodi="http://sodipodi.sourceforge.net/DTD/sodipodi-0.dtd"
   xmlns:inkscape="http://www.inkscape.org/namespaces/inkscape"
   width="340"
   height="100"
   id="svg2"
   version="1.1"
   inkscape:version="0.47 r22583"
   sodipodi:docname="2010-(11)nov-01 figur 0.svg">
  <defs
     id="defs4" />
  <sodipodi:namedview
     id="base"
     pagecolor="#ffffff"
     bordercolor="#666666"
     borderopacity="1.0"
     inkscape:pageopacity="0.0"
     inkscape:pageshadow="2"
     inkscape:zoom="2"
     inkscape:cx="164.0159"
     inkscape:cy="38.141373"
     inkscape:document-units="px"
     inkscape:current-layer="layer1"
     showgrid="false"
     inkscape:window-width="1589"
     inkscape:window-height="1117"
     inkscape:window-x="1600"
     inkscape:window-y="27"
     inkscape:window-maximized="1"
     showguides="true"
     inkscape:guide-bbox="true"
     inkscape:snap-midpoints="true" />
  <metadata
     id="metadata7">
    <rdf:RDF>
      <cc:Work
         rdf:about="">
        <dc:format>image/svg+xml</dc:format>
        <dc:type
           rdf:resource="http://purl.org/dc/dcmitype/StillImage" />
        <dc:title />
      </cc:Work>
    </rdf:RDF>
  </metadata>
  <g
     inkscape:label="Layer 1"
     inkscape:groupmode="layer"
     id="layer1">
    <path
       style="font-size:medium;font-style:normal;font-variant:normal;font-weight:normal;font-stretch:normal;text-indent:0;text-align:start;text-decoration:none;line-height:normal;letter-spacing:normal;word-spacing:normal;text-transform:none;direction:ltr;block-progression:tb;writing-mode:lr-tb;text-anchor:start;color:#000000;fill:#000000;fill-opacity:1;stroke:none;stroke-width:1px;marker:none;visibility:visible;display:inline;overflow:visible;enable-background:accumulate;font-family:Bitstream Charter;-inkscape-font-specification:Bitstream Charter"
       d="m 8.15625,70.9375 0,1 311.46875,0 0,-1 -311.46875,0 z"
       id="path2940" />
    <path
       style="font-size:12px;fill-rule:evenodd;stroke-width:0.625;stroke-linejoin:round"
       d="m 308.93223,67.00118 12.01847,4.419494 -12.01847,4.419494 c 1.92005,-2.609267 1.90899,-6.179198 0,-8.838988 z"
       id="path4441" />
    <path
       style="font-size:medium;font-style:normal;font-variant:normal;font-weight:normal;font-stretch:normal;text-indent:0;text-align:start;text-decoration:none;line-height:normal;letter-spacing:normal;word-spacing:normal;text-transform:none;direction:ltr;block-progression:tb;writing-mode:lr-tb;text-anchor:start;color:#000000;fill:#000000;fill-opacity:1;stroke:none;stroke-width:1px;marker:none;visibility:visible;display:inline;overflow:visible;enable-background:accumulate;font-family:Bitstream Charter;-inkscape-font-specification:Bitstream Charter"
       d="m 38.21875,61.34375 0,20 1,0 0,-20 -1,0 z"
       id="path4164" />
    <path
       style="fill:#000000;fill-opacity:1;stroke:none"
       d="m 42.644607,71.399549 c 0,2.209139 -1.790861,4 -4,4 -2.209139,0 -4,-1.790861 -4,-4 0,-2.209139 1.790861,-4 4,-4 2.209139,0 4,1.790861 4,4 z"
       id="path4178" />
    <path
       style="fill:#000000;fill-opacity:1;stroke:none"
       d="m 82.644607,51.399549 c 0,2.209139 -1.790861,4 -4,4 -2.209139,0 -4,-1.790861 -4,-4 0,-2.209139 1.790861,-4 4,-4 2.209139,0 4,1.790861 4,4 z"
       id="path4180" />
    <path
       style="fill:#000000;fill-opacity:1;stroke:none"
       d="m 122.64461,11.399549 c 0,2.209139 -1.79086,4 -4,4 -2.20914,0 -4,-1.790861 -4,-4 0,-2.209139 1.79086,-4 4,-4 2.20914,0 4,1.790861 4,4 z"
       id="path4182" />
    <path
       style="fill:#000000;fill-opacity:1;stroke:none"
       d="m 162.64461,31.399549 c 0,2.209139 -1.79086,4 -4,4 -2.20914,0 -4,-1.790861 -4,-4 0,-2.209139 1.79086,-4 4,-4 2.20914,0 4,1.790861 4,4 z"
       id="path4184" />
    <path
       style="fill:#000000;fill-opacity:1;stroke:none"
       d="m 202.64461,21.399549 c 0,2.209139 -1.79086,4 -4,4 -2.20914,0 -4,-1.790861 -4,-4 0,-2.209139 1.79086,-4 4,-4 2.20914,0 4,1.790861 4,4 z"
       id="path4186" />
    <path
       style="fill:#000000;fill-opacity:1;stroke:none"
       d="m 242.64461,15.399549 c 0,2.209139 -1.79086,4 -4,4 -2.20914,0 -4,-1.790861 -4,-4 0,-2.209139 1.79086,-4 4,-4 2.20914,0 4,1.790861 4,4 z"
       id="path4188" />
    <path
       style="font-size:medium;font-style:normal;font-variant:normal;font-weight:normal;font-stretch:normal;text-indent:0;text-align:start;text-decoration:none;line-height:normal;letter-spacing:normal;word-spacing:normal;text-transform:none;direction:ltr;block-progression:tb;writing-mode:lr-tb;text-anchor:start;color:#000000;fill:#000000;fill-opacity:1;stroke:none;stroke-width:1px;marker:none;visibility:visible;display:inline;overflow:visible;enable-background:accumulate;font-family:Bitstream Charter;-inkscape-font-specification:Bitstream Charter"
       d="m 78.21875,61.34375 0,20 1,0 0,-20 -1,0 z"
       id="path4206" />
    <path
       style="font-size:medium;font-style:normal;font-variant:normal;font-weight:normal;font-stretch:normal;text-indent:0;text-align:start;text-decoration:none;line-height:normal;letter-spacing:normal;word-spacing:normal;text-transform:none;direction:ltr;block-progression:tb;writing-mode:lr-tb;text-anchor:start;color:#000000;fill:#000000;fill-opacity:1;stroke:none;stroke-width:1px;marker:none;visibility:visible;display:inline;overflow:visible;enable-background:accumulate;font-family:Bitstream Charter;-inkscape-font-specification:Bitstream Charter"
       d="m 118.21875,61.34375 0,20 1,0 0,-20 -1,0 z"
       id="path4208" />
    <path
       style="font-size:medium;font-style:normal;font-variant:normal;font-weight:normal;font-stretch:normal;text-indent:0;text-align:start;text-decoration:none;line-height:normal;letter-spacing:normal;word-spacing:normal;text-transform:none;direction:ltr;block-progression:tb;writing-mode:lr-tb;text-anchor:start;color:#000000;fill:#000000;fill-opacity:1;stroke:none;stroke-width:1px;marker:none;visibility:visible;display:inline;overflow:visible;enable-background:accumulate;font-family:Bitstream Charter;-inkscape-font-specification:Bitstream Charter"
       d="m 158.21875,61.34375 0,20 1,0 0,-20 -1,0 z"
       id="path4210" />
    <path
       style="font-size:medium;font-style:normal;font-variant:normal;font-weight:normal;font-stretch:normal;text-indent:0;text-align:start;text-decoration:none;line-height:normal;letter-spacing:normal;word-spacing:normal;text-transform:none;direction:ltr;block-progression:tb;writing-mode:lr-tb;text-anchor:start;color:#000000;fill:#000000;fill-opacity:1;stroke:none;stroke-width:1px;marker:none;visibility:visible;display:inline;overflow:visible;enable-background:accumulate;font-family:Bitstream Charter;-inkscape-font-specification:Bitstream Charter"
       d="m 198.21875,61.34375 0,20 1,0 0,-20 -1,0 z"
       id="path4212" />
    <path
       style="font-size:medium;font-style:normal;font-variant:normal;font-weight:normal;font-stretch:normal;text-indent:0;text-align:start;text-decoration:none;line-height:normal;letter-spacing:normal;word-spacing:normal;text-transform:none;direction:ltr;block-progression:tb;writing-mode:lr-tb;text-anchor:start;color:#000000;fill:#000000;fill-opacity:1;stroke:none;stroke-width:1px;marker:none;visibility:visible;display:inline;overflow:visible;enable-background:accumulate;font-family:Bitstream Charter;-inkscape-font-specification:Bitstream Charter"
       d="m 238.21875,61.34375 0,20 1,0 0,-20 -1,0 z"
       id="path4214" />
    <path
       style="font-size:medium;font-style:normal;font-variant:normal;font-weight:normal;font-stretch:normal;text-indent:0;text-align:start;text-decoration:none;line-height:normal;letter-spacing:normal;word-spacing:normal;text-transform:none;direction:ltr;block-progression:tb;writing-mode:lr-tb;text-anchor:start;color:#000000;fill:#000000;fill-opacity:1;stroke:none;stroke-width:1px;marker:none;visibility:visible;display:inline;overflow:visible;enable-background:accumulate;font-family:Bitstream Charter;-inkscape-font-specification:Bitstream Charter"
       d="m 278.21875,61.34375 0,20 1,0 0,-20 -1,0 z"
       id="path4216" />
    <path
       style="font-size:12px;font-style:normal;font-variant:normal;font-weight:normal;font-stretch:normal;fill:#000000;fill-opacity:1;stroke:none;font-family:DejaVu Sans;-inkscape-font-specification:DejaVu Sans"
       d="M 38.53125 83.90625 C 37.550779 83.90626 36.800779 84.28516 36.28125 85.0625 C 35.765624 85.83594 35.499999 86.96094 35.5 88.4375 C 35.499999 89.91015 35.765624 91.03515 36.28125 91.8125 C 36.800779 92.58593 37.550779 92.96875 38.53125 92.96875 C 39.511714 92.96875 40.265619 92.58593 40.78125 91.8125 C 41.300774 91.03515 41.531243 89.91015 41.53125 88.4375 C 41.531243 86.96094 41.300774 85.83594 40.78125 85.0625 C 40.265619 84.28516 39.511714 83.90626 38.53125 83.90625 z M 38.53125 84.84375 C 39.144527 84.84376 39.601558 85.1172 39.90625 85.71875 C 40.214838 86.31642 40.374994 87.23438 40.375 88.4375 C 40.374994 89.63672 40.214838 90.52344 39.90625 91.125 C 39.601558 91.72265 39.144527 92.03125 38.53125 92.03125 C 37.921872 92.03125 37.464841 91.72265 37.15625 91.125 C 36.85156 90.52344 36.687498 89.63672 36.6875 88.4375 C 36.687498 87.23438 36.85156 86.31642 37.15625 85.71875 C 37.464841 85.1172 37.921872 84.84376 38.53125 84.84375 z "
       id="path4490" />
    <path
       style="font-size:12px;font-style:normal;font-variant:normal;font-weight:normal;font-stretch:normal;fill:#000000;fill-opacity:1;stroke:none;font-family:DejaVu Sans;-inkscape-font-specification:DejaVu Sans"
       d="m 106.23445,83.795039 0,1.86328 2.2207,0 0,0.83789 -2.2207,0 0,3.5625 c 0,0.53516 0.0723,0.87891 0.2168,1.03125 0.14843,0.15235 0.44726,0.22852 0.89648,0.22852 l 1.10742,0 0,0.90234 -1.10742,0 c -0.83203,0 -1.40625,-0.1543 -1.72265,-0.46289 -0.31641,-0.3125 -0.47462,-0.87891 -0.47461,-1.69922 l 0,-3.5625 -0.79102,0 0,-0.83789 0.79102,0 0,-1.86328 1.08398,0"
       id="path4376" />
    <path
       style="font-size:12px;font-style:normal;font-variant:normal;font-weight:normal;font-stretch:normal;fill:#000000;fill-opacity:1;stroke:none;font-family:DejaVu Sans;-inkscape-font-specification:DejaVu Sans"
       d="m 275.0163,83.482964 7.40039,0 0,0.9961 -3.10546,0 0,7.75195 -1.18946,0 0,-7.75195 -3.10547,0 0,-0.9961"
       id="path4379" />
    <path
       style="font-size:9px;font-style:normal;font-variant:normal;font-weight:normal;font-stretch:normal;fill:#000000;fill-opacity:1;stroke:none;font-family:DejaVu Sans;-inkscape-font-specification:DejaVu Sans"
       d="m 113.48152,91.750119 0,2.9707 -0.80859,0 0,-2.94433 c -10e-6,-0.46582 -0.0908,-0.81445 -0.27246,-1.0459 -0.18165,-0.23144 -0.45411,-0.34717 -0.81739,-0.34717 -0.43652,0 -0.78076,0.13916 -1.03271,0.41748 -0.25196,0.27832 -0.37793,0.65772 -0.37793,1.13818 l 0,2.78174 -0.81299,0 0,-4.92187 0.81299,0 0,0.76465 c 0.19336,-0.2959 0.42041,-0.51709 0.68115,-0.66358 0.26367,-0.14648 0.56689,-0.21972 0.90967,-0.21972 0.56543,0 0.99316,0.17578 1.2832,0.52734 0.29004,0.34864 0.43506,0.8628 0.43506,1.54248"
       id="path4382" />
    <path
       style="font-size:9px;font-style:normal;font-variant:normal;font-weight:normal;font-stretch:normal;fill:#000000;fill-opacity:1;stroke:none;font-family:DejaVu Sans;-inkscape-font-specification:DejaVu Sans"
       d="m 118.07381,91.525999 5.63378,0 0,0.74707 -5.63378,0 0,-0.74707"
       id="path4384" />
    <path
       style="font-size:9px;font-style:normal;font-variant:normal;font-weight:normal;font-stretch:normal;fill:#000000;fill-opacity:1;stroke:none;font-family:DejaVu Sans;-inkscape-font-specification:DejaVu Sans"
       d="m 128.64265,93.973749 1.4502,0 0,-5.00537 -1.57764,0.31641 0,-0.8086 1.56885,-0.3164 0.88769,0 0,5.81396 1.4502,0 0,0.74707 -3.7793,0 0,-0.74707"
       id="path4386" />
    <path
       style="font-size:9px;font-style:normal;font-variant:normal;font-weight:normal;font-stretch:normal;fill:#000000;fill-opacity:1;stroke:none;font-family:DejaVu Sans;-inkscape-font-specification:DejaVu Sans"
       d="m 163.07772,91.760314 0,2.9707 -0.80859,0 0,-2.94433 c -1e-5,-0.46582 -0.0908,-0.81445 -0.27246,-1.0459 -0.18165,-0.23144 -0.45411,-0.34717 -0.81738,-0.34717 -0.43653,0 -0.78077,0.13916 -1.03272,0.41748 -0.25195,0.27832 -0.37793,0.65772 -0.37793,1.13818 l 0,2.78174 -0.81299,0 0,-4.92187 0.81299,0 0,0.76465 c 0.19336,-0.2959 0.42041,-0.51709 0.68115,-0.66358 0.26367,-0.14648 0.56689,-0.21972 0.90967,-0.21972 0.56543,0 0.99316,0.17578 1.28321,0.52734 0.29003,0.34864 0.43505,0.8628 0.43505,1.54248"
       id="path4389" />
    <path
       style="font-size:9px;font-style:normal;font-variant:normal;font-weight:normal;font-stretch:normal;fill:#000000;fill-opacity:1;stroke:none;font-family:DejaVu Sans;-inkscape-font-specification:DejaVu Sans"
       d="m 193.43127,91.760314 0,2.9707 -0.80859,0 0,-2.94433 c -1e-5,-0.46582 -0.0908,-0.81445 -0.27246,-1.0459 -0.18165,-0.23144 -0.45411,-0.34717 -0.81738,-0.34717 -0.43653,0 -0.78077,0.13916 -1.03272,0.41748 -0.25195,0.27832 -0.37793,0.65772 -0.37793,1.13818 l 0,2.78174 -0.81299,0 0,-4.92187 0.81299,0 0,0.76465 c 0.19336,-0.2959 0.42041,-0.51709 0.68115,-0.66358 0.26367,-0.14648 0.56689,-0.21972 0.90967,-0.21972 0.56543,0 0.99316,0.17578 1.2832,0.52734 0.29004,0.34864 0.43506,0.8628 0.43506,1.54248"
       id="path4392" />
    <path
       style="font-size:9px;font-style:normal;font-variant:normal;font-weight:normal;font-stretch:normal;fill:#000000;fill-opacity:1;stroke:none;font-family:DejaVu Sans;-inkscape-font-specification:DejaVu Sans"
       d="m 201.20959,89.088434 0,2.44776 2.44776,0 0,0.74707 -2.44776,0 0,2.44775 -0.73828,0 0,-2.44775 -2.44775,0 0,-0.74707 2.44775,0 0,-2.44776 0.73828,0"
       id="path4394" />
    <path
       style="font-size:9px;font-style:normal;font-variant:normal;font-weight:normal;font-stretch:normal;fill:#000000;fill-opacity:1;stroke:none;font-family:DejaVu Sans;-inkscape-font-specification:DejaVu Sans"
       d="m 208.59241,93.983944 1.45019,0 0,-5.00537 -1.57764,0.31641 0,-0.8086 1.56885,-0.3164 0.8877,0 0,5.81396 1.45019,0 0,0.74707 -3.77929,0 0,-0.74707"
       id="path4396" />
    <path
       style="font-size:12px;font-style:normal;font-variant:normal;font-weight:normal;font-stretch:normal;fill:#000000;fill-opacity:1;stroke:none;font-family:DejaVu Sans;-inkscape-font-specification:DejaVu Sans"
       d="m 155.83065,83.805234 0,1.86328 2.2207,0 0,0.83789 -2.2207,0 0,3.5625 c -1e-5,0.53516 0.0723,0.87891 0.21679,1.03125 0.14844,0.15235 0.44726,0.22852 0.89649,0.22852 l 1.10742,0 0,0.90234 -1.10742,0 c -0.83204,0 -1.40626,-0.1543 -1.72266,-0.46289 -0.31641,-0.3125 -0.47461,-0.87891 -0.47461,-1.69922 l 0,-3.5625 -0.79101,0 0,-0.83789 0.79101,0 0,-1.86328 1.08399,0"
       id="path4399" />
    <path
       style="font-size:12px;font-style:normal;font-variant:normal;font-weight:normal;font-stretch:normal;fill:#000000;fill-opacity:1;stroke:none;font-family:DejaVu Sans;-inkscape-font-specification:DejaVu Sans"
       d="m 186.18421,83.805234 0,1.86328 2.2207,0 0,0.83789 -2.2207,0 0,3.5625 c -1e-5,0.53516 0.0723,0.87891 0.21679,1.03125 0.14844,0.15235 0.44726,0.22852 0.89649,0.22852 l 1.10742,0 0,0.90234 -1.10742,0 c -0.83204,0 -1.40626,-0.1543 -1.72266,-0.46289 -0.31641,-0.3125 -0.47461,-0.87891 -0.47461,-1.69922 l 0,-3.5625 -0.79101,0 0,-0.83789 0.79101,0 0,-1.86328 1.08399,0"
       id="path4402" />
    <path
       style="font-size:12px;font-style:normal;font-variant:normal;font-weight:normal;font-stretch:normal;fill:#000000;fill-opacity:1;stroke:none;font-family:DejaVu Sans;-inkscape-font-specification:DejaVu Sans"
       d="m 329.33892,66.712471 0,1.86328 2.2207,0 0,0.83789 -2.2207,0 0,3.5625 c -10e-6,0.53516 0.0723,0.87891 0.21679,1.03125 0.14844,0.15235 0.44727,0.22852 0.89649,0.22852 l 1.10742,0 0,0.90234 -1.10742,0 c -0.83204,0 -1.40625,-0.1543 -1.72266,-0.46289 -0.31641,-0.3125 -0.47461,-0.87891 -0.47461,-1.69922 l 0,-3.5625 -0.79101,0 0,-0.83789 0.79101,0 0,-1.86328 1.08399,0"
       id="path4405" />
  </g>
</svg>
