<?xml version="1.0" encoding="UTF-8" standalone="no"?>
<!-- Created with Inkscape (http://www.inkscape.org/) -->

<svg
   xmlns:dc="http://purl.org/dc/elements/1.1/"
   xmlns:cc="http://creativecommons.org/ns#"
   xmlns:rdf="http://www.w3.org/1999/02/22-rdf-syntax-ns#"
   xmlns:svg="http://www.w3.org/2000/svg"
   xmlns="http://www.w3.org/2000/svg"
   xmlns:sodipodi="http://sodipodi.sourceforge.net/DTD/sodipodi-0.dtd"
   xmlns:inkscape="http://www.inkscape.org/namespaces/inkscape"
   width="145"
   height="150"
   id="svg2"
   version="1.1"
   inkscape:version="0.48.0 r9654"
   sodipodi:docname="2011-(03)mar-25, 04.svg">
  <defs
     id="defs4" />
  <sodipodi:namedview
     id="base"
     pagecolor="#ffffff"
     bordercolor="#666666"
     borderopacity="1.0"
     inkscape:pageopacity="0.0"
     inkscape:pageshadow="2"
     inkscape:zoom="2.828427"
     inkscape:cx="137.03867"
     inkscape:cy="107.13492"
     inkscape:document-units="px"
     inkscape:current-layer="layer1"
     showgrid="false"
     inkscape:window-width="1589"
     inkscape:window-height="1117"
     inkscape:window-x="1600"
     inkscape:window-y="27"
     inkscape:window-maximized="1"
     showguides="true"
     inkscape:guide-bbox="true" />
  <metadata
     id="metadata7">
    <rdf:RDF>
      <cc:Work
         rdf:about="">
        <dc:format>image/svg+xml</dc:format>
        <dc:type
           rdf:resource="http://purl.org/dc/dcmitype/StillImage" />
        <dc:title />
      </cc:Work>
    </rdf:RDF>
  </metadata>
  <g
     inkscape:label="Layer 1"
     inkscape:groupmode="layer"
     id="layer1">
    <rect
       style="fill:#0000ff;fill-rule:evenodd;stroke:#000000;stroke-width:1px;stroke-linecap:butt;stroke-linejoin:miter;stroke-opacity:1"
       id="rect3007"
       width="58"
       height="0"
       x="-332.76865"
       y="91.110023" />
    <rect
       style="fill:#0000ff;fill-rule:evenodd;stroke:#000000;stroke-width:1px;stroke-linecap:butt;stroke-linejoin:miter;stroke-opacity:1"
       id="rect3007-3"
       width="58"
       height="0"
       x="-269.32855"
       y="112.3216" />
    <path
       style="font-size:medium;font-style:normal;font-variant:normal;font-weight:normal;font-stretch:normal;text-indent:0;text-align:start;text-decoration:none;line-height:normal;letter-spacing:normal;word-spacing:normal;text-transform:none;direction:ltr;block-progression:tb;writing-mode:lr-tb;text-anchor:start;baseline-shift:baseline;color:#000000;fill:#000000;fill-opacity:1;stroke:none;stroke-width:1;marker:none;visibility:visible;display:inline;overflow:visible;enable-background:accumulate;font-family:Sans;-inkscape-font-specification:Sans"
       d="m 28.351714,48.011643 0,0.5 0,16.5 0,0.5 0.5,0 10,0 0.5,0 0,-0.5 0,-16.5 0,-0.5 -0.5,0 -10,0 -0.5,0 z m 1,1 9,0 0,15.5 -9,0 0,-15.5 z"
       id="path4635"
       inkscape:connector-curvature="0" />
    <path
       style="font-size:medium;font-style:normal;font-variant:normal;font-weight:normal;font-stretch:normal;text-indent:0;text-align:start;text-decoration:none;line-height:normal;letter-spacing:normal;word-spacing:normal;text-transform:none;direction:ltr;block-progression:tb;writing-mode:lr-tb;text-anchor:start;baseline-shift:baseline;color:#000000;fill:#000000;fill-opacity:1;stroke:none;stroke-width:1;marker:none;visibility:visible;display:inline;overflow:visible;enable-background:accumulate;font-family:Sans;-inkscape-font-specification:Sans"
       d="m 76.351714,48.011643 0,0.5 0,16.5 0,0.5 0.5,0 10,0 0.5,0 0,-0.5 0,-16.5 0,-0.5 -0.5,0 -10,0 -0.5,0 z m 1,1 9,0 0,15.5 -9,0 0,-15.5 z"
       id="path4631"
       inkscape:connector-curvature="0" />
    <path
       style="font-size:medium;font-style:normal;font-variant:normal;font-weight:normal;font-stretch:normal;text-indent:0;text-align:start;text-decoration:none;line-height:normal;letter-spacing:normal;word-spacing:normal;text-transform:none;direction:ltr;block-progression:tb;writing-mode:lr-tb;text-anchor:start;baseline-shift:baseline;color:#000000;fill:#000000;fill-opacity:1;stroke:none;stroke-width:1;marker:none;visibility:visible;display:inline;overflow:visible;enable-background:accumulate;font-family:Sans;-inkscape-font-specification:Sans"
       d="m 76.351714,108.01164 0,0.5 0,16.5 0,0.5 0.5,0 10,0 0.5,0 0,-0.5 0,-16.5 0,-0.5 -0.5,0 -10,0 -0.5,0 z m 1,1 9,0 0,15.5 -9,0 0,-15.5 z"
       id="path4623"
       inkscape:connector-curvature="0" />
    <path
       style="font-size:medium;font-style:normal;font-variant:normal;font-weight:normal;font-stretch:normal;text-indent:0;text-align:start;text-decoration:none;line-height:normal;letter-spacing:normal;word-spacing:normal;text-transform:none;direction:ltr;block-progression:tb;writing-mode:lr-tb;text-anchor:start;baseline-shift:baseline;color:#000000;fill:#000000;fill-opacity:1;stroke:none;stroke-width:1;marker:none;visibility:visible;display:inline;overflow:visible;enable-background:accumulate;font-family:Sans;-inkscape-font-specification:Sans"
       d="m 34.101714,107.51164 c -4.688498,0 -8.5,3.8115 -8.5,8.5 0,4.68849 3.811502,8.5 8.5,8.5 4.688498,0 8.5,-3.81151 8.5,-8.5 0,-4.6885 -3.811502,-8.5 -8.5,-8.5 z m 0,1 c 4.148058,0 7.5,3.35194 7.5,7.5 0,4.14806 -3.351942,7.5 -7.5,7.5 -4.148058,0 -7.5,-3.35194 -7.5,-7.5 0,-4.14806 3.351942,-7.5 7.5,-7.5 z"
       id="path4619"
       inkscape:connector-curvature="0" />
    <path
       style="font-size:medium;font-style:normal;font-variant:normal;font-weight:normal;font-stretch:normal;text-indent:0;text-align:start;text-decoration:none;line-height:normal;letter-spacing:normal;word-spacing:normal;text-transform:none;direction:ltr;block-progression:tb;writing-mode:lr-tb;text-anchor:start;baseline-shift:baseline;color:#000000;fill:#000000;fill-opacity:1;stroke:none;stroke-width:1px;marker:none;visibility:visible;display:inline;overflow:visible;enable-background:accumulate;font-family:Sans;-inkscape-font-specification:Sans"
       d="m 33.726714,65.292893 0,58.874997 1,0 0,-58.874997 z"
       id="path3021"
       inkscape:connector-curvature="0"
       sodipodi:nodetypes="ccccc" />
    <path
       style="font-size:medium;font-style:normal;font-variant:normal;font-weight:normal;font-stretch:normal;text-indent:0;text-align:start;text-decoration:none;line-height:normal;letter-spacing:normal;word-spacing:normal;text-transform:none;direction:ltr;block-progression:tb;writing-mode:lr-tb;text-anchor:start;baseline-shift:baseline;color:#000000;fill:#000000;fill-opacity:1;stroke:none;stroke-width:1px;marker:none;visibility:visible;display:inline;overflow:visible;enable-background:accumulate;font-family:Sans;-inkscape-font-specification:Sans"
       d="m 81.726714,65.292893 0,43.187497 1,0 0,-43.187497 -1,0 z"
       id="path3023"
       inkscape:connector-curvature="0" />
    <path
       style="font-size:medium;font-style:normal;font-variant:normal;font-weight:normal;font-stretch:normal;text-indent:0;text-align:start;text-decoration:none;line-height:normal;letter-spacing:normal;word-spacing:normal;text-transform:none;direction:ltr;block-progression:tb;writing-mode:lr-tb;text-anchor:start;baseline-shift:baseline;color:#000000;fill:#000000;fill-opacity:1;stroke:none;stroke-width:1px;marker:none;visibility:visible;display:inline;overflow:visible;enable-background:accumulate;font-family:Sans;-inkscape-font-specification:Sans"
       d="m 33.039214,20.792893 0,0.5 0,27.125 1,0 0,-26.625 87.406256,0 c 0.007,-0.577313 -0.002,-0.663115 0.002,-1 l -87.908406,0 z"
       id="path3025"
       inkscape:connector-curvature="0"
       sodipodi:nodetypes="ccccccccc" />
    <path
       style="font-size:medium;font-style:normal;font-variant:normal;font-weight:normal;font-stretch:normal;text-indent:0;text-align:start;text-decoration:none;line-height:normal;letter-spacing:normal;word-spacing:normal;text-transform:none;direction:ltr;block-progression:tb;writing-mode:lr-tb;text-anchor:start;baseline-shift:baseline;color:#000000;fill:#000000;fill-opacity:1;stroke:none;stroke-width:1px;marker:none;visibility:visible;display:inline;overflow:visible;enable-background:accumulate;font-family:Sans;-inkscape-font-specification:Sans"
       d="m 81.632964,21.449143 0,26.875 1,0 0,-26.875 -1,0 z"
       id="path3027"
       inkscape:connector-curvature="0" />
    <path
       style="font-size:medium;font-style:normal;font-variant:normal;font-weight:normal;font-stretch:normal;text-indent:0;text-align:start;text-decoration:none;line-height:normal;letter-spacing:normal;word-spacing:normal;text-transform:none;direction:ltr;block-progression:tb;writing-mode:lr-tb;text-anchor:start;baseline-shift:baseline;color:#000000;fill:#000000;fill-opacity:1;stroke:none;stroke-width:1px;marker:none;visibility:visible;display:inline;overflow:visible;enable-background:accumulate;font-family:Sans;-inkscape-font-specification:Sans"
       d="m 82.164214,86.042893 0,1 39.326366,0 c 0.006,-0.466162 0.006,-0.549899 0.002,-1 22.39893,0 -33.359967,0 -39.328366,0 z"
       id="path3029"
       inkscape:connector-curvature="0"
       sodipodi:nodetypes="ccccc" />
    <path
       style="font-size:medium;font-style:normal;font-variant:normal;font-weight:normal;font-stretch:normal;text-indent:0;text-align:start;text-decoration:none;line-height:normal;letter-spacing:normal;word-spacing:normal;text-transform:none;direction:ltr;block-progression:tb;writing-mode:lr-tb;text-anchor:start;baseline-shift:baseline;color:#000000;fill:#000000;fill-opacity:1;stroke:none;stroke-width:1px;marker:none;visibility:visible;display:inline;overflow:visible;enable-background:accumulate;font-family:Sans;-inkscape-font-specification:Sans"
       d="m 33.632964,124.04289 0,20.09375 0,0.5 0.5,0 48,0 0.5,0 0,-0.5 0,-19.28125 -1,0 0,18.78125 -47,0 0,-19.59375 -1,0 z"
       id="path3031"
       inkscape:connector-curvature="0" />
    <path
       style="font-size:medium;font-style:normal;font-variant:normal;font-weight:normal;font-stretch:normal;text-indent:0;text-align:start;text-decoration:none;line-height:normal;letter-spacing:normal;word-spacing:normal;text-transform:none;direction:ltr;block-progression:tb;writing-mode:lr-tb;text-anchor:start;baseline-shift:baseline;color:#000000;fill:#000000;fill-opacity:1;stroke:none;stroke-width:1;marker:none;visibility:visible;display:inline;overflow:visible;enable-background:accumulate;font-family:Sans;-inkscape-font-specification:Sans"
       d="m 81.539214,36.292893 0,3.5 1,0 0,-3.5 -1,0 z"
       id="path3033"
       inkscape:connector-curvature="0" />
    <path
       style="font-size:12px;fill-rule:evenodd;stroke-width:0.625;stroke-linejoin:round"
       d="M 86.476321,29.102445 82.056827,41.12091 77.637333,29.102445 c 2.609267,1.920048 6.179198,1.908985 8.838988,0 z"
       id="path4495"
       inkscape:connector-curvature="0" />
    <path
       style="font-size:medium;font-style:normal;font-variant:normal;font-weight:normal;font-stretch:normal;text-indent:0;text-align:start;text-decoration:none;line-height:normal;letter-spacing:normal;word-spacing:normal;text-transform:none;direction:ltr;block-progression:tb;writing-mode:lr-tb;text-anchor:start;baseline-shift:baseline;color:#000000;fill:#000000;fill-opacity:1;stroke:none;stroke-width:1;marker:none;visibility:visible;display:inline;overflow:visible;enable-background:accumulate;font-family:Sans;-inkscape-font-specification:Sans"
       d="m 58.164214,20.792893 0,1 3.5,0 0,-1 -3.5,0 z"
       id="path4247"
       inkscape:connector-curvature="0" />
    <path
       style="font-size:12px;fill-rule:evenodd;stroke-width:0.625;stroke-linejoin:round"
       d="M 50.986945,16.853796 63.00541,21.27329 50.986945,25.692784 c 1.920048,-2.609267 1.908985,-6.179198 0,-8.838988 z"
       id="path4503"
       inkscape:connector-curvature="0" />
    <path
       style="font-size:medium;font-style:normal;font-variant:normal;font-weight:normal;font-stretch:normal;text-indent:0;text-align:start;text-decoration:none;line-height:normal;letter-spacing:normal;word-spacing:normal;text-transform:none;direction:ltr;block-progression:tb;writing-mode:lr-tb;text-anchor:start;baseline-shift:baseline;color:#000000;fill:#000000;fill-opacity:1;stroke:none;stroke-width:1;marker:none;visibility:visible;display:inline;overflow:visible;enable-background:accumulate;font-family:Sans;-inkscape-font-specification:Sans"
       d="m 108.16422,20.792893 0,1 3.5,0 0,-1 -3.5,0 z"
       id="path4249"
       inkscape:connector-curvature="0" />
    <path
       style="font-size:12px;fill-rule:evenodd;stroke-width:0.625;stroke-linejoin:round"
       d="m 99.307572,16.853796 12.018438,4.419494 -12.018438,4.419494 c 1.920018,-2.609267 1.908958,-6.179198 0,-8.838988 z"
       id="path4511"
       inkscape:connector-curvature="0" />
    <path
       style="font-size:medium;font-style:normal;font-variant:normal;font-weight:normal;font-stretch:normal;text-indent:0;text-align:start;text-decoration:none;line-height:normal;letter-spacing:normal;word-spacing:normal;text-transform:none;direction:ltr;block-progression:tb;writing-mode:lr-tb;text-anchor:start;baseline-shift:baseline;color:#000000;fill:#000000;fill-opacity:1;stroke:none;stroke-width:1px;marker:none;visibility:visible;display:inline;overflow:visible;enable-background:accumulate;font-family:Sans;-inkscape-font-specification:Sans"
       d="m 20.632964,107.51164 0,17.625 1,0 0,-17.625 -1,0 z"
       id="path4251"
       inkscape:connector-curvature="0" />
    <path
       style="font-size:12px;font-style:normal;font-weight:normal;line-height:125%;letter-spacing:0px;word-spacing:0px;fill:#000000;fill-opacity:1;stroke:none;font-family:Sans"
       d="m 90.183854,30.134516 1.1836,0 0,8.748047 -1.1836,0 0,-8.748047"
       id="path4456"
       inkscape:connector-curvature="0" />
    <path
       style="font-size:7.80010986px;font-style:normal;font-weight:normal;line-height:125%;letter-spacing:0px;word-spacing:0px;baseline-shift:sub;fill:#000000;fill-opacity:1;stroke:none;font-family:Sans"
       d="m 94.041984,40.635093 2.6851,0 0,0.64747 -3.6106,0 0,-0.64747 c 0.292,-0.302152 0.68936,-0.707137 1.19211,-1.214959 0.50527,-0.510356 0.82266,-0.839169 0.95216,-0.986439 0.24629,-0.276759 0.41768,-0.510356 0.51417,-0.700791 0.099,-0.192968 0.14853,-0.382131 0.14853,-0.567489 0,-0.302148 -0.10664,-0.54844 -0.31992,-0.738877 -0.21075,-0.190428 -0.48624,-0.285644 -0.82648,-0.285649 -0.24122,5e-6 -0.4964,0.0419 -0.76554,0.125685 -0.2666,0.0838 -0.55225,0.21075 -0.85694,0.380865 l 0,-0.776964 c 0.30977,-0.12441 0.59922,-0.218357 0.86837,-0.28184 0.26914,-0.06347 0.51543,-0.09521 0.73888,-0.09522 0.58906,6e-6 1.0588,0.147273 1.40919,0.441803 0.3504,0.294541 0.52559,0.688101 0.5256,1.180681 -1e-5,0.233601 -0.0444,0.455772 -0.1333,0.666513 -0.0863,0.20821 -0.24503,0.454502 -0.47609,0.738878 -0.0635,0.07364 -0.26533,0.28692 -0.60557,0.639853 -0.34024,0.350397 -0.82013,0.841712 -1.43967,1.473946"
       id="path4458"
       inkscape:connector-curvature="0" />
    <path
       style="font-size:12px;font-style:normal;font-weight:normal;line-height:125%;letter-spacing:0px;word-spacing:0px;fill:#000000;fill-opacity:1;stroke:none;font-family:Sans"
       d="m 52.863994,4.7429496 1.1836,0 0,8.7480464 -1.1836,0 0,-8.7480464"
       id="path4451"
       inkscape:connector-curvature="0" />
    <path
       style="font-size:7.80010986px;font-style:normal;font-weight:normal;line-height:125%;letter-spacing:0px;word-spacing:0px;baseline-shift:sub;fill:#000000;fill-opacity:1;stroke:none;font-family:Sans"
       d="m 56.192724,15.243526 1.25685,0 0,-4.338049 -1.3673,0.274223 0,-0.700792 1.35969,-0.274222 0.76934,0 0,5.03884 1.25686,0 0,0.64747 -3.27544,0 0,-0.64747"
       id="path4453"
       inkscape:connector-curvature="0" />
    <path
       style="font-size:12px;font-style:normal;font-weight:normal;line-height:125%;letter-spacing:0px;word-spacing:0px;fill:#000000;fill-opacity:1;stroke:none;font-family:Sans"
       d="m 103.86404,5.2074166 1.1836,0 0,8.7480464 -1.1836,0 0,-8.7480464"
       id="path4448"
       inkscape:connector-curvature="0" />
    <path
       style="font-size:12px;font-style:normal;font-weight:normal;line-height:125%;letter-spacing:0px;word-spacing:0px;fill:#000000;fill-opacity:1;stroke:none;font-family:Sans"
       d="m 4.6482854,111.45314 5.5312496,0 0,0.99609 -4.3476496,0 0,2.58985 4.1660098,0 0,0.99609 -4.1660098,0 0,3.16992 4.4531196,0 0,0.99609 -5.6367196,0 0,-8.74804"
       id="path4317"
       inkscape:connector-curvature="0" />
    <path
       style="font-size:12px;font-style:normal;font-weight:normal;line-height:125%;letter-spacing:0px;word-spacing:0px;fill:#000000;fill-opacity:1;stroke:none;font-family:Sans"
       d="m 15.876729,102.4247 0,3.26367 3.26367,0 0,0.99609 -3.26367,0 0,3.26368 -0.98437,0 0,-3.26368 -3.26368,0 0,-0.99609 3.26368,0 0,-3.26367 0.98437,0"
       id="path4319"
       inkscape:connector-curvature="0" />
    <path
       style="font-size:12px;font-style:normal;font-weight:normal;line-height:125%;letter-spacing:0px;word-spacing:0px;fill:#000000;fill-opacity:1;stroke:none;font-family:Sans"
       d="m 14.851714,52.011643 0,8.75 1.1875,0 0,-3.71875 1.28125,0 c 0.46875,4e-6 0.82422,0.121097 1.09375,0.3125 0.27343,0.191409 0.55468,0.570316 0.84375,1.15625 l 1.125,2.25 1.28125,0 -1.21875,-2.40625 c -0.2422,-0.492185 -0.47657,-0.874997 -0.71875,-1.15625 -0.23828,-0.281246 -0.4961,-0.44531 -0.75,-0.53125 0.48828,-0.14062 0.87109,-0.417964 1.125,-0.78125 0.25781,-0.363276 0.375,-0.824213 0.375,-1.375 0,-0.843743 -0.22657,-1.457023 -0.71875,-1.875 -0.49219,-0.41796 -1.25001,-0.624991 -2.25,-0.625 l -2.65625,0 z m 1.1875,0.96875 1.46875,0 c 0.57031,8e-6 0.99218,0.144539 1.28125,0.40625 0.29297,0.25782 0.4375,0.613288 0.4375,1.125 0,0.511725 -0.14453,0.92188 -0.4375,1.1875 -0.28907,0.261723 -0.71094,0.375005 -1.28125,0.375 l -1.46875,0 0,-3.09375 z"
       id="path4569"
       inkscape:connector-curvature="0" />
    <path
       style="font-size:26.00036621px;font-style:normal;font-weight:normal;line-height:125%;letter-spacing:0px;word-spacing:0px;baseline-shift:sub;fill:#000000;fill-opacity:1;stroke:none;font-family:Sans"
       d="m 22.975364,62.506413 1.25685,0 0,-4.338049 -1.3673,0.274222 0,-0.700791 1.35968,-0.274223 0.76935,0 0,5.038841 1.25685,0 0,0.64747 -3.27543,0 0,-0.64747"
       id="path4445"
       inkscape:connector-curvature="0" />
    <path
       style="font-size:12px;font-style:normal;font-weight:normal;line-height:125%;letter-spacing:0px;word-spacing:0px;fill:#000000;fill-opacity:1;stroke:none;font-family:Sans"
       d="m 63.695464,51.480393 0,8.75 1.1875,0 0,-3.71875 1.3125,0 c 0.46875,4e-6 0.82422,0.08985 1.09375,0.28125 0.27343,0.191409 0.55468,0.601566 0.84375,1.1875 l 1.125,2.25 1.28125,0 -1.21875,-2.40625 c -0.2422,-0.492185 -0.47657,-0.874997 -0.71875,-1.15625 -0.23828,-0.281246 -0.4961,-0.47656 -0.75,-0.5625 0.48828,-0.14062 0.87109,-0.386714 1.125,-0.75 0.25781,-0.363276 0.375,-0.824213 0.375,-1.375 0,-0.843743 -0.22657,-1.457023 -0.71875,-1.875 -0.49219,-0.41796 -1.25001,-0.624991 -2.25,-0.625 l -2.6875,0 z m 1.1875,0.96875 1.5,0 c 0.57031,8e-6 0.99218,0.113289 1.28125,0.375 0.29297,0.25782 0.4375,0.644538 0.4375,1.15625 0,0.511725 -0.14453,0.92188 -0.4375,1.1875 -0.28907,0.261723 -0.71094,0.375005 -1.28125,0.375 l -1.5,0 0,-3.09375 z"
       id="path4575"
       inkscape:connector-curvature="0" />
    <path
       style="font-size:26.00036621px;font-style:normal;font-weight:normal;line-height:125%;letter-spacing:0px;word-spacing:0px;baseline-shift:sub;fill:#000000;fill-opacity:1;stroke:none;font-family:Sans"
       d="m 72.372604,61.969446 2.68509,0 0,0.64747 -3.61059,0 0,-0.64747 c 0.29199,-0.302152 0.68936,-0.707138 1.1921,-1.214959 0.50528,-0.510356 0.82267,-0.839169 0.95217,-0.986439 0.24629,-0.276759 0.41767,-0.510356 0.51416,-0.700791 0.099,-0.192968 0.14854,-0.382131 0.14854,-0.567489 0,-0.302148 -0.10665,-0.54844 -0.31993,-0.738877 -0.21074,-0.190428 -0.48624,-0.285644 -0.82647,-0.285649 -0.24122,5e-6 -0.4964,0.0419 -0.76554,0.125685 -0.26661,0.0838 -0.55226,0.21075 -0.85695,0.380865 l 0,-0.776964 c 0.30977,-0.12441 0.59923,-0.218357 0.86838,-0.28184 0.26914,-0.06347 0.51543,-0.09521 0.73887,-0.09522 0.58907,6e-6 1.0588,0.147273 1.4092,0.441803 0.35039,0.294541 0.52559,0.6881 0.5256,1.180681 -1e-5,0.233601 -0.0444,0.455772 -0.13331,0.666513 -0.0863,0.208209 -0.24502,0.454502 -0.47608,0.738878 -0.0635,0.07364 -0.26534,0.28692 -0.60557,0.639852 -0.34024,0.350398 -0.82013,0.841713 -1.43967,1.473947"
       id="path4440"
       inkscape:connector-curvature="0" />
    <path
       style="font-size:12px;font-style:normal;font-weight:normal;line-height:125%;letter-spacing:0px;word-spacing:0px;fill:#000000;fill-opacity:1;stroke:none;font-family:Sans"
       d="m 66.976714,112.98039 0,8.75 1.1875,0 0,-3.71875 1.3125,0 c 0.46875,0 0.82422,0.0898 1.09375,0.28125 0.27343,0.19141 0.55468,0.60157 0.84375,1.1875 l 1.125,2.25 1.25,0 -1.1875,-2.40625 c -0.2422,-0.49219 -0.47657,-0.875 -0.71875,-1.15625 -0.23828,-0.28124 -0.4961,-0.4766 -0.75,-0.5625 0.48828,-0.14062 0.87109,-0.38671 1.125,-0.75 0.25781,-0.36327 0.375,-0.82422 0.375,-1.375 0,-0.84375 -0.22657,-1.45702 -0.71875,-1.875 -0.49219,-0.41796 -1.25001,-0.625 -2.25,-0.625 l -2.6875,0 z m 1.1875,0.96875 1.5,0 c 0.57031,1e-5 0.99218,0.11329 1.28125,0.375 0.29297,0.25782 0.4375,0.64454 0.4375,1.15625 0,0.51172 -0.14453,0.92188 -0.4375,1.1875 -0.28907,0.26173 -0.71094,0.37501 -1.28125,0.375 l -1.5,0 0,-3.09375 z"
       id="path4585"
       inkscape:connector-curvature="0" />
    <path
       sodipodi:type="arc"
       style="fill:none;stroke:#000000;stroke-width:1;stroke-linecap:square;stroke-miterlimit:4;stroke-opacity:1;stroke-dasharray:none;stroke-dashoffset:0"
       id="path3016"
       sodipodi:cx="120.56171"
       sodipodi:cy="21.660118"
       sodipodi:rx="4.224874"
       sodipodi:ry="4.224874"
       d="m 124.78658,21.660118 a 4.224874,4.224874 0 1 1 -8.44975,0 4.224874,4.224874 0 1 1 8.44975,0 z"
       transform="translate(5.2267136,-0.39460678)" />
    <path
       transform="translate(5.2267136,64.855393)"
       d="m 124.78658,21.660118 a 4.224874,4.224874 0 1 1 -8.44975,0 4.224874,4.224874 0 1 1 8.44975,0 z"
       sodipodi:ry="4.224874"
       sodipodi:rx="4.224874"
       sodipodi:cy="21.660118"
       sodipodi:cx="120.56171"
       id="path3018"
       style="fill:none;stroke:#000000;stroke-width:1;stroke-linecap:square;stroke-miterlimit:4;stroke-opacity:1;stroke-dasharray:none;stroke-dashoffset:0"
       sodipodi:type="arc" />
    <path
       style="fill:none;stroke:#000000;stroke-width:1px;stroke-linecap:butt;stroke-linejoin:miter;stroke-opacity:1"
       d="m 125.66422,29.176775 0,49.025127"
       id="path3020"
       inkscape:connector-curvature="0"
       sodipodi:nodetypes="cc" />
    <path
       style="font-size:12px;font-style:normal;font-weight:normal;line-height:125%;letter-spacing:0px;word-spacing:0px;fill:#000000;fill-opacity:1;stroke:none;font-family:Sans"
       d="m 136.18383,18.417893 c -0.35156,7e-6 -0.72266,0.01563 -1.09375,0.09375 -0.3711,0.07423 -0.76172,0.191413 -1.15625,0.34375 l 0,1 c 0.32813,-0.179682 0.67578,-0.3164 1.03125,-0.40625 0.35547,-0.08984 0.71874,-0.124994 1.09375,-0.125 0.58984,6e-6 1.05078,0.132818 1.375,0.40625 0.32812,0.269536 0.49999,0.660161 0.5,1.15625 l 0,0.09375 -1.5,0 c -0.98047,4e-6 -1.72265,0.187504 -2.21875,0.5625 -0.49218,0.375003 -0.75,0.949221 -0.75,1.6875 0,0.632813 0.19922,1.121094 0.59375,1.5 0.39844,0.375 0.92187,0.5625 1.59375,0.5625 0.53125,0 0.97656,-0.09375 1.34375,-0.28125 0.36719,-0.191406 0.6914,-0.476562 0.9375,-0.875 l 0,1 1.0625,0 0,-3.75 c 0,-0.999995 -0.21876,-1.757807 -0.6875,-2.25 -0.46876,-0.492181 -1.17578,-0.718743 -2.125,-0.71875 z m 0.6875,3.40625 1.0625,0 0,0.25 c -1e-5,0.703128 -0.19922,1.26172 -0.5625,1.6875 -0.35937,0.421876 -0.8086,0.625001 -1.40625,0.625 -0.4336,1e-6 -0.77735,-0.08984 -1.03125,-0.3125 -0.25,-0.226562 -0.375,-0.554686 -0.375,-0.9375 0,-0.480466 0.16406,-0.800779 0.5,-1 0.33594,-0.199218 0.9414,-0.312497 1.8125,-0.3125 z"
       id="path3032"
       inkscape:connector-curvature="0" />
    <path
       style="font-size:12px;font-style:normal;font-weight:normal;line-height:125%;letter-spacing:0px;word-spacing:0px;fill:#000000;fill-opacity:1;stroke:none;font-family:Sans"
       d="m 134.30883,81.761644 0,9.125 1.09375,0 0,-1 c 0.22656,0.390626 0.5,0.683594 0.84375,0.875 0.34765,0.1875 0.76953,0.28125 1.25,0.28125 0.79687,0 1.4414,-0.304687 1.9375,-0.9375 0.5,-0.632811 0.75,-1.468747 0.75,-2.5 0,-1.031245 -0.25,-1.867183 -0.75,-2.5 -0.4961,-0.632807 -1.14063,-0.937493 -1.9375,-0.9375 -0.48047,7e-6 -0.90235,0.08985 -1.25,0.28125 -0.34375,0.187506 -0.61719,0.484381 -0.84375,0.875 l 0,-3.5625 -1.09375,0 z m 2.9375,3.3125 c 0.57031,5e-6 1.01953,0.203131 1.34375,0.65625 0.32812,0.449223 0.46875,1.082036 0.46875,1.875 0,0.792972 -0.14063,1.421877 -0.46875,1.875 -0.32422,0.44922 -0.77344,0.656251 -1.34375,0.65625 -0.57032,10e-7 -1.01563,-0.20703 -1.34375,-0.65625 -0.32422,-0.453123 -0.5,-1.082028 -0.5,-1.875 0,-0.792964 0.17578,-1.425777 0.5,-1.875 0.32812,-0.453119 0.77343,-0.656245 1.34375,-0.65625 z"
       id="path3034"
       inkscape:connector-curvature="0" />
    <path
       style="font-size:12px;font-style:normal;font-weight:normal;line-height:125%;letter-spacing:0px;word-spacing:0px;fill:#000000;fill-opacity:1;stroke:none;font-family:Sans"
       d="m 132.86742,26.355445 0,3.263672 3.26368,0 0,0.996094 -3.26368,0 0,3.263672 -0.98437,0 0,-3.263672 -3.26367,0 0,-0.996094 3.26367,0 0,-3.263672 0.98437,0"
       id="path3036"
       inkscape:connector-curvature="0" />
    <path
       style="font-size:12px;font-style:normal;font-weight:normal;line-height:125%;letter-spacing:0px;word-spacing:0px;fill:#000000;fill-opacity:1;stroke:none;font-family:Sans"
       d="m 133.23971,49.661428 1.18945,0 0,5.314453 c 0,0.937503 0.16992,1.613283 0.50977,2.027344 0.33984,0.410157 0.89062,0.615235 1.65234,0.615234 0.75781,10e-7 1.30664,-0.205077 1.64649,-0.615234 0.33983,-0.414061 0.50975,-1.089841 0.50976,-2.027344 l 0,-5.314453 1.18945,0 0,5.460938 c 0,1.140627 -0.28321,2.001954 -0.84961,2.583984 -0.5625,0.582031 -1.39453,0.873047 -2.49609,0.873047 -1.10547,0 -1.94141,-0.291016 -2.50781,-0.873047 -0.5625,-0.58203 -0.84375,-1.443357 -0.84375,-2.583984 l 0,-5.460938"
       id="path3038"
       inkscape:connector-curvature="0" />
  </g>
</svg>
