<?xml version="1.0" encoding="UTF-8" standalone="no"?>
<!-- Created with Inkscape (http://www.inkscape.org/) -->

<svg
   xmlns:dc="http://purl.org/dc/elements/1.1/"
   xmlns:cc="http://creativecommons.org/ns#"
   xmlns:rdf="http://www.w3.org/1999/02/22-rdf-syntax-ns#"
   xmlns:svg="http://www.w3.org/2000/svg"
   xmlns="http://www.w3.org/2000/svg"
   xmlns:sodipodi="http://sodipodi.sourceforge.net/DTD/sodipodi-0.dtd"
   xmlns:inkscape="http://www.inkscape.org/namespaces/inkscape"
   width="110"
   height="120"
   id="svg2"
   version="1.1"
   inkscape:version="0.48.0 r9654"
   sodipodi:docname="2011-(03)mar-25, 00.svg">
  <defs
     id="defs4" />
  <sodipodi:namedview
     id="base"
     pagecolor="#ffffff"
     bordercolor="#666666"
     borderopacity="1.0"
     inkscape:pageopacity="0.0"
     inkscape:pageshadow="2"
     inkscape:zoom="2"
     inkscape:cx="95.042289"
     inkscape:cy="-0.1693216"
     inkscape:document-units="px"
     inkscape:current-layer="layer1"
     showgrid="false"
     inkscape:window-width="1589"
     inkscape:window-height="1117"
     inkscape:window-x="1600"
     inkscape:window-y="27"
     inkscape:window-maximized="1"
     showguides="true"
     inkscape:guide-bbox="true" />
  <metadata
     id="metadata7">
    <rdf:RDF>
      <cc:Work
         rdf:about="">
        <dc:format>image/svg+xml</dc:format>
        <dc:type
           rdf:resource="http://purl.org/dc/dcmitype/StillImage" />
        <dc:title />
      </cc:Work>
    </rdf:RDF>
  </metadata>
  <g
     inkscape:label="Layer 1"
     inkscape:groupmode="layer"
     id="layer1">
    <rect
       style="fill:#0000ff;fill-rule:evenodd;stroke:#000000;stroke-width:1px;stroke-linecap:butt;stroke-linejoin:miter;stroke-opacity:1"
       id="rect3007"
       width="58"
       height="0"
       x="-332.76865"
       y="91.110023" />
    <rect
       style="fill:#0000ff;fill-rule:evenodd;stroke:#000000;stroke-width:1px;stroke-linecap:butt;stroke-linejoin:miter;stroke-opacity:1"
       id="rect3007-3"
       width="58"
       height="0"
       x="-269.32855"
       y="112.3216" />
    <path
       style="font-size:12px;font-style:normal;font-weight:normal;line-height:125%;letter-spacing:0px;word-spacing:0px;fill:#000000;fill-opacity:1;stroke:none;font-family:Sans"
       d="m 64.52235,4.0658922 1.183594,0 0,8.7480468 -1.183594,0 0,-8.7480468"
       id="path3025"
       inkscape:connector-curvature="0" />
    <path
       style="font-size:12px;font-style:normal;font-weight:normal;line-height:125%;letter-spacing:0px;word-spacing:0px;fill:#000000;fill-opacity:1;stroke:none;font-family:Sans"
       d="m 102.30658,60.463465 0,8.75 1.1875,0 0,-3.71875 1.28125,0 c 0.46875,4e-6 0.85547,0.121097 1.125,0.3125 0.27344,0.191409 0.55469,0.570316 0.84375,1.15625 l 1.125,2.25 1.25,0 -1.1875,-2.40625 c -0.24219,-0.492185 -0.47656,-0.874997 -0.71875,-1.15625 -0.23828,-0.281246 -0.49609,-0.44531 -0.75,-0.53125 0.48828,-0.14062 0.87109,-0.417964 1.125,-0.78125 0.25781,-0.363276 0.375,-0.824213 0.375,-1.375 0,-0.843743 -0.25781,-1.457023 -0.75,-1.875 -0.49219,-0.41796 -1.21875,-0.624991 -2.21875,-0.625 l -2.6875,0 z m 1.1875,0.96875 1.5,0 c 0.57031,8e-6 0.99219,0.144539 1.28125,0.40625 0.29297,0.25782 0.4375,0.613288 0.4375,1.125 0,0.511725 -0.14453,0.92188 -0.4375,1.1875 -0.28906,0.261723 -0.71094,0.375005 -1.28125,0.375 l -1.5,0 0,-3.09375 z"
       id="path3058"
       inkscape:connector-curvature="0" />
    <path
       style="font-size:12px;font-style:normal;font-weight:normal;line-height:125%;letter-spacing:0px;word-spacing:0px;fill:#000000;fill-opacity:1;stroke:none;font-family:Sans"
       d="m 1.5578279,39.355367 5.53125,0 0,0.996094 -4.347656,0 0,2.589844 4.166015,0 0,0.996093 -4.166015,0 0,3.169922 4.453125,0 0,0.996094 -5.636719,0 0,-8.748047"
       id="path3029"
       inkscape:connector-curvature="0" />
    <path
       style="font-size:26.00036621px;font-style:normal;font-weight:normal;line-height:125%;letter-spacing:0px;word-spacing:0px;baseline-shift:sub;fill:#000000;fill-opacity:1;stroke:none;font-family:Sans"
       d="m 8.94124,49.855944 1.256854,0 0,-4.338049 -1.367305,0.274222 0,-0.700791 1.359687,-0.274223 0.769347,0 0,5.038841 1.256854,0 0,0.64747 -3.275437,0 0,-0.64747"
       id="path3031"
       inkscape:connector-curvature="0" />
    <path
       style="font-size:12px;font-style:normal;font-weight:normal;line-height:125%;letter-spacing:0px;word-spacing:0px;fill:#000000;fill-opacity:1;stroke:none;font-family:Sans"
       d="m 2.3820177,90.620609 5.53125,0 0,0.996094 -4.347656,0 0,2.589847 4.166015,0 0,0.99609 -4.166015,0 0,3.16992 4.4531253,0 0,0.9961 -5.6367193,0 0,-8.748051"
       id="path3033"
       inkscape:connector-curvature="0" />
    <path
       style="font-size:26.00036621px;font-style:normal;font-weight:normal;line-height:125%;letter-spacing:0px;word-spacing:0px;baseline-shift:sub;fill:#000000;fill-opacity:1;stroke:none;font-family:Sans"
       d="m 10.294832,101.12119 2.685096,0 0,0.64747 -3.610597,0 0,-0.64747 c 0.291995,-0.30216 0.689363,-0.70714 1.192106,-1.21496 0.505278,-0.51036 0.822665,-0.83917 0.952162,-0.98644 0.24629,-0.27676 0.417679,-0.51036 0.514167,-0.70079 0.09902,-0.19297 0.148534,-0.38213 0.148538,-0.56749 -4e-6,-0.30215 -0.106646,-0.54844 -0.319927,-0.73888 -0.210748,-0.19043 -0.48624,-0.28564 -0.826476,-0.28565 -0.241217,1e-5 -0.496396,0.0419 -0.765538,0.12569 -0.266607,0.0838 -0.552255,0.21075 -0.856946,0.38086 l 0,-0.77696 c 0.309769,-0.12441 0.599226,-0.21836 0.868372,-0.28184 0.269142,-0.0635 0.515435,-0.0952 0.738877,-0.0952 0.589068,1e-5 1.058801,0.14727 1.4092,0.4418 0.350391,0.29454 0.525589,0.6881 0.525593,1.18068 -4e-6,0.2336 -0.04444,0.45577 -0.133303,0.66651 -0.08633,0.20821 -0.245026,0.45451 -0.47608,0.73888 -0.06348,0.0736 -0.26534,0.28692 -0.605575,0.63985 -0.340242,0.3504 -0.820131,0.84172 -1.439669,1.47395"
       id="path3035"
       inkscape:connector-curvature="0" />
    <path
       style="font-size:12px;font-style:normal;font-weight:normal;line-height:125%;letter-spacing:0px;word-spacing:0px;fill:#000000;fill-opacity:1;stroke:none;font-family:Sans"
       d="m 17.392042,84.597373 0,3.263672 3.263672,0 0,0.996094 -3.263672,0 0,3.263672 -0.984375,0 0,-3.263672 -3.263672,0 0,-0.996094 3.263672,0 0,-3.263672 0.984375,0"
       id="path3037"
       inkscape:connector-curvature="0" />
    <path
       style="font-size:12px;font-style:normal;font-weight:normal;line-height:125%;letter-spacing:0px;word-spacing:0px;fill:#000000;fill-opacity:1;stroke:none;font-family:Sans"
       d="m 16.821507,30.612497 0,3.263672 3.263672,0 0,0.996094 -3.263672,0 0,3.263672 -0.984375,0 0,-3.263672 -3.263672,0 0,-0.996094 3.263672,0 0,-3.263672 0.984375,0"
       id="path3037-3"
       inkscape:connector-curvature="0" />
    <path
       style="font-size:medium;font-style:normal;font-variant:normal;font-weight:normal;font-stretch:normal;text-indent:0;text-align:start;text-decoration:none;line-height:normal;letter-spacing:normal;word-spacing:normal;text-transform:none;direction:ltr;block-progression:tb;writing-mode:lr-tb;text-anchor:start;baseline-shift:baseline;color:#000000;fill:#000000;fill-opacity:1;stroke:none;stroke-width:1px;marker:none;visibility:visible;display:inline;overflow:visible;enable-background:accumulate;font-family:Sans;-inkscape-font-specification:Sans"
       d="m 22.0625,29.84375 0,24.9375 1,0 0,-24.9375 -1,0 z"
       id="path3081"
       inkscape:connector-curvature="0" />
    <path
       style="font-size:medium;font-style:normal;font-variant:normal;font-weight:normal;font-stretch:normal;text-indent:0;text-align:start;text-decoration:none;line-height:normal;letter-spacing:normal;word-spacing:normal;text-transform:none;direction:ltr;block-progression:tb;writing-mode:lr-tb;text-anchor:start;baseline-shift:baseline;color:#000000;fill:#000000;fill-opacity:1;stroke:none;stroke-width:1px;marker:none;visibility:visible;display:inline;overflow:visible;enable-background:accumulate;font-family:Sans;-inkscape-font-specification:Sans"
       d="m 22.0625,83.84375 0,24.9375 1,0 0,-24.9375 -1,0 z"
       id="path3083"
       inkscape:connector-curvature="0" />
    <path
       style="font-size:medium;font-style:normal;font-variant:normal;font-weight:normal;font-stretch:normal;text-indent:0;text-align:start;text-decoration:none;line-height:normal;letter-spacing:normal;word-spacing:normal;text-transform:none;direction:ltr;block-progression:tb;writing-mode:lr-tb;text-anchor:start;baseline-shift:baseline;color:#000000;fill:#000000;fill-opacity:1;stroke:none;stroke-width:1;marker:none;visibility:visible;display:inline;overflow:visible;enable-background:accumulate;font-family:Sans;-inkscape-font-specification:Sans"
       d="m 84.791054,52.3125 0,0.5 0,24.59375 0,0.5 0.5,0 13.59375,0 0.5,0 0,-0.5 0,-24.59375 0,-0.5 -0.5,0 -13.59375,0 -0.5,0 z m 1,1 12.59375,0 0,23.59375 -12.59375,0 0,-23.59375 z"
       id="path3879"
       inkscape:connector-curvature="0" />
    <path
       style="font-size:medium;font-style:normal;font-variant:normal;font-weight:normal;font-stretch:normal;text-indent:0;text-align:start;text-decoration:none;line-height:normal;letter-spacing:normal;word-spacing:normal;text-transform:none;direction:ltr;block-progression:tb;writing-mode:lr-tb;text-anchor:start;baseline-shift:baseline;color:#000000;fill:#000000;fill-opacity:1;stroke:none;stroke-width:1;marker:none;visibility:visible;display:inline;overflow:visible;enable-background:accumulate;font-family:Sans;-inkscape-font-specification:Sans"
       d="m 37.5,31 c -6.06921,0 -11,4.93079 -11,11 0,6.06921 4.93079,11 11,11 5.892594,0 10.630743,-4.674853 10.90625,-10.5 0.02213,-0.463928 0.01412,-0.845294 0,-1 C 48.130743,35.674853 43.392594,31 37.5,31 z m 0,1 c 5.52877,0 10,4.47123 10,10 0,5.52877 -4.47123,10 -10,10 -5.52877,0 -10,-4.47123 -10,-10 0,-5.52877 4.47123,-10 10,-10 z"
       id="path3883"
       inkscape:connector-curvature="0"
       sodipodi:nodetypes="sssccssssss" />
    <path
       id="path3887"
       d="m 37.5,85 c -6.06921,0 -11,4.93079 -11,11 0,6.06921 4.93079,11 11,11 5.892594,0 10.630743,-4.67485 10.90625,-10.5 0.01739,-0.451915 0.02715,-0.643959 0,-1 C 48.130743,89.674853 43.392594,85 37.5,85 z m 0,1 c 5.52877,0 10,4.47123 10,10 0,5.52877 -4.47123,10 -10,10 -5.52877,0 -10,-4.47123 -10,-10 0,-5.52877 4.47123,-10 10,-10 z"
       style="font-size:medium;font-style:normal;font-variant:normal;font-weight:normal;font-stretch:normal;text-indent:0;text-align:start;text-decoration:none;line-height:normal;letter-spacing:normal;word-spacing:normal;text-transform:none;direction:ltr;block-progression:tb;writing-mode:lr-tb;text-anchor:start;baseline-shift:baseline;color:#000000;fill:#000000;fill-opacity:1;stroke:none;stroke-width:1;marker:none;visibility:visible;display:inline;overflow:visible;enable-background:accumulate;font-family:Sans;-inkscape-font-specification:Sans"
       inkscape:connector-curvature="0"
       sodipodi:nodetypes="sssccssssss" />
    <path
       style="font-size:medium;font-style:normal;font-variant:normal;font-weight:normal;font-stretch:normal;text-indent:0;text-align:start;text-decoration:none;line-height:normal;letter-spacing:normal;word-spacing:normal;text-transform:none;direction:ltr;block-progression:tb;writing-mode:lr-tb;text-anchor:start;baseline-shift:baseline;color:#000000;fill:#000000;fill-opacity:1;stroke:none;stroke-width:1px;marker:none;visibility:visible;display:inline;overflow:visible;enable-background:accumulate;font-family:Sans;-inkscape-font-specification:Sans"
       d="m 36.8125,16.625 0,0.5 0,99.6875 0,0.5 0.5,0 54.84375,0 0.5,0 0,-0.5 0,-39.40625 -1,0 0,38.90625 -53.84375,0 0,-98.6875 53.84375,0 0,35.125 1,0 0,-35.625 0,-0.5 -0.5,0 -54.84375,0 -0.5,0 z"
       id="path3889" />
  </g>
</svg>
