<?xml version="1.0" encoding="UTF-8" standalone="no"?>
<!-- Created with Inkscape (http://www.inkscape.org/) -->

<svg
   xmlns:dc="http://purl.org/dc/elements/1.1/"
   xmlns:cc="http://creativecommons.org/ns#"
   xmlns:rdf="http://www.w3.org/1999/02/22-rdf-syntax-ns#"
   xmlns:svg="http://www.w3.org/2000/svg"
   xmlns="http://www.w3.org/2000/svg"
   xmlns:sodipodi="http://sodipodi.sourceforge.net/DTD/sodipodi-0.dtd"
   xmlns:inkscape="http://www.inkscape.org/namespaces/inkscape"
   width="125"
   height="70"
   id="svg2"
   version="1.1"
   inkscape:version="0.48.0 r9654"
   sodipodi:docname="2011-(03)mar-28, 06.svg">
  <defs
     id="defs4" />
  <sodipodi:namedview
     id="base"
     pagecolor="#ffffff"
     bordercolor="#666666"
     borderopacity="1.0"
     inkscape:pageopacity="0.0"
     inkscape:pageshadow="2"
     inkscape:zoom="2"
     inkscape:cx="-26.835655"
     inkscape:cy="96.721437"
     inkscape:document-units="px"
     inkscape:current-layer="layer1"
     showgrid="false"
     inkscape:window-width="1589"
     inkscape:window-height="1117"
     inkscape:window-x="1600"
     inkscape:window-y="27"
     inkscape:window-maximized="1"
     showguides="true"
     inkscape:guide-bbox="true" />
  <metadata
     id="metadata7">
    <rdf:RDF>
      <cc:Work
         rdf:about="">
        <dc:format>image/svg+xml</dc:format>
        <dc:type
           rdf:resource="http://purl.org/dc/dcmitype/StillImage" />
        <dc:title />
      </cc:Work>
    </rdf:RDF>
  </metadata>
  <g
     inkscape:label="Layer 1"
     inkscape:groupmode="layer"
     id="layer1">
    <rect
       style="fill:#0000ff;fill-rule:evenodd;stroke:#000000;stroke-width:1px;stroke-linecap:butt;stroke-linejoin:miter;stroke-opacity:1"
       id="rect3007"
       width="58"
       height="0"
       x="-450.49579"
       y="-4.8352985"
       transform="scale(1,-1)" />
    <rect
       style="fill:#0000ff;fill-rule:evenodd;stroke:#000000;stroke-width:1px;stroke-linecap:butt;stroke-linejoin:miter;stroke-opacity:1"
       id="rect3007-3"
       width="58"
       height="0"
       x="-387.05569"
       y="16.376291"
       transform="scale(1,-1)" />
    <path
       style="font-size:medium;font-style:normal;font-variant:normal;font-weight:normal;font-stretch:normal;text-indent:0;text-align:start;text-decoration:none;line-height:normal;letter-spacing:normal;word-spacing:normal;text-transform:none;direction:ltr;block-progression:tb;writing-mode:lr-tb;text-anchor:start;baseline-shift:baseline;color:#000000;fill:#000000;fill-opacity:1;stroke:none;stroke-width:1;marker:none;visibility:visible;display:inline;overflow:visible;enable-background:accumulate;font-family:Sans;-inkscape-font-specification:Sans"
       d="m 2.59375,6.15625 0,1 107.5,0 0,-1 -107.5,0 z"
       id="path3137"
       inkscape:connector-curvature="0" />
    <path
       style="font-size:12px;fill-rule:evenodd;stroke-width:0.625;stroke-linejoin:round"
       d="m 99.39638,2.2158673 12.01847,4.4194937 -12.01847,4.419494 c 1.92005,-2.609267 1.90899,-6.1791975 0,-8.8389877 z"
       id="path4437"
       inkscape:connector-curvature="0" />
    <path
       style="font-size:12px;font-style:normal;font-weight:normal;line-height:125%;letter-spacing:0px;word-spacing:0px;fill:#000000;fill-opacity:1;stroke:none;font-family:Sans"
       d="m 62.15625,15.6875 c -0.98047,9e-6 -1.730471,0.410164 -2.25,1.1875 -0.515626,0.773444 -0.78125,1.898443 -0.78125,3.375 0,1.472659 0.265625,2.597658 0.78125,3.375 0.519529,0.773437 1.26953,1.15625 2.25,1.15625 0.980464,0 1.734369,-0.382813 2.25,-1.15625 0.519525,-0.777342 0.781244,-1.902341 0.78125,-3.375 -6e-6,-1.476557 -0.261725,-2.601556 -0.78125,-3.375 -0.515631,-0.777336 -1.269536,-1.187491 -2.25,-1.1875 z m 0,0.9375 c 0.613277,8e-6 1.070307,0.304695 1.375,0.90625 0.308588,0.597662 0.468745,1.51563 0.46875,2.71875 -5e-6,1.199221 -0.160162,2.08594 -0.46875,2.6875 -0.304693,0.597658 -0.761723,0.906251 -1.375,0.90625 -0.609378,1e-6 -1.066408,-0.308592 -1.375,-0.90625 -0.30469,-0.60156 -0.468752,-1.488279 -0.46875,-2.6875 -2e-6,-1.20312 0.16406,-2.121088 0.46875,-2.71875 0.308592,-0.601555 0.765622,-0.906242 1.375,-0.90625 z"
       id="path4413"
       inkscape:connector-curvature="0" />
    <path
       style="font-size:12px;font-style:normal;font-weight:normal;line-height:125%;letter-spacing:0px;word-spacing:0px;fill:#000000;fill-opacity:1;stroke:none;font-family:Sans"
       d="m 68.96875,15.6875 c -0.519534,9e-6 -0.953126,0.199227 -1.3125,0.5625 -0.359376,0.363289 -0.53125,0.78907 -0.53125,1.3125 0,0.52735 0.179687,0.992194 0.53125,1.34375 0.351561,0.351568 0.785154,0.531255 1.3125,0.53125 0.523433,5e-6 0.953121,-0.207026 1.3125,-0.5625 0.363277,-0.359369 0.562495,-0.796869 0.5625,-1.3125 -5e-6,-0.257805 -0.03516,-0.496086 -0.125,-0.71875 C 70.6289,16.621102 70.492182,16.425789 70.3125,16.25 70.144526,16.070321 69.917965,15.93751 69.6875,15.84375 69.457028,15.74611 69.218747,15.687509 68.96875,15.6875 z m 0,0.78125 c 0.30859,8e-6 0.597652,0.09376 0.8125,0.3125 0.218745,0.218758 0.312495,0.472664 0.3125,0.78125 -5e-6,0.3086 -0.09766,0.597663 -0.3125,0.8125 -0.214848,0.210944 -0.500003,0.312506 -0.8125,0.3125 -0.312502,6e-6 -0.566408,-0.101556 -0.78125,-0.3125 -0.214845,-0.214837 -0.312501,-0.5039 -0.3125,-0.8125 -10e-7,-0.312493 0.09766,-0.566398 0.3125,-0.78125 0.214842,-0.218742 0.468747,-0.312492 0.78125,-0.3125 z"
       id="path4415"
       inkscape:connector-curvature="0" />
    <path
       style="font-size:medium;font-style:normal;font-variant:normal;font-weight:normal;font-stretch:normal;text-indent:0;text-align:start;text-decoration:none;line-height:normal;letter-spacing:normal;word-spacing:normal;text-transform:none;direction:ltr;block-progression:tb;writing-mode:lr-tb;text-anchor:start;baseline-shift:baseline;color:#000000;fill:#000000;fill-opacity:1;stroke:none;stroke-width:1;marker:none;visibility:visible;display:inline;overflow:visible;enable-background:accumulate;font-family:Sans;-inkscape-font-specification:Sans"
       d="m 3.09375,6.28125 -0.5,0.875 92.34375,54.96875 0.5,-0.84375 -92.34375,-55 z"
       id="path3139"
       inkscape:connector-curvature="0" />
    <path
       style="font-size:12px;fill-rule:evenodd;stroke-width:0.625;stroke-linejoin:round"
       d="m 88.280549,52.421658 8.064961,9.94645 -12.587429,-2.352046 c 2.984725,-1.259474 4.801774,-4.332397 4.522468,-7.594404 z"
       id="path4429"
       inkscape:connector-curvature="0" />
    <path
       style="font-size:medium;font-style:normal;font-variant:normal;font-weight:normal;font-stretch:normal;text-indent:0;text-align:start;text-decoration:none;line-height:normal;letter-spacing:normal;word-spacing:normal;text-transform:none;direction:ltr;block-progression:tb;writing-mode:lr-tb;text-anchor:start;baseline-shift:baseline;color:#000000;fill:#000000;fill-opacity:1;stroke:none;stroke-width:1;marker:none;visibility:visible;display:inline;overflow:visible;enable-background:accumulate;font-family:Sans;-inkscape-font-specification:Sans"
       d="m 45,6.25 0,0.5 c 0,7.416449 -1.948025,14.702167 -5.65625,21.125 l -0.25,0.4375 0.875,0.5 0.25,-0.4375 C 44.014717,21.800191 46,14.341935 46,6.75 l 0,-0.5 -1,0 z"
       id="path4359"
       inkscape:connector-curvature="0" />
    <path
       style="font-size:12px;font-style:normal;font-weight:normal;line-height:125%;letter-spacing:0px;word-spacing:0px;fill:#000000;fill-opacity:1;stroke:none;font-family:Sans"
       d="m 55.568888,19.892479 c 0.566401,0.121098 1.007807,0.373051 1.324219,0.755859 0.320306,0.382817 0.480462,0.855472 0.480468,1.417969 -6e-6,0.863283 -0.29688,1.531251 -0.890625,2.003906 -0.593755,0.472657 -1.437503,0.708985 -2.53125,0.708985 -0.36719,0 -0.746096,-0.03711 -1.136718,-0.111328 -0.38672,-0.07031 -0.78711,-0.177735 -1.201172,-0.322266 l 0,-1.142578 c 0.328124,0.191407 0.687499,0.335939 1.078125,0.433594 0.390622,0.09766 0.798825,0.146485 1.224609,0.146484 0.742183,10e-7 1.306636,-0.146483 1.69336,-0.439453 0.390619,-0.292967 0.585931,-0.718748 0.585937,-1.277344 -6e-6,-0.515622 -0.181646,-0.917965 -0.544922,-1.207031 -0.35938,-0.292965 -0.861331,-0.439449 -1.505859,-0.439453 l -1.019531,0 0,-0.972656 1.066406,0 c 0.582028,5e-6 1.02734,-0.11523 1.335937,-0.345704 0.308589,-0.234369 0.462885,-0.570306 0.462891,-1.007812 -6e-6,-0.449212 -0.160162,-0.792962 -0.480469,-1.03125 -0.316411,-0.24218 -0.771489,-0.363273 -1.365234,-0.363281 -0.324222,8e-6 -0.671878,0.03516 -1.042969,0.105468 -0.371096,0.07032 -0.779299,0.179696 -1.224609,0.328125 l 0,-1.054687 c 0.449216,-0.124991 0.869138,-0.218741 1.259765,-0.28125 0.394529,-0.06249 0.765623,-0.09374 1.113282,-0.09375 0.898432,9e-6 1.609369,0.205087 2.132812,0.615234 0.523432,0.406258 0.785151,0.957039 0.785156,1.652344 -5e-6,0.484381 -0.138677,0.894537 -0.416015,1.230469 -0.27735,0.332036 -0.671881,0.562505 -1.183594,0.691406"
       id="path4411"
       inkscape:connector-curvature="0" />
    <path
       style="font-size:12px;font-style:normal;font-weight:normal;line-height:125%;letter-spacing:0px;word-spacing:0px;fill:#000000;fill-opacity:1;stroke:none;font-family:Sans"
       d="m 113.99557,2.91954 1.18945,0 0,5.314453 c 0,0.937503 0.16992,1.613283 0.50977,2.027344 0.33984,0.410157 0.89062,0.615235 1.65234,0.615234 0.75781,10e-7 1.30664,-0.205077 1.64649,-0.615234 0.33983,-0.414061 0.50976,-1.089841 0.50976,-2.027344 l 0,-5.314453 1.18945,0 0,5.460938 c 0,1.140627 -0.28321,2.001954 -0.8496,2.583984 -0.56251,0.582031 -1.39454,0.873047 -2.4961,0.873047 -1.10547,0 -1.94141,-0.291016 -2.50781,-0.873047 -0.5625,-0.58203 -0.84375,-1.443357 -0.84375,-2.583984 l 0,-5.460938"
       id="path4418"
       inkscape:connector-curvature="0" />
    <path
       style="font-size:12px;font-style:normal;font-weight:normal;line-height:125%;letter-spacing:0px;word-spacing:0px;fill:#000000;fill-opacity:1;stroke:none;font-family:Sans"
       d="m 98.24556,58.488083 1.18359,0 0,8.748047 -1.18359,0 0,-8.748047"
       id="path4421"
       inkscape:connector-curvature="0" />
  </g>
</svg>
