<?xml version="1.0" encoding="UTF-8" standalone="no"?>
<!-- Created with Inkscape (http://www.inkscape.org/) -->

<svg
   xmlns:dc="http://purl.org/dc/elements/1.1/"
   xmlns:cc="http://creativecommons.org/ns#"
   xmlns:rdf="http://www.w3.org/1999/02/22-rdf-syntax-ns#"
   xmlns:svg="http://www.w3.org/2000/svg"
   xmlns="http://www.w3.org/2000/svg"
   xmlns:sodipodi="http://sodipodi.sourceforge.net/DTD/sodipodi-0.dtd"
   xmlns:inkscape="http://www.inkscape.org/namespaces/inkscape"
   width="130"
   height="85"
   id="svg2"
   version="1.1"
   inkscape:version="0.48.0 r9654"
   sodipodi:docname="2011-(03)mar-28, 07.svg">
  <defs
     id="defs4" />
  <sodipodi:namedview
     id="base"
     pagecolor="#ffffff"
     bordercolor="#666666"
     borderopacity="1.0"
     inkscape:pageopacity="0.0"
     inkscape:pageshadow="2"
     inkscape:zoom="1.4142136"
     inkscape:cx="-66.121444"
     inkscape:cy="-14.528408"
     inkscape:document-units="px"
     inkscape:current-layer="layer1"
     showgrid="false"
     inkscape:window-width="1589"
     inkscape:window-height="1117"
     inkscape:window-x="1600"
     inkscape:window-y="27"
     inkscape:window-maximized="1"
     showguides="true"
     inkscape:guide-bbox="true" />
  <metadata
     id="metadata7">
    <rdf:RDF>
      <cc:Work
         rdf:about="">
        <dc:format>image/svg+xml</dc:format>
        <dc:type
           rdf:resource="http://purl.org/dc/dcmitype/StillImage" />
        <dc:title />
      </cc:Work>
    </rdf:RDF>
  </metadata>
  <g
     inkscape:label="Layer 1"
     inkscape:groupmode="layer"
     id="layer1">
    <rect
       style="fill:#0000ff;fill-rule:evenodd;stroke:#000000;stroke-width:1px;stroke-linecap:butt;stroke-linejoin:miter;stroke-opacity:1"
       id="rect3007"
       width="58"
       height="0"
       x="-449.7887"
       y="-18.62388"
       transform="scale(1,-1)" />
    <rect
       style="fill:#0000ff;fill-rule:evenodd;stroke:#000000;stroke-width:1px;stroke-linecap:butt;stroke-linejoin:miter;stroke-opacity:1"
       id="rect3007-3"
       width="58"
       height="0"
       x="-386.3486"
       y="2.587709"
       transform="scale(1,-1)" />
    <path
       style="font-size:medium;font-style:normal;font-variant:normal;font-weight:normal;font-stretch:normal;text-indent:0;text-align:start;text-decoration:none;line-height:normal;letter-spacing:normal;word-spacing:normal;text-transform:none;direction:ltr;block-progression:tb;writing-mode:lr-tb;text-anchor:start;baseline-shift:baseline;color:#000000;fill:#000000;fill-opacity:1;stroke:none;stroke-width:1;marker:none;visibility:visible;display:inline;overflow:visible;enable-background:accumulate;font-family:Sans;-inkscape-font-specification:Sans"
       d="m 3.3008568,19.944832 0,1 107.5000032,0 0,-1 -107.5000032,0 z"
       id="path3137"
       inkscape:connector-curvature="0" />
    <path
       style="font-size:12px;fill-rule:evenodd;stroke-width:0.625;stroke-linejoin:round"
       d="m 100.10349,16.00445 12.01847,4.419493 -12.01847,4.419494 c 1.92005,-2.609267 1.90899,-6.179197 0,-8.838987 z"
       id="path4437"
       inkscape:connector-curvature="0" />
    <path
       style="font-size:12px;font-style:normal;font-weight:normal;line-height:125%;letter-spacing:0px;word-spacing:0px;fill:#000000;fill-opacity:1;stroke:none;font-family:Sans"
       d="m 62.863357,29.476082 c -0.98047,9e-6 -1.730471,0.410164 -2.25,1.1875 -0.515626,0.773444 -0.78125,1.898443 -0.78125,3.375 0,1.472659 0.265625,2.597658 0.78125,3.375 0.519529,0.773437 1.26953,1.15625 2.25,1.15625 0.980464,0 1.734369,-0.382813 2.25,-1.15625 0.519525,-0.777342 0.781244,-1.902341 0.78125,-3.375 -6e-6,-1.476557 -0.261725,-2.601556 -0.78125,-3.375 -0.515631,-0.777336 -1.269536,-1.187491 -2.25,-1.1875 z m 0,0.9375 c 0.613277,8e-6 1.070307,0.304695 1.375,0.90625 0.308588,0.597662 0.468745,1.51563 0.46875,2.71875 -5e-6,1.199221 -0.160162,2.08594 -0.46875,2.6875 -0.304693,0.597658 -0.761723,0.906251 -1.375,0.90625 -0.609378,1e-6 -1.066408,-0.308592 -1.375,-0.90625 -0.30469,-0.60156 -0.468752,-1.488279 -0.46875,-2.6875 -2e-6,-1.20312 0.16406,-2.121088 0.46875,-2.71875 0.308592,-0.601555 0.765622,-0.906242 1.375,-0.90625 z"
       id="path4413"
       inkscape:connector-curvature="0" />
    <path
       style="font-size:12px;font-style:normal;font-weight:normal;line-height:125%;letter-spacing:0px;word-spacing:0px;fill:#000000;fill-opacity:1;stroke:none;font-family:Sans"
       d="m 69.675857,29.476082 c -0.519534,9e-6 -0.953126,0.199227 -1.3125,0.5625 -0.359376,0.363289 -0.53125,0.78907 -0.53125,1.3125 0,0.52735 0.179687,0.992194 0.53125,1.34375 0.351561,0.351568 0.785154,0.531255 1.3125,0.53125 0.523433,5e-6 0.953121,-0.207026 1.3125,-0.5625 0.363277,-0.359369 0.562495,-0.796869 0.5625,-1.3125 -5e-6,-0.257805 -0.03516,-0.496086 -0.125,-0.71875 -0.08985,-0.222648 -0.226568,-0.417961 -0.40625,-0.59375 -0.167974,-0.179679 -0.394535,-0.31249 -0.625,-0.40625 -0.230472,-0.09764 -0.468753,-0.156241 -0.71875,-0.15625 z m 0,0.78125 c 0.30859,8e-6 0.597652,0.09376 0.8125,0.3125 0.218745,0.218758 0.312495,0.472664 0.3125,0.78125 -5e-6,0.3086 -0.09766,0.597663 -0.3125,0.8125 -0.214848,0.210944 -0.500003,0.312506 -0.8125,0.3125 -0.312502,6e-6 -0.566408,-0.101556 -0.78125,-0.3125 -0.214845,-0.214837 -0.312501,-0.5039 -0.3125,-0.8125 -10e-7,-0.312493 0.09766,-0.566398 0.3125,-0.78125 0.214842,-0.218742 0.468747,-0.312492 0.78125,-0.3125 z"
       id="path4415"
       inkscape:connector-curvature="0" />
    <path
       style="font-size:medium;font-style:normal;font-variant:normal;font-weight:normal;font-stretch:normal;text-indent:0;text-align:start;text-decoration:none;line-height:normal;letter-spacing:normal;word-spacing:normal;text-transform:none;direction:ltr;block-progression:tb;writing-mode:lr-tb;text-anchor:start;baseline-shift:baseline;color:#000000;fill:#000000;fill-opacity:1;stroke:none;stroke-width:1;marker:none;visibility:visible;display:inline;overflow:visible;enable-background:accumulate;font-family:Sans;-inkscape-font-specification:Sans"
       d="m 3.8008568,20.069832 -0.5,0.875 92.3437502,54.96875 0.5,-0.84375 -92.3437502,-55 z"
       id="path3139"
       inkscape:connector-curvature="0" />
    <path
       style="font-size:12px;fill-rule:evenodd;stroke-width:0.625;stroke-linejoin:round"
       d="m 88.987656,66.21024 8.064961,9.94645 -12.587429,-2.352046 c 2.984725,-1.259474 4.801774,-4.332397 4.522468,-7.594404 z"
       id="path4429"
       inkscape:connector-curvature="0" />
    <path
       style="font-size:medium;font-style:normal;font-variant:normal;font-weight:normal;font-stretch:normal;text-indent:0;text-align:start;text-decoration:none;line-height:normal;letter-spacing:normal;word-spacing:normal;text-transform:none;direction:ltr;block-progression:tb;writing-mode:lr-tb;text-anchor:start;baseline-shift:baseline;color:#000000;fill:#000000;fill-opacity:1;stroke:none;stroke-width:1;marker:none;visibility:visible;display:inline;overflow:visible;enable-background:accumulate;font-family:Sans;-inkscape-font-specification:Sans"
       d="m 45.707107,20.038582 0,0.5 c 0,7.416449 -1.948025,14.702167 -5.65625,21.125 l -0.25,0.4375 0.875,0.5 0.25,-0.4375 c 3.795967,-6.574809 5.78125,-14.033065 5.78125,-21.625 l 0,-0.5 -1,0 z"
       id="path4359"
       inkscape:connector-curvature="0" />
    <path
       style="font-size:12px;font-style:normal;font-weight:normal;line-height:125%;letter-spacing:0px;word-spacing:0px;fill:#000000;fill-opacity:1;stroke:none;font-family:Sans"
       d="m 56.275995,33.681061 c 0.566401,0.121098 1.007807,0.373051 1.324219,0.755859 0.320306,0.382817 0.480462,0.855472 0.480468,1.417969 -6e-6,0.863283 -0.29688,1.531251 -0.890625,2.003906 -0.593755,0.472657 -1.437503,0.708985 -2.53125,0.708985 -0.36719,0 -0.746096,-0.03711 -1.136718,-0.111328 -0.38672,-0.07031 -0.78711,-0.177735 -1.201172,-0.322266 l 0,-1.142578 c 0.328124,0.191407 0.687499,0.335939 1.078125,0.433594 0.390622,0.09766 0.798825,0.146485 1.224609,0.146484 0.742183,10e-7 1.306636,-0.146483 1.69336,-0.439453 0.390619,-0.292967 0.585931,-0.718748 0.585937,-1.277344 -6e-6,-0.515622 -0.181646,-0.917965 -0.544922,-1.207031 -0.35938,-0.292965 -0.861331,-0.439449 -1.505859,-0.439453 l -1.019531,0 0,-0.972656 1.066406,0 c 0.582028,5e-6 1.02734,-0.11523 1.335937,-0.345704 0.308589,-0.234369 0.462885,-0.570306 0.462891,-1.007812 -6e-6,-0.449212 -0.160162,-0.792962 -0.480469,-1.03125 -0.316411,-0.24218 -0.771489,-0.363273 -1.365234,-0.363281 -0.324222,8e-6 -0.671878,0.03516 -1.042969,0.105468 -0.371096,0.07032 -0.779299,0.179696 -1.224609,0.328125 l 0,-1.054687 c 0.449216,-0.124991 0.869138,-0.218741 1.259765,-0.28125 0.394529,-0.06249 0.765623,-0.09374 1.113282,-0.09375 0.898432,9e-6 1.609369,0.205087 2.132812,0.615234 0.523432,0.406258 0.785151,0.957039 0.785156,1.652344 -5e-6,0.484381 -0.138677,0.894537 -0.416015,1.230469 -0.27735,0.332036 -0.671881,0.562505 -1.183594,0.691406"
       id="path4411"
       inkscape:connector-curvature="0" />
    <path
       style="font-size:12px;font-style:normal;font-weight:normal;line-height:125%;letter-spacing:0px;word-spacing:0px;fill:#000000;fill-opacity:1;stroke:none;font-family:Sans"
       d="m 114.70268,16.708122 1.18945,0 0,5.314453 c 0,0.937503 0.16992,1.613283 0.50977,2.027344 0.33984,0.410157 0.89062,0.615235 1.65234,0.615234 0.75781,1e-6 1.30664,-0.205077 1.64649,-0.615234 0.33983,-0.414061 0.50976,-1.089841 0.50976,-2.027344 l 0,-5.314453 1.18945,0 0,5.460938 c 0,1.140627 -0.28321,2.001954 -0.8496,2.583984 -0.56251,0.582031 -1.39454,0.873047 -2.4961,0.873047 -1.10547,0 -1.94141,-0.291016 -2.50781,-0.873047 -0.5625,-0.58203 -0.84375,-1.443357 -0.84375,-2.583984 l 0,-5.460938"
       id="path4418"
       inkscape:connector-curvature="0" />
    <path
       style="font-size:12px;font-style:normal;font-weight:normal;line-height:125%;letter-spacing:0px;word-spacing:0px;fill:#000000;fill-opacity:1;stroke:none;font-family:Sans"
       d="m 98.952667,74.397985 1.183593,0 0,8.748047 -1.183593,0 0,-8.748047"
       id="path4421"
       inkscape:connector-curvature="0" />
    <path
       style="font-size:medium;font-style:normal;font-variant:normal;font-weight:normal;font-stretch:normal;text-indent:0;text-align:start;text-decoration:none;line-height:normal;letter-spacing:normal;word-spacing:normal;text-transform:none;direction:ltr;block-progression:tb;writing-mode:lr-tb;text-anchor:start;baseline-shift:baseline;color:#000000;fill:#000000;fill-opacity:1;stroke:none;stroke-width:1;marker:none;visibility:visible;display:inline;overflow:visible;enable-background:accumulate;font-family:Sans;-inkscape-font-specification:Sans"
       d="m 96.207107,21.694832 1,0 0,-1 -1,0 z"
       id="path4456"
       inkscape:connector-curvature="0" />
    <path
       style="font-size:medium;font-style:normal;font-variant:normal;font-weight:normal;font-stretch:normal;text-indent:0;text-align:start;text-decoration:none;line-height:normal;letter-spacing:normal;word-spacing:normal;text-transform:none;direction:ltr;block-progression:tb;writing-mode:lr-tb;text-anchor:start;baseline-shift:baseline;color:#000000;fill:#000000;fill-opacity:1;stroke:none;stroke-width:1;marker:none;visibility:visible;display:inline;overflow:visible;enable-background:accumulate;font-family:Sans;-inkscape-font-specification:Sans"
       d="m 96.207107,24.694832 1,0 0,-1 -1,0 z"
       id="path4454"
       inkscape:connector-curvature="0" />
    <path
       style="font-size:medium;font-style:normal;font-variant:normal;font-weight:normal;font-stretch:normal;text-indent:0;text-align:start;text-decoration:none;line-height:normal;letter-spacing:normal;word-spacing:normal;text-transform:none;direction:ltr;block-progression:tb;writing-mode:lr-tb;text-anchor:start;baseline-shift:baseline;color:#000000;fill:#000000;fill-opacity:1;stroke:none;stroke-width:1;marker:none;visibility:visible;display:inline;overflow:visible;enable-background:accumulate;font-family:Sans;-inkscape-font-specification:Sans"
       d="m 96.207107,27.694832 1,0 0,-1 -1,0 z"
       id="path4452"
       inkscape:connector-curvature="0" />
    <path
       style="font-size:medium;font-style:normal;font-variant:normal;font-weight:normal;font-stretch:normal;text-indent:0;text-align:start;text-decoration:none;line-height:normal;letter-spacing:normal;word-spacing:normal;text-transform:none;direction:ltr;block-progression:tb;writing-mode:lr-tb;text-anchor:start;baseline-shift:baseline;color:#000000;fill:#000000;fill-opacity:1;stroke:none;stroke-width:1;marker:none;visibility:visible;display:inline;overflow:visible;enable-background:accumulate;font-family:Sans;-inkscape-font-specification:Sans"
       d="m 96.207107,30.694832 1,0 0,-1 -1,0 z"
       id="path4450"
       inkscape:connector-curvature="0" />
    <path
       style="font-size:medium;font-style:normal;font-variant:normal;font-weight:normal;font-stretch:normal;text-indent:0;text-align:start;text-decoration:none;line-height:normal;letter-spacing:normal;word-spacing:normal;text-transform:none;direction:ltr;block-progression:tb;writing-mode:lr-tb;text-anchor:start;baseline-shift:baseline;color:#000000;fill:#000000;fill-opacity:1;stroke:none;stroke-width:1;marker:none;visibility:visible;display:inline;overflow:visible;enable-background:accumulate;font-family:Sans;-inkscape-font-specification:Sans"
       d="m 96.207107,33.694832 1,0 0,-1 -1,0 z"
       id="path4448"
       inkscape:connector-curvature="0" />
    <path
       style="font-size:medium;font-style:normal;font-variant:normal;font-weight:normal;font-stretch:normal;text-indent:0;text-align:start;text-decoration:none;line-height:normal;letter-spacing:normal;word-spacing:normal;text-transform:none;direction:ltr;block-progression:tb;writing-mode:lr-tb;text-anchor:start;baseline-shift:baseline;color:#000000;fill:#000000;fill-opacity:1;stroke:none;stroke-width:1;marker:none;visibility:visible;display:inline;overflow:visible;enable-background:accumulate;font-family:Sans;-inkscape-font-specification:Sans"
       d="m 96.207107,36.694832 1,0 0,-1 -1,0 z"
       id="path4446"
       inkscape:connector-curvature="0" />
    <path
       style="font-size:medium;font-style:normal;font-variant:normal;font-weight:normal;font-stretch:normal;text-indent:0;text-align:start;text-decoration:none;line-height:normal;letter-spacing:normal;word-spacing:normal;text-transform:none;direction:ltr;block-progression:tb;writing-mode:lr-tb;text-anchor:start;baseline-shift:baseline;color:#000000;fill:#000000;fill-opacity:1;stroke:none;stroke-width:1;marker:none;visibility:visible;display:inline;overflow:visible;enable-background:accumulate;font-family:Sans;-inkscape-font-specification:Sans"
       d="m 96.207107,39.694832 1,0 0,-1 -1,0 z"
       id="path4444"
       inkscape:connector-curvature="0" />
    <path
       style="font-size:medium;font-style:normal;font-variant:normal;font-weight:normal;font-stretch:normal;text-indent:0;text-align:start;text-decoration:none;line-height:normal;letter-spacing:normal;word-spacing:normal;text-transform:none;direction:ltr;block-progression:tb;writing-mode:lr-tb;text-anchor:start;baseline-shift:baseline;color:#000000;fill:#000000;fill-opacity:1;stroke:none;stroke-width:1;marker:none;visibility:visible;display:inline;overflow:visible;enable-background:accumulate;font-family:Sans;-inkscape-font-specification:Sans"
       d="m 96.207107,42.694832 1,0 0,-1 -1,0 z"
       id="path4442"
       inkscape:connector-curvature="0" />
    <path
       style="font-size:medium;font-style:normal;font-variant:normal;font-weight:normal;font-stretch:normal;text-indent:0;text-align:start;text-decoration:none;line-height:normal;letter-spacing:normal;word-spacing:normal;text-transform:none;direction:ltr;block-progression:tb;writing-mode:lr-tb;text-anchor:start;baseline-shift:baseline;color:#000000;fill:#000000;fill-opacity:1;stroke:none;stroke-width:1;marker:none;visibility:visible;display:inline;overflow:visible;enable-background:accumulate;font-family:Sans;-inkscape-font-specification:Sans"
       d="m 96.207107,45.694832 1,0 0,-1 -1,0 z"
       id="path4440"
       inkscape:connector-curvature="0" />
    <path
       style="font-size:medium;font-style:normal;font-variant:normal;font-weight:normal;font-stretch:normal;text-indent:0;text-align:start;text-decoration:none;line-height:normal;letter-spacing:normal;word-spacing:normal;text-transform:none;direction:ltr;block-progression:tb;writing-mode:lr-tb;text-anchor:start;baseline-shift:baseline;color:#000000;fill:#000000;fill-opacity:1;stroke:none;stroke-width:1;marker:none;visibility:visible;display:inline;overflow:visible;enable-background:accumulate;font-family:Sans;-inkscape-font-specification:Sans"
       d="m 96.207107,48.694832 1,0 0,-1 -1,0 z"
       id="path4438"
       inkscape:connector-curvature="0" />
    <path
       style="font-size:medium;font-style:normal;font-variant:normal;font-weight:normal;font-stretch:normal;text-indent:0;text-align:start;text-decoration:none;line-height:normal;letter-spacing:normal;word-spacing:normal;text-transform:none;direction:ltr;block-progression:tb;writing-mode:lr-tb;text-anchor:start;baseline-shift:baseline;color:#000000;fill:#000000;fill-opacity:1;stroke:none;stroke-width:1;marker:none;visibility:visible;display:inline;overflow:visible;enable-background:accumulate;font-family:Sans;-inkscape-font-specification:Sans"
       d="m 96.207107,51.694832 1,0 0,-1 -1,0 z"
       id="path4436"
       inkscape:connector-curvature="0" />
    <path
       style="font-size:medium;font-style:normal;font-variant:normal;font-weight:normal;font-stretch:normal;text-indent:0;text-align:start;text-decoration:none;line-height:normal;letter-spacing:normal;word-spacing:normal;text-transform:none;direction:ltr;block-progression:tb;writing-mode:lr-tb;text-anchor:start;baseline-shift:baseline;color:#000000;fill:#000000;fill-opacity:1;stroke:none;stroke-width:1;marker:none;visibility:visible;display:inline;overflow:visible;enable-background:accumulate;font-family:Sans;-inkscape-font-specification:Sans"
       d="m 96.207107,54.694832 1,0 0,-1 -1,0 z"
       id="path4434"
       inkscape:connector-curvature="0" />
    <path
       style="font-size:medium;font-style:normal;font-variant:normal;font-weight:normal;font-stretch:normal;text-indent:0;text-align:start;text-decoration:none;line-height:normal;letter-spacing:normal;word-spacing:normal;text-transform:none;direction:ltr;block-progression:tb;writing-mode:lr-tb;text-anchor:start;baseline-shift:baseline;color:#000000;fill:#000000;fill-opacity:1;stroke:none;stroke-width:1;marker:none;visibility:visible;display:inline;overflow:visible;enable-background:accumulate;font-family:Sans;-inkscape-font-specification:Sans"
       d="m 96.207107,57.694832 1,0 0,-1 -1,0 z"
       id="path4432"
       inkscape:connector-curvature="0" />
    <path
       style="font-size:medium;font-style:normal;font-variant:normal;font-weight:normal;font-stretch:normal;text-indent:0;text-align:start;text-decoration:none;line-height:normal;letter-spacing:normal;word-spacing:normal;text-transform:none;direction:ltr;block-progression:tb;writing-mode:lr-tb;text-anchor:start;baseline-shift:baseline;color:#000000;fill:#000000;fill-opacity:1;stroke:none;stroke-width:1;marker:none;visibility:visible;display:inline;overflow:visible;enable-background:accumulate;font-family:Sans;-inkscape-font-specification:Sans"
       d="m 96.207107,60.694832 1,0 0,-1 -1,0 z"
       id="path4430"
       inkscape:connector-curvature="0" />
    <path
       style="font-size:medium;font-style:normal;font-variant:normal;font-weight:normal;font-stretch:normal;text-indent:0;text-align:start;text-decoration:none;line-height:normal;letter-spacing:normal;word-spacing:normal;text-transform:none;direction:ltr;block-progression:tb;writing-mode:lr-tb;text-anchor:start;baseline-shift:baseline;color:#000000;fill:#000000;fill-opacity:1;stroke:none;stroke-width:1;marker:none;visibility:visible;display:inline;overflow:visible;enable-background:accumulate;font-family:Sans;-inkscape-font-specification:Sans"
       d="m 96.207107,63.694832 1,0 0,-1 -1,0 z"
       id="path4428"
       inkscape:connector-curvature="0" />
    <path
       style="font-size:medium;font-style:normal;font-variant:normal;font-weight:normal;font-stretch:normal;text-indent:0;text-align:start;text-decoration:none;line-height:normal;letter-spacing:normal;word-spacing:normal;text-transform:none;direction:ltr;block-progression:tb;writing-mode:lr-tb;text-anchor:start;baseline-shift:baseline;color:#000000;fill:#000000;fill-opacity:1;stroke:none;stroke-width:1;marker:none;visibility:visible;display:inline;overflow:visible;enable-background:accumulate;font-family:Sans;-inkscape-font-specification:Sans"
       d="m 96.207107,66.694832 1,0 0,-1 -1,0 z"
       id="path4426"
       inkscape:connector-curvature="0" />
    <path
       style="font-size:medium;font-style:normal;font-variant:normal;font-weight:normal;font-stretch:normal;text-indent:0;text-align:start;text-decoration:none;line-height:normal;letter-spacing:normal;word-spacing:normal;text-transform:none;direction:ltr;block-progression:tb;writing-mode:lr-tb;text-anchor:start;baseline-shift:baseline;color:#000000;fill:#000000;fill-opacity:1;stroke:none;stroke-width:1;marker:none;visibility:visible;display:inline;overflow:visible;enable-background:accumulate;font-family:Sans;-inkscape-font-specification:Sans"
       d="m 96.207107,69.694832 1,0 0,-1 -1,0 z"
       id="path4424"
       inkscape:connector-curvature="0" />
    <path
       style="font-size:medium;font-style:normal;font-variant:normal;font-weight:normal;font-stretch:normal;text-indent:0;text-align:start;text-decoration:none;line-height:normal;letter-spacing:normal;word-spacing:normal;text-transform:none;direction:ltr;block-progression:tb;writing-mode:lr-tb;text-anchor:start;baseline-shift:baseline;color:#000000;fill:#000000;fill-opacity:1;stroke:none;stroke-width:1;marker:none;visibility:visible;display:inline;overflow:visible;enable-background:accumulate;font-family:Sans;-inkscape-font-specification:Sans"
       d="m 96.207107,72.694832 1,0 0,-1 -1,0 z"
       id="path4422"
       inkscape:connector-curvature="0" />
    <path
       style="font-size:medium;font-style:normal;font-variant:normal;font-weight:normal;font-stretch:normal;text-indent:0;text-align:start;text-decoration:none;line-height:normal;letter-spacing:normal;word-spacing:normal;text-transform:none;direction:ltr;block-progression:tb;writing-mode:lr-tb;text-anchor:start;baseline-shift:baseline;color:#000000;fill:#000000;fill-opacity:1;stroke:none;stroke-width:1;marker:none;visibility:visible;display:inline;overflow:visible;enable-background:accumulate;font-family:Sans;-inkscape-font-specification:Sans"
       d="m 96.207107,74.788582 1,0 0,-0.09375 -1,0 z"
       id="path2994"
       inkscape:connector-curvature="0" />
    <path
       style="font-size:12px;fill-rule:evenodd;stroke-width:0.625;stroke-linejoin:round"
       d="M 101.13396,64.082524 96.714466,76.100989 92.294972,64.082524 c 2.609267,1.920048 6.179198,1.908985 8.838988,0 z"
       id="path4406"
       inkscape:connector-curvature="0" />
    <path
       style="font-size:medium;font-style:normal;font-variant:normal;font-weight:normal;font-stretch:normal;text-indent:0;text-align:start;text-decoration:none;line-height:normal;letter-spacing:normal;word-spacing:normal;text-transform:none;direction:ltr;block-progression:tb;writing-mode:lr-tb;text-anchor:start;baseline-shift:baseline;color:#000000;fill:#000000;fill-opacity:1;stroke:none;stroke-width:1px;marker:none;visibility:visible;display:inline;overflow:visible;enable-background:accumulate;font-family:Sans;-inkscape-font-specification:Sans"
       d="m 88.207107,19.913582 0,1 8.125,0 0,-1 -8.125,0 z"
       id="path4208"
       inkscape:connector-curvature="0" />
    <path
       style="font-size:12px;fill-rule:evenodd;stroke-width:0.625;stroke-linejoin:round"
       d="m 85.652852,15.977028 12.018465,4.419494 -12.018465,4.419493 c 1.920048,-2.609267 1.908985,-6.179197 0,-8.838987 z"
       id="path4398"
       inkscape:connector-curvature="0" />
    <path
       style="font-size:12px;font-style:normal;font-weight:normal;line-height:125%;letter-spacing:0px;word-spacing:0px;fill:#000000;fill-opacity:1;stroke:none;font-family:Sans"
       d="m 104.06069,64.733758 1.1836,0 0,8.748047 -1.1836,0 0,-8.748047"
       id="path4507" />
    <path
       style="font-size:7.80010986px;font-style:normal;font-weight:normal;line-height:125%;letter-spacing:0px;word-spacing:0px;baseline-shift:sub;fill:#000000;fill-opacity:1;stroke:none;font-family:Sans"
       d="m 109.6289,72.271207 c -0.0787,-0.0457 -0.16504,-0.07871 -0.25898,-0.09902 -0.0914,-0.02285 -0.19298,-0.03427 -0.3047,-0.03428 -0.3961,3e-6 -0.70079,0.129497 -0.91407,0.388482 -0.21075,0.256452 -0.31612,0.62589 -0.31612,1.108316 l 0,2.247102 -0.7046,0 0,-4.265685 0.7046,0 0,0.662705 c 0.14727,-0.258985 0.33897,-0.450686 0.57511,-0.575106 0.23613,-0.126951 0.52305,-0.190428 0.86075,-0.190433 0.0482,5e-6 0.10156,0.0038 0.15996,0.01143 0.0584,0.0051 0.12315,0.01397 0.19424,0.02666 l 0.004,0.719834"
       id="path4509" />
    <path
       style="font-size:7.80010986px;font-style:normal;font-weight:normal;line-height:125%;letter-spacing:0px;word-spacing:0px;baseline-shift:sub;fill:#000000;fill-opacity:1;stroke:none;font-family:Sans"
       d="M 112 71.5 C 111.36015 71.500005 110.84707 71.713671 110.46875 72.125 C 110.09296 72.533799 109.90625 73.083 109.90625 73.78125 C 109.90625 74.456651 110.1039 75.010151 110.5 75.40625 C 110.89863 75.802349 111.44452 76 112.125 76 C 112.39668 76 112.64218 75.96211 112.90625 75.90625 C 113.17031 75.850389 113.43613 75.762892 113.6875 75.65625 L 113.6875 75 C 113.43867 75.132034 113.19141 75.24648 112.9375 75.3125 C 112.68613 75.37851 112.42539 75.40625 112.15625 75.40625 C 111.69159 75.40625 111.32403 75.282621 111.0625 75.03125 C 110.80351 74.777341 110.6555 74.38868 110.625 73.90625 L 113.84375 73.90625 L 113.84375 73.5625 C 113.84375 72.927728 113.67891 72.430673 113.34375 72.0625 C 113.01113 71.691796 112.57384 71.500005 112 71.5 z M 112 72.09375 C 112.34532 72.093754 112.63554 72.208985 112.84375 72.4375 C 113.05449 72.666022 113.15125 72.991599 113.15625 73.375 L 110.65625 73.375 C 110.6918 72.973826 110.8289 72.658405 111.0625 72.4375 C 111.29863 72.216602 111.60898 72.093754 112 72.09375 z "
       id="path4535" />
    <path
       style="font-size:7.80010986px;font-style:normal;font-weight:normal;line-height:125%;letter-spacing:0px;word-spacing:0px;baseline-shift:sub;fill:#000000;fill-opacity:1;stroke:none;font-family:Sans"
       d="M 116.5 71.5 C 116.27148 71.5 116.02247 71.54297 115.78125 71.59375 C 115.54004 71.641998 115.31895 71.71348 115.0625 71.8125 L 115.0625 72.46875 C 115.27578 72.351955 115.48769 72.2459 115.71875 72.1875 C 115.94981 72.1291 116.19374 72.093754 116.4375 72.09375 C 116.8209 72.093754 117.10175 72.197267 117.3125 72.375 C 117.52578 72.550201 117.625 72.802537 117.625 73.125 L 117.625 73.1875 L 116.65625 73.1875 C 116.01893 73.187503 115.54121 73.31875 115.21875 73.5625 C 114.89882 73.806256 114.75 74.145112 114.75 74.625 C 114.75 75.036335 114.86855 75.378708 115.125 75.625 C 115.38399 75.868753 115.71953 76 116.15625 76 C 116.50157 76 116.79257 75.934376 117.03125 75.8125 C 117.26992 75.688084 117.46503 75.477738 117.625 75.21875 L 117.625 75.875 L 118.34375 75.875 L 118.34375 73.4375 C 118.34375 72.787494 118.17969 72.31993 117.875 72 C 117.57031 71.680078 117.117 71.500005 116.5 71.5 z M 116.9375 73.75 L 117.625 73.75 L 117.625 73.90625 C 117.625 74.363289 117.51739 74.72324 117.28125 75 C 117.04766 75.274223 116.73223 75.406251 116.34375 75.40625 C 116.0619 75.406251 115.85254 75.332229 115.6875 75.1875 C 115.52495 75.040233 115.4375 74.842583 115.4375 74.59375 C 115.4375 74.281443 115.53164 74.066995 115.75 73.9375 C 115.96837 73.808009 116.37128 73.750002 116.9375 73.75 z "
       id="path4513" />
    <path
       style="font-size:7.80010986px;font-style:normal;font-weight:normal;line-height:125%;letter-spacing:0px;word-spacing:0px;baseline-shift:sub;fill:#000000;fill-opacity:1;stroke:none;font-family:Sans"
       d="m 119.75991,69.95555 0.7046,0 0,3.500147 2.09094,-1.839577 0.89503,0 -2.26233,1.995731 2.35755,2.269954 -0.91407,0 -2.16712,-2.08333 0,2.08333 -0.7046,0 0,-5.926255"
       id="path4515" />
    <path
       style="font-size:7.80010986px;font-style:normal;font-weight:normal;line-height:125%;letter-spacing:0px;word-spacing:0px;baseline-shift:sub;fill:#000000;fill-opacity:1;stroke:none;font-family:Sans"
       d="m 125.00441,70.40497 0,1.21115 1.44348,0 0,0.544637 -1.44348,0 0,2.315657 c 0,0.347858 0.047,0.571298 0.14092,0.670322 0.0965,0.09903 0.29073,0.148538 0.58273,0.148537 l 0.71983,0 0,0.586532 -0.71983,0 c -0.54083,0 -0.91408,-0.100294 -1.11975,-0.300883 -0.20566,-0.203127 -0.3085,-0.571296 -0.3085,-1.104508 l 0,-2.315657 -0.51416,0 0,-0.544637 0.51416,0 0,-1.21115 0.7046,0"
       id="path4517" />
    <path
       style="font-size:12px;font-style:normal;font-weight:normal;line-height:125%;letter-spacing:0px;word-spacing:0px;fill:#000000;fill-opacity:1;stroke:none;font-family:Sans"
       d="m 82.846232,2.6666859 1.183593,0 0,8.7480471 -1.183593,0 0,-8.7480471"
       id="path4554" />
    <path
       style="font-size:7.80010986px;font-style:normal;font-weight:normal;line-height:125%;letter-spacing:0px;word-spacing:0px;baseline-shift:sub;fill:#000000;fill-opacity:1;stroke:none;font-family:Sans"
       d="M 87.4375 9.4375 C 87.208979 9.4375 86.991213 9.48047 86.75 9.53125 C 86.508784 9.579498 86.256448 9.65098 86 9.75 L 86 10.40625 C 86.213283 10.289455 86.42519 10.1834 86.65625 10.125 C 86.887306 10.0666 87.131244 10.031254 87.375 10.03125 C 87.758401 10.031254 88.039252 10.134767 88.25 10.3125 C 88.463281 10.487701 88.593747 10.740037 88.59375 11.0625 L 88.59375 11.125 L 87.59375 11.125 C 86.956435 11.125003 86.478714 11.25625 86.15625 11.5 C 85.836323 11.743756 85.6875 12.082612 85.6875 12.5625 C 85.6875 12.973835 85.80605 13.316208 86.0625 13.5625 C 86.321486 13.806253 86.657024 13.9375 87.09375 13.9375 C 87.439065 13.9375 87.730072 13.871876 87.96875 13.75 C 88.207422 13.625584 88.433784 13.415238 88.59375 13.15625 L 88.59375 13.8125 L 89.28125 13.8125 L 89.28125 11.375 C 89.281245 10.724994 89.117188 10.25743 88.8125 9.9375 C 88.507805 9.617578 88.054498 9.437505 87.4375 9.4375 z M 87.875 11.65625 L 88.59375 11.65625 L 88.59375 11.8125 C 88.593747 12.269539 88.454883 12.66074 88.21875 12.9375 C 87.98515 13.211723 87.669729 13.343751 87.28125 13.34375 C 86.999408 13.343751 86.790039 13.269729 86.625 13.125 C 86.462496 12.977733 86.374999 12.780083 86.375 12.53125 C 86.374999 12.218943 86.500387 12.004495 86.71875 11.875 C 86.937111 11.745509 87.30878 11.656252 87.875 11.65625 z "
       id="path4556" />
    <path
       style="font-size:7.80010986px;font-style:normal;font-weight:normal;line-height:125%;letter-spacing:0px;word-spacing:0px;baseline-shift:sub;fill:#000000;fill-opacity:1;stroke:none;font-family:Sans"
       d="m 90.699629,7.8884778 0.7046,0 0,3.5001472 2.090947,-1.8395772 0.895032,0 -2.262336,1.9957312 2.357552,2.269954 -0.914075,0 -2.16712,-2.08333 0,2.08333 -0.7046,0 0,-5.9262552"
       id="path4558" />
    <path
       style="font-size:7.80010986px;font-style:normal;font-weight:normal;line-height:125%;letter-spacing:0px;word-spacing:0px;baseline-shift:sub;fill:#000000;fill-opacity:1;stroke:none;font-family:Sans"
       d="m 95.944137,8.3378978 0,1.21115 1.443477,0 0,0.5446372 -1.443477,0 0,2.315657 c -10e-7,0.347858 0.04697,0.571298 0.14092,0.670322 0.09648,0.09903 0.290724,0.148538 0.582723,0.148537 l 0.719834,0 0,0.586532 -0.719834,0 c -0.54083,0 -0.914077,-0.100294 -1.119743,-0.300883 -0.205667,-0.203127 -0.308501,-0.571296 -0.3085,-1.104508 l 0,-2.315657 -0.514168,0 0,-0.5446372 0.514168,0 0,-1.21115 0.7046,0"
       id="path4560" />
  </g>
</svg>
