<?xml version="1.0" encoding="UTF-8" standalone="no"?>
<!-- Created with Inkscape (http://www.inkscape.org/) -->

<svg
   xmlns:dc="http://purl.org/dc/elements/1.1/"
   xmlns:cc="http://creativecommons.org/ns#"
   xmlns:rdf="http://www.w3.org/1999/02/22-rdf-syntax-ns#"
   xmlns:svg="http://www.w3.org/2000/svg"
   xmlns="http://www.w3.org/2000/svg"
   xmlns:sodipodi="http://sodipodi.sourceforge.net/DTD/sodipodi-0.dtd"
   xmlns:inkscape="http://www.inkscape.org/namespaces/inkscape"
   width="140"
   height="260"
   id="svg2"
   version="1.1"
   inkscape:version="0.48.0 r9654"
   sodipodi:docname="2011-(04)apr-08, 17.svg">
  <defs
     id="defs4" />
  <sodipodi:namedview
     id="base"
     pagecolor="#ffffff"
     bordercolor="#666666"
     borderopacity="1.0"
     inkscape:pageopacity="0.0"
     inkscape:pageshadow="2"
     inkscape:zoom="2"
     inkscape:cx="161.88474"
     inkscape:cy="183.37097"
     inkscape:document-units="px"
     inkscape:current-layer="layer1"
     showgrid="false"
     inkscape:window-width="1589"
     inkscape:window-height="1117"
     inkscape:window-x="1600"
     inkscape:window-y="27"
     inkscape:window-maximized="1"
     showguides="true"
     inkscape:guide-bbox="true" />
  <metadata
     id="metadata7">
    <rdf:RDF>
      <cc:Work
         rdf:about="">
        <dc:format>image/svg+xml</dc:format>
        <dc:type
           rdf:resource="http://purl.org/dc/dcmitype/StillImage" />
        <dc:title />
      </cc:Work>
    </rdf:RDF>
  </metadata>
  <g
     inkscape:label="Layer 1"
     inkscape:groupmode="layer"
     id="layer1">
    <rect
       style="fill:#0000ff;fill-rule:evenodd;stroke:#000000;stroke-width:1px;stroke-linecap:butt;stroke-linejoin:miter;stroke-opacity:1"
       id="rect3007"
       width="58"
       height="0"
       x="-440.75311"
       y="-19.32794"
       transform="scale(1,-1)" />
    <rect
       style="fill:#0000ff;fill-rule:evenodd;stroke:#000000;stroke-width:1px;stroke-linecap:butt;stroke-linejoin:miter;stroke-opacity:1"
       id="rect3007-3"
       width="58"
       height="0"
       x="-377.31302"
       y="1.8836517"
       transform="scale(1,-1)" />
    <path
       style="font-size:medium;font-style:normal;font-variant:normal;font-weight:normal;font-stretch:normal;text-indent:0;text-align:start;text-decoration:none;line-height:normal;letter-spacing:normal;word-spacing:normal;text-transform:none;direction:ltr;block-progression:tb;writing-mode:lr-tb;text-anchor:start;baseline-shift:baseline;color:#000000;fill:#000000;fill-opacity:1;stroke:none;stroke-width:1;marker:none;visibility:visible;display:inline;overflow:visible;enable-background:accumulate;font-family:Sans;-inkscape-font-specification:Sans"
       d="m 75.3811,22.658091 0,0.5 0,29 0,0.5 0.5,0 14.15625,0 0.5,0 0,-0.5 0,-29 0,-0.5 -0.5,0 -14.15625,0 -0.5,0 z m 1,1 13.15625,0 0,28 -13.15625,0 0,-28 z"
       id="path4639"
       inkscape:connector-curvature="0" />
    <path
       style="font-size:medium;font-style:normal;font-variant:normal;font-weight:normal;font-stretch:normal;text-indent:0;text-align:start;text-decoration:none;line-height:normal;letter-spacing:normal;word-spacing:normal;text-transform:none;direction:ltr;block-progression:tb;writing-mode:lr-tb;text-anchor:start;baseline-shift:baseline;color:#000000;fill:#000000;fill-opacity:1;stroke:none;stroke-width:1px;marker:none;visibility:visible;display:inline;overflow:visible;enable-background:accumulate;font-family:Sans;-inkscape-font-specification:Sans"
       d="m 18.41237,184.8456 0,1 46.09373,0 0,-1 z"
       id="path3789"
       inkscape:connector-curvature="0"
       sodipodi:nodetypes="ccccc" />
    <path
       style="font-size:medium;font-style:normal;font-variant:normal;font-weight:normal;font-stretch:normal;text-indent:0;text-align:start;text-decoration:none;line-height:normal;letter-spacing:normal;word-spacing:normal;text-transform:none;direction:ltr;block-progression:tb;writing-mode:lr-tb;text-anchor:start;baseline-shift:baseline;color:#000000;fill:#000000;fill-opacity:1;stroke:none;stroke-width:1px;marker:none;visibility:visible;display:inline;overflow:visible;enable-background:accumulate;font-family:Sans;-inkscape-font-specification:Sans"
       d="m 82.72485,211.4081 0,33.96875 1,0 0,-33.96875 z"
       id="path3797"
       inkscape:connector-curvature="0"
       sodipodi:nodetypes="ccccc" />
    <path
       style="font-size:medium;font-style:normal;font-variant:normal;font-weight:normal;font-stretch:normal;text-indent:0;text-align:start;text-decoration:none;line-height:normal;letter-spacing:normal;word-spacing:normal;text-transform:none;direction:ltr;block-progression:tb;writing-mode:lr-tb;text-anchor:start;baseline-shift:baseline;color:#000000;fill:#000000;fill-opacity:1;stroke:none;stroke-width:1px;marker:none;visibility:visible;display:inline;overflow:visible;enable-background:accumulate;font-family:Sans;-inkscape-font-specification:Sans"
       d="m 63.7561,171.12685 0,28.5 1,0 0,-28.5 -1,0 z"
       id="path3799"
       inkscape:connector-curvature="0" />
    <path
       style="font-size:medium;font-style:normal;font-variant:normal;font-weight:normal;font-stretch:normal;text-indent:0;text-align:start;text-decoration:none;line-height:normal;letter-spacing:normal;word-spacing:normal;text-transform:none;direction:ltr;block-progression:tb;writing-mode:lr-tb;text-anchor:start;baseline-shift:baseline;color:#000000;fill:#000000;fill-opacity:1;stroke:none;stroke-width:1px;marker:none;visibility:visible;display:inline;overflow:visible;enable-background:accumulate;font-family:Sans;-inkscape-font-specification:Sans"
       d="m 71.59985,244.62685 0,1 23.125,0 0,-1 z"
       id="path3801"
       inkscape:connector-curvature="0"
       sodipodi:nodetypes="ccccc" />
    <path
       style="font-size:medium;font-style:normal;font-variant:normal;font-weight:normal;font-stretch:normal;text-indent:0;text-align:start;text-decoration:none;line-height:normal;letter-spacing:normal;word-spacing:normal;text-transform:none;direction:ltr;block-progression:tb;writing-mode:lr-tb;text-anchor:start;baseline-shift:baseline;color:#000000;fill:#000000;fill-opacity:1;stroke:none;stroke-width:1px;marker:none;visibility:visible;display:inline;overflow:visible;enable-background:accumulate;font-family:Sans;-inkscape-font-specification:Sans"
       d="m 76.16235,250.62685 0,1 13.75,0 0,-1 z"
       id="path3803"
       inkscape:connector-curvature="0"
       sodipodi:nodetypes="ccccc" />
    <path
       style="font-size:medium;font-style:normal;font-variant:normal;font-weight:normal;font-stretch:normal;text-indent:0;text-align:start;text-decoration:none;line-height:normal;letter-spacing:normal;word-spacing:normal;text-transform:none;direction:ltr;block-progression:tb;writing-mode:lr-tb;text-anchor:start;baseline-shift:baseline;color:#000000;fill:#000000;fill-opacity:1;stroke:none;stroke-width:1px;marker:none;visibility:visible;display:inline;overflow:visible;enable-background:accumulate;font-family:Sans;-inkscape-font-specification:Sans"
       d="m 80.53735,256.62685 0,1 5.3125,0 0,-1 z"
       id="path3805"
       inkscape:connector-curvature="0"
       sodipodi:nodetypes="ccccc" />
    <path
       style="font-size:medium;font-style:normal;font-variant:normal;font-weight:normal;font-stretch:normal;text-indent:0;text-align:start;text-decoration:none;line-height:normal;letter-spacing:normal;word-spacing:normal;text-transform:none;direction:ltr;block-progression:tb;writing-mode:lr-tb;text-anchor:start;baseline-shift:baseline;color:#000000;fill:#000000;fill-opacity:1;stroke:none;stroke-width:1px;marker:none;visibility:visible;display:inline;overflow:visible;enable-background:accumulate;font-family:Sans;-inkscape-font-specification:Sans"
       d="m 64.72485,192.4081 -0.71875,0.71875 19,19 0.71875,-0.71875 -19,-19 z"
       id="path3809"
       inkscape:connector-curvature="0" />
    <path
       style="font-size:medium;font-style:normal;font-variant:normal;font-weight:normal;font-stretch:normal;text-indent:0;text-align:start;text-decoration:none;line-height:normal;letter-spacing:normal;word-spacing:normal;text-transform:none;direction:ltr;block-progression:tb;writing-mode:lr-tb;text-anchor:start;baseline-shift:baseline;color:#000000;fill:#000000;fill-opacity:1;stroke:none;stroke-width:1px;marker:none;visibility:visible;display:inline;overflow:visible;enable-background:accumulate;font-family:Sans;-inkscape-font-specification:Sans"
       d="m 70.8186,170.4081 -6.8125,6.8125 0.71875,0.71875 6.8125,-6.8125 z"
       id="path3811"
       inkscape:connector-curvature="0"
       sodipodi:nodetypes="ccccc" />
    <path
       style="font-size:medium;font-style:normal;font-variant:normal;font-weight:normal;font-stretch:normal;text-indent:0;text-align:start;text-decoration:none;line-height:normal;letter-spacing:normal;word-spacing:normal;text-transform:none;direction:ltr;block-progression:tb;writing-mode:lr-tb;text-anchor:start;baseline-shift:baseline;color:#000000;fill:#000000;fill-opacity:1;fill-rule:nonzero;stroke:none;stroke-width:1px;marker:none;visibility:visible;display:inline;overflow:visible;enable-background:accumulate;font-family:Sans;-inkscape-font-specification:Sans"
       d="m 83.0061,205.68935 -0.15625,0.15625 -5.3125,5.3125 -0.84375,0.84375 1.21875,0 5.3125,0 0.5,0 0,-0.5 c 0.0137,-1.77833 0,-3.54568 0,-5.3125 l 0,-0.5 -0.5,0 -0.21875,0 z"
       id="path4601"
       inkscape:connector-curvature="0" />
    <path
       style="font-size:medium;font-style:normal;font-variant:normal;font-weight:normal;font-stretch:normal;text-indent:0;text-align:start;text-decoration:none;line-height:normal;letter-spacing:normal;word-spacing:normal;text-transform:none;direction:ltr;block-progression:tb;writing-mode:lr-tb;text-anchor:start;baseline-shift:baseline;color:#000000;fill:#000000;fill-opacity:1;fill-rule:nonzero;stroke:none;stroke-width:1px;marker:none;visibility:visible;display:inline;overflow:visible;enable-background:accumulate;font-family:Sans;-inkscape-font-specification:Sans"
       d="m 82.72485,207.37685 c 0.005,1.21011 0.005,2.42044 0,3.625 l -3.59375,0 3.59375,-3.625 z"
       id="path3813"
       inkscape:connector-curvature="0" />
    <path
       style="font-size:medium;font-style:normal;font-variant:normal;font-weight:normal;font-stretch:normal;text-indent:0;text-align:start;text-decoration:none;line-height:normal;letter-spacing:normal;word-spacing:normal;text-transform:none;direction:ltr;block-progression:tb;writing-mode:lr-tb;text-anchor:start;baseline-shift:baseline;color:#000000;fill:#000000;fill-opacity:1;stroke:none;stroke-width:1px;marker:none;visibility:visible;display:inline;overflow:visible;enable-background:accumulate;font-family:Sans;-inkscape-font-specification:Sans"
       d="m 82.53735,119.5956 0,39.5 1,0 0,-39.5 -1,0 z"
       id="path3822"
       inkscape:connector-curvature="0" />
    <path
       style="font-size:medium;font-style:normal;font-variant:normal;font-weight:normal;font-stretch:normal;text-indent:0;text-align:start;text-decoration:none;line-height:normal;letter-spacing:normal;word-spacing:normal;text-transform:none;direction:ltr;block-progression:tb;writing-mode:lr-tb;text-anchor:start;baseline-shift:baseline;color:#000000;fill:#000000;fill-opacity:1;fill-rule:nonzero;stroke:none;stroke-width:1.00010478;marker:none;visibility:visible;display:inline;overflow:visible;enable-background:accumulate;font-family:Sans;-inkscape-font-specification:Sans"
       d="m 83.00362,132.34558 c -1.68768,0 -3.07524,1.36575 -3.07524,3.05343 0,1.68768 1.38756,3.07524 3.07524,3.07524 1.68768,0 3.05343,-1.38756 3.05343,-3.07524 0,-1.68768 -1.36575,-3.05343 -3.05343,-3.05343 z"
       id="path4663"
       inkscape:connector-curvature="0" />
    <path
       style="font-size:medium;font-style:normal;font-variant:normal;font-weight:normal;font-stretch:normal;text-indent:0;text-align:start;text-decoration:none;line-height:normal;letter-spacing:normal;word-spacing:normal;text-transform:none;direction:ltr;block-progression:tb;writing-mode:lr-tb;text-anchor:start;baseline-shift:baseline;color:#000000;fill:#000000;fill-opacity:1;stroke:none;stroke-width:1px;marker:none;visibility:visible;display:inline;overflow:visible;enable-background:accumulate;font-family:Sans;-inkscape-font-specification:Sans"
       d="m 17.22485,7.9393397 0,0.5 0,80.1562513 1,0 0,-79.6562513 95.25,0 0,-1 -95.75,0 -0.5,0 z"
       id="path4595"
       inkscape:connector-curvature="0" />
    <path
       style="font-size:medium;font-style:normal;font-variant:normal;font-weight:normal;font-stretch:normal;text-indent:0;text-align:start;text-decoration:none;line-height:normal;letter-spacing:normal;word-spacing:normal;text-transform:none;direction:ltr;block-progression:tb;writing-mode:lr-tb;text-anchor:start;baseline-shift:baseline;color:#000000;fill:#000000;fill-opacity:1;stroke:none;stroke-width:1px;marker:none;visibility:visible;display:inline;overflow:visible;enable-background:accumulate;font-family:Sans;-inkscape-font-specification:Sans"
       d="m 17.22485,102.0331 0,33.46875 0,0.5 0.5,0 65.375,0 0,-1 -64.875,0 0,-32.96875 -1,0 z"
       id="path3826"
       inkscape:connector-curvature="0" />
    <path
       style="font-size:medium;font-style:normal;font-variant:normal;font-weight:normal;font-stretch:normal;text-indent:0;text-align:start;text-decoration:none;line-height:normal;letter-spacing:normal;word-spacing:normal;text-transform:none;direction:ltr;block-progression:tb;writing-mode:lr-tb;text-anchor:start;baseline-shift:baseline;color:#000000;fill:#000000;fill-opacity:1;stroke:none;stroke-width:1;marker:none;visibility:visible;display:inline;overflow:visible;enable-background:accumulate;font-family:Sans;-inkscape-font-specification:Sans"
       d="m 118.72485,2.9393397 c -3.03164,0 -5.5,2.46836 -5.5,5.5 0,3.0316413 2.46836,5.5000013 5.5,5.5000013 3.03164,0 5.5,-2.46836 5.5,-5.5000013 0,-3.03164 -2.46836,-5.5 -5.5,-5.5 z m 0,1 c 2.4912,0 4.5,2.0088 4.5,4.5 0,2.4912003 -2.0088,4.5000013 -4.5,4.5000013 -2.4912,0 -4.5,-2.008801 -4.5,-4.5000013 0,-2.4912 2.0088,-4.5 4.5,-4.5 z"
       id="path4667"
       inkscape:connector-curvature="0" />
    <path
       style="font-size:medium;font-style:normal;font-variant:normal;font-weight:normal;font-stretch:normal;text-indent:0;text-align:start;text-decoration:none;line-height:normal;letter-spacing:normal;word-spacing:normal;text-transform:none;direction:ltr;block-progression:tb;writing-mode:lr-tb;text-anchor:start;baseline-shift:baseline;color:#000000;fill:#000000;fill-opacity:1;fill-rule:nonzero;stroke:none;stroke-width:1.00010478;marker:none;visibility:visible;display:inline;overflow:visible;enable-background:accumulate;font-family:Sans;-inkscape-font-specification:Sans"
       d="m 83.00362,5.2205697 c -1.68768,0 -3.07524,1.36575 -3.07524,3.05343 0,1.6876803 1.38756,3.0752413 3.07524,3.0752413 1.68768,0 3.05343,-1.387561 3.05343,-3.0752413 0,-1.68768 -1.36575,-3.05343 -3.05343,-3.05343 z"
       id="path4671"
       inkscape:connector-curvature="0" />
    <path
       style="font-size:medium;font-style:normal;font-variant:normal;font-weight:normal;font-stretch:normal;text-indent:0;text-align:start;text-decoration:none;line-height:normal;letter-spacing:normal;word-spacing:normal;text-transform:none;direction:ltr;block-progression:tb;writing-mode:lr-tb;text-anchor:start;baseline-shift:baseline;color:#000000;fill:#000000;fill-opacity:1;stroke:none;stroke-width:1px;marker:none;visibility:visible;display:inline;overflow:visible;enable-background:accumulate;font-family:Sans;-inkscape-font-specification:Sans"
       d="m 82.53735,9.59559 0,13.843751 1,0 0,-13.843751 -1,0 z"
       id="path3848"
       inkscape:connector-curvature="0" />
    <path
       style="font-size:medium;font-style:normal;font-variant:normal;font-weight:normal;font-stretch:normal;text-indent:0;text-align:start;text-decoration:none;line-height:normal;letter-spacing:normal;word-spacing:normal;text-transform:none;direction:ltr;block-progression:tb;writing-mode:lr-tb;text-anchor:start;baseline-shift:baseline;color:#000000;fill:#000000;fill-opacity:1;stroke:none;stroke-width:1px;marker:none;visibility:visible;display:inline;overflow:visible;enable-background:accumulate;font-family:Sans;-inkscape-font-specification:Sans"
       d="m 82.53735,52.095591 0,23.40625 1,0 0,-23.40625 -1,0 z"
       id="path3850"
       inkscape:connector-curvature="0" />
    <path
       style="font-size:medium;font-style:normal;font-variant:normal;font-weight:normal;font-stretch:normal;text-indent:0;text-align:start;text-decoration:none;line-height:normal;letter-spacing:normal;word-spacing:normal;text-transform:none;direction:ltr;block-progression:tb;writing-mode:lr-tb;text-anchor:start;baseline-shift:baseline;color:#000000;fill:#000000;fill-opacity:1;stroke:none;stroke-width:0.85892498;marker:none;visibility:visible;display:inline;overflow:visible;enable-background:accumulate;font-family:Sans;-inkscape-font-specification:Sans"
       d="m 82.53735,108.06435 0,0.75 c 5.06454,0 9.53125,2.26367 9.53125,5.0625 0,2.79883 -4.46671,5.03125 -9.53125,5.03125 l 0,0.78125 c 5.79154,0 10.46875,-2.61191 10.46875,-5.8125 0,-3.20059 -4.67721,-5.8125 -10.46875,-5.8125 z"
       id="path4541"
       inkscape:connector-curvature="0" />
    <path
       style="font-size:medium;font-style:normal;font-variant:normal;font-weight:normal;font-stretch:normal;text-indent:0;text-align:start;text-decoration:none;line-height:normal;letter-spacing:normal;word-spacing:normal;text-transform:none;direction:ltr;block-progression:tb;writing-mode:lr-tb;text-anchor:start;baseline-shift:baseline;color:#000000;fill:#000000;fill-opacity:1;stroke:none;stroke-width:0.85892498;marker:none;visibility:visible;display:inline;overflow:visible;enable-background:accumulate;font-family:Sans;-inkscape-font-specification:Sans"
       d="m 82.53735,97.158091 0,0.75 c 5.06454,0 9.53125,2.263669 9.53125,5.062509 0,2.79883 -4.46671,5.03125 -9.53125,5.03125 l 0,0.78125 c 5.79154,0 10.46875,-2.61191 10.46875,-5.8125 0,-3.2006 -4.67721,-5.812509 -10.46875,-5.812509 z"
       id="path4545"
       inkscape:connector-curvature="0" />
    <path
       style="font-size:medium;font-style:normal;font-variant:normal;font-weight:normal;font-stretch:normal;text-indent:0;text-align:start;text-decoration:none;line-height:normal;letter-spacing:normal;word-spacing:normal;text-transform:none;direction:ltr;block-progression:tb;writing-mode:lr-tb;text-anchor:start;baseline-shift:baseline;color:#000000;fill:#000000;fill-opacity:1;stroke:none;stroke-width:0.85892498;marker:none;visibility:visible;display:inline;overflow:visible;enable-background:accumulate;font-family:Sans;-inkscape-font-specification:Sans"
       d="m 82.53735,86.283091 0,0.75 c 5.06454,0 9.53125,2.26367 9.53125,5.0625 0,2.79883 -4.46671,5.03125 -9.53125,5.03125 l 0,0.78125 c 5.79154,0 10.46875,-2.61191 10.46875,-5.8125 0,-3.20059 -4.67721,-5.8125 -10.46875,-5.8125 z"
       id="path4549"
       inkscape:connector-curvature="0" />
    <path
       style="font-size:medium;font-style:normal;font-variant:normal;font-weight:normal;font-stretch:normal;text-indent:0;text-align:start;text-decoration:none;line-height:normal;letter-spacing:normal;word-spacing:normal;text-transform:none;direction:ltr;block-progression:tb;writing-mode:lr-tb;text-anchor:start;baseline-shift:baseline;color:#000000;fill:#000000;fill-opacity:1;stroke:none;stroke-width:0.85892498;marker:none;visibility:visible;display:inline;overflow:visible;enable-background:accumulate;font-family:Sans;-inkscape-font-specification:Sans"
       d="m 82.53735,75.376841 0,0.75 c 5.06454,0 9.53125,2.26367 9.53125,5.0625 0,2.79883 -4.46671,5.03125 -9.53125,5.03125 l 0,0.78125 c 5.79154,0 10.46875,-2.61191 10.46875,-5.8125 0,-3.20059 -4.67721,-5.8125 -10.46875,-5.8125 z"
       id="path4553"
       inkscape:connector-curvature="0" />
    <path
       style="font-size:medium;font-style:normal;font-variant:normal;font-weight:normal;font-stretch:normal;text-indent:0;text-align:start;text-decoration:none;line-height:normal;letter-spacing:normal;word-spacing:normal;text-transform:none;direction:ltr;block-progression:tb;writing-mode:lr-tb;text-anchor:start;baseline-shift:baseline;color:#000000;fill:#000000;fill-opacity:1;stroke:none;stroke-width:1px;marker:none;visibility:visible;display:inline;overflow:visible;enable-background:accumulate;font-family:Sans;-inkscape-font-specification:Sans"
       d="m 7.72485,87.939341 0,1 19.9375,0 0,-1 -19.9375,0 z"
       id="path3872"
       inkscape:connector-curvature="0" />
    <path
       style="font-size:medium;font-style:normal;font-variant:normal;font-weight:normal;font-stretch:normal;text-indent:0;text-align:start;text-decoration:none;line-height:normal;letter-spacing:normal;word-spacing:normal;text-transform:none;direction:ltr;block-progression:tb;writing-mode:lr-tb;text-anchor:start;baseline-shift:baseline;color:#000000;fill:#000000;fill-opacity:1;stroke:none;stroke-width:1px;marker:none;visibility:visible;display:inline;overflow:visible;enable-background:accumulate;font-family:Sans;-inkscape-font-specification:Sans"
       d="m 17.66235,87.658091 -0.40625,0.5625 -10,13.687509 -0.59375,0.78125 1,0 20.0625,0 1,0 -0.59375,-0.78125 -10.0625,-13.687509 -0.40625,-0.5625 z m 0,1.6875 9.09375,12.343759 -18.125,0 9.03125,-12.343759 z"
       id="path4585"
       inkscape:connector-curvature="0" />
    <path
       style="font-size:medium;font-style:normal;font-variant:normal;font-weight:normal;font-stretch:normal;text-indent:0;text-align:start;text-decoration:none;line-height:normal;letter-spacing:normal;word-spacing:normal;text-transform:none;direction:ltr;block-progression:tb;writing-mode:lr-tb;text-anchor:start;baseline-shift:baseline;color:#000000;fill:#000000;fill-opacity:1;stroke:none;stroke-width:1px;marker:none;visibility:visible;display:inline;overflow:visible;enable-background:accumulate;font-family:Sans;-inkscape-font-specification:Sans"
       d="m 42.84985,184.81435 0,1 3,0 0,-1 -3,0 z"
       id="path4324"
       inkscape:connector-curvature="0" />
    <path
       style="font-size:12px;fill-rule:evenodd;stroke-width:0.625;stroke-linejoin:round"
       d="m 35.16693,180.87727 12.01847,4.4195 -12.01847,4.41949 c 1.92005,-2.60927 1.90899,-6.1792 0,-8.83899 z"
       id="path4385"
       inkscape:connector-curvature="0" />
    <path
       style="font-size:medium;font-style:normal;font-variant:normal;font-weight:normal;font-stretch:normal;text-indent:0;text-align:start;text-decoration:none;line-height:normal;letter-spacing:normal;word-spacing:normal;text-transform:none;direction:ltr;block-progression:tb;writing-mode:lr-tb;text-anchor:start;baseline-shift:baseline;color:#000000;fill:#000000;fill-opacity:1;stroke:none;stroke-width:1px;marker:none;visibility:visible;display:inline;overflow:visible;enable-background:accumulate;font-family:Sans;-inkscape-font-specification:Sans"
       d="m 82.53735,149.7831 0,3 1,0 0,-3 -1,0 z"
       id="path4326"
       inkscape:connector-curvature="0" />
    <path
       style="font-size:12px;fill-rule:evenodd;stroke-width:0.625;stroke-linejoin:round"
       d="m 87.48001,142.10003 -4.4195,12.01847 -4.41949,-12.01847 c 2.60927,1.92005 6.1792,1.90899 8.83899,0 z"
       id="path4377"
       inkscape:connector-curvature="0" />
    <path
       style="font-size:medium;font-style:normal;font-variant:normal;font-weight:normal;font-stretch:normal;text-indent:0;text-align:start;text-decoration:none;line-height:normal;letter-spacing:normal;word-spacing:normal;text-transform:none;direction:ltr;block-progression:tb;writing-mode:lr-tb;text-anchor:start;baseline-shift:baseline;color:#000000;fill:#000000;fill-opacity:1;stroke:none;stroke-width:1px;marker:none;visibility:visible;display:inline;overflow:visible;enable-background:accumulate;font-family:Sans;-inkscape-font-specification:Sans"
       d="m 82.53735,65.783091 0,3 1,0 0,-3 -1,0 z"
       id="path4328"
       inkscape:connector-curvature="0" />
    <path
       style="font-size:12px;fill-rule:evenodd;stroke-width:0.625;stroke-linejoin:round"
       d="m 87.48001,58.100021 -4.4195,12.01847 -4.41949,-12.01847 c 2.60927,1.92005 6.1792,1.90899 8.83899,0 z"
       id="path4369"
       inkscape:connector-curvature="0" />
    <path
       style="font-size:medium;font-style:normal;font-variant:normal;font-weight:normal;font-stretch:normal;text-indent:0;text-align:start;text-decoration:none;line-height:normal;letter-spacing:normal;word-spacing:normal;text-transform:none;direction:ltr;block-progression:tb;writing-mode:lr-tb;text-anchor:start;baseline-shift:baseline;color:#000000;fill:#000000;fill-opacity:1;stroke:none;stroke-width:1px;marker:none;visibility:visible;display:inline;overflow:visible;enable-background:accumulate;font-family:Sans;-inkscape-font-specification:Sans"
       d="m 17.2561,39.439341 0,3 1,0 0,-3 -1,0 z"
       id="path4330"
       inkscape:connector-curvature="0" />
    <path
       style="font-size:12px;fill-rule:evenodd;stroke-width:0.625;stroke-linejoin:round"
       d="m 13.32412,50.118491 4.4195,-12.01847 4.41949,12.01847 c -2.60927,-1.92005 -6.1792,-1.90899 -8.83899,0 z"
       id="path4361"
       inkscape:connector-curvature="0" />
    <g
       style="font-size:40px;font-style:normal;font-weight:normal;line-height:125%;letter-spacing:0px;word-spacing:0px;fill:#000000;fill-opacity:1;stroke:none;font-family:Sans"
       id="flowRoot4685-1"
       transform="translate(244.52555,112.99287)">
      <path
         d="m -140.13672,-41.124948 0,3.263672 3.26367,0 0,0.996094 -3.26367,0 0,3.263672 -0.98437,0 0,-3.263672 -3.26368,0 0,-0.996094 3.26368,0 0,-3.263672 0.98437,0"
         style="font-size:12px"
         id="path4694-7"
         inkscape:connector-curvature="0" />
    </g>
    <path
       inkscape:connector-curvature="0"
       style="font-size:medium;font-style:normal;font-variant:normal;font-weight:normal;font-stretch:normal;text-indent:0;text-align:start;text-decoration:none;line-height:normal;letter-spacing:normal;word-spacing:normal;text-transform:none;direction:ltr;block-progression:tb;writing-mode:lr-tb;text-anchor:start;baseline-shift:baseline;color:#000000;fill:#000000;fill-opacity:1;stroke:none;stroke-width:1px;marker:none;visibility:visible;display:inline;overflow:visible;enable-background:accumulate;font-family:Sans;-inkscape-font-specification:Sans"
       d="m 97.70425,73.967841 0,46.000009 1,0 0,-46.000009 z"
       id="path4334-8"
       sodipodi:nodetypes="ccccc" />
    <path
       style="font-size:12px;font-style:normal;font-weight:normal;line-height:125%;letter-spacing:0px;word-spacing:0px;fill:#000000;fill-opacity:1;stroke:none;font-family:Sans"
       d="m 100.66008,92.310091 1.18945,0 0,5.31445 c 0,0.937507 0.16992,1.613287 0.50977,2.027349 0.33984,0.41016 0.89062,0.61523 1.65234,0.61523 0.75781,0 1.30664,-0.20507 1.64649,-0.61523 0.33983,-0.414062 0.50975,-1.089842 0.50976,-2.027349 l 0,-5.31445 1.18945,0 0,5.46094 c 0,1.140626 -0.28321,2.001949 -0.8496,2.583979 -0.56251,0.58203 -1.39454,0.87306 -2.4961,0.87306 -1.10547,0 -1.94141,-0.29103 -2.50781,-0.87306 -0.5625,-0.58203 -0.84375,-1.443353 -0.84375,-2.583979 l 0,-5.46094"
       id="path5114"
       inkscape:connector-curvature="0" />
    <path
       style="font-size:26.00036621px;font-style:normal;font-weight:normal;line-height:125%;letter-spacing:0px;word-spacing:0px;baseline-shift:sub;fill:#000000;fill-opacity:1;stroke:none;font-family:Sans"
       d="m 109.17171,97.771831 0.76935,0 0,5.038849 2.76888,0 0,0.64747 -3.53823,0 0,-5.686319"
       id="path5116"
       inkscape:connector-curvature="0" />
    <path
       style="font-size:12px;font-style:normal;font-weight:normal;line-height:125%;letter-spacing:0px;word-spacing:0px;fill:#000000;fill-opacity:1;stroke:none;font-family:Sans"
       d="m 36.59633,167.80793 1.1836,0 0,8.74805 -1.1836,0 0,-8.74805"
       id="path5391"
       inkscape:connector-curvature="0" />
    <path
       style="font-size:26.00036621px;font-style:normal;font-weight:normal;line-height:125%;letter-spacing:0px;word-spacing:0px;baseline-shift:sub;fill:#000000;fill-opacity:1;stroke:none;font-family:Sans"
       d="m 39.72485,173.2831 0,5.6875 2.03125,0 c 0.63731,0 1.12343,-0.16074 1.46875,-0.4375 0.34531,-0.27676 0.53124,-0.64843 0.53125,-1.15625 -1e-5,-0.38594 -0.10176,-0.7123 -0.3125,-0.96875 -0.20821,-0.25899 -0.49668,-0.45 -0.875,-0.53125 0.31485,-0.0508 0.55624,-0.16933 0.71875,-0.375 0.16245,-0.20566 0.21875,-0.46464 0.21875,-0.8125 0,-0.44942 -0.15137,-0.81874 -0.46875,-1.0625 -0.31739,-0.24375 -0.75722,-0.34374 -1.34375,-0.34375 l -1.96875,0 z m 0.78125,0.625 1.125,0 c 0.37579,0 0.66093,0.0766 0.84375,0.21875 0.18533,0.14219 0.28124,0.33809 0.28125,0.625 -1e-5,0.28946 -0.0959,0.51406 -0.28125,0.65625 -0.18282,0.13965 -0.46796,0.21875 -0.84375,0.21875 l -1.125,0 0,-1.71875 z m 0,2.34375 1.21875,0 c 0.41387,0 0.7082,0.0799 0.90625,0.25 0.20059,0.16758 0.31249,0.42578 0.3125,0.78125 -1e-5,0.35294 -0.11191,0.60859 -0.3125,0.78125 -0.19805,0.17012 -0.49238,0.25 -0.90625,0.25 l -1.21875,0 0,-2.0625 z"
       id="path5393"
       inkscape:connector-curvature="0" />
    <path
       style="font-size:12px;font-style:normal;font-weight:normal;line-height:125%;letter-spacing:0px;word-spacing:0px;fill:#000000;fill-opacity:1;stroke:none;font-family:Sans"
       d="m 92.14926,142.70564 1.1836,0 0,8.74805 -1.1836,0 0,-8.74805"
       id="path5386"
       inkscape:connector-curvature="0" />
    <path
       style="font-size:26.00036621px;font-style:normal;font-weight:normal;line-height:125%;letter-spacing:0px;word-spacing:0px;baseline-shift:sub;fill:#000000;fill-opacity:1;stroke:none;font-family:Sans"
       d="m 99.5342,148.60537 0,0.81124 c -0.25899,-0.24121 -0.53576,-0.42148 -0.83029,-0.54082 -0.292,-0.11934 -0.60304,-0.17901 -0.93312,-0.17901 -0.65001,0 -1.14767,0.19932 -1.49299,0.59796 -0.34531,0.3961 -0.51797,0.96994 -0.51797,1.72151 0,0.74903 0.17266,1.32287 0.51797,1.7215 0.34532,0.3961 0.84298,0.59415 1.49299,0.59415 0.33008,0 0.64112,-0.0597 0.93312,-0.179 0.29453,-0.11934 0.5713,-0.29962 0.83029,-0.54083 l 0,0.80362 c -0.26915,0.18282 -0.5548,0.31993 -0.85695,0.41134 -0.29961,0.0914 -0.617,0.13711 -0.95216,0.13711 -0.86076,0 -1.53869,-0.2628 -2.03382,-0.78839 -0.49512,-0.52813 -0.74268,-1.24797 -0.74268,-2.1595 0,-0.91408 0.24756,-1.63391 0.74268,-2.15951 0.49513,-0.52812 1.17306,-0.79219 2.03382,-0.7922 0.34024,1e-5 0.66016,0.0457 0.95978,0.13711 0.30215,0.0889 0.58526,0.22345 0.84933,0.40372"
       id="path5388"
       inkscape:connector-curvature="0" />
    <path
       style="font-size:12px;font-style:normal;font-weight:normal;line-height:125%;letter-spacing:0px;word-spacing:0px;fill:#000000;fill-opacity:1;stroke:none;font-family:Sans"
       d="m 91.3298,59.211801 1.1836,0 0,8.74805 -1.1836,0 0,-8.74805"
       id="path5381"
       inkscape:connector-curvature="0" />
    <path
       style="font-size:26.00036621px;font-style:normal;font-weight:normal;line-height:125%;letter-spacing:0px;word-spacing:0px;baseline-shift:sub;fill:#000000;fill-opacity:1;stroke:none;font-family:Sans"
       d="m 97.86541,64.860161 0,0.75031 c -0.292,-0.13965 -0.56749,-0.24375 -0.82648,-0.31231 -0.25899,-0.0686 -0.50909,-0.10283 -0.7503,-0.10284 -0.41895,10e-6 -0.74269,0.0813 -0.97121,0.24376 -0.22598,0.16251 -0.33897,0.39356 -0.33896,0.69317 -1e-5,0.25138 0.0749,0.44181 0.22471,0.5713 0.15234,0.12696 0.43926,0.22979 0.86075,0.3085 l 0.46465,0.0952 c 0.57384,0.10918 0.9966,0.30216 1.26828,0.57891 0.27422,0.27423 0.41133,0.6424 0.41134,1.10451 -1e-5,0.55099 -0.18536,0.96867 -0.55606,1.25305 -0.36818,0.28438 -0.909,0.42656 -1.62249,0.42656 -0.26914,0 -0.55606,-0.0305 -0.86075,-0.0914 -0.30216,-0.0609 -0.61573,-0.15108 -0.94074,-0.27042 l 0,-0.7922 c 0.31231,0.1752 0.61827,0.30724 0.91789,0.3961 0.29961,0.0889 0.59414,0.13331 0.8836,0.13331 0.43926,0 0.77823,-0.0863 1.01691,-0.25899 0.23867,-0.17266 0.35801,-0.41895 0.35801,-0.73888 0,-0.2793 -0.0863,-0.49766 -0.25898,-0.65509 -0.17013,-0.15742 -0.4507,-0.27549 -0.84172,-0.3542 l -0.46846,-0.0914 c -0.57384,-0.11426 -0.98898,-0.29326 -1.24543,-0.53702 -0.25645,-0.24375 -0.38467,-0.58272 -0.38467,-1.01691 0,-0.50274 0.17647,-0.89884 0.5294,-1.1883 0.35547,-0.28945 0.84425,-0.43418 1.46633,-0.43418 0.2666,0 0.53829,0.0241 0.81505,0.0724 0.27676,0.0482 0.55987,0.12061 0.84933,0.21709"
       id="path5383"
       inkscape:connector-curvature="0" />
    <path
       style="font-size:12px;font-style:normal;font-weight:normal;line-height:125%;letter-spacing:0px;word-spacing:0px;fill:#000000;fill-opacity:1;stroke:none;font-family:Sans"
       d="m 1.88079,40.827021 1.1836,0 0,8.74805 -1.1836,0 0,-8.74805"
       id="path5406"
       inkscape:connector-curvature="0" />
    <path
       style="font-size:26.00036621px;font-style:normal;font-weight:normal;line-height:125%;letter-spacing:0px;word-spacing:0px;baseline-shift:sub;fill:#000000;fill-opacity:1;stroke:none;font-family:Sans"
       d="m 7.78735,46.064341 0,2.28125 c -0.14727,-0.25391 -0.33652,-0.44062 -0.5625,-0.5625 -0.22344,-0.12443 -0.49765,-0.18749 -0.8125,-0.1875 -0.51544,1e-5 -0.925,0.21367 -1.25,0.625 -0.32247,0.41134 -0.5,0.95468 -0.5,1.625 0,0.67032 0.17753,1.21367 0.5,1.625 0.325,0.41133 0.73456,0.625 1.25,0.625 0.31485,0 0.58906,-0.0656 0.8125,-0.1875 0.22598,-0.12442 0.41523,-0.30859 0.5625,-0.5625 l 0,0.625 0.6875,0 0,-5.90625 -0.6875,0 z m -1.1875,2.125 c 0.3707,1e-5 0.66171,0.14296 0.875,0.4375 0.21328,0.292 0.3125,0.70331 0.3125,1.21875 0,0.51544 -0.0992,0.92421 -0.3125,1.21875 -0.21329,0.29199 -0.5043,0.4375 -0.875,0.4375 -0.37071,0 -0.66172,-0.14551 -0.875,-0.4375 -0.21075,-0.29454 -0.34375,-0.70331 -0.34375,-1.21875 0,-0.51544 0.133,-0.92675 0.34375,-1.21875 0.21328,-0.29454 0.50429,-0.43749 0.875,-0.4375 z"
       id="path5424"
       inkscape:connector-curvature="0" />
    <path
       inkscape:connector-curvature="0"
       style="font-size:12px;font-style:normal;font-weight:normal;line-height:125%;letter-spacing:0px;word-spacing:0px;fill:#000000;fill-opacity:1;stroke:none;font-family:Sans"
       d="m 130.21096,4.1670797 1.18945,0 0,5.31445 c 0,0.9375103 0.16992,1.6132903 0.50977,2.0273513 0.33984,0.41015 0.89062,0.61523 1.65234,0.61523 0.75781,0 1.30664,-0.20508 1.64649,-0.61523 0.33983,-0.414061 0.50975,-1.089841 0.50976,-2.0273513 l 0,-5.31445 1.18945,0 0,5.4609403 c 0,1.14063 -0.28321,2.001951 -0.8496,2.583981 -0.56251,0.58203 -1.39454,0.87305 -2.4961,0.87305 -1.10547,0 -1.94141,-0.29102 -2.50781,-0.87305 -0.5625,-0.58203 -0.84375,-1.443351 -0.84375,-2.583981 l 0,-5.4609403"
       id="path5114-2" />
    <path
       style="font-size:12px;font-style:normal;font-weight:normal;line-height:125%;letter-spacing:0px;word-spacing:0px;fill:#000000;fill-opacity:1;stroke:none;font-family:Sans"
       d="m 61.16235,32.814341 0,8.75 1.1875,0 0,-3.71875 1.28125,0 c 0.46875,1e-5 0.85547,0.1211 1.125,0.3125 0.27343,0.19141 0.55468,0.57032 0.84375,1.15625 l 1.125,2.25 1.25,0 -1.1875,-2.40625 c -0.2422,-0.49219 -0.47658,-0.875 -0.71875,-1.15625 -0.23828,-0.28125 -0.49611,-0.44535 -0.75,-0.53125 0.48828,-0.14062 0.87109,-0.41797 1.125,-0.78125 0.25781,-0.36328 0.375,-0.82421 0.375,-1.375 0,-0.84374 -0.25782,-1.45703 -0.75,-1.875 -0.49218,-0.41796 -1.21876,-0.62499 -2.21875,-0.625 l -2.6875,0 z m 1.1875,0.96875 1.5,0 c 0.57032,1e-5 0.99217,0.14454 1.28125,0.40625 0.29296,0.25782 0.43749,0.61329 0.4375,1.125 -1e-5,0.51173 -0.14454,0.92188 -0.4375,1.1875 -0.28908,0.26172 -0.71093,0.375 -1.28125,0.375 l -1.5,0 0,-3.09375 z"
       id="path5540"
       inkscape:connector-curvature="0" />
    <path
       style="font-size:26.00036621px;font-style:normal;font-weight:normal;line-height:125%;letter-spacing:0px;word-spacing:0px;baseline-shift:sub;fill:#000000;fill-opacity:1;stroke:none;font-family:Sans"
       d="m 69.30619,43.310671 1.25684,0 0,-4.33805 -1.3673,0.27422 0,-0.70079 1.35968,-0.27422 0.76935,0 0,5.03884 1.25685,0 0,0.64747 -3.27543,0 0,-0.64747"
       id="path5528"
       inkscape:connector-curvature="0" />
    <path
       style="font-size:medium;font-style:normal;font-variant:normal;font-weight:normal;font-stretch:normal;text-indent:0;text-align:start;text-decoration:none;line-height:normal;letter-spacing:normal;word-spacing:normal;text-transform:none;direction:ltr;block-progression:tb;writing-mode:lr-tb;text-anchor:start;baseline-shift:baseline;color:#000000;fill:#000000;fill-opacity:1;stroke:none;stroke-width:1;marker:none;visibility:visible;display:inline;overflow:visible;enable-background:accumulate;font-family:Sans;-inkscape-font-specification:Sans"
       d="m 83,158.85355 c -3.03164,0 -5.5,2.46836 -5.5,5.5 0,3.03164 2.46836,5.5 5.5,5.5 3.03164,0 5.5,-2.46836 5.5,-5.5 0,-3.03164 -2.46836,-5.5 -5.5,-5.5 z m 0,1 c 2.4912,0 4.5,2.0088 4.5,4.5 0,2.4912 -2.0088,4.5 -4.5,4.5 -2.4912,0 -4.5,-2.0088 -4.5,-4.5 0,-2.4912 2.0088,-4.5 4.5,-4.5 z"
       id="path4667-3"
       inkscape:connector-curvature="0" />
    <g
       style="font-size:40px;font-style:normal;font-weight:normal;line-height:125%;letter-spacing:0px;word-spacing:0px;fill:#000000;fill-opacity:1;stroke:none;font-family:Sans"
       id="flowRoot4685-1-0"
       transform="translate(242.59718,61.574984)">
      <path
         d="m -140.13672,-41.124948 0,3.263672 3.26367,0 0,0.996094 -3.26367,0 0,3.263672 -0.98437,0 0,-3.263672 -3.26368,0 0,-0.996094 3.26368,0 0,-3.263672 0.98437,0"
         style="font-size:12px"
         id="path4694-7-7"
         inkscape:connector-curvature="0" />
    </g>
    <path
       inkscape:connector-curvature="0"
       style="font-size:medium;font-style:normal;font-variant:normal;font-weight:normal;font-stretch:normal;text-indent:0;text-align:start;text-decoration:none;line-height:normal;letter-spacing:normal;word-spacing:normal;text-transform:none;direction:ltr;block-progression:tb;writing-mode:lr-tb;text-anchor:start;baseline-shift:baseline;color:#000000;fill:#000000;fill-opacity:1;stroke:none;stroke-width:1px;marker:none;visibility:visible;display:inline;overflow:visible;enable-background:accumulate;font-family:Sans;-inkscape-font-specification:Sans"
       d="m 95.77588,22.549955 0,30.000009 1,0 0,-30.000009 z"
       id="path4334-8-8"
       sodipodi:nodetypes="ccccc" />
    <path
       style="font-size:12px;font-style:normal;font-weight:normal;line-height:125%;letter-spacing:0px;word-spacing:0px;fill:#000000;fill-opacity:1;stroke:none;font-family:Sans"
       d="m 102.11223,33.912086 1.18945,0 0,5.314453 c 0,0.937503 0.16992,1.613283 0.50977,2.027344 0.33984,0.410157 0.89062,0.615235 1.65234,0.615234 0.75781,10e-7 1.30664,-0.205077 1.64649,-0.615234 0.33983,-0.414061 0.50975,-1.089841 0.50976,-2.027344 l 0,-5.314453 1.18945,0 0,5.460938 c 0,1.140627 -0.28321,2.001954 -0.84961,2.583984 -0.5625,0.582031 -1.39453,0.873047 -2.49609,0.873047 -1.10547,0 -1.94141,-0.291016 -2.50781,-0.873047 -0.5625,-0.58203 -0.84375,-1.443357 -0.84375,-2.583984 l 0,-5.460938"
       id="path3269"
       inkscape:connector-curvature="0" />
    <path
       style="font-size:7.80010986px;font-style:normal;font-weight:normal;line-height:125%;letter-spacing:0px;word-spacing:0px;baseline-shift:sub;fill:#000000;fill-opacity:1;stroke:none;font-family:Sans"
       d="m 110.625,39.375 0,5.6875 0.78125,0 0,-2.40625 0.8125,0 c 0.30469,2e-6 0.54355,0.06309 0.71875,0.1875 0.17774,0.124418 0.3746,0.369137 0.5625,0.75 l 0.71875,1.46875 0.84375,0 -0.78125,-1.5625 c -0.15742,-0.319925 -0.31133,-0.567183 -0.46875,-0.75 -0.15489,-0.182813 -0.33496,-0.28789 -0.5,-0.34375 0.31739,-0.09141 0.5537,-0.263861 0.71875,-0.5 0.16757,-0.236132 0.24999,-0.548234 0.25,-0.90625 -1e-5,-0.548441 -0.14883,-0.947062 -0.46875,-1.21875 -0.31993,-0.271678 -0.78749,-0.406244 -1.4375,-0.40625 l -1.75,0 z m 0.78125,0.625 0.96875,0 c 0.37071,5e-6 0.6246,0.07989 0.8125,0.25 0.19044,0.167585 0.28125,0.417382 0.28125,0.75 0,0.332625 -0.0908,0.608594 -0.28125,0.78125 -0.1879,0.170119 -0.44179,0.250003 -0.8125,0.25 l -0.96875,0 0,-2.03125 z"
       id="path3277"
       inkscape:connector-curvature="0" />
  </g>
</svg>
