<?xml version="1.0" encoding="UTF-8" standalone="no"?>
<!-- Created with Inkscape (http://www.inkscape.org/) -->

<svg
   xmlns:dc="http://purl.org/dc/elements/1.1/"
   xmlns:cc="http://creativecommons.org/ns#"
   xmlns:rdf="http://www.w3.org/1999/02/22-rdf-syntax-ns#"
   xmlns:svg="http://www.w3.org/2000/svg"
   xmlns="http://www.w3.org/2000/svg"
   xmlns:sodipodi="http://sodipodi.sourceforge.net/DTD/sodipodi-0.dtd"
   xmlns:inkscape="http://www.inkscape.org/namespaces/inkscape"
   width="100"
   height="100"
   id="svg2"
   version="1.1"
   inkscape:version="0.48.0 r9654"
   sodipodi:docname="2011-(04)apr-08, 10.svg">
  <defs
     id="defs4" />
  <sodipodi:namedview
     id="base"
     pagecolor="#ffffff"
     bordercolor="#666666"
     borderopacity="1.0"
     inkscape:pageopacity="0.0"
     inkscape:pageshadow="2"
     inkscape:zoom="2"
     inkscape:cx="-29.141974"
     inkscape:cy="37.327071"
     inkscape:document-units="px"
     inkscape:current-layer="layer1"
     showgrid="false"
     inkscape:window-width="1589"
     inkscape:window-height="1117"
     inkscape:window-x="1600"
     inkscape:window-y="27"
     inkscape:window-maximized="1"
     showguides="true"
     inkscape:guide-bbox="true" />
  <metadata
     id="metadata7">
    <rdf:RDF>
      <cc:Work
         rdf:about="">
        <dc:format>image/svg+xml</dc:format>
        <dc:type
           rdf:resource="http://purl.org/dc/dcmitype/StillImage" />
        <dc:title />
      </cc:Work>
    </rdf:RDF>
  </metadata>
  <g
     inkscape:label="Layer 1"
     inkscape:groupmode="layer"
     id="layer1">
    <rect
       style="fill:#0000ff;fill-rule:evenodd;stroke:#000000;stroke-width:1px;stroke-linecap:butt;stroke-linejoin:miter;stroke-opacity:1"
       id="rect3007"
       width="58"
       height="0"
       x="-332.76865"
       y="91.110023" />
    <rect
       style="fill:#0000ff;fill-rule:evenodd;stroke:#000000;stroke-width:1px;stroke-linecap:butt;stroke-linejoin:miter;stroke-opacity:1"
       id="rect3007-3"
       width="58"
       height="0"
       x="-269.32855"
       y="112.3216" />
    <path
       style="font-size:medium;font-style:normal;font-variant:normal;font-weight:normal;font-stretch:normal;text-indent:0;text-align:start;text-decoration:none;line-height:normal;letter-spacing:normal;word-spacing:normal;text-transform:none;direction:ltr;block-progression:tb;writing-mode:lr-tb;text-anchor:start;baseline-shift:baseline;color:#000000;fill:#000000;fill-opacity:1;stroke:none;stroke-width:1px;marker:none;visibility:visible;display:inline;overflow:visible;enable-background:accumulate;font-family:Sans;-inkscape-font-specification:Sans"
       d="m 4,51.75 0,1 42.25,0 0,-1 -42.25,0 z"
       id="path3011" />
    <path
       style="font-size:medium;font-style:normal;font-variant:normal;font-weight:normal;font-stretch:normal;text-indent:0;text-align:start;text-decoration:none;line-height:normal;letter-spacing:normal;word-spacing:normal;text-transform:none;direction:ltr;block-progression:tb;writing-mode:lr-tb;text-anchor:start;baseline-shift:baseline;color:#000000;fill:#000000;fill-opacity:1;stroke:none;stroke-width:1px;marker:none;visibility:visible;display:inline;overflow:visible;enable-background:accumulate;font-family:Sans;-inkscape-font-specification:Sans"
       d="m 45.75,34.53125 0,35.40625 1,0 0,-35.40625 -1,0 z"
       id="path3013" />
    <path
       style="font-size:medium;font-style:normal;font-variant:normal;font-weight:normal;font-stretch:normal;text-indent:0;text-align:start;text-decoration:none;line-height:normal;letter-spacing:normal;word-spacing:normal;text-transform:none;direction:ltr;block-progression:tb;writing-mode:lr-tb;text-anchor:start;baseline-shift:baseline;color:#000000;fill:#000000;fill-opacity:1;stroke:none;stroke-width:1px;marker:none;visibility:visible;display:inline;overflow:visible;enable-background:accumulate;font-family:Sans;-inkscape-font-specification:Sans"
       d="m 55,2.15625 0,32.40625 -9.09375,9.09375 0.6875,0.6875 9.25,-9.25 L 56,34.96875 56,34.75 56,2.15625 l -1,0 z"
       id="path3019" />
    <path
       style="font-size:medium;font-style:normal;font-variant:normal;font-weight:normal;font-stretch:normal;text-indent:0;text-align:start;text-decoration:none;line-height:normal;letter-spacing:normal;word-spacing:normal;text-transform:none;direction:ltr;block-progression:tb;writing-mode:lr-tb;text-anchor:start;baseline-shift:baseline;color:#000000;fill:#000000;fill-opacity:1;stroke:none;stroke-width:1px;marker:none;visibility:visible;display:inline;overflow:visible;enable-background:accumulate;font-family:Sans;-inkscape-font-specification:Sans"
       d="m 46.59375,60.40625 -0.6875,0.6875 L 55,70.1875 55,98 l 1,0 0,-28 0,-0.21875 -0.15625,-0.125 -9.25,-9.25 z"
       id="path3021" />
    <path
       style="font-size:medium;font-style:normal;font-variant:normal;font-weight:normal;font-stretch:normal;text-indent:0;text-align:start;text-decoration:none;line-height:normal;letter-spacing:normal;word-spacing:normal;text-transform:none;direction:ltr;block-progression:tb;writing-mode:lr-tb;text-anchor:start;baseline-shift:baseline;color:#000000;fill:#000000;fill-opacity:1;fill-rule:nonzero;stroke:none;stroke-width:1px;marker:none;visibility:visible;display:inline;overflow:visible;enable-background:accumulate;font-family:Sans;-inkscape-font-specification:Sans"
       d="m 55.28125,65.125 -0.125,0.15625 -4.25,4.25 -0.84375,0.84375 1.1875,0 4.25,0 0.5,0 0,-0.5 c 0.0064,-1.416573 0,-2.836664 0,-4.25 l 0,-0.5 -0.5,0 -0.21875,0 z"
       id="path4493" />
    <path
       style="font-size:medium;font-style:normal;font-variant:normal;font-weight:normal;font-stretch:normal;text-indent:0;text-align:start;text-decoration:none;line-height:normal;letter-spacing:normal;word-spacing:normal;text-transform:none;direction:ltr;block-progression:tb;writing-mode:lr-tb;text-anchor:start;baseline-shift:baseline;color:#000000;fill:#000000;fill-opacity:1;fill-rule:nonzero;stroke:none;stroke-width:1px;marker:none;visibility:visible;display:inline;overflow:visible;enable-background:accumulate;font-family:Sans;-inkscape-font-specification:Sans"
       d="m 55,66.8125 c 5.96e-4,0.852669 0.0025,1.711024 0,2.5625 l -2.53125,0 L 55,66.8125 z"
       id="path3025" />
    <path
       style="font-size:medium;font-style:normal;font-variant:normal;font-weight:normal;font-stretch:normal;text-indent:0;text-align:start;text-decoration:none;line-height:normal;letter-spacing:normal;word-spacing:normal;text-transform:none;direction:ltr;block-progression:tb;writing-mode:lr-tb;text-anchor:start;baseline-shift:baseline;color:#000000;fill:#000000;fill-opacity:1;stroke:none;stroke-width:1px;marker:none;visibility:visible;display:inline;overflow:visible;enable-background:accumulate;font-family:Sans;-inkscape-font-specification:Sans"
       d="m 23.84375,51.78125 0,1 5.84375,0 0,-1 -5.84375,0 z"
       id="path3795" />
    <path
       style="font-size:12px;fill-rule:evenodd;stroke-width:0.625;stroke-linejoin:round"
       d="m 18.992426,47.843552 12.018465,4.419494 -12.018465,4.419494 c 1.920048,-2.609267 1.908985,-6.179198 0,-8.838988 z"
       id="path4397" />
    <path
       style="font-size:medium;font-style:normal;font-variant:normal;font-weight:normal;font-stretch:normal;text-indent:0;text-align:start;text-decoration:none;line-height:normal;letter-spacing:normal;word-spacing:normal;text-transform:none;direction:ltr;block-progression:tb;writing-mode:lr-tb;text-anchor:start;baseline-shift:baseline;color:#000000;fill:#000000;fill-opacity:1;stroke:none;stroke-width:1px;marker:none;visibility:visible;display:inline;overflow:visible;enable-background:accumulate;font-family:Sans;-inkscape-font-specification:Sans"
       d="m 54.96875,17.125 0,5.8125 1,0 0,-5.8125 -1,0 z"
       id="path4241" />
    <path
       style="font-size:12px;fill-rule:evenodd;stroke-width:0.625;stroke-linejoin:round"
       d="M 59.921153,12.253813 55.501659,24.272278 51.082165,12.253813 c 2.609267,1.920048 6.179198,1.908985 8.838988,0 z"
       id="path4389" />
    <path
       style="font-size:12px;font-style:normal;font-weight:normal;line-height:125%;letter-spacing:0px;word-spacing:0px;fill:#000000;fill-opacity:1;stroke:none;font-family:Sans"
       d="M 27.40625 65.125 C 27.190977 65.11585 26.948006 65.141926 26.71875 65.1875 C 25.80724 65.369805 24.856583 65.955915 23.8125 67 C 22.771172 68.041326 22.153811 69.023234 21.96875 69.9375 C 21.78921 70.851765 22.025452 71.650452 22.71875 72.34375 C 23.412043 73.037043 24.213491 73.307296 25.125 73.125 C 26.042022 72.942695 27.021168 72.322572 28.0625 71.28125 C 29.106579 70.237161 29.726702 69.258017 29.90625 68.34375 C 30.091304 67.429485 29.849536 66.630799 29.15625 65.9375 C 28.636272 65.417531 28.052069 65.15245 27.40625 65.125 z M 27.34375 66.15625 C 27.786552 66.120516 28.176824 66.270582 28.5 66.59375 C 28.933649 67.027408 29.022414 67.577937 28.8125 68.21875 C 28.608094 68.859566 28.10073 69.586762 27.25 70.4375 C 26.402018 71.285474 25.643572 71.824088 25 72.03125 C 24.361942 72.238409 23.839901 72.121153 23.40625 71.6875 C 22.975357 71.256606 22.858099 70.734565 23.0625 70.09375 C 23.272419 69.452934 23.808271 68.691726 24.65625 67.84375 C 25.506983 66.993014 26.236941 66.488413 26.875 66.28125 C 27.035892 66.229461 27.196149 66.168161 27.34375 66.15625 z "
       id="path4335" />
    <path
       style="font-size:medium;font-style:normal;font-variant:normal;font-weight:normal;font-stretch:normal;text-indent:0;text-align:start;text-decoration:none;line-height:normal;letter-spacing:normal;word-spacing:normal;text-transform:none;direction:ltr;block-progression:tb;writing-mode:lr-tb;text-anchor:start;baseline-shift:baseline;color:#000000;fill:#000000;fill-opacity:1;stroke:none;stroke-width:1px;marker:none;visibility:visible;display:inline;overflow:visible;enable-background:accumulate;font-family:Sans;-inkscape-font-specification:Sans"
       d="M 28.9375,58.6875 28.21875,59.40625 50.34375,81.5 51.03125,80.78125 28.9375,58.6875 z"
       id="path4243" />
    <path
       style="font-size:12px;font-style:normal;font-weight:normal;line-height:125%;letter-spacing:0px;word-spacing:0px;fill:#000000;fill-opacity:1;stroke:none;font-family:Sans"
       d="m 27.604029,74.885134 0.874216,0.874216 -0.712631,0.712631 -2.00531,0.64634 -0.534474,-0.534474 1.665568,-0.986082 0.712631,-0.712631"
       id="path4337" />
    <path
       style="font-size:12px;font-style:normal;font-weight:normal;line-height:125%;letter-spacing:0px;word-spacing:0px;fill:#000000;fill-opacity:1;stroke:none;font-family:Sans"
       d="m 35.140516,72.154762 3.977476,3.977476 -0.356315,0.356315 -8.075105,3.583872 -0.874216,-0.874216 7.594493,-3.368425 -2.970678,-2.970677 0.704345,-0.704345"
       id="path4339" />
    <path
       style="font-size:12px;font-style:normal;font-weight:normal;line-height:125%;letter-spacing:0px;word-spacing:0px;fill:#000000;fill-opacity:1;stroke:none;font-family:Sans"
       d="m 36.08931,85.475163 3.824177,-8.54743 0.874217,0.874217 -3.248272,7.167742 7.171886,-3.244128 0.870072,0.870072 -8.543286,3.828321 -0.948794,-0.948794"
       id="path4341" />
    <path
       style="font-size:12px;font-style:normal;font-weight:normal;line-height:125%;letter-spacing:0px;word-spacing:0px;fill:#000000;fill-opacity:1;stroke:none;font-family:Sans"
       d="m 20.132602,32.644591 1.183594,0 0,8.748047 -1.183594,0 0,-8.748047"
       id="path4344" />
    <path
       style="font-size:26.00036621px;font-style:normal;font-weight:normal;line-height:125%;letter-spacing:0px;word-spacing:0px;baseline-shift:sub;fill:#000000;fill-opacity:1;stroke:none;font-family:Sans"
       d="M 23.25 38.09375 L 23.25 43.78125 L 25.3125 43.78125 C 25.94981 43.78125 26.435929 43.651762 26.78125 43.375 C 27.126563 43.098239 27.281245 42.695321 27.28125 42.1875 C 27.281245 41.801559 27.179491 41.506451 26.96875 41.25 C 26.76054 40.991014 26.472072 40.8 26.09375 40.71875 C 26.408594 40.667971 26.649993 40.549421 26.8125 40.34375 C 26.974993 40.138087 27.062496 39.847861 27.0625 39.5 C 27.062496 39.050585 26.911133 38.712508 26.59375 38.46875 C 26.276359 38.225002 25.805278 38.093756 25.21875 38.09375 L 23.25 38.09375 z M 24.03125 38.75 L 25.15625 38.75 C 25.532033 38.750005 25.817182 38.795316 26 38.9375 C 26.185352 39.079694 26.281246 39.306836 26.28125 39.59375 C 26.281246 39.883211 26.185351 40.107814 26 40.25 C 25.817182 40.389655 25.532033 40.437504 25.15625 40.4375 L 24.03125 40.4375 L 24.03125 38.75 z M 24.03125 41.0625 L 25.25 41.0625 C 25.66387 41.062503 25.989447 41.173633 26.1875 41.34375 C 26.388085 41.511333 26.468746 41.769528 26.46875 42.125 C 26.468746 42.477936 26.388085 42.733593 26.1875 42.90625 C 25.989447 43.07637 25.66387 43.15625 25.25 43.15625 L 24.03125 43.15625 L 24.03125 41.0625 z "
       id="path4346" />
    <path
       style="font-size:12px;font-style:normal;font-weight:normal;line-height:125%;letter-spacing:0px;word-spacing:0px;fill:#000000;fill-opacity:1;stroke:none;font-family:Sans"
       d="m 65.419888,83.425976 1.183594,0 0,8.748047 -1.183594,0 0,-8.748047"
       id="path4349" />
    <path
       style="font-size:26.00036621px;font-style:normal;font-weight:normal;line-height:125%;letter-spacing:0px;word-spacing:0px;baseline-shift:sub;fill:#000000;fill-opacity:1;stroke:none;font-family:Sans"
       d="m 68.546755,88.887712 3.595363,0 0,0.647471 -2.826017,0 0,1.683422 2.707949,0 0,0.64747 -2.707949,0 0,2.060478 2.894572,0 0,0.64747 -3.663918,0 0,-5.686311"
       id="path4351" />
    <path
       style="font-size:medium;font-style:normal;font-variant:normal;font-weight:normal;font-stretch:normal;text-indent:0;text-align:start;text-decoration:none;line-height:normal;letter-spacing:normal;word-spacing:normal;text-transform:none;direction:ltr;block-progression:tb;writing-mode:lr-tb;text-anchor:start;baseline-shift:baseline;color:#000000;fill:#000000;fill-opacity:1;stroke:none;stroke-width:1px;marker:none;visibility:visible;display:inline;overflow:visible;enable-background:accumulate;font-family:Sans;-inkscape-font-specification:Sans"
       d="m 54.96875,87.125 0,5.8125 1,0 0,-5.8125 -1,0 z"
       id="path4312" />
    <path
       style="font-size:12px;fill-rule:evenodd;stroke-width:0.625;stroke-linejoin:round"
       d="M 59.921153,82.253813 55.501659,94.272278 51.082165,82.253813 c 2.609267,1.920048 6.179198,1.908985 8.838988,0 z"
       id="path4377" />
    <path
       style="font-size:12px;font-style:normal;font-weight:normal;line-height:125%;letter-spacing:0px;word-spacing:0px;fill:#000000;fill-opacity:1;stroke:none;font-family:Sans"
       d="m 65.419888,11.425976 1.183594,0 0,8.748047 -1.183594,0 0,-8.748047"
       id="path4354" />
    <path
       style="font-size:26.00036621px;font-style:normal;font-weight:normal;line-height:125%;letter-spacing:0px;word-spacing:0px;baseline-shift:sub;fill:#000000;fill-opacity:1;stroke:none;font-family:Sans"
       d="m 72.804822,17.325707 0,0.811242 c -0.258992,-0.24121 -0.535754,-0.421486 -0.830285,-0.540828 -0.292,-0.119333 -0.603039,-0.179001 -0.933118,-0.179007 -0.650012,6e-6 -1.147675,0.199325 -1.49299,0.597958 -0.345319,0.396104 -0.517977,0.969939 -0.517976,1.721509 -10e-7,0.749036 0.172657,1.322871 0.517976,1.721508 0.345315,0.3961 0.842978,0.59415 1.49299,0.594149 0.330079,1e-6 0.641118,-0.05967 0.933118,-0.179006 0.294531,-0.119337 0.571293,-0.299613 0.830285,-0.540828 l 0,0.803625 c -0.269149,0.182815 -0.554797,0.319926 -0.856945,0.411333 -0.299618,0.09141 -0.617005,0.137112 -0.952162,0.137112 -0.860757,0 -1.538695,-0.262797 -2.033818,-0.78839 -0.495125,-0.528131 -0.742686,-1.247965 -0.742686,-2.159503 0,-0.914072 0.247561,-1.633906 0.742686,-2.159503 0.495123,-0.528127 1.173061,-0.792193 2.033818,-0.792199 0.340236,6e-6 0.660162,0.04571 0.959779,0.137111 0.302148,0.08887 0.585257,0.223446 0.849328,0.403717"
       id="path4356" />
    <path
       style="font-size:medium;font-style:normal;font-variant:normal;font-weight:normal;font-stretch:normal;text-indent:0;text-align:start;text-decoration:none;line-height:normal;letter-spacing:normal;word-spacing:normal;text-transform:none;direction:ltr;block-progression:tb;writing-mode:lr-tb;text-anchor:start;baseline-shift:baseline;color:#000000;fill:#000000;fill-opacity:1;stroke:none;stroke-width:1px;marker:none;visibility:visible;display:inline;overflow:visible;enable-background:accumulate;font-family:Sans;-inkscape-font-specification:Sans"
       d="m 63.5,32.5 0,36 1,0 0,-36 -1,0 z"
       id="path4324" />
    <path
       style="font-size:12px;font-style:normal;font-weight:normal;line-height:125%;letter-spacing:0px;word-spacing:0px;fill:#000000;fill-opacity:1;stroke:none;font-family:Sans"
       d="M 71.3125 46.5625 C 70.332029 46.562509 69.582029 46.941414 69.0625 47.71875 C 68.546874 48.492194 68.281249 49.617193 68.28125 51.09375 C 68.281249 52.566409 68.546874 53.691408 69.0625 54.46875 C 69.582029 55.242187 70.332029 55.625 71.3125 55.625 C 72.292964 55.625 73.046869 55.242187 73.5625 54.46875 C 74.082024 53.691408 74.343743 52.566409 74.34375 51.09375 C 74.343743 49.617193 74.082024 48.492194 73.5625 47.71875 C 73.046869 46.941414 72.292964 46.562509 71.3125 46.5625 z M 71.3125 47.5 C 71.925777 47.500008 72.382808 47.804695 72.6875 48.40625 C 72.996088 49.003912 73.156244 49.89063 73.15625 51.09375 C 73.156244 52.292971 72.996088 53.21094 72.6875 53.8125 C 72.382808 54.410158 71.925777 54.687501 71.3125 54.6875 C 70.703122 54.687501 70.246091 54.410158 69.9375 53.8125 C 69.63281 53.21094 69.468748 52.292971 69.46875 51.09375 C 69.468748 49.89063 69.63281 49.003912 69.9375 48.40625 C 70.246091 47.804695 70.703122 47.500008 71.3125 47.5 z "
       id="path4359" />
    <path
       style="font-size:12px;font-style:normal;font-weight:normal;line-height:125%;letter-spacing:0px;word-spacing:0px;fill:#000000;fill-opacity:1;stroke:none;font-family:Sans"
       d="m 76.546875,53.972709 1.236328,0 0,1.007812 -0.960937,1.875 -0.75586,0 0.480469,-1.875 0,-1.007812"
       id="path4361" />
    <path
       style="font-size:12px;font-style:normal;font-weight:normal;line-height:125%;letter-spacing:0px;word-spacing:0px;fill:#000000;fill-opacity:1;stroke:none;font-family:Sans"
       d="m 81.263672,54.464896 4.130859,0 0,0.996094 -5.554687,0 0,-0.996094 c 0.449217,-0.464842 1.060545,-1.087888 1.833984,-1.86914 0.77734,-0.785153 1.265621,-1.291012 1.464844,-1.517579 0.378902,-0.425776 0.642573,-0.785151 0.791015,-1.078125 0.152339,-0.296869 0.228511,-0.587884 0.228516,-0.873046 -5e-6,-0.464837 -0.164067,-0.843743 -0.492187,-1.136719 -0.324224,-0.292961 -0.748051,-0.439445 -1.271485,-0.439453 -0.371097,8e-6 -0.763674,0.06446 -1.177734,0.193359 -0.410158,0.128914 -0.849611,0.324226 -1.31836,0.585938 l 0,-1.195313 c 0.476562,-0.191398 0.921874,-0.335929 1.335938,-0.433594 0.41406,-0.09765 0.792966,-0.146475 1.136719,-0.146484 0.906245,9e-6 1.628901,0.226571 2.167968,0.679687 0.539057,0.453133 0.808588,1.058601 0.808594,1.816407 -6e-6,0.359381 -0.06837,0.701177 -0.205078,1.02539 -0.132818,0.320318 -0.376959,0.699224 -0.732422,1.136719 -0.09766,0.113285 -0.408208,0.44141 -0.93164,0.984375 -0.523442,0.539065 -1.261722,1.294924 -2.214844,2.267578"
       id="path4363" />
    <path
       style="font-size:12px;font-style:normal;font-weight:normal;line-height:125%;letter-spacing:0px;word-spacing:0px;fill:#000000;fill-opacity:1;stroke:none;font-family:Sans"
       d="m 90.035156,55.46099 -3.339844,-8.748047 1.236329,0 2.771484,7.365234 2.777344,-7.365234 1.230468,0 -3.333984,8.748047 -1.341797,0"
       id="path4365" />
  </g>
</svg>
