<?xml version="1.0" encoding="UTF-8" standalone="no"?>
<!-- Created with Inkscape (http://www.inkscape.org/) -->

<svg
   xmlns:dc="http://purl.org/dc/elements/1.1/"
   xmlns:cc="http://creativecommons.org/ns#"
   xmlns:rdf="http://www.w3.org/1999/02/22-rdf-syntax-ns#"
   xmlns:svg="http://www.w3.org/2000/svg"
   xmlns="http://www.w3.org/2000/svg"
   xmlns:sodipodi="http://sodipodi.sourceforge.net/DTD/sodipodi-0.dtd"
   xmlns:inkscape="http://www.inkscape.org/namespaces/inkscape"
   width="70"
   height="113"
   id="svg2"
   version="1.1"
   inkscape:version="0.48.0 r9654"
   sodipodi:docname="2011-(04)apr-08, 01.svg">
  <defs
     id="defs4" />
  <sodipodi:namedview
     id="base"
     pagecolor="#ffffff"
     bordercolor="#666666"
     borderopacity="1.0"
     inkscape:pageopacity="0.0"
     inkscape:pageshadow="2"
     inkscape:zoom="1.4142136"
     inkscape:cx="-41.496475"
     inkscape:cy="75.50279"
     inkscape:document-units="px"
     inkscape:current-layer="layer1"
     showgrid="false"
     inkscape:window-width="1589"
     inkscape:window-height="1117"
     inkscape:window-x="1600"
     inkscape:window-y="27"
     inkscape:window-maximized="1"
     showguides="true"
     inkscape:guide-bbox="true" />
  <metadata
     id="metadata7">
    <rdf:RDF>
      <cc:Work
         rdf:about="">
        <dc:format>image/svg+xml</dc:format>
        <dc:type
           rdf:resource="http://purl.org/dc/dcmitype/StillImage" />
        <dc:title />
      </cc:Work>
    </rdf:RDF>
  </metadata>
  <g
     inkscape:label="Layer 1"
     inkscape:groupmode="layer"
     id="layer1">
    <rect
       style="fill:#0000ff;fill-rule:evenodd;stroke:#000000;stroke-width:1px;stroke-linecap:butt;stroke-linejoin:miter;stroke-opacity:1"
       id="rect3007"
       width="58"
       height="0"
       x="-310.5"
       y="119.5" />
    <path
       style="font-size:medium;font-style:normal;font-variant:normal;font-weight:normal;font-stretch:normal;text-indent:0;text-align:start;text-decoration:none;line-height:normal;letter-spacing:normal;word-spacing:normal;text-transform:none;direction:ltr;block-progression:tb;writing-mode:lr-tb;text-anchor:start;baseline-shift:baseline;color:#000000;fill:#000000;fill-opacity:1;stroke:none;stroke-width:1px;marker:none;visibility:visible;display:inline;overflow:visible;enable-background:accumulate;font-family:Sans;-inkscape-font-specification:Sans"
       d="m 52.96875,38.9375 0,35.0625 1,0 0,-35.0625 -1,0 z"
       id="path3012" />
    <path
       style="font-size:medium;font-style:normal;font-variant:normal;font-weight:normal;font-stretch:normal;text-indent:0;text-align:start;text-decoration:none;line-height:normal;letter-spacing:normal;word-spacing:normal;text-transform:none;direction:ltr;block-progression:tb;writing-mode:lr-tb;text-anchor:start;baseline-shift:baseline;color:#000000;fill:#000000;fill-opacity:1;stroke:none;stroke-width:1px;marker:none;visibility:visible;display:inline;overflow:visible;enable-background:accumulate;font-family:Sans;-inkscape-font-specification:Sans"
       d="m 2.125,55.40625 0,1 51.15625,0 0,-1 -51.15625,0 z"
       id="path3014" />
    <path
       style="font-size:medium;font-style:normal;font-variant:normal;font-weight:normal;font-stretch:normal;text-indent:0;text-align:start;text-decoration:none;line-height:normal;letter-spacing:normal;word-spacing:normal;text-transform:none;direction:ltr;block-progression:tb;writing-mode:lr-tb;text-anchor:start;baseline-shift:baseline;color:#000000;fill:#000000;fill-opacity:1;stroke:none;stroke-width:1px;marker:none;visibility:visible;display:inline;overflow:visible;enable-background:accumulate;font-family:Sans;-inkscape-font-specification:Sans"
       d="m 65.15625,4.21875 0,32 L 53.1875,48.15625 53.90625,48.875 66,36.75 l 0.15625,-0.15625 0,-0.1875 0,-32.1875 -1,0 z"
       id="path3020" />
    <path
       style="font-size:medium;font-style:normal;font-variant:normal;font-weight:normal;font-stretch:normal;text-indent:0;text-align:start;text-decoration:none;line-height:normal;letter-spacing:normal;word-spacing:normal;text-transform:none;direction:ltr;block-progression:tb;writing-mode:lr-tb;text-anchor:start;baseline-shift:baseline;color:#000000;fill:#000000;fill-opacity:1;stroke:none;stroke-width:1px;marker:none;visibility:visible;display:inline;overflow:visible;enable-background:accumulate;font-family:Sans;-inkscape-font-specification:Sans"
       d="m 53.90625,64.75 -0.71875,0.71875 11.96875,11.9375 0,32 1,0 0,-32.1875 0,-0.21875 L 66,76.875 53.90625,64.75 z"
       id="path3022" />
    <path
       style="font-size:medium;font-style:normal;font-variant:normal;font-weight:normal;font-stretch:normal;text-indent:0;text-align:start;text-decoration:none;line-height:normal;letter-spacing:normal;word-spacing:normal;text-transform:none;direction:ltr;block-progression:tb;writing-mode:lr-tb;text-anchor:start;baseline-shift:baseline;color:#000000;fill:#000000;fill-opacity:1;fill-rule:nonzero;stroke:none;stroke-width:1px;marker:none;visibility:visible;display:inline;overflow:visible;enable-background:accumulate;font-family:Sans;-inkscape-font-specification:Sans"
       d="m 66.15625,69.59375 -0.84375,0.84375 -6.40625,6.40625 -0.84375,0.84375 1.21875,0 6.3125,0 0.125,0 0.125,-0.0625 0.03125,-0.03125 0.28125,-0.125 0,-0.3125 0,-6.375 0,-1.1875 z"
       id="path3877" />
    <path
       style="font-size:medium;font-style:normal;font-variant:normal;font-weight:normal;font-stretch:normal;text-indent:0;text-align:start;text-decoration:none;line-height:normal;letter-spacing:normal;word-spacing:normal;text-transform:none;direction:ltr;block-progression:tb;writing-mode:lr-tb;text-anchor:start;baseline-shift:baseline;color:#000000;fill:#000000;fill-opacity:1;fill-rule:nonzero;stroke:none;stroke-width:1px;marker:none;visibility:visible;display:inline;overflow:visible;enable-background:accumulate;font-family:Sans;-inkscape-font-specification:Sans"
       d="m 65.15625,72 0,4.6875 -4.6875,0 L 65.15625,72 z"
       id="path3030" />
    <path
       style="font-size:12px;font-style:normal;font-weight:normal;line-height:125%;letter-spacing:0px;word-spacing:0px;fill:#000000;fill-opacity:1;stroke:none;font-family:Sans"
       d="m 3.65625,43.05806 0,8.75 3.125,0 c 0.9804634,0 1.7499939,-0.230468 2.28125,-0.65625 0.5312429,-0.42578 0.7812426,-1.031248 0.78125,-1.8125 C 9.8437426,48.745563 9.6992115,48.265095 9.375,47.87056 9.0546809,47.472127 8.5820251,47.214315 8,47.08931 8.4843689,47.01119 8.8749936,46.811971 9.125,46.49556 9.3749931,46.17916 9.4999929,45.749473 9.5,45.21431 9.4999929,44.522911 9.2382744,43.995568 8.75,43.62056 8.2617129,43.245569 7.5585886,43.058069 6.65625,43.05806 l -3,0 z m 1.1875,0.96875 1.75,0 c 0.5781204,8e-6 0.9999949,0.09376 1.28125,0.3125 0.2851506,0.218758 0.4374942,0.5586 0.4375,1 -5.8e-6,0.445318 -0.1523494,0.781256 -0.4375,1 -0.2812551,0.214849 -0.7031296,0.312505 -1.28125,0.3125 l -1.75,0 0,-2.625 z m 0,3.59375 1.875,0 c 0.6367139,4e-6 1.1015571,0.144535 1.40625,0.40625 0.3085878,0.257816 0.4687439,0.640628 0.46875,1.1875 -6.1e-6,0.542971 -0.1601622,0.953126 -0.46875,1.21875 -0.3046929,0.261719 -0.7695361,0.406251 -1.40625,0.40625 l -1.875,0 0,-3.21875 z"
       id="path3811"
       inkscape:connector-curvature="0" />
    <path
       style="font-size:12px;font-style:normal;font-weight:normal;line-height:125%;letter-spacing:0px;word-spacing:0px;fill:#000000;fill-opacity:1;stroke:none;font-family:Sans"
       d="m 4.7246094,63.377006 -1.2363281,0 0,-1.013672 0.9609374,-1.869141 0.7558594,0 -0.4804687,1.869141 0,1.013672"
       id="path3867" />
    <path
       style="font-size:12px;font-style:normal;font-weight:normal;line-height:125%;letter-spacing:0px;word-spacing:0px;fill:#000000;fill-opacity:1;stroke:none;font-family:Sans"
       d="m 7.1269531,63.377006 -1.2363281,0 0,-1.013672 0.9609375,-1.869141 0.7558594,0 -0.4804688,1.869141 0,1.013672"
       id="path3813" />
    <path
       style="font-size:12px;font-style:normal;font-weight:normal;line-height:125%;letter-spacing:0px;word-spacing:0px;fill:#000000;fill-opacity:1;stroke:none;font-family:Sans"
       d="M 9.46875 60.5 L 9.46875 69.25 L 12.625 69.25 C 13.605463 69.25 14.343744 69.019532 14.875 68.59375 C 15.406243 68.16797 15.687493 67.562502 15.6875 66.78125 C 15.687493 66.187503 15.511711 65.707035 15.1875 65.3125 C 14.867181 64.914067 14.425775 64.656255 13.84375 64.53125 C 14.328119 64.45313 14.687493 64.253911 14.9375 63.9375 C 15.187493 63.6211 15.312493 63.191413 15.3125 62.65625 C 15.312493 61.964851 15.082024 61.437508 14.59375 61.0625 C 14.105463 60.687509 13.402339 60.500009 12.5 60.5 L 9.46875 60.5 z M 10.65625 61.46875 L 12.40625 61.46875 C 12.98437 61.468758 13.437495 61.562508 13.71875 61.78125 C 14.003901 62.000008 14.124994 62.33985 14.125 62.78125 C 14.124994 63.226568 14.003901 63.562506 13.71875 63.78125 C 13.437495 63.996099 12.98437 64.093755 12.40625 64.09375 L 10.65625 64.09375 L 10.65625 61.46875 z M 10.65625 65.0625 L 12.5625 65.0625 C 13.199214 65.062504 13.664057 65.207035 13.96875 65.46875 C 14.277337 65.726566 14.437494 66.109378 14.4375 66.65625 C 14.437494 67.199221 14.277337 67.609376 13.96875 67.875 C 13.664057 68.136719 13.199214 68.281251 12.5625 68.28125 L 10.65625 68.28125 L 10.65625 65.0625 z "
       id="path3815" />
    <path
       style="font-size:12px;font-style:normal;font-weight:normal;line-height:125%;letter-spacing:0px;word-spacing:0px;fill:#000000;fill-opacity:1;stroke:none;font-family:Sans"
       d="M 19.96875 62.53125 C 19.617184 62.531257 19.246091 62.54688 18.875 62.625 C 18.503905 62.699226 18.11328 62.816413 17.71875 62.96875 L 17.71875 63.96875 C 18.046873 63.789068 18.39453 63.65235 18.75 63.5625 C 19.105467 63.472664 19.468747 63.437506 19.84375 63.4375 C 20.433589 63.437506 20.894527 63.570318 21.21875 63.84375 C 21.54687 64.113286 21.718745 64.503911 21.71875 65 L 21.71875 65.09375 L 20.21875 65.09375 C 19.238279 65.093754 18.496092 65.281254 18 65.65625 C 17.507812 66.031253 17.249999 66.605471 17.25 67.34375 C 17.249999 67.976563 17.449218 68.464844 17.84375 68.84375 C 18.242186 69.21875 18.765623 69.40625 19.4375 69.40625 C 19.968746 69.40625 20.445309 69.3125 20.8125 69.125 C 21.179683 68.933594 21.472651 68.648438 21.71875 68.25 L 21.71875 69.25 L 22.78125 69.25 L 22.78125 65.5 C 22.781244 64.500005 22.562494 63.742193 22.09375 63.25 C 21.624995 62.757819 20.917964 62.531257 19.96875 62.53125 z M 20.65625 65.9375 L 21.71875 65.9375 L 21.71875 66.1875 C 21.718745 66.890628 21.550776 67.44922 21.1875 67.875 C 20.828121 68.296876 20.347653 68.500001 19.75 68.5 C 19.316404 68.500001 18.972654 68.410157 18.71875 68.1875 C 18.468748 67.960938 18.343748 67.632814 18.34375 67.25 C 18.343748 66.769534 18.507811 66.449221 18.84375 66.25 C 19.179685 66.050782 19.785153 65.937503 20.65625 65.9375 z "
       id="path3817" />
    <path
       style="font-size:12px;font-style:normal;font-weight:normal;line-height:125%;letter-spacing:0px;word-spacing:0px;fill:#000000;fill-opacity:1;stroke:none;font-family:Sans"
       d="m 29.205078,62.873099 0,1.019532 c -0.304692,-0.156245 -0.621098,-0.273432 -0.949219,-0.351563 -0.328129,-0.07812 -0.667972,-0.117182 -1.019531,-0.117187 -0.535159,5e-6 -0.937502,0.08204 -1.207031,0.246093 -0.265627,0.164068 -0.398439,0.410162 -0.398438,0.738282 -1e-6,0.250004 0.0957,0.44727 0.28711,0.591796 0.191404,0.14063 0.576169,0.275395 1.154297,0.404297 l 0.36914,0.08203 c 0.765621,0.164066 1.308589,0.396487 1.628906,0.697265 0.324214,0.296878 0.486323,0.712893 0.486329,1.248047 -6e-6,0.609376 -0.242193,1.091798 -0.726563,1.447266 -0.480473,0.355468 -1.142582,0.533203 -1.986328,0.533203 -0.351565,0 -0.718752,-0.03516 -1.101563,-0.105469 -0.378907,-0.06641 -0.779297,-0.167969 -1.201171,-0.304687 l 0,-1.113282 c 0.398436,0.207033 0.791014,0.363283 1.177734,0.46875 0.386717,0.101564 0.769529,0.152345 1.148437,0.152344 0.50781,10e-7 0.898434,-0.08594 1.171875,-0.257812 0.273434,-0.175781 0.410152,-0.421874 0.410157,-0.738282 -5e-6,-0.292966 -0.09961,-0.517576 -0.298828,-0.673828 -0.195317,-0.156247 -0.626957,-0.306638 -1.294922,-0.451172 l -0.375,-0.08789 C 25.812498,66.16021 25.330077,65.945366 25.033203,65.6563 24.736327,65.363336 24.58789,64.962945 24.587891,64.455129 c -10e-7,-0.617183 0.218749,-1.093745 0.65625,-1.429688 0.437498,-0.335931 1.058591,-0.503899 1.863281,-0.503906 0.398434,7e-6 0.773433,0.0293 1.125,0.08789 0.351558,0.0586 0.675776,0.146491 0.972656,0.263672"
       id="path3819" />
    <path
       style="font-size:12px;font-style:normal;font-weight:normal;line-height:125%;letter-spacing:0px;word-spacing:0px;fill:#000000;fill-opacity:1;stroke:none;font-family:Sans"
       d="m 31.648437,60.494193 1.236329,0 0,1.007813 -0.960938,1.875 -0.755859,0 0.480468,-1.875 0,-1.007813"
       id="path3851" />
    <path
       style="font-size:12px;font-style:normal;font-weight:normal;line-height:125%;letter-spacing:0px;word-spacing:0px;fill:#000000;fill-opacity:1;stroke:none;font-family:Sans"
       d="m 34.050781,60.494193 1.236328,0 0,1.007813 -0.960937,1.875 -0.75586,0 0.480469,-1.875 0,-1.007813"
       id="path3821" />
  </g>
</svg>
