<?xml version="1.0" encoding="UTF-8" standalone="no"?>
<!-- Created with Inkscape (http://www.inkscape.org/) -->

<svg
   xmlns:dc="http://purl.org/dc/elements/1.1/"
   xmlns:cc="http://creativecommons.org/ns#"
   xmlns:rdf="http://www.w3.org/1999/02/22-rdf-syntax-ns#"
   xmlns:svg="http://www.w3.org/2000/svg"
   xmlns="http://www.w3.org/2000/svg"
   xmlns:sodipodi="http://sodipodi.sourceforge.net/DTD/sodipodi-0.dtd"
   xmlns:inkscape="http://www.inkscape.org/namespaces/inkscape"
   width="145"
   height="95"
   id="svg2"
   version="1.1"
   inkscape:version="0.48.0 r9654"
   sodipodi:docname="2011-(03)mar-25, 05.svg">
  <defs
     id="defs4" />
  <sodipodi:namedview
     id="base"
     pagecolor="#ffffff"
     bordercolor="#666666"
     borderopacity="1.0"
     inkscape:pageopacity="0.0"
     inkscape:pageshadow="2"
     inkscape:zoom="0.99999996"
     inkscape:cx="18.787509"
     inkscape:cy="-46.224067"
     inkscape:document-units="px"
     inkscape:current-layer="layer1"
     showgrid="false"
     inkscape:window-width="1589"
     inkscape:window-height="1117"
     inkscape:window-x="1600"
     inkscape:window-y="27"
     inkscape:window-maximized="1"
     showguides="true"
     inkscape:guide-bbox="true" />
  <metadata
     id="metadata7">
    <rdf:RDF>
      <cc:Work
         rdf:about="">
        <dc:format>image/svg+xml</dc:format>
        <dc:type
           rdf:resource="http://purl.org/dc/dcmitype/StillImage" />
        <dc:title />
      </cc:Work>
    </rdf:RDF>
  </metadata>
  <g
     inkscape:label="Layer 1"
     inkscape:groupmode="layer"
     id="layer1">
    <rect
       style="fill:#0000ff;fill-rule:evenodd;stroke:#000000;stroke-width:1px;stroke-linecap:butt;stroke-linejoin:miter;stroke-opacity:1"
       id="rect3007"
       width="58"
       height="0"
       x="-332.76865"
       y="92.524239" />
    <rect
       style="fill:#0000ff;fill-rule:evenodd;stroke:#000000;stroke-width:1px;stroke-linecap:butt;stroke-linejoin:miter;stroke-opacity:1"
       id="rect3007-3"
       width="58"
       height="0"
       x="-269.32855"
       y="113.73582" />
    <path
       style="font-size:medium;font-style:normal;font-variant:normal;font-weight:normal;font-stretch:normal;text-indent:0;text-align:start;text-decoration:none;line-height:normal;letter-spacing:normal;word-spacing:normal;text-transform:none;direction:ltr;block-progression:tb;writing-mode:lr-tb;text-anchor:start;baseline-shift:baseline;color:#000000;fill:#000000;fill-opacity:1;stroke:none;stroke-width:1;marker:none;visibility:visible;display:inline;overflow:visible;enable-background:accumulate;font-family:Sans;-inkscape-font-specification:Sans"
       d="m 128.03125,16.53125 c -2.60356,0 -4.71875,2.115197 -4.71875,4.71875 0,2.603554 2.11519,4.71875 4.71875,4.71875 2.60355,0 4.71875,-2.115196 4.71875,-4.71875 0,-2.603553 -2.1152,-4.71875 -4.71875,-4.71875 z m 0,1 c 2.06311,0 3.71875,1.655637 3.71875,3.71875 0,2.063114 -1.65564,3.71875 -3.71875,3.71875 -2.06312,0 -3.71875,-1.655636 -3.71875,-3.71875 0,-2.063113 1.65563,-3.71875 3.71875,-3.71875 z"
       id="path4399"
       inkscape:connector-curvature="0" />
    <path
       style="font-size:medium;font-style:normal;font-variant:normal;font-weight:normal;font-stretch:normal;text-indent:0;text-align:start;text-decoration:none;line-height:normal;letter-spacing:normal;word-spacing:normal;text-transform:none;direction:ltr;block-progression:tb;writing-mode:lr-tb;text-anchor:start;baseline-shift:baseline;color:#000000;fill:#000000;fill-opacity:1;stroke:none;stroke-width:1;marker:none;visibility:visible;display:inline;overflow:visible;enable-background:accumulate;font-family:Sans;-inkscape-font-specification:Sans"
       d="m 127.78125,81.78125 c -2.60356,0 -4.71875,2.115197 -4.71875,4.71875 0,2.603554 2.11519,4.71875 4.71875,4.71875 2.60355,0 4.71875,-2.115196 4.71875,-4.71875 0,-2.603553 -2.1152,-4.71875 -4.71875,-4.71875 z m 0,1 c 2.06311,0 3.71875,1.655637 3.71875,3.71875 0,2.063114 -1.65564,3.71875 -3.71875,3.71875 -2.06312,0 -3.71875,-1.655636 -3.71875,-3.71875 0,-2.063113 1.65563,-3.71875 3.71875,-3.71875 z"
       id="path4403"
       inkscape:connector-curvature="0" />
    <path
       style="font-size:medium;font-style:normal;font-variant:normal;font-weight:normal;font-stretch:normal;text-indent:0;text-align:start;text-decoration:none;line-height:normal;letter-spacing:normal;word-spacing:normal;text-transform:none;direction:ltr;block-progression:tb;writing-mode:lr-tb;text-anchor:start;baseline-shift:baseline;color:#000000;fill:#000000;fill-opacity:1;stroke:none;stroke-width:1px;marker:none;visibility:visible;display:inline;overflow:visible;enable-background:accumulate;font-family:Sans;-inkscape-font-specification:Sans"
       d="m 127.40625,29.1875 0,49 1,0 0,-49 -1,0 z"
       id="path3020"
       inkscape:connector-curvature="0" />
    <path
       style="font-size:12px;font-style:normal;font-weight:normal;line-height:125%;letter-spacing:0px;word-spacing:0px;fill:#000000;fill-opacity:1;stroke:none;font-family:Sans"
       d="m 138.4375,18.40625 c -0.35156,7e-6 -0.72266,0.01563 -1.09375,0.09375 -0.3711,0.07423 -0.76172,0.191413 -1.15625,0.34375 l 0,1 c 0.32813,-0.179682 0.67578,-0.3164 1.03125,-0.40625 0.35547,-0.08984 0.71874,-0.124994 1.09375,-0.125 0.58984,6e-6 1.05078,0.132818 1.375,0.40625 0.32812,0.269536 0.49999,0.660161 0.5,1.15625 l 0,0.09375 -1.5,0 c -0.98047,4e-6 -1.72265,0.187504 -2.21875,0.5625 -0.49218,0.375003 -0.75,0.949221 -0.75,1.6875 0,0.632813 0.19922,1.121094 0.59375,1.5 0.39844,0.375 0.92187,0.5625 1.59375,0.5625 0.53125,0 0.97656,-0.09375 1.34375,-0.28125 0.36719,-0.191406 0.6914,-0.476562 0.9375,-0.875 l 0,1 1.0625,0 0,-3.75 c 0,-0.999995 -0.21876,-1.757807 -0.6875,-2.25 -0.46876,-0.492181 -1.17578,-0.718743 -2.125,-0.71875 z m 0.6875,3.40625 1.0625,0 0,0.25 c -1e-5,0.703128 -0.19922,1.26172 -0.5625,1.6875 -0.35937,0.421876 -0.8086,0.625001 -1.40625,0.625 -0.4336,1e-6 -0.77735,-0.08984 -1.03125,-0.3125 -0.25,-0.226562 -0.375,-0.554686 -0.375,-0.9375 0,-0.480466 0.16406,-0.800779 0.5,-1 0.33594,-0.199218 0.9414,-0.312497 1.8125,-0.3125 z"
       id="path4365"
       inkscape:connector-curvature="0" />
    <path
       style="font-size:12px;font-style:normal;font-weight:normal;line-height:125%;letter-spacing:0px;word-spacing:0px;fill:#000000;fill-opacity:1;stroke:none;font-family:Sans"
       d="m 138.3125,81.75 0,9.125 1.09375,0 0,-1 c 0.22656,0.390626 0.5,0.683594 0.84375,0.875 0.34765,0.1875 0.76953,0.28125 1.25,0.28125 0.79687,0 1.4414,-0.304687 1.9375,-0.9375 0.5,-0.632811 0.75,-1.468747 0.75,-2.5 0,-1.031245 -0.25,-1.867183 -0.75,-2.5 -0.4961,-0.632807 -1.14063,-0.937493 -1.9375,-0.9375 -0.48047,7e-6 -0.90235,0.08985 -1.25,0.28125 -0.34375,0.187506 -0.61719,0.484381 -0.84375,0.875 l 0,-3.5625 -1.09375,0 z m 2.9375,3.3125 c 0.57031,5e-6 1.01953,0.203131 1.34375,0.65625 0.32812,0.449223 0.46875,1.082036 0.46875,1.875 0,0.792972 -0.14063,1.421877 -0.46875,1.875 -0.32422,0.44922 -0.77344,0.656251 -1.34375,0.65625 -0.57032,10e-7 -1.01563,-0.20703 -1.34375,-0.65625 -0.32422,-0.453123 -0.5,-1.082028 -0.5,-1.875 0,-0.792964 0.17578,-1.425777 0.5,-1.875 0.32812,-0.453119 0.77343,-0.656245 1.34375,-0.65625 z"
       id="path4369"
       inkscape:connector-curvature="0" />
    <path
       style="font-size:12px;font-style:normal;font-weight:normal;line-height:125%;letter-spacing:0px;word-spacing:0px;fill:#000000;fill-opacity:1;stroke:none;font-family:Sans"
       d="m 135.11742,26.355445 0,3.263672 3.26368,0 0,0.996094 -3.26368,0 0,3.263672 -0.98437,0 0,-3.263672 -3.26367,0 0,-0.996094 3.26367,0 0,-3.263672 0.98437,0"
       id="path3036"
       inkscape:connector-curvature="0" />
    <path
       style="font-size:12px;font-style:normal;font-weight:normal;line-height:125%;letter-spacing:0px;word-spacing:0px;fill:#000000;fill-opacity:1;stroke:none;font-family:Sans"
       d="m 135.48971,49.661428 1.18945,0 0,5.314453 c 0,0.937503 0.16992,1.613283 0.50977,2.027344 0.33984,0.410157 0.89062,0.615235 1.65234,0.615234 0.75781,10e-7 1.30664,-0.205077 1.64649,-0.615234 0.33983,-0.414061 0.50975,-1.089841 0.50976,-2.027344 l 0,-5.314453 1.18945,0 0,5.460938 c 0,1.140627 -0.28321,2.001954 -0.84961,2.583984 -0.5625,0.582031 -1.39453,0.873047 -2.49609,0.873047 -1.10547,0 -1.94141,-0.291016 -2.50781,-0.873047 -0.5625,-0.58203 -0.84375,-1.443357 -0.84375,-2.583984 l 0,-5.460938"
       id="path3038"
       inkscape:connector-curvature="0" />
    <path
       style="font-size:medium;font-style:normal;font-variant:normal;font-weight:normal;font-stretch:normal;text-indent:0;text-align:start;text-decoration:none;line-height:normal;letter-spacing:normal;word-spacing:normal;text-transform:none;direction:ltr;block-progression:tb;writing-mode:lr-tb;text-anchor:start;baseline-shift:baseline;color:#000000;fill:#000000;fill-opacity:1;stroke:none;stroke-width:1;marker:none;visibility:visible;display:inline;overflow:visible;enable-background:accumulate;font-family:Sans;-inkscape-font-specification:Sans"
       d="m 49.75,15 0,0.5 0,11.25 0,0.5 0.5,0 22.5,0 0.5,0 0,-0.5 0,-11.25 0,-0.5 -0.5,0 -22.5,0 -0.5,0 z m 1,1 21.5,0 0,10.25 -21.5,0 0,-10.25 z"
       id="path4407"
       inkscape:connector-curvature="0" />
    <path
       style="font-size:medium;font-style:normal;font-variant:normal;font-weight:normal;font-stretch:normal;text-indent:0;text-align:start;text-decoration:none;line-height:normal;letter-spacing:normal;word-spacing:normal;text-transform:none;direction:ltr;block-progression:tb;writing-mode:lr-tb;text-anchor:start;baseline-shift:baseline;color:#000000;fill:#000000;fill-opacity:1;stroke:none;stroke-width:1px;marker:none;visibility:visible;display:inline;overflow:visible;enable-background:accumulate;font-family:Sans;-inkscape-font-specification:Sans"
       d="m 72.75,20.75 0,1 50.75,0 0,-1 -50.75,0 z"
       id="path3022"
       inkscape:connector-curvature="0" />
    <path
       style="font-size:medium;font-style:normal;font-variant:normal;font-weight:normal;font-stretch:normal;text-indent:0;text-align:start;text-decoration:none;line-height:normal;letter-spacing:normal;word-spacing:normal;text-transform:none;direction:ltr;block-progression:tb;writing-mode:lr-tb;text-anchor:start;baseline-shift:baseline;color:#000000;fill:#000000;fill-opacity:1;stroke:none;stroke-width:1px;marker:none;visibility:visible;display:inline;overflow:visible;enable-background:accumulate;font-family:Sans;-inkscape-font-specification:Sans"
       d="m 34.75,20.75 0,0.5 0,65.34375 0,0.5 0.5,0 88.46875,0 0,-1 -87.96875,0 0,-64.34375 14.46875,0 0,-1 -14.96875,0 -0.5,0 z"
       id="path3024"
       inkscape:connector-curvature="0" />
    <path
       style="font-size:medium;font-style:normal;font-variant:normal;font-weight:normal;font-stretch:normal;text-indent:0;text-align:start;text-decoration:none;line-height:normal;letter-spacing:normal;word-spacing:normal;text-transform:none;direction:ltr;block-progression:tb;writing-mode:lr-tb;text-anchor:start;baseline-shift:baseline;color:#000000;fill:#000000;fill-opacity:1;stroke:none;stroke-width:1;marker:none;visibility:visible;display:inline;overflow:visible;enable-background:accumulate;font-family:Sans;-inkscape-font-specification:Sans"
       d="m 35.25,41.25 c -6.483424,0 -11.75,5.266576 -11.75,11.75 0,6.483424 5.266576,11.75 11.75,11.75 C 41.733424,64.75 47,59.483424 47,53 47,46.516576 41.733424,41.25 35.25,41.25 z m 0,1 C 41.192984,42.25 46,47.057016 46,53 46,58.942984 41.192984,63.75 35.25,63.75 29.307016,63.75 24.5,58.942984 24.5,53 c 0,-5.942984 4.807016,-10.75 10.75,-10.75 z"
       id="path4411"
       inkscape:connector-curvature="0" />
    <path
       style="font-size:medium;font-style:normal;font-variant:normal;font-weight:normal;font-stretch:normal;text-indent:0;text-align:start;text-decoration:none;line-height:normal;letter-spacing:normal;word-spacing:normal;text-transform:none;direction:ltr;block-progression:tb;writing-mode:lr-tb;text-anchor:start;baseline-shift:baseline;color:#000000;fill:#000000;fill-opacity:1;stroke:none;stroke-width:1px;marker:none;visibility:visible;display:inline;overflow:visible;enable-background:accumulate;font-family:Sans;-inkscape-font-specification:Sans"
       d="m 18.957106,41.25 0,24.5 1,0 0,-24.5 -1,0 z"
       id="path3030"
       inkscape:connector-curvature="0" />
    <path
       style="font-size:12px;font-style:normal;font-weight:normal;line-height:125%;letter-spacing:0px;word-spacing:0px;fill:#000000;fill-opacity:1;stroke:none;font-family:Sans"
       d="m 13.0157,38.187552 0,3.263672 3.263672,0 0,0.996094 -3.263672,0 0,3.263672 -0.984375,0 0,-3.263672 -3.2636712,0 0,-0.996094 3.2636712,0 0,-3.263672 0.984375,0"
       id="path3043"
       inkscape:connector-curvature="0" />
    <path
       style="font-size:medium;font-style:normal;font-variant:normal;font-weight:normal;font-stretch:normal;text-indent:0;text-align:start;text-decoration:none;line-height:normal;letter-spacing:normal;word-spacing:normal;text-transform:none;direction:ltr;block-progression:tb;writing-mode:lr-tb;text-anchor:start;baseline-shift:baseline;color:#000000;fill:#000000;fill-opacity:1;stroke:none;stroke-width:1px;marker:none;visibility:visible;display:inline;overflow:visible;enable-background:accumulate;font-family:Sans;-inkscape-font-specification:Sans"
       d="m 98,20.75 0,1 6.5,0 0,-1 -6.5,0 z"
       id="path3051"
       inkscape:connector-curvature="0" />
    <path
       style="font-size:12px;fill-rule:evenodd;stroke-width:0.625;stroke-linejoin:round"
       d="m 93.809553,16.812885 12.018467,4.419494 -12.018467,4.419494 c 1.920048,-2.609267 1.908985,-6.179198 0,-8.838988 z"
       id="path4319"
       inkscape:connector-curvature="0" />
    <path
       style="font-size:12px;font-style:normal;font-weight:normal;line-height:125%;letter-spacing:0px;word-spacing:0px;fill:#000000;fill-opacity:1;stroke:none;font-family:Sans"
       d="m 2.7500756,48.837943 1.1894531,0 0,5.314453 c -2.3e-6,0.937503 0.1699194,1.613283 0.5097656,2.027344 0.3398407,0.410157 0.8906214,0.615235 1.6523437,0.615234 0.7578074,10e-7 1.306635,-0.205077 1.6464844,-0.615234 0.3398374,-0.414061 0.5097591,-1.089841 0.5097657,-2.027344 l 0,-5.314453 1.1894531,0 0,5.460938 c -7.8e-6,1.140627 -0.2832106,2.001954 -0.8496094,2.583984 -0.5625063,0.582031 -1.3945367,0.873047 -2.4960938,0.873047 -1.105472,0 -1.9414087,-0.291016 -2.5078124,-0.873047 -0.5625014,-0.58203 -0.8437511,-1.443357 -0.84375,-2.583984 l 0,-5.460938"
       id="path4309"
       inkscape:connector-curvature="0" />
    <path
       style="font-size:26.00036621px;font-style:normal;font-weight:normal;line-height:125%;letter-spacing:0px;word-spacing:0px;baseline-shift:sub;fill:#000000;fill-opacity:1;stroke:none;font-family:Sans"
       d="m 12.988356,54.1875 c -0.637316,6e-6 -1.131051,0.275975 -1.46875,0.78125 -0.335161,0.502746 -0.500001,1.227724 -0.5,2.1875 -10e-7,0.957242 0.164839,1.68222 0.5,2.1875 0.337699,0.502741 0.831434,0.75 1.46875,0.75 0.637311,0 1.102335,-0.247259 1.4375,-0.75 0.337696,-0.50528 0.499996,-1.230258 0.5,-2.1875 -4e-6,-0.959776 -0.162304,-1.684754 -0.5,-2.1875 -0.335165,-0.505275 -0.800189,-0.781244 -1.4375,-0.78125 z m 0,0.625 c 0.398636,5e-6 0.676947,0.202734 0.875,0.59375 0.200585,0.388487 0.312497,0.967961 0.3125,1.75 -3e-6,0.779505 -0.111915,1.358981 -0.3125,1.75 -0.198053,0.388483 -0.476364,0.593751 -0.875,0.59375 -0.396101,10e-7 -0.705663,-0.205267 -0.90625,-0.59375 -0.198055,-0.391019 -0.312501,-0.970495 -0.3125,-1.75 -10e-7,-0.782039 0.114449,-1.361513 0.3125,-1.75 0.200587,-0.391016 0.510149,-0.593745 0.90625,-0.59375 z"
       id="path4311"
       inkscape:connector-curvature="0" />
    <path
       style="font-size:12px;font-style:normal;font-weight:normal;line-height:125%;letter-spacing:0px;word-spacing:0px;fill:#000000;fill-opacity:1;stroke:none;font-family:Sans"
       d="m 55.4375,3.46875 0,8.75 1.1875,0 0,-3.71875 1.28125,0 c 0.468746,3.7e-6 0.824215,0.1210973 1.09375,0.3125 0.273433,0.1914095 0.554683,0.5703153 0.84375,1.15625 l 1.125,2.25 1.28125,0 L 61.03125,9.8125 C 60.789056,9.3203154 60.554681,8.9375033 60.3125,8.65625 60.074213,8.3750038 59.816401,8.210941 59.5625,8.125 c 0.488275,-0.1406207 0.871088,-0.4179643 1.125,-0.78125 0.257806,-0.3632761 0.374993,-0.8242131 0.375,-1.375 -7e-6,-0.8437429 -0.226569,-1.4570236 -0.71875,-1.875 -0.492193,-0.4179602 -1.250004,-0.6249913 -2.25,-0.625 l -2.65625,0 z m 1.1875,0.96875 1.46875,0 c 0.570308,7.8e-6 0.992183,0.1445389 1.28125,0.40625 0.292963,0.2578197 0.437494,0.613288 0.4375,1.125 -6e-6,0.5117245 -0.144537,0.9218804 -0.4375,1.1875 -0.289067,0.2617236 -0.710942,0.3750046 -1.28125,0.375 l -1.46875,0 0,-3.09375 z"
       id="path4379"
       inkscape:connector-curvature="0" />
    <path
       style="font-size:26.00036621px;font-style:normal;font-weight:normal;line-height:125%;letter-spacing:0px;word-spacing:0px;baseline-shift:sub;fill:#000000;fill-opacity:1;stroke:none;font-family:Sans"
       d="m 63.359288,8.9246796 0.769347,0 0,2.4032564 2.551794,-2.4032564 0.990248,0 -2.822208,2.6508184 3.024066,3.035492 -1.0131,0 -2.7308,-2.738417 0,2.738417 -0.769347,0 0,-5.6863104"
       id="path4288"
       inkscape:connector-curvature="0" />
    <path
       style="font-size:12px;font-style:normal;font-weight:normal;line-height:125%;letter-spacing:0px;word-spacing:0px;fill:#000000;fill-opacity:1;stroke:none;font-family:Sans"
       d="m 98.452805,5.4629433 1.183595,0 0,8.7480467 -1.183595,0 0,-8.7480467"
       id="path4290"
       inkscape:connector-curvature="0" />
  </g>
</svg>
