<?xml version="1.0" encoding="UTF-8" standalone="no"?>
<!-- Created with Inkscape (http://www.inkscape.org/) -->

<svg
   xmlns:dc="http://purl.org/dc/elements/1.1/"
   xmlns:cc="http://creativecommons.org/ns#"
   xmlns:rdf="http://www.w3.org/1999/02/22-rdf-syntax-ns#"
   xmlns:svg="http://www.w3.org/2000/svg"
   xmlns="http://www.w3.org/2000/svg"
   xmlns:sodipodi="http://sodipodi.sourceforge.net/DTD/sodipodi-0.dtd"
   xmlns:inkscape="http://www.inkscape.org/namespaces/inkscape"
   width="130"
   height="100"
   id="svg2"
   version="1.1"
   inkscape:version="0.48.0 r9654"
   sodipodi:docname="2011-(03)mar-25, 01.svg">
  <defs
     id="defs4" />
  <sodipodi:namedview
     id="base"
     pagecolor="#ffffff"
     bordercolor="#666666"
     borderopacity="1.0"
     inkscape:pageopacity="0.0"
     inkscape:pageshadow="2"
     inkscape:zoom="8"
     inkscape:cx="75.145271"
     inkscape:cy="50.894361"
     inkscape:document-units="px"
     inkscape:current-layer="layer1"
     showgrid="false"
     inkscape:window-width="1589"
     inkscape:window-height="1117"
     inkscape:window-x="1600"
     inkscape:window-y="27"
     inkscape:window-maximized="1"
     showguides="true"
     inkscape:guide-bbox="true" />
  <metadata
     id="metadata7">
    <rdf:RDF>
      <cc:Work
         rdf:about="">
        <dc:format>image/svg+xml</dc:format>
        <dc:type
           rdf:resource="http://purl.org/dc/dcmitype/StillImage" />
        <dc:title />
      </cc:Work>
    </rdf:RDF>
  </metadata>
  <g
     inkscape:label="Layer 1"
     inkscape:groupmode="layer"
     id="layer1">
    <rect
       style="fill:#0000ff;fill-rule:evenodd;stroke:#000000;stroke-width:1px;stroke-linecap:butt;stroke-linejoin:miter;stroke-opacity:1"
       id="rect3007"
       width="58"
       height="0"
       x="-332.76865"
       y="91.110023" />
    <rect
       style="fill:#0000ff;fill-rule:evenodd;stroke:#000000;stroke-width:1px;stroke-linecap:butt;stroke-linejoin:miter;stroke-opacity:1"
       id="rect3007-3"
       width="58"
       height="0"
       x="-269.32855"
       y="112.3216" />
    <path
       style="font-size:medium;font-style:normal;font-variant:normal;font-weight:normal;font-stretch:normal;text-indent:0;text-align:start;text-decoration:none;line-height:normal;letter-spacing:normal;word-spacing:normal;text-transform:none;direction:ltr;block-progression:tb;writing-mode:lr-tb;text-anchor:start;baseline-shift:baseline;color:#000000;fill:#000000;fill-opacity:1;stroke:none;stroke-width:1;marker:none;visibility:visible;display:inline;overflow:visible;enable-background:accumulate;font-family:Sans;-inkscape-font-specification:Sans"
       d="m 109.67678,6.8838835 c -3.03164,0 -5.5,2.468356 -5.5,5.5000015 0,3.031644 2.46836,5.5 5.5,5.5 3.03164,0 5.5,-2.468356 5.5,-5.5 0,-3.0316455 -2.46836,-5.5000015 -5.5,-5.5000015 z m 0,1 c 2.4912,0 4.5,2.008797 4.5,4.5000015 0,2.491203 -2.0088,4.5 -4.5,4.5 -2.4912,0 -4.5,-2.008797 -4.5,-4.5 0,-2.4912045 2.0088,-4.5000015 4.5,-4.5000015 z"
       id="path3101"
       inkscape:connector-curvature="0" />
    <path
       style="font-size:medium;font-style:normal;font-variant:normal;font-weight:normal;font-stretch:normal;text-indent:0;text-align:start;text-decoration:none;line-height:normal;letter-spacing:normal;word-spacing:normal;text-transform:none;direction:ltr;block-progression:tb;writing-mode:lr-tb;text-anchor:start;baseline-shift:baseline;color:#000000;fill:#000000;fill-opacity:1;stroke:none;stroke-width:1;marker:none;visibility:visible;display:inline;overflow:visible;enable-background:accumulate;font-family:Sans;-inkscape-font-specification:Sans"
       d="m 109.67678,84.883885 c -3.03164,0 -5.5,2.468356 -5.5,5.5 0,3.031644 2.46836,5.5 5.5,5.5 3.03164,0 5.5,-2.468356 5.5,-5.5 0,-3.031644 -2.46836,-5.5 -5.5,-5.5 z m 0,1 c 2.4912,0 4.5,2.008797 4.5,4.5 0,2.491203 -2.0088,4.5 -4.5,4.5 -2.4912,0 -4.5,-2.008797 -4.5,-4.5 0,-2.491203 2.0088,-4.5 4.5,-4.5 z"
       id="path3105"
       inkscape:connector-curvature="0" />
    <path
       style="font-size:medium;font-style:normal;font-variant:normal;font-weight:normal;font-stretch:normal;text-indent:0;text-align:start;text-decoration:none;line-height:normal;letter-spacing:normal;word-spacing:normal;text-transform:none;direction:ltr;block-progression:tb;writing-mode:lr-tb;text-anchor:start;baseline-shift:baseline;color:#000000;fill:#000000;fill-opacity:1;stroke:none;stroke-width:1px;marker:none;visibility:visible;display:inline;overflow:visible;enable-background:accumulate;font-family:Sans;-inkscape-font-specification:Sans"
       d="m 44.770527,11.633885 0,0.5 0,78.75 0,0.5 0.5,0 59.250003,0 0,-1 -58.750003,0 0,-77.75 20.1875,0 0,-1 -20.6875,0 -0.5,0 z"
       id="path3097"
       inkscape:connector-curvature="0" />
    <path
       style="font-size:medium;font-style:normal;font-variant:normal;font-weight:normal;font-stretch:normal;text-indent:0;text-align:start;text-decoration:none;line-height:normal;letter-spacing:normal;word-spacing:normal;text-transform:none;direction:ltr;block-progression:tb;writing-mode:lr-tb;text-anchor:start;baseline-shift:baseline;color:#000000;fill:#000000;fill-opacity:1;stroke:none;stroke-width:1px;marker:none;visibility:visible;display:inline;overflow:visible;enable-background:accumulate;font-family:Sans;-inkscape-font-specification:Sans"
       d="m 89.270527,11.633885 0,1 15.000003,0 0,-1 -15.000003,0 z"
       id="path3004"
       inkscape:connector-curvature="0" />
    <path
       style="font-size:medium;font-style:normal;font-variant:normal;font-weight:normal;font-stretch:normal;text-indent:0;text-align:start;text-decoration:none;line-height:normal;letter-spacing:normal;word-spacing:normal;text-transform:none;direction:ltr;block-progression:tb;writing-mode:lr-tb;text-anchor:start;baseline-shift:baseline;color:#000000;fill:#000000;fill-opacity:1;stroke:none;stroke-width:1;marker:none;visibility:visible;display:inline;overflow:visible;enable-background:accumulate;font-family:Sans;-inkscape-font-specification:Sans"
       d="m 65.176777,4.1338835 0,0.5 0,14.8750015 0,0.5 0.5,0 23.875,0 0.5,0 0,-0.5 0,-14.8750015 0,-0.5 -0.5,0 -23.875,0 -0.5,0 z m 1,1 22.875,0 0,13.8750015 -22.875,0 0,-13.8750015 z"
       id="path3109"
       inkscape:connector-curvature="0" />
    <path
       style="font-size:12px;font-style:normal;font-weight:normal;line-height:125%;letter-spacing:0px;word-spacing:0px;fill:#000000;fill-opacity:1;stroke:none;font-family:Sans"
       d="m 70.989277,22.790135 0,8.75 1.1875,0 0,-3.71875 1.28125,0 c 0.468746,4e-6 0.824215,0.121097 1.09375,0.3125 0.273433,0.191409 0.554683,0.570316 0.84375,1.15625 l 1.125,2.25 1.28125,0 -1.21875,-2.40625 c -0.242194,-0.492185 -0.476569,-0.874997 -0.71875,-1.15625 -0.238287,-0.281246 -0.464849,-0.47656 -0.71875,-0.5625 0.488275,-0.14062 0.839838,-0.386714 1.09375,-0.75 0.257806,-0.363276 0.406243,-0.824213 0.40625,-1.375 -7e-6,-0.843743 -0.257819,-1.457023 -0.75,-1.875 -0.492193,-0.41796 -1.250004,-0.624991 -2.25,-0.625 l -2.65625,0 z m 1.1875,0.96875 1.46875,0 c 0.570308,8e-6 1.023433,0.113289 1.3125,0.375 0.292963,0.25782 0.437494,0.644538 0.4375,1.15625 -6e-6,0.511725 -0.144537,0.92188 -0.4375,1.1875 -0.289067,0.261723 -0.742192,0.375005 -1.3125,0.375 l -1.46875,0 0,-3.09375 z"
       id="path3091"
       inkscape:connector-curvature="0" />
    <path
       style="font-size:26.00036621px;font-style:normal;font-weight:normal;line-height:125%;letter-spacing:0px;word-spacing:0px;baseline-shift:sub;fill:#000000;fill-opacity:1;stroke:none;font-family:Sans"
       d="m 78.915349,28.24362 0.769347,0 0,2.403257 2.551794,-2.403257 0.990248,0 -2.822208,2.650819 3.024066,3.035492 -1.0131,0 -2.7308,-2.738417 0,2.738417 -0.769347,0 0,-5.686311"
       id="path3038"
       inkscape:connector-curvature="0" />
    <path
       style="font-size:medium;font-style:normal;font-variant:normal;font-weight:normal;font-stretch:normal;text-indent:0;text-align:start;text-decoration:none;line-height:normal;letter-spacing:normal;word-spacing:normal;text-transform:none;direction:ltr;block-progression:tb;writing-mode:lr-tb;text-anchor:start;baseline-shift:baseline;color:#000000;fill:#000000;fill-opacity:1;stroke:none;stroke-width:1px;marker:none;visibility:visible;display:inline;overflow:visible;enable-background:accumulate;font-family:Sans;-inkscape-font-specification:Sans"
       d="m 108.92678,22.383885 0,58.34375 1,0 0,-58.34375 -1,0 z"
       id="path3022"
       inkscape:connector-curvature="0" />
    <path
       style="font-size:12px;font-style:normal;font-weight:normal;line-height:125%;letter-spacing:0px;word-spacing:0px;fill:#000000;fill-opacity:1;stroke:none;font-family:Sans"
       d="m 121.33303,9.2588835 c -0.35156,7e-6 -0.69141,0.04688 -1.0625,0.125 -0.3711,0.07423 -0.76172,0.160163 -1.15625,0.3125 l 0,1.0000005 c 0.32813,-0.179682 0.67578,-0.3164 1.03125,-0.40625 0.35547,-0.08984 0.71874,-0.124995 1.09375,-0.125001 0.58984,6e-6 1.05078,0.132819 1.375,0.406251 0.32812,0.269537 0.46874,0.660162 0.46875,1.156251 l 0,0.09375 -1.5,0 c -0.98047,4e-6 -1.72265,0.187504 -2.21875,0.5625 -0.49218,0.375003 -0.75,0.949221 -0.75,1.6875 0,0.632813 0.19922,1.121094 0.59375,1.5 0.39844,0.375 0.95312,0.5625 1.625,0.5625 0.53125,0 0.97655,-0.09375 1.34375,-0.28125 0.36718,-0.191406 0.66015,-0.476562 0.90625,-0.875 l 0,1 1.09375,0 0,-3.75 c 0,-0.999995 -0.25001,-1.757808 -0.71875,-2.2500015 -0.46876,-0.492181 -1.17578,-0.718743 -2.125,-0.71875 z m 0.6875,3.4062515 1.0625,0 0,0.25 c -10e-6,0.703128 -0.16798,1.26172 -0.53125,1.6875 -0.35938,0.421876 -0.83985,0.625001 -1.4375,0.625 -0.4336,1e-6 -0.77735,-0.08984 -1.03125,-0.3125 -0.25,-0.226562 -0.375,-0.554686 -0.375,-0.9375 0,-0.480466 0.16406,-0.800779 0.5,-1 0.33594,-0.199218 0.9414,-0.312497 1.8125,-0.3125 z"
       id="path3041"
       inkscape:connector-curvature="0" />
    <path
       style="font-size:12px;font-style:normal;font-weight:normal;line-height:125%;letter-spacing:0px;word-spacing:0px;fill:#000000;fill-opacity:1;stroke:none;font-family:Sans"
       d="m 118.70811,46.116381 1.18946,0 0,5.314453 c -1e-5,0.937503 0.16992,1.613283 0.50976,2.027344 0.33984,0.410157 0.89062,0.615235 1.65235,0.615234 0.7578,1e-6 1.30663,-0.205077 1.64648,-0.615234 0.33984,-0.414061 0.50976,-1.089841 0.50977,-2.027344 l 0,-5.314453 1.18945,0 0,5.460938 c -10e-6,1.140627 -0.28321,2.001954 -0.84961,2.583984 -0.56251,0.582031 -1.39454,0.873047 -2.49609,0.873047 -1.10548,0 -1.94141,-0.291016 -2.50782,-0.873047 -0.5625,-0.58203 -0.84375,-1.443357 -0.84375,-2.583984 l 0,-5.460938"
       id="path3043"
       inkscape:connector-curvature="0" />
    <path
       style="font-size:12px;font-style:normal;font-weight:normal;line-height:125%;letter-spacing:0px;word-spacing:0px;fill:#000000;fill-opacity:1;stroke:none;font-family:Sans"
       d="m 118.88207,85.518264 0,9.125 1.09375,0 0,-1 c 0.22656,0.390626 0.5,0.683594 0.84375,0.875 0.34766,0.1875 0.76953,0.28125 1.25,0.28125 0.79687,0 1.44141,-0.304687 1.9375,-0.9375 0.5,-0.632811 0.75,-1.468747 0.75,-2.5 0,-1.031245 -0.25,-1.867183 -0.75,-2.5 -0.49609,-0.632807 -1.14063,-0.937493 -1.9375,-0.9375 -0.48047,7e-6 -0.90234,0.08985 -1.25,0.28125 -0.34375,0.187506 -0.61719,0.484381 -0.84375,0.875 l 0,-3.5625 -1.09375,0 z m 2.90625,3.3125 c 0.57031,5e-6 1.01952,0.203131 1.34375,0.65625 0.32812,0.449223 0.5,1.082036 0.5,1.875 0,0.792972 -0.17188,1.421877 -0.5,1.875 -0.32423,0.44922 -0.77344,0.656251 -1.34375,0.65625 -0.57032,10e-7 -1.01562,-0.20703 -1.34375,-0.65625 -0.32422,-0.453123 -0.46876,-1.082028 -0.46875,-1.875 -1e-5,-0.792964 0.14453,-1.425777 0.46875,-1.875 0.32813,-0.453119 0.77343,-0.656245 1.34375,-0.65625 z"
       id="path3045"
       inkscape:connector-curvature="0" />
    <path
       style="font-size:12px;font-style:normal;font-weight:normal;line-height:125%;letter-spacing:0px;word-spacing:0px;fill:#000000;fill-opacity:1;stroke:none;font-family:Sans"
       d="m 117.31707,21.531593 0,3.263671 3.26367,0 0,0.996094 -3.26367,0 0,3.263672 -0.98438,0 0,-3.263672 -3.26367,0 0,-0.996094 3.26367,0 0,-3.263671 0.98438,0"
       id="path3047"
       inkscape:connector-curvature="0" />
    <path
       style="font-size:medium;font-style:normal;font-variant:normal;font-weight:normal;font-stretch:normal;text-indent:0;text-align:start;text-decoration:none;line-height:normal;letter-spacing:normal;word-spacing:normal;text-transform:none;direction:ltr;block-progression:tb;writing-mode:lr-tb;text-anchor:start;baseline-shift:baseline;color:#000000;fill:#000000;fill-opacity:1;stroke:none;stroke-width:1;marker:none;visibility:visible;display:inline;overflow:visible;enable-background:accumulate;font-family:Sans;-inkscape-font-specification:Sans"
       d="M 45.0625 35.6875 C 37.762843 35.6875 31.84375 41.606593 31.84375 48.90625 C 31.84375 56.205908 37.762843 62.125 45.0625 62.125 C 52.362158 62.125 58.3125 56.205908 58.3125 48.90625 C 58.3125 41.606593 52.362158 35.6875 45.0625 35.6875 z M 45.0625 36.6875 C 51.821718 36.6875 57.3125 42.147033 57.3125 48.90625 C 57.3125 55.665468 51.821718 61.125 45.0625 61.125 C 38.303283 61.125 32.84375 55.665468 32.84375 48.90625 C 32.84375 42.147033 38.303283 36.6875 45.0625 36.6875 z "
       id="path3126" />
    <path
       style="font-size:medium;font-style:normal;font-variant:normal;font-weight:normal;font-stretch:normal;text-indent:0;text-align:start;text-decoration:none;line-height:normal;letter-spacing:normal;word-spacing:normal;text-transform:none;direction:ltr;block-progression:tb;writing-mode:lr-tb;text-anchor:start;baseline-shift:baseline;color:#000000;fill:#000000;fill-opacity:1;stroke:none;stroke-width:1px;marker:none;visibility:visible;display:inline;overflow:visible;enable-background:accumulate;font-family:Sans;-inkscape-font-specification:Sans"
       d="m 25.125919,35.3125 0,27.90625 1,0 0,-27.90625 -1,0 z"
       id="path3129" />
    <path
       style="font-size:12px;font-style:normal;font-weight:normal;line-height:125%;letter-spacing:0px;word-spacing:0px;fill:#000000;fill-opacity:1;stroke:none;font-family:Sans"
       d="m 19.230518,32.068341 0,3.263671 3.26367,0 0,0.996094 -3.26367,0 0,3.263672 -0.98438,0 0,-3.263672 -3.26367,0 0,-0.996094 3.26367,0 0,-3.263671 0.98438,0"
       id="path3047-3" />
    <path
       style="font-size:12px;font-style:normal;font-weight:normal;line-height:125%;letter-spacing:0px;word-spacing:0px;fill:#000000;fill-opacity:1;stroke:none;font-family:Sans"
       d="m 3.3438256,43.822936 1.1894531,0 0,5.314453 c -2.3e-6,0.937503 0.1699194,1.613283 0.5097656,2.027344 0.3398407,0.410157 0.8906214,0.615235 1.6523437,0.615234 0.7578074,10e-7 1.306635,-0.205077 1.6464844,-0.615234 0.3398374,-0.414061 0.5097591,-1.089841 0.5097657,-2.027344 l 0,-5.314453 1.1894529,0 0,5.460938 c -8e-6,1.140627 -0.2832104,2.001954 -0.8496092,2.583984 -0.5625063,0.582031 -1.3945367,0.873047 -2.4960938,0.873047 -1.105472,0 -1.9414087,-0.291016 -2.5078124,-0.873047 -0.5625014,-0.58203 -0.8437511,-1.443357 -0.84375,-2.583984 l 0,-5.460938"
       id="path3164" />
    <path
       style="font-size:7.80010986px;font-style:normal;font-weight:normal;line-height:125%;letter-spacing:0px;word-spacing:0px;baseline-shift:sub;fill:#000000;fill-opacity:1;stroke:none;font-family:Sans"
       d="M 13.5625 49.1875 C 12.925184 49.187506 12.431449 49.432225 12.09375 49.9375 C 11.758589 50.440246 11.593749 51.165224 11.59375 52.125 C 11.593749 53.082242 11.758589 53.80722 12.09375 54.3125 C 12.431449 54.815241 12.925184 55.09375 13.5625 55.09375 C 14.199811 55.09375 14.696085 54.815241 15.03125 54.3125 C 15.368946 53.80722 15.531246 53.082242 15.53125 52.125 C 15.531246 51.165224 15.368946 50.440246 15.03125 49.9375 C 14.696085 49.432225 14.199811 49.187506 13.5625 49.1875 z M 13.5625 49.78125 C 13.961136 49.781255 14.270697 49.983984 14.46875 50.375 C 14.669335 50.763487 14.749997 51.342961 14.75 52.125 C 14.749997 52.904505 14.669335 53.483981 14.46875 53.875 C 14.270697 54.263483 13.961136 54.468751 13.5625 54.46875 C 13.166399 54.468751 12.888087 54.263483 12.6875 53.875 C 12.489445 53.483981 12.374999 52.904505 12.375 52.125 C 12.374999 51.342961 12.489449 50.763487 12.6875 50.375 C 12.888087 49.983984 13.166399 49.781255 13.5625 49.78125 z "
       id="path3166" />
  </g>
</svg>
