<?xml version="1.0" encoding="UTF-8" standalone="no"?>
<!-- Created with Inkscape (http://www.inkscape.org/) -->

<svg
   xmlns:dc="http://purl.org/dc/elements/1.1/"
   xmlns:cc="http://creativecommons.org/ns#"
   xmlns:rdf="http://www.w3.org/1999/02/22-rdf-syntax-ns#"
   xmlns:svg="http://www.w3.org/2000/svg"
   xmlns="http://www.w3.org/2000/svg"
   xmlns:sodipodi="http://sodipodi.sourceforge.net/DTD/sodipodi-0.dtd"
   xmlns:inkscape="http://www.inkscape.org/namespaces/inkscape"
   width="150"
   height="100"
   id="svg2"
   version="1.1"
   inkscape:version="0.48.0 r9654"
   sodipodi:docname="2011-(03)mar-25, 02.svg">
  <defs
     id="defs4" />
  <sodipodi:namedview
     id="base"
     pagecolor="#ffffff"
     bordercolor="#666666"
     borderopacity="1.0"
     inkscape:pageopacity="0.0"
     inkscape:pageshadow="2"
     inkscape:zoom="2.8284271"
     inkscape:cx="49.972008"
     inkscape:cy="50.118968"
     inkscape:document-units="px"
     inkscape:current-layer="layer1"
     showgrid="false"
     inkscape:window-width="1589"
     inkscape:window-height="1117"
     inkscape:window-x="1600"
     inkscape:window-y="27"
     inkscape:window-maximized="1"
     showguides="true"
     inkscape:guide-bbox="true" />
  <metadata
     id="metadata7">
    <rdf:RDF>
      <cc:Work
         rdf:about="">
        <dc:format>image/svg+xml</dc:format>
        <dc:type
           rdf:resource="http://purl.org/dc/dcmitype/StillImage" />
        <dc:title />
      </cc:Work>
    </rdf:RDF>
  </metadata>
  <g
     inkscape:label="Layer 1"
     inkscape:groupmode="layer"
     id="layer1">
    <rect
       style="fill:#0000ff;fill-rule:evenodd;stroke:#000000;stroke-width:1px;stroke-linecap:butt;stroke-linejoin:miter;stroke-opacity:1"
       id="rect3007"
       width="58"
       height="0"
       x="-332.76865"
       y="91.110023" />
    <rect
       style="fill:#0000ff;fill-rule:evenodd;stroke:#000000;stroke-width:1px;stroke-linecap:butt;stroke-linejoin:miter;stroke-opacity:1"
       id="rect3007-3"
       width="58"
       height="0"
       x="-269.32855"
       y="112.3216" />
    <path
       style="font-size:medium;font-style:normal;font-variant:normal;font-weight:normal;font-stretch:normal;text-indent:0;text-align:start;text-decoration:none;line-height:normal;letter-spacing:normal;word-spacing:normal;text-transform:none;direction:ltr;block-progression:tb;writing-mode:lr-tb;text-anchor:start;baseline-shift:baseline;color:#000000;fill:#000000;fill-opacity:1;fill-rule:nonzero;stroke:none;stroke-width:1;marker:none;visibility:visible;display:inline;overflow:visible;enable-background:accumulate;font-family:Sans;-inkscape-font-specification:Sans"
       d="M 127.125 12.875 C 124.09336 12.875 121.625 15.343356 121.625 18.375 C 121.625 21.406644 124.09336 23.875 127.125 23.875 C 130.15664 23.875 132.625 21.406644 132.625 18.375 C 132.625 15.343356 130.15664 12.875 127.125 12.875 z M 127.125 13.875 C 129.6162 13.875 131.625 15.883797 131.625 18.375 C 131.625 20.866204 129.6162 22.875 127.125 22.875 C 124.6338 22.875 122.625 20.866204 122.625 18.375 C 122.625 15.883797 124.6338 13.875 127.125 13.875 z "
       id="path5164" />
    <path
       style="font-size:medium;font-style:normal;font-variant:normal;font-weight:normal;font-stretch:normal;text-indent:0;text-align:start;text-decoration:none;line-height:normal;letter-spacing:normal;word-spacing:normal;text-transform:none;direction:ltr;block-progression:tb;writing-mode:lr-tb;text-anchor:start;baseline-shift:baseline;color:#000000;fill:#000000;fill-opacity:1;fill-rule:nonzero;stroke:none;stroke-width:1;marker:none;visibility:visible;display:inline;overflow:visible;enable-background:accumulate;font-family:Sans;-inkscape-font-specification:Sans"
       d="M 127.125 84.875 C 124.09336 84.875 121.625 87.343356 121.625 90.375 C 121.625 93.406644 124.09336 95.875 127.125 95.875 C 130.15664 95.875 132.625 93.406644 132.625 90.375 C 132.625 87.343356 130.15664 84.875 127.125 84.875 z M 127.125 85.875 C 129.6162 85.875 131.625 87.883797 131.625 90.375 C 131.625 92.866204 129.6162 94.875 127.125 94.875 C 124.6338 94.875 122.625 92.866204 122.625 90.375 C 122.625 87.883797 124.6338 85.875 127.125 85.875 z "
       id="path5168" />
    <path
       style="font-size:medium;font-style:normal;font-variant:normal;font-weight:normal;font-stretch:normal;text-indent:0;text-align:start;text-decoration:none;line-height:normal;letter-spacing:normal;word-spacing:normal;text-transform:none;direction:ltr;block-progression:tb;writing-mode:lr-tb;text-anchor:start;baseline-shift:baseline;color:#000000;fill:#000000;fill-opacity:1;stroke:none;stroke-width:1px;marker:none;visibility:visible;display:inline;overflow:visible;enable-background:accumulate;font-family:Sans;-inkscape-font-specification:Sans"
       d="m 30.5,64.0625 0,26.40625 0,0.5 0.5,0 90.96875,0 0,-1 -90.46875,0 0,-25.90625 -1,0 z"
       id="path3803" />
    <path
       style="font-size:medium;font-style:normal;font-variant:normal;font-weight:normal;font-stretch:normal;text-indent:0;text-align:start;text-decoration:none;line-height:normal;letter-spacing:normal;word-spacing:normal;text-transform:none;direction:ltr;block-progression:tb;writing-mode:lr-tb;text-anchor:start;baseline-shift:baseline;color:#000000;fill:#000000;fill-opacity:1;fill-rule:nonzero;stroke:none;stroke-width:1;marker:none;visibility:visible;display:inline;overflow:visible;enable-background:accumulate;font-family:Sans;-inkscape-font-specification:Sans"
       d="M 31 43.5 C 25.206933 43.5 20.5 48.206933 20.5 54 C 20.5 59.793067 25.206933 64.5 31 64.5 C 36.793067 64.5 41.5 59.793067 41.5 54 C 41.5 48.206933 36.793067 43.5 31 43.5 z M 31 44.5 C 36.252627 44.5 40.5 48.747373 40.5 54 C 40.5 59.252627 36.252627 63.5 31 63.5 C 25.747373 63.5 21.5 59.252627 21.5 54 C 21.5 48.747373 25.747373 44.5 31 44.5 z "
       id="path5172" />
    <path
       style="font-size:medium;font-style:normal;font-variant:normal;font-weight:normal;font-stretch:normal;text-indent:0;text-align:start;text-decoration:none;line-height:normal;letter-spacing:normal;word-spacing:normal;text-transform:none;direction:ltr;block-progression:tb;writing-mode:lr-tb;text-anchor:start;baseline-shift:baseline;color:#000000;fill:#000000;fill-opacity:1;stroke:none;stroke-width:1px;marker:none;visibility:visible;display:inline;overflow:visible;enable-background:accumulate;font-family:Sans;-inkscape-font-specification:Sans"
       d="m 21,53.75 0,1 19.75,0 0,-1 -19.75,0 z"
       id="path3807" />
    <path
       style="font-size:medium;font-style:normal;font-variant:normal;font-weight:normal;font-stretch:normal;text-indent:0;text-align:start;text-decoration:none;line-height:normal;letter-spacing:normal;word-spacing:normal;text-transform:none;direction:ltr;block-progression:tb;writing-mode:lr-tb;text-anchor:start;baseline-shift:baseline;color:#000000;fill:#000000;fill-opacity:1;stroke:none;stroke-width:1px;marker:none;visibility:visible;display:inline;overflow:visible;enable-background:accumulate;font-family:Sans;-inkscape-font-specification:Sans"
       d="m 30.625,17.96875 0,0.5 0,25.125 1,0 0,-24.625 90.1875,0 0,-1 -90.6875,0 -0.5,0 z"
       id="path3809" />
    <path
       style="font-size:medium;font-style:normal;font-variant:normal;font-weight:normal;font-stretch:normal;text-indent:0;text-align:start;text-decoration:none;line-height:normal;letter-spacing:normal;word-spacing:normal;text-transform:none;direction:ltr;block-progression:tb;writing-mode:lr-tb;text-anchor:start;baseline-shift:baseline;color:#000000;fill:#000000;fill-opacity:1;stroke:none;stroke-width:1px;marker:none;visibility:visible;display:inline;overflow:visible;enable-background:accumulate;font-family:Sans;-inkscape-font-specification:Sans"
       d="m 16.46875,33 0,35 1,0 0,-35 -1,0 z"
       id="path3811" />
    <path
       style="font-size:12px;fill-rule:evenodd;stroke-width:0.625;stroke-linejoin:round"
       d="m 12.533454,43.69208 4.419494,-12.018465 4.419494,12.018465 c -2.609267,-1.920048 -6.179198,-1.908985 -8.838988,0 z"
       id="path5059" />
    <path
       style="font-size:12px;font-style:normal;font-weight:normal;line-height:125%;letter-spacing:0px;word-spacing:0px;fill:#000000;fill-opacity:1;stroke:none;font-family:Sans"
       d="m 3.4874747,47.363069 1.1835937,0 0,8.748047 -1.1835937,0 0,-8.748047"
       id="path4998" />
    <path
       style="font-size:26.00036621px;font-style:normal;font-weight:normal;line-height:125%;letter-spacing:0px;word-spacing:0px;baseline-shift:sub;fill:#000000;fill-opacity:1;stroke:none;font-family:Sans"
       d="M 8.34375 52.71875 C 7.7064344 52.718756 7.2126987 52.963475 6.875 53.46875 C 6.5398383 53.971496 6.3749995 54.727724 6.375 55.6875 C 6.3749995 56.644742 6.5398383 57.36972 6.875 57.875 C 7.2126987 58.377741 7.7064344 58.625 8.34375 58.625 C 8.9810605 58.625 9.4460854 58.377741 9.78125 57.875 C 10.118946 57.36972 10.281246 56.644742 10.28125 55.6875 C 10.281246 54.727724 10.118946 53.971496 9.78125 53.46875 C 9.4460854 52.963475 8.9810605 52.718756 8.34375 52.71875 z M 8.34375 53.34375 C 8.7423855 53.343755 9.0206972 53.515234 9.21875 53.90625 C 9.4193352 54.294737 9.5312464 54.905461 9.53125 55.6875 C 9.5312464 56.467005 9.4193352 57.046481 9.21875 57.4375 C 9.0206972 57.825983 8.7423855 58.000001 8.34375 58 C 7.9476485 58.000001 7.638087 57.825983 7.4375 57.4375 C 7.2394485 57.046481 7.1249987 56.467005 7.125 55.6875 C 7.1249987 54.905461 7.239449 54.294737 7.4375 53.90625 C 7.638087 53.515234 7.9476485 53.343755 8.34375 53.34375 z "
       id="path5000" />
    <path
       style="font-size:medium;font-style:normal;font-variant:normal;font-weight:normal;font-stretch:normal;text-indent:0;text-align:start;text-decoration:none;line-height:normal;letter-spacing:normal;word-spacing:normal;text-transform:none;direction:ltr;block-progression:tb;writing-mode:lr-tb;text-anchor:start;baseline-shift:baseline;color:#000000;fill:#000000;fill-opacity:1;stroke:none;stroke-width:1px;marker:none;visibility:visible;display:inline;overflow:visible;enable-background:accumulate;font-family:Sans;-inkscape-font-specification:Sans"
       d="m 126.5,26.75 0,55.25 1,0 0,-55.25 -1,0 z"
       id="path4635" />
    <path
       style="font-size:medium;font-style:normal;font-variant:normal;font-weight:normal;font-stretch:normal;text-indent:0;text-align:start;text-decoration:none;line-height:normal;letter-spacing:normal;word-spacing:normal;text-transform:none;direction:ltr;block-progression:tb;writing-mode:lr-tb;text-anchor:start;baseline-shift:baseline;color:#000000;fill:#000000;fill-opacity:1;fill-rule:nonzero;stroke:none;stroke-width:1;marker:none;visibility:visible;display:inline;overflow:visible;enable-background:accumulate;font-family:Sans;-inkscape-font-specification:Sans"
       d="M 76.25 43.25 L 76.25 43.75 L 76.25 63.5625 L 76.25 64.0625 L 76.75 64.0625 L 89 64.0625 L 89.5 64.0625 L 89.5 63.5625 L 89.5 43.75 L 89.5 43.25 L 89 43.25 L 76.75 43.25 L 76.25 43.25 z M 77.25 44.25 L 88.5 44.25 L 88.5 63.0625 L 77.25 63.0625 L 77.25 44.25 z "
       id="path5176" />
    <path
       style="font-size:medium;font-style:normal;font-variant:normal;font-weight:normal;font-stretch:normal;text-indent:0;text-align:start;text-decoration:none;line-height:normal;letter-spacing:normal;word-spacing:normal;text-transform:none;direction:ltr;block-progression:tb;writing-mode:lr-tb;text-anchor:start;baseline-shift:baseline;color:#000000;fill:#000000;fill-opacity:1;stroke:none;stroke-width:1px;marker:none;visibility:visible;display:inline;overflow:visible;enable-background:accumulate;font-family:Sans;-inkscape-font-specification:Sans"
       d="m 82.5,18.625 0,25 1,0 0,-25 -1,0 z"
       id="path4639" />
    <path
       style="font-size:medium;font-style:normal;font-variant:normal;font-weight:normal;font-stretch:normal;text-indent:0;text-align:start;text-decoration:none;line-height:normal;letter-spacing:normal;word-spacing:normal;text-transform:none;direction:ltr;block-progression:tb;writing-mode:lr-tb;text-anchor:start;baseline-shift:baseline;color:#000000;fill:#000000;fill-opacity:1;stroke:none;stroke-width:1px;marker:none;visibility:visible;display:inline;overflow:visible;enable-background:accumulate;font-family:Sans;-inkscape-font-specification:Sans"
       d="m 82.5,63.75 0,26.375 1,0 0,-26.375 -1,0 z"
       id="path4641" />
    <path
       style="font-size:medium;font-style:normal;font-variant:normal;font-weight:normal;font-stretch:normal;text-indent:0;text-align:start;text-decoration:none;line-height:normal;letter-spacing:normal;word-spacing:normal;text-transform:none;direction:ltr;block-progression:tb;writing-mode:lr-tb;text-anchor:start;baseline-shift:baseline;color:#000000;fill:#000000;fill-opacity:1;stroke:none;stroke-width:1px;marker:none;visibility:visible;display:inline;overflow:visible;enable-background:accumulate;font-family:Sans;-inkscape-font-specification:Sans"
       d="m 82.40625,78.09375 0,3.34375 1,0 0,-3.34375 -1,0 z"
       id="path4643" />
    <path
       style="font-size:12px;fill-rule:evenodd;stroke-width:0.625;stroke-linejoin:round"
       d="M 87.345379,70.748007 82.925885,82.766472 78.506391,70.748007 c 2.609267,1.920048 6.179198,1.908985 8.838988,0 z"
       id="path5039" />
    <path
       style="font-size:medium;font-style:normal;font-variant:normal;font-weight:normal;font-stretch:normal;text-indent:0;text-align:start;text-decoration:none;line-height:normal;letter-spacing:normal;word-spacing:normal;text-transform:none;direction:ltr;block-progression:tb;writing-mode:lr-tb;text-anchor:start;baseline-shift:baseline;color:#000000;fill:#000000;fill-opacity:1;stroke:none;stroke-width:1px;marker:none;visibility:visible;display:inline;overflow:visible;enable-background:accumulate;font-family:Sans;-inkscape-font-specification:Sans"
       d="m 104.5625,18.03125 0,1 3.34375,0 0,-1 -3.34375,0 z"
       id="path4643-9" />
    <path
       style="font-size:12px;fill-rule:evenodd;stroke-width:0.625;stroke-linejoin:round"
       d="m 97.228353,14.08645 12.018467,4.419494 -12.018467,4.419494 c 1.920048,-2.609267 1.908985,-6.179198 0,-8.838988 z"
       id="path5031" />
    <path
       style="font-size:medium;font-style:normal;font-variant:normal;font-weight:normal;font-stretch:normal;text-indent:0;text-align:start;text-decoration:none;line-height:normal;letter-spacing:normal;word-spacing:normal;text-transform:none;direction:ltr;block-progression:tb;writing-mode:lr-tb;text-anchor:start;baseline-shift:baseline;color:#000000;fill:#000000;fill-opacity:1;fill-rule:nonzero;stroke:none;stroke-width:1;marker:none;visibility:visible;display:inline;overflow:visible;enable-background:accumulate;font-family:Sans;-inkscape-font-specification:Sans"
       d="m 82.90625,15.71875 c -1.441793,0 -2.625,1.183208 -2.625,2.625 0,1.441793 1.183207,2.59375 2.625,2.59375 1.441793,0 2.625,-1.151957 2.625,-2.59375 0,-1.441792 -1.183207,-2.625 -2.625,-2.625 z"
       id="path5180" />
    <path
       style="font-size:medium;font-style:normal;font-variant:normal;font-weight:normal;font-stretch:normal;text-indent:0;text-align:start;text-decoration:none;line-height:normal;letter-spacing:normal;word-spacing:normal;text-transform:none;direction:ltr;block-progression:tb;writing-mode:lr-tb;text-anchor:start;baseline-shift:baseline;color:#000000;fill:#000000;fill-opacity:1;fill-rule:nonzero;stroke:none;stroke-width:1;marker:none;visibility:visible;display:inline;overflow:visible;enable-background:accumulate;font-family:Sans;-inkscape-font-specification:Sans"
       d="m 82.90625,87.71875 c -1.441793,0 -2.625,1.183208 -2.625,2.625 0,1.441793 1.183207,2.59375 2.625,2.59375 1.441793,0 2.625,-1.151957 2.625,-2.59375 0,-1.441792 -1.183207,-2.625 -2.625,-2.625 z"
       id="path5184" />
    <path
       style="font-size:12px;font-style:normal;font-weight:normal;line-height:125%;letter-spacing:0px;word-spacing:0px;fill:#000000;fill-opacity:1;stroke:none;font-family:Sans"
       d="M 91.84375 49.46875 L 91.84375 58.21875 L 93.03125 58.21875 L 93.03125 54.53125 L 94.34375 54.53125 C 94.812496 54.531254 95.167965 54.621097 95.4375 54.8125 C 95.710933 55.003909 95.992183 55.382816 96.28125 55.96875 L 97.40625 58.21875 L 98.65625 58.21875 L 97.46875 55.8125 C 97.226556 55.320315 96.992181 54.937503 96.75 54.65625 C 96.511713 54.375004 96.253901 54.21094 96 54.125 C 96.488275 53.98438 96.871088 53.707036 97.125 53.34375 C 97.382806 52.980474 97.499993 52.550787 97.5 52 C 97.499993 51.156257 97.273431 50.511727 96.78125 50.09375 C 96.289057 49.67579 95.531246 49.468759 94.53125 49.46875 L 91.84375 49.46875 z M 93.03125 50.4375 L 94.53125 50.4375 C 95.101558 50.437508 95.523433 50.582039 95.8125 50.84375 C 96.105463 51.10157 96.249994 51.488288 96.25 52 C 96.249994 52.511725 96.105463 52.89063 95.8125 53.15625 C 95.523433 53.417973 95.101558 53.531255 94.53125 53.53125 L 93.03125 53.53125 L 93.03125 50.4375 z "
       id="path5130" />
    <path
       style="font-size:26.00036621px;font-style:normal;font-weight:normal;line-height:125%;letter-spacing:0px;word-spacing:0px;baseline-shift:sub;fill:#000000;fill-opacity:1;stroke:none;font-family:Sans"
       d="m 99.788826,54.928359 0.769344,0 0,2.403257 2.5518,-2.403257 0.99025,0 -2.82221,2.650819 3.02407,3.035492 -1.0131,0 -2.73081,-2.738417 0,2.738417 -0.769344,0 0,-5.686311"
       id="path5008" />
    <path
       style="font-size:12px;font-style:normal;font-weight:normal;line-height:125%;letter-spacing:0px;word-spacing:0px;fill:#000000;fill-opacity:1;stroke:none;font-family:Sans"
       d="m 101.25783,3.562756 1.18359,0 0,8.748047 -1.18359,0 0,-8.748047"
       id="path5011" />
    <path
       style="font-size:12px;font-style:normal;font-weight:normal;line-height:125%;letter-spacing:0px;word-spacing:0px;fill:#000000;fill-opacity:1;stroke:none;font-family:Sans"
       d="m 135.24097,47.933706 1.18945,0 0,5.314453 c 0,0.937503 0.16992,1.613283 0.50976,2.027344 0.33985,0.410157 0.89063,0.615235 1.65235,0.615234 0.75781,10e-7 1.30663,-0.205077 1.64648,-0.615234 0.33984,-0.414061 0.50976,-1.089841 0.50977,-2.027344 l 0,-5.314453 1.18945,0 0,5.460938 c -1e-5,1.140627 -0.28321,2.001954 -0.84961,2.583984 -0.5625,0.582031 -1.39453,0.873047 -2.49609,0.873047 -1.10547,0 -1.94141,-0.291016 -2.50781,-0.873047 -0.5625,-0.58203 -0.84375,-1.443357 -0.84375,-2.583984 l 0,-5.460938"
       id="path5014" />
    <path
       style="font-size:12px;font-style:normal;font-weight:normal;line-height:125%;letter-spacing:0px;word-spacing:0px;fill:#000000;fill-opacity:1;stroke:none;font-family:Sans"
       d="m 135.83177,27.645936 0,3.263672 3.26367,0 0,0.996094 -3.26367,0 0,3.263672 -0.98437,0 0,-3.263672 -3.26368,0 0,-0.996094 3.26368,0 0,-3.263672 0.98437,0"
       id="path5017" />
    <path
       style="font-size:12px;font-style:normal;font-weight:normal;line-height:125%;letter-spacing:0px;word-spacing:0px;fill:#000000;fill-opacity:1;stroke:none;font-family:Sans"
       d="M 138.03125 15.8125 C 137.67969 15.812507 137.33984 15.85938 136.96875 15.9375 C 136.59765 16.011726 136.20703 16.128913 135.8125 16.28125 L 135.8125 17.28125 C 136.14062 17.101568 136.48828 16.96485 136.84375 16.875 C 137.19922 16.785164 137.5625 16.718756 137.9375 16.71875 C 138.52734 16.718756 138.98827 16.882818 139.3125 17.15625 C 139.64062 17.425786 139.78125 17.785161 139.78125 18.28125 L 139.78125 18.40625 L 138.28125 18.40625 C 137.30078 18.406254 136.55859 18.593754 136.0625 18.96875 C 135.57031 19.343753 135.34375 19.886721 135.34375 20.625 C 135.34375 21.257813 135.51172 21.777344 135.90625 22.15625 C 136.30468 22.53125 136.85937 22.71875 137.53125 22.71875 C 138.06249 22.71875 138.50781 22.625 138.875 22.4375 C 139.24219 22.246094 139.53516 21.929688 139.78125 21.53125 L 139.78125 22.53125 L 140.875 22.53125 L 140.875 18.78125 C 140.87499 17.781255 140.625 17.054693 140.15625 16.5625 C 139.6875 16.070319 138.98047 15.812507 138.03125 15.8125 z M 138.71875 19.25 L 139.78125 19.25 L 139.78125 19.46875 C 139.78125 20.171878 139.61328 20.76172 139.25 21.1875 C 138.89062 21.609376 138.41015 21.812501 137.8125 21.8125 C 137.3789 21.812501 137.03515 21.691407 136.78125 21.46875 C 136.53124 21.242188 136.40624 20.945314 136.40625 20.5625 C 136.40624 20.082034 136.57031 19.730471 136.90625 19.53125 C 137.24219 19.332032 137.84765 19.250003 138.71875 19.25 z "
       id="path5020" />
    <path
       style="font-size:12px;font-style:normal;font-weight:normal;line-height:125%;letter-spacing:0px;word-spacing:0px;fill:#000000;fill-opacity:1;stroke:none;font-family:Sans"
       d="M 135.6875 85.9375 L 135.6875 95.03125 L 136.78125 95.03125 L 136.78125 94.0625 C 137.00781 94.453126 137.28125 94.746094 137.625 94.9375 C 137.97266 95.125 138.39453 95.21875 138.875 95.21875 C 139.67187 95.21875 140.31641 94.882813 140.8125 94.25 C 141.3125 93.617189 141.5625 92.781253 141.5625 91.75 C 141.5625 90.718755 141.3125 89.914067 140.8125 89.28125 C 140.31641 88.648443 139.67187 88.312507 138.875 88.3125 C 138.39453 88.312507 137.97266 88.402351 137.625 88.59375 C 137.28125 88.781256 137.00781 89.078131 136.78125 89.46875 L 136.78125 85.9375 L 135.6875 85.9375 z M 138.625 89.21875 C 139.19531 89.218755 139.64452 89.453131 139.96875 89.90625 C 140.29687 90.355473 140.4375 90.957036 140.4375 91.75 C 140.4375 92.542972 140.29687 93.171877 139.96875 93.625 C 139.64452 94.07422 139.19531 94.312501 138.625 94.3125 C 138.05468 94.312501 137.60938 94.07422 137.28125 93.625 C 136.95703 93.171877 136.78124 92.542972 136.78125 91.75 C 136.78124 90.957036 136.95703 90.355473 137.28125 89.90625 C 137.60938 89.453131 138.05468 89.218755 138.625 89.21875 z "
       id="path5023" />
  </g>
</svg>
