<?xml version="1.0" encoding="UTF-8" standalone="no"?>
<!-- Created with Inkscape (http://www.inkscape.org/) -->

<svg
   xmlns:dc="http://purl.org/dc/elements/1.1/"
   xmlns:cc="http://creativecommons.org/ns#"
   xmlns:rdf="http://www.w3.org/1999/02/22-rdf-syntax-ns#"
   xmlns:svg="http://www.w3.org/2000/svg"
   xmlns="http://www.w3.org/2000/svg"
   xmlns:sodipodi="http://sodipodi.sourceforge.net/DTD/sodipodi-0.dtd"
   xmlns:inkscape="http://www.inkscape.org/namespaces/inkscape"
   width="140"
   height="150"
   id="svg2"
   version="1.1"
   inkscape:version="0.48.0 r9654"
   sodipodi:docname="2011-(03)mar-25, 06.svg">
  <defs
     id="defs4" />
  <sodipodi:namedview
     id="base"
     pagecolor="#ffffff"
     bordercolor="#666666"
     borderopacity="1.0"
     inkscape:pageopacity="0.0"
     inkscape:pageshadow="2"
     inkscape:zoom="0.99999996"
     inkscape:cx="389.37004"
     inkscape:cy="119.3168"
     inkscape:document-units="px"
     inkscape:current-layer="layer1"
     showgrid="false"
     inkscape:window-width="1589"
     inkscape:window-height="1117"
     inkscape:window-x="1600"
     inkscape:window-y="27"
     inkscape:window-maximized="1"
     showguides="true"
     inkscape:guide-bbox="true" />
  <metadata
     id="metadata7">
    <rdf:RDF>
      <cc:Work
         rdf:about="">
        <dc:format>image/svg+xml</dc:format>
        <dc:type
           rdf:resource="http://purl.org/dc/dcmitype/StillImage" />
        <dc:title />
      </cc:Work>
    </rdf:RDF>
  </metadata>
  <g
     inkscape:label="Layer 1"
     inkscape:groupmode="layer"
     id="layer1">
    <rect
       style="fill:#0000ff;fill-rule:evenodd;stroke:#000000;stroke-width:1px;stroke-linecap:butt;stroke-linejoin:miter;stroke-opacity:1"
       id="rect3007"
       width="58"
       height="0"
       x="-332.76865"
       y="91.110023" />
    <rect
       style="fill:#0000ff;fill-rule:evenodd;stroke:#000000;stroke-width:1px;stroke-linecap:butt;stroke-linejoin:miter;stroke-opacity:1"
       id="rect3007-3"
       width="58"
       height="0"
       x="-269.32855"
       y="112.3216" />
    <path
       style="font-size:medium;font-style:normal;font-variant:normal;font-weight:normal;font-stretch:normal;text-indent:0;text-align:start;text-decoration:none;line-height:normal;letter-spacing:normal;word-spacing:normal;text-transform:none;direction:ltr;block-progression:tb;writing-mode:lr-tb;text-anchor:start;baseline-shift:baseline;color:#000000;fill:#000000;fill-opacity:1;stroke:none;stroke-width:1;marker:none;visibility:visible;display:inline;overflow:visible;enable-background:accumulate;font-family:Sans;-inkscape-font-specification:Sans"
       d="m 27.9375,48.71875 0,0.5 0,16.5 0,0.5 0.5,0 10,0 0.5,0 0,-0.5 0,-16.5 0,-0.5 -0.5,0 -10,0 -0.5,0 z m 1,1 9,0 0,15.5 -9,0 0,-15.5 z"
       id="path4635"
       inkscape:connector-curvature="0" />
    <path
       style="font-size:medium;font-style:normal;font-variant:normal;font-weight:normal;font-stretch:normal;text-indent:0;text-align:start;text-decoration:none;line-height:normal;letter-spacing:normal;word-spacing:normal;text-transform:none;direction:ltr;block-progression:tb;writing-mode:lr-tb;text-anchor:start;baseline-shift:baseline;color:#000000;fill:#000000;fill-opacity:1;stroke:none;stroke-width:1;marker:none;visibility:visible;display:inline;overflow:visible;enable-background:accumulate;font-family:Sans;-inkscape-font-specification:Sans"
       d="m 75.9375,48.71875 0,0.5 0,16.5 0,0.5 0.5,0 10,0 0.5,0 0,-0.5 0,-16.5 0,-0.5 -0.5,0 -10,0 -0.5,0 z m 1,1 9,0 0,15.5 -9,0 0,-15.5 z"
       id="path4631"
       inkscape:connector-curvature="0" />
    <path
       style="font-size:medium;font-style:normal;font-variant:normal;font-weight:normal;font-stretch:normal;text-indent:0;text-align:start;text-decoration:none;line-height:normal;letter-spacing:normal;word-spacing:normal;text-transform:none;direction:ltr;block-progression:tb;writing-mode:lr-tb;text-anchor:start;baseline-shift:baseline;color:#000000;fill:#000000;fill-opacity:1;stroke:none;stroke-width:1;marker:none;visibility:visible;display:inline;overflow:visible;enable-background:accumulate;font-family:Sans;-inkscape-font-specification:Sans"
       d="m 75.9375,108.71875 0,0.5 0,16.5 0,0.5 0.5,0 10,0 0.5,0 0,-0.5 0,-16.5 0,-0.5 -0.5,0 -10,0 -0.5,0 z m 1,1 9,0 0,15.5 -9,0 0,-15.5 z"
       id="path4623"
       inkscape:connector-curvature="0" />
    <path
       style="font-size:medium;font-style:normal;font-variant:normal;font-weight:normal;font-stretch:normal;text-indent:0;text-align:start;text-decoration:none;line-height:normal;letter-spacing:normal;word-spacing:normal;text-transform:none;direction:ltr;block-progression:tb;writing-mode:lr-tb;text-anchor:start;baseline-shift:baseline;color:#000000;fill:#000000;fill-opacity:1;stroke:none;stroke-width:1;marker:none;visibility:visible;display:inline;overflow:visible;enable-background:accumulate;font-family:Sans;-inkscape-font-specification:Sans"
       d="m 33.6875,108.21875 c -4.688498,0 -8.5,3.8115 -8.5,8.5 0,4.68849 3.811502,8.5 8.5,8.5 4.688498,0 8.5,-3.81151 8.5,-8.5 0,-4.6885 -3.811502,-8.5 -8.5,-8.5 z m 0,1 c 4.148058,0 7.5,3.35194 7.5,7.5 0,4.14806 -3.351942,7.5 -7.5,7.5 -4.148058,0 -7.5,-3.35194 -7.5,-7.5 0,-4.14806 3.351942,-7.5 7.5,-7.5 z"
       id="path4619"
       inkscape:connector-curvature="0" />
    <path
       style="font-size:medium;font-style:normal;font-variant:normal;font-weight:normal;font-stretch:normal;text-indent:0;text-align:start;text-decoration:none;line-height:normal;letter-spacing:normal;word-spacing:normal;text-transform:none;direction:ltr;block-progression:tb;writing-mode:lr-tb;text-anchor:start;baseline-shift:baseline;color:#000000;fill:#000000;fill-opacity:1;stroke:none;stroke-width:1px;marker:none;visibility:visible;display:inline;overflow:visible;enable-background:accumulate;font-family:Sans;-inkscape-font-specification:Sans"
       d="m 33.3125,66 0,58.4375 1,0 0,-58.4375 z"
       id="path3021"
       inkscape:connector-curvature="0"
       sodipodi:nodetypes="ccccc" />
    <path
       style="font-size:medium;font-style:normal;font-variant:normal;font-weight:normal;font-stretch:normal;text-indent:0;text-align:start;text-decoration:none;line-height:normal;letter-spacing:normal;word-spacing:normal;text-transform:none;direction:ltr;block-progression:tb;writing-mode:lr-tb;text-anchor:start;baseline-shift:baseline;color:#000000;fill:#000000;fill-opacity:1;stroke:none;stroke-width:1px;marker:none;visibility:visible;display:inline;overflow:visible;enable-background:accumulate;font-family:Sans;-inkscape-font-specification:Sans"
       d="m 81.3125,66 0,43.1875 1,0 0,-43.1875 -1,0 z"
       id="path3023"
       inkscape:connector-curvature="0" />
    <path
       style="font-size:medium;font-style:normal;font-variant:normal;font-weight:normal;font-stretch:normal;text-indent:0;text-align:start;text-decoration:none;line-height:normal;letter-spacing:normal;word-spacing:normal;text-transform:none;direction:ltr;block-progression:tb;writing-mode:lr-tb;text-anchor:start;baseline-shift:baseline;color:#000000;fill:#000000;fill-opacity:1;stroke:none;stroke-width:1px;marker:none;visibility:visible;display:inline;overflow:visible;enable-background:accumulate;font-family:Sans;-inkscape-font-specification:Sans"
       d="m 32.625,21.5 0,0.5 0,27.125 1,0 0,-26.625 95.40625,0 0,26.25 1,0 0,-26.75 0,-0.5 -0.5,0 -96.40625,0 -0.5,0 z"
       id="path3025"
       inkscape:connector-curvature="0" />
    <path
       style="font-size:medium;font-style:normal;font-variant:normal;font-weight:normal;font-stretch:normal;text-indent:0;text-align:start;text-decoration:none;line-height:normal;letter-spacing:normal;word-spacing:normal;text-transform:none;direction:ltr;block-progression:tb;writing-mode:lr-tb;text-anchor:start;baseline-shift:baseline;color:#000000;fill:#000000;fill-opacity:1;stroke:none;stroke-width:1px;marker:none;visibility:visible;display:inline;overflow:visible;enable-background:accumulate;font-family:Sans;-inkscape-font-specification:Sans"
       d="m 81.21875,22.15625 0,26.875 1,0 0,-26.875 -1,0 z"
       id="path3027"
       inkscape:connector-curvature="0" />
    <path
       style="font-size:medium;font-style:normal;font-variant:normal;font-weight:normal;font-stretch:normal;text-indent:0;text-align:start;text-decoration:none;line-height:normal;letter-spacing:normal;word-spacing:normal;text-transform:none;direction:ltr;block-progression:tb;writing-mode:lr-tb;text-anchor:start;baseline-shift:baseline;color:#000000;fill:#000000;fill-opacity:1;stroke:none;stroke-width:1px;marker:none;visibility:visible;display:inline;overflow:visible;enable-background:accumulate;font-family:Sans;-inkscape-font-specification:Sans"
       d="m 129.0625,65.875 0,20.875 -47.3125,0 0,1 47.8125,0 0.5,0 0,-0.5 0,-21.375 -1,0 z"
       id="path3029"
       inkscape:connector-curvature="0" />
    <path
       style="font-size:medium;font-style:normal;font-variant:normal;font-weight:normal;font-stretch:normal;text-indent:0;text-align:start;text-decoration:none;line-height:normal;letter-spacing:normal;word-spacing:normal;text-transform:none;direction:ltr;block-progression:tb;writing-mode:lr-tb;text-anchor:start;baseline-shift:baseline;color:#000000;fill:#000000;fill-opacity:1;stroke:none;stroke-width:1px;marker:none;visibility:visible;display:inline;overflow:visible;enable-background:accumulate;font-family:Sans;-inkscape-font-specification:Sans"
       d="m 33.21875,124.75 0,20.09375 0,0.5 0.5,0 48,0 0.5,0 0,-0.5 0,-19.28125 -1,0 0,18.78125 -47,0 0,-19.59375 -1,0 z"
       id="path3031"
       inkscape:connector-curvature="0" />
    <path
       style="font-size:medium;font-style:normal;font-variant:normal;font-weight:normal;font-stretch:normal;text-indent:0;text-align:start;text-decoration:none;line-height:normal;letter-spacing:normal;word-spacing:normal;text-transform:none;direction:ltr;block-progression:tb;writing-mode:lr-tb;text-anchor:start;baseline-shift:baseline;color:#000000;fill:#000000;fill-opacity:1;stroke:none;stroke-width:1;marker:none;visibility:visible;display:inline;overflow:visible;enable-background:accumulate;font-family:Sans;-inkscape-font-specification:Sans"
       d="m 81.125,37 0,3.5 1,0 0,-3.5 -1,0 z"
       id="path3033"
       inkscape:connector-curvature="0" />
    <path
       style="font-size:12px;fill-rule:evenodd;stroke-width:0.625;stroke-linejoin:round"
       d="M 86.062107,29.809552 81.642613,41.828017 77.223119,29.809552 c 2.609267,1.920048 6.179198,1.908985 8.838988,0 z"
       id="path4495"
       inkscape:connector-curvature="0" />
    <path
       style="font-size:medium;font-style:normal;font-variant:normal;font-weight:normal;font-stretch:normal;text-indent:0;text-align:start;text-decoration:none;line-height:normal;letter-spacing:normal;word-spacing:normal;text-transform:none;direction:ltr;block-progression:tb;writing-mode:lr-tb;text-anchor:start;baseline-shift:baseline;color:#000000;fill:#000000;fill-opacity:1;stroke:none;stroke-width:1;marker:none;visibility:visible;display:inline;overflow:visible;enable-background:accumulate;font-family:Sans;-inkscape-font-specification:Sans"
       d="m 57.75,21.5 0,1 3.5,0 0,-1 -3.5,0 z"
       id="path4247"
       inkscape:connector-curvature="0" />
    <path
       style="font-size:12px;fill-rule:evenodd;stroke-width:0.625;stroke-linejoin:round"
       d="m 50.572731,17.560903 12.018465,4.419494 -12.018465,4.419494 c 1.920048,-2.609267 1.908985,-6.179198 0,-8.838988 z"
       id="path4503"
       inkscape:connector-curvature="0" />
    <path
       style="font-size:medium;font-style:normal;font-variant:normal;font-weight:normal;font-stretch:normal;text-indent:0;text-align:start;text-decoration:none;line-height:normal;letter-spacing:normal;word-spacing:normal;text-transform:none;direction:ltr;block-progression:tb;writing-mode:lr-tb;text-anchor:start;baseline-shift:baseline;color:#000000;fill:#000000;fill-opacity:1;stroke:none;stroke-width:1;marker:none;visibility:visible;display:inline;overflow:visible;enable-background:accumulate;font-family:Sans;-inkscape-font-specification:Sans"
       d="m 107.75,21.5 0,1 3.5,0 0,-1 -3.5,0 z"
       id="path4249"
       inkscape:connector-curvature="0" />
    <path
       style="font-size:12px;fill-rule:evenodd;stroke-width:0.625;stroke-linejoin:round"
       d="m 100.57273,17.560903 12.01847,4.419494 -12.01847,4.419494 c 1.92005,-2.609267 1.90899,-6.179198 0,-8.838988 z"
       id="path4511"
       inkscape:connector-curvature="0" />
    <path
       style="font-size:medium;font-style:normal;font-variant:normal;font-weight:normal;font-stretch:normal;text-indent:0;text-align:start;text-decoration:none;line-height:normal;letter-spacing:normal;word-spacing:normal;text-transform:none;direction:ltr;block-progression:tb;writing-mode:lr-tb;text-anchor:start;baseline-shift:baseline;color:#000000;fill:#000000;fill-opacity:1;stroke:none;stroke-width:1px;marker:none;visibility:visible;display:inline;overflow:visible;enable-background:accumulate;font-family:Sans;-inkscape-font-specification:Sans"
       d="m 20.21875,108.21875 0,17.625 1,0 0,-17.625 -1,0 z"
       id="path4251"
       inkscape:connector-curvature="0" />
    <path
       style="font-size:12px;font-style:normal;font-weight:normal;line-height:125%;letter-spacing:0px;word-spacing:0px;fill:#000000;fill-opacity:1;stroke:none;font-family:Sans"
       d="m 89.76964,30.841623 1.1836,0 0,8.748047 -1.1836,0 0,-8.748047"
       id="path4456"
       inkscape:connector-curvature="0" />
    <path
       style="font-size:7.80010986px;font-style:normal;font-weight:normal;line-height:125%;letter-spacing:0px;word-spacing:0px;baseline-shift:sub;fill:#000000;fill-opacity:1;stroke:none;font-family:Sans"
       d="m 93.62777,41.3422 2.6851,0 0,0.64747 -3.6106,0 0,-0.64747 c 0.292,-0.302152 0.68936,-0.707137 1.19211,-1.214959 0.50527,-0.510356 0.82266,-0.839169 0.95216,-0.986439 0.24629,-0.276759 0.41768,-0.510356 0.51417,-0.700791 0.099,-0.192968 0.14853,-0.382131 0.14853,-0.567489 0,-0.302148 -0.10664,-0.54844 -0.31992,-0.738877 -0.21075,-0.190428 -0.48624,-0.285644 -0.82648,-0.285649 -0.24122,5e-6 -0.4964,0.0419 -0.76554,0.125685 -0.2666,0.0838 -0.55225,0.21075 -0.85694,0.380865 l 0,-0.776964 c 0.30977,-0.12441 0.59922,-0.218357 0.86837,-0.28184 0.26914,-0.06347 0.51543,-0.09521 0.73888,-0.09522 0.58906,6e-6 1.0588,0.147273 1.40919,0.441803 0.3504,0.294541 0.52559,0.688101 0.5256,1.180681 -10e-6,0.233601 -0.0444,0.455772 -0.1333,0.666513 -0.0863,0.20821 -0.24503,0.454502 -0.47609,0.738878 -0.0635,0.07364 -0.26533,0.28692 -0.60557,0.639853 -0.34024,0.350397 -0.82013,0.841712 -1.43967,1.473946"
       id="path4458"
       inkscape:connector-curvature="0" />
    <path
       style="font-size:12px;font-style:normal;font-weight:normal;line-height:125%;letter-spacing:0px;word-spacing:0px;fill:#000000;fill-opacity:1;stroke:none;font-family:Sans"
       d="m 52.44978,5.4500564 1.1836,0 0,8.7480466 -1.1836,0 0,-8.7480466"
       id="path4451"
       inkscape:connector-curvature="0" />
    <path
       style="font-size:7.80010986px;font-style:normal;font-weight:normal;line-height:125%;letter-spacing:0px;word-spacing:0px;baseline-shift:sub;fill:#000000;fill-opacity:1;stroke:none;font-family:Sans"
       d="m 55.77851,15.950633 1.25685,0 0,-4.338049 -1.3673,0.274223 0,-0.700792 1.35969,-0.274222 0.76934,0 0,5.03884 1.25686,0 0,0.64747 -3.27544,0 0,-0.64747"
       id="path4453"
       inkscape:connector-curvature="0" />
    <path
       style="font-size:12px;font-style:normal;font-weight:normal;line-height:125%;letter-spacing:0px;word-spacing:0px;fill:#000000;fill-opacity:1;stroke:none;font-family:Sans"
       d="m 105.12923,5.9145234 1.1836,0 0,8.7480466 -1.1836,0 0,-8.7480466"
       id="path4448"
       inkscape:connector-curvature="0" />
    <path
       style="font-size:12px;font-style:normal;font-weight:normal;line-height:125%;letter-spacing:0px;word-spacing:0px;fill:#000000;fill-opacity:1;stroke:none;font-family:Sans"
       d="m 2.8198582,112.16025 5.5312498,0 0,0.99609 -4.3476498,0 0,2.58985 4.1660098,0 0,0.99609 -4.1660098,0 0,3.16992 4.4531198,0 0,0.99609 -5.6367198,0 0,-8.74804"
       id="path4317"
       inkscape:connector-curvature="0" />
    <path
       style="font-size:12px;font-style:normal;font-weight:normal;line-height:125%;letter-spacing:0px;word-spacing:0px;fill:#000000;fill-opacity:1;stroke:none;font-family:Sans"
       d="m 14.755408,103.13181 0,3.26367 3.26367,0 0,0.99609 -3.26367,0 0,3.26368 -0.98437,0 0,-3.26368 -3.26368,0 0,-0.99609 3.26368,0 0,-3.26367 0.98437,0"
       id="path4319"
       inkscape:connector-curvature="0" />
    <path
       style="font-size:12px;font-style:normal;font-weight:normal;line-height:125%;letter-spacing:0px;word-spacing:0px;fill:#000000;fill-opacity:1;stroke:none;font-family:Sans"
       d="m 14.4375,52.71875 0,8.75 1.1875,0 0,-3.71875 1.28125,0 c 0.46875,4e-6 0.82422,0.121097 1.09375,0.3125 0.27343,0.191409 0.55468,0.570316 0.84375,1.15625 l 1.125,2.25 1.28125,0 -1.21875,-2.40625 c -0.2422,-0.492185 -0.47657,-0.874997 -0.71875,-1.15625 -0.23828,-0.281246 -0.4961,-0.44531 -0.75,-0.53125 0.48828,-0.14062 0.87109,-0.417964 1.125,-0.78125 0.25781,-0.363276 0.375,-0.824213 0.375,-1.375 0,-0.843743 -0.22657,-1.457023 -0.71875,-1.875 -0.49219,-0.41796 -1.25001,-0.624991 -2.25,-0.625 l -2.65625,0 z m 1.1875,0.96875 1.46875,0 c 0.57031,8e-6 0.99218,0.144539 1.28125,0.40625 0.29297,0.25782 0.4375,0.613288 0.4375,1.125 0,0.511725 -0.14453,0.92188 -0.4375,1.1875 -0.28907,0.261723 -0.71094,0.375005 -1.28125,0.375 l -1.46875,0 0,-3.09375 z"
       id="path4569"
       inkscape:connector-curvature="0" />
    <path
       style="font-size:26.00036621px;font-style:normal;font-weight:normal;line-height:125%;letter-spacing:0px;word-spacing:0px;baseline-shift:sub;fill:#000000;fill-opacity:1;stroke:none;font-family:Sans"
       d="m 22.56115,63.21352 1.25685,0 0,-4.338049 -1.3673,0.274222 0,-0.700791 1.35968,-0.274223 0.76935,0 0,5.038841 1.25685,0 0,0.64747 -3.27543,0 0,-0.64747"
       id="path4445"
       inkscape:connector-curvature="0" />
    <path
       style="font-size:12px;font-style:normal;font-weight:normal;line-height:125%;letter-spacing:0px;word-spacing:0px;fill:#000000;fill-opacity:1;stroke:none;font-family:Sans"
       d="m 63.28125,52.1875 0,8.75 1.1875,0 0,-3.71875 1.3125,0 c 0.46875,4e-6 0.82422,0.08985 1.09375,0.28125 0.27343,0.191409 0.55468,0.601566 0.84375,1.1875 l 1.125,2.25 1.28125,0 -1.21875,-2.40625 c -0.2422,-0.492185 -0.47657,-0.874997 -0.71875,-1.15625 -0.23828,-0.281246 -0.4961,-0.47656 -0.75,-0.5625 0.48828,-0.14062 0.87109,-0.386714 1.125,-0.75 0.25781,-0.363276 0.375,-0.824213 0.375,-1.375 0,-0.843743 -0.22657,-1.457023 -0.71875,-1.875 -0.49219,-0.41796 -1.25001,-0.624991 -2.25,-0.625 l -2.6875,0 z m 1.1875,0.96875 1.5,0 c 0.57031,8e-6 0.99218,0.113289 1.28125,0.375 0.29297,0.25782 0.4375,0.644538 0.4375,1.15625 0,0.511725 -0.14453,0.92188 -0.4375,1.1875 -0.28907,0.261723 -0.71094,0.375005 -1.28125,0.375 l -1.5,0 0,-3.09375 z"
       id="path4575"
       inkscape:connector-curvature="0" />
    <path
       style="font-size:26.00036621px;font-style:normal;font-weight:normal;line-height:125%;letter-spacing:0px;word-spacing:0px;baseline-shift:sub;fill:#000000;fill-opacity:1;stroke:none;font-family:Sans"
       d="m 71.95839,62.676553 2.68509,0 0,0.64747 -3.61059,0 0,-0.64747 c 0.29199,-0.302152 0.68936,-0.707138 1.1921,-1.214959 0.50528,-0.510356 0.82267,-0.839169 0.95217,-0.986439 0.24629,-0.276759 0.41767,-0.510356 0.51416,-0.700791 0.099,-0.192968 0.14854,-0.382131 0.14854,-0.567489 0,-0.302148 -0.10665,-0.54844 -0.31993,-0.738877 -0.21074,-0.190428 -0.48624,-0.285644 -0.82647,-0.285649 -0.24122,5e-6 -0.4964,0.0419 -0.76554,0.125685 -0.26661,0.0838 -0.55226,0.21075 -0.85695,0.380865 l 0,-0.776964 c 0.30977,-0.12441 0.59923,-0.218357 0.86838,-0.28184 0.26914,-0.06347 0.51543,-0.09521 0.73887,-0.09522 0.58907,6e-6 1.0588,0.147273 1.4092,0.441803 0.35039,0.294541 0.52559,0.6881 0.5256,1.180681 -1e-5,0.233601 -0.0444,0.455772 -0.13331,0.666513 -0.0863,0.208209 -0.24502,0.454502 -0.47608,0.738878 -0.0635,0.07364 -0.26534,0.28692 -0.60557,0.639852 -0.34024,0.350398 -0.82013,0.841713 -1.43967,1.473947"
       id="path4440"
       inkscape:connector-curvature="0" />
    <path
       style="font-size:12px;font-style:normal;font-weight:normal;line-height:125%;letter-spacing:0px;word-spacing:0px;fill:#000000;fill-opacity:1;stroke:none;font-family:Sans"
       d="m 66.5625,113.6875 0,8.75 1.1875,0 0,-3.71875 1.3125,0 c 0.46875,0 0.82422,0.0898 1.09375,0.28125 0.27343,0.19141 0.55468,0.60157 0.84375,1.1875 l 1.125,2.25 1.25,0 -1.1875,-2.40625 c -0.2422,-0.49219 -0.47657,-0.875 -0.71875,-1.15625 -0.23828,-0.28124 -0.4961,-0.4766 -0.75,-0.5625 0.48828,-0.14062 0.87109,-0.38671 1.125,-0.75 0.25781,-0.36327 0.375,-0.82422 0.375,-1.375 0,-0.84375 -0.22657,-1.45702 -0.71875,-1.875 -0.49219,-0.41796 -1.25001,-0.625 -2.25,-0.625 l -2.6875,0 z m 1.1875,0.96875 1.5,0 c 0.57031,1e-5 0.99218,0.11329 1.28125,0.375 0.29297,0.25782 0.4375,0.64454 0.4375,1.15625 0,0.51172 -0.14453,0.92188 -0.4375,1.1875 -0.28907,0.26173 -0.71094,0.37501 -1.28125,0.375 l -1.5,0 0,-3.09375 z"
       id="path4585"
       inkscape:connector-curvature="0" />
    <path
       style="font-size:12px;font-style:normal;font-weight:normal;line-height:125%;letter-spacing:0px;word-spacing:0px;fill:#000000;fill-opacity:1;stroke:none;font-family:Sans"
       d="m 108.27148,8.7617712 7.51172,0 0,0.984375 -7.51172,0 0,-0.984375"
       id="path3038"
       inkscape:connector-curvature="0" />
    <path
       style="font-size:12px;font-style:normal;font-weight:normal;line-height:125%;letter-spacing:0px;word-spacing:0px;fill:#000000;fill-opacity:1;stroke:none;font-family:Sans"
       d="m 108.27148,11.152396 7.51172,0 0,0.996094 -7.51172,0 0,-0.996094"
       id="path3026"
       inkscape:connector-curvature="0" />
    <path
       style="font-size:12px;font-style:normal;font-weight:normal;line-height:125%;letter-spacing:0px;word-spacing:0px;fill:#000000;fill-opacity:1;stroke:none;font-family:Sans"
       d="m 120.875,5.3125 c -0.98047,8.9e-6 -1.73047,0.3789147 -2.25,1.15625 -0.51563,0.7734444 -0.78125,1.8984433 -0.78125,3.375 0,1.472659 0.26562,2.597658 0.78125,3.375 0.51953,0.773437 1.26953,1.15625 2.25,1.15625 0.98046,0 1.73437,-0.382813 2.25,-1.15625 0.51953,-0.777342 0.78124,-1.902341 0.78125,-3.375 -1e-5,-1.4765567 -0.26172,-2.6015556 -0.78125,-3.375 -0.51563,-0.7773353 -1.26954,-1.1562411 -2.25,-1.15625 z m 0,0.9375 c 0.61328,8e-6 1.07031,0.3046952 1.375,0.90625 0.30859,0.5976627 0.46875,1.4843805 0.46875,2.6875 0,1.199221 -0.16016,2.11719 -0.46875,2.71875 -0.30469,0.597658 -0.76172,0.875001 -1.375,0.875 -0.60938,10e-7 -1.06641,-0.277342 -1.375,-0.875 -0.30469,-0.60156 -0.46876,-1.519529 -0.46875,-2.71875 -1e-5,-1.2031195 0.16406,-2.0898373 0.46875,-2.6875 0.30859,-0.6015548 0.76562,-0.906242 1.375,-0.90625 z"
       id="path3028"
       inkscape:connector-curvature="0" />
    <path
       style="font-size:medium;font-style:normal;font-variant:normal;font-weight:normal;font-stretch:normal;text-indent:0;text-align:start;text-decoration:none;line-height:normal;letter-spacing:normal;word-spacing:normal;text-transform:none;direction:ltr;block-progression:tb;writing-mode:lr-tb;text-anchor:start;baseline-shift:baseline;color:#000000;fill:#000000;fill-opacity:1;stroke:none;stroke-width:1;marker:none;visibility:visible;display:inline;overflow:visible;enable-background:accumulate;font-family:Sans;-inkscape-font-specification:Sans"
       d="M 129.625 47.75 C 124.38422 47.75 120.125 52.009217 120.125 57.25 C 120.125 62.490783 124.38422 66.75 129.625 66.75 C 134.86578 66.75 139.125 62.490783 139.125 57.25 C 139.125 52.009217 134.86578 47.75 129.625 47.75 z M 129.625 48.75 C 134.32534 48.75 138.125 52.549657 138.125 57.25 C 138.125 61.950343 134.32534 65.75 129.625 65.75 C 124.92466 65.75 121.125 61.950343 121.125 57.25 C 121.125 52.549657 124.92466 48.75 129.625 48.75 z "
       id="path3064" />
    <path
       style="font-size:12px;font-style:normal;font-weight:normal;line-height:125%;letter-spacing:0px;word-spacing:0px;fill:#000000;fill-opacity:1;stroke:none;font-family:Sans"
       d="m 129.03883,61.561022 -3.33984,-8.748047 1.23633,0 2.77148,7.365234 2.77735,-7.365234 1.23046,0 -3.33398,8.748047 -1.3418,0"
       id="path3053" />
  </g>
</svg>
