<?xml version="1.0" encoding="UTF-8" standalone="no"?>
<!-- Created with Inkscape (http://www.inkscape.org/) -->

<svg
   xmlns:dc="http://purl.org/dc/elements/1.1/"
   xmlns:cc="http://creativecommons.org/ns#"
   xmlns:rdf="http://www.w3.org/1999/02/22-rdf-syntax-ns#"
   xmlns:svg="http://www.w3.org/2000/svg"
   xmlns="http://www.w3.org/2000/svg"
   xmlns:sodipodi="http://sodipodi.sourceforge.net/DTD/sodipodi-0.dtd"
   xmlns:inkscape="http://www.inkscape.org/namespaces/inkscape"
   width="115"
   height="110"
   id="svg2"
   version="1.1"
   inkscape:version="0.48.0 r9654"
   sodipodi:docname="2011-(03)mar-28, 00.svg">
  <defs
     id="defs4" />
  <sodipodi:namedview
     id="base"
     pagecolor="#ffffff"
     bordercolor="#666666"
     borderopacity="1.0"
     inkscape:pageopacity="0.0"
     inkscape:pageshadow="2"
     inkscape:zoom="2.8284271"
     inkscape:cx="32.418986"
     inkscape:cy="52.300635"
     inkscape:document-units="px"
     inkscape:current-layer="layer1"
     showgrid="false"
     inkscape:window-width="1589"
     inkscape:window-height="1117"
     inkscape:window-x="1600"
     inkscape:window-y="27"
     inkscape:window-maximized="1"
     showguides="true"
     inkscape:guide-bbox="true" />
  <metadata
     id="metadata7">
    <rdf:RDF>
      <cc:Work
         rdf:about="">
        <dc:format>image/svg+xml</dc:format>
        <dc:type
           rdf:resource="http://purl.org/dc/dcmitype/StillImage" />
        <dc:title />
      </cc:Work>
    </rdf:RDF>
  </metadata>
  <g
     inkscape:label="Layer 1"
     inkscape:groupmode="layer"
     id="layer1">
    <rect
       style="fill:#0000ff;fill-rule:evenodd;stroke:#000000;stroke-width:1px;stroke-linecap:butt;stroke-linejoin:miter;stroke-opacity:1"
       id="rect3007"
       width="58"
       height="0"
       x="-445.25311"
       y="-18.07794"
       transform="scale(1,-1)" />
    <rect
       style="fill:#0000ff;fill-rule:evenodd;stroke:#000000;stroke-width:1px;stroke-linecap:butt;stroke-linejoin:miter;stroke-opacity:1"
       id="rect3007-3"
       width="58"
       height="0"
       x="-381.81302"
       y="3.1336517"
       transform="scale(1,-1)" />
    <path
       style="font-size:12px;font-style:normal;font-weight:normal;line-height:125%;letter-spacing:0px;word-spacing:0px;fill:#000000;fill-opacity:1;stroke:none;font-family:Sans"
       d="M 43.375 75 C 42.60156 75.000006 41.925779 75.304694 41.375 75.90625 C 40.878905 76.445318 40.625 77.289067 40.625 78.4375 C 40.625 79.511721 40.855468 80.35547 41.3125 80.96875 C 41.757811 81.5625 42.457029 81.875 43.375 81.875 C 43.93359 81.875 44.296871 81.785156 44.46875 81.625 C 44.835933 81.285157 45.101557 80.902344 45.28125 80.46875 C 45.347651 80.812501 45.464839 81.054689 45.625 81.21875 C 45.95312 81.546876 46.289056 81.71875 46.65625 81.71875 L 47.3125 81.71875 L 47.3125 80.8125 L 46.78125 80.8125 C 46.656244 80.812501 46.53515 80.718751 46.375 80.53125 C 46.238275 80.371096 46.16015 80.191407 46.125 80 L 45.875 78.71875 L 47.0625 75.15625 L 46.125 75.15625 L 45.53125 76.875 C 45.300776 75.632818 44.589839 75.000006 43.375 75 z M 43.375 75.9375 C 44.070309 75.937506 44.511714 76.386724 44.6875 77.3125 L 44.9375 78.65625 L 44.5625 79.71875 C 44.281246 80.550783 43.898434 80.968751 43.375 80.96875 C 42.902341 80.968751 42.515623 80.76172 42.21875 80.34375 C 41.92578 79.933596 41.781248 79.296878 41.78125 78.4375 C 41.781248 77.726567 41.917967 77.101567 42.21875 76.5625 C 42.457029 76.132818 42.85156 75.937506 43.375 75.9375 z "
       id="path4827" />
    <path
       style="font-size:medium;font-style:normal;font-variant:normal;font-weight:normal;font-stretch:normal;text-indent:0;text-align:start;text-decoration:none;line-height:normal;letter-spacing:normal;word-spacing:normal;text-transform:none;direction:ltr;block-progression:tb;writing-mode:lr-tb;text-anchor:start;baseline-shift:baseline;color:#000000;fill:#000000;fill-opacity:1;stroke:none;stroke-width:1px;marker:none;visibility:visible;display:inline;overflow:visible;enable-background:accumulate;font-family:Sans;-inkscape-font-specification:Sans"
       d="m 22.75,7.25 0,81.5 0,0.5 0.5,0 81.75,0 0,-1 -81.25,0 0,-81 -1,0 z"
       id="path3039" />
    <path
       style="font-size:12px;fill-rule:evenodd;stroke-width:0.625;stroke-linejoin:round"
       d="M 18.812891,17.940447 23.232385,5.9219815 27.651879,17.940447 c -2.609267,-1.920048 -6.179198,-1.908985 -8.838988,0 z"
       id="path4859" />
    <path
       style="font-size:12px;fill-rule:evenodd;stroke-width:0.625;stroke-linejoin:round"
       d="m 94.309553,84.312891 12.018467,4.419494 -12.018467,4.419494 c 1.920048,-2.609267 1.908985,-6.179198 0,-8.838988 z"
       id="path4861" />
    <path
       style="font-size:medium;font-style:normal;font-variant:normal;font-weight:normal;font-stretch:normal;text-indent:0;text-align:start;text-decoration:none;line-height:normal;letter-spacing:normal;word-spacing:normal;text-transform:none;direction:ltr;block-progression:tb;writing-mode:lr-tb;text-anchor:start;baseline-shift:baseline;color:#000000;fill:#000000;fill-opacity:1;stroke:none;stroke-width:1px;marker:none;visibility:visible;display:inline;overflow:visible;enable-background:accumulate;font-family:Sans;-inkscape-font-specification:Sans"
       d="m 64.84375,28.96875 -41.75,59.125 0.8125,0.5625 41.75,-59.125 -0.8125,-0.5625 z"
       id="path4439" />
    <path
       style="font-size:12px;fill-rule:evenodd;stroke-width:0.625;stroke-linejoin:round"
       d="M 55.458999,35.42332 66.001637,28.155018 62.679321,40.521815 C 61.655403,37.448307 58.732845,35.398141 55.458999,35.42332 z"
       id="path4851" />
    <path
       style="font-size:12px;font-style:normal;font-weight:normal;line-height:125%;letter-spacing:0px;word-spacing:0px;fill:#000000;fill-opacity:1;stroke:none;font-family:Sans"
       d="m 71.055494,21.631756 1.183594,0 0,3.697266 3.925781,-3.697266 1.523438,0 -4.341797,4.078125 4.652344,4.669922 -1.558594,0 -4.201172,-4.212891 0,4.212891 -1.183594,0 0,-8.748047"
       id="path4804" />
    <path
       style="font-size:12px;font-style:normal;font-weight:normal;line-height:125%;letter-spacing:0px;word-spacing:0px;fill:#000000;fill-opacity:1;stroke:none;font-family:Sans"
       d="m 35.464242,49.232055 1.183594,0 0,3.697266 3.925781,-3.697266 1.523438,0 -4.341797,4.078125 4.652344,4.669922 -1.558594,0 -4.201172,-4.212891 0,4.212891 -1.183594,0 0,-8.748047"
       id="path4807"
       inkscape:connector-curvature="0" />
    <path
       style="font-size:medium;font-style:normal;font-variant:normal;font-weight:normal;font-stretch:normal;text-indent:0;text-align:start;text-decoration:none;line-height:normal;letter-spacing:normal;word-spacing:normal;text-transform:none;direction:ltr;block-progression:tb;writing-mode:lr-tb;text-anchor:start;baseline-shift:baseline;color:#000000;fill:#000000;fill-opacity:1;stroke:none;stroke-width:1px;marker:none;visibility:visible;display:inline;overflow:visible;enable-background:accumulate;font-family:Sans;-inkscape-font-specification:Sans"
       d="m 69.53125,18.8125 0,1 9,0 0,-1 -9,0 z"
       id="path4660" />
    <path
       style="font-size:medium;font-style:normal;font-variant:normal;font-weight:normal;font-stretch:normal;text-indent:0;text-align:start;text-decoration:none;line-height:normal;letter-spacing:normal;word-spacing:normal;text-transform:none;direction:ltr;block-progression:tb;writing-mode:lr-tb;text-anchor:start;baseline-shift:baseline;color:#000000;fill:#000000;fill-opacity:1;stroke:none;stroke-width:1;marker:none;visibility:visible;display:inline;overflow:visible;enable-background:accumulate;font-family:Sans;-inkscape-font-specification:Sans"
       d="m 23.375,28.46875 1,0 0,-1 -1,0 z"
       id="path4981" />
    <path
       style="font-size:medium;font-style:normal;font-variant:normal;font-weight:normal;font-stretch:normal;text-indent:0;text-align:start;text-decoration:none;line-height:normal;letter-spacing:normal;word-spacing:normal;text-transform:none;direction:ltr;block-progression:tb;writing-mode:lr-tb;text-anchor:start;baseline-shift:baseline;color:#000000;fill:#000000;fill-opacity:1;stroke:none;stroke-width:1;marker:none;visibility:visible;display:inline;overflow:visible;enable-background:accumulate;font-family:Sans;-inkscape-font-specification:Sans"
       d="m 26.375,28.46875 1,0 0,-1 -1,0 z"
       id="path4979" />
    <path
       style="font-size:medium;font-style:normal;font-variant:normal;font-weight:normal;font-stretch:normal;text-indent:0;text-align:start;text-decoration:none;line-height:normal;letter-spacing:normal;word-spacing:normal;text-transform:none;direction:ltr;block-progression:tb;writing-mode:lr-tb;text-anchor:start;baseline-shift:baseline;color:#000000;fill:#000000;fill-opacity:1;stroke:none;stroke-width:1;marker:none;visibility:visible;display:inline;overflow:visible;enable-background:accumulate;font-family:Sans;-inkscape-font-specification:Sans"
       d="m 29.375,28.46875 1,0 0,-1 -1,0 z"
       id="path4977" />
    <path
       style="font-size:medium;font-style:normal;font-variant:normal;font-weight:normal;font-stretch:normal;text-indent:0;text-align:start;text-decoration:none;line-height:normal;letter-spacing:normal;word-spacing:normal;text-transform:none;direction:ltr;block-progression:tb;writing-mode:lr-tb;text-anchor:start;baseline-shift:baseline;color:#000000;fill:#000000;fill-opacity:1;stroke:none;stroke-width:1;marker:none;visibility:visible;display:inline;overflow:visible;enable-background:accumulate;font-family:Sans;-inkscape-font-specification:Sans"
       d="m 32.375,28.46875 1,0 0,-1 -1,0 z"
       id="path4975" />
    <path
       style="font-size:medium;font-style:normal;font-variant:normal;font-weight:normal;font-stretch:normal;text-indent:0;text-align:start;text-decoration:none;line-height:normal;letter-spacing:normal;word-spacing:normal;text-transform:none;direction:ltr;block-progression:tb;writing-mode:lr-tb;text-anchor:start;baseline-shift:baseline;color:#000000;fill:#000000;fill-opacity:1;stroke:none;stroke-width:1;marker:none;visibility:visible;display:inline;overflow:visible;enable-background:accumulate;font-family:Sans;-inkscape-font-specification:Sans"
       d="m 35.375,28.46875 1,0 0,-1 -1,0 z"
       id="path4973" />
    <path
       style="font-size:medium;font-style:normal;font-variant:normal;font-weight:normal;font-stretch:normal;text-indent:0;text-align:start;text-decoration:none;line-height:normal;letter-spacing:normal;word-spacing:normal;text-transform:none;direction:ltr;block-progression:tb;writing-mode:lr-tb;text-anchor:start;baseline-shift:baseline;color:#000000;fill:#000000;fill-opacity:1;stroke:none;stroke-width:1;marker:none;visibility:visible;display:inline;overflow:visible;enable-background:accumulate;font-family:Sans;-inkscape-font-specification:Sans"
       d="m 38.375,28.46875 1,0 0,-1 -1,0 z"
       id="path4971" />
    <path
       style="font-size:medium;font-style:normal;font-variant:normal;font-weight:normal;font-stretch:normal;text-indent:0;text-align:start;text-decoration:none;line-height:normal;letter-spacing:normal;word-spacing:normal;text-transform:none;direction:ltr;block-progression:tb;writing-mode:lr-tb;text-anchor:start;baseline-shift:baseline;color:#000000;fill:#000000;fill-opacity:1;stroke:none;stroke-width:1;marker:none;visibility:visible;display:inline;overflow:visible;enable-background:accumulate;font-family:Sans;-inkscape-font-specification:Sans"
       d="m 41.375,28.46875 1,0 0,-1 -1,0 z"
       id="path4969" />
    <path
       style="font-size:medium;font-style:normal;font-variant:normal;font-weight:normal;font-stretch:normal;text-indent:0;text-align:start;text-decoration:none;line-height:normal;letter-spacing:normal;word-spacing:normal;text-transform:none;direction:ltr;block-progression:tb;writing-mode:lr-tb;text-anchor:start;baseline-shift:baseline;color:#000000;fill:#000000;fill-opacity:1;stroke:none;stroke-width:1;marker:none;visibility:visible;display:inline;overflow:visible;enable-background:accumulate;font-family:Sans;-inkscape-font-specification:Sans"
       d="m 44.375,28.46875 1,0 0,-1 -1,0 z"
       id="path4967" />
    <path
       style="font-size:medium;font-style:normal;font-variant:normal;font-weight:normal;font-stretch:normal;text-indent:0;text-align:start;text-decoration:none;line-height:normal;letter-spacing:normal;word-spacing:normal;text-transform:none;direction:ltr;block-progression:tb;writing-mode:lr-tb;text-anchor:start;baseline-shift:baseline;color:#000000;fill:#000000;fill-opacity:1;stroke:none;stroke-width:1;marker:none;visibility:visible;display:inline;overflow:visible;enable-background:accumulate;font-family:Sans;-inkscape-font-specification:Sans"
       d="m 47.375,28.46875 1,0 0,-1 -1,0 z"
       id="path4965" />
    <path
       style="font-size:medium;font-style:normal;font-variant:normal;font-weight:normal;font-stretch:normal;text-indent:0;text-align:start;text-decoration:none;line-height:normal;letter-spacing:normal;word-spacing:normal;text-transform:none;direction:ltr;block-progression:tb;writing-mode:lr-tb;text-anchor:start;baseline-shift:baseline;color:#000000;fill:#000000;fill-opacity:1;stroke:none;stroke-width:1;marker:none;visibility:visible;display:inline;overflow:visible;enable-background:accumulate;font-family:Sans;-inkscape-font-specification:Sans"
       d="m 50.375,28.46875 1,0 0,-1 -1,0 z"
       id="path4963" />
    <path
       style="font-size:medium;font-style:normal;font-variant:normal;font-weight:normal;font-stretch:normal;text-indent:0;text-align:start;text-decoration:none;line-height:normal;letter-spacing:normal;word-spacing:normal;text-transform:none;direction:ltr;block-progression:tb;writing-mode:lr-tb;text-anchor:start;baseline-shift:baseline;color:#000000;fill:#000000;fill-opacity:1;stroke:none;stroke-width:1;marker:none;visibility:visible;display:inline;overflow:visible;enable-background:accumulate;font-family:Sans;-inkscape-font-specification:Sans"
       d="m 53.375,28.46875 1,0 0,-1 -1,0 z"
       id="path4961" />
    <path
       style="font-size:medium;font-style:normal;font-variant:normal;font-weight:normal;font-stretch:normal;text-indent:0;text-align:start;text-decoration:none;line-height:normal;letter-spacing:normal;word-spacing:normal;text-transform:none;direction:ltr;block-progression:tb;writing-mode:lr-tb;text-anchor:start;baseline-shift:baseline;color:#000000;fill:#000000;fill-opacity:1;stroke:none;stroke-width:1;marker:none;visibility:visible;display:inline;overflow:visible;enable-background:accumulate;font-family:Sans;-inkscape-font-specification:Sans"
       d="m 56.375,28.46875 1,0 0,-1 -1,0 z"
       id="path4959" />
    <path
       style="font-size:medium;font-style:normal;font-variant:normal;font-weight:normal;font-stretch:normal;text-indent:0;text-align:start;text-decoration:none;line-height:normal;letter-spacing:normal;word-spacing:normal;text-transform:none;direction:ltr;block-progression:tb;writing-mode:lr-tb;text-anchor:start;baseline-shift:baseline;color:#000000;fill:#000000;fill-opacity:1;stroke:none;stroke-width:1;marker:none;visibility:visible;display:inline;overflow:visible;enable-background:accumulate;font-family:Sans;-inkscape-font-specification:Sans"
       d="m 59.375,28.46875 1,0 0,-1 -1,0 z"
       id="path4957" />
    <path
       style="font-size:medium;font-style:normal;font-variant:normal;font-weight:normal;font-stretch:normal;text-indent:0;text-align:start;text-decoration:none;line-height:normal;letter-spacing:normal;word-spacing:normal;text-transform:none;direction:ltr;block-progression:tb;writing-mode:lr-tb;text-anchor:start;baseline-shift:baseline;color:#000000;fill:#000000;fill-opacity:1;stroke:none;stroke-width:1;marker:none;visibility:visible;display:inline;overflow:visible;enable-background:accumulate;font-family:Sans;-inkscape-font-specification:Sans"
       d="m 62.375,28.46875 1,0 0,-1 -1,0 z"
       id="path4955" />
    <path
       style="font-size:medium;font-style:normal;font-variant:normal;font-weight:normal;font-stretch:normal;text-indent:0;text-align:start;text-decoration:none;line-height:normal;letter-spacing:normal;word-spacing:normal;text-transform:none;direction:ltr;block-progression:tb;writing-mode:lr-tb;text-anchor:start;baseline-shift:baseline;color:#000000;fill:#000000;fill-opacity:1;stroke:none;stroke-width:1;marker:none;visibility:visible;display:inline;overflow:visible;enable-background:accumulate;font-family:Sans;-inkscape-font-specification:Sans"
       d="m 65.375,28.46875 0.96875,0 0,-0.4375 0.5,0 0,-0.0625 0,-0.5 -0.5,0 -0.96875,0 z"
       id="path4953" />
    <path
       style="font-size:medium;font-style:normal;font-variant:normal;font-weight:normal;font-stretch:normal;text-indent:0;text-align:start;text-decoration:none;line-height:normal;letter-spacing:normal;word-spacing:normal;text-transform:none;direction:ltr;block-progression:tb;writing-mode:lr-tb;text-anchor:start;baseline-shift:baseline;color:#000000;fill:#000000;fill-opacity:1;stroke:none;stroke-width:1;marker:none;visibility:visible;display:inline;overflow:visible;enable-background:accumulate;font-family:Sans;-inkscape-font-specification:Sans"
       d="m 65.84375,31.03125 1,0 0,-1 -1,0 z"
       id="path4951" />
    <path
       style="font-size:medium;font-style:normal;font-variant:normal;font-weight:normal;font-stretch:normal;text-indent:0;text-align:start;text-decoration:none;line-height:normal;letter-spacing:normal;word-spacing:normal;text-transform:none;direction:ltr;block-progression:tb;writing-mode:lr-tb;text-anchor:start;baseline-shift:baseline;color:#000000;fill:#000000;fill-opacity:1;stroke:none;stroke-width:1;marker:none;visibility:visible;display:inline;overflow:visible;enable-background:accumulate;font-family:Sans;-inkscape-font-specification:Sans"
       d="m 65.84375,34.03125 1,0 0,-1 -1,0 z"
       id="path4949" />
    <path
       style="font-size:medium;font-style:normal;font-variant:normal;font-weight:normal;font-stretch:normal;text-indent:0;text-align:start;text-decoration:none;line-height:normal;letter-spacing:normal;word-spacing:normal;text-transform:none;direction:ltr;block-progression:tb;writing-mode:lr-tb;text-anchor:start;baseline-shift:baseline;color:#000000;fill:#000000;fill-opacity:1;stroke:none;stroke-width:1;marker:none;visibility:visible;display:inline;overflow:visible;enable-background:accumulate;font-family:Sans;-inkscape-font-specification:Sans"
       d="m 65.84375,37.03125 1,0 0,-1 -1,0 z"
       id="path4947" />
    <path
       style="font-size:medium;font-style:normal;font-variant:normal;font-weight:normal;font-stretch:normal;text-indent:0;text-align:start;text-decoration:none;line-height:normal;letter-spacing:normal;word-spacing:normal;text-transform:none;direction:ltr;block-progression:tb;writing-mode:lr-tb;text-anchor:start;baseline-shift:baseline;color:#000000;fill:#000000;fill-opacity:1;stroke:none;stroke-width:1;marker:none;visibility:visible;display:inline;overflow:visible;enable-background:accumulate;font-family:Sans;-inkscape-font-specification:Sans"
       d="m 65.84375,40.03125 1,0 0,-1 -1,0 z"
       id="path4945" />
    <path
       style="font-size:medium;font-style:normal;font-variant:normal;font-weight:normal;font-stretch:normal;text-indent:0;text-align:start;text-decoration:none;line-height:normal;letter-spacing:normal;word-spacing:normal;text-transform:none;direction:ltr;block-progression:tb;writing-mode:lr-tb;text-anchor:start;baseline-shift:baseline;color:#000000;fill:#000000;fill-opacity:1;stroke:none;stroke-width:1;marker:none;visibility:visible;display:inline;overflow:visible;enable-background:accumulate;font-family:Sans;-inkscape-font-specification:Sans"
       d="m 65.84375,43.03125 1,0 0,-1 -1,0 z"
       id="path4943" />
    <path
       style="font-size:medium;font-style:normal;font-variant:normal;font-weight:normal;font-stretch:normal;text-indent:0;text-align:start;text-decoration:none;line-height:normal;letter-spacing:normal;word-spacing:normal;text-transform:none;direction:ltr;block-progression:tb;writing-mode:lr-tb;text-anchor:start;baseline-shift:baseline;color:#000000;fill:#000000;fill-opacity:1;stroke:none;stroke-width:1;marker:none;visibility:visible;display:inline;overflow:visible;enable-background:accumulate;font-family:Sans;-inkscape-font-specification:Sans"
       d="m 65.84375,46.03125 1,0 0,-1 -1,0 z"
       id="path4941" />
    <path
       style="font-size:medium;font-style:normal;font-variant:normal;font-weight:normal;font-stretch:normal;text-indent:0;text-align:start;text-decoration:none;line-height:normal;letter-spacing:normal;word-spacing:normal;text-transform:none;direction:ltr;block-progression:tb;writing-mode:lr-tb;text-anchor:start;baseline-shift:baseline;color:#000000;fill:#000000;fill-opacity:1;stroke:none;stroke-width:1;marker:none;visibility:visible;display:inline;overflow:visible;enable-background:accumulate;font-family:Sans;-inkscape-font-specification:Sans"
       d="m 65.84375,49.03125 1,0 0,-1 -1,0 z"
       id="path4939" />
    <path
       style="font-size:medium;font-style:normal;font-variant:normal;font-weight:normal;font-stretch:normal;text-indent:0;text-align:start;text-decoration:none;line-height:normal;letter-spacing:normal;word-spacing:normal;text-transform:none;direction:ltr;block-progression:tb;writing-mode:lr-tb;text-anchor:start;baseline-shift:baseline;color:#000000;fill:#000000;fill-opacity:1;stroke:none;stroke-width:1;marker:none;visibility:visible;display:inline;overflow:visible;enable-background:accumulate;font-family:Sans;-inkscape-font-specification:Sans"
       d="m 65.84375,52.03125 1,0 0,-1 -1,0 z"
       id="path4937" />
    <path
       style="font-size:medium;font-style:normal;font-variant:normal;font-weight:normal;font-stretch:normal;text-indent:0;text-align:start;text-decoration:none;line-height:normal;letter-spacing:normal;word-spacing:normal;text-transform:none;direction:ltr;block-progression:tb;writing-mode:lr-tb;text-anchor:start;baseline-shift:baseline;color:#000000;fill:#000000;fill-opacity:1;stroke:none;stroke-width:1;marker:none;visibility:visible;display:inline;overflow:visible;enable-background:accumulate;font-family:Sans;-inkscape-font-specification:Sans"
       d="m 65.84375,55.03125 1,0 0,-1 -1,0 z"
       id="path4935" />
    <path
       style="font-size:medium;font-style:normal;font-variant:normal;font-weight:normal;font-stretch:normal;text-indent:0;text-align:start;text-decoration:none;line-height:normal;letter-spacing:normal;word-spacing:normal;text-transform:none;direction:ltr;block-progression:tb;writing-mode:lr-tb;text-anchor:start;baseline-shift:baseline;color:#000000;fill:#000000;fill-opacity:1;stroke:none;stroke-width:1;marker:none;visibility:visible;display:inline;overflow:visible;enable-background:accumulate;font-family:Sans;-inkscape-font-specification:Sans"
       d="m 65.84375,58.03125 1,0 0,-1 -1,0 z"
       id="path4933" />
    <path
       style="font-size:medium;font-style:normal;font-variant:normal;font-weight:normal;font-stretch:normal;text-indent:0;text-align:start;text-decoration:none;line-height:normal;letter-spacing:normal;word-spacing:normal;text-transform:none;direction:ltr;block-progression:tb;writing-mode:lr-tb;text-anchor:start;baseline-shift:baseline;color:#000000;fill:#000000;fill-opacity:1;stroke:none;stroke-width:1;marker:none;visibility:visible;display:inline;overflow:visible;enable-background:accumulate;font-family:Sans;-inkscape-font-specification:Sans"
       d="m 65.84375,61.03125 1,0 0,-1 -1,0 z"
       id="path4931" />
    <path
       style="font-size:medium;font-style:normal;font-variant:normal;font-weight:normal;font-stretch:normal;text-indent:0;text-align:start;text-decoration:none;line-height:normal;letter-spacing:normal;word-spacing:normal;text-transform:none;direction:ltr;block-progression:tb;writing-mode:lr-tb;text-anchor:start;baseline-shift:baseline;color:#000000;fill:#000000;fill-opacity:1;stroke:none;stroke-width:1;marker:none;visibility:visible;display:inline;overflow:visible;enable-background:accumulate;font-family:Sans;-inkscape-font-specification:Sans"
       d="m 65.84375,64.03125 1,0 0,-1 -1,0 z"
       id="path4929" />
    <path
       style="font-size:medium;font-style:normal;font-variant:normal;font-weight:normal;font-stretch:normal;text-indent:0;text-align:start;text-decoration:none;line-height:normal;letter-spacing:normal;word-spacing:normal;text-transform:none;direction:ltr;block-progression:tb;writing-mode:lr-tb;text-anchor:start;baseline-shift:baseline;color:#000000;fill:#000000;fill-opacity:1;stroke:none;stroke-width:1;marker:none;visibility:visible;display:inline;overflow:visible;enable-background:accumulate;font-family:Sans;-inkscape-font-specification:Sans"
       d="m 65.84375,67.03125 1,0 0,-1 -1,0 z"
       id="path4927" />
    <path
       style="font-size:medium;font-style:normal;font-variant:normal;font-weight:normal;font-stretch:normal;text-indent:0;text-align:start;text-decoration:none;line-height:normal;letter-spacing:normal;word-spacing:normal;text-transform:none;direction:ltr;block-progression:tb;writing-mode:lr-tb;text-anchor:start;baseline-shift:baseline;color:#000000;fill:#000000;fill-opacity:1;stroke:none;stroke-width:1;marker:none;visibility:visible;display:inline;overflow:visible;enable-background:accumulate;font-family:Sans;-inkscape-font-specification:Sans"
       d="m 65.84375,70.03125 1,0 0,-1 -1,0 z"
       id="path4925" />
    <path
       style="font-size:medium;font-style:normal;font-variant:normal;font-weight:normal;font-stretch:normal;text-indent:0;text-align:start;text-decoration:none;line-height:normal;letter-spacing:normal;word-spacing:normal;text-transform:none;direction:ltr;block-progression:tb;writing-mode:lr-tb;text-anchor:start;baseline-shift:baseline;color:#000000;fill:#000000;fill-opacity:1;stroke:none;stroke-width:1;marker:none;visibility:visible;display:inline;overflow:visible;enable-background:accumulate;font-family:Sans;-inkscape-font-specification:Sans"
       d="m 65.84375,73.03125 1,0 0,-1 -1,0 z"
       id="path4923" />
    <path
       style="font-size:medium;font-style:normal;font-variant:normal;font-weight:normal;font-stretch:normal;text-indent:0;text-align:start;text-decoration:none;line-height:normal;letter-spacing:normal;word-spacing:normal;text-transform:none;direction:ltr;block-progression:tb;writing-mode:lr-tb;text-anchor:start;baseline-shift:baseline;color:#000000;fill:#000000;fill-opacity:1;stroke:none;stroke-width:1;marker:none;visibility:visible;display:inline;overflow:visible;enable-background:accumulate;font-family:Sans;-inkscape-font-specification:Sans"
       d="m 65.84375,76.03125 1,0 0,-1 -1,0 z"
       id="path4921" />
    <path
       style="font-size:medium;font-style:normal;font-variant:normal;font-weight:normal;font-stretch:normal;text-indent:0;text-align:start;text-decoration:none;line-height:normal;letter-spacing:normal;word-spacing:normal;text-transform:none;direction:ltr;block-progression:tb;writing-mode:lr-tb;text-anchor:start;baseline-shift:baseline;color:#000000;fill:#000000;fill-opacity:1;stroke:none;stroke-width:1;marker:none;visibility:visible;display:inline;overflow:visible;enable-background:accumulate;font-family:Sans;-inkscape-font-specification:Sans"
       d="m 65.84375,79.03125 1,0 0,-1 -1,0 z"
       id="path4919" />
    <path
       style="font-size:medium;font-style:normal;font-variant:normal;font-weight:normal;font-stretch:normal;text-indent:0;text-align:start;text-decoration:none;line-height:normal;letter-spacing:normal;word-spacing:normal;text-transform:none;direction:ltr;block-progression:tb;writing-mode:lr-tb;text-anchor:start;baseline-shift:baseline;color:#000000;fill:#000000;fill-opacity:1;stroke:none;stroke-width:1;marker:none;visibility:visible;display:inline;overflow:visible;enable-background:accumulate;font-family:Sans;-inkscape-font-specification:Sans"
       d="m 65.84375,82.03125 1,0 0,-1 -1,0 z"
       id="path4917" />
    <path
       style="font-size:medium;font-style:normal;font-variant:normal;font-weight:normal;font-stretch:normal;text-indent:0;text-align:start;text-decoration:none;line-height:normal;letter-spacing:normal;word-spacing:normal;text-transform:none;direction:ltr;block-progression:tb;writing-mode:lr-tb;text-anchor:start;baseline-shift:baseline;color:#000000;fill:#000000;fill-opacity:1;stroke:none;stroke-width:1;marker:none;visibility:visible;display:inline;overflow:visible;enable-background:accumulate;font-family:Sans;-inkscape-font-specification:Sans"
       d="m 65.84375,85.03125 1,0 0,-1 -1,0 z"
       id="path4915" />
    <path
       style="font-size:medium;font-style:normal;font-variant:normal;font-weight:normal;font-stretch:normal;text-indent:0;text-align:start;text-decoration:none;line-height:normal;letter-spacing:normal;word-spacing:normal;text-transform:none;direction:ltr;block-progression:tb;writing-mode:lr-tb;text-anchor:start;baseline-shift:baseline;color:#000000;fill:#000000;fill-opacity:1;stroke:none;stroke-width:1;marker:none;visibility:visible;display:inline;overflow:visible;enable-background:accumulate;font-family:Sans;-inkscape-font-specification:Sans"
       d="m 65.84375,88.03125 1,0 0,-1 -1,0 z"
       id="path4662" />
    <path
       style="font-size:12px;font-style:normal;font-weight:normal;line-height:125%;letter-spacing:0px;word-spacing:0px;fill:#000000;fill-opacity:1;stroke:none;font-family:Sans"
       d="m 66.233442,91.987121 c -0.351566,1e-5 -0.722659,0.0469 -1.09375,0.125 -0.371095,0.0742 -0.76172,0.19141 -1.15625,0.34375 l 0,1 c 0.328123,-0.17968 0.67578,-0.3164 1.03125,-0.40625 0.355467,-0.0898 0.718747,-0.15624 1.09375,-0.15625 0.589839,1e-5 1.050777,0.13282 1.375,0.40625 0.32812,0.26954 0.499995,0.66016 0.5,1.15625 l 0,0.125 -1.5,0 c -0.980471,0 -1.722658,0.1875 -2.21875,0.5625 -0.492188,0.375 -0.750001,0.91797 -0.75,1.65625 -10e-7,0.63281 0.199218,1.15234 0.59375,1.53125 0.398436,0.375 0.921873,0.5625 1.59375,0.5625 0.531246,0 1.007809,-0.0937 1.375,-0.28125 0.367183,-0.19141 0.660151,-0.50781 0.90625,-0.90625 l 0,1 1.0625,0 0,-3.75 c -6e-6,-0.99999 -0.218756,-1.72656 -0.6875,-2.21875 -0.468755,-0.49218 -1.175786,-0.74999 -2.125,-0.75 z m 0.6875,3.4375 1.0625,0 0,0.21875 c -5e-6,0.70313 -0.167974,1.26172 -0.53125,1.6875 -0.359379,0.42188 -0.839847,0.65625 -1.4375,0.65625 -0.433596,0 -0.777346,-0.12109 -1.03125,-0.34375 -0.250002,-0.22656 -0.375002,-0.52344 -0.375,-0.90625 -2e-6,-0.48047 0.164061,-0.83203 0.5,-1.03125 0.335935,-0.19922 0.941403,-0.28125 1.8125,-0.28125 z"
       id="path4810"
       inkscape:connector-curvature="0" />
    <path
       style="font-size:12px;font-style:normal;font-weight:normal;line-height:125%;letter-spacing:0px;word-spacing:0px;fill:#000000;fill-opacity:1;stroke:none;font-family:Sans"
       d="m 13.738515,22.321857 0,9.125 1.0625,0 0,-1 c 0.22656,0.390626 0.531247,0.683594 0.875,0.875 0.347653,0.187501 0.738278,0.28125 1.21875,0.28125 0.79687,0 1.441401,-0.304687 1.9375,-0.9375 0.499994,-0.632811 0.749994,-1.468747 0.75,-2.5 -6e-6,-1.031245 -0.250006,-1.867183 -0.75,-2.5 -0.496099,-0.632807 -1.14063,-0.937493 -1.9375,-0.9375 -0.480472,7e-6 -0.871097,0.08985 -1.21875,0.28125 -0.343753,0.187506 -0.64844,0.484381 -0.875,0.875 l 0,-3.5625 -1.0625,0 z m 2.90625,3.3125 c 0.570308,5e-6 1.019527,0.203131 1.34375,0.65625 0.32812,0.449223 0.499994,1.082036 0.5,1.875 -6e-6,0.792972 -0.17188,1.421877 -0.5,1.875 -0.324223,0.44922 -0.773442,0.656251 -1.34375,0.65625 -0.570315,10e-7 -1.015628,-0.20703 -1.34375,-0.65625 -0.324221,-0.453123 -0.500002,-1.082028 -0.5,-1.875 -2e-6,-0.792964 0.175779,-1.425777 0.5,-1.875 0.328122,-0.453119 0.773435,-0.656245 1.34375,-0.65625 z"
       id="path4813"
       inkscape:connector-curvature="0" />
    <path
       style="font-size:12px;font-style:normal;font-weight:normal;line-height:125%;letter-spacing:0px;word-spacing:0px;fill:#000000;fill-opacity:1;stroke:none;font-family:Sans"
       d="M 96.34375 98.78125 C 95.753904 98.781259 95.273436 99.011727 94.875 99.46875 C 94.472656 99.925789 94.249999 100.44922 94.25 101.0625 C 94.249999 101.67188 94.472656 102.19532 94.875 102.65625 C 95.273436 103.11329 95.753904 103.34376 96.34375 103.34375 L 96.03125 102.8125 C 95.707029 102.8125 95.406248 102.65235 95.15625 102.3125 C 94.906249 101.97657 94.781249 101.61329 94.78125 101.21875 C 94.781249 100.82423 94.906249 100.46094 95.15625 100.125 C 95.410154 99.785161 95.714842 99.593758 96.03125 99.59375 C 96.390623 99.593758 96.691403 99.785161 96.9375 100.125 C 97.187496 100.46875 97.312496 100.91797 97.3125 101.5 L 97.3125 105.40625 C 97.312496 105.99219 97.187496 106.47266 96.9375 106.8125 C 96.691403 107.15235 96.406247 107.3125 96.125 107.3125 C 95.843748 107.3125 95.593748 107.15235 95.34375 106.8125 C 95.093749 106.47657 94.968749 106.07032 94.96875 105.59375 C 94.789061 105.54683 94.61328 105.4844 94.4375 105.4375 C 94.437499 106.125 94.628906 106.69532 95.03125 107.15625 C 95.429686 107.61329 95.917966 107.84375 96.46875 107.84375 C 97.015621 107.84375 97.472652 107.61329 97.875 107.15625 C 98.277339 106.69532 98.499996 106.08594 98.5 105.28125 L 98.5 104.09375 L 99.1875 103.78125 C 99.54687 103.61329 99.804681 103.53126 99.96875 103.53125 C 100.27734 103.53126 100.53125 103.85157 100.6875 104.5 C 100.77341 104.85547 100.81249 105.29687 100.8125 105.84375 C 100.81249 106.46484 100.96093 107.12891 101.28125 107.84375 L 103.40625 106.875 L 103.15625 106.3125 L 102.3125 106.71875 C 102.13673 106.25781 102.06249 105.78126 102.0625 105.28125 C 102.06249 104.76954 101.99999 104.26173 101.875 103.78125 C 101.76952 103.37501 101.64061 103.10938 101.5 102.96875 C 101.30858 102.77734 101.10156 102.68751 100.875 102.6875 C 101.36328 102.32032 101.74218 101.89063 102 101.40625 C 102.2539 100.92579 102.37499 100.52735 102.375 100.1875 C 102.37499 99.496102 102.11718 99.035165 101.625 98.84375 C 101.48437 98.78907 101.33984 98.781258 101.15625 98.78125 C 100.71875 98.781258 100.10546 98.941415 99.375 99.28125 L 98.15625 99.84375 C 98.093746 99.718758 97.992183 99.605477 97.875 99.46875 C 97.480465 99.011727 96.976559 98.781259 96.34375 98.78125 z M 100.375 99.625 C 100.49608 99.625 100.5937 99.64845 100.6875 99.6875 C 100.97656 99.812508 101.12499 100.16016 101.125 100.75 C 101.12499 101.22266 100.97656 101.66407 100.6875 102.0625 C 100.38671 102.46875 99.937494 102.80079 99.375 103.0625 L 98.5 103.46875 L 98.5 101.34375 C 98.499996 100.98439 98.45703 100.66797 98.375 100.375 L 99.375 99.90625 C 99.773432 99.722669 100.12499 99.625008 100.375 99.625 z "
       id="path4895" />
    <path
       style="font-size:12px;font-style:normal;font-weight:normal;line-height:125%;letter-spacing:0px;word-spacing:0px;fill:#000000;fill-opacity:1;stroke:none;font-family:Sans"
       d="m 104.72123,98.932613 1.1836,0 0,3.697267 3.92578,-3.697267 1.52343,0 -4.34179,4.078127 4.65234,4.66992 -1.55859,0 -4.20117,-4.21289 0,4.21289 -1.1836,0 0,-8.748047"
       id="path4818" />
    <path
       style="font-size:medium;font-style:normal;font-variant:normal;font-weight:normal;font-stretch:normal;text-indent:0;text-align:start;text-decoration:none;line-height:normal;letter-spacing:normal;word-spacing:normal;text-transform:none;direction:ltr;block-progression:tb;writing-mode:lr-tb;text-anchor:start;baseline-shift:baseline;color:#000000;fill:#000000;fill-opacity:1;stroke:none;stroke-width:1px;marker:none;visibility:visible;display:inline;overflow:visible;enable-background:accumulate;font-family:Sans;-inkscape-font-specification:Sans"
       d="m 103.59375,96.34375 0,1 9.03125,0 0,-1 -9.03125,0 z"
       id="path4660-9" />
    <path
       style="font-size:12px;font-style:normal;font-weight:normal;line-height:125%;letter-spacing:0px;word-spacing:0px;fill:#000000;fill-opacity:1;stroke:none;font-family:Sans"
       d="m 2.081196,12.443862 0.820313,-0.966797 c 0.433592,-0.152342 0.878904,-0.228514 1.335937,-0.228515 0.222653,1e-6 0.591794,0.156251 1.107422,0.46875 0.562496,0.335938 0.908198,0.503907 1.037109,0.503906 0.472651,10e-7 0.904292,-0.267577 1.294922,-0.802734 C 7.954237,11.039567 8.092908,10.70363 8.092915,10.410659 8.092908,9.918475 7.971815,9.453631 7.729634,9.016128 7.417128,8.44582 7.260878,7.947773 7.260884,7.521987 7.260878,7.131368 7.417128,6.623556 7.729634,5.99855 L 8.977681,5.178237 c -0.312508,0.542976 -0.468757,1.050788 -0.46875,1.523438 -7e-6,0.417974 0.156242,0.916021 0.46875,1.49414 0.207023,0.382817 0.310539,0.94141 0.310546,1.675782 -7e-6,0.36719 -0.394538,1.023439 -1.183593,1.96875 -0.726569,0.867189 -1.562505,1.300779 -2.507813,1.300779 -0.210941,0 -0.568363,-0.1543 -1.072265,-0.46289 -0.519534,-0.312498 -0.888674,-0.468748 -1.107422,-0.468749 -0.367189,1e-6 -0.812501,0.07813 -1.335938,0.234375"
       id="path4889" />
    <path
       style="font-size:12px;font-style:normal;font-weight:normal;line-height:125%;letter-spacing:0px;word-spacing:0px;fill:#000000;fill-opacity:1;stroke:none;font-family:Sans"
       d="M 3.510884,4.393081 C 3.936663,4.17434 4.424943,4.064965 4.975727,4.064956 c 0.480465,9e-6 0.968746,0.09571 1.464844,0.287109 0.476557,0.183602 0.964838,0.275399 1.464844,0.275391 0.488274,8e-6 0.976555,-0.113273 1.464844,-0.339844 L 8.198384,5.283706 C 7.655409,5.510276 7.167128,5.623557 6.73354,5.62355 6.174942,5.623557 5.686661,5.52785 5.268696,5.33644 4.850724,5.145042 4.362443,5.049339 3.803852,5.049331 3.327288,5.049339 2.839007,5.16262 2.339009,5.389175 L 3.510884,4.393081"
       id="path4821" />
    <path
       style="font-size:12px;font-style:normal;font-weight:normal;line-height:125%;letter-spacing:0px;word-spacing:0px;fill:#000000;fill-opacity:1;stroke:none;font-family:Sans"
       d="m 11.005024,4.223159 1.183594,0 0,3.697266 3.925781,-3.697266 1.523438,0 -4.341797,4.078125 4.652344,4.669922 -1.558594,0 -4.201172,-4.212891 0,4.212891 -1.183594,0 0,-8.748047"
       id="path4823" />
    <path
       style="font-size:medium;font-style:normal;font-variant:normal;font-weight:normal;font-stretch:normal;text-indent:0;text-align:start;text-decoration:none;line-height:normal;letter-spacing:normal;word-spacing:normal;text-transform:none;direction:ltr;block-progression:tb;writing-mode:lr-tb;text-anchor:start;baseline-shift:baseline;color:#000000;fill:#000000;fill-opacity:1;stroke:none;stroke-width:1px;marker:none;visibility:visible;display:inline;overflow:visible;enable-background:accumulate;font-family:Sans;-inkscape-font-specification:Sans"
       d="m 9.875,1.625 0,1 9,0 0,-1 -9,0 z"
       id="path4660-9-9" />
    <path
       style="font-size:medium;font-style:normal;font-variant:normal;font-weight:normal;font-stretch:normal;text-indent:0;text-align:start;text-decoration:none;line-height:normal;letter-spacing:normal;word-spacing:normal;text-transform:none;direction:ltr;block-progression:tb;writing-mode:lr-tb;text-anchor:start;baseline-shift:baseline;color:#000000;fill:#000000;fill-opacity:1;stroke:none;stroke-width:1;marker:none;visibility:visible;display:inline;overflow:visible;enable-background:accumulate;font-family:Sans;-inkscape-font-specification:Sans"
       d="m 32.53125,75.125 -0.59375,0.8125 0.40625,0.3125 c 3.782147,2.830978 6.057147,7.215959 6.21875,11.9375 l 0.03125,0.5 1,-0.03125 -0.03125,-0.5 C 39.390555,83.132541 36.961695,78.449654 32.9375,75.4375 L 32.53125,75.125 z"
       id="path4774" />
  </g>
</svg>
