<?xml version="1.0" encoding="UTF-8" standalone="no"?>
<!-- Created with Inkscape (http://www.inkscape.org/) -->

<svg
   xmlns:dc="http://purl.org/dc/elements/1.1/"
   xmlns:cc="http://creativecommons.org/ns#"
   xmlns:rdf="http://www.w3.org/1999/02/22-rdf-syntax-ns#"
   xmlns:svg="http://www.w3.org/2000/svg"
   xmlns="http://www.w3.org/2000/svg"
   xmlns:sodipodi="http://sodipodi.sourceforge.net/DTD/sodipodi-0.dtd"
   xmlns:inkscape="http://www.inkscape.org/namespaces/inkscape"
   width="130"
   height="130"
   id="svg2"
   version="1.1"
   inkscape:version="0.48.0 r9654"
   sodipodi:docname="2011-(04)apr-08, 09.svg">
  <defs
     id="defs4" />
  <sodipodi:namedview
     id="base"
     pagecolor="#ffffff"
     bordercolor="#666666"
     borderopacity="1.0"
     inkscape:pageopacity="0.0"
     inkscape:pageshadow="2"
     inkscape:zoom="4"
     inkscape:cx="52.385508"
     inkscape:cy="93.49458"
     inkscape:document-units="px"
     inkscape:current-layer="layer1"
     showgrid="false"
     inkscape:window-width="1589"
     inkscape:window-height="1117"
     inkscape:window-x="1600"
     inkscape:window-y="27"
     inkscape:window-maximized="1"
     showguides="true"
     inkscape:guide-bbox="true" />
  <metadata
     id="metadata7">
    <rdf:RDF>
      <cc:Work
         rdf:about="">
        <dc:format>image/svg+xml</dc:format>
        <dc:type
           rdf:resource="http://purl.org/dc/dcmitype/StillImage" />
        <dc:title />
      </cc:Work>
    </rdf:RDF>
  </metadata>
  <g
     inkscape:label="Layer 1"
     inkscape:groupmode="layer"
     id="layer1">
    <rect
       style="fill:#0000ff;fill-rule:evenodd;stroke:#000000;stroke-width:1px;stroke-linecap:butt;stroke-linejoin:miter;stroke-opacity:1"
       id="rect3007"
       width="58"
       height="0"
       x="-331.76865"
       y="92.110023" />
    <rect
       style="fill:#0000ff;fill-rule:evenodd;stroke:#000000;stroke-width:1px;stroke-linecap:butt;stroke-linejoin:miter;stroke-opacity:1"
       id="rect3007-3"
       width="58"
       height="0"
       x="-268.32855"
       y="113.3216" />
    <path
       style="font-size:medium;font-style:normal;font-variant:normal;font-weight:normal;font-stretch:normal;text-indent:0;text-align:start;text-decoration:none;line-height:normal;letter-spacing:normal;word-spacing:normal;text-transform:none;direction:ltr;block-progression:tb;writing-mode:lr-tb;text-anchor:start;baseline-shift:baseline;color:#000000;fill:#000000;fill-opacity:1;stroke:none;stroke-width:1px;marker:none;visibility:visible;display:inline;overflow:visible;enable-background:accumulate;font-family:Sans;-inkscape-font-specification:Sans"
       d="m 4.15625,63.90625 0,1 47,0 0,-1 -47,0 z"
       id="path3120" />
    <path
       style="font-size:medium;font-style:normal;font-variant:normal;font-weight:normal;font-stretch:normal;text-indent:0;text-align:start;text-decoration:none;line-height:normal;letter-spacing:normal;word-spacing:normal;text-transform:none;direction:ltr;block-progression:tb;writing-mode:lr-tb;text-anchor:start;baseline-shift:baseline;color:#000000;fill:#000000;fill-opacity:1;stroke:none;stroke-width:1px;marker:none;visibility:visible;display:inline;overflow:visible;enable-background:accumulate;font-family:Sans;-inkscape-font-specification:Sans"
       d="m 50.53125,4.625 0,33.71875 1,0 0,-33.71875 -1,0 z"
       id="path4541" />
    <path
       style="font-size:medium;font-style:normal;font-variant:normal;font-weight:normal;font-stretch:normal;text-indent:0;text-align:start;text-decoration:none;line-height:normal;letter-spacing:normal;word-spacing:normal;text-transform:none;direction:ltr;block-progression:tb;writing-mode:lr-tb;text-anchor:start;baseline-shift:baseline;color:#000000;fill:#000000;fill-opacity:1;stroke:none;stroke-width:1px;marker:none;visibility:visible;display:inline;overflow:visible;enable-background:accumulate;font-family:Sans;-inkscape-font-specification:Sans"
       d="m 50.53125,47.59375 0,17.21875 1,0 0,-17.21875 -1,0 z"
       id="path3122" />
    <path
       style="font-size:medium;font-style:normal;font-variant:normal;font-weight:normal;font-stretch:normal;text-indent:0;text-align:start;text-decoration:none;line-height:normal;letter-spacing:normal;word-spacing:normal;text-transform:none;direction:ltr;block-progression:tb;writing-mode:lr-tb;text-anchor:start;baseline-shift:baseline;color:#000000;fill:#000000;fill-opacity:1;stroke:none;stroke-width:1px;marker:none;visibility:visible;display:inline;overflow:visible;enable-background:accumulate;font-family:Sans;-inkscape-font-specification:Sans"
       d="M 51.0625 36.875 L 50.625 37.6875 L 45.34375 47.375 L 44.9375 48.125 L 45.78125 48.125 L 56.3125 48.125 L 57.15625 48.125 L 56.75 47.375 L 51.5 37.6875 L 51.0625 36.875 z M 51.0625 38.96875 L 55.46875 47.125 L 46.625 47.125 L 51.0625 38.96875 z "
       id="path4545" />
    <path
       style="font-size:medium;font-style:normal;font-variant:normal;font-weight:normal;font-stretch:normal;text-indent:0;text-align:start;text-decoration:none;line-height:normal;letter-spacing:normal;word-spacing:normal;text-transform:none;direction:ltr;block-progression:tb;writing-mode:lr-tb;text-anchor:start;baseline-shift:baseline;color:#000000;fill:#000000;fill-opacity:1;stroke:none;stroke-width:1px;marker:none;visibility:visible;display:inline;overflow:visible;enable-background:accumulate;font-family:Sans;-inkscape-font-specification:Sans"
       d="m 44.65625,36.75 0,1 12.65625,0 0,-1 -12.65625,0 z"
       id="path3128" />
    <path
       style="font-size:medium;font-style:normal;font-variant:normal;font-weight:normal;font-stretch:normal;text-indent:0;text-align:start;text-decoration:none;line-height:normal;letter-spacing:normal;word-spacing:normal;text-transform:none;direction:ltr;block-progression:tb;writing-mode:lr-tb;text-anchor:start;baseline-shift:baseline;color:#000000;fill:#000000;fill-opacity:1;stroke:none;stroke-width:1px;marker:none;visibility:visible;display:inline;overflow:visible;enable-background:accumulate;font-family:Sans;-inkscape-font-specification:Sans"
       d="m 50.53125,21.75 0,5.03125 1,0 0,-5.03125 -1,0 z"
       id="path3130" />
    <path
       style="font-size:12px;fill-rule:evenodd;stroke-width:0.625;stroke-linejoin:round"
       d="M 55.462853,16.077937 51.043359,28.096402 46.623865,16.077937 c 2.609267,1.920048 6.179198,1.908985 8.838988,0 z"
       id="path4503" />
    <path
       style="font-size:medium;font-style:normal;font-variant:normal;font-weight:normal;font-stretch:normal;text-indent:0;text-align:start;text-decoration:none;line-height:normal;letter-spacing:normal;word-spacing:normal;text-transform:none;direction:ltr;block-progression:tb;writing-mode:lr-tb;text-anchor:start;baseline-shift:baseline;color:#000000;fill:#000000;fill-opacity:1;stroke:none;stroke-width:1px;marker:none;visibility:visible;display:inline;overflow:visible;enable-background:accumulate;font-family:Sans;-inkscape-font-specification:Sans"
       d="m 50.53125,64.625 0,17.25 1,0 0,-17.25 -1,0 z"
       id="path4555" />
    <path
       style="font-size:medium;font-style:normal;font-variant:normal;font-weight:normal;font-stretch:normal;text-indent:0;text-align:start;text-decoration:none;line-height:normal;letter-spacing:normal;word-spacing:normal;text-transform:none;direction:ltr;block-progression:tb;writing-mode:lr-tb;text-anchor:start;baseline-shift:baseline;color:#000000;fill:#000000;fill-opacity:1;stroke:none;stroke-width:1px;marker:none;visibility:visible;display:inline;overflow:visible;enable-background:accumulate;font-family:Sans;-inkscape-font-specification:Sans"
       d="m 50.53125,91.125 0,33.6875 1,0 0,-33.6875 -1,0 z"
       id="path4344" />
    <path
       style="font-size:medium;font-style:normal;font-variant:normal;font-weight:normal;font-stretch:normal;text-indent:0;text-align:start;text-decoration:none;line-height:normal;letter-spacing:normal;word-spacing:normal;text-transform:none;direction:ltr;block-progression:tb;writing-mode:lr-tb;text-anchor:start;baseline-shift:baseline;color:#000000;fill:#000000;fill-opacity:1;stroke:none;stroke-width:1px;marker:none;visibility:visible;display:inline;overflow:visible;enable-background:accumulate;font-family:Sans;-inkscape-font-specification:Sans"
       d="M 44.9375 81.3125 L 45.34375 82.0625 L 50.625 91.75 L 51.0625 92.5625 L 51.5 91.75 L 56.75 82.0625 L 57.15625 81.3125 L 56.3125 81.3125 L 45.78125 81.3125 L 44.9375 81.3125 z M 46.625 82.3125 L 55.5 82.3125 L 51.0625 90.46875 L 46.625 82.3125 z "
       id="path4559" />
    <path
       style="font-size:medium;font-style:normal;font-variant:normal;font-weight:normal;font-stretch:normal;text-indent:0;text-align:start;text-decoration:none;line-height:normal;letter-spacing:normal;word-spacing:normal;text-transform:none;direction:ltr;block-progression:tb;writing-mode:lr-tb;text-anchor:start;baseline-shift:baseline;color:#000000;fill:#000000;fill-opacity:1;stroke:none;stroke-width:1px;marker:none;visibility:visible;display:inline;overflow:visible;enable-background:accumulate;font-family:Sans;-inkscape-font-specification:Sans"
       d="m 44.65625,91.6875 0,1 12.65625,0 0,-1 -12.65625,0 z"
       id="path4348" />
    <path
       style="font-size:medium;font-style:normal;font-variant:normal;font-weight:normal;font-stretch:normal;text-indent:0;text-align:start;text-decoration:none;line-height:normal;letter-spacing:normal;word-spacing:normal;text-transform:none;direction:ltr;block-progression:tb;writing-mode:lr-tb;text-anchor:start;baseline-shift:baseline;color:#000000;fill:#000000;fill-opacity:1;stroke:none;stroke-width:1px;marker:none;visibility:visible;display:inline;overflow:visible;enable-background:accumulate;font-family:Sans;-inkscape-font-specification:Sans"
       d="m 50.53125,107.03125 0,5 1,0 0,-5 -1,0 z"
       id="path4350" />
    <path
       style="font-size:12px;fill-rule:evenodd;stroke-width:0.625;stroke-linejoin:round"
       d="m 55.462853,101.34581 -4.419494,12.01847 -4.419494,-12.01847 c 2.609267,1.92005 6.179198,1.90899 8.838988,0 z"
       id="path4483" />
    <path
       style="font-size:medium;font-style:normal;font-variant:normal;font-weight:normal;font-stretch:normal;text-indent:0;text-align:start;text-decoration:none;line-height:normal;letter-spacing:normal;word-spacing:normal;text-transform:none;direction:ltr;block-progression:tb;writing-mode:lr-tb;text-anchor:start;baseline-shift:baseline;color:#000000;fill:#000000;fill-opacity:1;stroke:none;stroke-width:1px;marker:none;visibility:visible;display:inline;overflow:visible;enable-background:accumulate;font-family:Sans;-inkscape-font-specification:Sans"
       d="m 24.1875,63.90625 0,1 5,0 0,-1 -5,0 z"
       id="path4350-9" />
    <path
       style="font-size:12px;fill-rule:evenodd;stroke-width:0.625;stroke-linejoin:round"
       d="m 18.502456,59.974351 12.018465,4.419494 -12.018465,4.419494 c 1.920048,-2.609267 1.908985,-6.179198 0,-8.838988 z"
       id="path4475" />
    <path
       style="font-size:medium;font-style:normal;font-variant:normal;font-weight:normal;font-stretch:normal;text-indent:0;text-align:start;text-decoration:none;line-height:normal;letter-spacing:normal;word-spacing:normal;text-transform:none;direction:ltr;block-progression:tb;writing-mode:lr-tb;text-anchor:start;baseline-shift:baseline;color:#000000;fill:#000000;fill-opacity:1;stroke:none;stroke-width:1px;marker:none;visibility:visible;display:inline;overflow:visible;enable-background:accumulate;font-family:Sans;-inkscape-font-specification:Sans"
       d="m 63.15625,32.90625 0,20 1,0 0,-20 -1,0 z"
       id="path4376" />
    <path
       style="font-size:12px;font-style:normal;font-weight:normal;line-height:125%;letter-spacing:0px;word-spacing:0px;fill:#000000;fill-opacity:1;stroke:none;font-family:Sans"
       d="m 71.6859,47.773338 0,3.263672 3.263672,0 0,0.996094 -3.263672,0 0,3.263672 -0.984375,0 0,-3.263672 -3.263672,0 0,-0.996094 3.263672,0 0,-3.263672 0.984375,0"
       id="path4438" />
    <path
       style="font-size:12px;font-style:normal;font-weight:normal;line-height:125%;letter-spacing:0px;word-spacing:0px;fill:#000000;fill-opacity:1;stroke:none;font-family:Sans"
       d="m 82.181994,38.422682 1.189453,0 0,5.314453 c -2e-6,0.937503 0.169919,1.613283 0.509765,2.027344 0.339841,0.410157 0.890622,0.615235 1.652344,0.615234 0.757808,10e-7 1.306635,-0.205077 1.646485,-0.615234 0.339837,-0.414061 0.509759,-1.089841 0.509765,-2.027344 l 0,-5.314453 1.189453,0 0,5.460938 c -7e-6,1.140627 -0.28321,2.001954 -0.849609,2.583984 -0.562506,0.582031 -1.394537,0.873047 -2.496094,0.873047 -1.105472,0 -1.941408,-0.291016 -2.507812,-0.873047 -0.562502,-0.58203 -0.843751,-1.443357 -0.84375,-2.583984 l 0,-5.460938"
       id="path4441" />
    <path
       style="font-size:7.80010986px;font-style:normal;font-weight:normal;line-height:125%;letter-spacing:0px;word-spacing:0px;baseline-shift:sub;fill:#000000;fill-opacity:1;stroke:none;font-family:Sans"
       d="m 90.895484,48.923259 1.256854,0 0,-4.338049 -1.367305,0.274222 0,-0.700791 1.359687,-0.274223 0.769347,0 0,5.038841 1.256854,0 0,0.64747 -3.275437,0 0,-0.64747"
       id="path4443" />
    <path
       style="font-size:12px;font-style:normal;font-weight:normal;line-height:125%;letter-spacing:0px;word-spacing:0px;fill:#000000;fill-opacity:1;stroke:none;font-family:Sans"
       d="m 99.986361,41.264479 0,-1.066406 7.511719,2.724609 0,0.972656 -7.511719,2.72461 0,-1.066407 6.035159,-2.138671 -6.035159,-2.150391"
       id="path4445" />
    <path
       style="font-size:12px;font-style:normal;font-weight:normal;line-height:125%;letter-spacing:0px;word-spacing:0px;fill:#000000;fill-opacity:1;stroke:none;font-family:Sans"
       d="M 116.40625 38.25 C 115.42578 38.250009 114.67578 38.660164 114.15625 39.4375 C 113.64063 40.210944 113.375 41.335943 113.375 42.8125 C 113.375 44.285159 113.64063 45.410158 114.15625 46.1875 C 114.67578 46.960937 115.42578 47.34375 116.40625 47.34375 C 117.38672 47.34375 118.14061 46.960937 118.65625 46.1875 C 119.17577 45.410158 119.4375 44.285159 119.4375 42.8125 C 119.4375 41.335943 119.17577 40.210944 118.65625 39.4375 C 118.14061 38.660164 117.38672 38.250009 116.40625 38.25 z M 116.40625 39.1875 C 117.01953 39.187508 117.47656 39.492195 117.78125 40.09375 C 118.08984 40.691412 118.24999 41.60938 118.25 42.8125 C 118.24999 44.011721 118.08984 44.89844 117.78125 45.5 C 117.47656 46.097658 117.01953 46.406251 116.40625 46.40625 C 115.79688 46.406251 115.33984 46.097658 115.03125 45.5 C 114.72656 44.89844 114.5625 44.011721 114.5625 42.8125 C 114.5625 41.60938 114.72656 40.691412 115.03125 40.09375 C 115.33984 39.492195 115.79688 39.187508 116.40625 39.1875 z "
       id="path4447" />
    <path
       style="font-size:medium;font-style:normal;font-variant:normal;font-weight:normal;font-stretch:normal;text-indent:0;text-align:start;text-decoration:none;line-height:normal;letter-spacing:normal;word-spacing:normal;text-transform:none;direction:ltr;block-progression:tb;writing-mode:lr-tb;text-anchor:start;baseline-shift:baseline;color:#000000;fill:#000000;fill-opacity:1;stroke:none;stroke-width:1px;marker:none;visibility:visible;display:inline;overflow:visible;enable-background:accumulate;font-family:Sans;-inkscape-font-specification:Sans"
       d="m 63.15625,76.90625 0,20 1,0 0,-20 -1,0 z"
       id="path4415" />
    <path
       style="font-size:12px;font-style:normal;font-weight:normal;line-height:125%;letter-spacing:0px;word-spacing:0px;fill:#000000;fill-opacity:1;stroke:none;font-family:Sans"
       d="m 71.6859,74.126892 0,3.263672 3.263672,0 0,0.996094 -3.263672,0 0,3.263672 -0.984375,0 0,-3.263672 -3.263672,0 0,-0.996094 3.263672,0 0,-3.263672 0.984375,0"
       id="path4450" />
    <path
       style="font-size:12px;font-style:normal;font-weight:normal;line-height:125%;letter-spacing:0px;word-spacing:0px;fill:#000000;fill-opacity:1;stroke:none;font-family:Sans"
       d="m 82.181994,82.422682 1.189453,0 0,5.314453 c -2e-6,0.937503 0.169919,1.613283 0.509765,2.027344 0.339841,0.410157 0.890622,0.615235 1.652344,0.615234 0.757808,1e-6 1.306635,-0.205077 1.646485,-0.615234 0.339837,-0.414061 0.509759,-1.089841 0.509765,-2.027344 l 0,-5.314453 1.189453,0 0,5.460938 c -7e-6,1.140627 -0.28321,2.001954 -0.849609,2.583984 -0.562506,0.582031 -1.394537,0.873047 -2.496094,0.873047 -1.105472,0 -1.941408,-0.291016 -2.507812,-0.873047 -0.562502,-0.58203 -0.843751,-1.443357 -0.84375,-2.583984 l 0,-5.460938"
       id="path4453" />
    <path
       style="font-size:7.80010986px;font-style:normal;font-weight:normal;line-height:125%;letter-spacing:0px;word-spacing:0px;baseline-shift:sub;fill:#000000;fill-opacity:1;stroke:none;font-family:Sans"
       d="m 91.424886,92.923259 2.685096,0 0,0.64747 -3.610597,0 0,-0.64747 c 0.291995,-0.302152 0.689364,-0.707138 1.192106,-1.214959 0.505279,-0.510356 0.822665,-0.839169 0.952162,-0.986439 0.24629,-0.276759 0.417679,-0.510356 0.514167,-0.700791 0.09902,-0.192968 0.148534,-0.382131 0.148538,-0.567489 -4e-6,-0.302148 -0.106646,-0.54844 -0.319927,-0.738877 -0.210748,-0.190428 -0.48624,-0.285644 -0.826476,-0.285649 -0.241216,5e-6 -0.496396,0.0419 -0.765538,0.125685 -0.266607,0.0838 -0.552255,0.21075 -0.856946,0.380865 l 0,-0.776964 c 0.309769,-0.12441 0.599226,-0.218357 0.868372,-0.28184 0.269142,-0.06347 0.515435,-0.09521 0.738877,-0.09522 0.589068,6e-6 1.058801,0.147273 1.4092,0.441803 0.350391,0.294541 0.525589,0.6881 0.525593,1.180681 -4e-6,0.233601 -0.04444,0.455772 -0.133302,0.666513 -0.08633,0.208209 -0.245027,0.454502 -0.476081,0.738878 -0.06348,0.07364 -0.265339,0.28692 -0.605575,0.639852 -0.340242,0.350398 -0.820131,0.841713 -1.439669,1.473947"
       id="path4455" />
    <path
       style="font-size:12px;font-style:normal;font-weight:normal;line-height:125%;letter-spacing:0px;word-spacing:0px;fill:#000000;fill-opacity:1;stroke:none;font-family:Sans"
       d="m 99.986361,85.264479 0,-1.066406 7.511719,2.724609 0,0.972656 -7.511719,2.72461 0,-1.066407 6.035159,-2.138671 -6.035159,-2.150391"
       id="path4457" />
    <path
       style="font-size:12px;font-style:normal;font-weight:normal;line-height:125%;letter-spacing:0px;word-spacing:0px;fill:#000000;fill-opacity:1;stroke:none;font-family:Sans"
       d="M 116.40625 82.25 C 115.42578 82.250009 114.67578 82.660164 114.15625 83.4375 C 113.64063 84.210944 113.375 85.335943 113.375 86.8125 C 113.375 88.285159 113.64063 89.410158 114.15625 90.1875 C 114.67578 90.960937 115.42578 91.34375 116.40625 91.34375 C 117.38672 91.34375 118.14061 90.960937 118.65625 90.1875 C 119.17577 89.410158 119.4375 88.285159 119.4375 86.8125 C 119.4375 85.335943 119.17577 84.210944 118.65625 83.4375 C 118.14061 82.660164 117.38672 82.250009 116.40625 82.25 z M 116.40625 83.1875 C 117.01953 83.187508 117.47656 83.492195 117.78125 84.09375 C 118.08984 84.691412 118.24999 85.60938 118.25 86.8125 C 118.24999 88.011721 118.08984 88.89844 117.78125 89.5 C 117.47656 90.097658 117.01953 90.406251 116.40625 90.40625 C 115.79688 90.406251 115.33984 90.097658 115.03125 89.5 C 114.72656 88.89844 114.5625 88.011721 114.5625 86.8125 C 114.5625 85.60938 114.72656 84.691412 115.03125 84.09375 C 115.33984 83.492195 115.79688 83.187508 116.40625 83.1875 z "
       id="path4459" />
  </g>
</svg>
