<?xml version="1.0" encoding="UTF-8" standalone="no"?>
<!-- Created with Inkscape (http://www.inkscape.org/) -->

<svg
   xmlns:dc="http://purl.org/dc/elements/1.1/"
   xmlns:cc="http://creativecommons.org/ns#"
   xmlns:rdf="http://www.w3.org/1999/02/22-rdf-syntax-ns#"
   xmlns:svg="http://www.w3.org/2000/svg"
   xmlns="http://www.w3.org/2000/svg"
   xmlns:sodipodi="http://sodipodi.sourceforge.net/DTD/sodipodi-0.dtd"
   xmlns:inkscape="http://www.inkscape.org/namespaces/inkscape"
   width="85"
   height="95"
   id="svg2"
   version="1.1"
   inkscape:version="0.48.0 r9654"
   sodipodi:docname="2011-(03)mar-25, 08.svg">
  <defs
     id="defs4" />
  <sodipodi:namedview
     id="base"
     pagecolor="#ffffff"
     bordercolor="#666666"
     borderopacity="1.0"
     inkscape:pageopacity="0.0"
     inkscape:pageshadow="2"
     inkscape:zoom="2.828427"
     inkscape:cx="107.81198"
     inkscape:cy="72.490991"
     inkscape:document-units="px"
     inkscape:current-layer="layer1"
     showgrid="false"
     inkscape:window-width="1589"
     inkscape:window-height="1117"
     inkscape:window-x="1600"
     inkscape:window-y="27"
     inkscape:window-maximized="1"
     showguides="true"
     inkscape:guide-bbox="true" />
  <metadata
     id="metadata7">
    <rdf:RDF>
      <cc:Work
         rdf:about="">
        <dc:format>image/svg+xml</dc:format>
        <dc:type
           rdf:resource="http://purl.org/dc/dcmitype/StillImage" />
        <dc:title />
      </cc:Work>
    </rdf:RDF>
  </metadata>
  <g
     inkscape:label="Layer 1"
     inkscape:groupmode="layer"
     id="layer1">
    <rect
       style="fill:#0000ff;fill-rule:evenodd;stroke:#000000;stroke-width:1px;stroke-linecap:butt;stroke-linejoin:miter;stroke-opacity:1"
       id="rect3007"
       width="58"
       height="0"
       x="-332.76865"
       y="91.110023" />
    <rect
       style="fill:#0000ff;fill-rule:evenodd;stroke:#000000;stroke-width:1px;stroke-linecap:butt;stroke-linejoin:miter;stroke-opacity:1"
       id="rect3007-3"
       width="58"
       height="0"
       x="-269.32855"
       y="112.3216" />
    <path
       style="font-size:medium;font-style:normal;font-variant:normal;font-weight:normal;font-stretch:normal;text-indent:0;text-align:start;text-decoration:none;line-height:normal;letter-spacing:normal;word-spacing:normal;text-transform:none;direction:ltr;block-progression:tb;writing-mode:lr-tb;text-anchor:start;baseline-shift:baseline;color:#000000;fill:#000000;fill-opacity:1;stroke:none;stroke-width:1;marker:none;visibility:visible;display:inline;overflow:visible;enable-background:accumulate;font-family:Sans;-inkscape-font-specification:Sans"
       d="m 31.114276,28.21875 0,0.5 0,16.5 0,0.5 0.5,0 10,0 0.5,0 0,-0.5 0,-16.5 0,-0.5 -0.5,0 -10,0 -0.5,0 z m 1,1 9,0 0,15.5 -9,0 0,-15.5 z"
       id="path4635"
       inkscape:connector-curvature="0" />
    <path
       style="font-size:medium;font-style:normal;font-variant:normal;font-weight:normal;font-stretch:normal;text-indent:0;text-align:start;text-decoration:none;line-height:normal;letter-spacing:normal;word-spacing:normal;text-transform:none;direction:ltr;block-progression:tb;writing-mode:lr-tb;text-anchor:start;baseline-shift:baseline;color:#000000;fill:#000000;fill-opacity:1;stroke:none;stroke-width:1;marker:none;visibility:visible;display:inline;overflow:visible;enable-background:accumulate;font-family:Sans;-inkscape-font-specification:Sans"
       d="m 36.6875,61.71875 c -4.688498,0 -8.5,3.8115 -8.5,8.5 0,4.68849 3.811502,8.5 8.5,8.5 4.688498,0 8.5,-3.81151 8.5,-8.5 0,-4.6885 -3.811502,-8.5 -8.5,-8.5 z m 0,1 c 4.148058,0 7.5,3.35194 7.5,7.5 0,4.14806 -3.351942,7.5 -7.5,7.5 -4.148058,0 -7.5,-3.35194 -7.5,-7.5 0,-4.14806 3.351942,-7.5 7.5,-7.5 z"
       id="path4619"
       inkscape:connector-curvature="0" />
    <path
       style="font-size:medium;font-style:normal;font-variant:normal;font-weight:normal;font-stretch:normal;text-indent:0;text-align:start;text-decoration:none;line-height:normal;letter-spacing:normal;word-spacing:normal;text-transform:none;direction:ltr;block-progression:tb;writing-mode:lr-tb;text-anchor:start;baseline-shift:baseline;color:#000000;fill:#000000;fill-opacity:1;stroke:none;stroke-width:1px;marker:none;visibility:visible;display:inline;overflow:visible;enable-background:accumulate;font-family:Sans;-inkscape-font-specification:Sans"
       d="m 36.332107,17 0,0.5 0,11.03832 1,0 0,-10.53832 39.885792,0 c 0,-0.504826 0.004,-0.507653 0.004,-1 l -40.389702,0 z"
       id="path3025"
       inkscape:connector-curvature="0"
       sodipodi:nodetypes="ccccccccc" />
    <path
       style="font-size:medium;font-style:normal;font-variant:normal;font-weight:normal;font-stretch:normal;text-indent:0;text-align:start;text-decoration:none;line-height:normal;letter-spacing:normal;word-spacing:normal;text-transform:none;direction:ltr;block-progression:tb;writing-mode:lr-tb;text-anchor:start;baseline-shift:baseline;color:#000000;fill:#000000;fill-opacity:1;stroke:none;stroke-width:1px;marker:none;visibility:visible;display:inline;overflow:visible;enable-background:accumulate;font-family:Sans;-inkscape-font-specification:Sans"
       d="m 76.21875,17.65625 0,26.813476 1,0 0,-26.813476 z"
       id="path3027"
       inkscape:connector-curvature="0"
       sodipodi:nodetypes="ccccc" />
    <path
       style="font-size:medium;font-style:normal;font-variant:normal;font-weight:normal;font-stretch:normal;text-indent:0;text-align:start;text-decoration:none;line-height:normal;letter-spacing:normal;word-spacing:normal;text-transform:none;direction:ltr;block-progression:tb;writing-mode:lr-tb;text-anchor:start;baseline-shift:baseline;color:#000000;fill:#000000;fill-opacity:1;stroke:none;stroke-width:1px;marker:none;visibility:visible;display:inline;overflow:visible;enable-background:accumulate;font-family:Sans;-inkscape-font-specification:Sans"
       d="m 36.21875,78.25 0,12.09375 0,0.5 0.5,0 40,0 0.5,0 0,-0.5 0,-29.28125 -1,0 0,28.78125 -39,0 0,-11.59375 z"
       id="path3031"
       inkscape:connector-curvature="0"
       sodipodi:nodetypes="ccccccccccccc" />
    <path
       style="font-size:medium;font-style:normal;font-variant:normal;font-weight:normal;font-stretch:normal;text-indent:0;text-align:start;text-decoration:none;line-height:normal;letter-spacing:normal;word-spacing:normal;text-transform:none;direction:ltr;block-progression:tb;writing-mode:lr-tb;text-anchor:start;baseline-shift:baseline;color:#000000;fill:#000000;fill-opacity:1;stroke:none;stroke-width:1;marker:none;visibility:visible;display:inline;overflow:visible;enable-background:accumulate;font-family:Sans;-inkscape-font-specification:Sans"
       d="m 60.75,17 0,1 3.5,0 0,-1 -3.5,0 z"
       id="path4247"
       inkscape:connector-curvature="0" />
    <path
       style="font-size:12px;fill-rule:evenodd;stroke-width:0.625;stroke-linejoin:round"
       d="m 53.572731,13.060903 12.018465,4.419494 -12.018465,4.419494 c 1.920048,-2.609267 1.908985,-6.179198 0,-8.838988 z"
       id="path4503"
       inkscape:connector-curvature="0" />
    <path
       style="font-size:medium;font-style:normal;font-variant:normal;font-weight:normal;font-stretch:normal;text-indent:0;text-align:start;text-decoration:none;line-height:normal;letter-spacing:normal;word-spacing:normal;text-transform:none;direction:ltr;block-progression:tb;writing-mode:lr-tb;text-anchor:start;baseline-shift:baseline;color:#000000;fill:#000000;fill-opacity:1;stroke:none;stroke-width:1px;marker:none;visibility:visible;display:inline;overflow:visible;enable-background:accumulate;font-family:Sans;-inkscape-font-specification:Sans"
       d="m 23.21875,61.71875 0,17.625 1,0 0,-17.625 -1,0 z"
       id="path4251"
       inkscape:connector-curvature="0" />
    <path
       style="font-size:12px;font-style:normal;font-weight:normal;line-height:125%;letter-spacing:0px;word-spacing:0px;fill:#000000;fill-opacity:1;stroke:none;font-family:Sans"
       d="m 58.69978,2.2000565 1.1836,0 0,8.7480465 -1.1836,0 0,-8.7480465"
       id="path4451"
       inkscape:connector-curvature="0" />
    <path
       style="font-size:12px;font-style:normal;font-weight:normal;line-height:125%;letter-spacing:0px;word-spacing:0px;fill:#000000;fill-opacity:1;stroke:none;font-family:Sans"
       d="m 5.8198582,65.66025 5.5312498,0 0,0.99609 -4.3476498,0 0,2.58985 4.1660098,0 0,0.99609 -4.1660098,0 0,3.16992 4.4531198,0 0,0.99609 -5.6367198,0 0,-8.74804"
       id="path4317"
       inkscape:connector-curvature="0" />
    <path
       style="font-size:12px;font-style:normal;font-weight:normal;line-height:125%;letter-spacing:0px;word-spacing:0px;fill:#000000;fill-opacity:1;stroke:none;font-family:Sans"
       d="m 17.755408,56.63181 0,3.26367 3.26367,0 0,0.99609 -3.26367,0 0,3.26368 -0.98437,0 0,-3.26368 -3.26368,0 0,-0.99609 3.26368,0 0,-3.26367 0.98437,0"
       id="path4319"
       inkscape:connector-curvature="0" />
    <path
       style="font-size:12px;font-style:normal;font-weight:normal;line-height:125%;letter-spacing:0px;word-spacing:0px;fill:#000000;fill-opacity:1;stroke:none;font-family:Sans"
       d="m 17.4375,32.21875 0,8.75 1.1875,0 0,-3.71875 1.28125,0 c 0.46875,4e-6 0.82422,0.121097 1.09375,0.3125 0.27343,0.191409 0.55468,0.570316 0.84375,1.15625 l 1.125,2.25 1.28125,0 -1.21875,-2.40625 c -0.2422,-0.492185 -0.47657,-0.874997 -0.71875,-1.15625 -0.23828,-0.281246 -0.4961,-0.44531 -0.75,-0.53125 0.48828,-0.14062 0.87109,-0.417964 1.125,-0.78125 0.25781,-0.363276 0.375,-0.824213 0.375,-1.375 0,-0.843743 -0.22657,-1.457023 -0.71875,-1.875 -0.49219,-0.41796 -1.25001,-0.624991 -2.25,-0.625 l -2.65625,0 z m 1.1875,0.96875 1.46875,0 c 0.57031,8e-6 0.99218,0.144539 1.28125,0.40625 0.29297,0.25782 0.4375,0.613288 0.4375,1.125 0,0.511725 -0.14453,0.92188 -0.4375,1.1875 -0.28907,0.261723 -0.71094,0.375005 -1.28125,0.375 l -1.46875,0 0,-3.09375 z"
       id="path4569"
       inkscape:connector-curvature="0" />
    <path
       style="font-size:26.00036621px;font-style:normal;font-weight:normal;line-height:125%;letter-spacing:0px;word-spacing:0px;baseline-shift:sub;fill:#000000;fill-opacity:1;stroke:none;font-family:Sans"
       d="m 25.56115,42.71352 1.25685,0 0,-4.338049 -1.3673,0.274222 0,-0.700791 1.35968,-0.274223 0.76935,0 0,5.038841 1.25685,0 0,0.64747 -3.27543,0 0,-0.64747"
       id="path4445"
       inkscape:connector-curvature="0" />
    <path
       inkscape:connector-curvature="0"
       id="path3018"
       d="m 36.13036,45.235124 0,16.798728 1,0 0,-16.798728 z"
       style="font-size:medium;font-style:normal;font-variant:normal;font-weight:normal;font-stretch:normal;text-indent:0;text-align:start;text-decoration:none;line-height:normal;letter-spacing:normal;word-spacing:normal;text-transform:none;direction:ltr;block-progression:tb;writing-mode:lr-tb;text-anchor:start;baseline-shift:baseline;color:#000000;fill:#000000;fill-opacity:1;stroke:none;stroke-width:1px;marker:none;visibility:visible;display:inline;overflow:visible;enable-background:accumulate;font-family:Sans;-inkscape-font-specification:Sans"
       sodipodi:nodetypes="ccccc" />
    <path
       inkscape:connector-curvature="0"
       id="path3020"
       d="m 71.114276,44.09375 0,0.5 0,16.5 0,0.5 0.5,0 10,0 0.5,0 0,-0.5 0,-16.5 0,-0.5 -0.5,0 -10,0 -0.5,0 z m 1,1 9,0 0,15.5 -9,0 0,-15.5 z"
       style="font-size:medium;font-style:normal;font-variant:normal;font-weight:normal;font-stretch:normal;text-indent:0;text-align:start;text-decoration:none;line-height:normal;letter-spacing:normal;word-spacing:normal;text-transform:none;direction:ltr;block-progression:tb;writing-mode:lr-tb;text-anchor:start;baseline-shift:baseline;color:#000000;fill:#000000;fill-opacity:1;stroke:none;stroke-width:1;marker:none;visibility:visible;display:inline;overflow:visible;enable-background:accumulate;font-family:Sans;-inkscape-font-specification:Sans" />
    <path
       style="font-size:12px;font-style:normal;font-weight:normal;line-height:125%;letter-spacing:0px;word-spacing:0px;fill:#000000;fill-opacity:1;stroke:none;font-family:Sans"
       d="m 57.9375,47.71875 0,8.75 1.1875,0 0,-3.71875 1.28125,0 c 0.468746,4e-6 0.824215,0.121097 1.09375,0.3125 0.273433,0.191409 0.554683,0.570316 0.84375,1.15625 l 1.125,2.25 1.28125,0 -1.21875,-2.40625 c -0.242194,-0.492185 -0.476569,-0.874997 -0.71875,-1.15625 -0.238287,-0.281246 -0.496099,-0.44531 -0.75,-0.53125 0.488275,-0.14062 0.871088,-0.417964 1.125,-0.78125 0.257806,-0.363276 0.374993,-0.824213 0.375,-1.375 -7e-6,-0.843743 -0.226569,-1.457023 -0.71875,-1.875 -0.492193,-0.41796 -1.250004,-0.624991 -2.25,-0.625 l -2.65625,0 z m 1.1875,0.96875 1.46875,0 c 0.570308,8e-6 0.992183,0.144539 1.28125,0.40625 0.292963,0.25782 0.437494,0.613288 0.4375,1.125 -6e-6,0.511725 -0.144537,0.92188 -0.4375,1.1875 -0.289067,0.261723 -0.710942,0.375005 -1.28125,0.375 l -1.46875,0 0,-3.09375 z"
       id="path3043"
       inkscape:connector-curvature="0" />
    <path
       style="font-size:26.00036621px;font-style:normal;font-weight:normal;line-height:125%;letter-spacing:0px;word-spacing:0px;baseline-shift:sub;fill:#000000;fill-opacity:1;stroke:none;font-family:Sans"
       d="m 68.258736,55.795029 c 0.368166,0.07872 0.655084,0.242487 0.860754,0.491315 0.208202,0.248834 0.312305,0.556065 0.312309,0.921693 -4e-6,0.561142 -0.192975,0.995327 -0.578914,1.302557 -0.385946,0.307231 -0.934391,0.460847 -1.645336,0.460847 -0.238677,0 -0.484969,-0.02412 -0.738877,-0.07236 -0.251372,-0.0457 -0.511629,-0.115529 -0.780773,-0.209476 l 0,-0.742686 c 0.213283,0.124416 0.44688,0.218363 0.700791,0.28184 0.253908,0.06348 0.519244,0.09522 0.796007,0.09522 0.482427,0 0.849326,-0.09522 1.1007,-0.285649 0.253906,-0.190431 0.380861,-0.467193 0.380864,-0.830285 -3e-6,-0.335159 -0.118071,-0.596686 -0.354204,-0.784581 -0.2336,-0.19043 -0.559874,-0.285646 -0.978822,-0.285649 l -0.662705,0 0,-0.632235 0.693174,0 c 0.378323,3e-6 0.66778,-0.0749 0.868371,-0.224711 0.200586,-0.152342 0.30088,-0.370704 0.300884,-0.655087 -4e-6,-0.291992 -0.104107,-0.515432 -0.312309,-0.670322 -0.20567,-0.157419 -0.501475,-0.236131 -0.887415,-0.236136 -0.210748,5e-6 -0.436727,0.02286 -0.67794,0.06856 -0.241215,0.04571 -0.506551,0.116803 -0.796007,0.213284 l 0,-0.685557 c 0.291995,-0.08124 0.564948,-0.142183 0.818859,-0.182815 0.256447,-0.04062 0.497661,-0.06093 0.723643,-0.06094 0.58399,6e-6 1.046105,0.133308 1.386348,0.399908 0.340235,0.264071 0.510355,0.622084 0.510359,1.074039 -4e-6,0.314852 -0.09014,0.581457 -0.270414,0.799815 -0.18028,0.215827 -0.436729,0.365634 -0.769347,0.449421"
       id="path3035"
       inkscape:connector-curvature="0" />
  </g>
</svg>
