<?xml version="1.0" encoding="UTF-8" standalone="no"?>
<!-- Created with Inkscape (http://www.inkscape.org/) -->

<svg
   xmlns:dc="http://purl.org/dc/elements/1.1/"
   xmlns:cc="http://creativecommons.org/ns#"
   xmlns:rdf="http://www.w3.org/1999/02/22-rdf-syntax-ns#"
   xmlns:svg="http://www.w3.org/2000/svg"
   xmlns="http://www.w3.org/2000/svg"
   xmlns:sodipodi="http://sodipodi.sourceforge.net/DTD/sodipodi-0.dtd"
   xmlns:inkscape="http://www.inkscape.org/namespaces/inkscape"
   width="260"
   height="150"
   id="svg2"
   version="1.1"
   inkscape:version="0.48.0 r9654"
   sodipodi:docname="2011-(04)apr-08, 03.svg">
  <defs
     id="defs4" />
  <sodipodi:namedview
     id="base"
     pagecolor="#ffffff"
     bordercolor="#666666"
     borderopacity="1.0"
     inkscape:pageopacity="0.0"
     inkscape:pageshadow="2"
     inkscape:zoom="4.0000002"
     inkscape:cx="104.77945"
     inkscape:cy="84.238563"
     inkscape:document-units="px"
     inkscape:current-layer="layer1"
     showgrid="false"
     inkscape:window-width="1589"
     inkscape:window-height="1117"
     inkscape:window-x="1600"
     inkscape:window-y="27"
     inkscape:window-maximized="1"
     showguides="true"
     inkscape:guide-bbox="true" />
  <metadata
     id="metadata7">
    <rdf:RDF>
      <cc:Work
         rdf:about="">
        <dc:format>image/svg+xml</dc:format>
        <dc:type
           rdf:resource="http://purl.org/dc/dcmitype/StillImage" />
        <dc:title />
      </cc:Work>
    </rdf:RDF>
  </metadata>
  <g
     inkscape:label="Layer 1"
     inkscape:groupmode="layer"
     id="layer1">
    <rect
       style="fill:#0000ff;fill-rule:evenodd;stroke:#000000;stroke-width:1px;stroke-linecap:butt;stroke-linejoin:miter;stroke-opacity:1"
       id="rect3007"
       width="58"
       height="0"
       x="-323.93503"
       y="96.701012" />
    <rect
       style="fill:#0000ff;fill-rule:evenodd;stroke:#000000;stroke-width:1px;stroke-linecap:butt;stroke-linejoin:miter;stroke-opacity:1"
       id="rect3007-3"
       width="58"
       height="0"
       x="-260.49493"
       y="117.91259" />
    <path
       style="font-size:7.80010986px;font-style:normal;font-weight:normal;line-height:125%;letter-spacing:0px;word-spacing:0px;baseline-shift:sub;fill:#000000;fill-opacity:1;stroke:none;font-family:Sans"
       d="M 203.9375 41.34375 L 203.9375 47.03125 L 205.96875 47.03125 C 206.60606 47.03125 207.09218 46.87051 207.4375 46.59375 C 207.78281 46.31699 207.96874 45.94532 207.96875 45.4375 C 207.96874 45.05155 207.86699 44.7252 207.65625 44.46875 C 207.44804 44.20976 207.15957 44.0188 206.78125 43.9375 C 207.0961 43.88672 207.33749 43.76817 207.5 43.5625 C 207.66245 43.35683 207.71875 43.09786 207.71875 42.75 C 207.71875 42.30058 207.56738 41.93126 207.25 41.6875 C 206.93261 41.44375 206.49278 41.34376 205.90625 41.34375 L 203.9375 41.34375 z M 204.71875 41.96875 L 205.84375 41.96875 C 206.21954 41.96876 206.50468 42.04531 206.6875 42.1875 C 206.87283 42.32969 206.96874 42.52559 206.96875 42.8125 C 206.96874 43.10196 206.87285 43.32656 206.6875 43.46875 C 206.50468 43.60843 206.21954 43.6875 205.84375 43.6875 L 204.71875 43.6875 L 204.71875 41.96875 z M 204.71875 44.3125 L 205.9375 44.3125 C 206.35137 44.31251 206.6457 44.39239 206.84375 44.5625 C 207.04434 44.73009 207.15624 44.98827 207.15625 45.34375 C 207.15624 45.69668 207.04434 45.95234 206.84375 46.125 C 206.6457 46.29517 206.35137 46.37501 205.9375 46.375 L 204.71875 46.375 L 204.71875 44.3125 z "
       id="path5481" />
    <path
       style="font-size:7.80010986px;font-style:normal;font-weight:normal;line-height:125%;letter-spacing:0px;word-spacing:0px;baseline-shift:sub;fill:#000000;fill-opacity:1;stroke:none;font-family:Sans"
       d="M 203.9375 59.59375 L 203.9375 65.28125 L 205.96875 65.28125 C 206.60606 65.28125 207.09218 65.12051 207.4375 64.84375 C 207.78281 64.56699 207.96874 64.19532 207.96875 63.6875 C 207.96874 63.30155 207.86699 62.9752 207.65625 62.71875 C 207.44804 62.45976 207.15957 62.2688 206.78125 62.1875 C 207.0961 62.13672 207.33749 62.01817 207.5 61.8125 C 207.66245 61.60683 207.71875 61.34786 207.71875 61 C 207.71875 60.55058 207.56738 60.18126 207.25 59.9375 C 206.93261 59.69375 206.49278 59.59376 205.90625 59.59375 L 203.9375 59.59375 z M 204.71875 60.21875 L 205.84375 60.21875 C 206.21954 60.21876 206.50468 60.29531 206.6875 60.4375 C 206.87283 60.57969 206.96874 60.77559 206.96875 61.0625 C 206.96874 61.35196 206.87285 61.57656 206.6875 61.71875 C 206.50468 61.85843 206.21954 61.9375 205.84375 61.9375 L 204.71875 61.9375 L 204.71875 60.21875 z M 204.71875 62.5625 L 205.9375 62.5625 C 206.35137 62.56251 206.6457 62.64239 206.84375 62.8125 C 207.04434 62.98009 207.15624 63.23827 207.15625 63.59375 C 207.15624 63.94668 207.04434 64.20234 206.84375 64.375 C 206.6457 64.54517 206.35137 64.62501 205.9375 64.625 L 204.71875 64.625 L 204.71875 62.5625 z "
       id="path5488" />
    <path
       style="font-size:7.80010986px;font-style:normal;font-weight:normal;line-height:125%;letter-spacing:0px;word-spacing:0px;baseline-shift:sub;fill:#000000;fill-opacity:1;stroke:none;font-family:Sans"
       d="M 203.9375 79.09375 L 203.9375 84.78125 L 205.96875 84.78125 C 206.60606 84.78125 207.09218 84.62051 207.4375 84.34375 C 207.78281 84.06699 207.96874 83.69532 207.96875 83.1875 C 207.96874 82.80155 207.86699 82.4752 207.65625 82.21875 C 207.44804 81.95976 207.15957 81.7688 206.78125 81.6875 C 207.0961 81.63672 207.33749 81.51817 207.5 81.3125 C 207.66245 81.10683 207.71875 80.84786 207.71875 80.5 C 207.71875 80.05058 207.56738 79.68126 207.25 79.4375 C 206.93261 79.19375 206.49278 79.09376 205.90625 79.09375 L 203.9375 79.09375 z M 204.71875 79.71875 L 205.84375 79.71875 C 206.21954 79.71876 206.50468 79.79531 206.6875 79.9375 C 206.87283 80.07969 206.96874 80.27559 206.96875 80.5625 C 206.96874 80.85196 206.87285 81.07656 206.6875 81.21875 C 206.50468 81.35843 206.21954 81.4375 205.84375 81.4375 L 204.71875 81.4375 L 204.71875 79.71875 z M 204.71875 82.0625 L 205.9375 82.0625 C 206.35137 82.06251 206.6457 82.14239 206.84375 82.3125 C 207.04434 82.48009 207.15624 82.73827 207.15625 83.09375 C 207.15624 83.44668 207.04434 83.70234 206.84375 83.875 C 206.6457 84.04517 206.35137 84.12501 205.9375 84.125 L 204.71875 84.125 L 204.71875 82.0625 z "
       id="path5495" />
    <path
       style="font-size:7.80010986px;font-style:normal;font-weight:normal;line-height:125%;letter-spacing:0px;word-spacing:0px;baseline-shift:sub;fill:#000000;fill-opacity:1;stroke:none;font-family:Sans"
       d="M 203.9375 96.34375 L 203.9375 102.03125 L 205.96875 102.03125 C 206.60606 102.03125 207.09218 101.87051 207.4375 101.59375 C 207.78281 101.31699 207.96874 100.94532 207.96875 100.4375 C 207.96874 100.05155 207.86699 99.7252 207.65625 99.46875 C 207.44804 99.20976 207.15957 99.0188 206.78125 98.9375 C 207.0961 98.88672 207.33749 98.76817 207.5 98.5625 C 207.66245 98.35683 207.71875 98.09786 207.71875 97.75 C 207.71875 97.30058 207.56738 96.93126 207.25 96.6875 C 206.93261 96.44375 206.49278 96.34376 205.90625 96.34375 L 203.9375 96.34375 z M 204.71875 96.96875 L 205.84375 96.96875 C 206.21954 96.96876 206.50468 97.04531 206.6875 97.1875 C 206.87283 97.32969 206.96874 97.52559 206.96875 97.8125 C 206.96874 98.10196 206.87285 98.32656 206.6875 98.46875 C 206.50468 98.60843 206.21954 98.6875 205.84375 98.6875 L 204.71875 98.6875 L 204.71875 96.96875 z M 204.71875 99.3125 L 205.9375 99.3125 C 206.35137 99.31251 206.6457 99.39239 206.84375 99.5625 C 207.04434 99.73009 207.15624 99.988274 207.15625 100.34375 C 207.15624 100.69668 207.04434 100.95234 206.84375 101.125 C 206.6457 101.29517 206.35137 101.37501 205.9375 101.375 L 204.71875 101.375 L 204.71875 99.3125 z "
       id="path5502" />
    <path
       style="font-size:7.80010986px;font-style:normal;font-weight:normal;line-height:125%;letter-spacing:0px;word-spacing:0px;baseline-shift:sub;fill:#000000;fill-opacity:1;stroke:none;font-family:Sans"
       d="M 211.25 41.34375 L 208.90625 44.9375 L 208.90625 45.6875 L 211.46875 45.6875 L 211.46875 47.03125 L 212.21875 47.03125 L 212.21875 45.6875 L 213.03125 45.6875 L 213.03125 45.03125 L 212.21875 45.03125 L 212.21875 41.34375 L 211.25 41.34375 z M 211.46875 42 L 211.46875 45.03125 L 209.53125 45.03125 L 211.46875 42 z "
       id="path5483" />
    <path
       style="font-size:medium;font-style:normal;font-variant:normal;font-weight:normal;font-stretch:normal;text-indent:0;text-align:start;text-decoration:none;line-height:normal;letter-spacing:normal;word-spacing:normal;text-transform:none;direction:ltr;block-progression:tb;writing-mode:lr-tb;text-anchor:start;baseline-shift:baseline;color:#000000;fill:#000000;fill-opacity:1;stroke:none;stroke-width:1px;marker:none;visibility:visible;display:inline;overflow:visible;enable-background:accumulate;font-family:Sans;-inkscape-font-specification:Sans"
       d="m 13.5,11 0,125 0,0.5 0.5,0 215,0 0,-1 -214.5,0 0,-124.5 -1,0 z"
       id="path3030" />
    <path
       style="font-size:12px;fill-rule:evenodd;stroke-width:0.625;stroke-linejoin:round"
       d="M 9.5628903,21.690454 13.982384,9.6719886 18.401878,21.690454 c -2.609267,-1.920048 -6.179198,-1.908985 -8.8389877,0 z"
       id="path5528" />
    <path
       style="font-size:12px;fill-rule:evenodd;stroke-width:0.625;stroke-linejoin:round"
       d="m 218.30954,131.56289 12.01847,4.4195 -12.01847,4.41949 c 1.92005,-2.60927 1.90899,-6.1792 0,-8.83899 z"
       id="path5530" />
    <path
       style="font-size:12px;font-style:normal;font-weight:normal;line-height:125%;letter-spacing:0px;word-spacing:0px;fill:#000000;fill-opacity:1;stroke:none;font-family:Sans"
       d="m 234.54297,131.71294 1.18945,0 0,5.31446 c 0,0.9375 0.16992,1.61328 0.50977,2.02734 0.33984,0.41016 0.89062,0.61524 1.65234,0.61523 0.75781,1e-5 1.30664,-0.20507 1.64649,-0.61523 0.33983,-0.41406 0.50975,-1.08984 0.50976,-2.02734 l 0,-5.31446 1.18945,0 0,5.46094 c 0,1.14063 -0.28321,2.00195 -0.84961,2.58398 -0.5625,0.58204 -1.39453,0.87305 -2.49609,0.87305 -1.10547,0 -1.94141,-0.29101 -2.50781,-0.87305 -0.5625,-0.58203 -0.84375,-1.44335 -0.84375,-2.58398 l 0,-5.46094"
       id="path5467" />
    <path
       style="font-size:7.80010986px;font-style:normal;font-weight:normal;line-height:125%;letter-spacing:0px;word-spacing:0px;baseline-shift:sub;fill:#000000;fill-opacity:1;stroke:none;font-family:Sans"
       d="m 247.31267,137.61267 0,0.81125 c -0.25899,-0.24121 -0.53576,-0.42149 -0.83029,-0.54083 -0.292,-0.11933 -0.60304,-0.179 -0.93312,-0.17901 -0.65001,1e-5 -1.14767,0.19933 -1.49299,0.59796 -0.34531,0.3961 -0.51797,0.96994 -0.51797,1.72151 0,0.74903 0.17266,1.32287 0.51797,1.72151 0.34532,0.3961 0.84298,0.59415 1.49299,0.59415 0.33008,0 0.64112,-0.0597 0.93312,-0.17901 0.29453,-0.11934 0.5713,-0.29961 0.83029,-0.54083 l 0,0.80363 c -0.26915,0.18281 -0.5548,0.31992 -0.85695,0.41133 -0.29961,0.0914 -0.617,0.13711 -0.95216,0.13711 -0.86076,0 -1.53869,-0.2628 -2.03382,-0.78839 -0.49512,-0.52813 -0.74268,-1.24796 -0.74268,-2.1595 0,-0.91407 0.24756,-1.63391 0.74268,-2.15951 0.49513,-0.52812 1.17306,-0.79219 2.03382,-0.79219 0.34024,0 0.66016,0.0457 0.95978,0.13711 0.30215,0.0889 0.58526,0.22344 0.84933,0.40371"
       id="path5469" />
    <path
       style="font-size:7.80010986px;font-style:normal;font-weight:normal;line-height:125%;letter-spacing:0px;word-spacing:0px;baseline-shift:sub;fill:#000000;fill-opacity:1;stroke:none;font-family:Sans"
       d="m 248.50858,137.17468 3.59537,0 0,0.64747 -2.82602,0 0,1.68342 2.70795,0 0,0.64747 -2.70795,0 0,2.06048 2.89457,0 0,0.64747 -3.66392,0 0,-5.68631"
       id="path5471" />
    <path
       style="font-size:12px;font-style:normal;font-weight:normal;line-height:125%;letter-spacing:0px;word-spacing:0px;fill:#000000;fill-opacity:1;stroke:none;font-family:Sans"
       d="m 21.31999,6.87075 1.1836,0 0,8.74805 -1.1836,0 0,-8.74805"
       id="path5474" />
    <path
       style="font-size:7.80010986px;font-style:normal;font-weight:normal;line-height:125%;letter-spacing:0px;word-spacing:0px;baseline-shift:sub;fill:#000000;fill-opacity:1;stroke:none;font-family:Sans"
       d="m 28.70493,12.77048 0,0.81125 c -0.25899,-0.24121 -0.53576,-0.42149 -0.83029,-0.54083 -0.292,-0.11933 -0.60304,-0.179 -0.93312,-0.17901 -0.65001,10e-6 -1.14767,0.19933 -1.49299,0.59796 -0.34531,0.3961 -0.51797,0.96994 -0.51797,1.72151 0,0.74903 0.17266,1.32287 0.51797,1.72151 0.34532,0.3961 0.84298,0.59415 1.49299,0.59415 0.33008,0 0.64112,-0.0597 0.93312,-0.17901 0.29453,-0.11934 0.5713,-0.29961 0.83029,-0.54083 l 0,0.80363 c -0.26915,0.18281 -0.5548,0.31992 -0.85695,0.41133 -0.29961,0.0914 -0.617,0.13711 -0.95216,0.13711 -0.86076,0 -1.53869,-0.2628 -2.03382,-0.78839 -0.49512,-0.52813 -0.74268,-1.24796 -0.74268,-2.1595 0,-0.91407 0.24756,-1.63391 0.74268,-2.15951 0.49513,-0.52812 1.17306,-0.79219 2.03382,-0.79219 0.34024,0 0.66016,0.0457 0.95978,0.13711 0.30215,0.0889 0.58526,0.22344 0.84933,0.40371"
       id="path5476" />
    <path
       style="font-size:medium;font-style:normal;font-variant:normal;font-weight:normal;font-stretch:normal;text-indent:0;text-align:start;text-decoration:none;line-height:normal;letter-spacing:normal;word-spacing:normal;text-transform:none;direction:ltr;block-progression:tb;writing-mode:lr-tb;text-anchor:start;baseline-shift:baseline;color:#000000;fill:#000000;fill-opacity:1;stroke:none;stroke-width:1px;marker:none;visibility:visible;display:inline;overflow:visible;enable-background:accumulate;font-family:Sans;-inkscape-font-specification:Sans"
       d="m 196.46875,96.25 c 0,0 -45.60378,-0.58713 -91.25,4.09375 -22.823111,2.34044 -45.67496,5.99867 -62.84375,11.71875 -8.584395,2.86004 -15.750277,6.22853 -20.8125,10.25 -5.062223,4.02147 -8.03125,8.71647 -8.03125,14.15625 l 1,0 c 0,-5.07843 2.741639,-9.4708 7.65625,-13.375 4.914611,-3.9042 11.981251,-7.25558 20.5,-10.09375 17.037499,-5.67633 39.839727,-9.31969 62.625,-11.65625 C 150.88305,96.67063 196.46875,97.25 196.46875,97.25 l 0,-1 z"
       id="path5398" />
    <path
       style="font-size:medium;font-style:normal;font-variant:normal;font-weight:normal;font-stretch:normal;text-indent:0;text-align:start;text-decoration:none;line-height:normal;letter-spacing:normal;word-spacing:normal;text-transform:none;direction:ltr;block-progression:tb;writing-mode:lr-tb;text-anchor:start;baseline-shift:baseline;color:#000000;fill:#000000;fill-opacity:1;stroke:none;stroke-width:1px;marker:none;visibility:visible;display:inline;overflow:visible;enable-background:accumulate;font-family:Sans;-inkscape-font-specification:Sans"
       d="m 188.65625,78.90625 c -14.97608,-0.05337 -49.22119,0.439502 -83.46875,5.3125 -22.831707,3.248665 -45.689002,8.425877 -62.875,16.71875 -8.592999,4.14644 -15.761224,9.06269 -20.8125,14.9375 -5.051276,5.87481 -7.96875,12.71218 -7.96875,20.59375 l 1,0 c 0,-7.63665 2.793192,-14.2089 7.71875,-19.9375 4.925558,-5.7286 11.989855,-10.58104 20.5,-14.6875 17.02029,-8.212912 39.785822,-13.384165 62.5625,-16.625 C 150.86586,78.73708 196.46875,80 196.46875,80 L 196.5,79 c 0,0 -2.85172,-0.07596 -7.84375,-0.09375 z"
       id="path5400" />
    <path
       style="font-size:medium;font-style:normal;font-variant:normal;font-weight:normal;font-stretch:normal;text-indent:0;text-align:start;text-decoration:none;line-height:normal;letter-spacing:normal;word-spacing:normal;text-transform:none;direction:ltr;block-progression:tb;writing-mode:lr-tb;text-anchor:start;baseline-shift:baseline;color:#000000;fill:#000000;fill-opacity:1;stroke:none;stroke-width:1px;marker:none;visibility:visible;display:inline;overflow:visible;enable-background:accumulate;font-family:Sans;-inkscape-font-specification:Sans"
       d="m 188.65625,59.40625 c -14.97976,0.02258 -49.24052,0.903786 -83.5,7.5625 -22.839654,4.439142 -45.682768,11.455339 -62.875,22.53125 -17.192232,11.07591 -28.75,26.2653 -28.75,46.96875 l 1,0 c 0,-20.33298 11.267194,-35.19513 28.28125,-46.15625 17.014056,-10.961124 39.762519,-17.949642 62.53125,-22.375 45.53746,-8.850715 91.125,-7.4375 91.125,-7.4375 l 0.0312,-1 c 0,0 -2.8505,-0.101276 -7.84375,-0.09375 z"
       id="path5402" />
    <path
       style="font-size:medium;font-style:normal;font-variant:normal;font-weight:normal;font-stretch:normal;text-indent:0;text-align:start;text-decoration:none;line-height:normal;letter-spacing:normal;word-spacing:normal;text-transform:none;direction:ltr;block-progression:tb;writing-mode:lr-tb;text-anchor:start;baseline-shift:baseline;color:#000000;fill:#000000;fill-opacity:1;stroke:none;stroke-width:1px;marker:none;visibility:visible;display:inline;overflow:visible;enable-background:accumulate;font-family:Sans;-inkscape-font-specification:Sans"
       d="m 188.65625,40.65625 c -14.98373,-0.03794 -49.26006,0.917884 -83.53125,9.125 -22.847461,5.471411 -45.714032,14.177561 -62.90625,28 -17.192218,13.822439 -28.6875,32.79311 -28.6875,58.6875 l 1,0 c 0,-25.59915 11.29843,-44.227041 28.3125,-57.90625 C 59.85782,64.883291 82.614076,56.200687 105.375,50.75 c 45.52185,-10.901375 91.0625,-8.9375 91.0625,-8.9375 l 0.0625,-1 c 0,0 -2.84917,-0.143602 -7.84375,-0.15625 z"
       id="path5404" />
    <path
       style="font-size:12px;font-style:normal;font-weight:normal;line-height:125%;letter-spacing:0px;word-spacing:0px;fill:#000000;fill-opacity:1;stroke:none;font-family:Sans"
       d="m 200.80752,35.870754 1.1836,0 0,8.74805 -1.1836,0 0,-8.74805"
       id="path5479" />
    <path
       style="font-size:12px;font-style:normal;font-weight:normal;line-height:125%;letter-spacing:0px;word-spacing:0px;fill:#000000;fill-opacity:1;stroke:none;font-family:Sans"
       d="m 200.80752,54.120754 1.1836,0 0,8.74805 -1.1836,0 0,-8.74805"
       id="path5486" />
    <path
       style="font-size:7.80010986px;font-style:normal;font-weight:normal;line-height:125%;letter-spacing:0px;word-spacing:0px;baseline-shift:sub;fill:#000000;fill-opacity:1;stroke:none;font-family:Sans"
       d="m 211.68118,62.202844 c 0.36817,0.0787 0.65508,0.24249 0.86075,0.49131 0.20821,0.24884 0.31231,0.55607 0.31231,0.9217 0,0.56114 -0.19297,0.99532 -0.57891,1.30255 -0.38595,0.30724 -0.93439,0.46085 -1.64534,0.46085 -0.23867,0 -0.48497,-0.0241 -0.73887,-0.0724 -0.25138,-0.0457 -0.51163,-0.11553 -0.78078,-0.20948 l 0,-0.74269 c 0.21329,0.12442 0.44688,0.21837 0.70079,0.28184 0.25391,0.0635 0.51925,0.0952 0.79601,0.0952 0.48243,0 0.84933,-0.0952 1.1007,-0.28565 0.25391,-0.19043 0.38086,-0.46719 0.38087,-0.83028 -1e-5,-0.33516 -0.11808,-0.59669 -0.35421,-0.78458 -0.2336,-0.19043 -0.55987,-0.28565 -0.97882,-0.28565 l -0.66271,0 0,-0.63224 0.69318,0 c 0.37832,10e-6 0.66778,-0.0749 0.86837,-0.22471 0.20058,-0.15234 0.30088,-0.3707 0.30088,-0.65509 0,-0.29199 -0.1041,-0.51543 -0.31231,-0.67032 -0.20567,-0.15742 -0.50147,-0.23613 -0.88741,-0.23613 -0.21075,0 -0.43673,0.0228 -0.67794,0.0685 -0.24122,0.0457 -0.50655,0.11681 -0.79601,0.21329 l 0,-0.68556 c 0.292,-0.0812 0.56495,-0.14218 0.81886,-0.18282 0.25645,-0.0406 0.49766,-0.0609 0.72364,-0.0609 0.58399,0 1.04611,0.1333 1.38635,0.3999 0.34024,0.26408 0.51036,0.62209 0.51036,1.07404 0,0.31485 -0.0901,0.58146 -0.27041,0.79982 -0.18028,0.21583 -0.43673,0.36563 -0.76935,0.44942"
       id="path5490" />
    <path
       style="font-size:12px;font-style:normal;font-weight:normal;line-height:125%;letter-spacing:0px;word-spacing:0px;fill:#000000;fill-opacity:1;stroke:none;font-family:Sans"
       d="m 200.80752,73.620754 1.1836,0 0,8.74805 -1.1836,0 0,-8.74805"
       id="path5493" />
    <path
       style="font-size:7.80010986px;font-style:normal;font-weight:normal;line-height:125%;letter-spacing:0px;word-spacing:0px;baseline-shift:sub;fill:#000000;fill-opacity:1;stroke:none;font-family:Sans"
       d="m 210.01299,84.121334 2.6851,0 0,0.64747 -3.6106,0 0,-0.64747 c 0.292,-0.30215 0.68937,-0.70714 1.19211,-1.21496 0.50528,-0.51035 0.82266,-0.83917 0.95216,-0.98644 0.24629,-0.27676 0.41768,-0.51035 0.51417,-0.70079 0.099,-0.19297 0.14853,-0.38213 0.14853,-0.56749 0,-0.30215 -0.10664,-0.54844 -0.31992,-0.73888 -0.21075,-0.19042 -0.48624,-0.28564 -0.82648,-0.28564 -0.24121,0 -0.49639,0.0419 -0.76554,0.12568 -0.2666,0.0838 -0.55225,0.21075 -0.85694,0.38087 l 0,-0.77697 c 0.30977,-0.12441 0.59922,-0.21835 0.86837,-0.28184 0.26914,-0.0635 0.51543,-0.0952 0.73888,-0.0952 0.58906,0 1.0588,0.14727 1.4092,0.4418 0.35039,0.29454 0.52559,0.6881 0.52559,1.18068 0,0.2336 -0.0444,0.45577 -0.1333,0.66651 -0.0863,0.20821 -0.24503,0.4545 -0.47608,0.73888 -0.0635,0.0736 -0.26534,0.28692 -0.60558,0.63985 -0.34024,0.3504 -0.82013,0.84172 -1.43967,1.47395"
       id="path5497" />
    <path
       style="font-size:12px;font-style:normal;font-weight:normal;line-height:125%;letter-spacing:0px;word-spacing:0px;fill:#000000;fill-opacity:1;stroke:none;font-family:Sans"
       d="m 200.80752,90.870754 1.1836,0 0,8.74805 -1.1836,0 0,-8.74805"
       id="path5500" />
    <path
       style="font-size:7.80010986px;font-style:normal;font-weight:normal;line-height:125%;letter-spacing:0px;word-spacing:0px;baseline-shift:sub;fill:#000000;fill-opacity:1;stroke:none;font-family:Sans"
       d="m 209.48359,101.37133 1.25685,0 0,-4.338046 -1.3673,0.27422 0,-0.70079 1.35969,-0.27422 0.76934,0 0,5.038836 1.25686,0 0,0.64747 -3.27544,0 0,-0.64747"
       id="path5504" />
  </g>
</svg>
