<?xml version="1.0" encoding="UTF-8" standalone="no"?>
<!-- Created with Inkscape (http://www.inkscape.org/) -->

<svg
   xmlns:dc="http://purl.org/dc/elements/1.1/"
   xmlns:cc="http://creativecommons.org/ns#"
   xmlns:rdf="http://www.w3.org/1999/02/22-rdf-syntax-ns#"
   xmlns:svg="http://www.w3.org/2000/svg"
   xmlns="http://www.w3.org/2000/svg"
   xmlns:sodipodi="http://sodipodi.sourceforge.net/DTD/sodipodi-0.dtd"
   xmlns:inkscape="http://www.inkscape.org/namespaces/inkscape"
   width="140"
   height="150"
   id="svg2"
   version="1.1"
   inkscape:version="0.48.0 r9654"
   sodipodi:docname="2011-(03)mar-25, 03.svg">
  <defs
     id="defs4" />
  <sodipodi:namedview
     id="base"
     pagecolor="#ffffff"
     bordercolor="#666666"
     borderopacity="1.0"
     inkscape:pageopacity="0.0"
     inkscape:pageshadow="2"
     inkscape:zoom="1.4142135"
     inkscape:cx="233.40066"
     inkscape:cy="7.4230508"
     inkscape:document-units="px"
     inkscape:current-layer="layer1"
     showgrid="false"
     inkscape:window-width="1589"
     inkscape:window-height="1117"
     inkscape:window-x="1600"
     inkscape:window-y="27"
     inkscape:window-maximized="1"
     showguides="true"
     inkscape:guide-bbox="true" />
  <metadata
     id="metadata7">
    <rdf:RDF>
      <cc:Work
         rdf:about="">
        <dc:format>image/svg+xml</dc:format>
        <dc:type
           rdf:resource="http://purl.org/dc/dcmitype/StillImage" />
        <dc:title />
      </cc:Work>
    </rdf:RDF>
  </metadata>
  <g
     inkscape:label="Layer 1"
     inkscape:groupmode="layer"
     id="layer1">
    <rect
       style="fill:#0000ff;fill-rule:evenodd;stroke:#000000;stroke-width:1px;stroke-linecap:butt;stroke-linejoin:miter;stroke-opacity:1"
       id="rect3007"
       width="58"
       height="0"
       x="-332.76865"
       y="91.110023" />
    <rect
       style="fill:#0000ff;fill-rule:evenodd;stroke:#000000;stroke-width:1px;stroke-linecap:butt;stroke-linejoin:miter;stroke-opacity:1"
       id="rect3007-3"
       width="58"
       height="0"
       x="-269.32855"
       y="112.3216" />
    <path
       style="font-size:medium;font-style:normal;font-variant:normal;font-weight:normal;font-stretch:normal;text-indent:0;text-align:start;text-decoration:none;line-height:normal;letter-spacing:normal;word-spacing:normal;text-transform:none;direction:ltr;block-progression:tb;writing-mode:lr-tb;text-anchor:start;baseline-shift:baseline;color:#000000;fill:#000000;fill-opacity:1;stroke:none;stroke-width:1;marker:none;visibility:visible;display:inline;overflow:visible;enable-background:accumulate;font-family:Sans;-inkscape-font-specification:Sans"
       d="M 29.9375 48.71875 L 29.9375 49.21875 L 29.9375 65.71875 L 29.9375 66.21875 L 30.4375 66.21875 L 40.4375 66.21875 L 40.9375 66.21875 L 40.9375 65.71875 L 40.9375 49.21875 L 40.9375 48.71875 L 40.4375 48.71875 L 30.4375 48.71875 L 29.9375 48.71875 z M 30.9375 49.71875 L 39.9375 49.71875 L 39.9375 65.21875 L 30.9375 65.21875 L 30.9375 49.71875 z "
       id="path4635" />
    <path
       style="font-size:medium;font-style:normal;font-variant:normal;font-weight:normal;font-stretch:normal;text-indent:0;text-align:start;text-decoration:none;line-height:normal;letter-spacing:normal;word-spacing:normal;text-transform:none;direction:ltr;block-progression:tb;writing-mode:lr-tb;text-anchor:start;baseline-shift:baseline;color:#000000;fill:#000000;fill-opacity:1;stroke:none;stroke-width:1;marker:none;visibility:visible;display:inline;overflow:visible;enable-background:accumulate;font-family:Sans;-inkscape-font-specification:Sans"
       d="M 77.9375 48.71875 L 77.9375 49.21875 L 77.9375 65.71875 L 77.9375 66.21875 L 78.4375 66.21875 L 88.4375 66.21875 L 88.9375 66.21875 L 88.9375 65.71875 L 88.9375 49.21875 L 88.9375 48.71875 L 88.4375 48.71875 L 78.4375 48.71875 L 77.9375 48.71875 z M 78.9375 49.71875 L 87.9375 49.71875 L 87.9375 65.21875 L 78.9375 65.21875 L 78.9375 49.71875 z "
       id="path4631" />
    <path
       style="font-size:medium;font-style:normal;font-variant:normal;font-weight:normal;font-stretch:normal;text-indent:0;text-align:start;text-decoration:none;line-height:normal;letter-spacing:normal;word-spacing:normal;text-transform:none;direction:ltr;block-progression:tb;writing-mode:lr-tb;text-anchor:start;baseline-shift:baseline;color:#000000;fill:#000000;fill-opacity:1;stroke:none;stroke-width:1;marker:none;visibility:visible;display:inline;overflow:visible;enable-background:accumulate;font-family:Sans;-inkscape-font-specification:Sans"
       d="M 125.9375 48.71875 L 125.9375 49.21875 L 125.9375 65.71875 L 125.9375 66.21875 L 126.4375 66.21875 L 136.4375 66.21875 L 136.9375 66.21875 L 136.9375 65.71875 L 136.9375 49.21875 L 136.9375 48.71875 L 136.4375 48.71875 L 126.4375 48.71875 L 125.9375 48.71875 z M 126.9375 49.71875 L 135.9375 49.71875 L 135.9375 65.21875 L 126.9375 65.21875 L 126.9375 49.71875 z "
       id="path4627" />
    <path
       style="font-size:medium;font-style:normal;font-variant:normal;font-weight:normal;font-stretch:normal;text-indent:0;text-align:start;text-decoration:none;line-height:normal;letter-spacing:normal;word-spacing:normal;text-transform:none;direction:ltr;block-progression:tb;writing-mode:lr-tb;text-anchor:start;baseline-shift:baseline;color:#000000;fill:#000000;fill-opacity:1;stroke:none;stroke-width:1;marker:none;visibility:visible;display:inline;overflow:visible;enable-background:accumulate;font-family:Sans;-inkscape-font-specification:Sans"
       d="M 77.9375 108.71875 L 77.9375 109.21875 L 77.9375 125.71875 L 77.9375 126.21875 L 78.4375 126.21875 L 88.4375 126.21875 L 88.9375 126.21875 L 88.9375 125.71875 L 88.9375 109.21875 L 88.9375 108.71875 L 88.4375 108.71875 L 78.4375 108.71875 L 77.9375 108.71875 z M 78.9375 109.71875 L 87.9375 109.71875 L 87.9375 125.21875 L 78.9375 125.21875 L 78.9375 109.71875 z "
       id="path4623" />
    <path
       style="font-size:medium;font-style:normal;font-variant:normal;font-weight:normal;font-stretch:normal;text-indent:0;text-align:start;text-decoration:none;line-height:normal;letter-spacing:normal;word-spacing:normal;text-transform:none;direction:ltr;block-progression:tb;writing-mode:lr-tb;text-anchor:start;baseline-shift:baseline;color:#000000;fill:#000000;fill-opacity:1;stroke:none;stroke-width:1;marker:none;visibility:visible;display:inline;overflow:visible;enable-background:accumulate;font-family:Sans;-inkscape-font-specification:Sans"
       d="M 35.6875 108.21875 C 30.999002 108.21875 27.1875 112.03025 27.1875 116.71875 C 27.1875 121.40724 30.999002 125.21875 35.6875 125.21875 C 40.375998 125.21875 44.1875 121.40724 44.1875 116.71875 C 44.1875 112.03025 40.375998 108.21875 35.6875 108.21875 z M 35.6875 109.21875 C 39.835558 109.21875 43.1875 112.57069 43.1875 116.71875 C 43.1875 120.86681 39.835558 124.21875 35.6875 124.21875 C 31.539442 124.21875 28.1875 120.86681 28.1875 116.71875 C 28.1875 112.57069 31.539442 109.21875 35.6875 109.21875 z "
       id="path4619" />
    <path
       style="font-size:medium;font-style:normal;font-variant:normal;font-weight:normal;font-stretch:normal;text-indent:0;text-align:start;text-decoration:none;line-height:normal;letter-spacing:normal;word-spacing:normal;text-transform:none;direction:ltr;block-progression:tb;writing-mode:lr-tb;text-anchor:start;baseline-shift:baseline;color:#000000;fill:#000000;fill-opacity:1;stroke:none;stroke-width:1px;marker:none;visibility:visible;display:inline;overflow:visible;enable-background:accumulate;font-family:Sans;-inkscape-font-specification:Sans"
       d="m 35.3125,66 0,58.4375 1,0 0,-58.4375 z"
       id="path3021"
       inkscape:connector-curvature="0"
       sodipodi:nodetypes="ccccc" />
    <path
       style="font-size:medium;font-style:normal;font-variant:normal;font-weight:normal;font-stretch:normal;text-indent:0;text-align:start;text-decoration:none;line-height:normal;letter-spacing:normal;word-spacing:normal;text-transform:none;direction:ltr;block-progression:tb;writing-mode:lr-tb;text-anchor:start;baseline-shift:baseline;color:#000000;fill:#000000;fill-opacity:1;stroke:none;stroke-width:1px;marker:none;visibility:visible;display:inline;overflow:visible;enable-background:accumulate;font-family:Sans;-inkscape-font-specification:Sans"
       d="m 83.3125,66 0,43.1875 1,0 0,-43.1875 -1,0 z"
       id="path3023" />
    <path
       style="font-size:medium;font-style:normal;font-variant:normal;font-weight:normal;font-stretch:normal;text-indent:0;text-align:start;text-decoration:none;line-height:normal;letter-spacing:normal;word-spacing:normal;text-transform:none;direction:ltr;block-progression:tb;writing-mode:lr-tb;text-anchor:start;baseline-shift:baseline;color:#000000;fill:#000000;fill-opacity:1;stroke:none;stroke-width:1px;marker:none;visibility:visible;display:inline;overflow:visible;enable-background:accumulate;font-family:Sans;-inkscape-font-specification:Sans"
       d="m 34.625,21.5 0,0.5 0,27.125 1,0 0,-26.625 95.40625,0 0,26.25 1,0 0,-26.75 0,-0.5 -0.5,0 -96.40625,0 -0.5,0 z"
       id="path3025" />
    <path
       style="font-size:medium;font-style:normal;font-variant:normal;font-weight:normal;font-stretch:normal;text-indent:0;text-align:start;text-decoration:none;line-height:normal;letter-spacing:normal;word-spacing:normal;text-transform:none;direction:ltr;block-progression:tb;writing-mode:lr-tb;text-anchor:start;baseline-shift:baseline;color:#000000;fill:#000000;fill-opacity:1;stroke:none;stroke-width:1px;marker:none;visibility:visible;display:inline;overflow:visible;enable-background:accumulate;font-family:Sans;-inkscape-font-specification:Sans"
       d="m 83.21875,22.15625 0,26.875 1,0 0,-26.875 -1,0 z"
       id="path3027" />
    <path
       style="font-size:medium;font-style:normal;font-variant:normal;font-weight:normal;font-stretch:normal;text-indent:0;text-align:start;text-decoration:none;line-height:normal;letter-spacing:normal;word-spacing:normal;text-transform:none;direction:ltr;block-progression:tb;writing-mode:lr-tb;text-anchor:start;baseline-shift:baseline;color:#000000;fill:#000000;fill-opacity:1;stroke:none;stroke-width:1px;marker:none;visibility:visible;display:inline;overflow:visible;enable-background:accumulate;font-family:Sans;-inkscape-font-specification:Sans"
       d="m 131.0625,65.875 0,20.875 -47.3125,0 0,1 47.8125,0 0.5,0 0,-0.5 0,-21.375 -1,0 z"
       id="path3029" />
    <path
       style="font-size:medium;font-style:normal;font-variant:normal;font-weight:normal;font-stretch:normal;text-indent:0;text-align:start;text-decoration:none;line-height:normal;letter-spacing:normal;word-spacing:normal;text-transform:none;direction:ltr;block-progression:tb;writing-mode:lr-tb;text-anchor:start;baseline-shift:baseline;color:#000000;fill:#000000;fill-opacity:1;stroke:none;stroke-width:1px;marker:none;visibility:visible;display:inline;overflow:visible;enable-background:accumulate;font-family:Sans;-inkscape-font-specification:Sans"
       d="m 35.21875,124.75 0,20.09375 0,0.5 0.5,0 48,0 0.5,0 0,-0.5 0,-19.28125 -1,0 0,18.78125 -47,0 0,-19.59375 -1,0 z"
       id="path3031" />
    <path
       style="font-size:medium;font-style:normal;font-variant:normal;font-weight:normal;font-stretch:normal;text-indent:0;text-align:start;text-decoration:none;line-height:normal;letter-spacing:normal;word-spacing:normal;text-transform:none;direction:ltr;block-progression:tb;writing-mode:lr-tb;text-anchor:start;baseline-shift:baseline;color:#000000;fill:#000000;fill-opacity:1;stroke:none;stroke-width:1;marker:none;visibility:visible;display:inline;overflow:visible;enable-background:accumulate;font-family:Sans;-inkscape-font-specification:Sans"
       d="m 83.125,37 0,3.5 1,0 0,-3.5 -1,0 z"
       id="path3033" />
    <path
       style="font-size:12px;fill-rule:evenodd;stroke-width:0.625;stroke-linejoin:round"
       d="M 88.062107,29.809552 83.642613,41.828017 79.223119,29.809552 c 2.609267,1.920048 6.179198,1.908985 8.838988,0 z"
       id="path4495" />
    <path
       style="font-size:medium;font-style:normal;font-variant:normal;font-weight:normal;font-stretch:normal;text-indent:0;text-align:start;text-decoration:none;line-height:normal;letter-spacing:normal;word-spacing:normal;text-transform:none;direction:ltr;block-progression:tb;writing-mode:lr-tb;text-anchor:start;baseline-shift:baseline;color:#000000;fill:#000000;fill-opacity:1;stroke:none;stroke-width:1;marker:none;visibility:visible;display:inline;overflow:visible;enable-background:accumulate;font-family:Sans;-inkscape-font-specification:Sans"
       d="m 59.75,21.5 0,1 3.5,0 0,-1 -3.5,0 z"
       id="path4247" />
    <path
       style="font-size:12px;fill-rule:evenodd;stroke-width:0.625;stroke-linejoin:round"
       d="m 52.572731,17.560903 12.018465,4.419494 -12.018465,4.419494 c 1.920048,-2.609267 1.908985,-6.179198 0,-8.838988 z"
       id="path4503" />
    <path
       style="font-size:medium;font-style:normal;font-variant:normal;font-weight:normal;font-stretch:normal;text-indent:0;text-align:start;text-decoration:none;line-height:normal;letter-spacing:normal;word-spacing:normal;text-transform:none;direction:ltr;block-progression:tb;writing-mode:lr-tb;text-anchor:start;baseline-shift:baseline;color:#000000;fill:#000000;fill-opacity:1;stroke:none;stroke-width:1;marker:none;visibility:visible;display:inline;overflow:visible;enable-background:accumulate;font-family:Sans;-inkscape-font-specification:Sans"
       d="m 109.75,21.5 0,1 3.5,0 0,-1 -3.5,0 z"
       id="path4249" />
    <path
       style="font-size:12px;fill-rule:evenodd;stroke-width:0.625;stroke-linejoin:round"
       d="m 102.57273,17.560903 12.01847,4.419494 -12.01847,4.419494 c 1.92005,-2.609267 1.90899,-6.179198 0,-8.838988 z"
       id="path4511" />
    <path
       style="font-size:medium;font-style:normal;font-variant:normal;font-weight:normal;font-stretch:normal;text-indent:0;text-align:start;text-decoration:none;line-height:normal;letter-spacing:normal;word-spacing:normal;text-transform:none;direction:ltr;block-progression:tb;writing-mode:lr-tb;text-anchor:start;baseline-shift:baseline;color:#000000;fill:#000000;fill-opacity:1;stroke:none;stroke-width:1px;marker:none;visibility:visible;display:inline;overflow:visible;enable-background:accumulate;font-family:Sans;-inkscape-font-specification:Sans"
       d="m 22.21875,108.21875 0,17.625 1,0 0,-17.625 -1,0 z"
       id="path4251" />
    <path
       style="font-size:12px;font-style:normal;font-weight:normal;line-height:125%;letter-spacing:0px;word-spacing:0px;fill:#000000;fill-opacity:1;stroke:none;font-family:Sans"
       d="m 91.76964,30.841623 1.1836,0 0,8.748047 -1.1836,0 0,-8.748047"
       id="path4456" />
    <path
       style="font-size:7.80010986px;font-style:normal;font-weight:normal;line-height:125%;letter-spacing:0px;word-spacing:0px;baseline-shift:sub;fill:#000000;fill-opacity:1;stroke:none;font-family:Sans"
       d="m 95.62777,41.3422 2.6851,0 0,0.64747 -3.6106,0 0,-0.64747 c 0.292,-0.302152 0.68936,-0.707137 1.19211,-1.214959 0.50527,-0.510356 0.82266,-0.839169 0.95216,-0.986439 0.24629,-0.276759 0.41768,-0.510356 0.51417,-0.700791 0.099,-0.192968 0.14853,-0.382131 0.14853,-0.567489 0,-0.302148 -0.10664,-0.54844 -0.31992,-0.738877 -0.21075,-0.190428 -0.48624,-0.285644 -0.82648,-0.285649 -0.24122,5e-6 -0.4964,0.0419 -0.76554,0.125685 -0.2666,0.0838 -0.55225,0.21075 -0.85694,0.380865 l 0,-0.776964 c 0.30977,-0.12441 0.59922,-0.218357 0.86837,-0.28184 0.26914,-0.06347 0.51543,-0.09521 0.73888,-0.09522 0.58906,6e-6 1.0588,0.147273 1.40919,0.441803 0.3504,0.294541 0.52559,0.688101 0.5256,1.180681 -10e-6,0.233601 -0.0444,0.455772 -0.1333,0.666513 -0.0863,0.20821 -0.24503,0.454502 -0.47609,0.738878 -0.0635,0.07364 -0.26533,0.28692 -0.60557,0.639853 -0.34024,0.350397 -0.82013,0.841712 -1.43967,1.473946"
       id="path4458" />
    <path
       style="font-size:12px;font-style:normal;font-weight:normal;line-height:125%;letter-spacing:0px;word-spacing:0px;fill:#000000;fill-opacity:1;stroke:none;font-family:Sans"
       d="m 54.44978,5.4500564 1.1836,0 0,8.7480466 -1.1836,0 0,-8.7480466"
       id="path4451" />
    <path
       style="font-size:7.80010986px;font-style:normal;font-weight:normal;line-height:125%;letter-spacing:0px;word-spacing:0px;baseline-shift:sub;fill:#000000;fill-opacity:1;stroke:none;font-family:Sans"
       d="m 57.77851,15.950633 1.25685,0 0,-4.338049 -1.3673,0.274223 0,-0.700792 1.35969,-0.274222 0.76934,0 0,5.03884 1.25686,0 0,0.64747 -3.27544,0 0,-0.64747"
       id="path4453" />
    <path
       style="font-size:12px;font-style:normal;font-weight:normal;line-height:125%;letter-spacing:0px;word-spacing:0px;fill:#000000;fill-opacity:1;stroke:none;font-family:Sans"
       d="m 107.12923,5.9145234 1.1836,0 0,8.7480466 -1.1836,0 0,-8.7480466"
       id="path4448" />
    <path
       style="font-size:12px;font-style:normal;font-weight:normal;line-height:125%;letter-spacing:0px;word-spacing:0px;fill:#000000;fill-opacity:1;stroke:none;font-family:Sans"
       d="m 4.8198582,112.16025 5.5312498,0 0,0.99609 -4.3476498,0 0,2.58985 4.1660098,0 0,0.99609 -4.1660098,0 0,3.16992 4.4531198,0 0,0.99609 -5.6367198,0 0,-8.74804"
       id="path4317" />
    <path
       style="font-size:12px;font-style:normal;font-weight:normal;line-height:125%;letter-spacing:0px;word-spacing:0px;fill:#000000;fill-opacity:1;stroke:none;font-family:Sans"
       d="m 16.755408,103.13181 0,3.26367 3.26367,0 0,0.99609 -3.26367,0 0,3.26368 -0.98437,0 0,-3.26368 -3.26368,0 0,-0.99609 3.26368,0 0,-3.26367 0.98437,0"
       id="path4319" />
    <path
       style="font-size:12px;font-style:normal;font-weight:normal;line-height:125%;letter-spacing:0px;word-spacing:0px;fill:#000000;fill-opacity:1;stroke:none;font-family:Sans"
       d="M 16.4375 52.71875 L 16.4375 61.46875 L 17.625 61.46875 L 17.625 57.75 L 18.90625 57.75 C 19.375 57.750004 19.73047 57.871097 20 58.0625 C 20.27343 58.253909 20.55468 58.632816 20.84375 59.21875 L 21.96875 61.46875 L 23.25 61.46875 L 22.03125 59.0625 C 21.78905 58.570315 21.55468 58.187503 21.3125 57.90625 C 21.07422 57.625004 20.8164 57.46094 20.5625 57.375 C 21.05078 57.23438 21.43359 56.957036 21.6875 56.59375 C 21.94531 56.230474 22.0625 55.769537 22.0625 55.21875 C 22.0625 54.375007 21.83593 53.761727 21.34375 53.34375 C 20.85156 52.92579 20.09374 52.718759 19.09375 52.71875 L 16.4375 52.71875 z M 17.625 53.6875 L 19.09375 53.6875 C 19.66406 53.687508 20.08593 53.832039 20.375 54.09375 C 20.66797 54.35157 20.8125 54.707038 20.8125 55.21875 C 20.8125 55.730475 20.66797 56.14063 20.375 56.40625 C 20.08593 56.667973 19.66406 56.781255 19.09375 56.78125 L 17.625 56.78125 L 17.625 53.6875 z "
       id="path4569" />
    <path
       style="font-size:26.00036621px;font-style:normal;font-weight:normal;line-height:125%;letter-spacing:0px;word-spacing:0px;baseline-shift:sub;fill:#000000;fill-opacity:1;stroke:none;font-family:Sans"
       d="m 24.56115,63.21352 1.25685,0 0,-4.338049 -1.3673,0.274222 0,-0.700791 1.35968,-0.274223 0.76935,0 0,5.038841 1.25685,0 0,0.64747 -3.27543,0 0,-0.64747"
       id="path4445" />
    <path
       style="font-size:12px;font-style:normal;font-weight:normal;line-height:125%;letter-spacing:0px;word-spacing:0px;fill:#000000;fill-opacity:1;stroke:none;font-family:Sans"
       d="M 65.28125 52.1875 L 65.28125 60.9375 L 66.46875 60.9375 L 66.46875 57.21875 L 67.78125 57.21875 C 68.25 57.218754 68.60547 57.308597 68.875 57.5 C 69.14843 57.691409 69.42968 58.101566 69.71875 58.6875 L 70.84375 60.9375 L 72.125 60.9375 L 70.90625 58.53125 C 70.66405 58.039065 70.42968 57.656253 70.1875 57.375 C 69.94922 57.093754 69.6914 56.89844 69.4375 56.8125 C 69.92578 56.67188 70.30859 56.425786 70.5625 56.0625 C 70.82031 55.699224 70.9375 55.238287 70.9375 54.6875 C 70.9375 53.843757 70.71093 53.230477 70.21875 52.8125 C 69.72656 52.39454 68.96874 52.187509 67.96875 52.1875 L 65.28125 52.1875 z M 66.46875 53.15625 L 67.96875 53.15625 C 68.53906 53.156258 68.96093 53.269539 69.25 53.53125 C 69.54297 53.78907 69.6875 54.175788 69.6875 54.6875 C 69.6875 55.199225 69.54297 55.60938 69.25 55.875 C 68.96093 56.136723 68.53906 56.250005 67.96875 56.25 L 66.46875 56.25 L 66.46875 53.15625 z "
       id="path4575" />
    <path
       style="font-size:26.00036621px;font-style:normal;font-weight:normal;line-height:125%;letter-spacing:0px;word-spacing:0px;baseline-shift:sub;fill:#000000;fill-opacity:1;stroke:none;font-family:Sans"
       d="m 73.95839,62.676553 2.68509,0 0,0.64747 -3.61059,0 0,-0.64747 c 0.29199,-0.302152 0.68936,-0.707138 1.1921,-1.214959 0.50528,-0.510356 0.82267,-0.839169 0.95217,-0.986439 0.24629,-0.276759 0.41767,-0.510356 0.51416,-0.700791 0.099,-0.192968 0.14854,-0.382131 0.14854,-0.567489 0,-0.302148 -0.10665,-0.54844 -0.31993,-0.738877 -0.21074,-0.190428 -0.48624,-0.285644 -0.82647,-0.285649 -0.24122,5e-6 -0.4964,0.0419 -0.76554,0.125685 -0.26661,0.0838 -0.55226,0.21075 -0.85695,0.380865 l 0,-0.776964 c 0.30977,-0.12441 0.59923,-0.218357 0.86838,-0.28184 0.26914,-0.06347 0.51543,-0.09521 0.73887,-0.09522 0.58907,6e-6 1.0588,0.147273 1.4092,0.441803 0.35039,0.294541 0.52559,0.6881 0.5256,1.180681 -1e-5,0.233601 -0.0444,0.455772 -0.13331,0.666513 -0.0863,0.208209 -0.24502,0.454502 -0.47608,0.738878 -0.0635,0.07364 -0.26534,0.28692 -0.60557,0.639852 -0.34024,0.350398 -0.82013,0.841713 -1.43967,1.473947"
       id="path4440" />
    <path
       style="font-size:12px;font-style:normal;font-weight:normal;line-height:125%;letter-spacing:0px;word-spacing:0px;fill:#000000;fill-opacity:1;stroke:none;font-family:Sans"
       d="M 112.5625 52.4375 L 112.5625 61.1875 L 113.75 61.1875 L 113.75 57.46875 L 115.0625 57.46875 C 115.53125 57.468754 115.88672 57.558597 116.15625 57.75 C 116.42968 57.941409 116.71093 58.351566 117 58.9375 L 118.125 61.1875 L 119.375 61.1875 L 118.1875 58.78125 C 117.9453 58.289065 117.71093 57.906253 117.46875 57.625 C 117.23047 57.343754 116.97265 57.14844 116.71875 57.0625 C 117.20703 56.92188 117.58984 56.675786 117.84375 56.3125 C 118.10156 55.949224 118.21875 55.488287 118.21875 54.9375 C 118.21875 54.093757 117.99218 53.480477 117.5 53.0625 C 117.00781 52.64454 116.24999 52.437509 115.25 52.4375 L 112.5625 52.4375 z M 113.75 53.40625 L 115.25 53.40625 C 115.82031 53.406258 116.24218 53.519539 116.53125 53.78125 C 116.82422 54.03907 116.96875 54.425788 116.96875 54.9375 C 116.96875 55.449225 116.82422 55.85938 116.53125 56.125 C 116.24218 56.386723 115.82031 56.500005 115.25 56.5 L 113.75 56.5 L 113.75 53.40625 z "
       id="path4581" />
    <path
       style="font-size:26.00036621px;font-style:normal;font-weight:normal;line-height:125%;letter-spacing:0px;word-spacing:0px;baseline-shift:sub;fill:#000000;fill-opacity:1;stroke:none;font-family:Sans"
       d="m 122.90705,60.508062 c 0.36816,0.07871 0.65508,0.242487 0.86075,0.491315 0.2082,0.248834 0.31231,0.556065 0.31231,0.921693 0,0.561142 -0.19298,0.995327 -0.57892,1.302557 -0.38594,0.307231 -0.93439,0.460847 -1.64533,0.460847 -0.23868,0 -0.48497,-0.02412 -0.73888,-0.07236 -0.25137,-0.0457 -0.51163,-0.115529 -0.78077,-0.209476 l 0,-0.742686 c 0.21328,0.124416 0.44688,0.218363 0.70079,0.28184 0.25391,0.06348 0.51924,0.09522 0.79601,0.09522 0.48242,0 0.84932,-0.09522 1.1007,-0.285649 0.2539,-0.190431 0.38086,-0.467193 0.38086,-0.830285 0,-0.335159 -0.11807,-0.596686 -0.3542,-0.784581 -0.2336,-0.19043 -0.55988,-0.285646 -0.97883,-0.285649 l -0.6627,0 0,-0.632235 0.69317,0 c 0.37833,3e-6 0.66778,-0.0749 0.86838,-0.224711 0.20058,-0.152342 0.30088,-0.370704 0.30088,-0.655087 0,-0.291992 -0.10411,-0.515432 -0.31231,-0.670322 -0.20567,-0.157419 -0.50148,-0.236131 -0.88742,-0.236136 -0.21074,5e-6 -0.43672,0.02286 -0.67793,0.06856 -0.24122,0.04571 -0.50656,0.116803 -0.79601,0.213284 l 0,-0.685557 c 0.29199,-0.08124 0.56495,-0.142183 0.81886,-0.182815 0.25644,-0.04062 0.49766,-0.06093 0.72364,-0.06094 0.58399,6e-6 1.04611,0.133308 1.38635,0.399908 0.34023,0.264071 0.51035,0.622084 0.51036,1.074039 -1e-5,0.314852 -0.0901,0.581457 -0.27042,0.799815 -0.18028,0.215827 -0.43673,0.365634 -0.76934,0.449421"
       id="path4435" />
    <path
       style="font-size:12px;font-style:normal;font-weight:normal;line-height:125%;letter-spacing:0px;word-spacing:0px;fill:#000000;fill-opacity:1;stroke:none;font-family:Sans"
       d="M 68.5625 113.6875 L 68.5625 122.4375 L 69.75 122.4375 L 69.75 118.71875 L 71.0625 118.71875 C 71.53125 118.71875 71.88672 118.80859 72.15625 119 C 72.42968 119.19141 72.71093 119.60157 73 120.1875 L 74.125 122.4375 L 75.375 122.4375 L 74.1875 120.03125 C 73.9453 119.53906 73.71093 119.15625 73.46875 118.875 C 73.23047 118.59376 72.97265 118.3984 72.71875 118.3125 C 73.20703 118.17188 73.58984 117.92579 73.84375 117.5625 C 74.10156 117.19923 74.21875 116.73828 74.21875 116.1875 C 74.21875 115.34375 73.99218 114.73048 73.5 114.3125 C 73.00781 113.89454 72.24999 113.6875 71.25 113.6875 L 68.5625 113.6875 z M 69.75 114.65625 L 71.25 114.65625 C 71.82031 114.65626 72.24218 114.76954 72.53125 115.03125 C 72.82422 115.28907 72.96875 115.67579 72.96875 116.1875 C 72.96875 116.69922 72.82422 117.10938 72.53125 117.375 C 72.24218 117.63673 71.82031 117.75001 71.25 117.75 L 69.75 117.75 L 69.75 114.65625 z "
       id="path4585" />
  </g>
</svg>
