<?xml version="1.0" encoding="UTF-8" standalone="no"?>
<!-- Created with Inkscape (http://www.inkscape.org/) -->

<svg
   xmlns:dc="http://purl.org/dc/elements/1.1/"
   xmlns:cc="http://creativecommons.org/ns#"
   xmlns:rdf="http://www.w3.org/1999/02/22-rdf-syntax-ns#"
   xmlns:svg="http://www.w3.org/2000/svg"
   xmlns="http://www.w3.org/2000/svg"
   xmlns:sodipodi="http://sodipodi.sourceforge.net/DTD/sodipodi-0.dtd"
   xmlns:inkscape="http://www.inkscape.org/namespaces/inkscape"
   width="240"
   height="150"
   id="svg2"
   version="1.1"
   inkscape:version="0.48.0 r9654"
   sodipodi:docname="2011-(04)apr-08, 16.svg">
  <defs
     id="defs4" />
  <sodipodi:namedview
     id="base"
     pagecolor="#ffffff"
     bordercolor="#666666"
     borderopacity="1.0"
     inkscape:pageopacity="0.0"
     inkscape:pageshadow="2"
     inkscape:zoom="2.0000001"
     inkscape:cx="137.07177"
     inkscape:cy="157.23457"
     inkscape:document-units="px"
     inkscape:current-layer="layer1"
     showgrid="false"
     inkscape:window-width="1589"
     inkscape:window-height="1117"
     inkscape:window-x="1600"
     inkscape:window-y="27"
     inkscape:window-maximized="1"
     showguides="true"
     inkscape:guide-bbox="true" />
  <metadata
     id="metadata7">
    <rdf:RDF>
      <cc:Work
         rdf:about="">
        <dc:format>image/svg+xml</dc:format>
        <dc:type
           rdf:resource="http://purl.org/dc/dcmitype/StillImage" />
        <dc:title />
      </cc:Work>
    </rdf:RDF>
  </metadata>
  <g
     inkscape:label="Layer 1"
     inkscape:groupmode="layer"
     id="layer1">
    <rect
       style="fill:#0000ff;fill-rule:evenodd;stroke:#000000;stroke-width:1px;stroke-linecap:butt;stroke-linejoin:miter;stroke-opacity:1"
       id="rect3007"
       width="58"
       height="0"
       x="-339.93503"
       y="96.701012" />
    <rect
       style="fill:#0000ff;fill-rule:evenodd;stroke:#000000;stroke-width:1px;stroke-linecap:butt;stroke-linejoin:miter;stroke-opacity:1"
       id="rect3007-3"
       width="58"
       height="0"
       x="-276.49493"
       y="117.91259" />
    <path
       style="font-size:medium;font-style:normal;font-variant:normal;font-weight:normal;font-stretch:normal;text-indent:0;text-align:start;text-decoration:none;line-height:normal;letter-spacing:normal;word-spacing:normal;text-transform:none;direction:ltr;block-progression:tb;writing-mode:lr-tb;text-anchor:start;baseline-shift:baseline;color:#000000;fill:#000000;fill-opacity:1;stroke:none;stroke-width:1px;marker:none;visibility:visible;display:inline;overflow:visible;enable-background:accumulate;font-family:Sans;-inkscape-font-specification:Sans"
       d="m 19,6 0,121 0,0.5 0.5,0 218,0 0,-1 L 20,126.5 20,6 19,6 z"
       id="path3008"
       inkscape:connector-curvature="0" />
    <path
       style="font-size:12px;fill-rule:evenodd;stroke-width:0.625;stroke-linejoin:round"
       d="m 15.062889,16.690454 4.419494,-12.018465 4.419494,12.018466 c -2.609267,-1.920049 -6.179198,-1.908985 -8.838988,-1e-6 z"
       id="path4471"
       inkscape:connector-curvature="0" />
    <path
       style="font-size:12px;fill-rule:evenodd;stroke-width:0.625;stroke-linejoin:round"
       d="m 226.80954,122.56289 12.01847,4.4195 -12.01847,4.41949 c 1.92005,-2.60927 1.90899,-6.1792 0,-8.83899 z"
       id="path4473"
       inkscape:connector-curvature="0" />
    <path
       style="font-size:medium;font-style:normal;font-variant:normal;font-weight:normal;font-stretch:normal;text-indent:0;text-align:start;text-decoration:none;line-height:normal;letter-spacing:normal;word-spacing:normal;text-transform:none;direction:ltr;block-progression:tb;writing-mode:lr-tb;text-anchor:start;baseline-shift:baseline;color:#000000;fill:#000000;fill-opacity:1;stroke:none;stroke-width:1px;marker:none;visibility:visible;display:inline;overflow:visible;enable-background:accumulate;font-family:Sans;-inkscape-font-specification:Sans"
       d="m 109.09375,37.71875 c -25.34966,0 -41.896455,7.910339 -52.0625,19.90625 -9.954252,11.745997 -13.720143,27.355433 -13.875,43.09375 l -24.0625,0 0,1 24,0 0.5,0 0.5,0 c 0,-15.92183 3.72639,-31.683412 13.6875,-43.4375 9.96111,-11.754088 26.17079,-19.5625 51.3125,-19.5625 l 113,0 0,-1 -113,0 z"
       id="path4408"
       inkscape:connector-curvature="0" />
    <path
       style="font-size:medium;font-style:normal;font-variant:normal;font-weight:normal;font-stretch:normal;text-indent:0;text-align:start;text-decoration:none;line-height:normal;letter-spacing:normal;word-spacing:normal;text-transform:none;direction:ltr;block-progression:tb;writing-mode:lr-tb;text-anchor:start;baseline-shift:baseline;color:#000000;fill:#000000;fill-opacity:1;stroke:none;stroke-width:1px;marker:none;visibility:visible;display:inline;overflow:visible;enable-background:accumulate;font-family:Sans;-inkscape-font-specification:Sans"
       d="m 43.46875,121.71875 0,10.59375 1,0 0,-10.59375 -1,0 z"
       id="path4410"
       inkscape:connector-curvature="0" />
    <path
       style="font-size:12px;font-style:normal;font-weight:normal;line-height:125%;letter-spacing:0px;word-spacing:0px;fill:#000000;fill-opacity:1;stroke:none;font-family:Sans"
       d="m 43.90625,135.375 c -0.980471,1e-5 -1.730471,0.37891 -2.25,1.15625 -0.515626,0.77344 -0.781251,1.89844 -0.78125,3.375 -10e-7,1.47265 0.265624,2.59765 0.78125,3.375 0.519529,0.77343 1.269529,1.1875 2.25,1.1875 0.980464,0 1.703119,-0.41407 2.21875,-1.1875 0.519524,-0.77735 0.781243,-1.90235 0.78125,-3.375 -7e-6,-1.47656 -0.261726,-2.60156 -0.78125,-3.375 -0.515631,-0.77734 -1.238286,-1.15624 -2.21875,-1.15625 z m 0,0.9375 c 0.613277,1e-5 1.070308,0.3047 1.375,0.90625 0.308588,0.59767 0.437494,1.48438 0.4375,2.6875 -6e-6,1.19922 -0.128912,2.11719 -0.4375,2.71875 -0.304692,0.59765 -0.761723,0.90625 -1.375,0.90625 -0.609378,0 -1.097659,-0.3086 -1.40625,-0.90625 -0.30469,-0.60156 -0.437502,-1.51953 -0.4375,-2.71875 -2e-6,-1.20312 0.13281,-2.08983 0.4375,-2.6875 0.308591,-0.60155 0.796872,-0.90624 1.40625,-0.90625 z"
       id="path4463"
       inkscape:connector-curvature="0" />
    <path
       style="font-size:12px;font-style:normal;font-weight:normal;line-height:125%;letter-spacing:0px;word-spacing:0px;fill:#000000;fill-opacity:1;stroke:none;font-family:Sans"
       d="m 2.319123,95.061985 1.183594,0 0,8.748055 -1.183594,0 0,-8.748055"
       id="path4452"
       inkscape:connector-curvature="0" />
    <path
       style="font-size:26.00036621px;font-style:normal;font-weight:normal;line-height:125%;letter-spacing:0px;word-spacing:0px;baseline-shift:sub;fill:#000000;fill-opacity:1;stroke:none;font-family:Sans"
       d="m 7.167837,100.42259 c -0.637316,0 -1.131051,0.24472 -1.46875,0.75 -0.335161,0.50274 -0.500001,1.22772 -0.5,2.1875 -10e-7,0.95724 0.164839,1.71347 0.5,2.21875 0.337699,0.50274 0.831434,0.75 1.46875,0.75 0.637311,0 1.102335,-0.24726 1.4375,-0.75 0.337696,-0.50528 0.531246,-1.26151 0.53125,-2.21875 -4e-6,-0.95978 -0.193554,-1.68476 -0.53125,-2.1875 -0.335165,-0.50528 -0.800189,-0.75 -1.4375,-0.75 z m 0,0.59375 c 0.398636,0 0.676947,0.20274 0.875,0.59375 0.200585,0.38849 0.312497,0.96796 0.3125,1.75 -3e-6,0.7795 -0.111915,1.39023 -0.3125,1.78125 -0.198053,0.38849 -0.476364,0.5625 -0.875,0.5625 -0.396101,0 -0.705663,-0.17401 -0.90625,-0.5625 -0.198055,-0.39102 -0.281251,-1.00175 -0.28125,-1.78125 -10e-7,-0.78204 0.0832,-1.36151 0.28125,-1.75 0.200587,-0.39101 0.510149,-0.59375 0.90625,-0.59375 z"
       id="path4454"
       inkscape:connector-curvature="0" />
    <path
       style="font-size:12px;font-style:normal;font-weight:normal;line-height:125%;letter-spacing:0px;word-spacing:0px;fill:#000000;fill-opacity:1;stroke:none;font-family:Sans"
       d="m 6.520607,33.104358 1.183594,0 0,8.74805 -1.183594,0 0,-8.74805"
       id="path4456"
       inkscape:connector-curvature="0" />
    <path
       style="font-size:26.00036621px;font-style:normal;font-weight:normal;line-height:125%;letter-spacing:0px;word-spacing:0px;baseline-shift:sub;fill:#000000;fill-opacity:1;stroke:none;font-family:Sans"
       d="m 10.668469,40.464958 c -0.242802,0.04809 -0.433788,0.18267 -0.59375,0.375 -0.238676,0.28946 -0.34375,0.63593 -0.34375,1.0625 0,0.44434 0.105074,0.82461 0.34375,1.09375 0.225979,0.25645 0.50097,0.375 0.84375,0.375 0.291994,0 0.530854,-0.0875 0.71875,-0.25 0.149803,-0.13457 0.329878,-0.35155 0.5,-0.65625 0.124413,0.21329 0.23378,0.37735 0.3125,0.46875 0.132029,0.15997 0.237884,0.27525 0.375,0.34375 0.137107,0.07616 0.314641,0.09375 0.5,0.09375 0.360547,0 0.630461,-0.11855 0.84375,-0.375 0.23867,-0.28946 0.374994,-0.63593 0.375,-1.0625 -6e-6,-0.44434 -0.13633,-0.8246 -0.375,-1.09375 -0.225985,-0.25645 -0.500976,-0.37499 -0.84375,-0.375 -0.292,10e-6 -0.530861,0.0875 -0.71875,0.25 -0.149811,0.13457 -0.298634,0.35157 -0.46875,0.65625 -0.101567,-0.17519 -0.210939,-0.33926 -0.3125,-0.46875 -0.109184,-0.14473 -0.24629,-0.25995 -0.40625,-0.34375 -0.137114,-0.07616 -0.283399,-0.09375 -0.46875,-0.09375 -0.09014,0 -0.200316,-0.01603 -0.28125,0 z m 0.21875,0.5 c 0.347854,0 0.677532,0.33475 1,1 -0.251373,0.60938 -0.581051,0.90625 -1,0.90625 -0.241216,0 -0.420312,-0.10352 -0.5625,-0.28125 -0.139655,-0.1752 -0.218751,-0.40312 -0.21875,-0.6875 -10e-7,-0.25898 0.0791,-0.46073 0.21875,-0.65625 0.129493,-0.18282 0.308589,-0.28125 0.5625,-0.28125 z m 2.5,0 c 0.24121,0 0.420306,0.10352 0.5625,0.28125 0.139646,0.1752 0.218744,0.40312 0.21875,0.6875 -6e-6,0.25899 -0.07911,0.46074 -0.21875,0.65625 -0.129499,0.18282 -0.308595,0.28125 -0.5625,0.28125 -0.350399,0 -0.711327,-0.33475 -1.03125,-1 0.291993,-0.60938 0.65292,-0.90625 1.03125,-0.90625 z"
       id="path4504"
       inkscape:connector-curvature="0" />
    <path
       style="font-size:12px;font-style:normal;font-weight:normal;line-height:125%;letter-spacing:0px;word-spacing:0px;fill:#000000;fill-opacity:1;stroke:none;font-family:Sans"
       d="m 4.892767,76.570457 c -0.77344,0 -1.44922,0.30469 -2,0.90625 -0.496094,0.53907 -0.750001,1.38282 -0.75,2.53125 -1e-6,1.07422 0.230467,1.91797 0.6875,2.53125 0.44531,0.59375 1.144529,0.875 2.0625,0.875 0.55859,0 0.92187,-0.08984 1.09375,-0.25 0.367182,-0.33984 0.632807,-0.72265 0.8125,-1.15625 0.0664,0.34375 0.183588,0.61719 0.34375,0.78125 0.328119,0.32813 0.664056,0.46875 1.03125,0.46875 l 0.65625,0 0,-0.90625 -0.53125,0 c -0.125007,0 -0.2461,-0.09375 -0.40625,-0.28125 -0.136725,-0.16016 -0.21485,-0.33984 -0.25,-0.53125 l -0.25,-1.28125 1.1875,-3.5625 -0.9375,0 -0.59375,1.71875 c -0.230474,-1.24218 -0.94141,-1.84375 -2.15625,-1.84375 z m 0,0.90625 c 0.695309,0 1.136714,0.44922 1.3125,1.375 l 0.25,1.375 -0.375,1.0625 c -0.281255,0.83203 -0.664066,1.25 -1.1875,1.25 -0.472659,0 -0.859378,-0.20703 -1.15625,-0.625 -0.292971,-0.41016 -0.437501,-1.04687 -0.4375,-1.90625 -1e-6,-0.71093 0.136717,-1.33593 0.4375,-1.875 0.238279,-0.42968 0.63281,-0.65625 1.15625,-0.65625 z"
       id="path4460"
       inkscape:connector-curvature="0" />
    <path
       style="fill:none;stroke:#000000;stroke-width:1;stroke-linecap:butt;stroke-linejoin:miter;stroke-miterlimit:4;stroke-opacity:1;stroke-dasharray:4, 2;stroke-dashoffset:0"
       d="m 109.39013,38.225357 -89.651829,0"
       id="path4541"
       inkscape:connector-curvature="0"
       sodipodi:nodetypes="cc" />
    <path
       style="fill:none;stroke:#000000;stroke-width:1;stroke-linecap:butt;stroke-linejoin:miter;stroke-miterlimit:4;stroke-opacity:1;stroke-dasharray:4, 4;stroke-dashoffset:0;marker-mid:none;marker-end:none"
       d="m 19.208891,57.84389 38.36054,0"
       id="path4543"
       inkscape:connector-curvature="0"
       sodipodi:nodetypes="cc" />
    <path
       style="font-size:medium;font-style:normal;font-variant:normal;font-weight:normal;font-stretch:normal;text-indent:0;text-align:start;text-decoration:none;line-height:normal;letter-spacing:normal;word-spacing:normal;text-transform:none;direction:ltr;block-progression:tb;writing-mode:lr-tb;text-anchor:start;baseline-shift:baseline;color:#000000;fill:#000000;fill-opacity:1;stroke:none;stroke-width:1px;marker:none;visibility:visible;display:inline;overflow:visible;enable-background:accumulate;font-family:Sans;-inkscape-font-specification:Sans"
       d="m 13.59375,58.0625 0,42.78125 1,0 0,-42.78125 -1,0 z"
       id="path4913"
       inkscape:connector-curvature="0" />
    <path
       style="font-size:12px;fill-rule:evenodd;stroke-width:0.625;stroke-linejoin:round"
       d="m 17.102427,94.019186 -3.002445,8.164914 -3.002445,-8.164914 c 1.772642,1.304411 4.197925,1.296896 6.00489,0 z"
       id="path5289"
       inkscape:connector-curvature="0" />
    <path
       style="font-size:12px;fill-rule:evenodd;stroke-width:0.625;stroke-linejoin:round"
       d="m 11.208091,64.51657 2.856661,-7.768465 2.856661,7.768465 c -1.686571,-1.241076 -3.994094,-1.233925 -5.713322,0 z"
       id="path5291"
       inkscape:connector-curvature="0" />
  </g>
</svg>
