<?xml version="1.0" encoding="UTF-8" standalone="no"?>
<!-- Created with Inkscape (http://www.inkscape.org/) -->

<svg
   xmlns:dc="http://purl.org/dc/elements/1.1/"
   xmlns:cc="http://creativecommons.org/ns#"
   xmlns:rdf="http://www.w3.org/1999/02/22-rdf-syntax-ns#"
   xmlns:svg="http://www.w3.org/2000/svg"
   xmlns="http://www.w3.org/2000/svg"
   xmlns:sodipodi="http://sodipodi.sourceforge.net/DTD/sodipodi-0.dtd"
   xmlns:inkscape="http://www.inkscape.org/namespaces/inkscape"
   width="300"
   height="200"
   id="svg2"
   version="1.1"
   inkscape:version="0.48.0 r9654"
   sodipodi:docname="2011-(04)apr-08, 11.svg">
  <defs
     id="defs4" />
  <sodipodi:namedview
     id="base"
     pagecolor="#ffffff"
     bordercolor="#666666"
     borderopacity="1.0"
     inkscape:pageopacity="0.0"
     inkscape:pageshadow="2"
     inkscape:zoom="0.70710678"
     inkscape:cx="432.67965"
     inkscape:cy="128.28069"
     inkscape:document-units="px"
     inkscape:current-layer="layer1"
     showgrid="false"
     inkscape:window-width="1589"
     inkscape:window-height="1117"
     inkscape:window-x="1600"
     inkscape:window-y="27"
     inkscape:window-maximized="1"
     showguides="true"
     inkscape:guide-bbox="true" />
  <metadata
     id="metadata7">
    <rdf:RDF>
      <cc:Work
         rdf:about="">
        <dc:format>image/svg+xml</dc:format>
        <dc:type
           rdf:resource="http://purl.org/dc/dcmitype/StillImage" />
        <dc:title />
      </cc:Work>
    </rdf:RDF>
  </metadata>
  <g
     inkscape:label="Layer 1"
     inkscape:groupmode="layer"
     id="layer1">
    <rect
       style="fill:#0000ff;fill-rule:evenodd;stroke:#000000;stroke-width:1px;stroke-linecap:butt;stroke-linejoin:miter;stroke-opacity:1"
       id="rect3007"
       width="58"
       height="0"
       x="-322.93503"
       y="93.701012" />
    <rect
       style="fill:#0000ff;fill-rule:evenodd;stroke:#000000;stroke-width:1px;stroke-linecap:butt;stroke-linejoin:miter;stroke-opacity:1"
       id="rect3007-3"
       width="58"
       height="0"
       x="-259.49493"
       y="114.91259" />
    <path
       style="font-size:medium;font-style:normal;font-variant:normal;font-weight:normal;font-stretch:normal;text-indent:0;text-align:start;text-decoration:none;line-height:normal;letter-spacing:normal;word-spacing:normal;text-transform:none;direction:ltr;block-progression:tb;writing-mode:lr-tb;text-anchor:start;baseline-shift:baseline;color:#000000;fill:#000000;fill-opacity:1;fill-rule:nonzero;stroke:none;stroke-width:1px;marker:none;visibility:visible;display:inline;overflow:visible;enable-background:accumulate;font-family:Sans;-inkscape-font-specification:Sans"
       d="m 167.55955,71.748384 -0.84375,0.84375 -7.96875,7.96875 -0.84375,0.84375 1.21875,0 7.9375,0 0.5,0 0,-0.5 0,-7.96875 0,-1.1875 z"
       id="path5554"
       inkscape:connector-curvature="0" />
    <path
       style="font-size:medium;font-style:normal;font-variant:normal;font-weight:normal;font-stretch:normal;text-indent:0;text-align:start;text-decoration:none;line-height:normal;letter-spacing:normal;word-spacing:normal;text-transform:none;direction:ltr;block-progression:tb;writing-mode:lr-tb;text-anchor:start;baseline-shift:baseline;color:#000000;fill:#000000;fill-opacity:1;stroke:none;stroke-width:1px;marker:none;visibility:visible;display:inline;overflow:visible;enable-background:accumulate;font-family:Sans;-inkscape-font-specification:Sans"
       d="m 154.37131,40.198485 0,40.5 1,0 0,-40.5 -1,0 z"
       id="path3022"
       inkscape:connector-curvature="0" />
    <path
       style="font-size:medium;font-style:normal;font-variant:normal;font-weight:normal;font-stretch:normal;text-indent:0;text-align:start;text-decoration:none;line-height:normal;letter-spacing:normal;word-spacing:normal;text-transform:none;direction:ltr;block-progression:tb;writing-mode:lr-tb;text-anchor:start;baseline-shift:baseline;color:#000000;fill:#000000;fill-opacity:1;stroke:none;stroke-width:1px;marker:none;visibility:visible;display:inline;overflow:visible;enable-background:accumulate;font-family:Sans;-inkscape-font-specification:Sans"
       d="m 166.55881,13.135985 0,27.34375 -12.125,12.125 0.6875,0.6875 12.28125,-12.28125 0.15625,-0.125 0,-0.21875 0,-27.53125 -1,0 z"
       id="path3024"
       inkscape:connector-curvature="0" />
    <path
       style="font-size:medium;font-style:normal;font-variant:normal;font-weight:normal;font-stretch:normal;text-indent:0;text-align:start;text-decoration:none;line-height:normal;letter-spacing:normal;word-spacing:normal;text-transform:none;direction:ltr;block-progression:tb;writing-mode:lr-tb;text-anchor:start;baseline-shift:baseline;color:#000000;fill:#000000;fill-opacity:1;stroke:none;stroke-width:1px;marker:none;visibility:visible;display:inline;overflow:visible;enable-background:accumulate;font-family:Sans;-inkscape-font-specification:Sans"
       d="m 155.12131,68.542235 -0.6875,0.71875 12.125,12.125 0,27.312495 1,0 0,-27.531245 0,-0.1875 -0.15625,-0.15625 -12.28125,-12.28125 z"
       id="path3026"
       inkscape:connector-curvature="0" />
    <path
       style="font-size:medium;font-style:normal;font-variant:normal;font-weight:normal;font-stretch:normal;text-indent:0;text-align:start;text-decoration:none;line-height:normal;letter-spacing:normal;word-spacing:normal;text-transform:none;direction:ltr;block-progression:tb;writing-mode:lr-tb;text-anchor:start;baseline-shift:baseline;color:#000000;fill:#000000;fill-opacity:1;stroke:none;stroke-width:1px;marker:none;visibility:visible;display:inline;overflow:visible;enable-background:accumulate;font-family:Sans;-inkscape-font-specification:Sans"
       d="m 116.77756,59.948485 0,1 37.75,0 0,-1 -37.75,0 z"
       id="path3030"
       inkscape:connector-curvature="0" />
    <path
       style="font-size:medium;font-style:normal;font-variant:normal;font-weight:normal;font-stretch:normal;text-indent:0;text-align:start;text-decoration:none;line-height:normal;letter-spacing:normal;word-spacing:normal;text-transform:none;direction:ltr;block-progression:tb;writing-mode:lr-tb;text-anchor:start;baseline-shift:baseline;color:#000000;fill:#000000;fill-opacity:1;fill-rule:nonzero;stroke:none;stroke-width:1px;marker:none;visibility:visible;display:inline;overflow:visible;enable-background:accumulate;font-family:Sans;-inkscape-font-specification:Sans"
       d="m 167.55955,153.74838 -0.84375,0.84375 -7.96875,7.96875 -0.84375,0.84375 1.21875,0 7.9375,0 0.5,0 0,-0.5 0,-7.96875 0,-1.1875 z"
       id="path3032"
       inkscape:connector-curvature="0" />
    <path
       style="font-size:medium;font-style:normal;font-variant:normal;font-weight:normal;font-stretch:normal;text-indent:0;text-align:start;text-decoration:none;line-height:normal;letter-spacing:normal;word-spacing:normal;text-transform:none;direction:ltr;block-progression:tb;writing-mode:lr-tb;text-anchor:start;baseline-shift:baseline;color:#000000;fill:#000000;fill-opacity:1;stroke:none;stroke-width:1px;marker:none;visibility:visible;display:inline;overflow:visible;enable-background:accumulate;font-family:Sans;-inkscape-font-specification:Sans"
       d="m 154.37131,122.19848 0,40.5 1,0 0,-40.5 -1,0 z"
       id="path3034"
       inkscape:connector-curvature="0" />
    <path
       style="font-size:medium;font-style:normal;font-variant:normal;font-weight:normal;font-stretch:normal;text-indent:0;text-align:start;text-decoration:none;line-height:normal;letter-spacing:normal;word-spacing:normal;text-transform:none;direction:ltr;block-progression:tb;writing-mode:lr-tb;text-anchor:start;baseline-shift:baseline;color:#000000;fill:#000000;fill-opacity:1;stroke:none;stroke-width:1px;marker:none;visibility:visible;display:inline;overflow:visible;enable-background:accumulate;font-family:Sans;-inkscape-font-specification:Sans"
       d="m 166.55881,108.51098 0,13.96875 -12.125,12.125 0.6875,0.6875 12.28125,-12.28125 0.15625,-0.125 0,-0.21875 0,-14.15625 -1,0 z"
       id="path3036"
       inkscape:connector-curvature="0" />
    <path
       style="font-size:medium;font-style:normal;font-variant:normal;font-weight:normal;font-stretch:normal;text-indent:0;text-align:start;text-decoration:none;line-height:normal;letter-spacing:normal;word-spacing:normal;text-transform:none;direction:ltr;block-progression:tb;writing-mode:lr-tb;text-anchor:start;baseline-shift:baseline;color:#000000;fill:#000000;fill-opacity:1;stroke:none;stroke-width:1px;marker:none;visibility:visible;display:inline;overflow:visible;enable-background:accumulate;font-family:Sans;-inkscape-font-specification:Sans"
       d="m 155.12131,150.54223 -0.6875,0.71875 12.125,12.125 0,27.3125 1,0 0,-27.53125 0,-0.1875 -0.15625,-0.15625 -12.28125,-12.28125 z"
       id="path3038"
       inkscape:connector-curvature="0" />
    <path
       style="font-size:medium;font-style:normal;font-variant:normal;font-weight:normal;font-stretch:normal;text-indent:0;text-align:start;text-decoration:none;line-height:normal;letter-spacing:normal;word-spacing:normal;text-transform:none;direction:ltr;block-progression:tb;writing-mode:lr-tb;text-anchor:start;baseline-shift:baseline;color:#000000;fill:#000000;fill-opacity:1;stroke:none;stroke-width:1px;marker:none;visibility:visible;display:inline;overflow:visible;enable-background:accumulate;font-family:Sans;-inkscape-font-specification:Sans"
       d="m 116.77756,141.94848 0,1 37.75,0 0,-1 -37.75,0 z"
       id="path3040"
       inkscape:connector-curvature="0" />
    <path
       style="font-size:medium;font-style:normal;font-variant:normal;font-weight:normal;font-stretch:normal;text-indent:0;text-align:start;text-decoration:none;line-height:normal;letter-spacing:normal;word-spacing:normal;text-transform:none;direction:ltr;block-progression:tb;writing-mode:lr-tb;text-anchor:start;baseline-shift:baseline;color:#000000;fill:#000000;fill-opacity:1;fill-rule:nonzero;stroke:none;stroke-width:1px;marker:none;visibility:visible;display:inline;overflow:visible;enable-background:accumulate;font-family:Sans;-inkscape-font-specification:Sans"
       d="m 287.55955,71.748384 -0.84375,0.84375 -7.96875,7.96875 -0.84375,0.84375 1.21875,0 7.9375,0 0.5,0 0,-0.5 0,-7.96875 0,-1.1875 z"
       id="path3042"
       inkscape:connector-curvature="0" />
    <path
       style="font-size:medium;font-style:normal;font-variant:normal;font-weight:normal;font-stretch:normal;text-indent:0;text-align:start;text-decoration:none;line-height:normal;letter-spacing:normal;word-spacing:normal;text-transform:none;direction:ltr;block-progression:tb;writing-mode:lr-tb;text-anchor:start;baseline-shift:baseline;color:#000000;fill:#000000;fill-opacity:1;stroke:none;stroke-width:1px;marker:none;visibility:visible;display:inline;overflow:visible;enable-background:accumulate;font-family:Sans;-inkscape-font-specification:Sans"
       d="m 274.37131,40.198485 0,40.5 1,0 0,-40.5 -1,0 z"
       id="path3044"
       inkscape:connector-curvature="0" />
    <path
       style="font-size:medium;font-style:normal;font-variant:normal;font-weight:normal;font-stretch:normal;text-indent:0;text-align:start;text-decoration:none;line-height:normal;letter-spacing:normal;word-spacing:normal;text-transform:none;direction:ltr;block-progression:tb;writing-mode:lr-tb;text-anchor:start;baseline-shift:baseline;color:#000000;fill:#000000;fill-opacity:1;stroke:none;stroke-width:1px;marker:none;visibility:visible;display:inline;overflow:visible;enable-background:accumulate;font-family:Sans;-inkscape-font-specification:Sans"
       d="m 286.55881,13.135985 0,27.34375 -12.125,12.125 0.6875,0.6875 12.28125,-12.28125 0.15625,-0.125 0,-0.21875 0,-27.53125 -1,0 z"
       id="path3046"
       inkscape:connector-curvature="0" />
    <path
       style="font-size:medium;font-style:normal;font-variant:normal;font-weight:normal;font-stretch:normal;text-indent:0;text-align:start;text-decoration:none;line-height:normal;letter-spacing:normal;word-spacing:normal;text-transform:none;direction:ltr;block-progression:tb;writing-mode:lr-tb;text-anchor:start;baseline-shift:baseline;color:#000000;fill:#000000;fill-opacity:1;stroke:none;stroke-width:1px;marker:none;visibility:visible;display:inline;overflow:visible;enable-background:accumulate;font-family:Sans;-inkscape-font-specification:Sans"
       d="m 275.12131,68.542235 -0.6875,0.71875 12.125,12.125 0,27.312495 1,0 0,-27.531245 0,-0.1875 -0.15625,-0.15625 -12.28125,-12.28125 z"
       id="path3048"
       inkscape:connector-curvature="0" />
    <path
       style="font-size:medium;font-style:normal;font-variant:normal;font-weight:normal;font-stretch:normal;text-indent:0;text-align:start;text-decoration:none;line-height:normal;letter-spacing:normal;word-spacing:normal;text-transform:none;direction:ltr;block-progression:tb;writing-mode:lr-tb;text-anchor:start;baseline-shift:baseline;color:#000000;fill:#000000;fill-opacity:1;stroke:none;stroke-width:1px;marker:none;visibility:visible;display:inline;overflow:visible;enable-background:accumulate;font-family:Sans;-inkscape-font-specification:Sans"
       d="m 236.77756,59.948485 0,1 37.75,0 0,-1 -37.75,0 z"
       id="path3050"
       inkscape:connector-curvature="0" />
    <path
       style="font-size:medium;font-style:normal;font-variant:normal;font-weight:normal;font-stretch:normal;text-indent:0;text-align:start;text-decoration:none;line-height:normal;letter-spacing:normal;word-spacing:normal;text-transform:none;direction:ltr;block-progression:tb;writing-mode:lr-tb;text-anchor:start;baseline-shift:baseline;color:#000000;fill:#000000;fill-opacity:1;fill-rule:nonzero;stroke:none;stroke-width:1px;marker:none;visibility:visible;display:inline;overflow:visible;enable-background:accumulate;font-family:Sans;-inkscape-font-specification:Sans"
       d="m 287.55955,153.74838 -0.84375,0.84375 -7.96875,7.96875 -0.84375,0.84375 1.21875,0 7.9375,0 0.5,0 0,-0.5 0,-7.96875 0,-1.1875 z"
       id="path3052"
       inkscape:connector-curvature="0" />
    <path
       style="font-size:medium;font-style:normal;font-variant:normal;font-weight:normal;font-stretch:normal;text-indent:0;text-align:start;text-decoration:none;line-height:normal;letter-spacing:normal;word-spacing:normal;text-transform:none;direction:ltr;block-progression:tb;writing-mode:lr-tb;text-anchor:start;baseline-shift:baseline;color:#000000;fill:#000000;fill-opacity:1;stroke:none;stroke-width:1px;marker:none;visibility:visible;display:inline;overflow:visible;enable-background:accumulate;font-family:Sans;-inkscape-font-specification:Sans"
       d="m 274.37131,122.19848 0,40.5 1,0 0,-40.5 -1,0 z"
       id="path3054"
       inkscape:connector-curvature="0" />
    <path
       style="font-size:medium;font-style:normal;font-variant:normal;font-weight:normal;font-stretch:normal;text-indent:0;text-align:start;text-decoration:none;line-height:normal;letter-spacing:normal;word-spacing:normal;text-transform:none;direction:ltr;block-progression:tb;writing-mode:lr-tb;text-anchor:start;baseline-shift:baseline;color:#000000;fill:#000000;fill-opacity:1;stroke:none;stroke-width:1px;marker:none;visibility:visible;display:inline;overflow:visible;enable-background:accumulate;font-family:Sans;-inkscape-font-specification:Sans"
       d="m 286.55881,108.51098 0,13.96875 -12.125,12.125 0.6875,0.6875 12.28125,-12.28125 0.15625,-0.125 0,-0.21875 0,-14.15625 -1,0 z"
       id="path3056"
       inkscape:connector-curvature="0" />
    <path
       style="font-size:medium;font-style:normal;font-variant:normal;font-weight:normal;font-stretch:normal;text-indent:0;text-align:start;text-decoration:none;line-height:normal;letter-spacing:normal;word-spacing:normal;text-transform:none;direction:ltr;block-progression:tb;writing-mode:lr-tb;text-anchor:start;baseline-shift:baseline;color:#000000;fill:#000000;fill-opacity:1;stroke:none;stroke-width:1px;marker:none;visibility:visible;display:inline;overflow:visible;enable-background:accumulate;font-family:Sans;-inkscape-font-specification:Sans"
       d="m 275.12131,150.54223 -0.6875,0.71875 12.125,12.125 0,27.3125 1,0 0,-27.53125 0,-0.1875 -0.15625,-0.15625 -12.28125,-12.28125 z"
       id="path3058"
       inkscape:connector-curvature="0" />
    <path
       style="font-size:medium;font-style:normal;font-variant:normal;font-weight:normal;font-stretch:normal;text-indent:0;text-align:start;text-decoration:none;line-height:normal;letter-spacing:normal;word-spacing:normal;text-transform:none;direction:ltr;block-progression:tb;writing-mode:lr-tb;text-anchor:start;baseline-shift:baseline;color:#000000;fill:#000000;fill-opacity:1;stroke:none;stroke-width:1px;marker:none;visibility:visible;display:inline;overflow:visible;enable-background:accumulate;font-family:Sans;-inkscape-font-specification:Sans"
       d="m 236.77756,141.94848 0,1 37.75,0 0,-1 -37.75,0 z"
       id="path3060"
       inkscape:connector-curvature="0" />
    <path
       style="font-size:medium;font-style:normal;font-variant:normal;font-weight:normal;font-stretch:normal;text-indent:0;text-align:start;text-decoration:none;line-height:normal;letter-spacing:normal;word-spacing:normal;text-transform:none;direction:ltr;block-progression:tb;writing-mode:lr-tb;text-anchor:start;baseline-shift:baseline;color:#000000;fill:#000000;fill-opacity:1;stroke:none;stroke-width:1;marker:none;visibility:visible;display:inline;overflow:visible;enable-background:accumulate;font-family:Sans;-inkscape-font-specification:Sans"
       d="m 207.37131,92.010985 0,0.5 0,20.156245 0,0.5 0.5,0 40.3125,0 0.5,0 0,-0.5 0,-20.156245 0,-0.5 -0.5,0 -40.3125,0 -0.5,0 z m 1,1 39.3125,0 0,19.156245 -39.3125,0 0,-19.156245 z"
       id="path4105"
       inkscape:connector-curvature="0" />
    <path
       style="font-size:medium;font-style:normal;font-variant:normal;font-weight:normal;font-stretch:normal;text-indent:0;text-align:start;text-decoration:none;line-height:normal;letter-spacing:normal;word-spacing:normal;text-transform:none;direction:ltr;block-progression:tb;writing-mode:lr-tb;text-anchor:start;baseline-shift:baseline;color:#000000;fill:#000000;fill-opacity:1;stroke:none;stroke-width:1px;marker:none;visibility:visible;display:inline;overflow:visible;enable-background:accumulate;font-family:Sans;-inkscape-font-specification:Sans"
       d="m 167.24631,102.10473 0,1 40.5625,0 0,-1 -40.5625,0 z"
       id="path3832"
       inkscape:connector-curvature="0" />
    <path
       style="font-size:medium;font-style:normal;font-variant:normal;font-weight:normal;font-stretch:normal;text-indent:0;text-align:start;text-decoration:none;line-height:normal;letter-spacing:normal;word-spacing:normal;text-transform:none;direction:ltr;block-progression:tb;writing-mode:lr-tb;text-anchor:start;baseline-shift:baseline;color:#000000;fill:#000000;fill-opacity:1;stroke:none;stroke-width:1px;marker:none;visibility:visible;display:inline;overflow:visible;enable-background:accumulate;font-family:Sans;-inkscape-font-specification:Sans"
       d="m 248.37131,102.10473 0,1 38.53125,0 0,-1 -38.53125,0 z"
       id="path3834"
       inkscape:connector-curvature="0" />
    <path
       style="font-size:medium;font-style:normal;font-variant:normal;font-weight:normal;font-stretch:normal;text-indent:0;text-align:start;text-decoration:none;line-height:normal;letter-spacing:normal;word-spacing:normal;text-transform:none;direction:ltr;block-progression:tb;writing-mode:lr-tb;text-anchor:start;baseline-shift:baseline;color:#000000;fill:#000000;fill-opacity:1;fill-rule:nonzero;stroke:none;stroke-width:1;marker:none;visibility:visible;display:inline;overflow:visible;enable-background:accumulate;font-family:Sans;-inkscape-font-specification:Sans"
       d="m 167.04273,187.89801 c -1.58025,0 -2.875,1.29474 -2.875,2.875 0,1.58025 1.29475,2.875 2.875,2.875 1.58026,0 2.875,-1.29475 2.875,-2.875 0,-1.58026 -1.29474,-2.875 -2.875,-2.875 z"
       id="path4109"
       inkscape:connector-curvature="0" />
    <path
       style="font-size:medium;font-style:normal;font-variant:normal;font-weight:normal;font-stretch:normal;text-indent:0;text-align:start;text-decoration:none;line-height:normal;letter-spacing:normal;word-spacing:normal;text-transform:none;direction:ltr;block-progression:tb;writing-mode:lr-tb;text-anchor:start;baseline-shift:baseline;color:#000000;fill:#000000;fill-opacity:1;fill-rule:nonzero;stroke:none;stroke-width:1;marker:none;visibility:visible;display:inline;overflow:visible;enable-background:accumulate;font-family:Sans;-inkscape-font-specification:Sans"
       d="m 167.04273,189.17579 c 0.88969,0 1.59722,0.70753 1.59722,1.59722 0,0.88969 -0.70753,1.59722 -1.59722,1.59722 -0.88969,0 -1.59722,-0.70753 -1.59722,-1.59722 0,-0.88969 0.70753,-1.59722 1.59722,-1.59722 z"
       id="path3836"
       inkscape:connector-curvature="0" />
    <path
       style="font-size:medium;font-style:normal;font-variant:normal;font-weight:normal;font-stretch:normal;text-indent:0;text-align:start;text-decoration:none;line-height:normal;letter-spacing:normal;word-spacing:normal;text-transform:none;direction:ltr;block-progression:tb;writing-mode:lr-tb;text-anchor:start;baseline-shift:baseline;color:#000000;fill:#000000;fill-opacity:1;fill-rule:nonzero;stroke:none;stroke-width:1;marker:none;visibility:visible;display:inline;overflow:visible;enable-background:accumulate;font-family:Sans;-inkscape-font-specification:Sans"
       d="m 167.04273,9.8980117 c -1.58025,0 -2.875,1.2947473 -2.875,2.8750003 0,1.580253 1.29475,2.875 2.875,2.875 1.58026,0 2.875,-1.294747 2.875,-2.875 0,-1.580253 -1.29474,-2.8750003 -2.875,-2.8750003 z"
       id="path4113"
       inkscape:connector-curvature="0" />
    <path
       style="font-size:medium;font-style:normal;font-variant:normal;font-weight:normal;font-stretch:normal;text-indent:0;text-align:start;text-decoration:none;line-height:normal;letter-spacing:normal;word-spacing:normal;text-transform:none;direction:ltr;block-progression:tb;writing-mode:lr-tb;text-anchor:start;baseline-shift:baseline;color:#000000;fill:#000000;fill-opacity:1;fill-rule:nonzero;stroke:none;stroke-width:1;marker:none;visibility:visible;display:inline;overflow:visible;enable-background:accumulate;font-family:Sans;-inkscape-font-specification:Sans"
       d="m 167.04273,11.17579 c 0.88969,0 1.59722,0.707531 1.59722,1.597222 0,0.889691 -0.70753,1.597222 -1.59722,1.597222 -0.88969,0 -1.59722,-0.707531 -1.59722,-1.597222 0,-0.889691 0.70753,-1.597222 1.59722,-1.597222 z"
       id="path3840"
       inkscape:connector-curvature="0" />
    <path
       style="font-size:medium;font-style:normal;font-variant:normal;font-weight:normal;font-stretch:normal;text-indent:0;text-align:start;text-decoration:none;line-height:normal;letter-spacing:normal;word-spacing:normal;text-transform:none;direction:ltr;block-progression:tb;writing-mode:lr-tb;text-anchor:start;baseline-shift:baseline;color:#000000;fill:#000000;fill-opacity:1;stroke:none;stroke-width:1px;marker:none;visibility:visible;display:inline;overflow:visible;enable-background:accumulate;font-family:Sans;-inkscape-font-specification:Sans"
       d="m 72.527564,190.19848 0,1 215.031246,0 0,-1 -215.031246,0 z"
       id="path3842"
       inkscape:connector-curvature="0" />
    <path
       style="font-size:medium;font-style:normal;font-variant:normal;font-weight:normal;font-stretch:normal;text-indent:0;text-align:start;text-decoration:none;line-height:normal;letter-spacing:normal;word-spacing:normal;text-transform:none;direction:ltr;block-progression:tb;writing-mode:lr-tb;text-anchor:start;baseline-shift:baseline;color:#000000;fill:#000000;fill-opacity:1;stroke:none;stroke-width:1px;marker:none;visibility:visible;display:inline;overflow:visible;enable-background:accumulate;font-family:Sans;-inkscape-font-specification:Sans"
       d="m 72.527564,12.198485 0,1 215.031246,0 0,-1 -215.031246,0 z"
       id="path3844"
       inkscape:connector-curvature="0" />
    <path
       style="font-size:medium;font-style:normal;font-variant:normal;font-weight:normal;font-stretch:normal;text-indent:0;text-align:start;text-decoration:none;line-height:normal;letter-spacing:normal;word-spacing:normal;text-transform:none;direction:ltr;block-progression:tb;writing-mode:lr-tb;text-anchor:start;baseline-shift:baseline;color:#000000;fill:#000000;fill-opacity:1;stroke:none;stroke-width:1px;marker:none;visibility:visible;display:inline;overflow:visible;enable-background:accumulate;font-family:Sans;-inkscape-font-specification:Sans"
       d="m 72.058814,12.198485 0,0.5 0,177.999995 0,0.5 1,0 0,-0.5 0,-177.999995 0,-0.5 -1,0 z"
       id="path3846"
       inkscape:connector-curvature="0" />
    <path
       style="font-size:medium;font-style:normal;font-variant:normal;font-weight:normal;font-stretch:normal;text-indent:0;text-align:start;text-decoration:none;line-height:normal;letter-spacing:normal;word-spacing:normal;text-transform:none;direction:ltr;block-progression:tb;writing-mode:lr-tb;text-anchor:start;baseline-shift:baseline;color:#000000;fill:#000000;fill-opacity:1;stroke:none;stroke-width:1;marker:none;visibility:visible;display:inline;overflow:visible;enable-background:accumulate;font-family:Sans;-inkscape-font-specification:Sans"
       d="m 71.777564,80.198485 c -11.8682,0 -21.5,9.6318 -21.5,21.499995 0,11.8682 9.6318,21.5 21.5,21.5 11.8682,0 21.5,-9.6318 21.5,-21.5 0,-11.868195 -9.6318,-21.499995 -21.5,-21.499995 z m 0,1 c 11.32776,0 20.5,9.17224 20.5,20.499995 0,11.32776 -9.17224,20.5 -20.5,20.5 -11.32776,0 -20.5,-9.17224 -20.5,-20.5 0,-11.327755 9.17224,-20.499995 20.5,-20.499995 z"
       id="path4117"
       inkscape:connector-curvature="0" />
    <path
       style="font-size:medium;font-style:normal;font-variant:normal;font-weight:normal;font-stretch:normal;text-indent:0;text-align:start;text-decoration:none;line-height:normal;letter-spacing:normal;word-spacing:normal;text-transform:none;direction:ltr;block-progression:tb;writing-mode:lr-tb;text-anchor:start;baseline-shift:baseline;color:#000000;fill:#000000;fill-opacity:1;stroke:none;stroke-width:1px;marker:none;visibility:visible;display:inline;overflow:visible;enable-background:accumulate;font-family:Sans;-inkscape-font-specification:Sans"
       d="m 35.777564,76.448485 0,51.749995 1,0 0,-51.749995 -1,0 z"
       id="path3850"
       inkscape:connector-curvature="0" />
    <path
       style="font-size:12px;font-style:normal;font-weight:normal;line-height:125%;letter-spacing:0px;word-spacing:0px;fill:#000000;fill-opacity:1;stroke:none;font-family:Sans"
       d="m 7.8296636,92.347442 11.7761304,0 0,1.678761 -9.6981604,0 0,6.154637 9.3114504,0.0221 0,1.67876 -9.3114504,0 0,7.41174 9.9227104,0 0,1.67876 -12.0006804,0 0,-18.624755"
       id="path3861"
       inkscape:connector-curvature="0" />
    <path
       style="font-size:12px;font-style:normal;font-weight:normal;line-height:125%;letter-spacing:0px;word-spacing:0px;fill:#000000;fill-opacity:1;stroke:none;font-family:Sans"
       d="m 27.487934,76.590095 0,3.263672 3.26367,0 0,0.996094 -3.26367,0 0,3.263672 -0.98437,0 0,-3.263672 -3.26368,0 0,-0.996094 3.26368,0 0,-3.263672 0.98437,0"
       id="path3863"
       inkscape:connector-curvature="0" />
    <path
       style="font-size:16px;font-style:normal;font-weight:normal;line-height:125%;letter-spacing:0px;word-spacing:0px;fill:#000000;fill-opacity:1;stroke:none;font-family:Sans"
       d="m 136.14415,43.667235 c -1.12808,1.2e-5 -2.25022,0.270558 -3.34861,0.86573 -1.09245,0.595207 -1.91774,1.448909 -2.52927,2.561118 -0.61154,1.112232 -0.92621,2.272552 -0.92621,3.46292 0,1.917834 0.66497,3.559119 1.99492,4.905803 1.33587,1.340681 2.93299,2.020036 4.80917,2.020036 1.88804,0 3.51484,-0.679355 4.8448,-2.020036 1.33587,-1.346684 1.99491,-2.987969 1.99492,-4.905803 -1e-5,-1.202395 -0.31468,-2.356702 -0.92621,-3.46292 -0.60561,-1.106195 -1.46651,-1.965911 -2.5649,-2.561118 -1.09246,-0.595172 -2.20273,-0.865718 -3.34861,-0.86573 z m 0,0.721442 c 1.02715,2.3e-5 2.05428,0.294602 3.028,0.829657 0.97369,0.529065 1.70399,1.286579 2.24428,2.272542 0.54028,0.97996 0.81933,1.98999 0.81935,3.066127 -2e-5,1.707415 -0.59374,3.162327 -1.78118,4.364722 -1.18153,1.202406 -2.62427,1.803604 -4.31045,1.803604 -1.68618,0 -3.12299,-0.601198 -4.31044,-1.803604 -1.18152,-1.202395 -1.74556,-2.657307 -1.74556,-4.364722 0,-1.076137 0.24343,-2.086167 0.78372,-3.066127 0.54029,-0.985963 1.30619,-1.743477 2.27991,-2.272542 0.9737,-0.535055 1.96523,-0.829634 2.99237,-0.829657 z"
       id="path4045"
       inkscape:connector-curvature="0" />
    <path
       style="font-size:16px;font-style:normal;font-weight:normal;line-height:125%;letter-spacing:0px;word-spacing:0px;fill:#000000;fill-opacity:1;stroke:none;font-family:Sans"
       d="m 133.45979,53.569881 1.93258,0 0,-5.753502 -2.10179,0.387777 0,-1.370739 2.28881,-0.42385 1.43384,0 0,7.160314 1.94149,0 0,1.280554 -5.49493,0 0,-1.280554"
       id="path3905"
       inkscape:connector-curvature="0" />
    <path
       style="font-size:16px;font-style:normal;font-weight:normal;line-height:125%;letter-spacing:0px;word-spacing:0px;fill:#000000;fill-opacity:1;stroke:none;font-family:Sans"
       d="m 257.18784,43.667235 c -1.12808,1.2e-5 -2.25022,0.270558 -3.34861,0.86573 -1.09245,0.595207 -1.91774,1.448909 -2.52927,2.561118 -0.61154,1.112232 -0.92621,2.272552 -0.92621,3.46292 0,1.917834 0.66497,3.559119 1.99492,4.905803 1.33587,1.340681 2.93299,2.020036 4.80917,2.020036 1.88804,0 3.51484,-0.679355 4.8448,-2.020036 1.33587,-1.346684 1.99491,-2.987969 1.99492,-4.905803 -10e-6,-1.202395 -0.31468,-2.356702 -0.92621,-3.46292 -0.60561,-1.106195 -1.46651,-1.965911 -2.5649,-2.561118 -1.09246,-0.595172 -2.20273,-0.865718 -3.34861,-0.86573 z m 0,0.721442 c 1.02715,2.3e-5 2.05428,0.294602 3.028,0.829657 0.97369,0.529065 1.70399,1.286579 2.24428,2.272542 0.54029,0.97996 0.81933,1.98999 0.81935,3.066127 -2e-5,1.707415 -0.59374,3.162327 -1.78118,4.364722 -1.18153,1.202406 -2.62427,1.803604 -4.31045,1.803604 -1.68618,0 -3.12299,-0.601198 -4.31044,-1.803604 -1.18152,-1.202395 -1.74556,-2.657307 -1.74556,-4.364722 0,-1.076137 0.24343,-2.086167 0.78372,-3.066127 0.54029,-0.985963 1.30619,-1.743477 2.27991,-2.272542 0.9737,-0.535055 1.96523,-0.829634 2.99237,-0.829657 z"
       id="path4039"
       inkscape:connector-curvature="0" />
    <path
       style="font-size:16px;font-style:normal;font-weight:normal;line-height:125%;letter-spacing:0px;word-spacing:0px;fill:#000000;fill-opacity:1;stroke:none;font-family:Sans"
       d="m 256.38262,53.569881 3.88296,0 0,1.280554 -6.02038,0 0,-1.163322 c 0.48685,-0.462923 1.11918,-1.055106 1.89697,-1.776547 0.77776,-0.727456 1.26462,-1.19338 1.46056,-1.397796 0.3681,-0.378751 0.62043,-0.694385 0.757,-0.94689 0.14248,-0.258507 0.21373,-0.50801 0.21374,-0.748498 -10e-6,-0.378751 -0.14251,-0.685358 -0.42748,-0.919844 -0.27907,-0.234451 -0.65014,-0.351683 -1.11324,-0.351694 -0.3503,1.1e-5 -0.72138,0.05714 -1.11324,0.171334 -0.39186,0.114276 -0.92918,0.345703 -1.61196,0.694396 l 0,-1.542085 c 0.57591,-0.216421 1.07761,-0.369724 1.50509,-0.459922 0.43342,-0.09615 0.83121,-0.144276 1.19339,-0.144288 0.96777,1.2e-5 1.74258,0.228472 2.32443,0.68537 0.58779,0.450918 0.88168,1.052116 0.88169,1.803604 -1e-5,0.348704 -0.0712,0.682368 -0.21374,1.001003 -0.14251,0.312632 -0.39781,0.679367 -0.76591,1.100193 -0.101,0.108274 -0.41562,0.414834 -0.94402,0.919843 -0.52843,0.499007 -1.16371,1.097192 -1.90586,1.794589"
       id="path3907"
       inkscape:connector-curvature="0" />
    <path
       style="font-size:16px;font-style:normal;font-weight:normal;line-height:125%;letter-spacing:0px;word-spacing:0px;fill:#000000;fill-opacity:1;stroke:none;font-family:Sans"
       d="m 136.14415,126.32037 c -1.12808,2e-5 -2.25022,0.27056 -3.34861,0.86573 -1.09245,0.5952 -1.91774,1.44891 -2.52927,2.56112 -0.61154,1.11223 -0.92621,2.27255 -0.92621,3.46292 0,1.91783 0.66497,3.55911 1.99492,4.9058 1.33587,1.34068 2.93299,2.02004 4.80917,2.02004 1.88804,0 3.51484,-0.67936 4.8448,-2.02004 1.33587,-1.34669 1.99491,-2.98797 1.99492,-4.9058 -1e-5,-1.20239 -0.31468,-2.3567 -0.92621,-3.46292 -0.60561,-1.1062 -1.46651,-1.96592 -2.5649,-2.56112 -1.09246,-0.59517 -2.20273,-0.86571 -3.34861,-0.86573 z m 0,0.72144 c 1.02715,2e-5 2.05428,0.29461 3.028,0.82966 0.97369,0.52907 1.70399,1.28658 2.24428,2.27254 0.54028,0.97998 0.81933,1.98999 0.81935,3.06613 -2e-5,1.70742 -0.59374,3.16233 -1.78118,4.36472 -1.18153,1.20241 -2.62427,1.80361 -4.31045,1.80361 -1.68618,0 -3.12299,-0.6012 -4.31044,-1.80361 -1.18152,-1.20239 -1.74556,-2.6573 -1.74556,-4.36472 0,-1.07614 0.24343,-2.08615 0.78372,-3.06613 0.54029,-0.98596 1.30619,-1.74347 2.27991,-2.27254 0.9737,-0.53505 1.96523,-0.82964 2.99237,-0.82966 z"
       id="path4033"
       inkscape:connector-curvature="0" />
    <path
       style="font-size:16px;font-style:normal;font-weight:normal;line-height:125%;letter-spacing:0px;word-spacing:0px;fill:#000000;fill-opacity:1;stroke:none;font-family:Sans"
       d="m 138.56286,132.94947 c 0.0772,0.018 0.29091,0.22245 0.64122,0.61323 0.35029,0.38478 0.52544,0.85671 0.52545,1.41583 -1e-5,0.8477 -0.32062,1.50601 -0.96183,1.97495 -0.64124,0.46893 -1.54073,0.70341 -2.69849,0.7034 -0.37999,1e-5 -0.77185,-0.033 -1.17557,-0.0992 -0.40374,-0.0721 -0.86685,-0.18937 -1.38932,-0.35169 l 0,-1.51503 c 0.54028,0.28858 0.99448,0.47495 1.3626,0.55911 0.37404,0.0841 0.76293,0.12626 1.16667,0.12626 0.69465,0 1.21119,-0.11723 1.54962,-0.35171 0.34435,-0.24047 0.51653,-0.58917 0.51654,-1.04609 -1e-5,-0.42685 -0.16031,-0.75751 -0.48092,-0.99199 -0.31467,-0.23446 -0.76591,-0.35169 -1.35369,-0.35169 l -1.24683,0 0,-1.26252 1.29136,0 c 0.53435,0 0.93214,-0.0901 1.19339,-0.27055 0.26123,-0.18035 0.39184,-0.44488 0.39185,-0.79358 -1e-5,-0.36071 -0.13656,-0.63426 -0.40966,-0.82065 -0.27312,-0.19236 -0.67982,-0.28856 -1.22011,-0.28857 -0.30875,1e-5 -0.6442,0.033 -1.00637,0.0991 -0.35623,0.0601 -0.852,0.18639 -1.48728,0.37876 l 0,-1.36172 c 0.56404,-0.14428 1.04792,-0.24648 1.45166,-0.30661 0.40373,-0.0601 0.78668,-0.0902 1.14886,-0.0902 0.95589,1e-5 1.71883,0.20743 2.28882,0.62225 0.5759,0.40882 0.86385,0.95893 0.86386,1.6503 -1e-5,0.48698 -0.15438,0.9018 -0.4631,1.24448 -0.30875,0.34269 -0.475,0.51403 -0.49873,0.51402"
       id="path3909"
       inkscape:connector-curvature="0" />
    <path
       style="font-size:16px;font-style:normal;font-weight:normal;line-height:125%;letter-spacing:0px;word-spacing:0px;fill:#000000;fill-opacity:1;stroke:none;font-family:Sans"
       d="m 257.18784,126.32037 c -1.12808,2e-5 -2.25022,0.27056 -3.34861,0.86573 -1.09245,0.5952 -1.91774,1.44891 -2.52927,2.56112 -0.61154,1.11223 -0.92621,2.27255 -0.92621,3.46292 0,1.91783 0.66497,3.55911 1.99492,4.9058 1.33587,1.34068 2.93299,2.02004 4.80917,2.02004 1.88804,0 3.51484,-0.67936 4.8448,-2.02004 1.33587,-1.34669 1.99491,-2.98797 1.99492,-4.9058 -10e-6,-1.20239 -0.31468,-2.3567 -0.92621,-3.46292 -0.60561,-1.1062 -1.46651,-1.96592 -2.5649,-2.56112 -1.09246,-0.59517 -2.20273,-0.86571 -3.34861,-0.86573 z m 0,0.72144 c 1.02715,2e-5 2.05428,0.29461 3.028,0.82966 0.97369,0.52907 1.70399,1.28658 2.24428,2.27254 0.54029,0.97998 0.81933,1.98999 0.81935,3.06613 -2e-5,1.70742 -0.59374,3.16233 -1.78118,4.36472 -1.18153,1.20241 -2.62427,1.80361 -4.31045,1.80361 -1.68618,0 -3.12299,-0.6012 -4.31044,-1.80361 -1.18152,-1.20239 -1.74556,-2.6573 -1.74556,-4.36472 0,-1.07614 0.24343,-2.08615 0.78372,-3.06613 0.54029,-0.98596 1.30619,-1.74347 2.27991,-2.27254 0.9737,-0.53505 1.96523,-0.82964 2.99237,-0.82966 z"
       id="path4027"
       inkscape:connector-curvature="0" />
    <path
       style="font-size:16px;font-style:normal;font-weight:normal;line-height:125%;letter-spacing:0px;word-spacing:0px;fill:#000000;fill-opacity:1;stroke:none;font-family:Sans"
       d="m 257.15222,129.06185 -3.74047,5.26652 0,1.26253 3.95421,0 0,1.91182 1.63868,0 0,-1.91182 1.24683,0 0,-1.26253 -1.24683,0 0,-5.26652 -1.85242,0 z m 0.21374,1.83968 0,3.42684 -2.38677,0 2.38677,-3.42684 z"
       id="path3911"
       inkscape:connector-curvature="0" />
    <path
       style="font-size:12px;font-style:normal;font-weight:normal;line-height:125%;letter-spacing:0px;word-spacing:0px;fill:#000000;fill-opacity:1;stroke:none;font-family:Sans"
       d="m 223.96506,117.91723 0,8.75 1.1875,0 0,-3.71875 1.28125,0 c 0.46875,1e-5 0.82422,0.1211 1.09375,0.3125 0.27343,0.19141 0.55468,0.57032 0.84375,1.15625 l 1.125,2.25 1.28125,0 -1.21875,-2.40625 c -0.2422,-0.49218 -0.47657,-0.87499 -0.71875,-1.15625 -0.23828,-0.28124 -0.4961,-0.44531 -0.75,-0.53125 0.48828,-0.14062 0.87109,-0.41796 1.125,-0.78125 0.25781,-0.36327 0.375,-0.82421 0.375,-1.375 0,-0.84374 -0.22657,-1.45702 -0.71875,-1.875 -0.49219,-0.41796 -1.25001,-0.62499 -2.25,-0.625 l -2.65625,0 z m 1.1875,0.96875 1.46875,0 c 0.57031,1e-5 0.99218,0.14454 1.28125,0.40625 0.29297,0.25782 0.4375,0.61329 0.4375,1.125 0,0.51173 -0.14453,0.92188 -0.4375,1.1875 -0.28907,0.26173 -0.71094,0.37501 -1.28125,0.375 l -1.46875,0 0,-3.09375 z"
       id="path4140"
       inkscape:connector-curvature="0" />
    <path
       inkscape:connector-curvature="0"
       style="font-size:medium;font-style:normal;font-variant:normal;font-weight:normal;font-stretch:normal;text-indent:0;text-align:start;text-decoration:none;line-height:normal;letter-spacing:normal;word-spacing:normal;text-transform:none;direction:ltr;block-progression:tb;writing-mode:lr-tb;text-anchor:start;baseline-shift:baseline;color:#000000;fill:#000000;fill-opacity:1;stroke:none;stroke-width:1px;marker:none;visibility:visible;display:inline;overflow:visible;enable-background:accumulate;font-family:Sans;-inkscape-font-specification:Sans"
       d="m 206.77756,84.448486 0,1 41.875,0 0,-1 z"
       id="path3050-8"
       sodipodi:nodetypes="ccccc" />
    <path
       inkscape:connector-curvature="0"
       style="font-size:12px;font-style:normal;font-weight:normal;line-height:125%;letter-spacing:0px;word-spacing:0px;fill:#000000;fill-opacity:1;stroke:none;font-family:Sans"
       d="m 210.33501,73.341421 0,3.263672 3.26367,0 0,0.996094 -3.26367,0 0,3.263672 -0.98437,0 0,-3.263672 -3.26368,0 0,-0.996094 3.26368,0 0,-3.263672 0.98437,0"
       id="path3863-6" />
    <path
       style="font-size:12px;font-style:normal;font-weight:normal;line-height:125%;letter-spacing:0px;word-spacing:0px;fill:#000000;fill-opacity:1;stroke:none;font-family:Sans"
       d="m 222.82053,66.536428 1.18945,0 0,5.314453 c 0,0.937503 0.16992,1.613283 0.50977,2.027344 0.33984,0.410157 0.89062,0.615235 1.65234,0.615234 0.75781,10e-7 1.30664,-0.205077 1.64649,-0.615234 0.33983,-0.414061 0.50975,-1.089841 0.50976,-2.027344 l 0,-5.314453 1.18945,0 0,5.460938 c 0,1.140627 -0.28321,2.001954 -0.84961,2.583984 -0.5625,0.582031 -1.39453,0.873047 -2.49609,0.873047 -1.10547,0 -1.94141,-0.291016 -2.50781,-0.873047 -0.5625,-0.58203 -0.84375,-1.443357 -0.84375,-2.583984 l 0,-5.460938"
       id="path4190"
       inkscape:connector-curvature="0" />
    <path
       style="font-size:7.80010986px;font-style:normal;font-weight:normal;line-height:125%;letter-spacing:0px;word-spacing:0px;baseline-shift:sub;fill:#000000;fill-opacity:1;stroke:none;font-family:Sans"
       d="m 231.34006,72.010985 0,5.6875 2.03125,0 c 0.63731,0 1.12343,-0.160738 1.46875,-0.4375 0.34531,-0.276761 0.53124,-0.648429 0.53125,-1.15625 -1e-5,-0.385941 -0.10176,-0.712299 -0.3125,-0.96875 -0.20821,-0.258986 -0.49668,-0.45 -0.875,-0.53125 0.31485,-0.05078 0.52499,-0.169329 0.6875,-0.375 0.16255,-0.205663 0.25,-0.464639 0.25,-0.8125 0,-0.449415 -0.15137,-0.818742 -0.46875,-1.0625 -0.31739,-0.243748 -0.75722,-0.343744 -1.34375,-0.34375 l -1.96875,0 z m 0.75,0.625 1.15625,0 c 0.37579,5e-6 0.66093,0.07657 0.84375,0.21875 0.18533,0.142194 0.28124,0.338086 0.28125,0.625 -1e-5,0.289461 -0.0959,0.514064 -0.28125,0.65625 -0.18282,0.139655 -0.46796,0.218754 -0.84375,0.21875 l -1.15625,0 0,-1.71875 z m 0,2.34375 1.25,0 c 0.41387,3e-6 0.7082,0.07988 0.90625,0.25 0.20059,0.167583 0.31249,0.425778 0.3125,0.78125 -1e-5,0.352936 -0.11191,0.608593 -0.3125,0.78125 -0.19805,0.17012 -0.49238,0.25 -0.90625,0.25 l -1.25,0 0,-2.0625 z"
       id="path4192"
       inkscape:connector-curvature="0" />
  </g>
</svg>
