<?xml version="1.0" encoding="UTF-8" standalone="no"?>
<!-- Created with Inkscape (http://www.inkscape.org/) -->

<svg
   xmlns:dc="http://purl.org/dc/elements/1.1/"
   xmlns:cc="http://creativecommons.org/ns#"
   xmlns:rdf="http://www.w3.org/1999/02/22-rdf-syntax-ns#"
   xmlns:svg="http://www.w3.org/2000/svg"
   xmlns="http://www.w3.org/2000/svg"
   xmlns:sodipodi="http://sodipodi.sourceforge.net/DTD/sodipodi-0.dtd"
   xmlns:inkscape="http://www.inkscape.org/namespaces/inkscape"
   width="100"
   height="180"
   id="svg2"
   version="1.1"
   inkscape:version="0.48.0 r9654"
   sodipodi:docname="2011-(03)mar-09, 03.svg">
  <defs
     id="defs4" />
  <sodipodi:namedview
     id="base"
     pagecolor="#ffffff"
     bordercolor="#666666"
     borderopacity="1.0"
     inkscape:pageopacity="0.0"
     inkscape:pageshadow="2"
     inkscape:zoom="2"
     inkscape:cx="-53.526356"
     inkscape:cy="164.88507"
     inkscape:document-units="px"
     inkscape:current-layer="layer1"
     showgrid="false"
     inkscape:window-width="1589"
     inkscape:window-height="1117"
     inkscape:window-x="1600"
     inkscape:window-y="27"
     inkscape:window-maximized="1"
     showguides="true"
     inkscape:guide-bbox="true" />
  <metadata
     id="metadata7">
    <rdf:RDF>
      <cc:Work
         rdf:about="">
        <dc:format>image/svg+xml</dc:format>
        <dc:type
           rdf:resource="http://purl.org/dc/dcmitype/StillImage" />
        <dc:title />
      </cc:Work>
    </rdf:RDF>
  </metadata>
  <g
     inkscape:label="Layer 1"
     inkscape:groupmode="layer"
     id="layer1">
    <rect
       style="fill:#0000ff;fill-rule:evenodd;stroke:#000000;stroke-width:1px;stroke-linecap:butt;stroke-linejoin:miter;stroke-opacity:1"
       id="rect3007"
       width="58"
       height="0"
       x="-310.5"
       y="119.5" />
    <path
       style="font-size:12px;font-style:normal;font-weight:normal;line-height:125%;letter-spacing:0px;word-spacing:0px;fill:#000000;fill-opacity:1;stroke:none;font-family:Sans"
       d="m 55.99205,55.54642 1.59375,0 3.87891,7.318359 0,-7.318359 1.14844,0 0,8.748047 -1.59375,0 -3.87891,-7.318359 0,7.318359 -1.14844,0 0,-8.748047"
       id="path3056"
       inkscape:connector-curvature="0" />
    <path
       style="font-size:12px;font-style:normal;font-weight:normal;line-height:125%;letter-spacing:0px;word-spacing:0px;fill:#000000;fill-opacity:1;stroke:none;font-family:Sans"
       d="m 56.78125,85.531251 0,8.75 1.1875,0 0,-3.5 1.5,0 c 0.98047,3e-6 1.71874,-0.21484 2.21875,-0.65625 0.5039,-0.441402 0.74999,-1.105463 0.75,-1.96875 -1e-5,-0.855461 -0.2461,-1.496086 -0.75,-1.9375 -0.50001,-0.445304 -1.23828,-0.687491 -2.21875,-0.6875 l -2.6875,0 z m 1.1875,1 1.5,0 c 0.55078,8e-6 0.98046,0.121101 1.28125,0.40625 0.30077,0.285163 0.43749,0.695319 0.4375,1.21875 -1e-5,0.52735 -0.13673,0.933599 -0.4375,1.21875 -0.30079,0.285161 -0.73047,0.437504 -1.28125,0.4375 l -1.5,0 0,-3.28125 z"
       id="path3058"
       inkscape:connector-curvature="0" />
    <path
       style="font-size:12px;font-style:normal;font-weight:normal;line-height:125%;letter-spacing:0px;word-spacing:0px;fill:#000000;fill-opacity:1;stroke:none;font-family:Sans"
       d="m 68.3983,22.29642 1.1836,0 0,8.748047 -1.1836,0 0,-8.748047"
       id="path3062"
       inkscape:connector-curvature="0" />
    <path
       style="font-size:26.00036621px;font-style:normal;font-weight:normal;line-height:125%;letter-spacing:0px;word-spacing:0px;baseline-shift:sub;fill:#000000;fill-opacity:1;stroke:none;font-family:Sans"
       d="m 75.78324,28.196151 0,0.811242 c -0.25899,-0.24121 -0.53576,-0.421486 -0.83029,-0.540828 -0.292,-0.119333 -0.60304,-0.179001 -0.93312,-0.179007 -0.65001,6e-6 -1.14767,0.199325 -1.49299,0.597958 -0.34531,0.396104 -0.51797,0.969939 -0.51797,1.721509 0,0.749036 0.17266,1.322871 0.51797,1.721508 0.34532,0.3961 0.84298,0.59415 1.49299,0.594149 0.33008,10e-7 0.64112,-0.05967 0.93312,-0.179006 0.29453,-0.119337 0.5713,-0.299613 0.83029,-0.540828 l 0,0.803625 c -0.26915,0.182815 -0.5548,0.319926 -0.85695,0.411333 -0.29961,0.09141 -0.617,0.137112 -0.95216,0.137112 -0.86076,0 -1.53869,-0.262797 -2.03382,-0.78839 -0.49512,-0.528131 -0.74268,-1.247965 -0.74268,-2.159503 0,-0.914072 0.24756,-1.633906 0.74268,-2.159503 0.49513,-0.528127 1.17306,-0.792193 2.03382,-0.792199 0.34024,6e-6 0.66016,0.04571 0.95978,0.137111 0.30215,0.08887 0.58526,0.223446 0.84933,0.403717"
       id="path3064"
       inkscape:connector-curvature="0" />
    <path
       style="font-size:12px;font-style:normal;font-weight:normal;line-height:125%;letter-spacing:0px;word-spacing:0px;fill:#000000;fill-opacity:1;stroke:none;font-family:Sans"
       d="m 24.21166,72.046421 1.1836,0 0,8.748047 -1.1836,0 0,-8.748047"
       id="path3066"
       inkscape:connector-curvature="0" />
    <path
       style="font-size:26.00036621px;font-style:normal;font-weight:normal;line-height:125%;letter-spacing:0px;word-spacing:0px;baseline-shift:sub;fill:#000000;fill-opacity:1;stroke:none;font-family:Sans"
       d="m 27.34375,77.500001 0,5.6875 2.03125,0 c 0.63731,0 1.12343,-0.129488 1.46875,-0.40625 0.34531,-0.276761 0.53124,-0.679679 0.53125,-1.1875 -10e-6,-0.385941 -0.10176,-0.712299 -0.3125,-0.96875 -0.20821,-0.258986 -0.49668,-0.41875 -0.875,-0.5 0.31485,-0.05078 0.55624,-0.169329 0.71875,-0.375 0.16245,-0.205663 0.21875,-0.495889 0.21875,-0.84375 0,-0.449415 -0.15137,-0.787492 -0.46875,-1.03125 -0.31739,-0.243748 -0.75722,-0.374994 -1.34375,-0.375 l -1.96875,0 z m 0.75,0.625 1.15625,0 c 0.37578,5e-6 0.66094,0.07657 0.84375,0.21875 0.18533,0.142194 0.28125,0.369336 0.28125,0.65625 0,0.289461 -0.0959,0.514064 -0.28125,0.65625 -0.18281,0.139655 -0.46797,0.187504 -0.84375,0.1875 l -1.15625,0 0,-1.71875 z m 0,2.34375 1.25,0 c 0.41387,3e-6 0.7082,0.07988 0.90625,0.25 0.20059,0.167583 0.3125,0.457028 0.3125,0.8125 0,0.352936 -0.11191,0.608593 -0.3125,0.78125 -0.19805,0.17012 -0.49238,0.25 -0.90625,0.25 l -1.25,0 0,-2.09375 z"
       id="path3068"
       inkscape:connector-curvature="0" />
    <path
       style="font-size:12px;font-style:normal;font-weight:normal;line-height:125%;letter-spacing:0px;word-spacing:0px;fill:#000000;fill-opacity:1;stroke:none;font-family:Sans"
       d="m 69.16838,146.29642 1.18359,0 0,8.74805 -1.18359,0 0,-8.74805"
       id="path3070"
       inkscape:connector-curvature="0" />
    <path
       style="font-size:26.00036621px;font-style:normal;font-weight:normal;line-height:125%;letter-spacing:0px;word-spacing:0px;baseline-shift:sub;fill:#000000;fill-opacity:1;stroke:none;font-family:Sans"
       d="m 72.29524,151.75816 3.59537,0 0,0.64747 -2.82602,0 0,1.68342 2.70795,0 0,0.64747 -2.70795,0 0,2.06048 2.89457,0 0,0.64747 -3.66392,0 0,-5.68631"
       id="path3072"
       inkscape:connector-curvature="0" />
    <path
       style="font-size:12px;font-style:normal;font-weight:normal;line-height:125%;letter-spacing:0px;word-spacing:0px;fill:#000000;fill-opacity:1;stroke:none;font-family:Sans"
       d="m 35.46875,97.384786 0,8.042924 2.872475,0 c 0.901231,0 1.608576,-0.18312 2.096906,-0.57449 0.488312,-0.39137 0.718119,-0.94792 0.718119,-1.66603 0,-0.54577 -0.132851,-0.98741 -0.430871,-1.35007 -0.294427,-0.36623 -0.700176,-0.63194 -1.235164,-0.74684 0.445229,-0.0718 0.775568,-0.2262 1.005366,-0.51705 0.229789,-0.29083 0.344688,-0.685794 0.344697,-1.177711 -9e-6,-0.635529 -0.24058,-1.148983 -0.689394,-1.493687 -0.448832,-0.344689 -1.06641,-0.517037 -1.895833,-0.517046 l -2.786301,0 z m 1.09154,0.919192 1.608586,0 c 0.531403,8e-6 0.919192,0.08618 1.177715,0.287248 0.262107,0.20108 0.402137,0.51346 0.402146,0.919192 -9e-6,0.409332 -0.140039,0.718122 -0.402146,0.919192 -0.258523,0.19749 -0.646312,0.28725 -1.177715,0.28725 l -1.608586,0 0,-2.412882 z m 0,3.303342 1.723485,0 c 0.585259,1e-5 1.041261,0.10414 1.321339,0.3447 0.283644,0.23698 0.402137,0.61759 0.402146,1.12027 -9e-6,0.49909 -0.118502,0.87611 -0.402146,1.12026 -0.280078,0.24057 -0.73608,0.3447 -1.321339,0.3447 l -1.723485,0 0,-2.92993 z"
       id="path3074"
       inkscape:connector-curvature="0" />
    <path
       style="font-size:12px;font-style:normal;font-weight:normal;line-height:125%;letter-spacing:0px;word-spacing:0px;fill:#000000;fill-opacity:1;stroke:none;font-family:Sans"
       d="m 82.81142,67.982915 0,1.159592 c -0.3702,-0.344785 -0.7658,-0.602473 -1.18681,-0.773061 -0.41739,-0.170574 -0.86199,-0.255865 -1.3338,-0.255873 -0.92913,8e-6 -1.6405,0.284915 -2.13408,0.854723 -0.49361,0.566191 -0.74041,1.386434 -0.74041,2.46073 0,1.070675 0.2468,1.890917 0.74041,2.46073 0.49358,0.566186 1.20495,0.849279 2.13408,0.849279 0.47181,0 0.91641,-0.08529 1.3338,-0.255873 0.42101,-0.170581 0.81661,-0.428267 1.18681,-0.773061 l 0,1.148704 c -0.38472,0.261316 -0.79303,0.457303 -1.22492,0.587961 -0.42827,0.130658 -0.88195,0.195988 -1.36102,0.195988 -1.23037,0 -2.19942,-0.375643 -2.90715,-1.126928 -0.707733,-0.754912 -1.0616,-1.783845 -1.0616,-3.0868 0,-1.306577 0.353867,-2.335509 1.0616,-3.086801 0.70773,-0.754906 1.67678,-1.132363 2.90715,-1.132371 0.48633,8e-6 0.94364,0.06534 1.37191,0.195987 0.43189,0.127037 0.83656,0.319395 1.21403,0.577074"
       id="path3076"
       inkscape:connector-curvature="0" />
    <path
       style="font-size:12px;font-style:normal;font-weight:normal;line-height:125%;letter-spacing:0px;word-spacing:0px;fill:#000000;fill-opacity:1;stroke:none;font-family:Sans"
       d="m 77.02538,127.68082 5.36359,0 0,0.9659 -4.21588,0 0,2.51135 4.03974,0 0,0.9659 -4.03974,0 0,3.07383 4.31815,0 0,0.96591 -5.46586,0 0,-8.48289"
       id="path3078"
       inkscape:connector-curvature="0" />
    <path
       style="font-size:medium;font-style:normal;font-variant:normal;font-weight:normal;font-stretch:normal;text-indent:0;text-align:start;text-decoration:none;line-height:normal;letter-spacing:normal;word-spacing:normal;text-transform:none;direction:ltr;block-progression:tb;writing-mode:lr-tb;text-anchor:start;baseline-shift:baseline;color:#000000;fill:#000000;fill-opacity:1;stroke:none;stroke-width:1;marker:none;visibility:visible;display:inline;overflow:visible;enable-background:accumulate;font-family:Sans;-inkscape-font-specification:Sans"
       d="M 47.25 48 L 47.25 48.5 L 47.25 71 L 47.25 71.5 L 47.75 71.5 L 70.25 71.5 L 70.75 71.5 L 70.75 71 L 70.75 48.5 L 70.75 48 L 70.25 48 L 47.75 48 L 47.25 48 z M 48.25 49 L 69.75 49 L 69.75 70.5 L 48.25 70.5 L 48.25 49 z "
       id="path4658" />
    <path
       style="font-size:medium;font-style:normal;font-variant:normal;font-weight:normal;font-stretch:normal;text-indent:0;text-align:start;text-decoration:none;line-height:normal;letter-spacing:normal;word-spacing:normal;text-transform:none;direction:ltr;block-progression:tb;writing-mode:lr-tb;text-anchor:start;baseline-shift:baseline;color:#000000;fill:#000000;fill-opacity:1;stroke:none;stroke-width:1;marker:none;visibility:visible;display:inline;overflow:visible;enable-background:accumulate;font-family:Sans;-inkscape-font-specification:Sans"
       d="M 47.25 78 L 47.25 78.5 L 47.25 101 L 47.25 101.5 L 47.75 101.5 L 70.25 101.5 L 70.75 101.5 L 70.75 101 L 70.75 78.5 L 70.75 78 L 70.25 78 L 47.75 78 L 47.25 78 z M 48.25 79 L 69.75 79 L 69.75 100.5 L 48.25 100.5 L 48.25 79 z "
       id="path4654" />
    <path
       style="font-size:medium;font-style:normal;font-variant:normal;font-weight:normal;font-stretch:normal;text-indent:0;text-align:start;text-decoration:none;line-height:normal;letter-spacing:normal;word-spacing:normal;text-transform:none;direction:ltr;block-progression:tb;writing-mode:lr-tb;text-anchor:start;baseline-shift:baseline;color:#000000;fill:#000000;fill-opacity:1;stroke:none;stroke-width:1;marker:none;visibility:visible;display:inline;overflow:visible;enable-background:accumulate;font-family:Sans;-inkscape-font-specification:Sans"
       d="M 47.25 107.65625 L 47.25 108.15625 L 47.25 130.65625 L 47.25 131.15625 L 47.75 131.15625 L 70.25 131.15625 L 70.75 131.15625 L 70.75 130.65625 L 70.75 108.15625 L 70.75 107.65625 L 70.25 107.65625 L 47.75 107.65625 L 47.25 107.65625 z M 48.25 108.65625 L 69.75 108.65625 L 69.75 130.15625 L 48.25 130.15625 L 48.25 108.65625 z "
       id="path4650" />
    <path
       style="font-size:medium;font-style:normal;font-variant:normal;font-weight:normal;font-stretch:normal;text-indent:0;text-align:start;text-decoration:none;line-height:normal;letter-spacing:normal;word-spacing:normal;text-transform:none;direction:ltr;block-progression:tb;writing-mode:lr-tb;text-anchor:start;baseline-shift:baseline;color:#000000;fill:#000000;fill-opacity:1;fill-rule:nonzero;stroke:none;stroke-width:0.7748425;marker:none;visibility:visible;display:inline;overflow:visible;enable-background:accumulate;font-family:Sans;-inkscape-font-specification:Sans"
       d="m 50.625,71.125 0,0.375 0,6.21875 0,0.40625 0.375,0 16.4375,0 0.375,0 0,-0.40625 0,-6.21875 0,-0.375 -0.375,0 -16.4375,0 -0.375,0 z"
       id="path4646" />
    <path
       style="font-size:medium;font-style:normal;font-variant:normal;font-weight:normal;font-stretch:normal;text-indent:0;text-align:start;text-decoration:none;line-height:normal;letter-spacing:normal;word-spacing:normal;text-transform:none;direction:ltr;block-progression:tb;writing-mode:lr-tb;text-anchor:start;baseline-shift:baseline;color:#000000;fill:#000000;fill-opacity:1;fill-rule:nonzero;stroke:none;stroke-width:0.7748425;marker:none;visibility:visible;display:inline;overflow:visible;enable-background:accumulate;font-family:Sans;-inkscape-font-specification:Sans"
       d="m 50.625,101.125 0,0.375 0,6.21875 0,0.40625 0.375,0 16.4375,0 0.375,0 0,-0.40625 0,-6.21875 0,-0.375 -0.375,0 -16.4375,0 -0.375,0 z"
       id="path4642" />
    <path
       inkscape:connector-curvature="0"
       id="path3911"
       d="m 55.99205,115.54642 1.59375,0 3.87891,7.31836 0,-7.31836 1.14844,0 0,8.74805 -1.59375,0 -3.87891,-7.31836 0,7.31836 -1.14844,0 0,-8.74805"
       style="font-size:12px;font-style:normal;font-weight:normal;line-height:125%;letter-spacing:0px;word-spacing:0px;fill:#000000;fill-opacity:1;stroke:none;font-family:Sans" />
    <path
       style="font-size:medium;font-style:normal;font-variant:normal;font-weight:normal;font-stretch:normal;text-indent:0;text-align:start;text-decoration:none;line-height:normal;letter-spacing:normal;word-spacing:normal;text-transform:none;direction:ltr;block-progression:tb;writing-mode:lr-tb;text-anchor:start;baseline-shift:baseline;color:#000000;fill:#000000;fill-opacity:1;stroke:none;stroke-width:1px;marker:none;visibility:visible;display:inline;overflow:visible;enable-background:accumulate;font-family:Sans;-inkscape-font-specification:Sans"
       d="m 6.25,89.25 0,1 41.25,0 0,-1 -41.25,0 z"
       id="path3913" />
    <path
       style="font-size:medium;font-style:normal;font-variant:normal;font-weight:normal;font-stretch:normal;text-indent:0;text-align:start;text-decoration:none;line-height:normal;letter-spacing:normal;word-spacing:normal;text-transform:none;direction:ltr;block-progression:tb;writing-mode:lr-tb;text-anchor:start;baseline-shift:baseline;color:#000000;fill:#000000;fill-opacity:1;stroke:none;stroke-width:1px;marker:none;visibility:visible;display:inline;overflow:visible;enable-background:accumulate;font-family:Sans;-inkscape-font-specification:Sans"
       d="m 21.28125,89.25 0,1 11.03125,0 0,-1 -11.03125,0 z"
       id="path3915" />
    <path
       style="font-size:12px;fill-rule:evenodd;stroke-width:0.625;stroke-linejoin:round"
       d="m 21.606757,85.312891 12.018465,4.419494 -12.018465,4.419494 c 1.920048,-2.609267 1.908985,-6.179198 0,-8.838988 z"
       id="path4592" />
    <path
       style="font-size:medium;font-style:normal;font-variant:normal;font-weight:normal;font-stretch:normal;text-indent:0;text-align:start;text-decoration:none;line-height:normal;letter-spacing:normal;word-spacing:normal;text-transform:none;direction:ltr;block-progression:tb;writing-mode:lr-tb;text-anchor:start;baseline-shift:baseline;color:#000000;fill:#000000;fill-opacity:1;stroke:none;stroke-width:1px;marker:none;visibility:visible;display:inline;overflow:visible;enable-background:accumulate;font-family:Sans;-inkscape-font-specification:Sans"
       d="m 58.9375,7.21875 0,41.25 1,0 0,-41.25 -1,0 z"
       id="path4361" />
    <path
       style="font-size:medium;font-style:normal;font-variant:normal;font-weight:normal;font-stretch:normal;text-indent:0;text-align:start;text-decoration:none;line-height:normal;letter-spacing:normal;word-spacing:normal;text-transform:none;direction:ltr;block-progression:tb;writing-mode:lr-tb;text-anchor:start;baseline-shift:baseline;color:#000000;fill:#000000;fill-opacity:1;stroke:none;stroke-width:1px;marker:none;visibility:visible;display:inline;overflow:visible;enable-background:accumulate;font-family:Sans;-inkscape-font-specification:Sans"
       d="m 58.9375,21.90625 0,11 1,0 0,-11 -1,0 z"
       id="path4363" />
    <path
       style="font-size:12px;fill-rule:evenodd;stroke-width:0.625;stroke-linejoin:round"
       d="M 63.882139,22.226909 59.462645,34.245374 55.043151,22.226909 c 2.609267,1.920048 6.179198,1.908985 8.838988,0 z"
       id="path4584" />
    <path
       style="font-size:medium;font-style:normal;font-variant:normal;font-weight:normal;font-stretch:normal;text-indent:0;text-align:start;text-decoration:none;line-height:normal;letter-spacing:normal;word-spacing:normal;text-transform:none;direction:ltr;block-progression:tb;writing-mode:lr-tb;text-anchor:start;baseline-shift:baseline;color:#000000;fill:#000000;fill-opacity:1;stroke:none;stroke-width:1px;marker:none;visibility:visible;display:inline;overflow:visible;enable-background:accumulate;font-family:Sans;-inkscape-font-specification:Sans"
       d="m 58.9375,130.8125 0,41.25 1,0 0,-41.25 -1,0 z"
       id="path4365" />
    <path
       style="font-size:medium;font-style:normal;font-variant:normal;font-weight:normal;font-stretch:normal;text-indent:0;text-align:start;text-decoration:none;line-height:normal;letter-spacing:normal;word-spacing:normal;text-transform:none;direction:ltr;block-progression:tb;writing-mode:lr-tb;text-anchor:start;baseline-shift:baseline;color:#000000;fill:#000000;fill-opacity:1;stroke:none;stroke-width:1px;marker:none;visibility:visible;display:inline;overflow:visible;enable-background:accumulate;font-family:Sans;-inkscape-font-specification:Sans"
       d="m 58.9375,145.5 0,11 1,0 0,-11 -1,0 z"
       id="path4367" />
    <path
       style="font-size:12px;fill-rule:evenodd;stroke-width:0.625;stroke-linejoin:round"
       d="m 63.882139,145.82395 -4.419494,12.01847 -4.419494,-12.01847 c 2.609267,1.92005 6.179198,1.90899 8.838988,0 z"
       id="path4576" />
    <path
       style="font-size:medium;font-style:normal;font-variant:normal;font-weight:normal;font-stretch:normal;text-indent:0;text-align:start;text-decoration:none;line-height:normal;letter-spacing:normal;word-spacing:normal;text-transform:none;direction:ltr;block-progression:tb;writing-mode:lr-tb;text-anchor:start;baseline-shift:baseline;color:#000000;fill:#000000;fill-opacity:1;stroke:none;stroke-width:0.81320816;marker:none;visibility:visible;display:inline;overflow:visible;enable-background:accumulate;font-family:Sans;-inkscape-font-specification:Sans"
       d="M 38.09375 93.84375 C 33.981716 93.84375 30.625 97.200468 30.625 101.3125 C 30.625 105.42454 33.981716 108.78125 38.09375 108.78125 C 42.205784 108.78125 45.5625 105.42453 45.5625 101.3125 C 45.5625 97.200469 42.205784 93.84375 38.09375 93.84375 z M 38.09375 94.84375 C 41.665357 94.84375 44.5625 97.740906 44.5625 101.3125 C 44.5625 104.8841 41.665357 107.78125 38.09375 107.78125 C 34.522168 107.78125 31.625 104.8841 31.625 101.3125 C 31.625 97.740907 34.522168 94.84375 38.09375 94.84375 z "
       id="path4620" />
    <path
       style="font-size:medium;font-style:normal;font-variant:normal;font-weight:normal;font-stretch:normal;text-indent:0;text-align:start;text-decoration:none;line-height:normal;letter-spacing:normal;word-spacing:normal;text-transform:none;direction:ltr;block-progression:tb;writing-mode:lr-tb;text-anchor:start;baseline-shift:baseline;color:#000000;fill:#000000;fill-opacity:1;stroke:none;stroke-width:0.81320816;marker:none;visibility:visible;display:inline;overflow:visible;enable-background:accumulate;font-family:Sans;-inkscape-font-specification:Sans"
       d="M 80.25 63.96875 C 76.137966 63.96875 72.78125 67.325467 72.78125 71.4375 C 72.78125 75.549534 76.137966 78.875 80.25 78.875 C 84.362034 78.875 87.6875 75.549533 87.6875 71.4375 C 87.6875 67.325468 84.362034 63.96875 80.25 63.96875 z M 80.25 64.96875 C 83.821607 64.96875 86.6875 67.865905 86.6875 71.4375 C 86.6875 75.009096 83.821607 77.875 80.25 77.875 C 76.678418 77.875 73.78125 75.009094 73.78125 71.4375 C 73.78125 67.865906 76.678418 64.96875 80.25 64.96875 z "
       id="path4662" />
    <path
       style="font-size:medium;font-style:normal;font-variant:normal;font-weight:normal;font-stretch:normal;text-indent:0;text-align:start;text-decoration:none;line-height:normal;letter-spacing:normal;word-spacing:normal;text-transform:none;direction:ltr;block-progression:tb;writing-mode:lr-tb;text-anchor:start;baseline-shift:baseline;color:#000000;fill:#000000;fill-opacity:1;stroke:none;stroke-width:0.81320816;marker:none;visibility:visible;display:inline;overflow:visible;enable-background:accumulate;font-family:Sans;-inkscape-font-specification:Sans"
       d="M 79.71875 124.4375 C 75.606716 124.4375 72.25 127.76296 72.25 131.875 C 72.25 135.98703 75.606716 139.34375 79.71875 139.34375 C 83.830784 139.34375 87.15625 135.98703 87.15625 131.875 C 87.15625 127.76296 83.830784 124.4375 79.71875 124.4375 z M 79.71875 125.4375 C 83.290357 125.4375 86.15625 128.3034 86.15625 131.875 C 86.15625 135.44659 83.290357 138.34375 79.71875 138.34375 C 76.147168 138.34375 73.25 135.44659 73.25 131.875 C 73.25 128.3034 76.147168 125.4375 79.71875 125.4375 z "
       id="path4616" />
  </g>
</svg>
