<?xml version="1.0" encoding="UTF-8" standalone="no"?>
<!-- Created with Inkscape (http://www.inkscape.org/) -->

<svg
   xmlns:dc="http://purl.org/dc/elements/1.1/"
   xmlns:cc="http://creativecommons.org/ns#"
   xmlns:rdf="http://www.w3.org/1999/02/22-rdf-syntax-ns#"
   xmlns:svg="http://www.w3.org/2000/svg"
   xmlns="http://www.w3.org/2000/svg"
   xmlns:sodipodi="http://sodipodi.sourceforge.net/DTD/sodipodi-0.dtd"
   xmlns:inkscape="http://www.inkscape.org/namespaces/inkscape"
   width="220"
   height="150"
   id="svg2"
   version="1.1"
   inkscape:version="0.48.0 r9654"
   sodipodi:docname="2011-(04)apr-08, 02.svg">
  <defs
     id="defs4" />
  <sodipodi:namedview
     id="base"
     pagecolor="#ffffff"
     bordercolor="#666666"
     borderopacity="1.0"
     inkscape:pageopacity="0.0"
     inkscape:pageshadow="2"
     inkscape:zoom="2.0000001"
     inkscape:cx="19.817859"
     inkscape:cy="36.314573"
     inkscape:document-units="px"
     inkscape:current-layer="layer1"
     showgrid="false"
     inkscape:window-width="1589"
     inkscape:window-height="1117"
     inkscape:window-x="1600"
     inkscape:window-y="27"
     inkscape:window-maximized="1"
     showguides="true"
     inkscape:guide-bbox="true" />
  <metadata
     id="metadata7">
    <rdf:RDF>
      <cc:Work
         rdf:about="">
        <dc:format>image/svg+xml</dc:format>
        <dc:type
           rdf:resource="http://purl.org/dc/dcmitype/StillImage" />
        <dc:title />
      </cc:Work>
    </rdf:RDF>
  </metadata>
  <g
     inkscape:label="Layer 1"
     inkscape:groupmode="layer"
     id="layer1">
    <rect
       style="fill:#0000ff;fill-rule:evenodd;stroke:#000000;stroke-width:1px;stroke-linecap:butt;stroke-linejoin:miter;stroke-opacity:1"
       id="rect3007"
       width="58"
       height="0"
       x="-323.93503"
       y="96.701012" />
    <rect
       style="fill:#0000ff;fill-rule:evenodd;stroke:#000000;stroke-width:1px;stroke-linecap:butt;stroke-linejoin:miter;stroke-opacity:1"
       id="rect3007-3"
       width="58"
       height="0"
       x="-260.49493"
       y="117.91259" />
    <path
       style="font-size:medium;font-style:normal;font-variant:normal;font-weight:normal;font-stretch:normal;text-indent:0;text-align:start;text-decoration:none;line-height:normal;letter-spacing:normal;word-spacing:normal;text-transform:none;direction:ltr;block-progression:tb;writing-mode:lr-tb;text-anchor:start;baseline-shift:baseline;color:#000000;fill:#000000;fill-opacity:1;stroke:none;stroke-width:1px;marker:none;visibility:visible;display:inline;overflow:visible;enable-background:accumulate;font-family:Sans;-inkscape-font-specification:Sans"
       d="m 102.97383,37.350094 0,35.0625 1,0 0,-35.0625 -1,0 z"
       id="path3012" />
    <path
       style="font-size:medium;font-style:normal;font-variant:normal;font-weight:normal;font-stretch:normal;text-indent:0;text-align:start;text-decoration:none;line-height:normal;letter-spacing:normal;word-spacing:normal;text-transform:none;direction:ltr;block-progression:tb;writing-mode:lr-tb;text-anchor:start;baseline-shift:baseline;color:#000000;fill:#000000;fill-opacity:1;stroke:none;stroke-width:1px;marker:none;visibility:visible;display:inline;overflow:visible;enable-background:accumulate;font-family:Sans;-inkscape-font-specification:Sans"
       d="m 34.00508,53.818844 0,1 69.28125,0 0,-1 z"
       id="path3014" />
    <path
       style="font-size:medium;font-style:normal;font-variant:normal;font-weight:normal;font-stretch:normal;text-indent:0;text-align:start;text-decoration:none;line-height:normal;letter-spacing:normal;word-spacing:normal;text-transform:none;direction:ltr;block-progression:tb;writing-mode:lr-tb;text-anchor:start;baseline-shift:baseline;color:#000000;fill:#000000;fill-opacity:1;stroke:none;stroke-width:1px;marker:none;visibility:visible;display:inline;overflow:visible;enable-background:accumulate;font-family:Sans;-inkscape-font-specification:Sans"
       d="m 115.16133,2.6313437 0,32.0000003 -11.96875,11.9375 0.71875,0.71875 12.09375,-12.125 0.15625,-0.15625 0,-0.1875 0,-32.1875003 -1,0 z"
       id="path3020" />
    <path
       style="font-size:medium;font-style:normal;font-variant:normal;font-weight:normal;font-stretch:normal;text-indent:0;text-align:start;text-decoration:none;line-height:normal;letter-spacing:normal;word-spacing:normal;text-transform:none;direction:ltr;block-progression:tb;writing-mode:lr-tb;text-anchor:start;baseline-shift:baseline;color:#000000;fill:#000000;fill-opacity:1;stroke:none;stroke-width:1px;marker:none;visibility:visible;display:inline;overflow:visible;enable-background:accumulate;font-family:Sans;-inkscape-font-specification:Sans"
       d="m 103.91133,63.162594 -0.71875,0.71875 11.96875,11.9375 0,71.244426 1,0 0,-71.431926 0,-0.21875 -0.15625,-0.125 z"
       id="path3022" />
    <path
       style="font-size:medium;font-style:normal;font-variant:normal;font-weight:normal;font-stretch:normal;text-indent:0;text-align:start;text-decoration:none;line-height:normal;letter-spacing:normal;word-spacing:normal;text-transform:none;direction:ltr;block-progression:tb;writing-mode:lr-tb;text-anchor:start;baseline-shift:baseline;color:#000000;fill:#000000;fill-opacity:1;fill-rule:nonzero;stroke:none;stroke-width:1px;marker:none;visibility:visible;display:inline;overflow:visible;enable-background:accumulate;font-family:Sans;-inkscape-font-specification:Sans"
       d="m 116.16133,68.006344 -0.84375,0.84375 -6.40625,6.40625 -0.84375,0.84375 1.21875,0 6.3125,0 0.125,0 0.125,-0.0625 0.0312,-0.03125 0.28125,-0.125 0,-0.3125 0,-6.375 0,-1.1875 z"
       id="path3877" />
    <path
       style="font-size:medium;font-style:normal;font-variant:normal;font-weight:normal;font-stretch:normal;text-indent:0;text-align:start;text-decoration:none;line-height:normal;letter-spacing:normal;word-spacing:normal;text-transform:none;direction:ltr;block-progression:tb;writing-mode:lr-tb;text-anchor:start;baseline-shift:baseline;color:#000000;fill:#000000;fill-opacity:1;stroke:none;stroke-width:1px;marker:none;visibility:visible;display:inline;overflow:visible;enable-background:accumulate;font-family:Sans;-inkscape-font-specification:Sans"
       d="m 115.125,19.59375 0,2.84375 1,0 0,-2.84375 -1,0 z"
       id="path3032" />
    <path
       style="font-size:12px;fill-rule:evenodd;stroke-width:0.625;stroke-linejoin:round"
       d="m 120.04906,11.742571 -4.4195,12.018465 -4.41949,-12.018465 c 2.60927,1.920048 6.1792,1.908985 8.83899,0 z"
       id="path4469" />
    <path
       style="font-size:medium;font-style:normal;font-variant:normal;font-weight:normal;font-stretch:normal;text-indent:0;text-align:start;text-decoration:none;line-height:normal;letter-spacing:normal;word-spacing:normal;text-transform:none;direction:ltr;block-progression:tb;writing-mode:lr-tb;text-anchor:start;baseline-shift:baseline;color:#000000;fill:#000000;fill-opacity:1;stroke:none;stroke-width:1px;marker:none;visibility:visible;display:inline;overflow:visible;enable-background:accumulate;font-family:Sans;-inkscape-font-specification:Sans"
       d="m 115.125,99.59375 0,2.84375 1,0 0,-2.84375 -1,0 z"
       id="path4246" />
    <path
       style="font-size:12px;fill-rule:evenodd;stroke-width:0.625;stroke-linejoin:round"
       d="m 120.04906,91.742573 -4.4195,12.018467 -4.41949,-12.018467 c 2.60927,1.920048 6.1792,1.908985 8.83899,0 z"
       id="path4461" />
    <path
       style="font-size:medium;font-style:normal;font-variant:normal;font-weight:normal;font-stretch:normal;text-indent:0;text-align:start;text-decoration:none;line-height:normal;letter-spacing:normal;word-spacing:normal;text-transform:none;direction:ltr;block-progression:tb;writing-mode:lr-tb;text-anchor:start;baseline-shift:baseline;color:#000000;fill:#000000;fill-opacity:1;stroke:none;stroke-width:1px;marker:none;visibility:visible;display:inline;overflow:visible;enable-background:accumulate;font-family:Sans;-inkscape-font-specification:Sans"
       d="m 69.46875,53.84375 0,1 2.84375,0 0,-1 -2.84375,0 z"
       id="path4248" />
    <path
       style="font-size:12px;fill-rule:evenodd;stroke-width:0.625;stroke-linejoin:round"
       d="m 61.620334,49.894813 12.018465,4.419494 -12.018465,4.419494 c 1.920048,-2.609267 1.908985,-6.179198 0,-8.838988 z"
       id="path4453" />
    <path
       style="font-size:medium;font-style:normal;font-variant:normal;font-weight:normal;font-stretch:normal;text-indent:0;text-align:start;text-decoration:none;line-height:normal;letter-spacing:normal;word-spacing:normal;text-transform:none;direction:ltr;block-progression:tb;writing-mode:lr-tb;text-anchor:start;baseline-shift:baseline;color:#000000;fill:#000000;fill-opacity:1;fill-rule:nonzero;stroke:none;stroke-width:1;marker:none;visibility:visible;display:inline;overflow:visible;enable-background:accumulate;font-family:Sans;-inkscape-font-specification:Sans"
       d="m 115.62747,119.41976 c -1.44179,0 -2.625,1.18321 -2.625,2.625 0,1.4418 1.18321,2.625 2.625,2.625 1.44179,0 2.59375,-1.1832 2.59375,-2.625 0,-1.44179 -1.15196,-2.625 -2.59375,-2.625 z"
       id="path4621" />
    <path
       style="font-size:medium;font-style:normal;font-variant:normal;font-weight:normal;font-stretch:normal;text-indent:0;text-align:start;text-decoration:none;line-height:normal;letter-spacing:normal;word-spacing:normal;text-transform:none;direction:ltr;block-progression:tb;writing-mode:lr-tb;text-anchor:start;baseline-shift:baseline;color:#000000;fill:#000000;fill-opacity:1;stroke:none;stroke-width:1.63157892;marker:none;visibility:visible;display:inline;overflow:visible;enable-background:accumulate;font-family:Sans;-inkscape-font-specification:Sans"
       d="M 28.59375 49.5 C 26.105386 49.753567 24.15625 51.883446 24.15625 54.4375 C 24.15625 57.161824 26.400676 59.375 29.125 59.375 C 31.849324 59.375 34.0625 57.161824 34.0625 54.4375 C 34.0625 51.713176 31.849324 49.5 29.125 49.5 C 28.95473 49.5 28.759641 49.483096 28.59375 49.5 z M 29.125 50.46875 C 31.308884 50.46875 33.0625 52.253616 33.0625 54.4375 C 33.0625 56.621384 31.308884 58.375 29.125 58.375 C 26.941116 58.375 25.15625 56.621384 25.15625 54.4375 C 25.15625 52.253616 26.941116 50.46875 29.125 50.46875 z "
       id="path4625" />
    <path
       style="font-size:medium;font-style:normal;font-variant:normal;font-weight:normal;font-stretch:normal;text-indent:0;text-align:start;text-decoration:none;line-height:normal;letter-spacing:normal;word-spacing:normal;text-transform:none;direction:ltr;block-progression:tb;writing-mode:lr-tb;text-anchor:start;baseline-shift:baseline;color:#000000;fill:#000000;fill-opacity:1;stroke:none;stroke-width:1px;marker:none;visibility:visible;display:inline;overflow:visible;enable-background:accumulate;font-family:Sans;-inkscape-font-specification:Sans"
       d="m 34.00508,121.48674 0,1 79.75527,0 0,-1 z"
       id="path4254" />
    <path
       style="font-size:medium;font-style:normal;font-variant:normal;font-weight:normal;font-stretch:normal;text-indent:0;text-align:start;text-decoration:none;line-height:normal;letter-spacing:normal;word-spacing:normal;text-transform:none;direction:ltr;block-progression:tb;writing-mode:lr-tb;text-anchor:start;baseline-shift:baseline;color:#000000;fill:#000000;fill-opacity:1;stroke:none;stroke-width:1.63157892;marker:none;visibility:visible;display:inline;overflow:visible;enable-background:accumulate;font-family:Sans;-inkscape-font-specification:Sans"
       d="M 29.125 117.15625 C 26.400676 117.15625 24.15625 119.36942 24.15625 122.09375 C 24.15625 124.81807 26.400676 127.03125 29.125 127.03125 C 31.849324 127.03125 34.0625 124.81807 34.0625 122.09375 C 34.0625 119.36942 31.849324 117.15625 29.125 117.15625 z M 29.125 118.15625 C 31.308884 118.15625 33.0625 119.90986 33.0625 122.09375 C 33.0625 124.27763 31.308884 126.03125 29.125 126.03125 C 26.941116 126.03125 25.15625 124.27763 25.15625 122.09375 C 25.15625 119.90986 26.941116 118.15625 29.125 118.15625 z "
       id="path4629" />
    <path
       style="font-size:medium;font-style:normal;font-variant:normal;font-weight:normal;font-stretch:normal;text-indent:0;text-align:start;text-decoration:none;line-height:normal;letter-spacing:normal;word-spacing:normal;text-transform:none;direction:ltr;block-progression:tb;writing-mode:lr-tb;text-anchor:start;baseline-shift:baseline;color:#000000;fill:#000000;fill-opacity:1;stroke:none;stroke-width:1px;marker:none;visibility:visible;display:inline;overflow:visible;enable-background:accumulate;font-family:Sans;-inkscape-font-specification:Sans"
       d="m 28.4375,62.4375 0,51 1,0 0,-51 -1,0 z"
       id="path4258" />
    <path
       style="font-size:12px;font-style:normal;font-weight:normal;line-height:125%;letter-spacing:0px;word-spacing:0px;fill:#000000;fill-opacity:1;stroke:none;font-family:Sans"
       d="m 2.9829403,82.288953 1.1894532,0 0,5.314457 c -2.3e-6,0.9375 0.1699194,1.61328 0.5097656,2.02734 0.3398407,0.41016 0.8906214,0.61524 1.6523438,0.61523 0.7578073,1e-5 1.3066347,-0.20507 1.6464847,-0.61523 0.339837,-0.41406 0.509759,-1.08984 0.509765,-2.02734 l 0,-5.314457 1.189453,0 0,5.460937 c -7e-6,1.14063 -0.28321,2.00195 -0.849609,2.58398 -0.562506,0.58204 -1.3945367,0.87305 -2.4960937,0.87305 -1.1054721,0 -1.9414088,-0.29101 -2.5078126,-0.87305 -0.5625013,-0.58203 -0.843751,-1.44335 -0.84375,-2.58398 l 0,-5.460937"
       id="path4382" />
    <path
       style="font-size:7.80010986px;font-style:normal;font-weight:normal;line-height:125%;letter-spacing:0px;word-spacing:0px;baseline-shift:sub;fill:#000000;fill-opacity:1;stroke:none;font-family:Sans"
       d="M 11.5 87.75 L 11.5 93.4375 L 13.53125 93.4375 C 14.16856 93.4375 14.654679 93.30801 15 93.03125 C 15.345313 92.75449 15.531245 92.35157 15.53125 91.84375 C 15.531245 91.4578 15.429491 91.13145 15.21875 90.875 C 15.01054 90.61601 14.722072 90.4562 14.34375 90.375 C 14.658594 90.32422 14.899993 90.20567 15.0625 90 C 15.224993 89.79433 15.281246 89.50411 15.28125 89.15625 C 15.281246 88.70683 15.129883 88.36876 14.8125 88.125 C 14.495109 87.88125 14.055278 87.75001 13.46875 87.75 L 11.5 87.75 z M 12.25 88.375 L 13.40625 88.375 C 13.782033 88.37501 14.067182 88.45156 14.25 88.59375 C 14.435352 88.73594 14.531246 88.96309 14.53125 89.25 C 14.531246 89.53946 14.435351 89.73281 14.25 89.875 C 14.067182 90.01468 13.782033 90.09375 13.40625 90.09375 L 12.25 90.09375 L 12.25 88.375 z M 12.25 90.71875 L 13.5 90.71875 C 13.91387 90.71876 14.208197 90.79864 14.40625 90.96875 C 14.606835 91.13634 14.718746 91.39452 14.71875 91.75 C 14.718746 92.10293 14.606835 92.38984 14.40625 92.5625 C 14.208197 92.73257 13.91387 92.81251 13.5 92.8125 L 12.25 92.8125 L 12.25 90.71875 z "
       id="path4384" />
    <path
       style="font-size:7.80010986px;font-style:normal;font-weight:normal;line-height:125%;letter-spacing:0px;word-spacing:0px;baseline-shift:sub;fill:#000000;fill-opacity:1;stroke:none;font-family:Sans"
       d="m 16.841914,87.75069 3.595363,0 0,0.64747 -2.826016,0 0,1.68342 2.707948,0 0,0.64747 -2.707948,0 0,2.06048 2.894572,0 0,0.64747 -3.663919,0 0,-5.68631"
       id="path4386" />
    <path
       style="font-size:12px;font-style:normal;font-weight:normal;line-height:125%;letter-spacing:0px;word-spacing:0px;fill:#000000;fill-opacity:1;stroke:none;font-family:Sans"
       d="m 20.205507,63.365592 0,3.263672 3.263672,0 0,0.996094 -3.263672,0 0,3.263672 -0.984375,0 0,-3.263672 -3.263672,0 0,-0.996094 3.263672,0 0,-3.263672 0.984375,0"
       id="path4389" />
    <path
       style="font-size:12px;font-style:normal;font-weight:normal;line-height:125%;letter-spacing:0px;word-spacing:0px;fill:#000000;fill-opacity:1;stroke:none;font-family:Sans"
       d="m 123.93071,11.613752 1.1836,0 0,8.748047 -1.1836,0 0,-8.748047"
       id="path4392" />
    <path
       style="font-size:7.80010986px;font-style:normal;font-weight:normal;line-height:125%;letter-spacing:0px;word-spacing:0px;baseline-shift:sub;fill:#000000;fill-opacity:1;stroke:none;font-family:Sans"
       d="m 131.31565,17.513479 0,0.81125 c -0.25899,-0.24121 -0.53576,-0.42149 -0.83029,-0.54083 -0.292,-0.11933 -0.60304,-0.179 -0.93312,-0.17901 -0.65001,10e-6 -1.14767,0.19933 -1.49299,0.59796 -0.34531,0.3961 -0.51797,0.96994 -0.51797,1.72151 0,0.74903 0.17266,1.32287 0.51797,1.72151 0.34532,0.3961 0.84298,0.59415 1.49299,0.59415 0.33008,0 0.64112,-0.0597 0.93312,-0.17901 0.29453,-0.11934 0.5713,-0.29961 0.83029,-0.54083 l 0,0.80363 c -0.26915,0.18281 -0.5548,0.31992 -0.85695,0.41133 -0.29962,0.0914 -0.617,0.13711 -0.95216,0.13711 -0.86076,0 -1.53869,-0.2628 -2.03382,-0.78839 -0.49512,-0.52813 -0.74268,-1.24796 -0.74268,-2.1595 0,-0.91407 0.24756,-1.63391 0.74268,-2.15951 0.49513,-0.52812 1.17306,-0.79219 2.03382,-0.79219 0.34024,0 0.66016,0.0457 0.95978,0.13711 0.30215,0.0889 0.58526,0.22344 0.84933,0.40371"
       id="path4394" />
    <path
       style="font-size:12px;font-style:normal;font-weight:normal;line-height:125%;letter-spacing:0px;word-spacing:0px;fill:#000000;fill-opacity:1;stroke:none;font-family:Sans"
       d="m 63.220035,35.741168 1.183594,0 0,8.748047 -1.183594,0 0,-8.748047"
       id="path4397" />
    <path
       style="font-size:7.80010986px;font-style:normal;font-weight:normal;line-height:125%;letter-spacing:0px;word-spacing:0px;baseline-shift:sub;fill:#000000;fill-opacity:1;stroke:none;font-family:Sans"
       d="M 66.34375 41.1875 L 66.34375 46.875 L 68.375 46.875 C 69.01231 46.875 69.529679 46.74551 69.875 46.46875 C 70.220313 46.19199 70.374995 45.82032 70.375 45.3125 C 70.374995 44.92655 70.273241 44.6002 70.0625 44.34375 C 69.85429 44.08476 69.565822 43.8937 69.1875 43.8125 C 69.502344 43.76172 69.743743 43.64317 69.90625 43.4375 C 70.068743 43.23183 70.156246 42.94161 70.15625 42.59375 C 70.156246 42.14433 69.973633 41.80626 69.65625 41.5625 C 69.338859 41.31875 68.899028 41.18751 68.3125 41.1875 L 66.34375 41.1875 z M 67.125 41.84375 L 68.25 41.84375 C 68.625783 41.84376 68.910932 41.92031 69.09375 42.0625 C 69.279102 42.20469 69.374996 42.40059 69.375 42.6875 C 69.374996 42.97696 69.279101 43.20156 69.09375 43.34375 C 68.910932 43.48343 68.625783 43.5625 68.25 43.5625 L 67.125 43.5625 L 67.125 41.84375 z M 67.125 44.1875 L 68.34375 44.1875 C 68.75762 44.18751 69.083197 44.26739 69.28125 44.4375 C 69.481835 44.60509 69.562496 44.86327 69.5625 45.21875 C 69.562496 45.57168 69.481835 45.82734 69.28125 46 C 69.083197 46.17007 68.75762 46.25001 68.34375 46.25 L 67.125 46.25 L 67.125 44.1875 z "
       id="path4399" />
    <path
       style="font-size:12px;font-style:normal;font-weight:normal;line-height:125%;letter-spacing:0px;word-spacing:0px;fill:#000000;fill-opacity:1;stroke:none;font-family:Sans"
       d="m 123.93071,91.613752 1.1836,0 0,8.748048 -1.1836,0 0,-8.748048"
       id="path4402" />
    <path
       style="font-size:7.80010986px;font-style:normal;font-weight:normal;line-height:125%;letter-spacing:0px;word-spacing:0px;baseline-shift:sub;fill:#000000;fill-opacity:1;stroke:none;font-family:Sans"
       d="m 127.05758,97.075489 3.59536,0 0,0.64747 -2.82601,0 0,1.68342 2.70795,0 0,0.647471 -2.70795,0 0,2.06048 2.89457,0 0,0.64747 -3.66392,0 0,-5.686311"
       id="path4404" />
    <path
       style="font-size:12px;font-style:normal;font-weight:normal;line-height:125%;letter-spacing:0px;word-spacing:0px;fill:#000000;fill-opacity:1;stroke:none;font-family:Sans"
       d="m 136.31985,94.912579 7.51171,0 0,0.98438 -7.51171,0 0,-0.98438"
       id="path4559" />
    <path
       style="font-size:12px;font-style:normal;font-weight:normal;line-height:125%;letter-spacing:0px;word-spacing:0px;fill:#000000;fill-opacity:1;stroke:none;font-family:Sans"
       d="m 136.31985,97.303209 7.51171,0 0,0.99609 -7.51171,0 0,-0.99609"
       id="path4406" />
    <path
       style="font-size:12px;font-style:normal;font-weight:normal;line-height:125%;letter-spacing:0px;word-spacing:0px;fill:#000000;fill-opacity:1;stroke:none;font-family:Sans"
       d="m 150.1011,91.613752 1.18359,0 0,8.748048 -1.18359,0 0,-8.748048"
       id="path4408" />
    <path
       style="font-size:7.80010986px;font-style:normal;font-weight:normal;line-height:125%;letter-spacing:0px;word-spacing:0px;baseline-shift:sub;fill:#000000;fill-opacity:1;stroke:none;font-family:Sans"
       d="m 157.48603,97.513479 0,0.81125 c -0.25899,-0.24121 -0.53575,-0.42149 -0.83029,-0.54083 -0.292,-0.11933 -0.60304,-0.179 -0.93311,-0.17901 -0.65002,1e-5 -1.14768,0.19933 -1.49299,0.59796 -0.34532,0.3961 -0.51798,0.96994 -0.51798,1.72151 0,0.749031 0.17266,1.322871 0.51798,1.721511 0.34531,0.3961 0.84297,0.59415 1.49299,0.59415 0.33007,0 0.64111,-0.0597 0.93311,-0.17901 0.29454,-0.11934 0.5713,-0.29961 0.83029,-0.54083 l 0,0.80363 c -0.26915,0.18281 -0.5548,0.31992 -0.85695,0.41133 -0.29961,0.0914 -0.617,0.13711 -0.95216,0.13711 -0.86075,0 -1.53869,-0.2628 -2.03382,-0.78839 -0.49512,-0.52813 -0.74268,-1.24796 -0.74268,-2.159501 0,-0.91407 0.24756,-1.63391 0.74268,-2.15951 0.49513,-0.52812 1.17307,-0.79219 2.03382,-0.79219 0.34024,0 0.66016,0.0457 0.95978,0.13711 0.30215,0.0889 0.58526,0.22344 0.84933,0.40371"
       id="path4410" />
    <path
       style="font-size:12px;font-style:normal;font-weight:normal;line-height:125%;letter-spacing:0px;word-spacing:0px;fill:#000000;fill-opacity:1;stroke:none;font-family:Sans"
       d="m 167.25625,92.838361 0,3.263668 3.26367,0 0,0.9961 -3.26367,0 0,3.263671 -0.98437,0 0,-3.263671 -3.26367,0 0,-0.9961 3.26367,0 0,-3.263668 0.98437,0"
       id="path4412" />
    <path
       style="font-size:12px;font-style:normal;font-weight:normal;line-height:125%;letter-spacing:0px;word-spacing:0px;fill:#000000;fill-opacity:1;stroke:none;font-family:Sans"
       d="m 176.78946,91.613752 1.18359,0 0,8.748048 -1.18359,0 0,-8.748048"
       id="path4414" />
    <path
       style="font-size:7.80010986px;font-style:normal;font-weight:normal;line-height:125%;letter-spacing:0px;word-spacing:0px;baseline-shift:sub;fill:#000000;fill-opacity:1;stroke:none;font-family:Sans"
       d="M 179.90625 97.0625 L 179.90625 102.75 L 181.96875 102.75 C 182.60606 102.75 183.09218 102.62051 183.4375 102.34375 C 183.78282 102.06699 183.93749 101.66407 183.9375 101.15625 C 183.93749 100.7703 183.83574 100.4752 183.625 100.21875 C 183.41679 99.959759 183.12833 99.7687 182.75 99.6875 C 183.06485 99.63672 183.30624 99.51817 183.46875 99.3125 C 183.6312 99.10683 183.71875 98.81661 183.71875 98.46875 C 183.71875 98.01933 183.56739 97.68126 183.25 97.4375 C 182.93261 97.19375 182.46153 97.06251 181.875 97.0625 L 179.90625 97.0625 z M 180.6875 97.71875 L 181.8125 97.71875 C 182.18829 97.71876 182.47343 97.76406 182.65625 97.90625 C 182.84158 98.04844 182.93749 98.27559 182.9375 98.5625 C 182.93749 98.85196 182.8416 99.07656 182.65625 99.21875 C 182.47343 99.35843 182.18829 99.40625 181.8125 99.40625 L 180.6875 99.40625 L 180.6875 97.71875 z M 180.6875 100.03125 L 181.90625 100.03125 C 182.32012 100.03126 182.6457 100.14239 182.84375 100.3125 C 183.04434 100.48009 183.12499 100.73827 183.125 101.09375 C 183.12499 101.44668 183.04434 101.70234 182.84375 101.875 C 182.6457 102.04507 182.32012 102.12501 181.90625 102.125 L 180.6875 102.125 L 180.6875 100.03125 z "
       id="path4416" />
    <path
       style="font-size:12px;font-style:normal;font-weight:normal;line-height:125%;letter-spacing:0px;word-spacing:0px;fill:#000000;fill-opacity:1;stroke:none;font-family:Sans"
       d="m 197.10164,96.711409 0,1.04883 c -0.41016,0.30469 -0.79102,0.52539 -1.14258,0.66211 -0.34766,0.13281 -0.71094,0.19922 -1.08984,0.19922 -0.42969,0 -0.92969,-0.11524 -1.5,-0.34571 -0.0391,-0.0156 -0.0723,-0.0293 -0.0996,-0.041 -0.0234,-0.008 -0.0645,-0.0234 -0.12305,-0.0469 -0.60547,-0.23828 -1.0918,-0.35742 -1.45898,-0.35742 -0.34375,0 -0.6836,0.0742 -1.01953,0.22266 -0.33594,0.14844 -0.69532,0.38672 -1.07813,0.71484 l 0,-1.04883 c 0.41016,-0.30468 0.78906,-0.52343 1.13672,-0.65625 0.35156,-0.13671 0.7168,-0.20507 1.0957,-0.20508 0.42969,1e-5 0.93164,0.11524 1.50586,0.34571 0.043,0.0195 0.0742,0.0332 0.0937,0.041 0.0234,0.008 0.0644,0.0234 0.12305,0.0469 0.60546,0.23828 1.09179,0.35742 1.45899,0.35742 0.33593,0 0.66796,-0.0723 0.99609,-0.2168 0.33202,-0.14843 0.69921,-0.38867 1.10156,-0.7207"
       id="path4541" />
    <path
       style="font-size:12px;font-style:normal;font-weight:normal;line-height:125%;letter-spacing:0px;word-spacing:0px;fill:#000000;fill-opacity:1;stroke:none;font-family:Sans"
       d="m 197.1016,94.432109 0,1.04297 c -0.41016,0.3086 -0.79102,0.53126 -1.14258,0.66797 -0.34766,0.13282 -0.71094,0.19922 -1.08984,0.19922 -0.42969,0 -0.92969,-0.11523 -1.5,-0.3457 -0.0391,-0.0156 -0.0723,-0.0293 -0.0996,-0.041 -0.0234,-0.008 -0.0645,-0.0234 -0.12305,-0.0469 -0.60547,-0.23827 -1.0918,-0.35741 -1.45898,-0.35742 -0.34375,1e-5 -0.6836,0.0742 -1.01953,0.22266 -0.33594,0.14844 -0.69532,0.38477 -1.07813,0.70898 l 0,-1.04297 c 0.41016,-0.30468 0.78906,-0.52343 1.13672,-0.65625 0.35156,-0.13671 0.71679,-0.20507 1.0957,-0.20507 0.42969,0 0.93164,0.11524 1.50586,0.3457 0.0391,0.0156 0.0683,0.0273 0.0879,0.0352 0.0273,0.0117 0.0703,0.0293 0.12891,0.0527 0.60546,0.23829 1.09179,0.35743 1.45898,0.35742 0.33594,1e-5 0.66797,-0.0723 0.9961,-0.21679 0.33202,-0.14844 0.69921,-0.38867 1.10156,-0.72071"
       id="path4418" />
    <path
       style="font-size:12px;font-style:normal;font-weight:normal;line-height:125%;letter-spacing:0px;word-spacing:0px;fill:#000000;fill-opacity:1;stroke:none;font-family:Sans"
       d="m 203.37117,91.613752 1.1836,0 0,8.748048 -1.1836,0 0,-8.748048"
       id="path4420" />
    <path
       style="font-size:7.80010986px;font-style:normal;font-weight:normal;line-height:125%;letter-spacing:0px;word-spacing:0px;baseline-shift:sub;fill:#000000;fill-opacity:1;stroke:none;font-family:Sans"
       d="m 210.75611,97.513479 0,0.81125 c -0.25899,-0.24121 -0.53576,-0.42149 -0.83029,-0.54083 -0.292,-0.11933 -0.60304,-0.179 -0.93312,-0.17901 -0.65001,1e-5 -1.14767,0.19933 -1.49299,0.59796 -0.34531,0.3961 -0.51797,0.96994 -0.51797,1.72151 0,0.749031 0.17266,1.322871 0.51797,1.721511 0.34532,0.3961 0.84298,0.59415 1.49299,0.59415 0.33008,0 0.64112,-0.0597 0.93312,-0.17901 0.29453,-0.11934 0.5713,-0.29961 0.83029,-0.54083 l 0,0.80363 c -0.26915,0.18281 -0.5548,0.31992 -0.85695,0.41133 -0.29962,0.0914 -0.617,0.13711 -0.95216,0.13711 -0.86076,0 -1.53869,-0.2628 -2.03382,-0.78839 -0.49512,-0.52813 -0.74268,-1.24796 -0.74268,-2.159501 0,-0.91407 0.24756,-1.63391 0.74268,-2.15951 0.49513,-0.52812 1.17306,-0.79219 2.03382,-0.79219 0.34024,0 0.66016,0.0457 0.95978,0.13711 0.30215,0.0889 0.58526,0.22344 0.84933,0.40371"
       id="path4422" />
    <path
       style="font-size:12px;font-style:normal;font-weight:normal;line-height:125%;letter-spacing:0px;word-spacing:0px;fill:#000000;fill-opacity:1;stroke:none;font-family:Sans"
       d="m 154.69727,44.035209 0,1.863281 2.2207,0 0,0.837891 -2.2207,0 0,3.5625 c -1e-5,0.535157 0.0723,0.878907 0.21679,1.03125 0.14844,0.152344 0.44727,0.228516 0.89649,0.228515 l 1.10742,0 0,0.902344 -1.10742,0 c -0.83204,0 -1.40626,-0.154297 -1.72266,-0.462891 -0.31641,-0.312499 -0.47461,-0.878905 -0.47461,-1.699218 l 0,-3.5625 -0.79101,0 0,-0.837891 0.79101,0 0,-1.863281 1.08399,0"
       id="path4425" />
    <path
       style="font-size:12px;font-style:normal;font-weight:normal;line-height:125%;letter-spacing:0px;word-spacing:0px;fill:#000000;fill-opacity:1;stroke:none;font-family:Sans"
       d="m 161.07227,53.070365 c -0.3047,0.781249 -0.60157,1.291014 -0.89063,1.529297 -0.28906,0.238279 -0.67578,0.357419 -1.16016,0.357422 l -0.86132,0 0,-0.902344 0.63281,0 c 0.29687,-2e-6 0.52734,-0.07031 0.6914,-0.210938 0.16407,-0.140626 0.34571,-0.472657 0.54493,-0.996093 l 0.19336,-0.492188 -2.6543,-6.457031 1.14258,0 2.05078,5.132812 2.05078,-5.132812 1.14258,0 -2.88281,7.171875"
       id="path4427" />
    <path
       style="font-size:12px;font-style:normal;font-weight:normal;line-height:125%;letter-spacing:0px;word-spacing:0px;fill:#000000;fill-opacity:1;stroke:none;font-family:Sans"
       d="m 169.31055,43.712943 1.18359,0 0,8.748047 -1.18359,0 0,-8.748047"
       id="path4429" />
    <path
       style="font-size:26.00036621px;font-style:normal;font-weight:normal;line-height:125%;letter-spacing:0px;word-spacing:0px;baseline-shift:sub;fill:#000000;fill-opacity:1;stroke:none;font-family:Sans"
       d="m 176.69548,49.612674 0,0.811242 c -0.25899,-0.24121 -0.53575,-0.421486 -0.83028,-0.540828 -0.292,-0.119333 -0.60304,-0.179001 -0.93312,-0.179007 -0.65001,6e-6 -1.14768,0.199325 -1.49299,0.597958 -0.34532,0.396104 -0.51798,0.969939 -0.51798,1.721509 0,0.749036 0.17266,1.322871 0.51798,1.721508 0.34531,0.3961 0.84298,0.59415 1.49299,0.594149 0.33008,10e-7 0.64112,-0.05967 0.93312,-0.179006 0.29453,-0.119337 0.57129,-0.299613 0.83028,-0.540828 l 0,0.803625 c -0.26915,0.182815 -0.5548,0.319926 -0.85694,0.411333 -0.29962,0.09141 -0.61701,0.137112 -0.95217,0.137112 -0.86075,0 -1.53869,-0.262797 -2.03381,-0.78839 -0.49513,-0.528131 -0.74269,-1.247965 -0.74269,-2.159503 0,-0.914072 0.24756,-1.633906 0.74269,-2.159503 0.49512,-0.528127 1.17306,-0.792193 2.03381,-0.792199 0.34024,6e-6 0.66017,0.04571 0.95978,0.137111 0.30215,0.08887 0.58526,0.223446 0.84933,0.403717"
       id="path4431" />
    <path
       style="font-size:12px;font-style:normal;font-weight:normal;line-height:125%;letter-spacing:0px;word-spacing:0px;fill:#000000;fill-opacity:1;stroke:none;font-family:Sans"
       d="m 181.81336,46.361381 0,-1.207032 6.3164,3.058594 0,0.931641 -6.3164,3.046875 0,-1.154297 4.83984,-2.332031 -4.83984,-2.34375"
       id="path4525" />
    <path
       style="font-size:12px;font-style:normal;font-weight:normal;line-height:125%;letter-spacing:0px;word-spacing:0px;fill:#000000;fill-opacity:1;stroke:none;font-family:Sans"
       d="m 186.32508,46.361381 0,-1.207032 6.3164,3.058594 0,0.931641 -6.3164,3.046875 0,-1.154297 4.83984,-2.332031 -4.83984,-2.34375"
       id="path4433" />
    <path
       style="font-size:12px;font-style:normal;font-weight:normal;line-height:125%;letter-spacing:0px;word-spacing:0px;fill:#000000;fill-opacity:1;stroke:none;font-family:Sans"
       d="m 198.50672,43.712943 1.18359,0 0,8.748047 -1.18359,0 0,-8.748047"
       id="path4435" />
    <path
       style="font-size:26.00036621px;font-style:normal;font-weight:normal;line-height:125%;letter-spacing:0px;word-spacing:0px;baseline-shift:sub;fill:#000000;fill-opacity:1;stroke:none;font-family:Sans"
       d="M 201.625 49.1875 L 201.625 54.875 L 203.6875 54.875 C 204.32481 54.875 204.81092 54.714262 205.15625 54.4375 C 205.50156 54.160739 205.65625 53.789071 205.65625 53.28125 C 205.65625 52.895309 205.55449 52.568951 205.34375 52.3125 C 205.13554 52.053514 204.84707 51.8625 204.46875 51.78125 C 204.78359 51.730471 205.025 51.611921 205.1875 51.40625 C 205.34996 51.200587 205.43749 50.941611 205.4375 50.59375 C 205.43749 50.144335 205.28614 49.775008 204.96875 49.53125 C 204.65136 49.287502 204.18027 49.187506 203.59375 49.1875 L 201.625 49.1875 z M 202.40625 49.8125 L 203.53125 49.8125 C 203.90703 49.812505 204.19218 49.889066 204.375 50.03125 C 204.56033 50.173444 204.65625 50.369336 204.65625 50.65625 C 204.65625 50.945711 204.56035 51.170314 204.375 51.3125 C 204.19218 51.452155 203.90703 51.531254 203.53125 51.53125 L 202.40625 51.53125 L 202.40625 49.8125 z M 202.40625 52.15625 L 203.625 52.15625 C 204.03887 52.156253 204.36444 52.236133 204.5625 52.40625 C 204.76308 52.573833 204.84375 52.832028 204.84375 53.1875 C 204.84375 53.540436 204.76308 53.796093 204.5625 53.96875 C 204.36444 54.13887 204.03887 54.21875 203.625 54.21875 L 202.40625 54.21875 L 202.40625 52.15625 z "
       id="path4437" />
    <path
       style="font-size:medium;font-style:normal;font-variant:normal;font-weight:normal;font-stretch:normal;text-indent:0;text-align:start;text-decoration:none;line-height:normal;letter-spacing:normal;word-spacing:normal;text-transform:none;direction:ltr;block-progression:tb;writing-mode:lr-tb;text-anchor:start;baseline-shift:baseline;color:#000000;fill:#000000;fill-opacity:1;stroke:none;stroke-width:1px;marker:none;visibility:visible;display:inline;overflow:visible;enable-background:accumulate;font-family:Sans;-inkscape-font-specification:Sans"
       d="m 158.5,57.46875 c -0.5136,10.015116 7.00423,18.144283 14.5625,23.75 7.55827,5.605717 15.25,8.75 15.25,8.75 l 0.375,-0.9375 c 0,0 -7.55827,-3.105717 -15,-8.625 -7.44173,-5.519283 -14.6739,-13.390116 -14.1875,-22.875 l -1,-0.0625 z"
       id="path4376" />
  </g>
</svg>
