<?xml version="1.0" encoding="UTF-8" standalone="no"?>
<!-- Created with Inkscape (http://www.inkscape.org/) -->

<svg
   xmlns:dc="http://purl.org/dc/elements/1.1/"
   xmlns:cc="http://creativecommons.org/ns#"
   xmlns:rdf="http://www.w3.org/1999/02/22-rdf-syntax-ns#"
   xmlns:svg="http://www.w3.org/2000/svg"
   xmlns="http://www.w3.org/2000/svg"
   xmlns:sodipodi="http://sodipodi.sourceforge.net/DTD/sodipodi-0.dtd"
   xmlns:inkscape="http://www.inkscape.org/namespaces/inkscape"
   width="180"
   height="110"
   id="svg2"
   version="1.1"
   inkscape:version="0.48.0 r9654"
   sodipodi:docname="2011-(04)apr-08, 14.svg">
  <defs
     id="defs4" />
  <sodipodi:namedview
     id="base"
     pagecolor="#ffffff"
     bordercolor="#666666"
     borderopacity="1.0"
     inkscape:pageopacity="0.0"
     inkscape:pageshadow="2"
     inkscape:zoom="2"
     inkscape:cx="96.173528"
     inkscape:cy="72.512058"
     inkscape:document-units="px"
     inkscape:current-layer="layer1"
     showgrid="false"
     inkscape:window-width="1589"
     inkscape:window-height="1117"
     inkscape:window-x="1600"
     inkscape:window-y="27"
     inkscape:window-maximized="1"
     showguides="true"
     inkscape:guide-bbox="true" />
  <metadata
     id="metadata7">
    <rdf:RDF>
      <cc:Work
         rdf:about="">
        <dc:format>image/svg+xml</dc:format>
        <dc:type
           rdf:resource="http://purl.org/dc/dcmitype/StillImage" />
        <dc:title />
      </cc:Work>
    </rdf:RDF>
  </metadata>
  <g
     inkscape:label="Layer 1"
     inkscape:groupmode="layer"
     id="layer1">
    <rect
       style="fill:#0000ff;fill-rule:evenodd;stroke:#000000;stroke-width:1px;stroke-linecap:butt;stroke-linejoin:miter;stroke-opacity:1"
       id="rect3007"
       width="58"
       height="0"
       x="-327.22794"
       y="-18.888601"
       transform="scale(1,-1)" />
    <rect
       style="fill:#0000ff;fill-rule:evenodd;stroke:#000000;stroke-width:1px;stroke-linecap:butt;stroke-linejoin:miter;stroke-opacity:1"
       id="rect3007-3"
       width="58"
       height="0"
       x="-263.78784"
       y="2.3229918"
       transform="scale(1,-1)" />
    <path
       style="font-size:medium;font-style:normal;font-variant:normal;font-weight:normal;font-stretch:normal;text-indent:0;text-align:start;text-decoration:none;line-height:normal;letter-spacing:normal;word-spacing:normal;text-transform:none;direction:ltr;block-progression:tb;writing-mode:lr-tb;text-anchor:start;baseline-shift:baseline;color:#000000;fill:#000000;fill-opacity:1;stroke:none;stroke-width:1;marker:none;visibility:visible;display:inline;overflow:visible;enable-background:accumulate;font-family:Sans;-inkscape-font-specification:Sans"
       d="m 107.99263,43.925197 0,0.5 0,16.156245 0,0.5 0.5,0 34.31248,0 0.5,0 0,-0.5 0,-16.156245 0,-0.5 -0.5,0 -34.31248,0 z m 1,1 33.31248,0 0,15.156245 -33.31248,0 z"
       id="path4105"
       inkscape:connector-curvature="0"
       sodipodi:nodetypes="cccccccccccccccccc" />
    <path
       inkscape:connector-curvature="0"
       style="font-size:medium;font-style:normal;font-variant:normal;font-weight:normal;font-stretch:normal;text-indent:0;text-align:start;text-decoration:none;line-height:normal;letter-spacing:normal;word-spacing:normal;text-transform:none;direction:ltr;block-progression:tb;writing-mode:lr-tb;text-anchor:start;baseline-shift:baseline;color:#000000;fill:#000000;fill-opacity:1;stroke:none;stroke-width:1px;marker:none;visibility:visible;display:inline;overflow:visible;enable-background:accumulate;font-family:Sans;-inkscape-font-specification:Sans"
       d="m 107.39888,36.362698 0,1 35.87498,0 0,-1 z"
       id="path3050-8"
       sodipodi:nodetypes="ccccc" />
    <path
       inkscape:connector-curvature="0"
       style="font-size:12px;font-style:normal;font-weight:normal;line-height:125%;letter-spacing:0px;word-spacing:0px;fill:#000000;fill-opacity:1;stroke:none;font-family:Sans"
       d="m 110.95633,25.255633 0,3.263672 3.26365,0 0,0.996094 -3.26365,0 0,3.263672 -0.98437,0 0,-3.263672 -3.26368,0 0,-0.996094 3.26368,0 0,-3.263672 0.98437,0"
       id="path3863-6" />
    <path
       style="font-size:12px;font-style:normal;font-weight:normal;line-height:125%;letter-spacing:0px;word-spacing:0px;fill:#000000;fill-opacity:1;stroke:none;font-family:Sans"
       d="m 121.44183,18.45064 1.18945,0 0,5.314453 c 0,0.937503 0.16992,1.613283 0.50977,2.027344 0.33984,0.410157 0.89062,0.615235 1.65234,0.615234 0.75781,1e-6 1.30664,-0.205077 1.64649,-0.615234 0.33983,-0.414061 0.50975,-1.089841 0.50976,-2.027344 l 0,-5.314453 1.18945,0 0,5.460938 c 0,1.140627 -0.28321,2.001954 -0.84961,2.583984 -0.5625,0.582031 -1.39453,0.873047 -2.49609,0.873047 -1.10547,0 -1.94141,-0.291016 -2.50781,-0.873047 -0.5625,-0.58203 -0.84375,-1.443357 -0.84375,-2.583984 l 0,-5.460938"
       id="path4190"
       inkscape:connector-curvature="0" />
    <path
       style="font-size:7.80010986px;font-style:normal;font-weight:normal;line-height:125%;letter-spacing:0px;word-spacing:0px;baseline-shift:sub;fill:#000000;fill-opacity:1;stroke:none;font-family:Sans"
       d="m 129.96136,23.925197 0,5.6875 2.03125,0 c 0.63731,0 1.12343,-0.160738 1.46875,-0.4375 0.34531,-0.276761 0.53124,-0.648429 0.53125,-1.15625 -1e-5,-0.385941 -0.10176,-0.712299 -0.3125,-0.96875 -0.20821,-0.258986 -0.49668,-0.45 -0.875,-0.53125 0.31485,-0.05078 0.52499,-0.169329 0.6875,-0.375 0.16255,-0.205663 0.25,-0.464639 0.25,-0.8125 0,-0.449415 -0.15137,-0.818742 -0.46875,-1.0625 -0.31739,-0.243748 -0.75722,-0.343744 -1.34375,-0.34375 l -1.96875,0 z m 0.75,0.625 1.15625,0 c 0.37579,5e-6 0.66093,0.07657 0.84375,0.21875 0.18533,0.142194 0.28124,0.338086 0.28125,0.625 -1e-5,0.289461 -0.0959,0.514064 -0.28125,0.65625 -0.18282,0.139655 -0.46796,0.218754 -0.84375,0.21875 l -1.15625,0 0,-1.71875 z m 0,2.34375 1.25,0 c 0.41387,3e-6 0.7082,0.07988 0.90625,0.25 0.20059,0.167583 0.31249,0.425778 0.3125,0.78125 -1e-5,0.352936 -0.11191,0.608593 -0.3125,0.78125 -0.19805,0.17012 -0.49238,0.25 -0.90625,0.25 l -1.25,0 0,-2.0625 z"
       id="path4192"
       inkscape:connector-curvature="0" />
    <path
       style="font-size:medium;font-style:normal;font-variant:normal;font-weight:normal;font-stretch:normal;text-indent:0;text-align:start;text-decoration:none;line-height:normal;letter-spacing:normal;word-spacing:normal;text-transform:none;direction:ltr;block-progression:tb;writing-mode:lr-tb;text-anchor:start;baseline-shift:baseline;color:#000000;fill:#000000;fill-opacity:1;stroke:none;stroke-width:1px;marker:none;visibility:visible;display:inline;overflow:visible;enable-background:accumulate;font-family:Sans;-inkscape-font-specification:Sans"
       d="m 36.146447,2.7928932 0,0.5 0,96.0000068 0,0.5 0.5,0 135.000003,0 0.5,0 0,-0.5 0,-0.500006 -1,0 0,3e-6 -134.000003,0 0,-95.0000038 134.000003,0 0,18.3437508 -6.34375,11.03125 0.84375,0.5 6.4375,-11.125 0.0625,-0.125 0,-0.125 0,-19.0000008 0,-0.5 -0.5,0 -135.000003,0 z"
       id="path3031"
       inkscape:connector-curvature="0"
       sodipodi:nodetypes="ccccccccccccccccccccccccc" />
    <path
       style="font-size:medium;font-style:normal;font-variant:normal;font-weight:normal;font-stretch:normal;text-indent:0;text-align:start;text-decoration:none;line-height:normal;letter-spacing:normal;word-spacing:normal;text-transform:none;direction:ltr;block-progression:tb;writing-mode:lr-tb;text-anchor:start;baseline-shift:baseline;color:#000000;fill:#000000;fill-opacity:1;stroke:none;stroke-width:1px;marker:none;visibility:visible;display:inline;overflow:visible;enable-background:accumulate;font-family:Sans;-inkscape-font-specification:Sans"
       d="m 78.396447,3.2928932 0,18.3437508 -6.3125,10.96875 0.84375,0.5 6.40625,-11.0625 0.0625,-0.125 0,-0.125 0,-18.5000008 z"
       id="path3033"
       inkscape:connector-curvature="0"
       sodipodi:nodetypes="ccccccccc" />
    <path
       style="font-size:medium;font-style:normal;font-variant:normal;font-weight:normal;font-stretch:normal;text-indent:0;text-align:start;text-decoration:none;line-height:normal;letter-spacing:normal;word-spacing:normal;text-transform:none;direction:ltr;block-progression:tb;writing-mode:lr-tb;text-anchor:start;baseline-shift:baseline;color:#000000;fill:#000000;fill-opacity:1;stroke:none;stroke-width:1px;marker:none;visibility:visible;display:inline;overflow:visible;enable-background:accumulate;font-family:Sans;-inkscape-font-specification:Sans"
       d="m 78.396447,82.667894 0,16.125003 1,0 0,-16.125003 z"
       id="path3035"
       inkscape:connector-curvature="0"
       sodipodi:nodetypes="ccccc" />
    <path
       style="font-size:medium;font-style:normal;font-variant:normal;font-weight:normal;font-stretch:normal;text-indent:0;text-align:start;text-decoration:none;line-height:normal;letter-spacing:normal;word-spacing:normal;text-transform:none;direction:ltr;block-progression:tb;writing-mode:lr-tb;text-anchor:start;baseline-shift:baseline;color:#000000;fill:#000000;fill-opacity:1;stroke:none;stroke-width:1px;marker:none;visibility:visible;display:inline;overflow:visible;enable-background:accumulate;font-family:Sans;-inkscape-font-specification:Sans"
       d="m 78.896447,52.449144 0,1 29.156253,0 0,-1 -29.156253,0 z"
       id="path3055"
       inkscape:connector-curvature="0" />
    <path
       style="font-size:medium;font-style:normal;font-variant:normal;font-weight:normal;font-stretch:normal;text-indent:0;text-align:start;text-decoration:none;line-height:normal;letter-spacing:normal;word-spacing:normal;text-transform:none;direction:ltr;block-progression:tb;writing-mode:lr-tb;text-anchor:start;baseline-shift:baseline;color:#000000;fill:#000000;fill-opacity:1;stroke:none;stroke-width:1px;marker:none;visibility:visible;display:inline;overflow:visible;enable-background:accumulate;font-family:Sans;-inkscape-font-specification:Sans"
       d="m 142.89645,52.449144 0,1 29.15625,0 0,-1 -29.15625,0 z"
       id="path3057"
       inkscape:connector-curvature="0" />
    <path
       style="font-size:medium;font-style:normal;font-variant:normal;font-weight:normal;font-stretch:normal;text-indent:0;text-align:start;text-decoration:none;line-height:normal;letter-spacing:normal;word-spacing:normal;text-transform:none;direction:ltr;block-progression:tb;writing-mode:lr-tb;text-anchor:start;baseline-shift:baseline;color:#000000;fill:#000000;fill-opacity:1;fill-rule:nonzero;stroke:none;stroke-width:1;marker:none;visibility:visible;display:inline;overflow:visible;enable-background:accumulate;font-family:Sans;-inkscape-font-specification:Sans"
       d="m 78.911612,1.0580582 c -1.236718,0 -2.25,1.013282 -2.25,2.25 0,1.236718 1.013282,2.25 2.25,2.25 1.236718,0 2.25,-1.013282 2.25,-2.25 0,-1.236718 -1.013282,-2.25 -2.25,-2.25 z"
       id="path3082"
       inkscape:connector-curvature="0" />
    <path
       id="path3084"
       d="m 78.911612,97.058054 c -1.236718,0 -2.25,1.01329 -2.25,2.250006 0,1.23672 1.013282,2.25 2.25,2.25 1.236718,0 2.25,-1.01328 2.25,-2.25 0,-1.236716 -1.013282,-2.250006 -2.25,-2.250006 z"
       style="font-size:medium;font-style:normal;font-variant:normal;font-weight:normal;font-stretch:normal;text-indent:0;text-align:start;text-decoration:none;line-height:normal;letter-spacing:normal;word-spacing:normal;text-transform:none;direction:ltr;block-progression:tb;writing-mode:lr-tb;text-anchor:start;baseline-shift:baseline;color:#000000;fill:#000000;fill-opacity:1;fill-rule:nonzero;stroke:none;stroke-width:1;marker:none;visibility:visible;display:inline;overflow:visible;enable-background:accumulate;font-family:Sans;-inkscape-font-specification:Sans"
       inkscape:connector-curvature="0" />
    <path
       style="font-size:medium;font-style:normal;font-variant:normal;font-weight:normal;font-stretch:normal;text-indent:0;text-align:start;text-decoration:none;line-height:normal;letter-spacing:normal;word-spacing:normal;text-transform:none;direction:ltr;block-progression:tb;writing-mode:lr-tb;text-anchor:start;baseline-shift:baseline;color:#000000;fill:#000000;fill-opacity:1;stroke:none;stroke-width:1;marker:none;visibility:visible;display:inline;overflow:visible;enable-background:accumulate;font-family:Sans;-inkscape-font-specification:Sans"
       d="m 36.458947,40.074144 c -5.932822,0 -10.75,4.817178 -10.75,10.75 0,5.932822 4.817178,10.75 10.75,10.75 5.932822,0 10.75,-4.817178 10.75,-10.75 0,-5.932822 -4.817178,-10.75 -10.75,-10.75 z m 0,1 c 5.392382,0 9.75,4.357618 9.75,9.75 0,5.392382 -4.357618,9.75 -9.75,9.75 -5.392382,0 -9.75,-4.357618 -9.75,-9.75 0,-5.392382 4.357618,-9.75 9.75,-9.75 z"
       id="path3863"
       inkscape:connector-curvature="0" />
    <path
       style="font-size:medium;font-style:normal;font-variant:normal;font-weight:normal;font-stretch:normal;text-indent:0;text-align:start;text-decoration:none;line-height:normal;letter-spacing:normal;word-spacing:normal;text-transform:none;direction:ltr;block-progression:tb;writing-mode:lr-tb;text-anchor:start;baseline-shift:baseline;color:#000000;fill:#000000;fill-opacity:1;stroke:none;stroke-width:1px;marker:none;visibility:visible;display:inline;overflow:visible;enable-background:accumulate;font-family:Sans;-inkscape-font-specification:Sans"
       d="m 19.521447,39.167894 0,24.03125 1,0 0,-24.03125 -1,0 z"
       id="path3866"
       inkscape:connector-curvature="0" />
    <path
       inkscape:connector-curvature="0"
       style="font-size:12px;font-style:normal;font-weight:normal;line-height:125%;letter-spacing:0px;word-spacing:0px;fill:#000000;fill-opacity:1;stroke:none;font-family:Sans"
       d="m 13.613521,36.816925 0,3.263672 3.26365,0 0,0.996094 -3.26365,0 0,3.263672 -0.98437,0 0,-3.263672 -3.2636804,0 0,-0.996094 3.2636804,0 0,-3.263672 0.98437,0"
       id="path3863-6-3" />
    <g
       style="font-size:40px;font-style:normal;font-weight:normal;line-height:125%;letter-spacing:0px;word-spacing:0px;fill:#000000;fill-opacity:1;stroke:none;font-family:Sans"
       id="flowRoot3892"
       transform="translate(-3.1035534,-3.2071068)">
      <path
         d="m 5.4277344,50.212943 5.5312496,0 0,0.996094 -4.3476559,0 0,2.589844 4.1660159,0 0,0.996093 -4.1660159,0 0,3.169922 4.4531249,0 0,0.996094 -5.6367186,0 0,-8.748047"
         style="font-size:12px"
         id="path3901"
         inkscape:connector-curvature="0" />
    </g>
    <path
       style="font-size:12px;font-style:normal;font-weight:normal;line-height:125%;letter-spacing:0px;word-spacing:0px;fill:#000000;fill-opacity:1;stroke:none;font-family:Sans"
       d="m 123.1875,65.21875 0,8.75 1.1875,0 0,-3.71875 1.28125,0 c 0.46875,4e-6 0.82422,0.121097 1.09375,0.3125 0.27343,0.191409 0.55468,0.570316 0.84375,1.15625 l 1.125,2.25 1.28125,0 -1.21875,-2.40625 c -0.2422,-0.492185 -0.47657,-0.874997 -0.71875,-1.15625 -0.23828,-0.281246 -0.4961,-0.44531 -0.75,-0.53125 0.48828,-0.14062 0.87109,-0.417964 1.125,-0.78125 0.25781,-0.363276 0.375,-0.824213 0.375,-1.375 0,-0.843743 -0.22657,-1.457023 -0.71875,-1.875 -0.49219,-0.41796 -1.25001,-0.624991 -2.25,-0.625 l -2.65625,0 z m 1.1875,0.96875 1.46875,0 c 0.57031,8e-6 0.99218,0.144539 1.28125,0.40625 0.29297,0.25782 0.46874,0.613288 0.46875,1.125 -1e-5,0.511725 -0.17578,0.92188 -0.46875,1.1875 -0.28907,0.261723 -0.71094,0.375005 -1.28125,0.375 l -1.46875,0 0,-3.09375 z"
       id="path3097"
       inkscape:connector-curvature="0" />
    <path
       sodipodi:nodetypes="ccccccccc"
       inkscape:connector-curvature="0"
       id="path3118"
       d="m 78.396447,37.292893 0,30.343751 -6.3125,10.96875 0.84375,0.5 6.40625,-11.0625 0.0625,-0.125 0,-0.125 0,-30.500001 z"
       style="font-size:medium;font-style:normal;font-variant:normal;font-weight:normal;font-stretch:normal;text-indent:0;text-align:start;text-decoration:none;line-height:normal;letter-spacing:normal;word-spacing:normal;text-transform:none;direction:ltr;block-progression:tb;writing-mode:lr-tb;text-anchor:start;baseline-shift:baseline;color:#000000;fill:#000000;fill-opacity:1;stroke:none;stroke-width:1px;marker:none;visibility:visible;display:inline;overflow:visible;enable-background:accumulate;font-family:Sans;-inkscape-font-specification:Sans" />
    <path
       sodipodi:nodetypes="ccccc"
       inkscape:connector-curvature="0"
       id="path3120"
       d="m 171.14657,82.667894 0,16.125003 1,0 0,-16.125003 z"
       style="font-size:medium;font-style:normal;font-variant:normal;font-weight:normal;font-stretch:normal;text-indent:0;text-align:start;text-decoration:none;line-height:normal;letter-spacing:normal;word-spacing:normal;text-transform:none;direction:ltr;block-progression:tb;writing-mode:lr-tb;text-anchor:start;baseline-shift:baseline;color:#000000;fill:#000000;fill-opacity:1;stroke:none;stroke-width:1px;marker:none;visibility:visible;display:inline;overflow:visible;enable-background:accumulate;font-family:Sans;-inkscape-font-specification:Sans" />
    <path
       style="font-size:medium;font-style:normal;font-variant:normal;font-weight:normal;font-stretch:normal;text-indent:0;text-align:start;text-decoration:none;line-height:normal;letter-spacing:normal;word-spacing:normal;text-transform:none;direction:ltr;block-progression:tb;writing-mode:lr-tb;text-anchor:start;baseline-shift:baseline;color:#000000;fill:#000000;fill-opacity:1;stroke:none;stroke-width:1px;marker:none;visibility:visible;display:inline;overflow:visible;enable-background:accumulate;font-family:Sans;-inkscape-font-specification:Sans"
       d="m 171.14657,37.292893 0,30.343751 -6.3125,10.96875 0.84375,0.5 6.40625,-11.0625 0.0625,-0.125 0,-0.125 0,-30.500001 z"
       id="path3122"
       inkscape:connector-curvature="0"
       sodipodi:nodetypes="ccccccccc" />
  </g>
</svg>
