<?xml version="1.0" encoding="UTF-8" standalone="no"?>
<!-- Created with Inkscape (http://www.inkscape.org/) -->

<svg
   xmlns:dc="http://purl.org/dc/elements/1.1/"
   xmlns:cc="http://creativecommons.org/ns#"
   xmlns:rdf="http://www.w3.org/1999/02/22-rdf-syntax-ns#"
   xmlns:svg="http://www.w3.org/2000/svg"
   xmlns="http://www.w3.org/2000/svg"
   xmlns:sodipodi="http://sodipodi.sourceforge.net/DTD/sodipodi-0.dtd"
   xmlns:inkscape="http://www.inkscape.org/namespaces/inkscape"
   width="200"
   height="200"
   id="svg2"
   version="1.1"
   inkscape:version="0.48.0 r9654"
   sodipodi:docname="2011-(04)apr-08, 04.svg">
  <defs
     id="defs4" />
  <sodipodi:namedview
     id="base"
     pagecolor="#ffffff"
     bordercolor="#666666"
     borderopacity="1.0"
     inkscape:pageopacity="0.0"
     inkscape:pageshadow="2"
     inkscape:zoom="4.0000002"
     inkscape:cx="97.775403"
     inkscape:cy="101.95394"
     inkscape:document-units="px"
     inkscape:current-layer="layer1"
     showgrid="false"
     inkscape:window-width="1589"
     inkscape:window-height="1117"
     inkscape:window-x="1600"
     inkscape:window-y="27"
     inkscape:window-maximized="1"
     showguides="true"
     inkscape:guide-bbox="true" />
  <metadata
     id="metadata7">
    <rdf:RDF>
      <cc:Work
         rdf:about="">
        <dc:format>image/svg+xml</dc:format>
        <dc:type
           rdf:resource="http://purl.org/dc/dcmitype/StillImage" />
        <dc:title />
      </cc:Work>
    </rdf:RDF>
  </metadata>
  <g
     inkscape:label="Layer 1"
     inkscape:groupmode="layer"
     id="layer1">
    <rect
       style="fill:#0000ff;fill-rule:evenodd;stroke:#000000;stroke-width:1px;stroke-linecap:butt;stroke-linejoin:miter;stroke-opacity:1"
       id="rect3007"
       width="58"
       height="0"
       x="-322.93503"
       y="93.701012" />
    <rect
       style="fill:#0000ff;fill-rule:evenodd;stroke:#000000;stroke-width:1px;stroke-linecap:butt;stroke-linejoin:miter;stroke-opacity:1"
       id="rect3007-3"
       width="58"
       height="0"
       x="-259.49493"
       y="114.91259" />
    <path
       style="font-size:medium;font-style:normal;font-variant:normal;font-weight:normal;font-stretch:normal;text-indent:0;text-align:start;text-decoration:none;line-height:normal;letter-spacing:normal;word-spacing:normal;text-transform:none;direction:ltr;block-progression:tb;writing-mode:lr-tb;text-anchor:start;baseline-shift:baseline;color:#000000;fill:#000000;fill-opacity:1;stroke:none;stroke-width:1px;marker:none;visibility:visible;display:inline;overflow:visible;enable-background:accumulate;font-family:Sans;-inkscape-font-specification:Sans"
       d="m 113.5,13.5 0,0.5 0,69.8125 -13.84375,13.84375 0.6875,0.6875 14,-14 0.15625,-0.125 0,-0.21875 0,-69.5 51.5,0 0,-1 -52,0 -0.5,0 z"
       id="path3008" />
    <path
       style="font-size:medium;font-style:normal;font-variant:normal;font-weight:normal;font-stretch:normal;text-indent:0;text-align:start;text-decoration:none;line-height:normal;letter-spacing:normal;word-spacing:normal;text-transform:none;direction:ltr;block-progression:tb;writing-mode:lr-tb;text-anchor:start;baseline-shift:baseline;color:#000000;fill:#000000;fill-opacity:1;stroke:none;stroke-width:1;marker:none;visibility:visible;display:inline;overflow:visible;enable-background:accumulate;font-family:Sans;-inkscape-font-specification:Sans"
       d="m 113.5,72.8125 0,1.78125 1,0 0,-1.78125 -1,0 z"
       id="path3810" />
    <path
       style="font-size:12px;fill-rule:evenodd;stroke-width:0.625;stroke-linejoin:round"
       d="m 118.4371,63.899328 -4.4195,12.018465 -4.41949,-12.018465 c 2.60927,1.920048 6.1792,1.908985 8.83899,0 z"
       id="path5450" />
    <path
       style="font-size:medium;font-style:normal;font-variant:normal;font-weight:normal;font-stretch:normal;text-indent:0;text-align:start;text-decoration:none;line-height:normal;letter-spacing:normal;word-spacing:normal;text-transform:none;direction:ltr;block-progression:tb;writing-mode:lr-tb;text-anchor:start;baseline-shift:baseline;color:#000000;fill:#000000;fill-opacity:1;stroke:none;stroke-width:1px;marker:none;visibility:visible;display:inline;overflow:visible;enable-background:accumulate;font-family:Sans;-inkscape-font-specification:Sans"
       d="m 99.5,82 0,55.25 1,0 0,-55.25 -1,0 z"
       id="path3010" />
    <path
       style="font-size:medium;font-style:normal;font-variant:normal;font-weight:normal;font-stretch:normal;text-indent:0;text-align:start;text-decoration:none;line-height:normal;letter-spacing:normal;word-spacing:normal;text-transform:none;direction:ltr;block-progression:tb;writing-mode:lr-tb;text-anchor:start;baseline-shift:baseline;color:#000000;fill:#000000;fill-opacity:1;stroke:none;stroke-width:1px;marker:none;visibility:visible;display:inline;overflow:visible;enable-background:accumulate;font-family:Sans;-inkscape-font-specification:Sans"
       d="m 100.34375,123.65625 -0.6875,0.6875 13.84375,13.84375 0,48.3125 1,0 0,-48.5 0,-0.21875 -0.15625,-0.125 -14,-14 z"
       id="path3018" />
    <path
       style="font-size:medium;font-style:normal;font-variant:normal;font-weight:normal;font-stretch:normal;text-indent:0;text-align:start;text-decoration:none;line-height:normal;letter-spacing:normal;word-spacing:normal;text-transform:none;direction:ltr;block-progression:tb;writing-mode:lr-tb;text-anchor:start;baseline-shift:baseline;color:#000000;fill:#000000;fill-opacity:1;stroke:none;stroke-width:1px;marker:none;visibility:visible;display:inline;overflow:visible;enable-background:accumulate;font-family:Sans;-inkscape-font-specification:Sans"
       d="m 21.5,185.75 0,1 144.5,0 0,-1 -144.5,0 z"
       id="path3020" />
    <path
       style="font-size:medium;font-style:normal;font-variant:normal;font-weight:normal;font-stretch:normal;text-indent:0;text-align:start;text-decoration:none;line-height:normal;letter-spacing:normal;word-spacing:normal;text-transform:none;direction:ltr;block-progression:tb;writing-mode:lr-tb;text-anchor:start;baseline-shift:baseline;color:#000000;fill:#000000;fill-opacity:1;stroke:none;stroke-width:1.58823538;marker:none;visibility:visible;display:inline;overflow:visible;enable-background:accumulate;font-family:Sans;-inkscape-font-specification:Sans"
       d="M 170.125 9.5625 C 167.68145 9.5625 165.6875 11.525187 165.6875 13.96875 C 165.6875 16.412312 167.68145 18.40625 170.125 18.40625 C 172.56857 18.40625 174.5625 16.412312 174.5625 13.96875 C 174.5625 11.525187 172.56857 9.5625 170.125 9.5625 z M 170.125 10.53125 C 172.02813 10.53125 173.5625 12.065627 173.5625 13.96875 C 173.5625 15.871872 172.02813 17.4375 170.125 17.4375 C 168.22189 17.4375 166.6875 15.871872 166.6875 13.96875 C 166.6875 12.065627 168.22189 10.53125 170.125 10.53125 z "
       id="path5572" />
    <path
       style="font-size:medium;font-style:normal;font-variant:normal;font-weight:normal;font-stretch:normal;text-indent:0;text-align:start;text-decoration:none;line-height:normal;letter-spacing:normal;word-spacing:normal;text-transform:none;direction:ltr;block-progression:tb;writing-mode:lr-tb;text-anchor:start;baseline-shift:baseline;color:#000000;fill:#000000;fill-opacity:1;stroke:none;stroke-width:1.58823538;marker:none;visibility:visible;display:inline;overflow:visible;enable-background:accumulate;font-family:Sans;-inkscape-font-specification:Sans"
       d="M 170.125 181.8125 C 167.68145 181.8125 165.6875 183.77519 165.6875 186.21875 C 165.6875 188.66231 167.68145 190.65625 170.125 190.65625 C 172.56857 190.65625 174.5625 188.66231 174.5625 186.21875 C 174.5625 183.77519 172.56857 181.8125 170.125 181.8125 z M 170.125 182.78125 C 172.02813 182.78125 173.5625 184.31563 173.5625 186.21875 C 173.5625 188.12187 172.02813 189.6875 170.125 189.6875 C 168.22189 189.6875 166.6875 188.12187 166.6875 186.21875 C 166.6875 184.31563 168.22189 182.78125 170.125 182.78125 z "
       id="path5576" />
    <path
       style="font-size:medium;font-style:normal;font-variant:normal;font-weight:normal;font-stretch:normal;text-indent:0;text-align:start;text-decoration:none;line-height:normal;letter-spacing:normal;word-spacing:normal;text-transform:none;direction:ltr;block-progression:tb;writing-mode:lr-tb;text-anchor:start;baseline-shift:baseline;color:#000000;fill:#000000;fill-opacity:1;stroke:none;stroke-width:1.58823538;marker:none;visibility:visible;display:inline;overflow:visible;enable-background:accumulate;font-family:Sans;-inkscape-font-specification:Sans"
       d="M 17.5 181.8125 C 15.056446 181.8125 13.0625 183.77519 13.0625 186.21875 C 13.0625 188.66231 15.056446 190.65625 17.5 190.65625 C 19.943561 190.65625 21.9375 188.66231 21.9375 186.21875 C 21.9375 183.77519 19.943561 181.8125 17.5 181.8125 z M 17.5 182.78125 C 19.403125 182.78125 20.9375 184.31563 20.9375 186.21875 C 20.9375 188.12187 19.403125 189.6875 17.5 189.6875 C 15.596882 189.6875 14.0625 188.12187 14.0625 186.21875 C 14.0625 184.31563 15.596882 182.78125 17.5 182.78125 z "
       id="path5580" />
    <path
       style="font-size:medium;font-style:normal;font-variant:normal;font-weight:normal;font-stretch:normal;text-indent:0;text-align:start;text-decoration:none;line-height:normal;letter-spacing:normal;word-spacing:normal;text-transform:none;direction:ltr;block-progression:tb;writing-mode:lr-tb;text-anchor:start;baseline-shift:baseline;color:#000000;fill:#000000;fill-opacity:1;stroke:none;stroke-width:1.58823538;marker:none;visibility:visible;display:inline;overflow:visible;enable-background:accumulate;font-family:Sans;-inkscape-font-specification:Sans"
       d="M 17.5 105.34375 C 15.056446 105.34375 13.0625 107.33769 13.0625 109.78125 C 13.0625 112.22481 15.056446 114.1875 17.5 114.1875 C 19.943561 114.1875 21.9375 112.22481 21.9375 109.78125 C 21.9375 107.33769 19.943561 105.34375 17.5 105.34375 z M 17.5 106.34375 C 19.403125 106.34375 20.9375 107.87813 20.9375 109.78125 C 20.9375 111.68437 19.403125 113.21875 17.5 113.21875 C 15.596882 113.21875 14.0625 111.68437 14.0625 109.78125 C 14.0625 107.87813 15.596882 106.34375 17.5 106.34375 z "
       id="path5584" />
    <path
       style="font-size:medium;font-style:normal;font-variant:normal;font-weight:normal;font-stretch:normal;text-indent:0;text-align:start;text-decoration:none;line-height:normal;letter-spacing:normal;word-spacing:normal;text-transform:none;direction:ltr;block-progression:tb;writing-mode:lr-tb;text-anchor:start;baseline-shift:baseline;color:#000000;fill:#000000;fill-opacity:1;stroke:none;stroke-width:1px;marker:none;visibility:visible;display:inline;overflow:visible;enable-background:accumulate;font-family:Sans;-inkscape-font-specification:Sans"
       d="m 21.34375,109.125 0,1 78.125,0 0,-1 -78.125,0 z"
       id="path3798" />
    <path
       style="font-size:medium;font-style:normal;font-variant:normal;font-weight:normal;font-stretch:normal;text-indent:0;text-align:start;text-decoration:none;line-height:normal;letter-spacing:normal;word-spacing:normal;text-transform:none;direction:ltr;block-progression:tb;writing-mode:lr-tb;text-anchor:start;baseline-shift:baseline;color:#000000;fill:#000000;fill-opacity:1;fill-rule:nonzero;stroke:none;stroke-width:1px;marker:none;visibility:visible;display:inline;overflow:visible;enable-background:accumulate;font-family:Sans;-inkscape-font-specification:Sans"
       d="m 114.5,128.625 -0.84375,0.84375 -7.96875,7.96875 -0.84375,0.84375 1.21875,0 7.9375,0 0.5,0 0,-0.5 0,-7.96875 0,-1.1875 z"
       id="path5554" />
    <path
       style="font-size:medium;font-style:normal;font-variant:normal;font-weight:normal;font-stretch:normal;text-indent:0;text-align:start;text-decoration:none;line-height:normal;letter-spacing:normal;word-spacing:normal;text-transform:none;direction:ltr;block-progression:tb;writing-mode:lr-tb;text-anchor:start;baseline-shift:baseline;color:#000000;fill:#000000;fill-opacity:1;fill-rule:nonzero;stroke:none;stroke-width:1px;marker:none;visibility:visible;display:inline;overflow:visible;enable-background:accumulate;font-family:Sans;-inkscape-font-specification:Sans"
       d="m 113.5,131.03125 0,6.25 -6.25,0 6.25,-6.25 z"
       id="path3800" />
    <path
       style="font-size:medium;font-style:normal;font-variant:normal;font-weight:normal;font-stretch:normal;text-indent:0;text-align:start;text-decoration:none;line-height:normal;letter-spacing:normal;word-spacing:normal;text-transform:none;direction:ltr;block-progression:tb;writing-mode:lr-tb;text-anchor:start;baseline-shift:baseline;color:#000000;fill:#000000;fill-opacity:1;fill-rule:nonzero;stroke:none;stroke-width:1;marker:none;visibility:visible;display:inline;overflow:visible;enable-background:accumulate;font-family:Sans;-inkscape-font-specification:Sans"
       d="m 104.5,22.5 0,0.5 0,34.125 0,0.5 0.5,0 17.625,0 0.5,0 0,-0.5 0,-34.125 0,-0.5 -0.5,0 -17.625,0 -0.5,0 z"
       id="path5588" />
    <path
       style="font-size:medium;font-style:normal;font-variant:normal;font-weight:normal;font-stretch:normal;text-indent:0;text-align:start;text-decoration:none;line-height:normal;letter-spacing:normal;word-spacing:normal;text-transform:none;direction:ltr;block-progression:tb;writing-mode:lr-tb;text-anchor:start;baseline-shift:baseline;color:#000000;fill:#ffffff;fill-opacity:1;fill-rule:nonzero;stroke:none;stroke-width:1;marker:none;visibility:visible;display:inline;overflow:visible;enable-background:accumulate;font-family:Sans;-inkscape-font-specification:Sans"
       d="m 105.5,23.5 16.625,0 0,33.125 -16.625,0 0,-33.125 z"
       id="rect3802" />
    <path
       style="font-size:medium;font-style:normal;font-variant:normal;font-weight:normal;font-stretch:normal;text-indent:0;text-align:start;text-decoration:none;line-height:normal;letter-spacing:normal;word-spacing:normal;text-transform:none;direction:ltr;block-progression:tb;writing-mode:lr-tb;text-anchor:start;baseline-shift:baseline;color:#000000;fill:#000000;fill-opacity:1;stroke:none;stroke-width:1px;marker:none;visibility:visible;display:inline;overflow:visible;enable-background:accumulate;font-family:Sans;-inkscape-font-specification:Sans"
       d="m 169.625,21 0,157 1,0 0,-157 -1,0 z"
       id="path3804" />
    <path
       style="font-size:medium;font-style:normal;font-variant:normal;font-weight:normal;font-stretch:normal;text-indent:0;text-align:start;text-decoration:none;line-height:normal;letter-spacing:normal;word-spacing:normal;text-transform:none;direction:ltr;block-progression:tb;writing-mode:lr-tb;text-anchor:start;baseline-shift:baseline;color:#000000;fill:#000000;fill-opacity:1;stroke:none;stroke-width:1px;marker:none;visibility:visible;display:inline;overflow:visible;enable-background:accumulate;font-family:Sans;-inkscape-font-specification:Sans"
       d="m 17.125,117.15625 0,62.15625 1,0 0,-62.15625 -1,0 z"
       id="path3806" />
    <path
       style="font-size:medium;font-style:normal;font-variant:normal;font-weight:normal;font-stretch:normal;text-indent:0;text-align:start;text-decoration:none;line-height:normal;letter-spacing:normal;word-spacing:normal;text-transform:none;direction:ltr;block-progression:tb;writing-mode:lr-tb;text-anchor:start;baseline-shift:baseline;color:#000000;fill:#000000;fill-opacity:1;stroke:none;stroke-width:1px;marker:none;visibility:visible;display:inline;overflow:visible;enable-background:accumulate;font-family:Sans;-inkscape-font-specification:Sans"
       d="m 121.5,82 0,55.25 1,0 0,-55.25 -1,0 z"
       id="path3808" />
    <path
       style="font-size:medium;font-style:normal;font-variant:normal;font-weight:normal;font-stretch:normal;text-indent:0;text-align:start;text-decoration:none;line-height:normal;letter-spacing:normal;word-spacing:normal;text-transform:none;direction:ltr;block-progression:tb;writing-mode:lr-tb;text-anchor:start;baseline-shift:baseline;color:#000000;fill:#000000;fill-opacity:1;stroke:none;stroke-width:1;marker:none;visibility:visible;display:inline;overflow:visible;enable-background:accumulate;font-family:Sans;-inkscape-font-specification:Sans"
       d="m 113.5,166.8125 0,1.78125 1,0 0,-1.78125 -1,0 z"
       id="path5166" />
    <path
       style="font-size:12px;fill-rule:evenodd;stroke-width:0.625;stroke-linejoin:round"
       d="m 118.4371,157.89933 -4.4195,12.01847 -4.41949,-12.01847 c 2.60927,1.92005 6.1792,1.90899 8.83899,0 z"
       id="path5410" />
    <path
       style="font-size:medium;font-style:normal;font-variant:normal;font-weight:normal;font-stretch:normal;text-indent:0;text-align:start;text-decoration:none;line-height:normal;letter-spacing:normal;word-spacing:normal;text-transform:none;direction:ltr;block-progression:tb;writing-mode:lr-tb;text-anchor:start;baseline-shift:baseline;color:#000000;fill:#000000;fill-opacity:1;stroke:none;stroke-width:1;marker:none;visibility:visible;display:inline;overflow:visible;enable-background:accumulate;font-family:Sans;-inkscape-font-specification:Sans"
       d="m 60.96875,109.15625 0,1 1.78125,0 0,-1 -1.78125,0 z"
       id="path5168" />
    <path
       style="font-size:12px;fill-rule:evenodd;stroke-width:0.625;stroke-linejoin:round"
       d="m 52.052567,105.22393 12.018465,4.4195 -12.018465,4.41949 c 1.920048,-2.60927 1.908985,-6.1792 0,-8.83899 z"
       id="path5402" />
    <path
       style="font-size:12px;font-style:normal;font-weight:normal;line-height:125%;letter-spacing:0px;word-spacing:0px;fill:#000000;fill-opacity:1;stroke:none;font-family:Sans"
       d="m 180.51953,23.437552 0,3.263672 3.26367,0 0,0.996094 -3.26367,0 0,3.263672 -0.98437,0 0,-3.263672 -3.26368,0 0,-0.996094 3.26368,0 0,-3.263672 0.98437,0"
       id="path5356" />
    <path
       style="font-size:12px;font-style:normal;font-weight:normal;line-height:125%;letter-spacing:0px;word-spacing:0px;fill:#000000;fill-opacity:1;stroke:none;font-family:Sans"
       d="m 130.37606,81.6525 0,3.263672 3.26367,0 0,0.996094 -3.26367,0 0,3.263672 -0.98437,0 0,-3.263672 -3.26368,0 0,-0.996094 3.26368,0 0,-3.263672 0.98437,0"
       id="path5359" />
    <path
       style="font-size:12px;font-style:normal;font-weight:normal;line-height:125%;letter-spacing:0px;word-spacing:0px;fill:#000000;fill-opacity:1;stroke:none;font-family:Sans"
       d="m 26.02252,117.41506 0,3.26367 3.26367,0 0,0.9961 -3.26367,0 0,3.26367 -0.98437,0 0,-3.26367 -3.26368,0 0,-0.9961 3.26368,0 0,-3.26367 0.98437,0"
       id="path5362" />
    <path
       style="font-size:12px;font-style:normal;font-weight:normal;line-height:125%;letter-spacing:0px;word-spacing:0px;fill:#000000;fill-opacity:1;stroke:none;font-family:Sans"
       d="m 25.542969,145.21294 1.189453,0 0,5.31446 c -2e-6,0.9375 0.169919,1.61328 0.509765,2.02734 0.339841,0.41016 0.890622,0.61524 1.652344,0.61523 0.757808,1e-5 1.306635,-0.20507 1.646485,-0.61523 0.339837,-0.41406 0.509759,-1.08984 0.509765,-2.02734 l 0,-5.31446 1.189453,0 0,5.46094 c -7e-6,1.14063 -0.28321,2.00195 -0.849609,2.58398 -0.562506,0.58204 -1.394537,0.87305 -2.496094,0.87305 -1.105472,0 -1.941408,-0.29101 -2.507812,-0.87305 -0.562502,-0.58203 -0.843751,-1.44335 -0.84375,-2.58398 l 0,-5.46094"
       id="path5365" />
    <path
       style="font-size:26.00036621px;font-style:normal;font-weight:normal;line-height:125%;letter-spacing:0px;word-spacing:0px;baseline-shift:sub;fill:#000000;fill-opacity:1;stroke:none;font-family:Sans"
       d="M 34.0625 150.6875 L 34.0625 156.375 L 36.09375 156.375 C 36.73106 156.375 37.217179 156.21426 37.5625 155.9375 C 37.907813 155.66074 38.093745 155.28907 38.09375 154.78125 C 38.093745 154.3953 37.991991 154.06895 37.78125 153.8125 C 37.57304 153.55351 37.284572 153.36255 36.90625 153.28125 C 37.221094 153.23047 37.431243 153.11192 37.59375 152.90625 C 37.756243 152.70058 37.843746 152.44161 37.84375 152.09375 C 37.843746 151.64433 37.692383 151.27501 37.375 151.03125 C 37.057609 150.7875 36.617778 150.68751 36.03125 150.6875 L 34.0625 150.6875 z M 34.8125 151.3125 L 35.96875 151.3125 C 36.344533 151.31251 36.629682 151.38906 36.8125 151.53125 C 36.997852 151.67344 37.093746 151.86934 37.09375 152.15625 C 37.093746 152.44571 36.997851 152.67031 36.8125 152.8125 C 36.629682 152.95218 36.344533 153.03125 35.96875 153.03125 L 34.8125 153.03125 L 34.8125 151.3125 z M 34.8125 153.65625 L 36.0625 153.65625 C 36.47637 153.65626 36.770697 153.73614 36.96875 153.90625 C 37.169335 154.07384 37.281246 154.33202 37.28125 154.6875 C 37.281246 155.04043 37.169335 155.29609 36.96875 155.46875 C 36.770697 155.63892 36.47637 155.71876 36.0625 155.71875 L 34.8125 155.71875 L 34.8125 153.65625 z "
       id="path5367" />
    <path
       style="font-size:26.00036621px;font-style:normal;font-weight:normal;line-height:125%;letter-spacing:0px;word-spacing:0px;baseline-shift:sub;fill:#000000;fill-opacity:1;stroke:none;font-family:Sans"
       d="m 39.401942,150.67468 3.595363,0 0,0.64747 -2.826016,0 0,1.68342 2.707948,0 0,0.64747 -2.707948,0 0,2.06048 2.894572,0 0,0.64747 -3.663919,0 0,-5.68631"
       id="path5369" />
    <path
       style="font-size:12px;font-style:normal;font-weight:normal;line-height:125%;letter-spacing:0px;word-spacing:0px;fill:#000000;fill-opacity:1;stroke:none;font-family:Sans"
       d="m 127.23855,105.42598 1.18945,0 0,5.31446 c 0,0.9375 0.16992,1.61328 0.50977,2.02734 0.33984,0.41016 0.89062,0.61524 1.65234,0.61523 0.75781,1e-5 1.30663,-0.20507 1.64648,-0.61523 0.33984,-0.41406 0.50976,-1.08984 0.50977,-2.02734 l 0,-5.31446 1.18945,0 0,5.46094 c 0,1.14063 -0.28321,2.00195 -0.84961,2.58398 -0.5625,0.58204 -1.39453,0.87305 -2.49609,0.87305 -1.10547,0 -1.94141,-0.29101 -2.50781,-0.87305 -0.5625,-0.58203 -0.84375,-1.44335 -0.84375,-2.58398 l 0,-5.46094"
       id="path5372" />
    <path
       style="font-size:26.00036621px;font-style:normal;font-weight:normal;line-height:125%;letter-spacing:0px;word-spacing:0px;baseline-shift:sub;fill:#000000;fill-opacity:1;stroke:none;font-family:Sans"
       d="m 140.00825,111.32571 0,0.81125 c -0.259,-0.24121 -0.53576,-0.42149 -0.83029,-0.54083 -0.292,-0.11933 -0.60304,-0.179 -0.93312,-0.17901 -0.65001,1e-5 -1.14767,0.19933 -1.49299,0.59796 -0.34532,0.3961 -0.51797,0.96994 -0.51797,1.72151 0,0.74903 0.17265,1.32287 0.51797,1.72151 0.34532,0.3961 0.84298,0.59415 1.49299,0.59415 0.33008,0 0.64112,-0.0597 0.93312,-0.17901 0.29453,-0.11934 0.57129,-0.29961 0.83029,-0.54083 l 0,0.80363 c -0.26915,0.18281 -0.5548,0.31992 -0.85695,0.41133 -0.29962,0.0914 -0.617,0.13711 -0.95216,0.13711 -0.86076,0 -1.5387,-0.2628 -2.03382,-0.78839 -0.49512,-0.52813 -0.74269,-1.24796 -0.74269,-2.1595 0,-0.91407 0.24757,-1.63391 0.74269,-2.15951 0.49512,-0.52812 1.17306,-0.79219 2.03382,-0.79219 0.34023,0 0.66016,0.0457 0.95978,0.13711 0.30215,0.0889 0.58525,0.22344 0.84933,0.40371"
       id="path5374" />
    <path
       style="font-size:26.00036621px;font-style:normal;font-weight:normal;line-height:125%;letter-spacing:0px;word-spacing:0px;baseline-shift:sub;fill:#000000;fill-opacity:1;stroke:none;font-family:Sans"
       d="m 141.20416,110.88772 3.59536,0 0,0.64747 -2.82601,0 0,1.68342 2.70795,0 0,0.64747 -2.70795,0 0,2.06048 2.89457,0 0,0.64747 -3.66392,0 0,-5.68631"
       id="path5376" />
    <path
       style="font-size:12px;font-style:normal;font-weight:normal;line-height:125%;letter-spacing:0px;word-spacing:0px;fill:#000000;fill-opacity:1;stroke:none;font-family:Sans"
       d="m 182.23855,39.67598 1.18945,0 0,5.31446 c 0,0.9375 0.16992,1.61328 0.50977,2.02734 0.33984,0.41016 0.89062,0.61524 1.65234,0.61523 0.75781,1e-5 1.30664,-0.20507 1.64649,-0.61523 0.33983,-0.41406 0.50975,-1.08984 0.50976,-2.02734 l 0,-5.31446 1.18945,0 0,5.46094 c 0,1.14063 -0.28321,2.00195 -0.84961,2.58398 -0.5625,0.58204 -1.39453,0.87305 -2.49609,0.87305 -1.10547,0 -1.94141,-0.29101 -2.50781,-0.87305 -0.5625,-0.58203 -0.84375,-1.44335 -0.84375,-2.58398 l 0,-5.46094"
       id="path5379" />
    <path
       style="font-size:12px;font-style:normal;font-weight:normal;line-height:125%;letter-spacing:0px;word-spacing:0px;fill:#000000;fill-opacity:1;stroke:none;font-family:Sans"
       d="m 122.87331,63.17598 1.1836,0 0,8.74805 -1.1836,0 0,-8.74805"
       id="path5382" />
    <path
       style="font-size:26.00036621px;font-style:normal;font-weight:normal;line-height:125%;letter-spacing:0px;word-spacing:0px;baseline-shift:sub;fill:#000000;fill-opacity:1;stroke:none;font-family:Sans"
       d="m 130.25825,69.07571 0,0.81125 c -0.259,-0.24121 -0.53576,-0.42149 -0.83029,-0.54083 -0.292,-0.11933 -0.60304,-0.179 -0.93312,-0.17901 -0.65001,1e-5 -1.14767,0.19933 -1.49299,0.59796 -0.34532,0.3961 -0.51797,0.96994 -0.51797,1.72151 0,0.74903 0.17265,1.32287 0.51797,1.72151 0.34532,0.3961 0.84298,0.59415 1.49299,0.59415 0.33008,0 0.64112,-0.0597 0.93312,-0.17901 0.29453,-0.11934 0.57129,-0.29961 0.83029,-0.54083 l 0,0.80363 c -0.26915,0.18281 -0.5548,0.31992 -0.85695,0.41133 -0.29962,0.0914 -0.617,0.13711 -0.95216,0.13711 -0.86076,0 -1.5387,-0.2628 -2.03382,-0.78839 -0.49512,-0.52813 -0.74268,-1.24796 -0.74268,-2.1595 0,-0.91407 0.24756,-1.63391 0.74268,-2.15951 0.49512,-0.52812 1.17306,-0.79219 2.03382,-0.79219 0.34024,0 0.66016,0.0457 0.95978,0.13711 0.30215,0.0889 0.58526,0.22344 0.84933,0.40371"
       id="path5384" />
    <path
       style="font-size:12px;font-style:normal;font-weight:normal;line-height:125%;letter-spacing:0px;word-spacing:0px;fill:#000000;fill-opacity:1;stroke:none;font-family:Sans"
       d="m 123.30753,158.12075 1.18359,0 0,8.74805 -1.18359,0 0,-8.74805"
       id="path5387" />
    <path
       style="font-size:26.00036621px;font-style:normal;font-weight:normal;line-height:125%;letter-spacing:0px;word-spacing:0px;baseline-shift:sub;fill:#000000;fill-opacity:1;stroke:none;font-family:Sans"
       d="m 126.43439,163.58249 3.59537,0 0,0.64747 -2.82602,0 0,1.68342 2.70795,0 0,0.64747 -2.70795,0 0,2.06048 2.89457,0 0,0.64747 -3.66392,0 0,-5.68631"
       id="path5389" />
    <path
       style="font-size:12px;font-style:normal;font-weight:normal;line-height:125%;letter-spacing:0px;word-spacing:0px;fill:#000000;fill-opacity:1;stroke:none;font-family:Sans"
       d="m 52.80753,91.870753 1.183594,0 0,8.748047 -1.183594,0 0,-8.748047"
       id="path5392" />
    <path
       style="font-size:26.00036621px;font-style:normal;font-weight:normal;line-height:125%;letter-spacing:0px;word-spacing:0px;baseline-shift:sub;fill:#000000;fill-opacity:1;stroke:none;font-family:Sans"
       d="M 55.9375 97.34375 L 55.9375 103.03125 L 57.96875 103.03125 C 58.60606 103.03125 59.092179 102.87051 59.4375 102.59375 C 59.782813 102.31699 59.968745 101.94532 59.96875 101.4375 C 59.968745 101.05155 59.866991 100.7252 59.65625 100.46875 C 59.44804 100.20976 59.159572 100.0188 58.78125 99.9375 C 59.096094 99.88672 59.337493 99.76817 59.5 99.5625 C 59.662493 99.35683 59.718746 99.09786 59.71875 98.75 C 59.718746 98.30058 59.567383 97.93126 59.25 97.6875 C 58.932609 97.44375 58.492778 97.34376 57.90625 97.34375 L 55.9375 97.34375 z M 56.71875 97.96875 L 57.84375 97.96875 C 58.219533 97.96876 58.504682 98.04531 58.6875 98.1875 C 58.872852 98.32969 58.968746 98.52559 58.96875 98.8125 C 58.968746 99.10196 58.872851 99.32656 58.6875 99.46875 C 58.504682 99.60843 58.219533 99.6875 57.84375 99.6875 L 56.71875 99.6875 L 56.71875 97.96875 z M 56.71875 100.3125 L 57.9375 100.3125 C 58.35137 100.31251 58.645697 100.39239 58.84375 100.5625 C 59.044335 100.73009 59.156246 100.98827 59.15625 101.34375 C 59.156246 101.69668 59.044335 101.95234 58.84375 102.125 C 58.645697 102.29517 58.35137 102.37501 57.9375 102.375 L 56.71875 102.375 L 56.71875 100.3125 z "
       id="path5394" />
  </g>
</svg>
