<?xml version="1.0" encoding="UTF-8" standalone="no"?>
<!-- Created with Inkscape (http://www.inkscape.org/) -->

<svg
   xmlns:dc="http://purl.org/dc/elements/1.1/"
   xmlns:cc="http://creativecommons.org/ns#"
   xmlns:rdf="http://www.w3.org/1999/02/22-rdf-syntax-ns#"
   xmlns:svg="http://www.w3.org/2000/svg"
   xmlns="http://www.w3.org/2000/svg"
   xmlns:sodipodi="http://sodipodi.sourceforge.net/DTD/sodipodi-0.dtd"
   xmlns:inkscape="http://www.inkscape.org/namespaces/inkscape"
   width="100"
   height="60"
   id="svg2"
   version="1.1"
   inkscape:version="0.48.0 r9654"
   sodipodi:docname="2011-(03)mar-28, 03.svg">
  <defs
     id="defs4" />
  <sodipodi:namedview
     id="base"
     pagecolor="#ffffff"
     bordercolor="#666666"
     borderopacity="1.0"
     inkscape:pageopacity="0.0"
     inkscape:pageshadow="2"
     inkscape:zoom="2.0000001"
     inkscape:cx="94.957973"
     inkscape:cy="39.439989"
     inkscape:document-units="px"
     inkscape:current-layer="layer1"
     showgrid="false"
     inkscape:window-width="1589"
     inkscape:window-height="1117"
     inkscape:window-x="1600"
     inkscape:window-y="27"
     inkscape:window-maximized="1"
     showguides="true"
     inkscape:guide-bbox="true" />
  <metadata
     id="metadata7">
    <rdf:RDF>
      <cc:Work
         rdf:about="">
        <dc:format>image/svg+xml</dc:format>
        <dc:type
           rdf:resource="http://purl.org/dc/dcmitype/StillImage" />
        <dc:title />
      </cc:Work>
    </rdf:RDF>
  </metadata>
  <g
     inkscape:label="Layer 1"
     inkscape:groupmode="layer"
     id="layer1">
    <rect
       style="fill:#0000ff;fill-rule:evenodd;stroke:#000000;stroke-width:1px;stroke-linecap:butt;stroke-linejoin:miter;stroke-opacity:1"
       id="rect3007"
       width="58"
       height="0"
       x="-451.49579"
       y="-5.8352985"
       transform="scale(1,-1)" />
    <rect
       style="fill:#0000ff;fill-rule:evenodd;stroke:#000000;stroke-width:1px;stroke-linecap:butt;stroke-linejoin:miter;stroke-opacity:1"
       id="rect3007-3"
       width="58"
       height="0"
       x="-388.05569"
       y="15.376292"
       transform="scale(1,-1)" />
    <path
       style="font-size:medium;font-style:normal;font-variant:normal;font-weight:normal;font-stretch:normal;text-indent:0;text-align:start;text-decoration:none;line-height:normal;letter-spacing:normal;word-spacing:normal;text-transform:none;direction:ltr;block-progression:tb;writing-mode:lr-tb;text-anchor:start;baseline-shift:baseline;color:#000000;fill:#000000;fill-opacity:1;stroke:none;stroke-width:1px;marker:none;visibility:visible;display:inline;overflow:visible;enable-background:accumulate;font-family:Sans;-inkscape-font-specification:Sans"
       d="m 18.25,42.102437 0,-0.5 0,-37.3125 1,0 0,36.8125 75.84375,0 0,1 -76.34375,0 z"
       id="path3034" />
    <path
       style="font-size:12px;font-style:normal;font-variant:normal;font-weight:normal;font-stretch:normal;text-indent:0;text-align:start;text-decoration:none;line-height:normal;letter-spacing:normal;word-spacing:normal;text-transform:none;direction:ltr;block-progression:tb;writing-mode:lr-tb;text-anchor:start;baseline-shift:baseline;color:#000000;fill-opacity:1;fill-rule:evenodd;stroke:none;stroke-width:0.625;marker:none;visibility:visible;display:inline;overflow:visible;enable-background:accumulate;font-family:Sans;-inkscape-font-specification:Sans"
       d="M 18.75,2.625 A 0.31253125,0.31253125 0 0 0 18.46875,2.84375 L 14.03125,14.875 a 0.31253125,0.31253125 0 0 0 0,0.1875 0.31253125,0.31253125 0 0 0 0.5,0.15625 c 2.499212,-1.839063 5.916106,-1.832084 8.46875,0 A 0.31253125,0.31253125 0 0 0 23.46875,14.875 L 19.0625,2.84375 A 0.31253125,0.31253125 0 0 0 18.75,2.625 z"
       id="path3060" />
    <path
       style="font-size:12px;font-style:normal;font-variant:normal;font-weight:normal;font-stretch:normal;text-indent:0;text-align:start;text-decoration:none;line-height:normal;letter-spacing:normal;word-spacing:normal;text-transform:none;direction:ltr;block-progression:tb;writing-mode:lr-tb;text-anchor:start;baseline-shift:baseline;color:#000000;fill-opacity:1;fill-rule:evenodd;stroke:none;stroke-width:0.625;marker:none;visibility:visible;display:inline;overflow:visible;enable-background:accumulate;font-family:Sans;-inkscape-font-specification:Sans"
       d="M 84.34375,36.875 A 0.31253125,0.31253125 0 0 0 84.1875,36.96875 0.31253125,0.31253125 0 0 0 84.15625,37.375 c 1.839063,2.499212 1.832084,5.916106 0,8.46875 A 0.31253125,0.31253125 0 0 0 84.125,46.125 a 0.31253125,0.31253125 0 0 0 0.15625,0.1875 0.31253125,0.31253125 0 0 0 0.25,0 l 12,-4.40625 a 0.31253125,0.31253125 0 0 0 0.0625,-0.5625 0.31253125,0.31253125 0 0 0 -0.0625,-0.03125 l -12,-4.40625 A 0.31253125,0.31253125 0 0 0 84.34375,36.875 z"
       id="path3056" />
    <path
       style="font-size:12px;font-style:normal;font-weight:normal;line-height:125%;letter-spacing:0px;word-spacing:0px;fill:#000000;fill-opacity:1;stroke:none;font-family:Sans"
       d="m 3.5294856,4.1774093 1.1894532,0 0,5.3144529 c -2.3e-6,0.9375028 0.1699194,1.6132828 0.5097656,2.0273438 0.3398407,0.410157 0.8906214,0.615235 1.6523437,0.615234 0.7578074,1e-6 1.306635,-0.205077 1.6464844,-0.615234 0.3398374,-0.414061 0.5097591,-1.089841 0.5097656,-2.0273438 l 0,-5.3144529 1.1894529,0 0,5.4609379 c -7e-6,1.1406268 -0.2832103,2.0019538 -0.8496091,2.5839838 -0.5625063,0.582031 -1.3945367,0.873047 -2.4960938,0.873047 -1.105472,0 -1.9414087,-0.291016 -2.5078124,-0.873047 C 3.8107343,11.640301 3.5294846,10.778974 3.5294856,9.6383472 l 0,-5.4609379"
       id="path3027" />
    <path
       style="font-size:12px;font-style:normal;font-weight:normal;line-height:125%;letter-spacing:0px;word-spacing:0px;fill:#000000;fill-opacity:1;stroke:none;font-family:Sans"
       d="m 91.538439,46.116395 1.183594,0 0,8.748047 -1.183594,0 0,-8.748047"
       id="path3030" />
    <path
       style="font-size:26.00036621px;font-style:normal;font-weight:normal;line-height:125%;letter-spacing:0px;word-spacing:0px;baseline-shift:sub;fill:#000000;fill-opacity:1;stroke:none;font-family:Sans"
       d="m 95.396566,56.616972 2.685096,0 0,0.64747 -3.610597,0 0,-0.64747 c 0.291995,-0.302152 0.689363,-0.707138 1.192106,-1.214959 0.505278,-0.510356 0.822665,-0.839169 0.952162,-0.986439 0.24629,-0.276759 0.417679,-0.510356 0.514167,-0.700791 0.09902,-0.192968 0.148534,-0.382131 0.148538,-0.567489 -4e-6,-0.302148 -0.106646,-0.54844 -0.319927,-0.738877 -0.210748,-0.190428 -0.48624,-0.285644 -0.826476,-0.285649 -0.241217,5e-6 -0.496396,0.0419 -0.765538,0.125685 -0.266607,0.0838 -0.552255,0.21075 -0.856946,0.380865 l 0,-0.776964 c 0.309769,-0.12441 0.599226,-0.218357 0.868372,-0.28184 0.269142,-0.06347 0.515435,-0.09521 0.738877,-0.09522 0.589068,6e-6 1.058801,0.147273 1.4092,0.441803 0.350391,0.294541 0.525589,0.6881 0.525593,1.180681 -4e-6,0.233601 -0.04444,0.455772 -0.133303,0.666513 -0.08633,0.208209 -0.245026,0.454502 -0.47608,0.738878 -0.06348,0.07364 -0.26534,0.28692 -0.605575,0.639852 -0.340242,0.350398 -0.820131,0.841713 -1.439669,1.473947"
       id="path3032" />
  </g>
</svg>
