<?xml version="1.0" encoding="UTF-8" standalone="no"?>
<!-- Created with Inkscape (http://www.inkscape.org/) -->

<svg
   xmlns:dc="http://purl.org/dc/elements/1.1/"
   xmlns:cc="http://creativecommons.org/ns#"
   xmlns:rdf="http://www.w3.org/1999/02/22-rdf-syntax-ns#"
   xmlns:svg="http://www.w3.org/2000/svg"
   xmlns="http://www.w3.org/2000/svg"
   xmlns:sodipodi="http://sodipodi.sourceforge.net/DTD/sodipodi-0.dtd"
   xmlns:inkscape="http://www.inkscape.org/namespaces/inkscape"
   width="100"
   height="100"
   id="svg2"
   version="1.1"
   inkscape:version="0.48.0 r9654"
   sodipodi:docname="2011-(03)mar-28, 02.svg">
  <defs
     id="defs4" />
  <sodipodi:namedview
     id="base"
     pagecolor="#ffffff"
     bordercolor="#666666"
     borderopacity="1.0"
     inkscape:pageopacity="0.0"
     inkscape:pageshadow="2"
     inkscape:zoom="2.8284272"
     inkscape:cx="42.46955"
     inkscape:cy="28.624249"
     inkscape:document-units="px"
     inkscape:current-layer="layer1"
     showgrid="false"
     inkscape:window-width="1589"
     inkscape:window-height="1117"
     inkscape:window-x="1600"
     inkscape:window-y="27"
     inkscape:window-maximized="1"
     showguides="true"
     inkscape:guide-bbox="true" />
  <metadata
     id="metadata7">
    <rdf:RDF>
      <cc:Work
         rdf:about="">
        <dc:format>image/svg+xml</dc:format>
        <dc:type
           rdf:resource="http://purl.org/dc/dcmitype/StillImage" />
        <dc:title />
      </cc:Work>
    </rdf:RDF>
  </metadata>
  <g
     inkscape:label="Layer 1"
     inkscape:groupmode="layer"
     id="layer1">
    <rect
       style="fill:#0000ff;fill-rule:evenodd;stroke:#000000;stroke-width:1px;stroke-linecap:butt;stroke-linejoin:miter;stroke-opacity:1"
       id="rect3007"
       width="58"
       height="0"
       x="-451.49579"
       y="-5.8352985"
       transform="scale(1,-1)" />
    <rect
       style="fill:#0000ff;fill-rule:evenodd;stroke:#000000;stroke-width:1px;stroke-linecap:butt;stroke-linejoin:miter;stroke-opacity:1"
       id="rect3007-3"
       width="58"
       height="0"
       x="-388.05569"
       y="15.376292"
       transform="scale(1,-1)" />
    <path
       style="font-size:medium;font-style:normal;font-variant:normal;font-weight:normal;font-stretch:normal;text-indent:0;text-align:start;text-decoration:none;line-height:normal;letter-spacing:normal;word-spacing:normal;text-transform:none;direction:ltr;block-progression:tb;writing-mode:lr-tb;text-anchor:start;baseline-shift:baseline;color:#000000;fill:#000000;fill-opacity:1;stroke:none;stroke-width:1px;marker:none;visibility:visible;display:inline;overflow:visible;enable-background:accumulate;font-family:Sans;-inkscape-font-specification:Sans"
       d="m 18.25,18.875 0,0.5 0,75.3125 1,0 0,-74.8125 75.84375,0 0,-1 -76.34375,0 -0.5,0 z"
       id="path3034" />
    <path
       style="font-size:12px;fill-rule:evenodd;stroke-width:0.625;stroke-linejoin:round"
       d="M 23.175438,84.006252 18.755944,96.024717 14.33645,84.006252 c 2.609267,1.920048 6.179198,1.908985 8.838988,0 z"
       id="path4453" />
    <path
       style="font-size:12px;fill-rule:evenodd;stroke-width:0.625;stroke-linejoin:round"
       d="m 84.415413,14.95272 12.018465,4.419494 -12.018465,4.419494 c 1.920048,-2.609267 1.908985,-6.179198 0,-8.838988 z"
       id="path4455" />
    <path
       style="font-size:12px;font-style:normal;font-weight:normal;line-height:125%;letter-spacing:0px;word-spacing:0px;fill:#000000;fill-opacity:1;stroke:none;font-family:Sans"
       d="m 3.1600052,85.182791 1.1894532,0 0,5.314453 c -2.3e-6,0.937503 0.1699194,1.613283 0.5097656,2.027344 0.3398407,0.410157 0.8906214,0.615235 1.6523437,0.615234 0.7578074,1e-6 1.306635,-0.205077 1.6464844,-0.615234 0.3398374,-0.414061 0.5097594,-1.089841 0.5097654,-2.027344 l 0,-5.314453 1.189453,0 0,5.460938 c -7e-6,1.140627 -0.28321,2.001954 -0.849609,2.583984 -0.5625063,0.582031 -1.3945367,0.873047 -2.4960938,0.873047 -1.105472,0 -1.9414087,-0.291016 -2.5078125,-0.873047 -0.5625013,-0.58203 -0.843751,-1.443357 -0.84375,-2.583984 l 0,-5.460938"
       id="path4443"
       inkscape:connector-curvature="0" />
    <path
       style="font-size:12px;font-style:normal;font-weight:normal;line-height:125%;letter-spacing:0px;word-spacing:0px;fill:#000000;fill-opacity:1;stroke:none;font-family:Sans"
       d="m 89.865577,2.8048532 1.183594,0 0,8.7480468 -1.183594,0 0,-8.7480468"
       id="path4445"
       inkscape:connector-curvature="0" />
  </g>
</svg>
